<?xml version="1.0" standalone="no"?>
<!DOCTYPE svg PUBLIC "-//W3C//DTD SVG 1.1//EN" "http://www.w3.org/Graphics/SVG/1.1/DTD/svg11.dtd" >
<svg xmlns="http://www.w3.org/2000/svg">
<metadata></metadata>
<defs>
<font id="autopia-c-regularc-regular" horiz-adv-x="846" >
<font-face units-per-em="2048" ascent="1766" descent="-282" />
<missing-glyph horiz-adv-x="915" />
<glyph horiz-adv-x="2048" />
<glyph horiz-adv-x="2048" />
<glyph unicode="&#xd;" horiz-adv-x="681" />
<glyph unicode=" "  horiz-adv-x="915" />
<glyph unicode="&#x09;" horiz-adv-x="915" />
<glyph unicode="&#xa0;" horiz-adv-x="915" />
<glyph unicode="!" horiz-adv-x="333" d="M20 18v204l290 96v-204zM23 630v1652l291 97v-1653z" />
<glyph unicode="&#x22;" horiz-adv-x="610" d="M20 1932l27 187l290 92l-19 -126l273 87l-27 -186l-289 -93l17 126z" />
<glyph unicode="$" horiz-adv-x="1725" d="M20 588l287 93q1 -3 7 -55q2 -15 4 -29t3.5 -23.5t1.5 -11.5q1 -10 9 -58q8 -50 13 -65q2 -6 7 -25.5t8 -30.5q11 -40 22 -59q19 -34 28 -48q19 -30 33 -46q77 -85 180 -143q77 -44 148 -63v1169q-19 8 -47.5 20.5t-37.5 16.5q-46 20 -116 54q-71 35 -115 63 q-33 21 -96 72q-55 44 -84 88q-25 38 -55 104q-27 60 -36 126q-4 26 -5 39q-1 17 2 46q2 18 5 36q6 35 8 45l8 37q28 141 95 237q69 98 206 180q5 4 13 8q2 1 8 5l9 6q3 1 11 5l12 6q14 8 22 12q3 2 10.5 5.5t10.5 5.5q4 2 11.5 5t10.5 5q5 2 14 5.5t14 5.5q13 6 30 12 q5 2 15 5.5t14 4.5q16 6 24 8q6 2 20 6q3 0 6.5 1t8 2.5t6.5 2.5v254q99 33 146 49q144 48 144 49v-308q84 1 178 -13q256 -40 362 -176q21 -27 38 -68t24 -73q8 -33 12 -85q1 -11 5 -76q1 -16 1 -76q-25 -9 -144 -50q-9 -3 -57 -18.5t-89 -29.5q0 17 -0.5 50t-1.5 47 q-1 30 -8 93q-6 54 -23 101q-16 43 -42 77q-78 102 -255 144v-1038l7 -3.5t8 -3.5q17 -7 41 -17t39 -16.5t26 -11.5q8 -4 42 -19t59 -26q69 -32 100 -51q17 -10 88 -57q54 -35 82 -65q25 -26 63 -76q35 -46 51 -89q16 -45 27 -104q10 -59 9 -123q-9 -318 -197 -502 q-85 -84 -227 -153q-106 -52 -219 -82v-206l-289 -96v259q-140 -3 -266 32q-212 59 -346 203q-21 22 -37 49q-18 29 -29 53t-22 61q-14 48 -17 60q-9 35 -13 65q-7 50 -8 61q-2 25 -7 62zM468 1866q2 -22 4 -33q8 -56 34 -115q22 -51 53 -95q29 -41 80 -82t91 -67 q18 -13 40 -24v926l-4 -2q-7 -1 -34 -6h-2h-3q-3 0 -4 -1h-1h-1h-1v-1h-1h-1l-1 -1h-1h-1l-1 -1h-1h-1v-1h-2l-1 -1h-1h-1v-1h-1h-1l-2 -2h-1h-1l-2 -2l-1 -1h-1l-2 -2l-2 -2h-2q-24 -16 -53 -43q-28 -27 -58 -67q-31 -42 -55 -97t-36 -117q0 -1 -1 -6.5t-2 -12t-3 -14.5 q-1 -2 -6 -35q0 -2 -1 -7t-2 -11l-2 -12q-1 -8 -2.5 -20.5t-1.5 -13.5q-2 -12 0 -30zM1052 13q48 10 77 23q62 25 106 68q77 74 122 199q43 120 48 256q2 65 -8 113q-10 50 -26 95q-15 42 -48 84q-27 34 -60 71q-24 27 -77 62q-54 36 -84 53q-14 9 -47 26v-1051z" />
<glyph unicode="%" d="M20 352l217 131h589l-216 -131h-590zM248 12v74l289 96v-73zM248 664v73l289 96v-73z" />
<glyph unicode="'" horiz-adv-x="451" d="M20 1802q76 79 99 159t23 219l289 96q1 -59 0 -95q-2 -37 -9 -82q-8 -47 -24 -81q-17 -36 -43 -76q-25 -39 -66 -83q-8 -2 -68 -14q-39 -8 -66 -15l-1 1q-21 -6 -66 -15q-62 -12 -68 -14z" />
<glyph unicode="(" horiz-adv-x="1404" d="M23 1220q9 173 38 322q31 161 89 309q61 156 144 286q87 137 207 251q124 118 278 207q9 5 61 34q18 9 58 27q15 7 79 34q2 1 7.5 3t8.5 4l18 6q5 2 14.5 5.5t14.5 5.5q6 2 18 6.5t18 6.5q3 1 9.5 3t9.5 3q2 1 9.5 3t12.5 4q18 6 28 8q14 3 39.5 10t32.5 9q88 21 168 32 q-5 -5 -25 -19q-15 -10 -30 -24q-17 -15 -24 -20l-2 -2q-7 -7 -24 -19l-30 -24q-4 -3 -12 -10t-11 -9q-57 -9 -96 -19q-5 -1 -15 -3.5t-16 -4.5h-3h-1q-1 -1 -4 -1t-4 -1l-9 -3q-5 -1 -6 -2q-3 -1 -7.5 -3.5t-5.5 -3.5h-1q-2 0 -5 -0.5t-5 -1.5q-1 -1 -4 -3h-2h-1l-2 -2 q-1 -1 -3 -1q-1 -1 -12 -6t-17 -7q-4 -2 -11.5 -6t-11.5 -6q-27 -12 -32 -15q-127 -73 -233 -194t-181 -271q-74 -148 -127 -327q-50 -169 -75 -362q-23 -179 -20 -375q3 -184 34 -369q27 -164 80 -321q52 -154 136 -299q82 -143 191 -259q106 -114 250 -197 q141 -82 306 -115l-253 -127q-134 27 -243 77q-115 53 -206 123q-92 71 -172 160q-78 87 -140 189q-58 95 -106 212q-50 121 -79 226q-32 115 -51 233q-30 173 -39 311q-11 159 -2 322z" />
<glyph unicode=")" horiz-adv-x="1445" d="M18 2669l246 129q174 -25 315 -83q148 -61 260 -145t207 -196q92 -109 159 -236q63 -120 113 -269q48 -143 72 -289q25 -151 32 -301q7 -140 -3 -302q-9 -143 -35 -293q-44 -276 -152 -512q-109 -239 -291 -421q-67 -65 -132 -113q-70 -52 -165 -106q-83 -48 -206 -93 q-119 -44 -236 -67l59 60h1q1 0 5 4l13 13l21 22l17 18q101 20 200 83q98 62 190 165q92 102 168 231q75 126 133 290t86 332q25 151 34 291q9 139 -1 298q-9 146 -35 296q-26 148 -72 286q-47 139 -111 264q-64 124 -155 233q-88 105 -198 191q-107 84 -245 141 q-140 58 -294 79z" />
<glyph unicode="+" d="M20 352l217 131h27v186l290 96v-282h272l-216 -131h-56v-177l-290 -96v273h-244z" />
<glyph unicode="," horiz-adv-x="451" d="M19 -331q77 80 100 160q22 76 22 218l290 96q0 -47 -2 -95q-2 -45 -8 -82q-8 -49 -23 -80q-19 -39 -43 -77q-21 -32 -67 -82q-82 -18 -133 -29z" />
<glyph unicode="-" d="M20 352l217 131h589l-216 -131h-590z" />
<glyph unicode="." horiz-adv-x="403" d="M75 124q0 57 40 97t97 40t97 -40t40 -97t-40 -97t-97 -40t-97 40t-40 97z" />
<glyph unicode="/" horiz-adv-x="1258" d="M20 -330l931 2519l287 86l-930 -2519z" />
<glyph unicode="0" horiz-adv-x="1605" d="M20 1063q-6 360 92 703q55 185 134 300q14 20 44 56q19 23 63 62q42 38 87 65q55 33 117 60q73 31 153 50l-3 3q36 9 67 15q72 12 138 12q68 0 119 -10q50 -10 102 -34t87 -51q41 -31 73 -66q35 -38 62 -77q20 -29 49 -85q21 -41 40 -89q14 -35 33 -91q73 -220 96 -463 q24 -248 -2 -502t-100 -462q-70 -195 -175 -318q-30 -35 -49 -53q-27 -25 -63 -53q-42 -32 -94 -59q-59 -30 -123 -54q-57 -20 -121 -36q-78 -18 -146 -21q-69 -3 -125 6q-54 9 -107 32q-50 22 -91 51q-38 27 -75 67q-28 31 -61 78q-25 35 -49 86q-16 33 -38 89 q-15 39 -30 88q-98 329 -104 701zM306 1163q6 -368 101 -693q28 -97 91 -191t135 -157q74 -65 154 -99q83 -35 144 -24q59 37 133 146q71 104 116 227q73 204 99 454q26 251 2 496q-24 252 -93 458q-44 134 -138 254q-89 113 -203 176q-112 61 -204 45q-2 -1 -7 -1l-2 1 q-58 -35 -129 -151q-68 -112 -110 -248q-95 -329 -89 -693z" />
<glyph unicode="1" horiz-adv-x="1386" d="M19 -64l216 131q14 0 98 -2t92 -2q28 0 76 3q4 5 14 15q21 26 31 62q11 40 14 88q3 49 3 91q0 22 -2 100t-2 86v1151q0 44 5 109q5 68 7 132q1 53 -9 116q-11 64 -37 98q-27 37 -73 58q-49 22 -95 28q-45 6 -106 4q-54 -1 -97 -8q-38 -6 -76 -15l104 116q70 15 131 23 q76 10 144 13q75 3 144 -5q67 -8 124 -34q61 -28 89 -69q29 -39 41 -107q11 -59 9 -122t-7 -132q-6 -78 -6 -108v-1151q0 -34 4 -83q6 -78 7 -98q2 -49 -1 -96q-3 -45 -21 -99q-8 -22 -23 -49l29 12q29 -26 61 -47q23 -15 57 -33q31 -17 61 -24q24 -6 59 -13q22 -5 66 -6 q14 0 36 -1.5t29 -1.5q39 0 74 1t76 1l-216 -132h-43q-64 0 -83 1q-28 1 -80 3q-55 2 -83 7q-40 8 -76 16q-47 11 -78 25q-37 17 -70 38l-2 1q-2 1 -3 1q-35 -18 -77 -34q-85 -33 -187 -51q-90 -16 -147 -16q-61 0 -120 4q-73 5 -81 5z" />
<glyph unicode="2" horiz-adv-x="1691" d="M24 11q-31 253 381 613q32 28 123 103q29 24 71.5 60t57.5 48q48 40 123 110q64 60 118 119q45 50 100 123q52 70 82 136q33 73 51 146q21 86 21 161q0 94 -21 186q-21 90 -70 178q-47 83 -120 136t-154 74q-83 21 -147 15q-2 0 -7 -0.5t-7 -1.5h-3h-1h-2h-1q-1 0 -2 -1 l-1 -1h-2h-2h-1h-2l-2 -2h-2h-1h-2l-2 -2h-2l-1 -1h-1h-1h-1v-1h-1l-1 -1h-1h-1v-1h-2v-1q-1 -1 -2 -1t-1.5 -0.5t-1.5 -0.5q-2 0 -5 -3l-4 -1v-1l-1 -1q-2 -1 -5 -3.5t-5 -3.5h-1q0 -1 -2 -1t-2 -1q-64 -43 -126 -120q-62 -78 -89 -165l-287 -94q68 215 289 360q1 0 4.5 3 t5.5 4q4 2 32 20q13 6 16 9q16 8 19 10q10 6 16 9q2 1 5.5 2.5t6.5 3t6 3.5q4 2 12 5.5t12 5.5l18 9q4 2 19 7q26 11 30 13q11 6 21 8l22 8q8 2 24 8l27 8q4 1 11.5 3.5t11.5 3.5q11 4 29 8q3 1 11 3t11 3t9.5 2t9.5 1q6 1 16 5q10 2 16 3q3 0 8 0.5t8 1.5q26 4 38 5 q120 12 220 -13q98 -24 182 -87q76 -57 128 -145q50 -86 72 -184q21 -94 21 -193q0 -72 -14 -135q-17 -74 -38 -128q-21 -51 -62 -121q-36 -60 -77 -114t-91 -108q-47 -51 -97 -101q-42 -42 -106 -98q-100 -88 -103 -90q-17 -14 -53.5 -43.5t-50.5 -41.5 q-23 -19 -55.5 -46.5t-38.5 -32.5q-373 -325 -344 -555q3 -23 24 -36q20 -13 50 -19q28 -6 70 -6q30 0 78 2q9 0 36 1.5t44 2.5q60 2 69 2h488q34 0 58 -1t50 -1q60 68 104 204l288 87q-3 -12 -12 -39q-2 -4 -12 -43q-5 -18 -16 -43q-13 -29 -23 -43q-17 -24 -32 -43 q-18 -24 -43 -44q-29 -23 -57 -43q-35 -25 -75 -43q-50 -26 -117 -48q-61 -20 -104 -27q-53 -9 -87 -10q-44 -1 -69 0q-19 1 -46 5q-21 3 -23 3h-487q-8 0 -50 -3q-56 -4 -86 -5q-45 -1 -100 0q-47 1 -98 10q-42 7 -75 29q-31 21 -36 53z" />
<glyph unicode="3" horiz-adv-x="1598" d="M18 242l286 110q74 -96 148 -164t165 -115q92 -47 197 -61q84 -6 115 -4q34 3 58 10h1h1h1h2h1l1 2h1h1h2q1 0 2 1q55 25 113 94q58 68 105 170q47 101 60 220q14 123 -20 249q-18 69 -54 125q-37 57 -85 99q-45 40 -98 76q-48 33 -114 78q-54 36 -99 73l-435 -21 l192 126l340 16q17 13 70 54q32 27 62 57q32 32 58 74q22 36 41 91q35 100 29 189q-6 90 -39 168q-33 77 -90 139q-55 60 -125 103q-64 40 -145 57q-82 17 -149 6q-2 0 -5.5 -0.5t-4.5 -1.5q-34 -18 -100 -88q-68 -72 -120 -158l-8 -2t-7.5 -2t-4.5 -1t-4.5 -1t-8 -2 t-8.5 -2l-20 -5q-2 0 -8.5 -2t-12.5 -4q-4 -1 -7.5 -2t-5.5 -1.5l-4 -1t-3 -0.5t-3.5 -1t-6.5 -2t-9 -3q-14 -5 -21 -5q-42 -12 -70 -19q-19 -5 -45 -12l-25 -7q91 148 184 230q113 101 278 164q92 35 191 52q128 23 242 6q111 -17 196 -60q87 -44 144 -113q60 -73 89 -153 q31 -88 30 -181q-2 -101 -35 -197q-15 -39 -28 -63q-23 -42 -32 -55q-15 -21 -43 -53q-34 -38 -43 -47q-21 -21 -48 -44q-31 -26 -47 -38q-5 -4 -12 -9t-18 -14t-19 -15q-13 -10 -29 -22.5t-17 -13.5q41 -32 87 -64q73 -50 92 -62q46 -29 87 -62q50 -40 80 -73t62 -87 q30 -50 46 -110q29 -99 33 -194q5 -97 -19 -188q-24 -93 -72 -177q-46 -80 -132 -160q-79 -74 -194 -134l-38 -19q-5 -3 -32 -15q-10 -5 -19 -8q-3 -2 -23 -9l-21 -9q-5 -2 -14.5 -5t-14.5 -5t-15 -5.5t-16 -5.5q-16 -5 -28 -8q-194 -54 -367 -32q-91 11 -175 43 q-79 30 -146 80q-66 50 -119 104q-50 52 -112 132z" />
<glyph unicode="4" horiz-adv-x="1753" d="M14 736q-1 24 5 51q7 28 18 55q12 28 25 53q9 17 31 53q10 16 31 49q5 8 15 23t14 20q6 8 13.5 20t9.5 16q318 524 514 822q2 4 8.5 14.5t10.5 18.5l8 14t8.5 14t6.5 10q5 9 29 38q13 16 43 42q23 20 59 43q32 21 84 44q70 33 131 48q60 15 101 12q10 -1 25.5 -2.5 t18.5 -1.5q16 5 49 15t49 15q-20 -83 -26 -163q-6 -79 -1 -219q5 -150 5 -169v-913h428l-217 -132h-216q0 -5 -2 -17q-6 -90 -9 -154q-3 -69 4 -141q7 -74 32 -120q16 -26 24 -37q5 -7 26 -28q13 -13 31 -22q7 -3 17.5 -8t13.5 -7q13 -7 35 -11t35 -6q11 -1 40 -3 q18 -1 38 -1h42h41l-217 -130h-11h-63q-7 0 -63 2q-38 1 -68 8q-31 7 -61 16q-39 12 -60 25q-19 11 -46 36q-20 -9 -64 -25q-57 -21 -115 -37q-48 -13 -109 -20q-47 -5 -80 -7q-25 -1 -84 0q-39 1 -64 1l218 131q160 0 201 8q19 12 44 32q-19 49 -24 102q-9 76 -4 145 q1 19 5 71t6 84q3 39 6 112h-606q-2 0 -8 -0.5l-18 -1.5t-25 -2q-45 -3 -89 -3q-45 0 -97 3q-49 3 -90 21q-39 17 -51 47q-10 22 -11 47zM307 833q2 -23 9 -41q9 -20 32 -32q25 -13 58 -14q35 -2 68 0q57 3 78 4q60 4 72 4h389v817q0 16 -2 134t-2 146q0 42 7 133 q1 7 2.5 21.5t1.5 20.5l-6 4q-15 -21 -43 -61q-214 -332 -512 -820q-9 -17 -23 -39q-5 -8 -14.5 -22t-13.5 -21q-2 -3 -12.5 -19.5t-16.5 -27.5q-19 -31 -28 -48q-14 -27 -23 -48q-13 -31 -17 -47q-6 -21 -4 -44z" />
<glyph unicode="5" horiz-adv-x="1565" d="M20 250l281 110q15 -18 33.5 -40t22.5 -27q6 -7 51 -56q34 -37 60 -58q27 -22 60 -44q35 -23 74 -42q78 -33 142 -44q74 -13 119 -7q49 7 97 34q51 29 106 87t98 134q44 78 68 187q24 113 17 237q-6 91 -33 182q-26 89 -75 171t-109 144q-64 65 -139 103q-76 38 -164 44 q-61 3 -100 -4q-40 -7 -71 -21q-72 -32 -111 -49q-91 -39 -178 -70q-5 -2 -17 -6q-62 -21 -102 -22q-43 -1 -46 12q-20 65 -26 138q-5 66 3 156q9 95 16 149q9 68 24 156q12 70 20 137q2 21 -2 48q-4 28 -4 57q0 22 10 57q9 30 40 66q30 35 83 65q66 40 139 64q71 24 129 30 q52 6 102 4q55 -2 72 -6l24 -5h642q-6 -4 -54 -34q-12 -8 -54 -32q-40 -23 -59 -35q-11 -7 -21.5 -13.5t-17.5 -10.5t-10 -6h-642q-20 0 -68 3q-6 -19 -9 -45q-4 -32 -5 -63q0 -10 -0.5 -21t-1 -17t-0.5 -10q-3 -21 -19 -130q-3 -21 -11 -70.5t-11 -72.5q-11 -74 -17 -137 q-7 -73 -6 -142q1 -65 14 -128q354 153 579 139q110 -6 207 -49q94 -42 160 -108q64 -64 113 -153q48 -87 72 -178q24 -92 30 -186q33 -633 -614 -852q-119 -41 -232 -53q-109 -13 -191 2q-84 15 -170 55q-43 18 -91 49q-39 25 -80 66q-48 48 -64 66q-50 56 -68 78 q-6 8 -15 17z" />
<glyph unicode="6" horiz-adv-x="1646" d="M15 975q-12 458 114 783q25 69 48 117q20 43 57 107q32 56 83 110t111 97q54 39 104 65q10 4 15 7q6 3 18 8.5t18 8.5l27 13q4 2 12.5 5.5t12.5 5.5t32 12q4 2 22 9t28 10q9 3 44 13q5 1 16 3.5t17 4.5q5 1 13.5 3.5t11.5 3.5q10 1 25 5q464 88 685 -310q-15 -6 -71 -27 q-18 -7 -42 -16.5t-30 -11.5l-72 -27q-18 -7 -41.5 -16.5t-29.5 -11.5q-44 81 -118 147q-73 65 -145 99q-74 35 -142 48t-119 4q-3 0 -4 -1h-1h-1h-2h-1h-1h-1v-1q-1 0 -2 -1q-1 0 -2.5 -0.5t-2.5 -1.5h-1h-2q-14 -7 -36 -24q-69 -50 -132 -150q-61 -96 -108 -218 q-114 -296 -112 -709l-6 -5q73 57 136 97q43 28 95 52q3 1 26.5 12t35.5 16q4 2 8 3.5t9 4t8 3.5q308 120 560 53q102 -27 183 -87q83 -62 134 -137q51 -76 82 -175q32 -104 38 -197q6 -98 -11 -205q-16 -102 -56 -199q-40 -96 -104 -180t-147 -147q-70 -51 -165 -95 q-4 -2 -14 -6t-14 -6q-6 -3 -20 -9t-30 -12q-4 -1 -12 -4t-12 -4q-5 -2 -15.5 -5t-12.5 -4t-9 -3.5t-11 -3.5q-7 -2 -28 -7q-121 -33 -236 -35q-110 -1 -199 26q-91 28 -161 77q-76 53 -127 117q-54 68 -92 147q-44 95 -67 202q-22 103 -39 245q-17 154 -22 308zM309 1010 l2 -4q6 -126 22 -245q13 -135 35 -242q21 -100 68 -198q25 -52 56 -94q29 -39 72 -79q32 -29 80 -62q38 -26 85 -46q44 -19 85 -33t81 -19q38 -5 70 -6q30 -1 55 7l3 1q1 0 2 1q19 9 46 29q58 42 106 112q49 72 79 157q32 90 43 184q13 108 9 195q-5 103 -30 190t-73 170 q-45 78 -118 136q-72 57 -165 83q-53 15 -120 17q-64 2 -92 -4q-33 -7 -38 -9h-2q0 -1 -1 -1q-13 -5 -25 -13q-18 -13 -106 -82t-171 -115q-30 -18 -58 -30z" />
<glyph unicode="7" horiz-adv-x="1720" d="M18 1838q6 17 15 55q8 33 17 63q11 34 23 60q16 34 44 65q29 32 67 60q9 6 31 20q17 11 38 21q41 22 76 34q43 15 72 23q16 4 65 14q33 7 57 8q36 2 49 2q16 0 40 -2q18 -1 30 -3q3 0 9.5 -0.5t9.5 -1.5l6 -2h2h555q8 0 51 3q29 2 89 6q51 3 104 2q56 -1 104 -11t80 -29 q33 -20 41 -54q9 -43 -1 -97q-11 -57 -25 -91q-11 -26 -38 -84q-31 -65 -63 -124q-8 -15 -21.5 -39.5t-22.5 -41.5t-16 -29l-17.5 -30t-27 -45.5l-28.5 -47.5q-13 -22 -28 -46.5t-24 -39.5t-14 -24q-204 -338 -320 -648q-117 -311 -165 -672l-290 -94q49 367 167 681 q119 317 324 658q3 5 14 23.5t24.5 40.5t27.5 46q48 81 72 123t60 108q37 68 61 120q80 168 62 253q-6 25 -28 39q-24 15 -55 21q-25 5 -75 5q-33 0 -83 -2q-22 -1 -84 -5q-45 -3 -72 -3h-554q-4 0 -13 0.5t-25.5 1t-31.5 0.5q-5 -8 -13 -24q-10 -21 -13 -28q-2 -5 -5 -14.5 t-5 -13.5q-6 -17 -11 -32q-8 -26 -9 -29q-2 -7 -9 -32q-2 -9 -5.5 -18.5t-3.5 -10.5q-6 -2 -30 -9t-42 -13t-42 -13t-30 -9l-3 -1q-6 -2 -30 -9t-42 -13t-42 -12.5t-30 -8.5z" />
<glyph unicode="8" horiz-adv-x="1557" d="M24 582q6 100 36 190q22 66 65 128q42 62 83 101q14 14 45 44t47 46q48 47 82 89l35 9q-81 42 -144 105q-67 69 -108 150q-39 78 -56 174q-16 90 -5 184q10 86 50 177q38 86 104 158q52 56 125 102l10.5 7t11.5 7q3 2 19 10q56 32 131 61q75 28 153 45v-5l12 3 q135 27 244 15q105 -11 198 -51q88 -37 150 -104q63 -67 100 -142q40 -81 49 -168q9 -95 -5 -180q-15 -91 -61 -178q-47 -89 -120 -162l-17 -23q-15 -20 -43 -48q-26 -26 -65 -55q-30 -22 -62 -39q1 0 7 3t10 4q18 7 40.5 17t28.5 12q30 -38 75 -81q53 -51 79 -75 q43 -40 72 -72q37 -42 65 -90q26 -46 44 -107q51 -176 21 -337q-30 -171 -130 -303q-98 -129 -298 -226q-5 -2 -15 -7l-16 -8q-4 -2 -13.5 -6t-14.5 -6q-3 -2 -12 -5.5t-14 -5.5q-3 -1 -23 -9q-4 -2 -19 -7l-18 -6t-16 -5l-39 -12q-13 -4 -32 -7q-116 -28 -207 -31 q-92 -3 -176 19q-81 21 -147 60q-64 38 -131 100q-70 65 -114 155q-46 93 -62 189q-15 91 -9 197zM315 670q-6 -98 10 -190q17 -96 58 -183q41 -86 109 -148q48 -45 105 -78q59 -34 108 -50q56 -18 101 -25q50 -8 85 -6q42 2 59 6h1q1 0 2 1l1 1h1h1v1h2q1 0 2 1h1h2v1h2 l1 1q2 0 2 1q31 14 67 48q41 38 80 85q42 51 76 122q36 75 49 150q27 161 -20 326q-17 64 -58 127q-39 60 -79 97q-43 40 -98 92q-56 53 -95 100q3 1 16.5 7.5t22.5 9.5q-4 -1 -11.5 -3.5t-11.5 -3.5q-147 -35 -270 -29q-47 2 -68 5l-2 -2q-53 -53 -89 -86q-37 -34 -72 -85 q-36 -52 -55 -113q-29 -86 -35 -180zM410 1778q6 -91 38 -190q30 -90 97 -170q66 -78 161 -124q38 -17 103 -25q62 -7 125 -4q3 3 11 10.5t12 11.5t13 13.5t15 15.5l26 26q89 91 125 203q36 113 21 218t-67 203q-53 101 -127 167q-76 69 -173 102q-95 33 -190 13l1 -3 q-2 0 -3 -1h-1v-1h-1h-1l-4 -4q-61 -40 -104 -112q-44 -74 -63 -161q-20 -90 -14 -188z" />
<glyph unicode="9" horiz-adv-x="1572" d="M29 1687q15 120 65 237q50 116 127 198q73 78 178 136l18 9q10 7 25 13q46 23 100 43q62 23 106 34q11 4 19 5q5 1 14 3.5t13 3.5l-3 -4q100 22 172 23q79 1 148 -11q65 -12 124 -39q57 -26 103 -63q48 -38 83 -82q40 -49 67 -98q30 -53 51 -110q18 -49 36 -116 q17 -65 25 -120l1 -5q1 -5 3 -17t4 -25q5 -30 8 -60q1 -5 2 -22t2 -29q3 -32 1 -62q-1 -22 -8 -49q-6 -26 -21 -51q-10 -18 -26 -35l68 23q14 -121 17 -237q3 -121 -9 -256q-11 -119 -41 -259q-26 -119 -77 -243q-48 -117 -119 -214q-53 -73 -116 -126q-65 -55 -167 -105 q-34 -17 -95 -41q-46 -18 -128 -39q-110 -28 -211 -26q-98 1 -179 24q-78 22 -148 70q-68 47 -119 107q-46 55 -92 136l288 108q26 -51 67 -98q39 -45 81 -78q41 -32 89 -60t90 -41q58 -18 86 -25q46 -11 76 -10q41 2 59 4v1h1q14 7 61 45q41 33 79 84q61 82 109 201 q45 110 73 237q29 129 40 254q13 147 12 254q-2 81 -5 122q-29 -29 -56 -53q-38 -35 -110 -79q-74 -45 -166 -80q-66 -25 -142 -43q-172 -34 -309 -11q-135 23 -226 97q-90 74 -146 177q-54 99 -71 227q-16 123 -1 246zM334 1728q-2 -88 11 -166q13 -84 39 -159 q25 -74 68 -140q42 -65 96 -111t126 -72q71 -25 154 -22q25 1 53 6q22 15 48 38q28 25 76 70q37 34 84 74l-1 -2q17 14 52 39q10 7 42 31q9 7 23 28q10 15 17 44q7 19 8 32q2 23 1 38q-1 14 -1 38q0 16 -3 41q-1 10 -3 23t-2 15q-1 4 -3.5 17t-3.5 22q-2 10 -3.5 22t-1.5 14 q-21 138 -85 258q-65 123 -150 203q-88 83 -191 120q-106 38 -203 19h-2l-1 -2h-2h-3h-2v-2h-1h-2h-1q-51 -30 -98 -86q-44 -53 -73 -121q-27 -63 -44 -147q-16 -80 -18 -162z" />
<glyph unicode=":" horiz-adv-x="330" d="M20 239v73l290 97v-74zM20 891v73q23 7 146 49l144 48v-74q-9 -3 -144 -49l1 1q-130 -42 -147 -48z" />
<glyph unicode=";" horiz-adv-x="455" d="M19 -331q77 80 100 160q22 76 22 218l290 96q0 -47 -2 -95q-2 -45 -8 -82q-8 -49 -23 -80q-19 -39 -43 -77q-21 -32 -67 -82q-82 -18 -133 -29zM152 434q0 57 40 97t97 40t97 -40t40 -97t-40 -97t-97 -40t-97 40t-40 97z" />
<glyph unicode="&#x3c;" horiz-adv-x="405" d="M20 612v5l67 355l290 92l-67 -351l76 -354l-290 -103z" />
<glyph unicode="=" d="M20 352l217 131h589l-216 -131h-590zM20 561l109 65l108 67h589l-108 -66l-108 -66h-590z" />
<glyph unicode="&#x3e;" horiz-adv-x="405" d="M20 262l75 353l-65 352l289 102l67 -354v-7l-76 -356z" />
<glyph unicode="?" horiz-adv-x="1181" d="M17 20v205l289 96v-204zM20 630q-25 195 291 468q51 45 92 78q66 54 98 80q39 31 92 80q43 40 88 88q41 44 75 92q37 51 61 100q22 44 38 108q15 60 15 121q0 109 -40 211q-40 104 -117 159q-54 38 -112 53q-61 15 -102 11h-3q-1 -1 -3 -1l-4 -4h-1q-41 -26 -87 -83 q-45 -55 -68 -123q-8 -3 -72 -23t-70 -22l-3 3q-6 -2 -31 -9t-43 -13q-64 -20 -70 -22q27 84 82 154q56 71 152 133q82 52 193 91q97 34 194 47q104 12 180 -7q80 -20 144 -68q85 -64 127 -170q41 -104 41 -222q0 -66 -16 -127q-17 -64 -44 -117q-30 -58 -69 -112 q-36 -49 -83 -102q-39 -44 -98 -98q-64 -59 -97 -87q-15 -13 -99 -82q-24 -20 -54.5 -46t-32.5 -28q-276 -240 -253 -411z" />
<glyph unicode="@" horiz-adv-x="1257" d="M17 610q5 74 18 144q5 25 11 53q8 35 13 53q9 31 18 55q12 31 25 55q16 30 36 55q13 16 48 51q29 29 62 52t80 48q54 29 97 46q23 9 71 25q39 12 85 22q39 9 75 12q48 4 53 4q27 0 47 -1t35 -1q4 0 6 -1q78 -6 134 -26q60 -21 105 -51q46 -30 78 -76t54 -92 q22 -47 35 -110q17 -81 21 -116q7 -58 8 -127q1 -73 0 -125q-2 -85 -5 -128q-5 -107 -190 -197q-43 -21 -93 -38q-44 -14 -78 -21q-28 -6 -57 -8q-23 -1 -39 3q-19 5 -26 10l-2 1l-2 1q-2 -1 -6.5 -3t-6.5 -3q-52 -24 -84 -34q-42 -15 -91 -25l1 -3l2 -1q1 -1 2 -1 q68 -41 150 -50q45 -6 108 7l-117 -119q-142 -28 -235 -16q-89 9 -160 43q-74 35 -121 84q-50 52 -84 115q-35 66 -53 135q-17 67 -25 149q-7 77 -3 150zM313 683q0 -79 13 -170q1 -10 5 -28q26 22 70 47q47 25 131 59q2 0 6.5 2l13.5 6t17 7q9 4 32.5 13t36.5 14 q46 18 79 29h-2q1 93 -24 138q-38 67 -110 81q-21 -26 -29 -53l-236 -71q-3 -37 -3 -74zM324 838q1 1 3.5 3t3.5 3q34 34 81 61q52 29 125 57q91 34 148 44q66 12 112 9q3 -1 8.5 -1t8.5 -1v-1q-11 15 -22 28q-39 45 -98 74q-57 28 -129 34q-73 2 -81 1q-51 -39 -96 -125 q-47 -88 -64 -180v-6zM535 429q-5 -57 21 -110q26 -54 73 -73q12 -6 24 -9q3 2 8.5 6t7.5 5q1 0 3.5 1t3.5 2q5 3 30 17q7 13 8 31q2 20 0 55q-1 23 -1 40v87q-1 40 -1 92q-3 -1 -23 -8q-6 -2 -21.5 -8.5t-24.5 -10.5q-10 -4 -31 -12t-31 -12h-4q-1 0 -4 -1.5l-5 -2.5 q-28 -33 -33 -89z" />
<glyph unicode="A" horiz-adv-x="2627" d="M20 -61l130 121l142 26l84 225l251 664q2 0 7.5 2.5t9.5 3.5q-10 24 -11 51v5q0 33 11 72q10 32 24 72q5 13 16 40t14 33q16 39 23 55l177 531q12 36 20 64q7 23 20 66q8 27 25 60q17 34 38 63q18 25 57 59q42 36 83 61l15 9q2 1 7.5 4t8.5 5q-3 9 -7 23.5t-6 19.5 q11 5 69 25q17 6 42 15t34 12l-1 -8q15 6 68 24q15 5 40.5 14.5t35.5 12.5q25 -100 102 -279q76 -178 94 -229q55 -151 111 -312q5 -15 132 -393q29 -87 64 -190t42 -123q2 -6 19.5 -55t30.5 -84q37 -99 59 -164q26 -76 42 -142q3 -11 14 -75q10 -60 20 -90q12 -37 32 -61 q26 -31 65 -55q35 -21 74 -34q32 -11 88 -17q32 -4 84 -6q22 -1 85 -1l-216 -131q-39 0 -95 2q-41 1 -101 9q-57 7 -103 21q-43 13 -90 41q-19 10 -30 19q-37 -18 -84 -35q-40 -15 -68 -23q-31 -9 -65 -15q-10 -2 -19.5 -3.5t-19 -2.5t-13.5 -2q-24 -4 -52 -5q-41 -2 -42 -2 q-6 -1 -44 -1h-36l216 132q81 0 114 4q20 15 43 37q-2 5 -5.5 15t-5.5 14q-12 40 -21 94q-10 63 -13 74q-20 75 -43 140q-42 122 -58 164q-18 49 -51 139l-76 228q-1 0 -3 -1t-3 -1q-109 -43 -227 -61q-112 -17 -179 -17h-7q-87 2 -161 8q-96 8 -118 8h-5q-4 -1 -14 -1.5 t-21 -0.5q-12 -1 -34 -1l-192 -509l-104 -282l27 15l355 -67l-252 -127l-342 64h-2zM925 1114q1 -25 11 -43q11 -17 27 -28q14 -10 37 -13q22 -3 40 -3q7 0 51 2t53 2q59 0 158 -3q132 -4 165 -4q67 0 99 7q15 11 27 22l4 1q-67 202 -132 389q-79 227 -110 313 q-20 53 -94 228q-5 13 -13.5 35t-11.5 28l-2 -3q-25 -59 -48 -128l-177 -531l-19 -47q-2 -5 -23 -56q-13 -31 -21 -57q-12 -38 -17 -59q-4 -18 -4 -38v-14z" />
<glyph unicode="B" horiz-adv-x="2110" d="M19 -62l216 131q144 0 180 2q14 14 25 29q22 35 31 95q9 64 9 106v8q-3 88 -5 132q-5 88 -5 113v1174q0 36 6 120q4 52 6 144v19q0 52 -9 110q-11 70 -37 108q-17 26 -42 46q-32 26 -47 34q-23 12 -55 21q-15 4 -57 12q-31 6 -63 7q-52 2 -60 2q-35 0 -63 -1h-29 q9 4 53 32q14 9 33.5 20.5t22.5 13.5l1 -1q6 4 24.5 15t29.5 18q44 28 53 32h12h61q35 0 63 -1q41 -1 68 -6q9 -2 31.5 -5t34.5 -5q38 -6 66 -17q22 -9 57 -26q30 -15 54 -36l2 -2q32 14 57 23q62 23 116 35q60 13 101 17q24 2 78 5h17q20 0 56 -1q56 -2 59 -2q85 0 163 -6 q65 -5 162 -24q88 -17 155 -43q68 -26 134 -70q60 -40 104 -98q43 -56 62 -135q13 -53 13 -114q0 -29 -3 -60q-9 -115 -57 -211q-48 -97 -145 -180q-2 -2 -7 -5.5t-8 -5.5q-26 -18 -39 -26q-28 -17 -33 -20q-5 -2 -14 -7t-14 -8q-3 -2 -11 -6t-11 -6q-6 -4 -15 -13 q-8 -8 -11 -15t-3 -19q0 -10 5 -28q9 -30 51 -57q37 -24 105 -53q60 -26 87 -46q102 -69 164 -180t79 -239q7 -57 8 -110q0 -147 -58 -263q-77 -156 -276 -275q-171 -103 -369 -151q-195 -47 -371 -47q-171 0 -302 29q-90 20 -168 64q-28 -14 -82 -35q-81 -30 -159 -45 q-81 -16 -119 -17q-18 -1 -38 -1q-30 0 -64 2q-61 3 -66 3zM730 173l28 12q52 -39 111 -68q55 -27 118 -39q61 -12 116 -15q72 -4 131 -4q88 0 174 13q77 12 163 53q84 41 138 105q54 65 80 180q15 64 15 141q0 59 -9 125q-17 128 -75 231q-60 107 -156 173q-15 10 -62 31 q-17 8 -45 20l-35 15q-38 16 -72 45q-36 30 -43 61q-2 12 -2 19l1 -4q-3 -2 -8 -5.5t-8 -5.5l-528 -15v-603q0 -30 6 -108q8 -109 9 -132v-8q0 -48 -11 -113q-13 -65 -36 -104zM742 2302q15 -32 23 -85q10 -61 10 -115v-18q-1 -51 -8 -145q-6 -84 -6 -118v-449l618 19v-3 q8 8 13 12q24 22 50 37q9 5 24 14.5t18 11.5l20 12q64 54 110 144q45 89 54 190q3 28 3 54q0 59 -14 112q-20 77 -57 127t-98 92q-59 41 -122 65q-68 26 -141 40q-69 13 -146 20q-69 6 -142 6q-152 0 -182 -3q-16 -12 -25 -20h-2z" />
<glyph unicode="C" horiz-adv-x="2257" d="M16 1132v27q0 83 5 167q6 87 26 195q21 110 50 195q32 92 83 187q48 89 119 174q66 79 163 155q101 79 210 134q13 6 43 20q14 7 17 8q156 67 312 104q151 36 301 42q39 2 77 2q101 0 190 -12q122 -16 233 -55q9 -4 45 -17q45 -16 53 -19q30 -13 50 -22q29 -14 51 -29 t40 -32q20 -19 35 -40q19 -29 32 -67q17 -51 21 -73q6 -33 9 -87q4 -72 4 -75q0 -38 1 -73q-5 -2 -21.5 -7.5t-52 -17.5t-70.5 -24l-63 -21q-33 -11 -81 -29q-2 60 -3 94q-1 28 -8 93q-6 54 -20 102q-13 42 -34 75q-15 22 -31 36q-15 13 -36 28q-14 10 -47 25q-11 5 -26 12 t-19 9q-24 11 -50 20q-10 4 -21 8t-17 6l-9 3q-105 36 -218 49q-74 9 -142 9q-39 0 -76 -3q-109 -8 -182 -23q-83 -17 -129 -37l-4 -1q-2 -1 -6 -3.5t-6 -3.5q-144 -73 -263 -249t-183 -403q-62 -218 -62 -440v-14q1 -122 22 -257q19 -125 65 -255q46 -131 109 -236 q64 -108 160 -199q95 -91 211 -145q105 -49 229 -76q123 -27 229 -30q26 -1 52 -1q76 0 142 7q87 9 144 32q9 3 28.5 11t26.5 10q35 13 40 15t24 12q15 8 24 17q10 10 22 26q52 59 82 182q31 124 32 238l284 91q-6 -313 -130 -456q-29 -32 -70 -62q-47 -34 -81 -53 q-28 -16 -94 -46q-59 -27 -80 -35q-52 -19 -66 -25q-163 -63 -324 -90q-112 -19 -216 -19q-42 0 -83 3q-133 10 -258 42q-114 29 -229 82q-120 54 -222 150q-101 95 -166 204q-66 110 -111 242q-46 133 -65 258q-19 127 -21 261z" />
<glyph unicode="D" horiz-adv-x="2597" d="M18 -66l216 132q144 0 180 2q14 14 25 29q22 35 31 94q9 64 9 107v8q-3 88 -5 131q-4 69 -4 112v1174q0 50 5 120q5 73 7 144v9q0 50 -10 119q-11 73 -36 110q-16 24 -43 46q-30 24 -46 34q-21 13 -55 22q-25 7 -58 13q-24 4 -63 6t-60 3t-62 0h-30q15 10 55 34 q45 27 55 32l-5 -1q51 31 55 34q16 10 53 32h12q47 0 61 -1q8 -1 30.5 -2t32.5 0q48 -2 68 -5l66 -11q38 -6 66 -17q32 -12 57 -25q30 -15 54 -36q1 -1 3 -3.5t3 -3.5q6 2 16 6.5t16 6.5q84 31 173 52q78 18 158 23q59 3 106 3h23q53 -1 117 -6q56 -4 92 -4q335 0 603 -119 q125 -55 228 -149q103 -95 174 -210q69 -114 115 -252q45 -137 60 -279q9 -87 9 -174q0 -58 -4 -116q-10 -145 -47 -284q-35 -134 -101 -264t-151 -227q-105 -121 -256 -211q-115 -71 -244 -119q-135 -50 -253 -73q-141 -27 -229 -36q-100 -10 -209 -10q-81 0 -109 1 q-39 1 -102 6q-65 5 -106 13q-43 9 -97 24q-49 14 -101 40q-3 2 -9.5 5t-9.5 5q-28 -14 -82 -35q-86 -32 -160 -46q-75 -14 -119 -16h-22q-28 0 -79 1q-18 0 -34 0.5t-24 1t-9 0.5zM720 174l27 12q30 -22 59 -38q40 -22 54 -29q32 -16 59 -23q48 -12 56 -15q22 -7 61 -11 q45 -5 58 -6q33 -3 65 -3h63h69q345 0 524 107q100 61 179 151q78 90 137 211q57 118 91 252q34 137 43 277q3 54 3 107q0 89 -9 176q-15 140 -57 275q-41 133 -108 248q-66 114 -163 205q-96 90 -218 145q-244 108 -537 108h-11q-20 0 -124 2q-21 0 -63.5 0.5t-58.5 1.5 h-22q-26 0 -67 -1t-68 -9q-12 -6 -27 -18q15 -33 23 -83q10 -60 10 -115v-18q-2 -72 -7 -145q-6 -84 -6 -119v-1174q0 -31 6 -109q8 -109 9 -131v-8q0 -49 -11 -114q-12 -60 -37 -104z" />
<glyph unicode="E" horiz-adv-x="2174" d="M18 -71l216 131q148 0 180 2q11 11 24 29q22 35 31 95q8 59 8 106v10q-3 88 -5 132q-4 71 -4 112v1174q0 36 6 120q4 52 6 144v11q0 54 -9 117q-11 69 -37 109q-19 28 -42 47q-27 22 -47 34q-18 11 -55 21q-27 7 -57 13q-24 4 -64 6q-39 2 -60 3t-62 0h-29q15 10 55 34 q45 27 55 32q51 31 55 34q16 10 53 32h12h61q6 0 15 -0.5t22.5 -1t24.5 -0.5q42 -1 69 -6q6 -1 18.5 -3t24.5 -4t23 -4q36 -6 65 -17q36 -14 58 -25q28 -14 53 -36l4 -4q4 2 11.5 4t10.5 4q106 43 218 66q116 24 210 25h39q76 0 138 -3q107 -6 159 -11q86 -8 116 -8 q64 0 87 -1q26 -1 91 -8q59 -6 102 -22t74 -42q21 -19 35 -42q15 -23 24 -58q4 -13 14 -60q4 -19 6 -70q0 -11 0.5 -33t1.5 -30q1 -10 1 -26.5t-1 -37.5v-51q-25 -7 -46 -15q-4 -2 -53 -17q-32 -10 -45 -16q-7 -3 -23.5 -7.5t-24.5 -7.5l-51 -17q-26 -10 -46 -16v19 q0 58 -1 78q0 2 -1.5 32t-2.5 51q-3 49 -11 87q-9 40 -23 71q-17 37 -37 54q-28 23 -57 34q-38 15 -81 19q-41 4 -72 4h-77q-102 0 -223 5q-146 6 -238 6q-94 0 -137 -12q-5 -3 -14.5 -11t-14.5 -11h-2q15 -32 23 -85q10 -59 10 -114v-18q-1 -52 -8 -146q-6 -84 -6 -118 v-515h771l25 219l290 95l-38 -330l38 -309l-290 -100l-36 294h-760v-529q0 -18 7 -109q7 -89 8 -131v-16q0 -50 -10 -106q-12 -59 -38 -106l30 12q66 -54 158 -87q96 -34 182 -46q98 -13 201 -13q107 0 193 8q39 4 178 21q8 0 112 10q29 41 43 102q17 70 25 155q8 83 16 124 l288 85q-6 -30 -9 -82q-4 -63 -7 -96q-4 -43 -15 -93q-10 -48 -38 -96t-71 -85q-2 -2 -6.5 -5.5t-6.5 -4.5q-43 -33 -89 -55q-27 -13 -70 -29q-40 -15 -68 -23q-42 -12 -62 -17q-30 -7 -57 -12q-28 -5 -50 -6q-9 -1 -23 -2.5t-18 -1.5h-31h-20h-8q-231 -31 -418 -31 q-352 0 -545 110q-23 -11 -79 -33q-80 -30 -160 -45q-81 -16 -119 -17h-20q-32 0 -81 2q-40 2 -65 2z" />
<glyph unicode="F" horiz-adv-x="2064" d="M15 -70l216 131q143 0 179 2q15 15 26 30q22 35 31 94q8 58 8 105v10q-3 88 -5 132q-4 71 -4 112v1174q0 36 6 120q4 52 6 144v19q0 52 -9 110q-11 70 -37 108q-19 28 -42 47q-28 23 -47 33q-23 12 -55 21q-27 7 -57 13q-24 4 -64 6q-52 2 -60 2q-34 0 -62 -1h-29 q9 5 53 32q14 9 33.5 20.5t22.5 13.5q6 4 54 34q40 25 54 32h12h61q7 0 63 -2q48 -2 68 -5q6 -1 18.5 -3t24.5 -4t23 -4q36 -6 65 -17q36 -14 58 -25q28 -14 53 -36l2 -2q3 2 10.5 4t11.5 4q106 42 224 67q117 25 216 26q39 1 72 1q66 0 111 -3q89 -5 163 -13q83 -9 118 -9 q64 0 87 -1q44 -2 91 -7q54 -6 101 -23q41 -15 74 -43q22 -18 40 -52t25 -74q6 -36 10 -72q4 -37 5 -79q1 -36 4 -62l-60 -20l-84 -28q-114 -38 -146 -49q-2 13 -3 51q0 7 -4 63q-2 28 -7 60q-6 36 -12 61q-6 23 -18 49t-29 40q-28 23 -57 34q-34 13 -80 18q-45 5 -72 6 q-18 1 -77 1q-80 0 -175 4q-34 1 -94.5 4t-86.5 4q-40 2 -87 2q-31 0 -64 -1q-72 -1 -112 -11q-9 -6 -28 -23h-6q16 -37 24 -87q9 -55 9 -112v-21q-2 -74 -7 -146q-6 -84 -6 -118v-559h770l26 220q40 15 72 25q18 6 42 13.5t30 9.5l-3 -7q34 13 36 13q6 2 18 5.5t17 5.5 q27 8 36 12q21 9 36 12q-6 -53 -20 -177t-18 -156l38 -307l-290 -101l-36 294h-760v-484q0 -18 7 -109q7 -89 8 -131v-16q0 -50 -10 -106q-12 -61 -39 -106l31 13q35 -31 68 -53q34 -23 70 -36q25 -9 64 -22q23 -8 73 -11q60 -4 74 -4h84q19 1 43 1l-108 -66q-17 -8 -53 -31 q-16 -10 -55 -34h-68q-34 0 -64 1q-23 1 -65 4l-60 6t-63 12q-33 11 -56 18q-34 10 -59 25q-3 2 -18 11t-23 14q-30 -15 -76 -32q-81 -30 -159 -45q-81 -16 -119 -17q-18 -1 -38 -1q-30 0 -64 2q-61 3 -66 3z" />
<glyph unicode="G" horiz-adv-x="2528" d="M11 1216q6 164 45 332q38 160 114 309q75 145 184 262q128 136 314 231q140 72 290 115q152 43 282 55q112 10 197 10q26 0 50 -1q114 -5 223 -24q68 -9 121 -21q54 -12 119 -33q62 -20 119 -56q54 -35 90 -81q21 -26 38 -70q14 -37 23 -78q8 -36 12 -90q4 -52 6 -82 q1 -10 1.5 -38t0.5 -41q-81 -28 -145 -48q-44 -17 -145 -50q-1 57 -3 100q-1 28 -10 100q-8 63 -23 107q-17 48 -40 79q-33 42 -82 74q-48 31 -108 51q-69 23 -108 31q-66 14 -114 21q-150 27 -276 27q-116 0 -211 -23q-198 -46 -351 -207q-93 -99 -164 -242 q-66 -134 -105 -294q-38 -157 -44 -325q-1 -32 -1 -63q0 -135 21 -266q26 -164 84 -308q59 -148 150 -263q56 -71 118 -124q63 -55 136 -98q67 -40 149 -73q71 -29 156 -50q82 -20 156 -29q74 -8 140 -8h14q80 2 146 10q131 18 168 28q11 7 23 18q23 19 42 50q17 29 28 70 q12 47 17 76q8 47 9 90q2 72 2 89q0 53 -1 93t-1 86v19v67q-2 26 -7 57q-6 36 -19 60q-12 23 -38 47q-19 17 -45 32q-21 12 -48 22q-25 9 -57 15q-8 1 -20.5 3.5t-21 4t-15.5 2.5q-41 5 -64 6q-40 1 -60 3q-13 1 -63 1h-58l208 127q2 0 56 -2q12 0 27.5 -0.5t25 -1 t15.5 -0.5q7 -1 30 -2t38 -2q51 -3 74 -7q12 -2 68 -12q43 -8 71 -18q36 -13 59 -26q23 -11 46 -31q32 14 48 20q71 29 148 46q75 16 114 21q14 2 100 10q8 1 17 1l-187 -129q-108 -10 -138 -17q-15 -7 -40 -31h-2q0 -1 1.5 -3.5t2.5 -3.5q5 -10 8 -30q1 -7 3.5 -16.5 t2.5 -11.5q1 -9 3 -32q1 -15 1 -30v-32v-32q0 -42 4 -97q1 -17 4 -53t4 -53q1 -21 1 -43q0 -30 -2 -63q-5 -65 -17 -108q-12 -44 -47 -99q-34 -53 -85 -96l-9 -8q-76 -61 -188 -107q-61 -24 -103 -38q-49 -16 -98 -25q-68 -13 -76 -14q-3 -1 -72 -10q-11 -2 -24 -3.5 t-19 -2.5t-8 -1q-109 -16 -222 -16q-57 0 -114 4q-162 12 -310 59q-145 46 -272 133t-223 208q-88 113 -153 267q-63 150 -90 311q-22 132 -22 271q0 31 1 62z" />
<glyph unicode="H" horiz-adv-x="2848" d="M13 -73l217 132q143 0 179 2q14 14 25 29q22 35 31 94q9 64 9 107v8q-3 88 -5 131q-4 69 -4 112v1174q0 50 5 120q5 73 7 144v11q0 54 -9 117q-11 69 -37 109q-18 26 -43 47q-30 24 -46 34q-24 15 -55 23q-15 4 -57 12q-30 6 -64 7q-10 0 -31 0.5t-29 1.5q-21 1 -62 0 h-30q30 20 54 34q46 27 56 33q51 31 55 34q16 10 53 32h12h60q7 0 63 -2q42 -1 69 -6q5 -1 27.5 -5t37.5 -6q38 -6 66 -17q31 -12 57 -25q30 -15 54 -36q26 11 61 25q49 19 66 24q16 5 64 16q7 2 26.5 6.5t28.5 6.5q24 6 54 9q11 1 26.5 3t19.5 2t11 0.5t17.5 1t18.5 0.5 t17.5 0.5t14.5 1t8 0.5h40h35q-18 -12 -54 -33q-48 -28 -54 -32q-7 -4 -26.5 -16t-30.5 -18q-45 -27 -51 -31q-136 0 -185 -11q-17 -11 -44 -34h-2q15 -34 23 -85q10 -61 10 -116v-18q-1 -51 -8 -145q-6 -84 -6 -119v-514h1349v440q0 34 6 115q5 70 7 138v20q0 51 -8 102 q-11 68 -37 104q-19 28 -42 47q-33 26 -46 34q-23 13 -56 22q-27 7 -57 13q-24 5 -62 6q-39 1 -60 3t-63 0h-30q10 6 56 33q28 16 53 33l-6 -8q14 7 54 32q44 28 53 34h11h61q8 0 29.5 -1.5t34.5 -1.5q41 -1 68 -6q9 -2 31 -5t34 -5q33 -5 65 -17q23 -8 58 -26 q30 -15 54 -36q40 18 61 26q10 4 21.5 7.5t24.5 8t20 6.5q40 13 64 19q10 2 28.5 6t26.5 6q24 6 54 9q10 1 25.5 2.5t21.5 2.5t22 1.5t24 0.5q7 0 17 0.5t15 1t8 0.5h40h35q-37 -23 -108 -66l-5 -2q-1 -1 -6 -3.5t-16 -9.5t-22 -13q-46 -27 -60 -37q-138 0 -187 -11 q-21 -13 -44 -33h-2q14 -29 24 -81q9 -52 9 -101q0 -13 -1 -27q-5 -100 -8 -137q-6 -81 -6 -115v-1173q0 -21 7 -114q7 -89 8 -137v-8q0 -51 -11 -121q-13 -69 -38 -111l29 12q31 -27 66 -52q32 -23 66 -36q42 -16 62 -22q25 -7 70 -10q58 -4 70 -4h82h19l-216 -131 q-56 0 -112 2q-42 2 -102 9t-102 22q-45 15 -92 42q-23 13 -26 15q-38 -18 -74 -32q-80 -30 -160 -45q-81 -16 -119 -17q-8 0 -101 2q-17 0 -33 0.5t-23.5 1t-8.5 0.5q51 31 55 34q36 24 53 32l107 65q144 0 180 2q12 12 25 30q23 35 32 100q8 61 8 109v11q-3 93 -5 138 q-5 90 -5 117v601h-1348v-528q0 -31 6 -109q7 -89 8 -131v-16q0 -50 -10 -106q-12 -59 -38 -106l31 12q27 -24 65 -52q29 -22 65 -36q42 -16 62 -22q25 -7 68 -10q56 -4 69 -4h82h19l-107 -65q-7 -4 -26.5 -16t-30.5 -18q-43 -26 -50 -31q-56 0 -112 2q-42 1 -102 9 q-62 8 -102 22q-50 18 -91 41q-13 7 -26 17q-38 -18 -74 -32q-86 -32 -160 -46q-75 -14 -119 -16h-22q-28 0 -79 1q-18 0 -34 0.5t-24 1t-9 0.5z" />
<glyph unicode="I" horiz-adv-x="1209" d="M19 -62l216 131q144 0 180 2q14 14 25 29q22 35 31 95q9 64 9 106v8q-3 88 -5 132q-5 88 -5 113v1174q0 36 6 120q4 52 6 144v19q0 52 -9 110q-11 70 -37 108q-17 26 -42 46q-32 26 -47 34q-23 12 -55 21q-15 4 -57 12q-31 6 -63 7q-52 2 -60 2q-35 0 -63 -1h-29 q9 4 53 32q14 9 33.5 20.5t22.5 13.5h-1q21 14 53 34q40 25 54 32h12h61q7 0 63 -2q48 -2 68 -5l66 -11q38 -6 66 -17q31 -12 57 -25q28 -14 53 -36q32 14 64 26q3 1 28.5 10t37.5 13q27 9 63 18q10 3 28 6.5t26 5.5q24 6 54 9q10 1 26 2.5t21 2.5q16 1 47 3q20 1 39 1h40 h35q-43 -27 -107 -65q-9 -6 -47 -29.5t-61 -36.5q-134 0 -185 -11q-25 -16 -45 -34h-3q17 -38 24 -85q9 -56 9 -113v-21q-2 -72 -7 -145q-6 -84 -6 -118v-1175q0 -31 6 -109q8 -109 9 -131v-8q0 -49 -11 -114q-12 -63 -38 -106l30 13q36 -31 65 -53q28 -21 66 -36 q33 -13 62 -21q30 -8 68 -11q10 -1 69 -4q18 -1 82 -1h19q-21 -14 -53 -34q-12 -7 -54 -32q-20 -12 -57 -33q-12 -7 -29 -17.5t-23 -13.5q-84 0 -112 1q-53 2 -102 8q-55 7 -102 22q-42 14 -91 41q-13 7 -26 17q-34 -16 -75 -32q-81 -30 -159 -45q-81 -16 -119 -17 q-18 -1 -38 -1q-30 0 -64 2q-61 3 -66 3z" />
<glyph unicode="J" horiz-adv-x="1524" d="M254 -483q14 14 33 33.5t24 24.5l1 1l50 57q42 9 64 15q21 6 51 18q29 12 58 34q27 21 57 54q33 34 56 72q17 27 30 55q16 36 23 53q12 29 19 61q3 13 6.5 31.5t5.5 24.5q4 14 10 64q2 14 3.5 27.5t2.5 21t1 10.5t1 11.5t2 24t3 31.5q6 56 6 62q13 125 19 292 q5 134 5 276q0 43 -1.5 147t-1.5 154q-2 248 -2 283v510q0 4 0.5 11.5t1 21t0.5 25.5v39.5v27.5q-2 26 -7 55q-6 32 -18 55q-13 26 -32 48q-18 21 -42 36q-19 12 -47 25q-25 12 -53 17q-49 9 -54 10q-18 2 -59 4q-9 0 -29 0.5t-27 1.5q-20 2 -57 0h-29q38 22 108 66 q32 20 109 66h9h56q9 0 59 -2q14 -1 35.5 -3t27.5 -2q29 -2 62 -7q43 -7 63 -14q38 -13 57 -21q27 -11 53 -30q9 -7 23 -19q43 19 64 27q55 20 64 23q21 7 63 17q9 2 28 6.5t28 6.5q24 6 55 9q12 1 27.5 3t18.5 2q4 0 11 0.5t17.5 1t18.5 0.5t17.5 0.5t14.5 1t8 0.5h40h36 q-26 -16 -61.5 -37.5t-46.5 -28.5q-22 -13 -59 -35.5t-50 -30.5q-133 0 -183 -10q-25 -16 -45 -34h-4q10 -23 16 -53q6 -36 6 -60q0 -39 -1 -68v-58v-510q0 -33 2 -281q1 -185 3 -301v-32q0 -98 -5 -244q-6 -158 -18 -294l-6 -72q-2 -20 -4.5 -44.5t-2.5 -30.5 q-1 -13 -8 -68q-6 -44 -14 -74q-15 -54 -19 -67q-12 -41 -28 -73q-8 -16 -37 -68q-26 -42 -70 -89q-96 -101 -265 -179q-166 -77 -347 -115z" />
<glyph unicode="K" horiz-adv-x="2495" d="M15 -69l216 132q143 0 179 2q15 15 26 30q22 35 31 94q8 58 8 104v10q-3 88 -5 131q-4 69 -4 112v1173q0 36 6 120q4 52 6 144v11q0 55 -9 118q-10 70 -37 110q-19 28 -42 47q-27 22 -47 34q-21 13 -55 22q-27 7 -57 13q-24 4 -64 6q-39 2 -60 3t-62 0h-29q25 17 53 33 q26 15 55 33t55 33q36 21 54 33h12h61q8 -1 30.5 -1.5t32.5 -0.5q41 -1 68 -6q6 -1 18.5 -3t24.5 -4t23 -4q36 -6 65 -17q36 -14 58 -25q28 -14 53 -36q43 19 64 27q10 4 21.5 7.5t24.5 8t20 6.5q30 10 62 18q10 3 28.5 7t26.5 6q17 4 54 8q11 1 26.5 3.5t20.5 2.5 q22 2 46 2q34 0 40 1t40 1h35q-6 -4 -54 -32q-36 -21 -54 -33q-7 -4 -26.5 -16t-30.5 -18q-45 -27 -51 -31q-130 0 -185 -12q-23 -14 -44 -34h-3q15 -34 23 -87q10 -61 10 -115v-18q-2 -72 -7 -145q-6 -84 -6 -118v-515h119q5 25 13 47q13 33 30 61q19 32 43 60q28 33 44 49 q29 29 51 50t42 41q58 58 147 152q97 103 170 172q27 27 50 48t51 49q26 26 44 45q25 26 43 51q13 18 34 51q17 28 30 59q12 30 18 63q2 0 6 2t6 2l-258 45l248 118l296 -52l486 52q-23 -16 -88 -64q-19 -14 -49.5 -35.5t-38.5 -27.5l-346 -37q-10 -25 -32 -59 q-8 -12 -20.5 -31t-18.5 -28q-15 -24 -50 -60q-44 -46 -49 -51q-29 -29 -54 -53q-26 -25 -50 -46q-43 -43 -161 -166q-120 -125 -151 -155l-44 -44q-11 -11 -27 -26t-20 -19q-18 -18 -37 -41q-25 -31 -35 -48q-15 -27 -23 -49q-16 -49 -17 -81v-6q0 -36 11 -75 q10 -35 29 -74q17 -35 46 -76q33 -46 52 -69q8 -9 27 -33t30 -37q49 -59 53 -65t18.5 -24.5t24.5 -31.5q31 -41 74.5 -96t47.5 -60q47 -60 121 -147q80 -93 134 -146q59 -57 137 -124q85 -73 154 -113q75 -44 162 -80q91 -38 184 -56l-253 -127q-93 18 -193 58 q-97 39 -168 79q-85 49 -157 110q-83 71 -136 121q-51 48 -131 142q-62 72 -119 144q-47 59 -118 152q-48 65 -69 89q-4 5 -53 65q-10 12 -21 25l-22 26t-16 19q-26 31 -54 70q-29 41 -47 78q-20 42 -31 81l-3 12q-5 -3 -11.5 -6.5t-7.5 -4.5h-102v-528q0 -31 6 -109 q8 -109 9 -131v-8q0 -49 -11 -114q-12 -62 -37 -106l30 12q36 -31 65 -53q28 -21 66 -36q36 -14 61 -21t69 -10q56 -4 69 -4h82h19q-41 -25 -107 -66q-6 -4 -25.5 -14.5t-32.5 -18.5q-37 -22 -50 -32q-56 0 -112 2q-53 2 -102 8q-56 7 -101 23q-47 17 -92 42q-18 10 -26 16 q-38 -18 -74 -32q-87 -32 -159 -46q-75 -14 -119 -16h-22q-28 0 -80 1q-18 0 -34 0.5t-23.5 1t-8.5 0.5z" />
<glyph unicode="L" horiz-adv-x="2136" d="M14 2346q89 51 114 66q27 13 58 31q12 7 31 18.5t25 15.5q12 -2 55 -3q58 -2 66 -2q18 0 66 -5q55 -6 70 -9q11 -2 63 -17q38 -11 64 -25q23 -13 53 -36l2 -1q1 -1 2 -1q23 10 55 22q52 20 70 25q36 11 67 18l32 8t27 7q26 6 58 9q12 1 28.5 3.5t21.5 2.5q24 2 51 2 q28 0 42 2h43h37q-21 -14 -53 -34q-12 -7 -54 -32q-8 -4 -35 -21q-4 -2 -17 -11t-21 -13q-23 -12 -34 -21q-77 0 -130 -4q-67 -5 -80 -9q-22 -12 -45 -32h-1q15 -32 23 -85q10 -61 10 -115v-18q-2 -74 -7 -146q-5 -70 -5 -118v-1173q0 -31 6 -109q7 -89 8 -131v-16 q0 -50 -10 -106q-12 -63 -38 -105l29 12q66 -53 156 -86q97 -35 178 -46q96 -13 196 -13q95 0 189 7q76 6 175 20q8 1 26.5 3t26.5 3t17.5 1.5t15 1.5t8.5 1q42 56 59 171q18 122 19 230l281 92v-38v-45q0 -3 -0.5 -8.5t-1 -16t-0.5 -19.5q0 -11 -4 -50q0 -5 -1.5 -12 t-3 -17.5t-2.5 -18.5q-5 -37 -10 -51q-2 -6 -6 -21t-7 -25q-9 -28 -19 -47q-13 -23 -25 -42q-16 -24 -31 -39q-14 -16 -36 -34q-50 -38 -119 -67q-49 -22 -107 -40q-52 -16 -95 -24q-47 -8 -73 -11q-17 -2 -56 -4q-27 -2 -28 -2q-220 -30 -399 -30q-348 0 -542 112 q-28 -15 -80 -35q-84 -32 -158 -46q-75 -14 -119 -16h-22q-28 0 -79 1q-17 0 -33 0.5t-24 1t-9 0.5l216 132q145 0 181 2q7 7 23 30q23 34 32 94q8 58 8 104v10q-3 88 -5 131q-4 69 -4 112v1173q0 36 6 120q4 52 6 144v11q0 55 -9 118q-10 70 -37 110q-19 26 -39 44 q-22 21 -42 32q-21 12 -51 21q-27 8 -53 13q-29 6 -58 8q-35 3 -58 3q-11 0 -61 2q-25 1 -59 1z" />
<glyph unicode="M" horiz-adv-x="3379" d="M14 -69l216 131q25 0 56 -1h21h15.5h10.5h6q4 6 8 22q4 15 5 24q1 7 1 27v26v29v26v1507q0 34 -3 97q-4 84 -4 108q0 52 4 101q5 56 21 107q15 47 46 94q-46 40 -93 64q-46 24 -99 36t-97 15q-45 3 -112 3q37 25 53 34q26 15 55 33t55 33q36 21 54 33q160 0 269 -29 q109 -28 200 -106q59 -6 102 -28q55 -28 86 -62q35 -38 61 -89q27 -52 42 -98q22 -66 35 -106q20 -60 36 -93q34 -80 175 -391q158 -349 221 -496q27 -61 60 -143q41 -100 64 -155q23 -54 66 -137q1 -2 3 -5.5t3 -5.5q15 21 23 42q72 162 131 297q16 36 142 321 q65 148 130 288q92 199 144 311q10 23 22 63q16 56 23 81q10 36 35 89q19 41 57 93q31 43 87 87q57 45 126 77q55 25 112 40q39 11 76 16q5 3 14.5 9t11.5 8q42 26 104 52q70 28 131 44q63 16 118 21t89 6h19q22 0 58 -1q12 0 23.5 -0.5t17.5 -1t8 -0.5q-6 -4 -54 -32 q-28 -16 -53 -33q-7 -4 -26 -15t-30 -17q-41 -25 -52 -33q-137 0 -174 -3q-27 -35 -39 -108q-11 -72 -11 -132v-10q2 -69 6 -165q4 -87 4 -132v-1174q0 -35 7 -104q9 -87 10 -129v-16q0 -50 -10 -105q-9 -47 -31 -87l21 8q42 -37 65 -53q30 -22 67 -36q36 -14 61 -21t70 -10 q58 -4 70 -4h82h19l-215 -131q-85 0 -113 1q-41 1 -101 9q-61 8 -103 22q-42 15 -91 42q-3 2 -12 7t-14 8q-25 -12 -71 -29q-61 -22 -110 -34q-58 -14 -113 -20q-47 -5 -85 -7q-15 0 -34.5 -0.5t-44.5 0.5q-33 1 -62 1l208 117q153 0 184 3q10 8 21 22q20 28 29 87 q8 57 8 103v10q-3 101 -4 130q-4 104 -4 108v1173q0 34 -6 103q-10 111 -11 129q-3 33 -3 79q0 23 1 49q1 37 12 89l-23 -46q-35 -77 -55 -129q-25 -64 -41 -96q-80 -170 -144 -310q-65 -140 -130 -288q-126 -285 -142 -321q-59 -135 -131 -297q-20 -45 -51 -83 q-30 -37 -59 -63q-36 -32 -58 -54q-26 -26 -46 -55q-11 -17 -17 -56q-4 -26 -4 -50v-16q1 -11 1.5 -37.5t0.5 -40.5q1 -32 1 -68q-14 -4 -66 -21q-16 -5 -30.5 -10t-28.5 -9.5t-19 -6.5l-62 -21q-15 -5 -44 -15t-39 -13q0 21 -3 66q-4 67 -5 78v6q0 28 8 68q6 30 12 44 q-2 0 -5 -2t-5 -2q-40 59 -82 141q-39 77 -66 140q-14 33 -64 156l-35 84l-25 60q-85 196 -220 495q-157 347 -176 391q-20 45 -34 81q-17 45 -36 86q-4 8 -11 24t-13.5 30.5t-13.5 28.5q-6 13 -25 49v-27q0 -18 2 -112t2 -103v-1506q0 -18 1 -36q2 -36 2 -42q0 -8 -4 -40 q-3 -23 -14 -45t-28 -42q-23 -26 -56 -49l98 53l376 -46l-242 -128l-377 44l36 19q-2 0 -5.5 -2t-5.5 -2q-55 -22 -125 -41q-54 -15 -107 -20q-41 -4 -79 -4q-24 0 -64 2q-8 0 -16.5 0.5t-13 1t-6.5 0.5z" />
<glyph unicode="N" horiz-adv-x="2771" d="M20 2345q18 12 54 33q44 26 55 33l110 66q175 -2 332 -43q159 -42 271 -130q58 -47 113 -115q63 -77 97 -133q13 -21 44 -69.5t49 -76.5q41 -66 88 -131l694 -975q33 -48 67 -99q17 -26 42 -63.5t29 -42.5q32 -48 68 -93q4 -5 17 -21.5t20 -24.5q7 43 8 91q1 35 1 90 q0 58 -1 98t-1 95v1439l53 18h-4q-26 -4 -48 -2q-7 1 -199 29q-94 14 -201 28l122 64l-2 -8q4 4 122 65q105 -15 190 -28q162 -25 193 -29q154 26 169 28q103 16 176 27q-4 -4 -18.5 -15.5t-24.5 -19.5q-24 -21 -33 -27q-9 -7 -75 -63q-64 -10 -134 -20v-1397q0 -19 4 -109 q5 -111 5 -113q1 -18 1 -36q0 -36 -3 -70q-4 -58 -17 -109q-11 -44 -40 -102q-26 -52 -70 -99q9 -10 23 -33q24 -40 32 -79l-291 -102q-9 43 -27 72q-20 32 -40 49q-35 30 -55 47q-34 30 -58 55q-49 52 -94 112q-48 64 -111 160q-62 94 -83 123l-693 975q-45 63 -89 131 q-77 120 -93 145q-36 56 -95 130l-24 27q-1 -18 -1 -49q0 -18 2 -112t2 -103v-1529q0 -3 0.5 -7.5t1 -13t0.5 -15.5q2 -40 2 -42q-2 -26 -4 -39q-2 -19 -15 -44q-10 -19 -27 -43q-24 -27 -64 -54l106 56l376 -44l-242 -129l-376 44l42 23q-3 -1 -9.5 -4t-9.5 -5 q-55 -22 -123 -41q-48 -13 -108 -19q-52 -5 -78 -5q-23 0 -63 2q-9 0 -17 1t-13 1.5t-6 0.5l216 130h56h53q5 8 9 23q2 7 4 23q1 4 1.5 13.5t0.5 14.5q1 11 1 25v29v26v1529q0 35 -3 101q-1 22 -4 112v19q0 38 3 84q5 62 23 111q20 53 52 97q-54 25 -121 42q-151 39 -292 39 z" />
<glyph unicode="O" horiz-adv-x="2326" d="M24 1173v17q0 95 10 211q10 115 38 227q26 107 71 213q41 97 111 199q60 88 151 172q79 73 194 138q26 15 66 34q21 11 30 15q4 2 8 3.5t9 4t8 3.5q2 1 7.5 3.5t8.5 3.5q20 7 25 10q6 3 29 11q20 8 21 8q29 10 30 11q9 3 40 13q11 4 31.5 9t23.5 6q65 17 111 25l-3 1 q110 19 218 19q86 0 170 -12q169 -25 300 -89q138 -67 230 -161q94 -96 165 -219q72 -126 110 -257q39 -136 57 -282q14 -118 14 -225q0 -34 -1 -66q-6 -151 -29 -284q-74 -440 -335 -701q-46 -46 -103 -88q-54 -40 -132 -85q-81 -47 -169 -79q-100 -36 -197 -55 q-167 -32 -313 -32h-25q-160 3 -302 51q-144 49 -259 138q-347 271 -406 862q-11 110 -13 227zM322 1047q57 -581 398 -847q79 -63 181 -106q95 -40 198 -56q85 -13 166 -13h22q86 1 172 19q46 9 97 38q52 30 121 99q118 118 197 292q80 176 111 367q24 136 27 279v41 q0 123 -15 247q-18 146 -58 277q-41 134 -108 252t-158 212q-92 95 -214 157q-129 65 -271 84q-81 9 -140 9h-11q-70 -1 -126 -11h1q-42 -8 -46 -9q-12 -4 -17 -5l-11 -4q0 -1 -2 -1t-2 -1h-2l-2 -1h-2l-2 -2h-4h-1h-1l-1 -2h-1h-1q-1 0 -2 -1t-2 -1t-1 -1l-2 -1q-1 0 -3 -1 t-3 -1t-1 -1l-5 -2.5t-4 -1.5q-4 -2 -12 -5.5t-12 -5.5q-122 -71 -218 -210q-96 -140 -152 -316q-56 -178 -77 -375q-11 -101 -11 -201q0 -96 10 -191z" />
<glyph unicode="P" horiz-adv-x="2036" d="M19 -65l216 131q126 0 180 3q14 14 25 29q22 35 31 94q9 64 9 106v8q-3 90 -5 132q-5 87 -5 111v1173q0 36 6 120q4 51 6 145v11q0 55 -9 118q-10 70 -37 110q-19 28 -42 47q-23 18 -47 33q-21 13 -55 22q-27 7 -57 13q-24 5 -63 6t-60 3t-63 0h-29q25 17 53 33 q14 8 56 34l-4 -7q29 18 55 33q36 21 54 33h12q46 0 60 -1q8 -1 30.5 -2t32.5 0q42 -1 69 -6q9 -2 31.5 -5t34.5 -5q36 -6 65 -17q31 -12 57 -25q30 -15 54 -36l3 -3q42 18 53 21q79 29 162 43q40 6 55 8q19 2 55 4h22.5t21.5 2q10 1 49 1h43q99 0 158 -5q83 -7 153 -20 q85 -16 148 -40q69 -27 134 -68q64 -41 118 -101q75 -84 117 -184q41 -99 46 -204q0 -11 1 -23q0 -91 -29 -187q-32 -107 -96 -203q-66 -98 -169 -182q-106 -86 -238 -147l-19 -8q-11 -5 -20 -8q-8 -5 -19 -9l-7.5 -2.5t-8.5 -3t-8 -3.5q-16 -6 -22 -8q-4 -1 -12 -4t-12 -4 q-16 -4 -24 -7q-12 -4 -19 -6q-3 -1 -12 -3.5t-14 -3.5q-94 -25 -187 -37q-66 -9 -134 -9q-19 0 -38 1q-81 3 -141 9q-9 1 -29 3v-343q0 -31 6 -109q7 -89 8 -131v-16q0 -50 -10 -106q-12 -59 -38 -106l31 12q35 -31 68 -53q36 -24 69 -35q50 -16 65 -21q23 -8 73 -11 q11 -1 27 -2t27.5 -2t19.5 -1h84q7 0 16.5 0.5t16 1t10.5 0.5l-216 -132q-56 0 -68 1q-5 0 -14 0.5t-24 1t-26 0.5q-46 2 -65 3q-19 2 -60 6t-63 12q-33 11 -56 18q-28 8 -59 25q-10 5 -41 24q-28 -13 -77 -31q-87 -32 -159 -46q-81 -16 -119 -17q-8 0 -102 2q-18 0 -34 0.5 t-23.5 1t-8.5 0.5zM737 2297q17 -36 24 -84q9 -56 9 -113v-21q-2 -72 -7 -145q-6 -84 -6 -118v-671l-1 -3q44 -5 116 -12q50 -6 121 -11q4 0 40.5 -3t61.5 -5q56 -4 102 -4q43 0 82 4q45 5 76 12l1 1h1h1h2h2v2h2h2h1h1l1 2h2v1h2q56 26 112 83q61 62 106 136q49 80 79 175 q30 96 36 194q1 15 1 29q0 84 -29 171q-34 103 -110 186q-51 57 -110 97q-53 36 -121 63q-57 23 -134 37t-136 17q-82 4 -140 4h-37q-88 0 -125 -4q-22 -17 -26 -20h-2z" />
<glyph unicode="Q" horiz-adv-x="2369" d="M20 1311q8 153 48 303q40 149 107 284q66 134 175 252q107 116 250 201l39 23q6 4 26 14q8 4 26 14q2 1 9 4t11 5q15 6 17 7q14 7 17 8q6 2 18 8q3 2 10 4.5t10 3.5q2 1 10 4t13 5l17 6q10 5 19 8q5 2 14 5l12 4q18 6 27 8q8 3 24 7q6 2 20 6l21 6q2 0 29 8l84 18 q109 19 217 19q85 0 170 -12q140 -19 263 -74q121 -54 215 -134q93 -80 168 -183t123 -221q50 -122 79 -248q29 -128 37 -264q3 -56 3 -113q0 -78 -6 -156q-11 -139 -40 -263q-27 -117 -80 -248q-47 -117 -113 -220q-64 -102 -159 -189q-93 -85 -237 -155q-3 -2 -11.5 -5 t-11.5 -5q-51 -23 -88 -38q-36 -14 -48 -16q-11 -2 -22 -8q-9 -5 -12 -8l-14 -21q-7 -12 -14 -36q-8 -25 1 -61q9 -33 35 -72q28 -41 45 -62q32 -40 48 -57q101 -110 225 -176q127 -67 240 -86q56 -9 110 -9q57 0 113 10q-17 -18 -64 -61q-8 -7 -66 -61q-114 -21 -216 -21 q-106 0 -188 19q-88 20 -163 58q-80 40 -144 91t-130 123q-2 2 -12 14q-31 34 -46 52t-41 55t-34 69q-7 26 -7 50q0 8 1 16l52 35l-70 -34q-16 5 -40 12q-1 1 -2 1q-2 1 -3 1q-30 8 -73 20.5t-56 16.5q-43 12 -123 39q-98 33 -125 45q-28 12 -115 51q-66 29 -113 62 q-36 25 -100 72q-61 45 -98 86q-36 40 -80 102q-40 56 -72 122q-60 126 -98 264t-55 292q-11 97 -11 200q0 51 3 104zM333 1216q3 -174 39 -345q36 -169 103 -313q25 -53 64 -112q33 -51 72 -94q42 -47 84 -81q51 -41 90 -68q41 -28 99 -58q51 -26 103 -48q60 -25 110 -43 q38 -14 113 -37q65 -20 117 -35h-1q28 18 68 39t68 32q40 16 58 23q40 15 44 17l16 4q44 22 121 91q71 64 125 147q59 89 108 212q48 118 74 240q27 125 36 257q4 67 4 133t-4 131q-9 130 -39 258q-32 136 -77 243q-50 120 -117 216q-71 103 -157 180q-84 75 -199 129 q-111 52 -240 70q-74 8 -137 8h-14q-77 -2 -126 -10q-17 -3 -34 -9h-1h-2l-6 -2h-2v-1l-4 -1h-1h-1l-1 -1h-3h-2l-2 -2q-2 0 -3 -1q-2 -1 -5 -1l-2 -1l-2 -1l-3 -1h-2h-2h-1l-1 -2h-1h-1q0 -1 -3 -2h-1q-1 0 -2 -1h-1h-1l-1 -1h-1h-1q-1 -1 -2 -1h-3q-1 0 -2 -1h-1l-1 -1h-1 q-1 0 -2 -1h-1q-2 0 -2 -1h-2v-1q-1 -1 -3.5 -2t-3.5 -1q-1 -1 -3 -1q-1 -1 -3 -2t-3 -2q-14 -7 -17 -9q-111 -66 -204 -191q-92 -124 -147 -272q-55 -149 -85 -324q-26 -154 -26 -316v-33zM1331 -107l19 9q-11 -5 -19 -9z" />
<glyph unicode="R" horiz-adv-x="2382" d="M19 -65l216 131q132 0 180 3q16 16 24 27q22 35 31 95q9 65 9 107v8q-3 90 -5 133q-4 71 -4 112v1173q0 50 5 120q5 73 7 144v9q0 51 -10 120q-11 72 -36 108q-16 24 -43 46q-30 25 -46 33q-27 14 -55 22q-13 4 -58 12q-31 6 -63 7q-52 2 -60 2q-34 0 -62 -1h-30 q15 10 55 34q45 27 55 32q5 4 13 8.5t20.5 11.5t21.5 12q28 16 53 33h12h61q7 0 63 -2q48 -2 68 -5q6 -1 18.5 -3t24.5 -4t23 -4q38 -6 66 -17q31 -12 57 -25q30 -15 54 -36l2 -2q30 13 53 21q62 23 115 35q59 13 101 17q48 4 78 6h33.5h40.5q11 0 25.5 -0.5t22.5 -1 t12 -0.5q76 0 158 -8q76 -7 154 -24q68 -14 143 -45q60 -25 125 -70q58 -40 103 -95q40 -49 69 -125q26 -69 32 -158q1 -19 1 -38q0 -125 -52 -246q-60 -139 -185 -246q-45 -40 -86 -68q-28 -20 -92 -59q-43 -27 -57 -36q5 -4 31.5 -26t47.5 -39q37 -30 86 -72 q32 -28 70 -73q39 -47 60 -92q28 -59 53 -154q25 -94 39 -170q16 -86 40 -167t57 -154q30 -65 88 -122q58 -56 137 -80q68 -23 173 -23l-221 -135q-133 0 -223 30q-78 25 -138 71q-57 44 -93 106t-59 126q-23 63 -40 144q-20 96 -29 147q-13 75 -31 145q-19 72 -44 129 q-19 41 -60 90q-32 38 -73 74q-20 18 -89 73q-52 43 -73 62h-432v-485q0 -30 6 -108q8 -109 9 -132v-8q0 -49 -11 -114q-12 -63 -38 -106l31 13q42 -36 64 -53q31 -23 65 -35q44 -15 61 -20q29 -8 69 -11q14 -1 68 -4q14 0 34 -0.5t47 0.5h23l-215 -131q-71 0 -94 1 q-34 1 -84 6q-53 5 -86 13q-39 10 -79 24t-80 40l-9 6q-38 -18 -74 -32q-74 -28 -160 -44q-81 -16 -119 -17q-8 0 -100 2q-17 0 -33 0.5t-24 1t-9 0.5zM735 2299q15 -32 23 -85q10 -61 10 -116v-18q-2 -72 -7 -145q-6 -84 -6 -118v-559h553h-1q5 3 37 23q92 57 112 74 q91 79 149 210q51 115 51 230q0 17 -1 35q-6 85 -32 152q-27 70 -67 119q-43 52 -95 89q-58 41 -116 64t-130 40q-67 16 -136 22q-66 6 -135 6q-151 0 -182 -4q-16 -12 -25 -19h-2z" />
<glyph unicode="S" horiz-adv-x="1725" d="M20 588l279 93q1 -3 7 -55q2 -15 4 -29t3.5 -23.5t1.5 -11.5q1 -10 9 -58q8 -50 13 -65q2 -6 7 -25.5t8 -30.5q11 -40 22 -59q19 -34 28 -48q17 -27 34 -46q79 -86 179 -143q98 -56 187 -72q68 -13 132 -13q22 0 44 2q82 6 151 34q63 26 107 68q75 72 121 199 q44 123 49 256v21q0 52 -8 92q-10 50 -26 95q-15 42 -48 84q-27 34 -60 71q-23 25 -78 62q-60 40 -83 53q-49 28 -96 49t-97 43q-53 23 -104 43q-24 10 -67 27.5t-58 24.5q-54 23 -117 54q-65 32 -115 64q-34 22 -95 71q-53 43 -84 89q-30 45 -56 103q-27 60 -36 127 q-2 13 -4 39q-1 16 2 45l4 36l9 45q7 32 7 37q27 139 96 237q69 100 205 180q7 5 14 9q3 2 8.5 5t8.5 5q3 1 7.5 3.5t8 4t6.5 3.5q7 4 23 12q3 2 10.5 6t9.5 5l12 6t11 5q5 2 14 5.5t13 5.5q1 0 30 11q1 1 30 11q18 7 23 8q6 2 20 6l24 6q12 4 17 5q6 2 16 5t15 4q6 1 20 3 q117 25 234 25q82 0 163 -12q256 -40 362 -176q23 -30 39 -68q14 -36 23 -73q8 -33 12 -85q5 -54 6 -76v-76q-25 -9 -144 -50q-1 0 -145 -49q0 17 -0.5 50.5t-1.5 47.5q-1 30 -8 93q-6 53 -23 100q-15 41 -43 77q-95 124 -324 158q-70 10 -129 10h-19q-67 -2 -106 -10h-2h-2 q-4 0 -5 -1h-2h-1v-1h-1h-1l-1 -1h-1h-1l-1 -1h-1h-1v-1h-1h-1l-1 -2h-1h-1h-1h-1q0 -1 -1 -2h-1h-1h-1l-2 -2v-1h-1h-1l-2 -2l-2 -2h-2q-24 -16 -53 -43q-26 -24 -58 -68q-30 -40 -54 -96q-24 -55 -36 -118q-3 -15 -7 -32q-1 -2 -6 -35q-1 -3 -2 -13t-2 -17q-1 -6 -2.5 -18 t-2.5 -16q-2 -12 0 -30q1 -14 5 -33q9 -59 33 -115q22 -51 53 -95q29 -41 80 -82t91 -67q35 -23 111 -60q62 -30 112 -50q15 -6 55 -23t66 -27q19 -8 56.5 -23.5t50.5 -21.5q8 -4 42 -19t59 -26q64 -30 99 -51q31 -19 89 -57q54 -35 82 -65q25 -26 63 -76q33 -43 50 -89 q18 -50 28 -104q8 -45 8 -100v-23q-9 -318 -197 -502q-86 -84 -226 -153q-149 -73 -303 -102q-118 -23 -227 -23q-128 0 -243 32q-212 59 -346 203q-21 22 -37 49q-18 29 -29 53t-22 61q-14 48 -17 60q-9 35 -13 65q-7 50 -8 61q-2 25 -7 62z" />
<glyph unicode="T" horiz-adv-x="2324" d="M12 1872q2 18 2 41q0 16 -1 34q-1 28 -1 50.5t1 39.5q3 46 11 95q8 48 28 91q21 46 55 78q17 17 43 34q30 19 43 25q41 22 73 35q46 19 70 25q47 13 62 16q29 6 55 9q11 1 25.5 2.5t15.5 1.5q20 2 32 2h18q3 0 14 1t26.5 2t31.5 3q63 7 91 8q87 4 96 4q30 0 56.5 0.5 t49.5 -0.5q44 -1 100 -9q54 -7 97 -20q40 -12 80 -35q21 -10 41 -29l36 15q104 42 214 60q94 16 159 16h14q76 -2 150 -7q98 -7 110 -7q11 0 24.5 -0.5t21.5 -1t14 -0.5t26.5 -1.5t35.5 -2.5q39 -3 72 -10q22 -5 61 -19q31 -11 52 -32q26 -23 42 -56q17 -35 26 -66 q7 -22 12 -79q5 -53 5 -75q0 -43 -1 -76t-1 -62q-6 -3 -16 -6t-26 -8.5t-28 -9.5q-16 -5 -40.5 -13t-32.5 -11l-146 -48q0 21 1 45t1 53q0 4 -2 54q-1 15 -3 35.5t-2 24.5q-2 27 -7 54q-7 36 -13 53q-8 23 -19 42q-13 22 -28 36q-20 18 -46 30q-25 11 -62 16q-35 5 -58 6 q-15 1 -64 1h-15q-50 0 -142 3t-148 3q-58 0 -89 -6q-9 -7 -25 -21h-5q2 -5 6 -15.5t6 -16.5q15 -51 18 -110q2 -31 2 -64q0 -22 -1 -45q-2 -53 -6 -115q-4 -56 -4 -95v-1175q0 -33 6 -113q8 -110 9 -137v-8q0 -51 -11 -121q-12 -67 -39 -111l29 12q23 -21 52 -41 q27 -19 53 -32q28 -14 49 -23q20 -9 52 -15l51 -9q24 -4 57 -5h55h63q30 1 66 1l-216 -131h-33h-82q-29 0 -78 3q-50 3 -80 9l-75 15q-46 9 -77 24q-27 13 -69 38l-2 2q-38 -18 -74 -32q-80 -31 -180 -49q-87 -16 -141 -16q-58 0 -115 4q-72 5 -77 5l216 131q13 0 85 -2 t93 -2q39 0 66 3q9 9 25 31q24 34 33 99q8 61 8 110v11q-3 93 -5 138q-4 72 -4 116v1175q0 32 3 95q2 33 4 113q1 25 1 52t-1 55q-1 49 -17 105q-14 51 -38 80q-20 25 -53 45q-28 17 -65 29q-36 11 -78 17q-29 4 -83 6h-20q-25 0 -69 -1q-21 -1 -51 -2.5t-34 -1.5 q-34 -1 -85 -6q-12 -1 -75 -5q-5 -11 -17 -52q-8 -25 -13 -58q-4 -22 -7 -67q-1 -15 -2.5 -36t-1.5 -26q-2 -22 -3 -62q-2 -50 -2 -51q-10 -3 -35.5 -12t-37.5 -13q-19 -7 -44 -15t-26 -8l-8 -9q-32 -11 -146 -49z" />
<glyph unicode="U" horiz-adv-x="2870" d="M19 2339q58 36 109 65q6 4 54 34q40 25 54 32h14q60 0 78 -1q5 0 31.5 -1.5t46.5 -2.5q48 -3 87 -11q30 -6 78 -20q42 -12 77 -35q13 -9 33 -25q20 9 62 25q35 13 66 24t63 18q10 2 28.5 6t26.5 6q23 6 55 9q11 1 26.5 3t19.5 2q15 2 46 3q21 1 40 1h41h34 q-11 -7 -26.5 -16.5t-39.5 -24t-41 -25.5q-32 -19 -68 -40.5t-40 -24.5q-131 0 -185 -12q-25 -16 -45 -34h-3q4 -11 5 -14q2 -8 5 -20.5t3 -13.5q2 -9 4 -38q1 -25 3 -34q1 -9 0 -38q-1 -20 -1 -36v-421q0 -68 -3 -174q-3 -104 -6 -187q-3 -81 -3 -189q0 -117 4 -193 q5 -91 19 -185q16 -105 38 -178q24 -81 63 -161q40 -82 91 -144q53 -64 127 -117q75 -54 168 -89q120 -46 265 -46l-9 -6h25q101 0 181 22q65 18 120 62q58 47 94 95q41 55 70 137q32 88 50 155q21 77 34 184q18 150 21 192q7 97 10 208q1 51 2.5 120.5t1.5 81.5q1 47 1 203 v43v488q0 25 1 51q2 40 0 60q-2 32 -6 48q-7 32 -17 48q-19 29 -41 48q-31 27 -47 36q-25 14 -59 23q-35 9 -60 15q-28 7 -66 8q-56 2 -63 2q-37 0 -66 -1h-28q15 9 109 65q73 44 108 66h12h62q8 0 30 -1.5t35 -1.5q43 -2 71 -6q9 -1 32 -4.5t36 -5.5q33 -5 68 -19 q40 -16 60 -27q25 -12 45 -31q44 20 56 24q34 14 66 24q21 7 63 17q7 2 26.5 6.5t28.5 6.5q17 4 55 8q10 1 25.5 3t20.5 2q16 1 47 3q7 0 17 0.5t15 1t8 0.5h40h34q-38 -22 -108 -66q-25 -15 -50.5 -30.5t-39 -23.5t-18.5 -11q-136 0 -184 -11q-14 -9 -41 -32q8 -22 10 -35 q5 -27 7 -53q1 -12 -1 -60q0 -10 -0.5 -22t-1 -18.5t-0.5 -10.5v-487q0 -72 4 -159q5 -114 10 -178q6 -81 6 -186q0 -119 -5 -193q-7 -100 -24 -190q-19 -99 -50 -186q-29 -81 -85 -173q-51 -84 -126 -157q-69 -67 -175 -132q-101 -62 -233 -106q-35 -12 -69 -21 q-182 -49 -351 -49h-20q-173 2 -311 55q-94 36 -179 95q-77 54 -134 120q-51 60 -96 149q-43 85 -66 164q-25 84 -38 182q-13 100 -18 188q-4 85 -4 164v31q1 83 5 191q3 82 6 188q3 104 3 175v421v31v33v5.5v10.5v13q0 6 -0.5 13t-1 11t-0.5 7q0 1 -2 10.5t-3 17.5 q-3 21 -8 29q-1 3 -6 11.5t-8 14.5q-10 17 -17 26q-14 18 -32 32q-25 19 -32 23q-17 10 -39 17q-29 9 -38 13q-10 5 -43 8q-11 1 -24.5 3.5t-15.5 2.5q-13 2 -45 3q-23 1 -43 1h-46h-42z" />
<glyph unicode="V" horiz-adv-x="2723" d="M19 2343l244 130q43 -6 132 -18q33 -5 77.5 -10t55.5 -6q4 -1 12 -5l125 -44l50 21q71 33 138 39q4 0 30.5 2.5t87.5 8t126 11.5l-185 -130q-42 -2 -91 -7q-23 -2 -53.5 -5t-37.5 -4l-101 -43q-53 -23 -104 -33q-30 -6 -49 -6q-16 0 -25 4l-173 62zM461 2203l289 105 l500 -1440l184 -465q17 33 34 72q24 56 28 68q4 13 32 85q9 23 18.5 49t10.5 29q100 265 178 477q117 318 177 477q29 72 48 120q27 70 51 134q2 4 42 123q21 63 35 136q11 61 13 125q9 2 19 6l-350 44l243 124l359 -45q46 7 163 21q105 13 167 23q-8 -5 -41 -31 q-10 -8 -24 -18.5t-17 -13.5q-77 -60 -80 -63q-109 -14 -155 -20q-3 -30 -9 -64q-12 -68 -36 -139q-30 -90 -43 -126q-28 -78 -51 -134q-40 -98 -48 -119q-32 -85 -176 -477q-94 -256 -178 -476q-15 -38 -30 -80q-5 -14 -14.5 -41.5t-13.5 -38.5q-19 -51 -28 -74 q-20 -49 -34 -74q-1 -2 -15 -27.5t-24 -40.5q-30 -49 -47 -70q-26 -33 -58 -66q-33 -36 -72 -66q-1 0 -2 -1l-2 -1v-254l-290 -96v264l-253 640z" />
<glyph unicode="W" horiz-adv-x="3786" d="M17 2338q22 13 61 33q10 5 24.5 12.5t23 11.5t14.5 7l-3 1q21 9 62 31q52 28 62 34q168 -26 267 -39q5 -1 9 -4l108 -39q17 7 38.5 16t23.5 10q65 25 119 31l244 25q-22 -16 -46 -34q-28 -21 -43 -31q-12 -10 -44 -33q-32 -22 -44 -32l-191 -19q-56 -22 -111 -45 q-48 -19 -95 -28q-24 -4 -41.5 -4t-27.5 4l-150 53q-11 1 -54 7.5t-76 11.5t-76 12t-54 8zM439 2203q22 9 72 26q13 4 74 26t74 26q60 21 71 25l372 -1415l133 -421q11 29 22 68q1 5 10.5 36.5t14.5 51.5q15 58 22 79q41 139 126 443q55 197 125 442q11 30 23 81 q14 59 22 82q14 42 24 73q15 47 31 76q28 50 39 68q21 33 55 72q22 26 69 67q6 4 17 15l-19 79q8 3 72 25q32 11 72 26l-3 -7q40 15 72 26q64 22 72 25l22 -89q-17 -6 -32 -11q9 -4 10 -8q7 -17 100 -245q25 -61 57.5 -142t40.5 -101l303 -996q21 -57 47 -134 q23 -67 47 -131q14 38 31 96q10 35 31 119q13 52 29 108q60 204 182 727q120 513 194 757q8 3 33 10.5t38 11.5q12 4 38.5 12t36.5 11q10 4 40 13l-120 -16q-26 -4 -42 -3q-13 2 -82.5 11.5t-121.5 15.5q-112 14 -195 26q67 36 123 64q10 5 40 21t44 24q10 6 38 21l382 -50 q172 24 352 48l-81 -63q-12 -9 -39 -30.5t-39 -31.5l-160 -22q-72 -242 -187 -736q-118 -505 -183 -730q-14 -46 -26 -96q-12 -51 -24 -97q-13 -51 -25 -91q-15 -51 -34 -92q-23 -50 -45 -85q-25 -40 -65 -85q-34 -38 -85 -78q-1 -1 -3 -2t-3 -2v-260l-291 -97v271 q-50 146 -79 230q-14 40 -32 91t-30 85.5l-20 57.5l-303 997q-47 117 -55 137q-25 61 -55 136q-6 -16 -60 -199q-15 -53 -57 -204.5t-66 -238.5q-85 -304 -126 -443q-3 -12 -11.5 -43t-12.5 -46q-15 -55 -24 -87q-8 -29 -26 -79q-18 -52 -32 -79q-15 -31 -42 -73 q-26 -42 -60 -77q-38 -40 -77 -72q-1 0 -2 -1t-2 -1v-262l-290 -97v270l-203 642z" />
<glyph unicode="X" horiz-adv-x="2671" d="M15 -78l216 131q145 0 180 3q18 23 45 89q29 69 44 93q153 252 369 578q5 7 34 51q6 10 15 23t14 21t9 14q7 12 34 50q5 8 41 57q26 36 39 53q7 7 29 34q26 32 29 36q7 9 17 31q8 17 8 39q0 23 -11 42q-15 27 -34 49q-11 14 -32 41q-53 71 -155 241q-24 36 -113 174 q-106 165 -150 248q-17 33 -31 75q-19 55 -34 84q-19 36 -45 58q-38 30 -99 55q-54 22 -120 33q-59 10 -115 13q-70 4 -116 4q6 4 54 34q12 8 54 32q11 7 55 33q40 24 52 32q311 0 468 -89q39 19 79 33q86 31 166 43q64 11 149 13q-40 -24 -106 -65q-92 -56 -108 -66 q-48 -2 -70 -4q-12 -9 -27 -21q10 -14 17 -27q19 -36 36 -88q16 -47 29 -72q46 -87 149 -244q30 -46 57 -87.5t41 -63.5t16 -25q71 -119 123 -194l24.5 31.5t27.5 35.5q188 244 233 303l219 374l117 31l-9 -1q-28 -4 -46 -1l-355 57q122 63 125 64q26 12 38 19q27 17 46 25 q8 4 24 11t17 8l336 -54l371 53q-63 -50 -78 -62q-65 -52 -79 -63l-236 -34l-209 -353q-1 0 -1 -2t-1 -3q-22 -29 -101 -131t-136 -176q-58 -76 -126.5 -164.5t-80.5 -104.5l-17 -5q11 -24 10 -48q0 -20 -13 -51q-11 -25 -23 -43q-2 -2 -6 -8t-7 -10l81 33q76 -73 160 -186 q81 -109 138 -203q70 -116 135 -227q83 -143 123 -206q18 -27 46 -90q29 -65 53 -106q27 -46 59 -72q34 -28 80 -48t85 -29q43 -10 98 -14q30 -2 93 -5q22 -1 97 -1h20q-30 -17 -108 -65q-14 -7 -54 -32q-48 -30 -54 -34h-87q-8 0 -90 4q-56 3 -101 11q-48 9 -91 19 q-51 12 -92 31q-20 10 -47 28q-40 -19 -83 -35q-71 -25 -143 -39q-24 -6 -36 -7q-21 -2 -31 -3q-4 -1 -15 -1.5t-17 -0.5q-5 0 -11 -0.5t-9.5 -1t-6.5 -0.5q-6 -1 -30 -1h-26h-29h-27l216 131q101 0 136 4q21 15 37 30q-10 13 -17 26q-25 44 -54 109q-28 62 -45 89 q-33 51 -122 204q-80 136 -135 228q-62 103 -135 201q-52 69 -81 102q-7 -9 -18 -25.5l-15 -22.5q-4 -5 -9 -12.5t-13.5 -21t-15.5 -23.5q-24 -36 -34 -52q-192 -289 -367 -574q-12 -18 -22 -51q-11 -37 -21 -62q-9 -24 -38 -64q-9 -12 -22 -25l12 5l355 -67l-257 -138 l-324 60q-117 -45 -246 -57q-22 -2 -62 -4q-22 -1 -53 -1h-53h-43z" />
<glyph unicode="Y" horiz-adv-x="2557" d="M16 2348q44 27 108 66q7 4 26 16t29 18q36 22 53 31q297 0 440 -93q18 9 80 33q82 31 160 44q76 15 183 17q-20 -13 -58.5 -36t-48.5 -29q-80 -48 -108 -66q-57 0 -93 -6q-15 -9 -36 -29q16 -21 36 -59q37 -74 51 -114l20 -60t22 -65q26 -75 39 -102q214 -491 387 -771 q72 105 147 248q77 148 152 302q81 167 135 262q15 25 34 83q18 57 35 102q17 47 56 102q6 8 21 26q-44 32 -73 45q-41 18 -81 25q-44 8 -75 9q-42 2 -91 2q7 4 26 16t29 18q12 8 54 32q11 7 55 33q12 7 29 17.5t23 13.5q128 0 217 -19q60 -12 118 -43q119 45 252 57 q39 4 166 6q-3 -2 -22.5 -13.5t-33.5 -20.5q-10 -6 -21 -13t-18 -11t-11 -7q-92 -56 -108 -66q-105 -1 -147 -6q-31 -38 -79 -157t-68 -154q-48 -84 -108 -207q-16 -33 -54 -110t-56 -115q-32 -65 -111 -212q-60 -112 -136 -214q-73 -100 -162 -185v-567q0 -6 2 -44 q0 -8 0.5 -23.5t1.5 -21.5q1 -10 -1 -43q-2 -26 -6 -44q-5 -18 -15 -42q-8 -18 -13 -26l29 12q24 -20 48 -36q27 -18 44 -29q21 -13 48 -22l45 -15q19 -7 48 -11q30 -4 47 -6q32 -3 52 -4q25 -1 51 -1h58h59l-108 -65l-4 -2q-22 -11 -54 -31q-10 -6 -29 -18t-26 -16h-20h-84 q-12 0 -80 2q-49 1 -82 8q-6 1 -20.5 3.5t-28.5 5.5t-27 6q-49 12 -79 25q-27 12 -70 38l-2 1q-2 1 -3 1q-37 -18 -48 -23q-130 -55 -273 -67q-59 -4 -87 -5q-15 0 -92 2q-62 2 -66 2l216 131q11 0 81 -2q35 -1 74 -1q9 0 63 2q36 36 48 101t12 163v571q-121 170 -240 401 q-121 239 -238 507q-14 30 -50 137q-35 105 -67 176q-36 79 -73 112q-40 37 -92 61q-53 24 -112 36q-56 11 -110 16q-45 4 -111 4z" />
<glyph unicode="Z" horiz-adv-x="2091" d="M14 1838q4 34 6 99q1 24 3 62.5t2 51.5q1 47 17 109q15 60 43 101q31 47 100 89q49 30 97 49q100 42 213 63q110 20 210 22h26q78 0 150 -5q112 -9 144 -13q59 -8 82 -8q16 0 67 3q68 4 103 6q70 4 118 4q73 0 125 -8q62 -10 110 -25q52 -17 83 -49q32 -33 36 -80v-11 q0 -47 -29 -110q-36 -75 -72 -122q-21 -27 -94 -119q-49 -61 -68 -91q-64 -99 -187 -282q-95 -142 -211 -316q-106 -159 -182 -270q-131 -191 -209 -301q-25 -34 -67 -86q-37 -46 -90 -117q-26 -35 -80 -116q-39 -59 -57 -119q-9 -30 -9 -55q0 -20 6 -37q13 -32 43 -58 q29 -25 68 -35q28 -8 82 -15q40 -5 83 -5h14q42 1 99 5q36 2 99 6q70 4 87 4q75 0 168 -5q44 -2 119 -6t83 -4q50 -3 116 -3q33 0 70 1q98 2 148 13q8 6 11 9q19 22 36 68q14 39 26 114q10 68 15 111q7 66 11 115q0 5 0.5 10.5t1 9t0.5 5.5l289 94q-3 -47 -4 -82 q-1 -58 -6 -102q-4 -38 -14 -100q-9 -54 -32 -102q-25 -52 -55 -82q-64 -67 -188 -121q-89 -39 -204 -63q-111 -24 -241 -30q-76 -3 -135 -3q-50 0 -88 2q-160 10 -197 13q-110 8 -144 8q-4 0 -70 -4q-11 -1 -31 -2.5t-36.5 -2.5t-31.5 -1q-51 -2 -112 -3h-13q-47 0 -106 6 q-53 6 -107 20q-50 13 -88 42q-36 28 -53 70q-11 20 -8 51q3 34 10 59q9 33 23 63q22 46 34 66q14 23 43 65q26 37 46 64q8 11 24 31.5t23 29.5q10 14 44 55q6 8 19 23.5t19 23.5q24 30 29 37q26 36 208 300q76 110 182 269l210 315q141 212 186 282q20 31 74 98 q16 20 31.5 40t32.5 42t25 32q36 45 67 110q26 54 26 98v9q-3 39 -26 65q-24 27 -64 39q-47 14 -85 19q-47 6 -90 6h-12q-71 -2 -104 -4q-11 -1 -45.5 -3.5t-55.5 -3.5q-54 -3 -84 -3q-55 0 -163 7q-135 9 -190 11q-22 1 -45 1q-60 0 -124 -6l-1 -1q0 -2 -1 -2 q-28 -41 -38 -108q-11 -68 -15 -163q-5 -107 -8 -130z" />
<glyph unicode="[" horiz-adv-x="795" d="M19 1984q-1 58 11 136q12 76 45 124q70 101 242 166q60 22 107 35q51 12 116 22q52 8 91 10q44 2 78 2h60l-205 -129q-18 -1 -66 -3q-13 0 -38.5 -0.5t-35.5 -1.5q-11 -1 -28.5 -2.5t-22.5 -1.5q-1 -1 -8 -10.5t-11 -14.5q-24 -36 -33 -104q-10 -77 -9 -127q2 -59 6 -144 q4 -76 4 -120v-1174q0 -42 -4 -111q-4 -78 -6 -131q-2 -54 9 -117q10 -62 36 -100q18 -27 41 -47q28 -25 42 -33q22 -14 50 -22q21 -6 50 -13q24 -6 57 -7q48 -2 55 -2q33 0 61 1t60 1l-217 -131h-33h-68q-10 0 -70 2q-43 1 -74 8q-56 12 -68 15q-39 11 -67 26 q-32 18 -56 38q-32 27 -49 53q-27 44 -39 109q-12 64 -10 120q2 66 7 133q5 65 5 110v1173q0 34 -6 118q-8 116 -9 144z" />
<glyph unicode="\" horiz-adv-x="1798" d="M20 2288q17 6 65 24.5t79 30.5l-1 -1q21 8 72 27.5t71 26.5l1471 -2522l-287 -109z" />
<glyph unicode="]" horiz-adv-x="799" d="M22 2520q30 20 55 34q37 21 57 33h-3q16 7 57 32q38 24 57 33q1 0 55 -2q11 0 34.5 -0.5t31.5 -1.5q47 -3 65 -5q47 -5 70 -10q33 -7 64 -16q32 -9 64 -25q20 -10 52 -35q26 -20 46 -48q28 -44 40 -118q12 -71 10 -134q-2 -72 -7 -145q-6 -84 -6 -118v-1531q0 -31 6 -109 q8 -109 9 -132q1 -51 -11 -121q-11 -65 -43 -115q-45 -66 -128 -116q-48 -30 -127 -60q-83 -31 -159 -46q-75 -14 -118 -16q-25 -1 -101 1q-17 0 -33 0.5t-24 1t-9 0.5l216 132q144 0 180 2q12 13 24 30q22 32 31 93q10 70 9 115q-3 88 -5 131q-4 69 -4 112v1530q0 50 5 120 q5 73 7 144q1 60 -9 129q-11 70 -37 108q-19 26 -39 44t-42 31q-25 14 -51 22q-18 5 -53 12q-29 6 -58 8q-46 4 -58 4q-36 0 -61 1t-59 1z" />
<glyph unicode="^" horiz-adv-x="942" d="M20 2042l128 120l355 67q41 9 63 3l356 -75q-32 -16 -59.5 -29.5t-47.5 -23.5t-21 -11q-4 -2 -22.5 -11t-46 -23t-58.5 -29l-333 70z" />
<glyph unicode="_" horiz-adv-x="1004" d="M20 -66l217 132h747l-216 -132h-748z" />
<glyph unicode="`" horiz-adv-x="461" d="M21 1787l134 398q64 18 144 43q115 36 143 43l-133 -398q-40 -15 -144 -43q-130 -38 -144 -43z" />
<glyph unicode="a" horiz-adv-x="1730" d="M18 340v10q0 79 29 154q32 83 94 150q31 34 78 66q48 32 104 59q80 38 90 42q18 8 81 31q10 5 14 6t37 15.5t63 26.5q121 49 134 54q59 23 145 51q96 31 167 47q2 88 2 127q0 63 -15 129q-15 67 -42 116q-35 61 -85 102q-55 45 -106 63q-62 22 -106 27q-26 3 -50 3 t-46 -3h-6h-5h-1q-1 -1 -2 -1t-1.5 -0.5t-1.5 -0.5h-1h-1q-1 -1 -2 -1h-3l-2 -1h-1h-1h-1h-1h-1h-1l-1 -1h-1h-1q0 -1 -1 -1h-2l-2 -1h-2v-1h-1h-2v-1h-2v-1h-1h-2h-1v-1h-1h-1h-1l-1 -2q-1 -1 -2 -1h-2q-1 0 -1 -1l-2 -1l-3 -3h-1h-1h-2v-2q-51 -30 -106 -91 q-57 -63 -80 -136q-6 -2 -29.5 -9t-41.5 -13t-42 -13t-30 -9q-5 -1 -18.5 -5t-28 -8.5t-28.5 -8.5q-51 -16 -70 -21q64 189 291 320q10 6 15 8q3 2 9 5l8 4q10 5 15 8t17 9q15 6 17 7q9 5 18 8l18 8q4 2 12.5 5.5t12.5 5.5q10 5 19 8q12 4 19 7q20 7 21 8q18 6 26 8 q9 3 21 6q2 1 9 3.5t11 3.5t11.5 3t11.5 3l24 6q3 1 8.5 3t8.5 2q18 3 22 4l31 6q3 0 9.5 1t9.5 2q3 0 8 0.5t8 1.5q58 7 110 7q282 0 406 -219q12 -19 21 -42q11 -29 16 -49q2 -10 6 -25t5 -20q4 -19 6 -51q0 -6 4 -47q2 -22 2 -52v-46v-9v-18.5v-21.5q-1 -25 -1 -45 q-1 -2 -1.5 -4.5t-0.5 -4.5q-2 -36 -1.5 -96t1.5 -143q3 -197 3 -240q0 -20 3 -71q1 -20 4 -85v-14q0 -30 -6 -66q-7 -43 -28 -78q-8 -14 -26 -34q-11 -12 -37 -32q-12 -9 -28 -20l141 49q6 -56 20 -90q15 -38 31 -61t48 -36t53 -17q23 -5 62 -3q32 1 61 7q8 2 29.5 5.5 t34.5 5.5l-132 -119q-47 -9 -108 -17q-43 -5 -99 -7h-11q-38 0 -79 6q-36 6 -76 23q-38 17 -62 42q-25 27 -43 68q-14 31 -19 61q-138 -83 -227 -122q-174 -79 -329 -97q-43 -5 -82 -5q-102 0 -177 34q-79 34 -136 96q-59 64 -85 139q-28 80 -29 159zM320 439q3 -75 27 -149 q24 -73 74 -132q51 -60 121 -90q24 -10 36 -14q19 -6 31 -9q9 -2 29 -4q5 0 13.5 -0.5t12.5 -1.5h6q6 0 16 1l20 4q10 2 16 4q2 1 5 1.5t5 1.5t3 1t5 1.5t6 2.5l7 4q53 25 154 85l64 36q27 15 36 18q7 3 15 10q8 8 17 22q11 20 17 63q5 34 5 73q0 15 -2 85t-2 73q0 7 -2 201 q-1 120 -1 180v45l-1 -1q-31 -1 -80 -9q-43 -7 -87 -22q-52 -18 -83 -30q-53 -21 -110 -44q-102 -41 -128 -51q-21 -10 -54 -22l-16 -6t-13 -5t-8 -3q-11 -4 -21 -10q-13 -8 -20 -15q-12 -12 -22 -23q-46 -51 -70 -122q-21 -64 -21 -132v-17z" />
<glyph unicode="b" horiz-adv-x="1971" d="M13 2446q18 12 54 33t54 33q1 0 21.5 12.5t34.5 21.5q36 24 53 32q3 0 11 0.5t22.5 1t28.5 0.5q68 2 87 2q34 0 85 -8t80 -23q43 -22 73 -64t43 -93q14 -56 20 -108q4 -39 4 -86v-33q-2 -65 -6 -117q-3 -35 -9 -109q-4 -49 -4 -87v-359q2 1 9 5.5t22.5 13.5t30.5 19 q52 32 82 49q27 15 85 44q59 29 115 51l12 4t14 5q6 2 15.5 5.5t15.5 5.5q10 4 35 11q15 5 23 7q123 35 228 35q44 0 89 -6q94 -13 176 -58q80 -44 132 -103q53 -60 91 -140q42 -87 59 -156q22 -88 30 -164q10 -69 15 -166q2 -40 2 -83.5t-2 -90.5q-5 -96 -22 -176 q-19 -88 -53 -171q-34 -85 -89 -161q-49 -69 -135 -142q-79 -67 -185 -118l-19 -10l-19 -9q-5 -3 -11 -5.5t-13.5 -5t-11.5 -4.5t-13 -5.5t-14 -5.5q-6 -3 -28 -10q-5 -2 -14 -5t-11 -4q-127 -40 -261 -48l-7 -4q-18 -1 -36 -1q-127 0 -240 38q-107 36 -212 101 q-109 67 -153 142q-24 42 -33 107q-7 50 -7 93q0 15 1 29q3 58 9 130q5 61 5 107v1109q0 41 4 104q5 74 9 131q2 32 2 72q0 30 -1 63q-3 79 -13 131q-11 56 -36 104q-27 52 -67 70q-24 13 -55 18q-27 4 -55 4q-24 0 -71 -3q-31 -2 -76 -2zM657 416q6 -80 34 -125 q39 -66 146 -132q109 -68 197 -95q101 -34 197 -34h15q51 5 76 13h1h1v1h2l2 1q1 0 2 1q61 31 116 103q57 76 98 172q38 89 70 218q30 120 36 242q2 39 2 78q0 84 -9 164q-10 87 -31 161q-23 79 -60 152q-36 71 -88 132q-50 59 -117 98t-146 48q-35 6 -64 6q-34 0 -61 -8h-1 h-1q-2 0 -3 -1t-3 -1q-1 0 -2 -1q-16 -7 -72 -41q-52 -32 -138 -81q-90 -52 -180 -95h-2h-2l-3 -647q0 -41 -8 -140q-6 -73 -6 -129q0 -33 2 -60z" />
<glyph unicode="c" horiz-adv-x="1612" d="M23 802q3 112 28 228q25 117 68 215q46 107 108 186q45 60 92 101q46 41 122 86q61 35 134 63q3 1 12 5t14 6q82 30 150 42q3 1 53 9q56 8 110 8q323 0 546 -275q-32 -14 -79 -33q-55 -22 -63 -24q-30 -12 -70 -27t-72 -29q-72 87 -174 150q-108 67 -196 89 q-68 17 -125 17q-21 0 -40 -2l-12 -3h-1h-1l-1 -2h-2q-19 -11 -56 -43q-38 -33 -66 -72q-56 -74 -97 -172q-41 -100 -62 -204q-20 -104 -22 -221v-11q0 -97 17 -212q16 -109 57 -211t99 -183q56 -78 143 -140q84 -60 188 -84q57 -14 116 -14q69 0 143 19h1q38 20 107 98 q69 77 114 176l286 81q-28 -59 -57 -107q-15 -24 -45 -65q-18 -24 -55 -65q-37 -40 -75 -67q-38 -26 -102 -61q-67 -36 -134 -62q-60 -22 -107 -34q-158 -42 -289 -42q-86 0 -161 18q-113 27 -207 89t-156 145q-61 82 -106 188q-45 107 -61 216q-14 98 -14 196v34z" />
<glyph unicode="d" horiz-adv-x="2012" d="M23 691q-4 47 -4 97q0 70 8 148q14 129 54 244q41 117 121 225t196 188q52 36 106 64q4 2 10 5.5t11 6.5t10 5q53 26 115 46q61 21 126 34q86 17 173 19h13q75 0 137 -11q61 -11 135 -35q73 -24 107 -38v169q0 43 4 119q6 122 7 145v19q0 52 -9 110q-11 69 -36 108 q-18 27 -41 44q-21 16 -45 26q-21 9 -53 12q-34 3 -55 2q-27 -2 -64 -3q-56 -2 -67 -2q6 4 54 34q46 29 52 32l-4 -6q51 31 55 34q36 24 53 32q26 0 51 1t61 1q13 0 63 -2q29 -1 66 -9q26 -6 59 -17t57 -30q26 -20 43 -44q29 -42 41 -117q10 -61 10 -116v-18q-2 -73 -7 -146 q-6 -84 -6 -118v-1263q0 -14 -2 -82q-1 -39 -5 -91q-2 -34 -2 -69v-23q2 -63 5 -92q5 -48 15 -83q12 -45 31 -75q19 -31 50 -57q30 -26 72 -39q21 -8 44 -11q24 -3 41 -3q5 0 55 2q25 1 57 1l-216 -130q-23 0 -51 -1t-67 -1q-29 0 -62 4q-31 4 -65 15q-55 18 -89 45 q-41 33 -60 64q-23 37 -34 80l-9 36q-13 -8 -35 -23q-72 -49 -136 -82q-34 -18 -68 -34q-111 -48 -219 -74q-109 -26 -194 -26q-88 0 -158 15q-69 15 -131 44q-71 33 -124 82q-57 52 -95 114q-43 70 -67 128q-30 74 -46 138q-32 122 -42 233zM318 851v-16q0 -148 36 -278 q25 -99 63 -176q41 -84 106 -156t146 -112q43 -21 95 -34q47 -11 88 -13h11q24 0 61 3q34 3 51 6q7 1 21 6q1 0 4.5 1.5t5.5 2.5q5 5 14 12q14 11 36 27q17 13 55 36q31 20 72 42q42 23 85 42q27 12 57 24q-1 16 -1 51q2 65 4 95q1 9 3.5 41t3.5 51q3 50 3 83v876l2 1 q-2 0 -5 -2t-4 -2q-71 20 -246 80q-159 54 -263 80q-62 15 -112 15q-26 0 -48 -4h-2q0 -1 -1 -1t-2 -1q-20 -11 -36 -22q-96 -67 -166 -190q-70 -122 -103 -267q-32 -142 -34 -301z" />
<glyph unicode="e" horiz-adv-x="1598" d="M24 911q0 4 2.5 20.5t3.5 28.5q3 19 7 53.5t6 47.5q9 55 19 100q14 65 30 105q20 50 44 96q27 53 65 97q37 43 91 87q61 50 123 84q4 2 12.5 6t12.5 6q13 6 16 9q60 29 117 50q18 6 26 9q41 15 87 25q4 1 11.5 2.5t10.5 1.5t10.5 2t11.5 3q84 16 160 16q74 0 142 -15 q137 -30 234 -106q95 -74 148 -188q50 -106 50 -234v-10q-1 -89 -73 -164q-59 -59 -166 -107q-75 -32 -161 -50q-108 -22 -204 -27q-60 -3 -116 -3q-34 0 -67 1q-119 5 -174 8q-82 5 -153 5q-6 0 -36 2q-6 -37 -5 -80q0 -100 31 -226q18 -74 51 -142q35 -72 74 -122 q42 -54 90 -99q52 -48 101 -78q55 -33 107 -54q56 -23 107 -33q47 -9 91 -9h9q49 2 86 13q42 23 114 106q67 77 122 173l285 79q-2 -3 -3.5 -6t-4.5 -8.5t-5 -9.5q-20 -39 -32 -58q-14 -22 -38 -58q-29 -43 -47 -62q-41 -43 -58 -60q-36 -34 -75 -60q-31 -20 -93 -53 q-60 -32 -116 -53q-2 0 -5.5 -1t-5.5 -2q-133 -47 -242 -64q-73 -11 -140 -11q-35 0 -68 3q-90 9 -173 41q-79 31 -143 78q-60 44 -113 110q-54 66 -86 131q-35 71 -60 146q-10 35 -17 61q-32 129 -32 229q0 73 17 129q6 18 17 36q11 17 37 36l56 24q16 7 32.5 14t31 14 t19.5 9l82 37h-5q69 17 124 18q18 1 33 1q38 0 61 -4q32 -5 41 -5q60 0 147 -3q25 -1 77 -3t75 -3q86 -2 139 -2q82 0 126 5q40 46 42 115v12q0 81 -26 151q-29 80 -75 136q-45 55 -107 103q-58 45 -125 73q-62 26 -126 37q-32 5 -60 5q-26 0 -50 -4h-3h-2h-2h-1v-2h-1 l-6 -3q0 -1 -2 -1t-2 -1q-67 -38 -124 -136t-93 -220q-34 -117 -53 -255z" />
<glyph unicode="f" horiz-adv-x="1397" d="M20 -66l216 131q76 0 122 2q11 14 25 36q8 12 12 28q6 22 7 37q2 28 2 35v43v38v376q0 136 -6 344q-2 79 -6 202t-5 158q-2 89 -2 175v56h-342q53 33 109 66l-6 -7q64 39 108 66h128q6 191 23 330q1 2 1.5 8.5t0.5 9.5l9 57q1 9 11 57t14 62q1 2 22 59q13 35 31 61 q19 27 42 56q24 30 57 56t72 50q46 28 91 47q18 8 30 13q67 26 129 38q57 11 98 13h7q36 0 74 -9q34 -8 63 -21q24 -10 56 -27q36 -19 64 -43q35 -30 46 -41q28 -28 51 -53l-284 -113q-32 34 -49 52q-9 9 -47 41q-28 23 -55 37q-60 33 -105 41q-49 -57 -87 -155 q-37 -96 -49 -198q-17 -145 -23 -348q0 -13 -0.5 -38.5t-1.5 -38.5h536q-35 -21 -108 -66q-48 -27 -109 -65h-320q0 -50 2 -134q2 -52 5 -172.5t5 -187.5q7 -243 7 -343v-377q0 -22 1 -45t1 -53q0 -18 -6 -48q-5 -22 -19 -51l20 8q38 -33 66 -53q30 -22 67 -36 q45 -18 60 -22q23 -7 68 -10q56 -4 69 -4h82h21q-7 -4 -26.5 -15.5t-30.5 -18.5q-45 -27 -51 -31q-84 -49 -108 -66q-57 0 -113 2q-43 2 -101 9q-61 8 -101 22q-42 15 -90 42l-21 12q-24 -11 -74 -30q-33 -11 -82 -25q-40 -11 -80 -19q-44 -9 -72 -10q-46 -2 -55 -2h-54h-42 z" />
<glyph unicode="g" horiz-adv-x="1819" d="M14 -547q3 53 22 104q18 49 45 93q24 39 64 87q47 56 70 78q30 29 77 74q42 40 67 69q1 0 2 1t2 1l-6 -1q-87 19 -157 63q-67 42 -86 111q-8 27 -8 55q0 75 56 164q66 106 181 178q-20 15 -37 28q-9 7 -17.5 14t-16 12.5t-10.5 7.5q-17 13 -39 34q-25 24 -40 40 q-17 19 -33 40q-15 20 -29 48q-66 128 -66 270v20q5 154 78 286q37 63 86 116q45 49 130 101q2 2 4.5 3.5t5.5 3l5 2.5q56 33 120 60q54 22 121 40q4 1 11.5 3t11.5 3l35 9q90 19 163 20h26q64 0 106 -8q55 -10 112 -33q66 -26 97 -44q39 -22 93 -51q5 -3 10.5 -5.5t12 -5.5 t9.5 -5q45 17 74 25q20 7 92 24q28 16 78 60l128 22l15 2.5t23 4t25 4.5q55 10 64 11q-32 -27 -52 -43q-21 -16 -60 -44q-45 -32 -93 -54q-63 -29 -116 -46q-60 -20 -88 -27q0 -1 -1.5 -4.5t-2.5 -5.5q-10 -22 -11 -49q-2 -29 4 -57q6 -30 12 -57q2 -10 7.5 -29.5t7.5 -29.5 q6 -26 8 -56q3 -30 3 -59q0 -122 -47 -232q-58 -138 -204 -242q-35 -25 -61 -40q-57 -34 -131 -63q-194 -77 -364 -77h-24h-7q-21 1 -67 14q-55 -63 -82 -129q-18 -45 -18 -83q0 -21 5 -39q12 -43 44 -73q34 -32 77 -50q44 -18 85 -27q49 -10 85 -13q12 -1 34 -1 q7 0 18 -0.5t28.5 -1t31.5 -0.5q112 0 148 -1q79 -2 155 -9q109 -10 162 -24q67 -18 139 -47q77 -31 120 -77q42 -45 71 -117q25 -62 25 -132q0 -15 -1 -29q-6 -120 -56 -228q-36 -79 -98 -144q-63 -66 -163 -124q-5 -3 -11.5 -6.5t-15 -8t-12.5 -6.5q-16 -9 -50 -25 q-4 -3 -21 -9q-1 -1 -8 -4t-11 -5q-15 -5 -19 -7t-8 -3.5t-9 -4t-8 -3.5q-18 -6 -20 -7q-18 -7 -23 -8l-39 -13q-3 -1 -9.5 -3t-9.5 -3q-6 -2 -17.5 -4.5t-16.5 -3.5q-169 -45 -322 -45q-174 0 -327 58q-66 24 -133 66t-110 89q-46 50 -74 121q-26 67 -26 141v5zM304 -452 v-11q0 -68 24 -127q25 -63 71 -112q45 -48 102 -84q54 -34 125 -61q70 -27 160 -39q65 -9 128 -9q17 0 34 1q72 3 125 15l1 1q2 0 2 1q1 1 3 1t3 1h2q1 1 2 1h1h1v1q1 1 3.5 1t3.5 1h1h2v1h1h1l1 1h1q1 0 2 1h2h1v1h1h1v1h2q1 0 1 1h2v1h3q1 0 3 1.5t4 2.5h1l3 2q4 3 6 4 q43 26 85 70q46 47 74 110q46 103 52 214q1 15 1 29q0 67 -20 121q-25 68 -59 108q-36 42 -104 71q-69 29 -121 44q-55 16 -144 23q-98 8 -140 8h-141h-53h-5l-6.5 -6.5t-13.5 -12.5t-17 -16t-17 -16.5t-14 -13t-7 -6.5q-16 -16 -33 -34q-25 -26 -34 -37q-4 -5 -28 -36 q-20 -26 -27 -40q-2 -4 -5.5 -10t-8.5 -14.5t-8 -14.5q-12 -21 -19 -44q-2 -7 -5.5 -23.5t-4.5 -22.5q-5 -23 -7 -49zM351 1133q-1 -14 -1 -28q0 -123 57 -243q13 -25 28 -45q9 -13 30 -38q11 -13 39 -38q10 -9 23 -20.5t15 -12.5q4 -3 10 -8t16.5 -12.5t18.5 -13.5 l18 -13.5t15.5 -12t8.5 -6.5q-4 -2 -13 -5.5t-13 -5.5q40 7 70 7h13q39 -2 66 -9q32 -9 40 -15l11 -9q22 0 54 2q23 1 34 5l9 3q7 1 27 16q83 60 141 192q48 109 48 219q0 23 -2 46q-1 20 -13 67q-16 64 -19 75q-9 33 -9 75q0 39 13 78q0 1 1 3.5t2 3.5l-1 1q-4 -2 -5 -3 l-75 30q-46 19 -71 30q-5 2 -29 13t-38 17q-22 10 -63 26q-7 3 -26.5 11t-31.5 12q-20 8 -55 17q-8 2 -26 5.5t-25 4.5q-26 5 -41 5h-5q-3 0 -18.5 -1.5t-24.5 -2.5q-1 -1 -2 -1h-1h-1h-1l-4 -2q-77 -47 -132 -164q-54 -115 -62 -255z" />
<glyph unicode="h" horiz-adv-x="2271" d="M20 -61l216 132q93 0 116 2q19 20 32 47q27 53 32 138q2 31 2 67q0 64 -6 140q-9 123 -9 157v1195q0 33 9 161q5 77 5 140q0 42 -2 78q-6 92 -34 146q-14 27 -31 46t-41 29q-27 12 -44 17q-21 7 -52 8q-9 0 -27 0.5t-26 1.5q-13 1 -60 -1q-50 -2 -58 -2q30 20 54 34 q36 21 54 33l-10 -9q6 4 54 32q44 26 55 33h48h57q7 0 57 -2q39 -2 61 -6q27 -5 55 -13q33 -9 54 -21q17 -10 44 -33q20 -18 37 -46q24 -48 33 -123q6 -52 5 -102v-38q-3 -65 -9 -149q-5 -71 -5 -125v-431q4 2 43.5 23.5t70.5 38.5q115 64 246 119q22 8 34 13q12 4 34 12 q5 3 25 10q8 3 23 7t17 5q3 1 9.5 3.5t9.5 3.5q7 2 30 7q8 2 26 6q17 4 23 5q72 15 132 15q18 0 35 -1q74 -6 134 -31q56 -24 118 -72q49 -41 77 -83q33 -49 48 -99q14 -47 25 -100q5 -25 13 -109q6 -44 14 -132q5 -59 7 -150q2 -112 2 -126v-149v-131q0 -32 4 -88 q2 -34 5 -106v-13q0 -39 -10 -85q-11 -51 -33 -88l31 13q51 -44 88 -67q43 -26 87 -38q50 -13 87 -16q42 -3 105 -3l-216 -132q-145 0 -243 29q-65 20 -122 60q-36 -17 -80 -33q-71 -25 -104 -33q-49 -12 -93 -18q-23 -3 -68 -6q-12 -1 -28 -1t-35 1h-44q7 4 26 16t29 18 q39 24 53 32q78 48 108 66q70 0 114 2q11 11 21 29q18 26 28 78q8 46 10 89v19q0 32 -2 86q-3 66 -3 92v22.5v48.5v60q0 53 0.5 90t-0.5 58q0 12 -0.5 30.5t-1 45.5t-0.5 49q-2 90 -7 149q-8 88 -14 131q-8 82 -13 109q-11 57 -24 97q-18 55 -45 93q-32 45 -71 77 q-29 23 -70 45q-34 19 -64 28q-23 7 -57 13q-27 5 -44 3q-18 -2 -29 -3h-2h-1h-1l-2 -2h-1h-1h-1h-2l-2 -2h-1h-1h-1l-6 -3q-29 -13 -81 -41q-90 -49 -149 -79q-104 -52 -186 -84q-5 -2 -14 -5l-12 -4h-2v-674q0 -25 7 -119q6 -83 9 -140q1 -18 1 -37q0 -49 -6 -98 q-9 -76 -35 -123q-7 -14 -9 -17l30 12q48 -42 89 -67q43 -26 87 -38q50 -13 87 -16q42 -3 104 -3l-216 -132q-144 0 -242 29q-67 21 -123 60q-34 -16 -72 -30q-66 -23 -107 -34q-51 -14 -96 -18q-17 -2 -70 -5q-12 -1 -28.5 -1t-36.5 1h-44z" />
<glyph unicode="i" horiz-adv-x="1075" d="M18 -66l216 131q96 0 113 1q2 2 5.5 6t5.5 6q6 9 18 29q8 14 13 37q1 7 2.5 13.5l3 13t2.5 9.5q2 10 4 45q0 8 0.5 17t1 14t0.5 8v46v42v620q0 50 5 124q7 100 8 152v20q0 54 -9 115q-11 72 -39 111q-18 25 -34 38q-18 15 -40 24q-19 8 -43 15q-18 5 -48 7q-19 1 -50 1 q-32 0 -55 -1q-46 -2 -55 -2q30 17 109 65l-7 -8q80 48 108 65q23 0 51 1q42 1 61 0t61 -3q37 -1 67 -8q24 -5 59 -17q32 -11 56 -30q28 -23 42 -43q32 -45 44 -119q11 -73 11 -131v-10q-1 -29 -9 -152q-6 -88 -6 -123v-620q0 -1 2 -57q1 -35 1 -52v-13q-2 -36 -5 -57 q-4 -32 -19 -65l-12 -24l29 12q45 -39 89 -66q43 -26 87 -38q56 -15 86 -17q42 -3 105 -3l-216 -131q-146 0 -242 30q-63 20 -121 59q-48 -23 -87 -37q-49 -17 -106 -31q-53 -13 -92 -17q-24 -3 -68 -5h-14q-17 0 -46 1q-9 0 -19.5 0.5t-15.5 1t-8 0.5zM252 2048l454 424 l-287 -585h-163z" />
<glyph unicode="j" horiz-adv-x="747" d="M-141 -944l161 123q36 5 55 10l3 2h2h1h2h1v1h1l2 1h1h1v1h1h1q0 1 1 1h1h2v1h2v1q2 0 3 1q70 37 122 106q55 73 86 159q33 89 57 200q25 116 34 228q11 150 16 244q5 89 5 183q0 31 -1 63q-2 160 -2 235q0 32 -0.5 72t-1 65.5t-0.5 42.5v465q0 3 0.5 9t1 17.5t0.5 23.5 q2 42 0 62q-2 24 -7 50q-7 34 -17 53q-14 27 -31 46q-16 18 -41 30q-23 12 -44 18q-21 7 -52 8q-42 2 -53 2h-60q-50 -2 -58 -2q7 4 26 16t29 18l54 33q18 12 54 33t54 33h47h56q7 0 57 -2q38 -2 62 -6q27 -5 56 -13q34 -9 55 -22t44 -34q22 -20 35 -45q14 -25 20 -59 q5 -30 7 -55q2 -21 0 -63q0 -11 -0.5 -23.5t-1 -19t-0.5 -9.5v-465q0 -72 6 -189q11 -211 11 -214q5 -81 5 -223q0 -125 -6 -229q-6 -107 -28 -220q-22 -115 -60 -212q-39 -99 -99 -185q-63 -90 -148 -157q-61 -46 -133 -84q-3 -2 -19 -10q-3 -2 -9 -4.5t-9 -3.5 q-18 -10 -32 -15q-10 -5 -19 -8q-4 -2 -12.5 -5t-12.5 -5l-21 -9q-5 -2 -14.5 -5t-12.5 -4q-7 -3 -21 -7q-4 -2 -8.5 -3.5t-10 -3t-8.5 -2.5q-8 -1 -19 -5q-83 -24 -169 -36zM252 2048l454 424l-287 -585h-163z" />
<glyph unicode="k" horiz-adv-x="2093" d="M19 -66l216 132q73 0 117 2q17 19 31 46q27 53 32 138q2 32 2 67q0 64 -6 141q-8 109 -8 157v1195q0 48 8 161q6 84 6 148q0 38 -2 68q-6 91 -34 148q-13 27 -32 47q-20 22 -40 31q-24 11 -43 17q-21 7 -50 8q-30 1 -52 0q-8 -1 -28.5 -1.5t-30.5 -0.5q-50 -2 -61 -2 q30 20 53 34q12 7 30.5 18t24.5 15l-10 -4q22 11 54 31q44 28 53 34h48h56q34 0 57 -1q36 -2 61 -6q30 -5 57 -13q29 -8 55 -24q21 -13 43 -33q19 -18 36 -48q25 -51 34 -124q6 -51 6 -101q0 -19 -1 -37q-3 -65 -9 -149q-6 -86 -6 -125v-957h93q21 61 59 127q37 66 87 125 q49 58 91 104q39 42 103 106q14 14 43 47q28 32 57 59q27 26 76 59q58 40 118 67q19 9 42 18q65 28 125 44q68 18 118 25q43 6 89 10q44 4 83 4h57l-202 -129q-145 -7 -200 -17q-7 -4 -21 -17q-3 -2 -8.5 -7t-11 -9.5t-10.5 -9.5l-28 -28q-3 -3 -14 -13.5t-19 -18.5l-32 -32 q-16 -16 -38.5 -39t-28.5 -29q-38 -38 -63 -66q-42 -47 -60 -71q-23 -30 -51 -72q-28 -41 -45 -80q-18 -41 -32 -83q-14 -45 -21 -86q12 -15 108 -143l63 -84t55 -73q51 -67 119 -148q73 -87 131 -145t138 -121q79 -63 153 -103q24 -15 64 -28q53 -18 58 -19q23 -6 72 -18 t66 -15l-258 -127q-17 6 -65 17q-51 12 -75 18q-27 7 -64 21q-45 17 -70 31q-83 44 -159 106q-85 69 -140 125q-69 70 -133 147q-63 75 -118 149q-105 141 -117 157q-72 96 -104 136h-75v-107q0 -24 7 -119q6 -79 9 -142q1 -18 1 -36q0 -48 -6 -97q-9 -75 -35 -124 q-1 -2 -2 -4.5t-2 -4t-2 -3.5l-2 -4l29 12q48 -42 89 -67q43 -26 87 -38q55 -15 87 -17q42 -3 104 -3l-216 -132q-146 0 -242 30q-63 20 -121 59q-32 -15 -76 -31q-67 -24 -107 -33q-55 -13 -95 -17q-46 -5 -71 -6q-26 -1 -63 0q-25 1 -45 1z" />
<glyph unicode="l" horiz-adv-x="1075" d="M22 -67l216 131q70 0 116 2q17 19 32 48q26 51 31 138q2 32 2 67q0 64 -6 140q-8 108 -8 156v1196q0 48 8 161q6 84 6 148q0 38 -2 69q-6 90 -34 147q-13 27 -32 47q-17 18 -40 29q-26 12 -43 17q-19 5 -51 7q-20 1 -52 1q-10 0 -60 -2t-61 -2q6 4 23.5 15t29.5 19 q35 23 55 32q6 4 24.5 15t29.5 18q8 5 52 33h47q40 0 55 1h12q16 0 45 -1q36 -2 61 -6q30 -5 57 -13q35 -10 55 -22q18 -11 43 -34q19 -18 36 -48q25 -51 34 -124q6 -51 6 -101q0 -19 -1 -38q-3 -65 -9 -149q-6 -86 -6 -125v-1197q0 -24 7 -118q6 -81 9 -141q1 -18 1 -36 q0 -48 -6 -97q-9 -76 -35 -123q-7 -14 -9 -17l30 12q48 -42 89 -67q43 -26 87 -38q55 -15 87 -17q42 -3 104 -3l-216 -132q-146 0 -242 30q-63 20 -121 59q-39 -19 -77 -33q-69 -24 -106 -33q-55 -13 -95 -17q-46 -5 -70 -6q-13 -1 -29 -1t-35 1q-10 0 -21 0.5t-16 1t-7 0.5 z" />
<glyph unicode="m" horiz-adv-x="3379" d="M17 -70l216 131q76 0 122 2q16 19 26 36q20 35 24 94q2 35 2.5 73t-2.5 79q-5 77 -5 113v886q0 15 34 39q-51 -17 -58 -19q-2 48 -11 77q-10 31 -23 54q-12 20 -40 36q-31 17 -46 23q-18 7 -58 10q-7 1 -62 4h-29h-41h-28q23 15 55 34q28 16 53 33q11 7 55 33 q36 21 54 32h65q21 -1 63 -2q30 -1 63 -7q42 -7 58 -12q33 -10 52 -21q30 -18 44 -29q25 -19 36 -41q14 -28 22 -56q8 -27 9 -57q35 21 53 33q85 54 149 87q9 6 17 10t17 7q5 3 17 8q5 2 17 8l23 10l22 8l20 9q20 7 23 9q41 14 53 17q8 2 24.5 7t24.5 8q142 37 255 37 q216 0 332 -133q44 -50 80 -131q122 91 234 145q37 19 83 36q140 54 297 70q1 1 19 3t25 3q8 2 26 3q26 2 30 2h29q22 0 31 -1t29 -3q12 -1 29 -5q75 -18 125 -45q58 -31 96 -68q39 -37 68 -91q28 -51 45 -106q18 -58 28 -119q11 -70 14 -125q4 -78 4 -129q0 -19 -3 -124 q0 -13 -1.5 -53.5t-2.5 -65.5q-2 -88 -2 -105q0 -35 6 -119q8 -116 9 -144v-9q0 -55 -11 -125q-12 -67 -39 -115l29 12q48 -42 89 -67q44 -27 88 -38q52 -13 88 -16q56 -4 103 -4l-108 -65l-5 -8l-108 -65q-145 0 -244 29q-59 17 -121 59q-32 -17 -82 -35q-67 -24 -106 -33 q-53 -13 -93 -17l-68 -4q-13 -1 -28.5 -1t-33.5 1q-24 1 -44 1l216 131q74 0 114 2q12 13 23 29q24 37 33 106q9 70 9 118v9q-1 59 -6 145q-4 76 -4 120q0 59 1 106q0 21 0.5 61.5t1.5 57.5v26q0 34 -1 96q-2 75 -6 127q-6 71 -15 121q-13 72 -28 116q-20 58 -42 101 q-29 57 -60 89q-35 37 -82 63q-51 29 -106 40q-14 4 -24 6q-18 3 -24 2l-21 -1q-6 0 -30 -3q-9 -1 -21 -2.5t-15 -1.5q-43 -6 -69 -12q-55 -28 -146 -99q-99 -78 -172 -142v-808q0 -30 4 -85t4 -99q0 -42 -11 -90q-10 -46 -32 -83l31 13q44 -40 87 -68q40 -26 86 -38 q51 -13 87 -16q39 -3 105 -3q-15 -9 -51 -31.5t-56 -34.5q-6 -4 -54 -32q-36 -21 -54 -33q-146 0 -244 29q-63 18 -121 59q-28 -14 -82 -35q-60 -21 -105 -32q-52 -13 -93 -17q-24 -3 -68 -5q-27 -1 -62 0q-24 1 -45 1l216 131q74 0 114 2q12 12 23 29q16 25 26 74 q8 43 10 82q0 5 -2 100q-2 86 -2 87v815q-12 27 -26 59q-18 42 -30 66q-20 39 -30 56q-24 39 -38 55q-41 45 -96 72t-109 33q-48 5 -84 5h-11q-43 -2 -70 -10q-1 -1 -3.5 -1.5t-3.5 -0.5q-4 0 -8 -2h-1l-2 -1l-1 -1h-1q-2 0 -3 -1l-1 -1h-2q0 -1 -1 -2h-1q-1 0 -2 -1h-1 l-2 -2l-1 -1q-1 -1 -2 -1t-2 -1l-2 -1q-41 -27 -56 -38q-47 -33 -117 -72q-74 -41 -156 -74v-834q0 -11 8 -109q4 -47 4 -89q0 -35 -3 -66q-6 -61 -34 -111l21 8q41 -40 86 -68t87 -39q46 -12 86 -15q39 -3 106 -3l-107 -66q-15 -8 -109 -65q-146 0 -244 29q-62 19 -119 58 q-33 -15 -72 -30q-60 -20 -81 -26q-37 -10 -81 -19q-38 -7 -72 -9q-37 -2 -55 -3q-19 -1 -54 0q-23 1 -42 1z" />
<glyph unicode="n" horiz-adv-x="2271" d="M20 -69l216 131q74 0 114 2q10 10 22 29q19 28 28 78t9 89q0 18 -2 106t-2 91v837q-7 25 -17 94q-10 70 -29 101q-13 23 -27 37q-16 16 -36 25q-13 6 -39 14q-14 4 -45 6q-36 2 -45 2t-51 -2q-21 -1 -52 -1q6 4 45 27.5t64 38.5l-1 -5q73 43 107 65q20 0 40 1t50 1 q8 0 50 -2q27 -1 55 -5q19 -2 51 -11q29 -8 48 -18t40 -28q19 -16 33 -39q21 -39 30 -117q138 85 231 127q120 58 236 91q133 37 244 37q82 0 153 -20q67 -19 122 -56q56 -37 92 -79q37 -43 64 -101q29 -63 43 -117q17 -66 25 -129q11 -85 12 -134q1 -57 1 -99v-38 q-2 -88 -4 -130q-6 -106 -6 -124q-2 -88 -2 -111q0 -40 5 -99q4 -43 6 -118v-15q0 -45 -10 -95q-11 -56 -36 -98l31 13q48 -42 89 -67q43 -26 87 -38q56 -15 86 -18q42 -3 105 -2q-42 -26 -108 -66q-7 -4 -26 -15t-30 -17q-39 -22 -53 -33q-146 0 -242 30q-65 21 -122 59 q-34 -17 -83 -35q-69 -24 -105 -33q-52 -13 -93 -17q-4 0 -68 -4q-14 0 -29 -0.5t-33 0.5q-24 1 -44 1l216 131q74 0 114 1q11 11 21 30q21 34 30 88q9 55 9 102q0 20 -4 118q-3 74 -3 102q0 15 1.5 53t1.5 57q2 72 3 125q2 74 2 131q0 55 -4 135q-2 46 -13 130 q-9 69 -24 125q-17 63 -40 113q-26 56 -58 97t-80 74q-50 34 -106 50q-59 17 -110 17q-39 0 -73 -10q-35 -9 -91 -41t-159 -93q-106 -62 -154 -89v-820q0 -33 4 -89q4 -62 6 -106v-6q0 -38 -11 -91q-10 -50 -33 -88l30 12q48 -42 89 -67q43 -26 87 -38q50 -13 87 -16 q56 -4 104 -5l-216 -130q-146 0 -242 30q-63 20 -121 59q-34 -17 -83 -35q-69 -24 -106 -33q-55 -13 -93 -17q-23 -2 -69 -5q-27 -1 -62 0q-10 0 -20 0.5t-15.5 1t-8.5 0.5z" />
<glyph unicode="o" horiz-adv-x="1689" d="M20 855q6 101 26 205q48 268 203 435q74 80 182 141q5 4 15.5 9t12.5 6q14 8 28 14q4 2 11.5 5.5t11.5 5.5q29 14 68 28q9 3 26.5 9.5t26.5 9.5q18 6 26 9q11 4 22 5q6 2 20 5.5t20 5.5q3 0 9.5 1.5t9.5 2.5l-1 -5q54 10 95 14q46 4 68 6h12q17 0 56 -1q9 0 17.5 -0.5 t14 -1t9.5 -1t7 -0.5h2h4q127 -9 236 -58q105 -47 178 -122q71 -72 123 -172q50 -95 76 -206t32 -222q2 -43 3 -83q0 -74 -8 -141q-13 -116 -38 -210q-51 -177 -148 -311q-30 -42 -57 -72q-21 -23 -74 -71q-42 -38 -112 -76q-64 -35 -151 -66q-60 -22 -107 -34 q-16 -4 -24 -5q-123 -24 -223 -24q-41 0 -78 4q-118 13 -223 63q-99 47 -169 119q-68 69 -120 163q-49 88 -77 192q-25 92 -36 210q-7 73 -7 141q0 37 2 73zM309 946q-1 -22 -1 -45q0 -76 10 -165q11 -98 40 -204q26 -94 76 -187q47 -86 111 -155q63 -67 153 -113 q89 -45 193 -57q27 -3 56 -3q51 0 106 10q72 42 156 167q86 129 124 264q28 104 36 204q4 54 4.5 108.5t-4.5 109.5q-9 110 -36 216t-75 199q-46 89 -114 165q-66 74 -156 118q-94 46 -199 55q-50 1 -85 1q-58 0 -75 -3h-5q-1 0 -3 -2h-4h-1h-2v-2h-2v-1h-2v-1h-1 q-3 0 -4 -1v-2q-81 -46 -163 -182q-83 -138 -110 -292q-19 -103 -23 -202z" />
<glyph unicode="p" horiz-adv-x="2003" d="M15 -908q37 21 109 65q96 57 108 66q29 0 53 -1q36 -2 53 0q61 72 63 265q0 43 -6 187q-4 96 -4 163q0 48 2 82q6 100 30 187q1 1 1 3t1 3v1q17 8 50 23q17 8 42.5 18.5t33.5 14.5l75 35l-223 -74v1196q0 16 40 43l-64 -22q-2 55 -9 84q-10 42 -20 61q-12 25 -36 40 q-23 15 -45 25q-18 8 -58 13q-20 2 -63 5q-16 1 -75 1h-9q6 4 24.5 14.5t30.5 18.5q40 25 54 32l-11 -10q11 7 55 33q39 22 53 33q39 0 89 -2q31 -1 80 -8q47 -6 74 -16q28 -10 59 -30t48 -46q18 -27 30 -68q10 -35 11 -72q6 4 20 12q30 19 125 76q68 40 163 88q5 2 13.5 6 t16 7t14.5 6l19 8q3 1 9.5 4t9.5 5q38 16 88 29q31 10 71 19q102 19 162 19h6q67 -2 134 -21q105 -30 191 -94q81 -61 135 -144q50 -77 85 -182q34 -101 44 -204q8 -72 8 -146q0 -33 -2 -67q-5 -114 -23 -207q-20 -101 -49 -187q-39 -114 -85 -194q-44 -77 -131 -153 q-103 -90 -228 -146q-41 -19 -93 -37q-61 -22 -130 -37q-66 -14 -113 -20q-25 -3 -53 -3q-23 0 -48 2q-70 6 -87 9q-41 7 -82 20q-48 15 -72 24q-7 3 -17 7t-26 10.5t-27 10.5q-18 8 -31 12q-2 -35 -2 -77q0 -63 4 -140q6 -141 6 -188q0 -80 -10 -143q0 -1 -2 -13 q-1 -6 -2.5 -13.5t-3 -12t-1.5 -8.5q-1 -12 -9 -33q-6 -18 -10 -25l33 13q29 -25 66 -53q29 -22 65 -36t61 -21t68 -10q56 -4 70 -4h82l-108 -66l-1 -1h-1l-1 -1h-1l-1 -1l-1 -1h-1l-1 -1l-1 -1h-1l-1 -1h-2l-1 -1l-1 -1h-1l-1 -1h-1l-1 -1l-1 -1h-1l-2 -1l-85 -52 q-87 0 -135 4q-54 4 -117 18q-64 14 -117 43q-8 4 -21 13t-17 11q-5 -3 -17 -9q-58 -28 -120 -48q-60 -18 -120 -28q-51 -8 -87 -8q-16 0 -66 2q-10 0 -20.5 0.5t-16 1t-8.5 0.5zM617 196h2q2 0 6 1t9 2q20 5 34 8l18 4l-1 -1q2 0 5 -0.5t5 -1.5q442 -184 606 -184 q25 0 44 4q35 16 84 60q110 98 182 305q30 89 46 182q17 101 20 203q1 21 1 42q0 83 -10 165q-12 105 -43 199q-30 92 -81 176q-48 79 -124 140q-77 62 -171 88q-35 9 -68 12q-28 2 -42 2h-8q-4 0 -12.5 -0.5t-11.5 -1.5h-2v-1q-1 0 -3 -2q-11 -4 -72 -44q-54 -35 -149 -90 q-90 -52 -197 -96v-1149z" />
<glyph unicode="q" horiz-adv-x="1998" d="M20 686q0 80 4 137q5 66 15 139q11 74 30 138q22 71 49 133q30 67 72 126q45 63 100 115q61 60 129 102q4 2 12 7t12 7q3 2 9 5.5t9 5.5t6 3.5t6.5 3t5.5 2.5q20 13 23 14q6 3 18 7q3 1 7.5 3.5t8 4t6.5 3.5q27 10 51 20q32 12 48 17l22 9q11 4 20 5q9 4 25 7q11 4 21 5 q8 2 23 5.5t17 3.5q84 17 165 20l-1 -6q163 0 244 -18q46 -12 113 -38q53 -21 126 -58q68 -35 116 -77q51 -45 68 -89q26 -63 29 -146q1 -25 1 -51q0 -70 -6 -144q-9 -111 -9 -149v-1106q0 -40 6 -124q9 -124 10 -148q1 -16 1 -32q0 -50 -7 -108q-9 -77 -34 -127 q-4 -8 -10 -17l31 12q47 -41 88 -67q42 -26 86 -38q55 -15 87 -17q42 -3 104 -3q-8 -5 -108 -66q-100 -60 -108 -65q-149 0 -242 29q-67 21 -123 60q-28 -14 -73 -29q-62 -23 -113 -36q-61 -15 -100 -19q-24 -2 -75 -5h-30.5h-36.5q-26 1 -48 1q6 3 23 13.5t29 17.5 q34 20 57 34q4 3 40 25t67 41q114 0 137 2q15 17 31 48q26 50 32 142q2 36 2 77q0 63 -5 140q-8 113 -8 163v376q-81 -55 -119 -76q-49 -29 -116 -58q-157 -67 -296 -89q-82 -13 -152 -13q-51 0 -96 7q-110 17 -189 63q-90 52 -159 136q-69 85 -106 180q-39 102 -55 197 q-17 102 -17 207zM309 785q0 -102 18 -201q18 -100 55 -193t102 -173q66 -81 150 -130q57 -32 123 -46q54 -12 98 -12q9 0 18 1q43 3 82 10q29 6 46 13q2 1 11 5t14 7l7 6q7 5 18 13t23 17q38 27 105 67q59 35 148 70l-2 628q0 50 8 149q7 83 7 150q0 22 -1 43 q-3 84 -25 138q-17 39 -65 80t-108 72q-61 32 -117 55q-47 19 -102 34q-67 14 -200 14q-47 -2 -68 -6q-1 0 -1 -1h-1q-4 0 -5 -1h-2h-1v-2h-1h-1h-1h-1h-2v-2h-2h-2h-1v-2q-1 0 -2 -1h-1l-4 -2q-85 -49 -159 -178q-75 -130 -116 -293q-42 -166 -42 -329z" />
<glyph unicode="r" horiz-adv-x="1341" d="M18 -63l216 131q67 0 113 2q14 15 23 30q18 27 27 73q7 36 9 82v20q0 27 -1 80l-2 86v860q-7 27 -17 94q-10 71 -29 102q-15 26 -27 38q-14 14 -36 24q-17 8 -38 13q-18 4 -45 6q-18 1 -46 1q-30 0 -51 -1q-42 -2 -52 -2q14 8 109 65q21 13 57 35t50 31q22 0 47 1 q18 0 32.5 0.5t25.5 -0.5q22 -2 58 -3q37 -1 63 -9q22 -7 55 -18q31 -11 53 -30q23 -20 36 -43q1 -3 3.5 -8.5t4.5 -8.5q3 -6 7 -20q1 -2 3 -9t3 -10q0 -2 1.5 -9t2.5 -12q2 -16 2 -19q0 -2 0.5 -4.5t1 -7.5t0.5 -9q1 -11 4 -20q366 193 640 195q-17 -8 -53 -32 q-12 -8 -29.5 -19t-23.5 -15q-5 -1 -15 -8l-6 -1q-3 -2 -29 -18q-7 -4 -19.5 -11.5t-16.5 -9.5q-15 -9 -27 -18q-64 0 -108 -11q-47 -12 -74 -28t-118 -64q-59 -30 -113 -56v-833q0 -31 4 -86q5 -68 5 -99q0 -38 -12 -90q-9 -45 -31 -83l30 13q38 -33 66 -53q30 -22 67 -36 q45 -17 61 -22q25 -7 69 -10q11 -1 69 -4q18 -1 83 -1h19l-216 -131q-57 0 -113 2q-54 2 -101 8q-59 8 -101 21q-38 12 -91 42q-2 1 -11 6.5t-14 8.5q-23 -11 -79 -33q-78 -28 -105 -34q-53 -13 -94 -17q-20 -2 -68 -5q-12 -1 -28 -1t-36 1q-26 1 -44 1z" />
<glyph unicode="s" horiz-adv-x="1393" d="M20 456l294 93q12 -272 131 -386q42 -42 99 -72t111 -45q58 -16 106 -23q47 -6 81 -6h9q40 2 60 7q20 13 28 20q11 9 41 41q23 24 47 65q23 39 37 84q22 78 24 151q1 178 -214 299q-44 25 -101 48q-63 25 -118 44q-53 18 -121 45q-73 29 -119 50q-54 25 -106 63t-85 80 q-34 43 -52 105q-16 55 -16 109q0 11 1 23q6 63 20 117q13 50 44 101q29 48 84 95q52 44 131 84q46 24 100 46q85 33 163 49q9 2 29 6q81 15 160 15q56 0 111 -8q229 -35 317 -144q11 -13 21 -32q11 -22 15 -32q5 -13 10 -39q1 -6 2.5 -14t3 -13.5t1.5 -8.5q3 -26 4 -39 l2 -36v-39v-32q-36 -12 -84 -28.5t-60 -20.5q-42 -14 -74 -25q-26 -9 -71 -23v15q-2 43 -3 69q-2 31 -7 66q-6 44 -17 70q-13 32 -29 52q-79 99 -277 127q-46 6 -85.5 6t-73.5 -6q-2 -1 -6 -1h-2q-18 -9 -39 -33q-20 -23 -43 -58q-22 -35 -39 -84q-16 -49 -21 -103 q-1 -13 -1 -25q0 -53 14 -100q16 -53 49 -96q29 -37 80 -74q43 -31 100 -57q50 -23 116 -48q40 -15 119 -43q78 -27 118 -45q66 -29 106 -53q228 -127 228 -319q0 -70 -25 -162q-19 -63 -42 -103q-28 -48 -71 -94t-116 -91q-70 -43 -167 -81q-48 -18 -73 -25 q-157 -49 -293 -49q-252 0 -428 168q-124 121 -138 403z" />
<glyph unicode="t" horiz-adv-x="1209" d="M20 1572q53 33 109 66l-5 -3q71 45 108 65q73 0 113 -4q25 -1 58 -8q1 5 4 29t5 37q21 135 55 278q6 2 30 9t42 13q12 4 28.5 9t27 8t18.5 6q56 18 72 23l72 24q-32 -128 -55 -277q-13 -84 -21 -146h503q-64 -39 -108 -65q-95 -56 -108 -65h-301q-9 -109 -15 -263 q-6 -165 -6 -261v-282v-100q0 -38 -1 -68v-72q0 -40 1 -69q2 -50 4 -73q1 -15 10 -68q5 -34 19 -66q20 -47 27 -60q19 -35 39 -56q25 -26 52 -45q32 -22 57 -31q32 -12 52 -13q30 -2 57 3t59 12q5 1 72 19q49 13 85 20l-113 -116q-2 0 -11 -3t-22.5 -6t-29.5 -7 q-74 -17 -91 -21q-33 -8 -99 -16q-57 -7 -110 -7q-47 0 -98 12q-53 12 -86 37q-35 26 -62 59q-32 39 -45 65q-17 34 -29 76q-7 25 -16 76q-7 38 -8 83q-2 74 -2 80q1 11 1.5 39.5t0.5 42.5q1 34 1 77v103q0 215 1 279q3 170 6 263q6 158 15 270q-7 -3 -20.5 -8.5t-20.5 -8.5 q-30 28 -51 44q-24 18 -51 30q-28 13 -46 18q-25 8 -52 9q-33 2 -54 3q-14 1 -67 1z" />
<glyph unicode="u" horiz-adv-x="2250" d="M14 1574q11 7 55 33q48 28 54 32q18 12 54 33t54 33q25 0 55 1t70 1q29 0 68 -4q44 -5 72 -13q33 -10 62 -25q31 -16 54 -41t36 -53q13 -30 18 -67q4 -32 4 -63q0 -13 -2 -69t-2 -61q0 -133 -1 -235v-280q0 -90 2 -236q3 -88 27 -172q23 -79 67 -152q41 -67 110 -114 q63 -43 145 -49q16 -1 43 -1q24 0 34 1q18 2 29 5q20 6 29 9q16 5 30 13q6 3 17.5 9t16.5 9l40 25q23 14 49 29l60 35q48 28 76 42q19 11 53 25q40 18 70 28l1 2q13 26 16 73q2 28 2 56.5t-2 56.5q-4 60 -4 87v665q0 26 1 55q1 43 0 63q-3 37 -5 53q-4 33 -15 57 q-10 24 -29 44q-22 22 -43 34q-25 14 -44 20q-25 8 -50 9q-40 2 -53 2q-34 0 -60 -1q-52 -2 -62 -2l108 65l108 66q25 0 55 1h26.5h26h17.5q29 0 68 -4q46 -5 72 -13q30 -9 61 -25q35 -17 56 -40q21 -22 33 -50t17 -63q3 -20 5 -58q0 -12 0.5 -28.5t-0.5 -36.5 q-1 -28 -1 -56v-665q0 -16 6 -82q3 -35 3 -67q0 -26 -2 -50q-4 -49 -23 -89q-26 -51 -127 -104q-37 -19 -92 -40q83 27 90 29l-14 -1q135 45 145 49q1 -48 14 -87q12 -37 30 -64q17 -25 46 -45q28 -20 57 -30q21 -8 68 -15q34 -5 72 -7q22 -1 76 -1l-216 -131q-51 0 -93 3 q-37 3 -87 11q-45 8 -81 20q-32 11 -68 34q-31 20 -55 50q-23 29 -36 70q-14 46 -15 88q-9 -5 -55 -31q-82 -46 -94 -53q-52 -28 -106 -55q-65 -32 -125 -55q-55 -21 -130 -43q-66 -20 -141 -29q-43 -5 -85 -5q-28 0 -54 2q-92 6 -161 40q-70 34 -115 84q-44 48 -73 119 t-41 135q-14 75 -15 142q-2 74 -2 237q0 76 2 280t2 237q0 31 1 61q2 60 2 69q0 21 -5 59q-5 39 -15 61q-14 31 -30 47q-21 21 -44 34q-27 15 -43 20q-25 8 -51 9q-40 2 -52 2q-34 0 -60 -1q-52 -2 -62 -2z" />
<glyph unicode="v" horiz-adv-x="2132" d="M20 1572l262 125l349 -102h2l282 87l-23 -94l-224 -70l119 -371l348 -905l7 18q6 17 22 60t34 90q76 199 129 344q49 133 98 320.5t100 311.5q4 9 18.5 62t23.5 65l-15 -7l-289 66l259 126q43 -10 128 -30t122 -29q52 20 70 25q58 17 102 23q66 8 76 9q40 2 62 2h32 q-13 -9 -53 -33q-17 -11 -48 -31q-81 -52 -101 -65q-73 -4 -77 -4q-25 -135 -60 -260t-61.5 -202t-96.5 -266q-69 -188 -130 -343q-14 -42 -25 -72q-22 -60 -26 -72q-7 -20 -26 -64q-18 -40 -34 -66q-22 -35 -43 -62q-25 -33 -60 -63q-31 -27 -79 -60q-22 -16 -34 -24 q-34 -21 -87 -40q-57 -20 -105 -25q-11 -1 -19 -1q-29 0 -34 13l-416 1084l-142 431z" />
<glyph unicode="w" horiz-adv-x="3088" d="M20 1573q1 1 109 65q94 56 109 65q229 -1 344 -80q25 11 67 27q86 31 155 42q67 10 139 11q-2 -4 -16 -11q-17 -8 -19 -12q-3 -5 -17 -11t-19 -11q-3 -3 -17 -10q-10 -5 -17 -12q-2 -1 -17 -10q-6 -3 -91 -55q-21 0 -49 -2q-3 -2 -12 -9.5t-15 -11.5q30 -48 47 -112 q13 -47 34 -156q17 -89 28 -123l173 -672q3 -9 10 -35t12 -43q5 -18 13.5 -50t12.5 -45q4 -12 8 -25.5t9 -29t8 -23.5q12 37 41 133q19 64 42 157q9 36 23 132t18 116q18 83 46 174q33 106 61 175q30 75 83 157q50 78 114 139q30 25 32 26q41 33 109 57q54 19 105 26 q47 6 54 -10l187 -467l249 -791q7 21 23 80q14 51 26 100q11 44 23 87q2 8 12 56.5t25.5 114.5t32.5 118q62 186 83 272q7 31 17 103q6 44 20 134q9 58 42 127q15 35 40 66l-11 -5l-332 66l253 127l287 -57q78 31 175 47q68 10 180 13l-212 -133q-71 -2 -72 -2 q-24 -40 -44 -114q-17 -64 -35 -164q-19 -104 -23 -119q-22 -87 -83 -275q-58 -178 -69 -213q-3 -11 -10.5 -77.5t-11.5 -85.5q-12 -54 -21 -90q-13 -52 -23 -84q-16 -52 -33 -87q-19 -39 -43 -79q-26 -44 -61 -81q-33 -36 -82 -75q-29 -21 -36 -26q-37 -27 -98 -48 q-58 -20 -106 -25q-45 -5 -51 12l-323 1004l-104 259q-40 -91 -73 -214q-30 -110 -64 -253q-10 -42 -28.5 -148.5t-26.5 -131.5q-7 -20 -18 -62q-15 -56 -16 -59q-6 -20 -18 -54q-10 -30 -23 -55q-5 -10 -27 -50q-11 -19 -38 -53q-20 -24 -48 -51q-31 -29 -63 -53 q-6 -4 -26 -19q-39 -27 -99 -48q-62 -22 -106 -26h-8q-12 0 -25 2q-16 3 -17 9q-21 33 -43 80q-20 43 -36 94q-6 17 -15.5 46t-12.5 40q-19 61 -28 97q-5 20 -13 49.5t-10 37.5l-174 672q-7 24 -27 125q-20 100 -35 153q-21 73 -47 114q-81 124 -343 127z" />
<glyph unicode="x" horiz-adv-x="2028" d="M21 1618q26 15 110 66q21 13 57.5 34.5t51.5 30.5q280 -2 410 -99q16 8 36 15q28 12 54.5 23t42 17t19.5 8q18 -15 21 -17q13 -12 18 -14q9 -6 17 -13q13 -12 20 -17q-2 -1 -147 -62q-3 -1 -8.5 -3t-8.5 -3l1 -2l1 -2q53 -76 131 -211q80 -138 128 -207q14 -23 48 -74 q5 8 19 32t23 39q31 53 42 67q23 32 48 83q35 71 50 100q24 45 68 101q16 21 42 47l-8 -3q-56 13 -121 31q-22 6 -65 18t-58 16q1 0 48 22.5t81 39.5q25 12 69.5 34.5t59.5 29.5q10 -3 209 -57q108 42 226 54q56 7 163 7l-216 -132q-83 0 -120 -3q-35 -35 -104 -159 q-64 -116 -93 -158q-6 -7 -22 -41q-15 -32 -33 -66q-17 -32 -45 -73q-24 -35 -73 -79q-41 -36 -96 -67q5 -43 28 -90q26 -50 58 -92q38 -49 75 -95q41 -50 64 -86q6 -10 57 -83q43 -62 66 -97q32 -48 49 -87q8 -18 21 -61q12 -39 24 -69q12 -29 31 -47q26 -24 57 -43 q27 -16 69 -28q40 -11 69 -17q33 -7 79 -8l72 -3q16 -1 74 -1l-216 -130q-72 0 -97 1q-31 1 -102 8q-69 7 -108 17q-53 14 -96 35q-22 12 -32 18q-44 -20 -68 -28q-72 -25 -135 -37q-68 -13 -161 -13l216 131q35 0 49 1q6 5 20 17q-2 3 -11 21q-14 30 -25 72q-11 40 -20 60 q-15 33 -47 84q-26 41 -65 98q-47 67 -56 82q-13 20 -64 85q-10 13 -28.5 36.5t-26.5 32.5q-4 -5 -11.5 -15t-11.5 -16q-84 -118 -191 -295q-3 -6 -9 -15q-29 -48 -30 -51q-16 -29 -24 -51q-12 -33 -11 -57q2 -27 15 -46q13 -20 27 -28t36 -13q19 -4 36 -4q25 0 46 1t48 1 l-220 -135h-2h-4.5h-6.5h-9.5h-11.5q-16 0 -27.5 -0.5t-19.5 0.5q-4 0 -20.5 1.5t-28.5 2.5q-29 3 -53 10q-15 5 -42 19q-18 10 -28 21l-8 -6l-354 -45l164 127l173 22l3 12q8 30 9 34t17 36q9 19 17 29q1 2 3.5 6t7 11.5t8.5 13.5q15 24 16 24q104 173 197 303 q90 126 201 240l10 2q-19 44 -22 87q5 1 24.5 7.5l34.5 11.5q-14 -1 -37 1q-31 5 -54 16q-24 12 -40 31q-23 27 -27 34q-9 15 -21 39q-14 29 -17 32q-54 80 -130 210q-86 146 -129 209q-97 144 -409 146z" />
<glyph unicode="y" horiz-adv-x="2135" d="M20 1571q25 17 56 34q34 19 55 33q23 15 108 65q252 -2 382 -86q50 22 77 32q75 26 134 37q75 14 97 15q44 2 84 2q-49 -31 -107 -65l-8 -5q-1 -1 -6 -4t-15.5 -9t-21.5 -13q-12 -7 -32 -19t-26 -16q-32 0 -70 -4q-13 -9 -30 -21h-1q23 -33 40 -83q24 -66 42 -147 q18 -80 31 -114q39 -102 100 -294q59 -185 114 -345q51 -146 118 -286q21 48 38 92q16 42 42 124q22 70 35 106q30 90 104 279q70 180 95 252q14 34 25 95q12 67 24 116q12 52 43 112t83 103q11 9 44 32q0 1 2 1t3 1q-28 -16 -60 -32l-62 -31l-310 44q10 6 62 34t61 32l1 -3 q13 8 61 32q45 22 62 33q59 -8 167 -24t143 -20q-8 -4 -62 -32q37 17 84 34q51 17 85 26q24 6 74 12q42 5 59 5h44h26l-209 -131q-34 0 -52 -2q-25 -39 -44 -100q-26 -85 -39 -140q-19 -80 -31 -115q-24 -69 -96 -253q-69 -177 -103 -278q-17 -50 -29 -89q-22 -74 -28 -92 q-19 -57 -30 -84q-20 -50 -39 -86t-47 -80q-26 -40 -65 -81q-33 -36 -77 -72q-1 -441 -158 -707q-17 -30 -36 -56q-21 -29 -44 -53q-27 -29 -75 -59q-49 -31 -106 -56q-24 -11 -55 -21q-76 -27 -137 -39q-45 -9 -79 -9q-16 0 -29 2q-53 7 -75 14q-32 10 -63 25l273 122 q47 -22 80 -27q34 34 61 82q152 259 152 697q-66 105 -130 256q-65 152 -101 268q-14 47 -47.5 152t-43.5 136q-49 154 -92 271q-14 36 -33 117q-18 73 -41 145q-21 64 -51 97q-110 115 -375 116z" />
<glyph unicode="z" horiz-adv-x="1680" d="M23 1218q5 24 7 76q1 18 3 48t2 41q1 37 17 87q15 49 43 84q28 36 87 72q44 27 96 47q103 43 217 61q96 15 161 15h21q71 -3 141 -12q63 -8 78 -8q13 0 50 3q24 2 76 4q25 1 87 1q47 0 92 -8q33 -6 80 -21q37 -12 61 -39q23 -26 26 -65v-10q0 -37 -19 -80 q-22 -48 -50 -87q-28 -38 -64 -82q-32 -38 -49 -64q-115 -162 -273 -388q-117 -167 -258 -366q-2 -2 -18.5 -24.5t-30.5 -39.5q-28 -34 -59 -76q-30 -40 -51 -74q-28 -44 -36 -78q-4 -18 -4 -35q0 -18 5 -33q9 -31 29 -53q18 -20 47 -31q30 -12 57 -17q25 -5 69 -5q8 0 71 3 q6 0 32.5 1.5t42.5 2.5q56 2 70 2q123 0 158 1q114 3 134 4q82 3 142 12q1 1 2 1q17 28 27 69q10 43 15 77q3 20 10 91q2 22 5.5 46.5t3.5 29.5l289 94q0 -2 -8 -83q-7 -77 -11 -100q-7 -46 -24 -91q-20 -54 -49 -89q-49 -58 -155 -104q-61 -26 -140 -44q-36 -8 -127 -21 q-50 -8 -75 -10q-72 -6 -78 -6q-16 -1 -41 -2.5t-27 -1.5q-36 -2 -73 -2h-65h-70h-64q-2 0 -56 -2q-14 -1 -39.5 -2.5t-37.5 -1.5q-18 0 -39.5 -0.5t-45.5 0.5q-48 1 -90 9q-40 7 -80 21q-41 14 -67 40t-38 61q-6 19 -6 39.5t6 43.5q13 48 40 91t56 83q8 11 63 78 q38 45 47 57q81 114 258 366q150 214 274 386q17 25 52 70q11 14 32 40.5t29 37.5q23 31 43 73q17 36 17 69v7q-3 29 -20 51q-18 23 -42 32t-57 16q-30 6 -70 6q-6 0 -72 -3q-9 0 -33.5 -1.5t-39.5 -2.5q-54 -2 -64 -2q-35 0 -149 6q-87 5 -135 5q-21 0 -34 -1 q-20 -30 -27 -81t-12 -117q-5 -71 -10 -98q-66 -22 -146 -47l2 -7q-99 -31 -144 -45z" />
<glyph unicode="{" horiz-adv-x="40" />
<glyph unicode="|" horiz-adv-x="362" d="M21 827q0 240 6 492q1 63 4.5 221t5.5 233q9 291 11 347q5 121 5 155v2v1q1 0 16 5t52 17t78 26l145 49v-2q-16 -2217 -2 -2320l-144 -53l-108 -69q-26 0 -43 125q-15 110 -21 328q-5 169 -5 443z" />
<glyph unicode="}" horiz-adv-x="330" d="M20 25l290 97v-74l-290 -96v73z" />
<glyph unicode="&#xab;" horiz-adv-x="728" d="M20 612v5l67 355l290 92l-67 -351l76 -354l-290 -103zM344 612v5l66 355l291 92l-67 -351l76 -354l-291 -103z" />
<glyph unicode="&#xad;" d="M20 352l217 131h589l-216 -131h-590z" />
<glyph unicode="&#xb6;" horiz-adv-x="2032" d="M19 1695q-6 114 35 229q43 120 129 216q114 128 307 210q30 14 60 24q4 2 19 7q6 2 25.5 9t30.5 10q37 10 99 25q162 36 379 36q65 0 85 -1q65 -3 77 -4q52 -3 80 -10q27 -6 71 -20q37 -11 74 -34l2 -1l2 -1q31 16 64 27q61 22 110 34q39 10 89 19q51 9 83 10q52 2 63 2 h61h48q-6 -4 -54 -34q-36 -22 -53 -31l-5 2q-6 -4 -24.5 -14.5t-30.5 -18.5q-50 -31 -53 -33q-142 0 -180 -5q-16 -16 -23 -27q-24 -36 -33 -104q-9 -71 -8 -127q1 -59 6 -145q5 -95 5 -121v-1174q0 -23 -5 -110q-2 -42 -5 -132q-2 -53 9 -116q10 -63 35 -101q18 -27 40 -46 q26 -23 43 -33q23 -14 49 -22q36 -11 51 -14q21 -4 57 -6q48 -2 56 -2q34 0 62 1t59 1l-216 -131h-34h-68q-10 0 -70 2q-48 2 -74 7q-39 8 -68 16q-43 11 -67 25q-28 16 -56 39l-6 6q-36 -17 -73 -32q-57 -21 -124 -38q-54 -14 -114 -20q-47 -5 -87 -7q-31 -1 -87 0 q-15 0 -31.5 0.5t-25 1t-12.5 0.5l216 131q176 0 227 8q25 16 46 37l4 1q-14 31 -22 75q-12 68 -11 120q2 86 6 133q6 78 6 110v469q-11 -1 -25.5 -3t-35.5 -4.5t-35 -4.5q-63 -8 -149 -17q-44 -4 -141 -8q-85 -3 -158 4q-77 8 -149 27q-115 30 -216 97q-100 66 -175 158 q-71 87 -116 200q-44 111 -50 223zM316 1798q8 -108 49 -213q41 -103 110 -194q68 -89 161 -154q95 -66 197 -93q57 -15 126 -23q55 -7 129 -5q62 1 116 8q3 0 26 2.5t38 4.5v597q0 20 -7 118q-6 84 -9 144q-3 56 10 136q12 72 41 116l-32 -12q-33 28 -57 44q-27 18 -57 30 q-31 12 -52 18q-25 7 -60 8q-11 0 -22 1t-21.5 2t-15.5 1q-22 1 -70 0h-34q-102 0 -174 -8q-88 -10 -120 -20q-2 0 -4.5 -1t-3.5 -2l-2 -1h-2l-2 -1q-2 -1 -2 -2q-2 -1 -6.5 -3l-9 -4t-8.5 -5q-17 -10 -43 -32q-30 -25 -55 -53q-75 -84 -108 -191q-33 -108 -26 -213z" />
<glyph unicode="&#xb7;" horiz-adv-x="305" d="M20 754l217 131h49l-216 -131h-50z" />
<glyph unicode="&#xbb;" horiz-adv-x="728" d="M20 262l75 353l-65 352l289 102l67 -354v-7l-76 -356zM344 262l75 353l-66 352l290 102l67 -354v-7l-76 -356z" />
<glyph unicode="&#xc0;" horiz-adv-x="2627" d="M20 -61l130 121l142 26l84 225l251 664q2 0 7.5 2.5t9.5 3.5q-10 24 -11 51q-1 35 11 77q10 32 24 72q5 13 16 40t14 33q16 39 23 55l177 531q12 36 20 64q7 23 20 66q8 27 25 60q17 34 38 63q18 25 57 59q42 36 83 61l15 9q2 1 7.5 4t8.5 5q-3 9 -7 23.5t-6 19.5 q11 5 69 25q17 6 42 15t34 12l-1 -8q15 6 68 24q15 5 40.5 14.5t35.5 12.5q25 -100 102 -279q76 -178 94 -229q55 -151 111 -312q5 -15 132 -393q29 -87 64 -190t42 -123q2 -6 19.5 -55t30.5 -84q37 -99 59 -164q26 -76 42 -142q3 -11 14 -75q10 -60 20 -90q12 -37 32 -61 q26 -31 65 -55q35 -21 74 -34q32 -11 88 -17q32 -4 84 -6q22 -1 85 -1l-216 -131q-39 0 -95 2q-41 1 -101 9q-57 7 -103 21q-43 13 -90 41q-19 10 -30 19q-37 -18 -84 -35q-40 -15 -68 -23q-31 -9 -65 -15q-10 -2 -19.5 -3.5t-19 -2.5t-13.5 -2q-24 -4 -52 -5q-41 -2 -42 -2 q-6 -1 -44 -1h-36l216 132q81 0 114 4q20 15 43 37q-2 5 -5.5 15t-5.5 14q-12 40 -21 94q-10 63 -13 74q-20 75 -43 140q-42 122 -58 164q-18 49 -51 139l-76 228q-1 0 -3 -1t-3 -1q-109 -43 -227 -61t-186 -17q-87 2 -161 8q-96 8 -118 8h-5q-4 -1 -14 -1.5t-21 -0.5 q-12 -1 -34 -1l-192 -509l-104 -282l27 15l355 -67l-252 -127l-342 64h-2zM924 1112q2 -27 10 -43q11 -17 27 -28q14 -10 38 -13q23 -3 40 -3q7 0 51 2t53 2q26 0 158 -4q99 -3 164 -3q68 0 100 7q15 12 27 22l3 1q-94 282 -131 389q-62 178 -111 313q-26 70 -93 228 q-4 10 -13 30.5t-13 31.5l-2 -2q-25 -59 -48 -128l-176 -531l-19 -47q-4 -11 -12.5 -30t-11.5 -26q-11 -27 -21 -58q-9 -28 -16 -58q-6 -24 -4 -52zM1012 2765q5 3 26.5 13t46.5 23t53 27l-2 -2q14 8 64 33t63 31q65 -11 199 -36q123 -23 155 -30q-7 -3 -27.5 -14t-33.5 -17 l-64 -32q-8 -4 -59 -29q-17 -8 -39.5 -20t-26.5 -14z" />
<glyph unicode="&#xc1;" horiz-adv-x="2627" d="M20 -61l130 121l142 26l84 225l251 664q2 0 7.5 2.5t9.5 3.5q-10 24 -11 51q-1 35 11 77q10 32 24 72q5 13 16 40t14 33q16 39 23 55l177 531q12 36 20 64q7 23 20 66q8 27 25 60q17 34 38 63q18 25 57 59q42 36 83 61l15 9q2 1 7.5 4t8.5 5q-3 9 -7 23.5t-6 19.5 q11 5 69 25q17 6 42 15t34 12l-1 -8q15 6 68 24q15 5 40.5 14.5t35.5 12.5q25 -100 102 -279q76 -178 94 -229q55 -151 111 -312q5 -15 132 -393q29 -87 64 -190t42 -123q2 -6 19.5 -55t30.5 -84q37 -99 59 -164q26 -76 42 -142q3 -11 14 -75q10 -60 20 -90q12 -37 32 -61 q26 -31 65 -55q35 -21 74 -34q32 -11 88 -17q32 -4 84 -6q22 -1 85 -1l-216 -131q-39 0 -95 2q-41 1 -101 9q-57 7 -103 21q-43 13 -90 41q-19 10 -30 19q-37 -18 -84 -35q-40 -15 -68 -23q-31 -9 -65 -15q-10 -2 -19.5 -3.5t-19 -2.5t-13.5 -2q-24 -4 -52 -5q-41 -2 -42 -2 q-6 -1 -44 -1h-36l216 132q81 0 114 4q20 15 43 37q-2 5 -5.5 15t-5.5 14q-12 40 -21 94q-10 63 -13 74q-20 75 -43 140q-42 122 -58 164q-18 49 -51 139l-76 228q-1 0 -3 -1t-3 -1q-109 -43 -227 -61t-186 -17q-87 2 -161 8q-96 8 -118 8h-5q-4 -1 -14 -1.5t-21 -0.5 q-12 -1 -34 -1l-192 -509l-104 -282l27 15l355 -67l-252 -127l-342 64h-2zM924 1114q2 -27 10 -43q11 -17 27 -28q14 -10 38 -13q23 -3 40 -3q7 0 51 2t53 2q59 0 158 -3q132 -4 164 -4q68 0 100 7q15 11 27 22l3 1q-94 282 -131 389q-62 178 -111 313q-26 70 -93 228 q-3 8 -12.5 30t-13.5 33l-2 -3q-25 -59 -48 -128l-176 -531l-19 -47q-4 -11 -12.5 -30t-11.5 -26q-13 -31 -21 -57t-16 -59q-6 -24 -4 -52zM1046 2655q34 34 63 61h-1q4 3 33 30q7 6 17.5 16.5l14.5 14.5l355 66q-7 -7 -28.5 -27t-35.5 -34q-62 -59 -64 -60z" />
<glyph unicode="&#xc2;" horiz-adv-x="2627" d="M20 -61l130 121l142 26l84 225l251 664q2 0 7.5 2.5t9.5 3.5q-10 24 -11 51q-1 35 11 77q10 32 24 72q5 13 16 40t14 33q16 39 23 55l177 531q12 36 20 64q7 23 20 66q8 27 25 60q17 34 38 63q18 25 57 59q42 36 83 61l15 9q2 1 7.5 4t8.5 5q-3 9 -7 23.5t-6 19.5 q11 5 69 25q17 6 42 15t34 12l-1 -8q15 6 68 24q15 5 40.5 14.5t35.5 12.5q25 -100 102 -279q76 -178 94 -229q55 -151 111 -312q5 -15 132 -393q29 -87 64 -190t42 -123q2 -6 19.5 -55t30.5 -84q37 -99 59 -164q26 -76 42 -142q3 -11 14 -75q10 -60 20 -90q12 -37 32 -61 q26 -31 65 -55q35 -21 74 -34q32 -11 88 -17q32 -4 84 -6q22 -1 85 -1l-216 -131q-39 0 -95 2q-41 1 -101 9q-57 7 -103 21q-43 13 -90 41q-19 10 -30 19q-37 -18 -84 -35q-40 -15 -68 -23q-31 -9 -65 -15q-10 -2 -19.5 -3.5t-19 -2.5t-13.5 -2q-24 -4 -52 -5q-41 -2 -42 -2 q-6 -1 -44 -1h-36l216 132q81 0 114 4q20 15 43 37q-2 5 -5.5 15t-5.5 14q-12 40 -21 94q-10 63 -13 74q-20 75 -43 140q-42 122 -58 164q-18 49 -51 139l-76 228q-1 0 -3 -1t-3 -1q-109 -43 -227 -61t-186 -17q-87 2 -161 8q-96 8 -118 8h-5q-4 -1 -14 -1.5t-21 -0.5 q-12 -1 -34 -1l-192 -509l-104 -282l27 15l355 -67l-252 -127l-342 64h-2zM871 2709l126 119q80 14 171 31q47 9 113 21t71 13q43 9 63 4q12 -3 44.5 -10t67 -14t70.5 -15q38 -8 97 -20.5t78 -16.5q-18 -8 -58 -28q-17 -8 -40 -20t-29 -15q-13 -6 -63 -31q-10 -5 -24.5 -12 t-23.5 -11.5t-16 -8.5q-13 3 -44.5 9.5t-65 14t-67.5 14.5q-42 9 -94 20.5t-63 13.5q-7 -1 -140 -26q-28 -5 -89.5 -16t-83.5 -16zM924 1112q2 -27 10 -43q11 -17 27 -28q14 -10 38 -13q23 -3 40 -3q7 0 51 2t53 2q26 0 158 -4q99 -3 164 -3q68 0 100 7q15 12 27 22l3 1 q-94 282 -131 389q-62 178 -111 313q-26 70 -93 228q-4 10 -13 30.5t-13 31.5l-2 -2q-25 -59 -48 -128l-176 -531l-19 -47q-4 -11 -12.5 -30t-11.5 -26q-11 -27 -21 -58q-9 -28 -16 -58q-6 -24 -4 -52z" />
<glyph unicode="&#xc3;" horiz-adv-x="2627" d="M20 -61l130 121l142 26l84 225l251 664q2 0 7.5 2.5t9.5 3.5q-10 24 -11 51q-1 35 11 77q10 32 24 72q5 13 16 40t14 33q16 39 23 55l177 531q12 36 20 64q7 23 20 66q8 27 25 60q17 34 38 63q18 25 57 59q42 36 83 61l15 9q2 1 7.5 4t8.5 5q-3 9 -7 23.5t-6 19.5 q11 5 69 25q17 6 42 15t34 12l-1 -8q15 6 68 24q15 5 40.5 14.5t35.5 12.5q25 -100 102 -279q76 -178 94 -229q55 -151 111 -312q5 -15 132 -393q29 -87 64 -190t42 -123q2 -6 19.5 -55t30.5 -84q37 -99 59 -164q26 -76 42 -142q3 -11 14 -75q10 -60 20 -90q12 -37 32 -61 q26 -31 65 -55q35 -21 74 -34q32 -11 88 -17q32 -4 84 -6q22 -1 85 -1l-216 -131q-39 0 -95 2q-41 1 -101 9q-57 7 -103 21q-43 13 -90 41q-19 10 -30 19q-37 -18 -84 -35q-40 -15 -68 -23q-31 -9 -65 -15q-10 -2 -19.5 -3.5t-19 -2.5t-13.5 -2q-24 -4 -52 -5q-41 -2 -42 -2 q-6 -1 -44 -1h-36l216 132q81 0 114 4q20 15 43 37q-2 5 -5.5 15t-5.5 14q-12 40 -21 94q-10 63 -13 74q-20 75 -43 140q-42 122 -58 164q-18 49 -51 139l-76 228q-1 0 -3 -1t-3 -1q-109 -43 -227 -61t-186 -17q-87 2 -161 8q-96 8 -118 8h-5q-4 -1 -14 -1.5t-21 -0.5 q-12 -1 -34 -1l-192 -509l-104 -282l27 15l355 -67l-252 -127l-342 64h-2zM925 1114q1 -25 11 -43q11 -17 27 -28q14 -10 37 -13q22 -3 40 -3q7 0 51 2t53 2q59 0 158 -3q132 -4 165 -4q67 0 99 7q15 11 27 22l4 1q-67 202 -132 389q-79 227 -110 313q-20 53 -94 228 q-5 13 -13.5 35t-11.5 28l-2 -3q-25 -59 -48 -128l-177 -531l-19 -47q-2 -5 -23 -56q-13 -31 -21 -57q-12 -38 -17 -59q-6 -24 -4 -52z" />
<glyph unicode="&#xc4;" horiz-adv-x="2627" d="M20 -61l130 121l142 26l84 225l251 664q2 0 7.5 2.5t9.5 3.5q-10 24 -11 51q-1 35 11 77q10 32 24 72q5 13 16 40t14 33q16 39 23 55l177 531q12 36 20 64q7 23 20 66q8 27 25 60q17 34 38 63q18 25 57 59q42 36 83 61l15 9q2 1 7.5 4t8.5 5q-3 9 -7 23.5t-6 19.5 q11 5 69 25q17 6 42 15t34 12l-1 -8q15 6 68 24q15 5 40.5 14.5t35.5 12.5q25 -100 102 -279q76 -178 94 -229q55 -151 111 -312q5 -15 132 -393q29 -87 64 -190t42 -123q2 -6 19.5 -55t30.5 -84q37 -99 59 -164q26 -76 42 -142q3 -11 14 -75q10 -60 20 -90q12 -37 32 -61 q26 -31 65 -55q35 -21 74 -34q32 -11 88 -17q32 -4 84 -6q22 -1 85 -1l-216 -131q-39 0 -95 2q-41 1 -101 9q-57 7 -103 21q-43 13 -90 41q-19 10 -30 19q-37 -18 -84 -35q-40 -15 -68 -23q-31 -9 -65 -15q-10 -2 -19.5 -3.5t-19 -2.5t-13.5 -2q-24 -4 -52 -5q-41 -2 -42 -2 q-6 -1 -44 -1h-36l216 132q81 0 114 4q20 15 43 37q-2 5 -5.5 15t-5.5 14q-12 40 -21 94q-10 63 -13 74q-20 75 -43 140q-42 122 -58 164q-18 49 -51 139l-76 228q-1 0 -3 -1t-3 -1q-109 -43 -227 -61t-186 -17q-87 2 -161 8q-96 8 -118 8h-5q-4 -1 -14 -1.5t-21 -0.5 q-12 -1 -34 -1l-192 -509l-104 -282l27 15l355 -67l-252 -127l-342 64h-2zM924 1114q1 -25 11 -43q11 -17 27 -28q14 -10 37 -13t41 -3q6 0 50 2t53 2q60 0 159 -3q132 -4 164 -4q68 0 100 7q9 7 26 22l4 1q-94 282 -131 389q-62 178 -111 313q-26 70 -93 228q-3 8 -12 30 t-14 33l-2 -3q-25 -59 -48 -128l-177 -531l-19 -47q-2 -5 -23 -56q-13 -31 -21 -57t-16 -59q-6 -27 -5 -52zM1024 2564v189q10 3 145 48h-1q10 5 64 22q20 6 47.5 15.5t34.5 11.5v-88l257 85v-188l-290 -96v87z" />
<glyph unicode="&#xc5;" horiz-adv-x="2627" d="M20 -61l130 121l142 26l84 225l251 664q2 0 7.5 2.5t9.5 3.5q-10 24 -11 51q-1 35 11 77q10 32 24 72q5 13 16 40t14 33q16 39 23 55l177 531q12 36 20 64q7 23 20 66q8 27 25 60q17 34 38 63q18 25 57 59q42 36 83 61l15 9q2 1 7.5 4t8.5 5q-3 9 -7 23.5t-6 19.5 q11 5 69 25q17 6 42 15t34 12l-1 -8q15 6 68 24q15 5 40.5 14.5t35.5 12.5q25 -100 102 -279q76 -178 94 -229q55 -151 111 -312q5 -15 132 -393q29 -87 64 -190t42 -123q2 -6 19.5 -55t30.5 -84q37 -99 59 -164q26 -76 42 -142q3 -11 14 -75q10 -60 20 -90q12 -37 32 -61 q26 -31 65 -55q35 -21 74 -34q32 -11 88 -17q32 -4 84 -6q22 -1 85 -1l-216 -131q-39 0 -95 2q-41 1 -101 9q-57 7 -103 21q-43 13 -90 41q-19 10 -30 19q-37 -18 -84 -35q-40 -15 -68 -23q-31 -9 -65 -15q-10 -2 -19.5 -3.5t-19 -2.5t-13.5 -2q-24 -4 -52 -5q-41 -2 -42 -2 q-6 -1 -44 -1h-36l216 132q81 0 114 4q20 15 43 37q-2 5 -5.5 15t-5.5 14q-12 40 -21 94q-10 63 -13 74q-20 75 -43 140q-42 122 -58 164q-18 49 -51 139l-76 228q-1 0 -3 -1t-3 -1q-109 -43 -227 -61t-186 -17q-87 2 -161 8q-96 8 -118 8h-5q-4 -1 -14 -1.5t-21 -0.5 q-12 -1 -34 -1l-192 -509l-104 -282l27 15l355 -67l-252 -127l-342 64h-2zM925 1114q1 -25 11 -43q11 -17 27 -28q14 -10 37 -13q22 -3 40 -3q7 0 51 2t53 2q59 0 158 -3q132 -4 165 -4q67 0 99 7q15 11 27 22l4 1q-67 202 -132 389q-79 227 -110 313q-20 53 -94 228 q-5 13 -13.5 35t-11.5 28l-2 -3q-25 -59 -48 -128l-177 -531l-19 -47q-2 -5 -23 -56q-13 -31 -21 -57q-12 -38 -17 -59q-6 -24 -4 -52z" />
<glyph unicode="&#xc7;" horiz-adv-x="2257" d="M16 1132q-1 96 5 194q6 87 26 195q21 110 50 195q32 92 83 187q48 89 119 174q66 79 163 155q101 79 210 134q13 6 43 20q14 7 17 8q156 67 312 104q151 36 301 42q144 6 267 -10q122 -16 233 -55q9 -4 45 -17q45 -16 53 -19q30 -13 50 -22q29 -14 51 -29t40 -32 q20 -19 35 -40q19 -29 32 -67q17 -51 21 -73q6 -33 9 -87q4 -72 4 -75q0 -38 1 -73q-5 -2 -21.5 -7.5t-52 -17.5t-70.5 -24l-63 -21q-33 -11 -81 -29q-2 60 -3 94q-1 28 -8 93q-6 54 -20 102q-13 42 -34 75q-15 22 -31 36q-15 13 -36 28q-14 10 -47 25q-11 5 -26 12t-19 9 q-24 11 -50 20q-10 4 -21 8t-17 6l-9 3q-105 36 -218 49q-117 14 -218 6q-109 -8 -182 -23q-83 -17 -129 -37l-4 -1q-2 -1 -6 -3.5t-6 -3.5q-144 -73 -263 -249t-183 -403q-64 -225 -62 -454q1 -122 22 -257q19 -125 65 -255q46 -131 109 -236q64 -108 160 -199 q95 -91 211 -145q105 -49 229 -76q123 -27 229 -30t194 6q87 9 144 32q9 3 28.5 11t26.5 10q35 13 40 15t24 12q15 8 24 17q10 10 22 26q52 59 82 182q31 124 32 238l284 91q-6 -313 -130 -456q-29 -32 -70 -62q-47 -34 -81 -53q-28 -16 -94 -46q-59 -27 -80 -35 q-52 -19 -66 -25q-163 -63 -324 -90q-158 -27 -299 -16q-133 10 -258 42q-114 29 -229 82q-120 54 -222 150q-101 95 -166 204q-66 110 -111 242q-46 133 -65 258q-19 127 -21 261zM780 -437q18 9 59.5 29.5t65.5 33.5q21 11 62.5 32.5t62.5 31.5q75 -14 123 -18 q22 41 28 107l285 90q-1 -22 -3 -32q0 -3 -1.5 -13t-2.5 -17q-3 -20 -6 -29q-1 -3 -4.5 -12.5t-5.5 -14.5q-6 -17 -15 -27q-3 -3 -21 -26q-8 -10 -30 -26q-20 -15 -39 -26q-15 -9 -51 -29q-45 -23 -95 -39q-56 -19 -102 -29t-84 -13q-34 -3 -72 0t-57 6q-8 1 -51 11 q-42 9 -46 10z" />
<glyph unicode="&#xc8;" horiz-adv-x="2174" d="M18 -71l216 131q148 0 180 2q11 11 24 29q22 35 31 95q9 66 8 116q-3 88 -5 132q-4 71 -4 112v1174q0 36 6 120q4 52 6 144q1 59 -9 128q-11 69 -37 109q-19 28 -42 47q-27 22 -47 34q-18 11 -55 21q-27 7 -57 13q-24 4 -64 6q-39 2 -60 3t-62 0h-29q15 10 55 34 q45 27 55 32q51 31 55 34q16 10 53 32h12h61q6 0 15 -0.5t22.5 -1t24.5 -0.5q42 -1 69 -6q6 -1 18.5 -3t24.5 -4t23 -4q36 -6 65 -17q36 -14 58 -25q28 -14 53 -36l4 -4q4 2 11.5 4t10.5 4q106 43 218 66q116 24 210 25q99 1 177 -3q107 -6 159 -11q86 -8 116 -8q64 0 87 -1 q26 -1 91 -8q59 -6 102 -22t74 -42q21 -19 35 -42q15 -23 24 -58q4 -13 14 -60q4 -19 6 -70q0 -11 0.5 -33t1.5 -30q2 -21 0 -64v-51q-25 -7 -46 -15q-4 -2 -53 -17q-32 -10 -45 -16q-7 -3 -23.5 -7.5t-24.5 -7.5l-51 -17q-26 -10 -46 -16v19q0 58 -1 78q0 2 -1.5 32 t-2.5 51q-3 49 -11 87q-9 40 -23 71q-17 37 -37 54q-28 23 -57 34q-38 15 -81 19q-41 4 -72 4h-77q-102 0 -223 5q-146 6 -238 6q-94 0 -137 -12q-5 -3 -14.5 -11t-14.5 -11h-2q15 -32 23 -85q12 -69 10 -132q-1 -52 -8 -146q-6 -84 -6 -118v-515h771l25 219l290 95 l-38 -330l38 -309l-290 -100l-36 294h-760v-529q0 -18 7 -109q7 -89 8 -131q2 -57 -10 -122q-12 -59 -38 -106l30 12q66 -54 158 -87q96 -34 182 -46q98 -13 201 -13q107 0 193 8q39 4 178 21q8 0 112 10q29 41 43 102q17 70 25 155q8 83 16 124l288 85q-6 -30 -9 -82 q-4 -63 -7 -96q-4 -43 -15 -93q-10 -48 -38 -96t-71 -85q-2 -2 -6.5 -5.5t-6.5 -4.5q-43 -33 -89 -55q-27 -13 -70 -29q-40 -15 -68 -23q-42 -12 -62 -17q-30 -7 -57 -12q-28 -5 -50 -6q-9 -1 -23 -2.5t-18 -1.5h-31h-20h-8q-668 -89 -963 79q-23 -11 -79 -33 q-80 -30 -160 -45q-81 -16 -119 -17q-36 -1 -101 2q-40 2 -65 2zM852 2767q1 0 125 63l126 63l354 -66q-21 -11 -63 -32.5t-63 -31.5q-111 -55 -125 -63q-233 44 -354 67z" />
<glyph unicode="&#xc9;" horiz-adv-x="2174" d="M18 -71l216 131q148 0 180 2q11 11 24 29q22 35 31 95q9 66 8 116q-3 88 -5 132q-4 71 -4 112v1174q0 36 6 120q4 52 6 144q1 59 -9 128q-11 69 -37 109q-19 28 -42 47q-27 22 -47 34q-18 11 -55 21q-27 7 -57 13q-24 4 -64 6q-39 2 -60 3t-62 0h-29q15 10 55 34 q45 27 55 32q51 31 55 34q16 10 53 32h12h61q6 0 15 -0.5t22.5 -1t24.5 -0.5q42 -1 69 -6q6 -1 18.5 -3t24.5 -4t23 -4q36 -6 65 -17q36 -14 58 -25q28 -14 53 -36l4 -4q4 2 11.5 4t10.5 4q106 43 218 66q116 24 210 25q99 1 177 -3q107 -6 159 -11q86 -8 116 -8q64 0 87 -1 q26 -1 91 -8q59 -6 102 -22t74 -42q21 -19 35 -42q15 -23 24 -58q4 -13 14 -60q4 -19 6 -70q0 -11 0.5 -33t1.5 -30q2 -21 0 -64v-51q-25 -7 -46 -15q-4 -2 -53 -17q-32 -10 -45 -16q-7 -3 -23.5 -7.5t-24.5 -7.5l-51 -17q-26 -10 -46 -16v19q0 58 -1 78q0 2 -1.5 32 t-2.5 51q-3 49 -11 87q-9 40 -23 71q-17 37 -37 54q-28 23 -57 34q-38 15 -81 19q-41 4 -72 4h-77q-102 0 -223 5q-146 6 -238 6q-94 0 -137 -12q-5 -3 -14.5 -11t-14.5 -11h-2q15 -32 23 -85q12 -69 10 -132q-1 -52 -8 -146q-6 -84 -6 -118v-515h771l25 219l290 95 l-38 -330l38 -309l-290 -100l-36 294h-760v-529q0 -18 7 -109q7 -89 8 -131q2 -57 -10 -122q-12 -59 -38 -106l30 12q66 -54 158 -87q96 -34 182 -46q98 -13 201 -13q107 0 193 8q39 4 178 21q8 0 112 10q29 41 43 102q17 70 25 155q8 83 16 124l288 85q-6 -30 -9 -82 q-4 -63 -7 -96q-4 -43 -15 -93q-10 -48 -38 -96t-71 -85q-2 -2 -6.5 -5.5t-6.5 -4.5q-43 -33 -89 -55q-27 -13 -70 -29q-40 -15 -68 -23q-42 -12 -62 -17q-30 -7 -57 -12q-28 -5 -50 -6q-9 -1 -23 -2.5t-18 -1.5h-31h-20h-8q-668 -89 -963 79q-23 -11 -79 -33 q-80 -30 -160 -45q-81 -16 -119 -17q-36 -1 -101 2q-40 2 -65 2zM972 2657q19 19 34 33q26 25 30 27l1 1q58 56 64 62q44 8 99.5 18.5t130.5 24t124 22.5q-14 -14 -35.5 -34t-28.5 -27q-57 -53 -65 -60z" />
<glyph unicode="&#xca;" horiz-adv-x="2174" d="M18 -71l216 131q148 0 180 2q11 11 24 29q22 35 31 95q9 66 8 116q-3 88 -5 132q-4 71 -4 112v1174q0 36 6 120q4 52 6 144q1 59 -9 128q-11 69 -37 109q-19 28 -42 47q-27 22 -47 34q-18 11 -55 21q-27 7 -57 13q-24 4 -64 6q-39 2 -60 3t-62 0h-29q15 10 55 34 q45 27 55 32q51 31 55 34q16 10 53 32h12h61q6 0 15 -0.5t22.5 -1t24.5 -0.5q42 -1 69 -6q6 -1 18.5 -3t24.5 -4t23 -4q36 -6 65 -17q36 -14 58 -25q28 -14 53 -36l4 -4q4 2 11.5 4t10.5 4q106 43 218 66q116 24 210 25q99 1 177 -3q107 -6 159 -11q86 -8 116 -8q64 0 87 -1 q26 -1 91 -8q59 -6 102 -22t74 -42q21 -19 35 -42q15 -23 24 -58q4 -13 14 -60q4 -19 6 -70q0 -11 0.5 -33t1.5 -30q2 -21 0 -64v-51q-25 -7 -46 -15q-4 -2 -53 -17q-32 -10 -45 -16q-7 -3 -23.5 -7.5t-24.5 -7.5l-51 -17q-26 -10 -46 -16v19q0 58 -1 78q0 2 -1.5 32 t-2.5 51q-3 49 -11 87q-9 40 -23 71q-17 37 -37 54q-28 23 -57 34q-38 15 -81 19q-41 4 -72 4h-77q-102 0 -223 5q-146 6 -238 6q-94 0 -137 -12q-5 -3 -14.5 -11t-14.5 -11h-2q15 -32 23 -85q12 -69 10 -132q-1 -52 -8 -146q-6 -84 -6 -118v-515h771l25 219l290 95 l-38 -330l38 -309l-290 -100l-36 294h-760v-529q0 -18 7 -109q7 -89 8 -131q2 -57 -10 -122q-12 -59 -38 -106l30 12q66 -54 158 -87q96 -34 182 -46q98 -13 201 -13q107 0 193 8q39 4 178 21q8 0 112 10q29 41 43 102q17 70 25 155q8 83 16 124l288 85q-6 -30 -9 -82 q-4 -63 -7 -96q-4 -43 -15 -93q-10 -48 -38 -96t-71 -85q-2 -2 -6.5 -5.5t-6.5 -4.5q-43 -33 -89 -55q-27 -13 -70 -29q-40 -15 -68 -23q-42 -12 -62 -17q-30 -7 -57 -12q-28 -5 -50 -6q-9 -1 -23 -2.5t-18 -1.5h-31h-20h-8q-668 -89 -963 79q-23 -11 -79 -33 q-80 -30 -160 -45q-81 -16 -119 -17q-36 -1 -101 2q-40 2 -65 2zM727 2710l128 123q79 14 170 31q47 9 110 20.5t74 13.5q44 9 64 4q107 -23 180 -39q15 -3 176 -38q-35 -18 -68 -34.5t-46 -22.5l-13 -7l-29 -14.5t-40 -19.5q-11 -6 -25 -13t-21.5 -10.5t-11.5 -5.5 q-112 25 -172 38q-144 31 -162 34q-18 -3 -71 -13.5t-86 -16.5t-86 -16.5t-71 -13.5z" />
<glyph unicode="&#xcb;" horiz-adv-x="2174" d="M18 -71l216 131q148 0 180 2q11 11 24 29q22 35 31 95q9 66 8 116q-3 88 -5 132q-4 71 -4 112v1174q0 36 6 120q4 52 6 144q1 59 -9 128q-11 69 -37 109q-19 28 -42 47q-27 22 -47 34q-18 11 -55 21q-27 7 -57 13q-24 4 -64 6q-39 2 -60 3t-62 0h-29q15 10 55 34 q45 27 55 32q51 31 55 34q16 10 53 32h12h61q6 0 15 -0.5t22.5 -1t24.5 -0.5q42 -1 69 -6q6 -1 18.5 -3t24.5 -4t23 -4q36 -6 65 -17q36 -14 58 -25q28 -14 53 -36l4 -4q4 2 11.5 4t10.5 4q106 43 218 66q116 24 210 25q99 1 177 -3q107 -6 159 -11q86 -8 116 -8q64 0 87 -1 q26 -1 91 -8q59 -6 102 -22t74 -42q21 -19 35 -42q15 -23 24 -58q4 -13 14 -60q4 -19 6 -70q0 -11 0.5 -33t1.5 -30q2 -21 0 -64v-51q-25 -7 -46 -15q-4 -2 -53 -17q-32 -10 -45 -16q-7 -3 -23.5 -7.5t-24.5 -7.5l-51 -17q-26 -10 -46 -16v19q0 58 -1 78q0 2 -1.5 32 t-2.5 51q-3 49 -11 87q-9 40 -23 71q-17 37 -37 54q-28 23 -57 34q-38 15 -81 19q-41 4 -72 4h-77q-102 0 -223 5q-146 6 -238 6q-94 0 -137 -12q-5 -3 -14.5 -11t-14.5 -11h-2q15 -32 23 -85q12 -69 10 -132q-1 -52 -8 -146q-6 -84 -6 -118v-515h771l25 219l290 95 l-38 -330l38 -309l-290 -100l-36 294h-760v-529q0 -18 7 -109q7 -89 8 -131q2 -57 -10 -122q-12 -59 -38 -106l30 12q66 -54 158 -87q96 -34 182 -46q98 -13 201 -13q107 0 193 8q39 4 178 21q8 0 112 10q29 41 43 102q17 70 25 155q8 83 16 124l288 85q-6 -30 -9 -82 q-4 -63 -7 -96q-4 -43 -15 -93q-10 -48 -38 -96t-71 -85q-2 -2 -6.5 -5.5t-6.5 -4.5q-43 -33 -89 -55q-27 -13 -70 -29q-40 -15 -68 -23q-42 -12 -62 -17q-30 -7 -57 -12q-28 -5 -50 -6q-9 -1 -23 -2.5t-18 -1.5h-31h-20h-8q-668 -89 -963 79q-23 -11 -79 -33 q-80 -30 -160 -45q-81 -16 -119 -17q-36 -1 -101 2q-40 2 -65 2zM833 2566v188q5 0 147 48v-1q6 4 61 22q45 15 83 27v-88q54 17 112 37q3 1 63 22q78 27 82 28v-189l-291 -96v87z" />
<glyph unicode="&#xcc;" horiz-adv-x="1209" d="M19 -62l216 131q144 0 180 2q14 14 25 29q22 35 31 95q10 70 9 114q-3 88 -5 132q-5 88 -5 113v1174q0 36 6 120q4 52 6 144q2 60 -9 129q-11 70 -37 108q-17 26 -42 46q-32 26 -47 34q-23 12 -55 21q-15 4 -57 12q-31 6 -63 7q-52 2 -60 2q-35 0 -63 -1h-29q9 4 53 32 q14 9 33.5 20.5t22.5 13.5h-1q21 14 53 34q40 25 54 32h12h61q7 0 63 -2q48 -2 68 -5l66 -11q38 -6 66 -17q31 -12 57 -25q28 -14 53 -36q32 14 64 26q3 1 28.5 10t37.5 13q27 9 63 18q10 3 28 6.5t26 5.5q24 6 54 9q10 1 26 2.5t21 2.5q16 1 47 3q20 1 39 1h40h35 q-43 -27 -107 -65q-9 -6 -47 -29.5t-61 -36.5q-134 0 -185 -11q-25 -16 -45 -34h-3q17 -38 24 -85q11 -66 9 -134q-2 -72 -7 -145q-6 -84 -6 -118v-1175q0 -31 6 -109q8 -109 9 -131q1 -52 -11 -122q-12 -63 -38 -106l30 13q36 -31 65 -53q28 -21 66 -36q33 -13 62 -21 q30 -8 68 -11q10 -1 69 -4q18 -1 82 -1h19q-21 -14 -53 -34q-12 -7 -54 -32q-20 -12 -57 -33q-12 -7 -29 -17.5t-23 -13.5q-84 0 -112 1q-53 2 -102 8q-55 7 -102 22q-42 14 -91 41q-13 7 -26 17q-34 -16 -75 -32q-81 -30 -159 -45q-81 -16 -119 -17q-46 -2 -102 1 q-61 3 -66 3zM308 2773l126 63l-1 1l40 20q7 4 14.5 7.5t17 8t14.5 7.5q8 4 21.5 11t19.5 10l354 -66q-12 -5 -64 -32q-48 -25 -62 -33q-15 -8 -63 -32l-37 -18.5t-26 -13.5z" />
<glyph unicode="&#xcd;" horiz-adv-x="1209" d="M19 -62l216 131q144 0 180 2q14 14 25 29q22 35 31 95q10 70 9 114q-3 88 -5 132q-5 88 -5 113v1174q0 36 6 120q4 52 6 144q2 60 -9 129q-11 70 -37 108q-17 26 -42 46q-32 26 -47 34q-23 12 -55 21q-15 4 -57 12q-31 6 -63 7q-52 2 -60 2q-35 0 -63 -1h-29q9 4 53 32 q14 9 33.5 20.5t22.5 13.5h-1q21 14 53 34q40 25 54 32h12h61q7 0 63 -2q48 -2 68 -5l66 -11q38 -6 66 -17q31 -12 57 -25q28 -14 53 -36q32 14 64 26q3 1 28.5 10t37.5 13q27 9 63 18q10 3 28 6.5t26 5.5q24 6 54 9q10 1 26 2.5t21 2.5q16 1 47 3q20 1 39 1h40h35 q-43 -27 -107 -65q-9 -6 -47 -29.5t-61 -36.5q-134 0 -185 -11q-25 -16 -45 -34h-3q17 -38 24 -85q11 -66 9 -134q-2 -72 -7 -145q-6 -84 -6 -118v-1175q0 -31 6 -109q8 -109 9 -131q1 -52 -11 -122q-12 -63 -38 -106l30 13q36 -31 65 -53q28 -21 66 -36q33 -13 62 -21 q30 -8 68 -11q10 -1 69 -4q18 -1 82 -1h19q-21 -14 -53 -34q-12 -7 -54 -32q-20 -12 -57 -33q-12 -7 -29 -17.5t-23 -13.5q-84 0 -112 1q-53 2 -102 8q-55 7 -102 22q-42 14 -91 41q-13 7 -26 17q-34 -16 -75 -32q-81 -30 -159 -45q-81 -16 -119 -17q-46 -2 -102 1 q-61 3 -66 3zM404 2717q24 20 65 60h-3q18 18 39 37.5t25 23.5q6 1 171 32q47 9 110 20.5t74 13.5q-4 -3 -26 -24t-38 -36q-29 -28 -63 -62q-154 -28 -170 -31q-47 -9 -110 -20.5t-74 -13.5z" />
<glyph unicode="&#xce;" horiz-adv-x="1209" d="M19 -62l216 131q144 0 180 2q14 14 25 29q22 35 31 95q10 70 9 114q-3 88 -5 132q-5 88 -5 113v1174q0 36 6 120q4 52 6 144q2 60 -9 129q-11 70 -37 108q-17 26 -42 46q-32 26 -47 34q-23 12 -55 21q-15 4 -57 12q-31 6 -63 7q-52 2 -60 2q-35 0 -63 -1h-29q9 4 53 32 q14 9 33.5 20.5t22.5 13.5h-1q21 14 53 34q40 25 54 32h12h61q7 0 63 -2q48 -2 68 -5l66 -11q38 -6 66 -17q31 -12 57 -25q28 -14 53 -36q32 14 64 26q3 1 28.5 10t37.5 13q27 9 63 18q10 3 28 6.5t26 5.5q24 6 54 9q10 1 26 2.5t21 2.5q16 1 47 3q20 1 39 1h40h35 q-43 -27 -107 -65q-9 -6 -47 -29.5t-61 -36.5q-134 0 -185 -11q-25 -16 -45 -34h-3q17 -38 24 -85q11 -66 9 -134q-2 -72 -7 -145q-6 -84 -6 -118v-1175q0 -31 6 -109q8 -109 9 -131q1 -52 -11 -122q-12 -63 -38 -106l30 13q36 -31 65 -53q28 -21 66 -36q33 -13 62 -21 q30 -8 68 -11q10 -1 69 -4q18 -1 82 -1h19q-21 -14 -53 -34q-12 -7 -54 -32q-20 -12 -57 -33q-12 -7 -29 -17.5t-23 -13.5q-84 0 -112 1q-53 2 -102 8q-55 7 -102 22q-42 14 -91 41q-13 7 -26 17q-34 -16 -75 -32q-81 -30 -159 -45q-81 -16 -119 -17q-46 -2 -102 1 q-61 3 -66 3zM194 2717l127 121q25 4 171 32q36 7 182 34q42 9 64 3l357 -76q-15 -6 -65 -31l-37 -18.5t-26 -13.5t-26.5 -13t-37.5 -18l-37 -18.5t-26 -13.5l-334 71q-18 -3 -71 -13.5t-86 -16.5q-29 -5 -82.5 -15.5t-72.5 -13.5z" />
<glyph unicode="&#xcf;" horiz-adv-x="1209" d="M19 -62l216 131q144 0 180 2q14 14 25 29q22 35 31 95q10 70 9 114q-3 88 -5 132q-5 88 -5 113v1174q0 36 6 120q4 52 6 144q2 60 -9 129q-11 70 -37 108q-17 26 -42 46q-32 26 -47 34q-23 12 -55 21q-15 4 -57 12q-31 6 -63 7q-52 2 -60 2q-35 0 -63 -1h-29q9 4 53 32 q14 9 33.5 20.5t22.5 13.5h-1q21 14 53 34q40 25 54 32h12h61q7 0 63 -2q48 -2 68 -5l66 -11q38 -6 66 -17q31 -12 57 -25q28 -14 53 -36q32 14 64 26q3 1 28.5 10t37.5 13q27 9 63 18q10 3 28 6.5t26 5.5q24 6 54 9q10 1 26 2.5t21 2.5q16 1 47 3q20 1 39 1h40h35 q-43 -27 -107 -65q-9 -6 -47 -29.5t-61 -36.5q-134 0 -185 -11q-25 -16 -45 -34h-3q17 -38 24 -85q11 -66 9 -134q-2 -72 -7 -145q-6 -84 -6 -118v-1175q0 -31 6 -109q8 -109 9 -131q1 -52 -11 -122q-12 -63 -38 -106l30 13q36 -31 65 -53q28 -21 66 -36q33 -13 62 -21 q30 -8 68 -11q10 -1 69 -4q18 -1 82 -1h19q-21 -14 -53 -34q-12 -7 -54 -32q-20 -12 -57 -33q-12 -7 -29 -17.5t-23 -13.5q-84 0 -112 1q-53 2 -102 8q-55 7 -102 22q-42 14 -91 41q-13 7 -26 17q-34 -16 -75 -32q-81 -30 -159 -45q-81 -16 -119 -17q-46 -2 -102 1 q-61 3 -66 3z" />
<glyph unicode="&#xd0;" horiz-adv-x="2597" d="M18 -66l216 132q144 0 180 2q14 14 25 29q22 35 31 94q10 70 9 115q-3 88 -5 131q-4 69 -4 112v1174q0 50 5 120q5 73 7 144q1 53 -10 128q-11 73 -36 110q-16 24 -43 46q-30 24 -46 34q-21 13 -55 22q-25 7 -58 13q-24 4 -63 6t-60 3t-62 0h-30q15 10 55 34q45 27 55 32 l-5 -1q51 31 55 34q16 10 53 32h12q47 0 61 -1q8 -1 30.5 -1.5t32.5 -0.5q48 -2 68 -5l66 -11q38 -6 66 -17q32 -12 57 -25q30 -15 54 -36q1 -1 3 -3.5t3 -3.5q6 2 16 6.5t16 6.5q84 31 173 52q78 18 158 23q74 4 129 3q53 -1 117 -6q56 -4 92 -4q335 0 603 -119 q125 -55 228 -149q103 -95 174 -210q69 -114 115 -252q45 -137 60 -279q15 -145 5 -290t-47 -284q-35 -134 -101 -264t-151 -227q-105 -121 -256 -211q-115 -71 -244 -119q-135 -50 -253 -73q-141 -27 -229 -36q-100 -10 -209 -10q-81 0 -109 1q-39 1 -102 6q-65 5 -106 13 q-43 9 -97 24q-49 14 -101 40q-3 2 -9.5 5t-9.5 5q-28 -14 -82 -35q-86 -32 -160 -46q-75 -14 -119 -16q-24 -1 -101 1q-18 0 -34 0.5t-24 1t-9 0.5zM720 174l27 12q30 -22 59 -38q40 -22 54 -29q32 -16 59 -23q48 -12 56 -15q22 -7 61 -11q45 -5 58 -6q33 -3 65 -3h63h69 q345 0 524 107q100 61 179 151q78 90 137 211q57 118 91 252q34 137 43 277q9 144 -6 283q-15 140 -57 275q-41 133 -108 248q-66 114 -163 205q-96 90 -218 145q-248 110 -548 108q-20 0 -124 2q-21 0 -63.5 0.5t-58.5 1.5q-28 1 -89 -1q-41 -1 -68 -9q-12 -6 -27 -18 q15 -33 23 -83q12 -70 10 -133q-2 -72 -7 -145q-6 -84 -6 -119v-1174q0 -31 6 -109q8 -109 9 -131q1 -52 -11 -122q-12 -60 -37 -104z" />
<glyph unicode="&#xd1;" horiz-adv-x="2771" d="M20 2345q18 12 54 33q44 26 55 33l110 66q175 -2 332 -43q159 -42 271 -130q58 -47 113 -115q63 -77 97 -133q13 -21 44 -69.5t49 -76.5q41 -66 88 -131l694 -975q33 -48 67 -99q17 -26 42 -63.5t29 -42.5q32 -48 68 -93q4 -5 17 -21.5t20 -24.5q7 43 8 91q1 35 1 90 q0 58 -1 98t-1 95v1439l53 18h-4q-26 -4 -48 -2q-7 1 -199 29q-94 14 -201 28l122 64l-2 -8q4 4 122 65q105 -15 190 -28q162 -25 193 -29q154 26 169 28q103 16 176 27q-4 -4 -18.5 -15.5t-24.5 -19.5q-24 -21 -33 -27q-9 -7 -75 -63q-64 -10 -134 -20v-1397q0 -19 4 -109 q5 -111 5 -113q2 -54 -2 -106q-4 -58 -17 -109q-11 -44 -40 -102q-26 -52 -70 -99q9 -10 23 -33q24 -40 32 -79l-291 -102q-9 43 -27 72q-20 32 -40 49q-35 30 -55 47q-34 30 -58 55q-49 52 -94 112q-48 64 -111 160q-62 94 -83 123l-693 975q-45 63 -89 131 q-77 120 -93 145q-36 56 -95 130l-24 27q-1 -18 -1 -49q0 -18 2 -112t2 -103v-1529q0 -3 0.5 -7.5t1 -13t0.5 -15.5q2 -40 2 -42q-2 -26 -4 -39q-2 -19 -15 -44q-10 -19 -27 -43q-24 -27 -64 -54l106 56l376 -44l-242 -129l-376 44l42 23q-3 -1 -9.5 -4t-9.5 -5 q-55 -22 -123 -41q-48 -13 -108 -19q-52 -5 -78 -5q-23 0 -63 2q-9 0 -17 1t-13 1.5t-6 0.5l216 130h56h53q5 8 9 23q2 7 4 23q1 4 1.5 13.5t0.5 14.5q1 11 1 25v29v26v1529q0 35 -3 101q-1 22 -4 112q-1 45 3 103q5 62 23 111q20 53 52 97q-54 25 -121 42q-151 39 -292 39z " />
<glyph unicode="&#xd2;" horiz-adv-x="2326" d="M24 1173q-1 101 10 228q10 115 38 227q26 107 71 213q41 97 111 199q60 88 151 172q79 73 194 138q26 15 66 34q21 11 30 15q4 2 8 3.5t9 4t8 3.5q2 1 7.5 3.5t8.5 3.5q20 7 25 10q6 3 29 11q20 8 21 8q29 10 30 11q9 3 40 13q11 4 31.5 9t23.5 6q65 17 111 25l-3 1 q197 34 388 7q169 -25 300 -89q138 -67 230 -161q94 -96 165 -219q72 -126 110 -257q39 -136 57 -282q19 -155 13 -291q-6 -151 -29 -284q-74 -440 -335 -701q-46 -46 -103 -88q-54 -40 -132 -85q-81 -47 -169 -79q-100 -36 -197 -55q-181 -35 -338 -32q-160 3 -302 51 q-144 49 -259 138q-347 271 -406 862q-11 110 -13 227zM322 1047q57 -581 398 -847q79 -63 181 -106q95 -40 198 -56q96 -15 188 -13q86 1 172 19q46 9 97 38q52 30 121 99q118 118 197 292q80 176 111 367q24 136 27 279q3 144 -15 288q-18 146 -58 277q-41 134 -108 252 t-158 212q-92 95 -214 157q-129 65 -271 84q-89 10 -151 9q-70 -1 -126 -11h1q-42 -8 -46 -9q-12 -4 -17 -5l-11 -4q0 -1 -2 -1t-2 -1h-2l-2 -1h-2l-2 -2h-4h-1h-1l-1 -2h-1h-1q-1 0 -2 -1t-2 -1t-1 -1l-2 -1q-1 0 -3 -1t-3 -1t-1 -1l-5 -2.5t-4 -1.5q-4 -2 -12 -5.5 t-12 -5.5q-122 -71 -218 -210q-96 -140 -152 -316q-56 -178 -77 -375t-1 -392zM907 2774q34 16 70 34q18 9 36.5 18.5t19.5 10.5l-3 -2q2 2 125 64q86 -16 356 -66q-21 -10 -62.5 -31t-62.5 -32q-83 -41 -125 -64q-20 4 -157 30q-73 14 -197 38z" />
<glyph unicode="&#xd3;" horiz-adv-x="2326" d="M24 1173q-1 101 10 228q10 115 38 227q26 107 71 213q41 97 111 199q60 88 151 172q79 73 194 138q26 15 66 34q21 11 30 15q4 2 8 3.5t9 4t8 3.5q2 1 7.5 3.5t8.5 3.5q20 7 25 10q6 3 29 11q20 8 21 8q29 10 30 11q9 3 40 13q11 4 31.5 9t23.5 6q65 17 111 25l-3 1 q197 34 388 7q169 -25 300 -89q138 -67 230 -161q94 -96 165 -219q72 -126 110 -257q39 -136 57 -282q19 -155 13 -291q-6 -151 -29 -284q-74 -440 -335 -701q-46 -46 -103 -88q-54 -40 -132 -85q-81 -47 -169 -79q-100 -36 -197 -55q-181 -35 -338 -32q-160 3 -302 51 q-144 49 -259 138q-347 271 -406 862q-11 110 -13 227zM322 1047q57 -581 398 -847q79 -63 181 -106q95 -40 198 -56q96 -15 188 -13q86 1 172 19q46 9 97 38q52 30 121 99q118 118 197 292q80 176 111 367q24 136 27 279q3 144 -15 288q-18 146 -58 277q-41 134 -108 252 t-158 212q-92 95 -214 157q-129 65 -271 84q-89 10 -151 9q-70 -1 -126 -11h1q-42 -8 -46 -9q-12 -4 -17 -5l-11 -4q0 -1 -2 -1t-2 -1h-2l-2 -1h-2l-2 -2h-4h-1h-1l-1 -2h-1h-1q-1 0 -2 -1t-2 -1t-1 -1l-2 -1q-1 0 -3 -1t-3 -1t-1 -1l-5 -2.5t-4 -1.5q-4 -2 -12 -5.5 t-12 -5.5q-122 -71 -218 -210q-96 -140 -152 -316q-56 -178 -77 -375t-1 -392zM919 2797q4 4 16 15t18 16q14 13 31 30l-3 -4q17 17 32 30t34 32q27 6 175 34q41 8 101 19t79 15q-19 -19 -34 -33q-22 -21 -30 -27q-10 -9 -32 -29q-17 -15 -31 -31q-26 -5 -177 -34 q-39 -7 -99 -18t-80 -15z" />
<glyph unicode="&#xd4;" horiz-adv-x="2326" d="M24 1173q-1 101 10 228q10 115 38 227q26 107 71 213q41 97 111 199q60 88 151 172q79 73 194 138q26 15 66 34q21 11 30 15q4 2 8 3.5t9 4t8 3.5q2 1 7.5 3.5t8.5 3.5q20 7 25 10q6 3 29 11q20 8 21 8q29 10 30 11q9 3 40 13q11 4 31.5 9t23.5 6q65 17 111 25l-3 1 q197 34 388 7q169 -25 300 -89q138 -67 230 -161q94 -96 165 -219q72 -126 110 -257q39 -136 57 -282q19 -155 13 -291q-6 -151 -29 -284q-74 -440 -335 -701q-46 -46 -103 -88q-54 -40 -132 -85q-81 -47 -169 -79q-100 -36 -197 -55q-181 -35 -338 -32q-160 3 -302 51 q-144 49 -259 138q-347 271 -406 862q-11 110 -13 227zM322 1047q57 -581 398 -847q79 -63 181 -106q95 -40 198 -56q96 -15 188 -13q86 1 172 19q46 9 97 38q52 30 121 99q118 118 197 292q80 176 111 367q24 136 27 279q3 144 -15 288q-18 146 -58 277q-41 134 -108 252 t-158 212q-92 95 -214 157q-129 65 -271 84q-89 10 -151 9q-70 -1 -126 -11h1q-42 -8 -46 -9q-12 -4 -17 -5l-11 -4q0 -1 -2 -1t-2 -1h-2l-2 -1h-2l-2 -2h-4h-1h-1l-1 -2h-1h-1q-1 0 -2 -1t-2 -1t-1 -1l-2 -1q-1 0 -3 -1t-3 -1t-1 -1l-5 -2.5t-4 -1.5q-4 -2 -12 -5.5 t-12 -5.5q-122 -71 -218 -210q-96 -140 -152 -316q-56 -178 -77 -375t-1 -392z" />
<glyph unicode="&#xd5;" horiz-adv-x="2326" d="M24 1173q-1 101 10 228q10 115 38 227q26 107 71 213q41 97 111 199q60 88 151 172q79 73 194 138q26 15 66 34q21 11 30 15q4 2 8 3.5t9 4t8 3.5q2 1 7.5 3.5t8.5 3.5q20 7 25 10q6 3 29 11q20 8 21 8q29 10 30 11q9 3 40 13q11 4 31.5 9t23.5 6q65 17 111 25l-3 1 q197 34 388 7q169 -25 300 -89q138 -67 230 -161q94 -96 165 -219q72 -126 110 -257q39 -136 57 -282q19 -155 13 -291q-6 -151 -29 -284q-74 -440 -335 -701q-46 -46 -103 -88q-54 -40 -132 -85q-81 -47 -169 -79q-100 -36 -197 -55q-181 -35 -338 -32q-160 3 -302 51 q-144 49 -259 138q-347 271 -406 862q-11 110 -13 227zM322 1047q57 -581 398 -847q79 -63 181 -106q95 -40 198 -56q96 -15 188 -13q86 1 172 19q46 9 97 38q52 30 121 99q118 118 197 292q80 176 111 367q24 136 27 279q3 144 -15 288q-18 146 -58 277q-41 134 -108 252 t-158 212q-92 95 -214 157q-129 65 -271 84q-89 10 -151 9q-70 -1 -126 -11h1q-42 -8 -46 -9q-12 -4 -17 -5l-11 -4q0 -1 -2 -1t-2 -1h-2l-2 -1h-2l-2 -2h-4h-1h-1l-1 -2h-1h-1q-1 0 -2 -1t-2 -1t-1 -1l-2 -1q-1 0 -3 -1t-3 -1t-1 -1l-5 -2.5t-4 -1.5q-4 -2 -12 -5.5 t-12 -5.5q-122 -71 -218 -210q-96 -140 -152 -316q-56 -178 -77 -375t-1 -392z" />
<glyph unicode="&#xd6;" horiz-adv-x="2326" d="M24 1173q-1 101 10 228q10 115 38 227q26 107 71 213q41 97 111 199q60 88 151 172q79 73 194 138q26 15 66 34q21 11 30 15q4 2 8 3.5t9 4t8 3.5q2 1 7.5 3.5t8.5 3.5q20 7 25 10q6 3 29 11q20 8 21 8q29 10 30 11q9 3 40 13q11 4 31.5 9t23.5 6q65 17 111 25l-3 1 q197 34 388 7q169 -25 300 -89q138 -67 230 -161q94 -96 165 -219q72 -126 110 -257q39 -136 57 -282q19 -155 13 -291q-6 -151 -29 -284q-74 -440 -335 -701q-46 -46 -103 -88q-54 -40 -132 -85q-81 -47 -169 -79q-100 -36 -197 -55q-181 -35 -338 -32q-160 3 -302 51 q-144 49 -259 138q-347 271 -406 862q-11 110 -13 227zM322 1047q57 -581 398 -847q79 -63 181 -106q95 -40 198 -56q96 -15 188 -13q86 1 172 19q46 9 97 38q52 30 121 99q118 118 197 292q80 176 111 367q24 136 27 279q3 144 -15 288q-18 146 -58 277q-41 134 -108 252 t-158 212q-92 95 -214 157q-129 65 -271 84q-89 10 -151 9q-70 -1 -126 -11h1q-42 -8 -46 -9q-12 -4 -17 -5l-11 -4q0 -1 -2 -1t-2 -1h-2l-2 -1h-2l-2 -2h-4h-1h-1l-1 -2h-1h-1q-1 0 -2 -1t-2 -1t-1 -1l-2 -1q-1 0 -3 -1t-3 -1t-1 -1l-5 -2.5t-4 -1.5q-4 -2 -12 -5.5 t-12 -5.5q-122 -71 -218 -210q-96 -140 -152 -316q-56 -178 -77 -375t-1 -392z" />
<glyph unicode="&#xd8;" horiz-adv-x="1689" d="M20 855q6 101 26 205q48 268 203 435q74 80 182 141q5 4 15.5 9t12.5 6q14 8 28 14q4 2 11.5 5.5t11.5 5.5q29 14 68 28q9 3 26.5 9.5t26.5 9.5q18 6 26 9q11 4 22 5q6 2 20 5.5t20 5.5q3 0 9.5 1.5t9.5 2.5l-1 -4q54 10 95 14q46 4 68 6q1 0 68 -2q11 -1 27 -1l155 420 l288 86l-205 -554q4 -2 12.5 -5.5t12.5 -5.5q103 -46 178 -123q72 -73 123 -171q52 -99 77 -206q25 -105 31 -222q6 -121 -5 -224q-13 -116 -38 -210q-51 -179 -147 -311q-26 -37 -58 -72q-25 -28 -73 -71q-42 -38 -112 -76q-69 -38 -151 -67q-58 -21 -108 -34q-9 -2 -23 -4 q-173 -34 -301 -20q-45 6 -87 15l-58 -156l-288 -87l125 338q-45 30 -85 71q-68 69 -120 163q-49 88 -77 192q-25 92 -36 210q-11 113 -5 214zM311 949q-4 -94 9 -210q11 -98 40 -204q25 -92 76 -186q7 -13 21 -37l476 1291q-71 25 -144 31q-128 3 -160 -3l-3 3q-1 0 -2 -1 q-4 0 -5 -1h-1h-1v-1h-1h-2v-1h-2v-1q-3 0 -5 -2v-1q-80 -45 -163 -183t-110 -292q-19 -103 -23 -202zM636 117q15 -10 60 -35q89 -45 193 -57q75 -9 162 7q73 42 156 166q85 128 124 265q28 104 36 204q9 108 0 218q-9 104 -37 216q-28 109 -74 199q-46 89 -114 165 q0 1 -1.5 3t-2.5 2l-500 -1353h-2z" />
<glyph unicode="&#xd9;" horiz-adv-x="2870" d="M19 2339q58 36 109 65q6 4 54 34q40 25 54 32h14q60 0 78 -1q5 0 31.5 -1.5t46.5 -2.5q48 -3 87 -11q30 -6 78 -20q42 -12 77 -35q13 -9 33 -25q20 9 62 25q35 13 66 24t63 18q10 2 28.5 6t26.5 6q23 6 55 9q11 1 26.5 3t19.5 2q15 2 46 3q21 1 40 1h41h34 q-11 -7 -26.5 -16.5t-39.5 -24t-41 -25.5q-32 -19 -68 -40.5t-40 -24.5q-131 0 -185 -12q-25 -16 -45 -34h-3q4 -11 5 -14q2 -8 5 -20.5t3 -13.5q2 -9 4 -38q1 -25 3 -34q1 -9 0 -38q-1 -20 -1 -36v-421q0 -68 -3 -174q-3 -104 -6 -187q-3 -81 -3 -189q0 -117 4 -193 q5 -91 19 -185q16 -105 38 -178q24 -81 63 -161q40 -82 91 -144q53 -64 127 -117q75 -54 168 -89q120 -46 265 -46l-9 -6q116 -3 206 22q65 18 120 62q58 47 94 95q41 55 70 137q32 88 50 155q21 77 34 184q18 150 21 192q7 97 10 208q1 51 2.5 120.5t1.5 81.5q1 47 1 203 v43v488q0 25 1 51q2 40 0 60q-2 32 -6 48q-7 32 -17 48q-19 29 -41 48q-31 27 -47 36q-25 14 -59 23q-35 9 -60 15q-28 7 -66 8q-56 2 -63 2q-37 0 -66 -1h-28q15 9 109 65q73 44 108 66h12h62q8 0 30 -1.5t35 -1.5q43 -2 71 -6q9 -1 32 -4.5t36 -5.5q33 -5 68 -19 q40 -16 60 -27q25 -12 45 -31q44 20 56 24q34 14 66 24q21 7 63 17q7 2 26.5 6.5t28.5 6.5q17 4 55 8q10 1 25.5 3t20.5 2q16 1 47 3q7 0 17 0.5t15 1t8 0.5h40h34q-38 -22 -108 -66q-25 -15 -50.5 -30.5t-39 -23.5t-18.5 -11q-136 0 -184 -11q-14 -9 -41 -32q8 -22 10 -35 q5 -27 7 -53q1 -12 -1 -60q0 -10 -0.5 -22t-1 -18.5t-0.5 -10.5v-487q0 -72 4 -159q5 -114 10 -178q6 -81 6 -186q0 -119 -5 -193q-7 -100 -24 -190q-19 -99 -50 -186q-29 -81 -85 -173q-51 -84 -126 -157q-69 -67 -175 -132q-101 -62 -233 -106q-35 -12 -69 -21 q-192 -52 -371 -49q-173 2 -311 55q-94 36 -179 95q-77 54 -134 120q-51 60 -96 149q-43 85 -66 164q-25 84 -38 182q-13 100 -18 188q-5 102 -4 195q1 83 5 191q3 82 6 188q3 104 3 175v421v31v33v5.5v10.5v13q0 6 -0.5 13t-1 11t-0.5 7q0 1 -2 10.5t-3 17.5q-3 21 -8 29 q-1 3 -6 11.5t-8 14.5q-10 17 -17 26q-14 18 -32 32q-25 19 -32 23q-17 10 -39 17q-29 9 -38 13q-10 5 -43 8q-11 1 -24.5 3.5t-15.5 2.5q-13 2 -45 3q-23 1 -43 1h-46h-42z" />
<glyph unicode="&#xda;" horiz-adv-x="2870" d="M19 2339q58 36 109 65q6 4 54 34q40 25 54 32h14q60 0 78 -1q5 0 31.5 -1.5t46.5 -2.5q48 -3 87 -11q30 -6 78 -20q42 -12 77 -35q13 -9 33 -25q20 9 62 25q35 13 66 24t63 18q10 2 28.5 6t26.5 6q23 6 55 9q11 1 26.5 3t19.5 2q15 2 46 3q21 1 40 1h41h34 q-11 -7 -26.5 -16.5t-39.5 -24t-41 -25.5q-32 -19 -68 -40.5t-40 -24.5q-131 0 -185 -12q-25 -16 -45 -34h-3q4 -11 5 -14q2 -8 5 -20.5t3 -13.5q2 -9 4 -38q1 -25 3 -34q1 -9 0 -38q-1 -20 -1 -36v-421q0 -68 -3 -174q-3 -104 -6 -187q-3 -81 -3 -189q0 -117 4 -193 q5 -91 19 -185q16 -105 38 -178q24 -81 63 -161q40 -82 91 -144q53 -64 127 -117q75 -54 168 -89q120 -46 265 -46l-9 -6q116 -3 206 22q65 18 120 62q58 47 94 95q41 55 70 137q32 88 50 155q21 77 34 184q18 150 21 192q7 97 10 208q1 51 2.5 120.5t1.5 81.5q1 47 1 203 v43v488q0 25 1 51q2 40 0 60q-2 32 -6 48q-7 32 -17 48q-19 29 -41 48q-31 27 -47 36q-25 14 -59 23q-35 9 -60 15q-28 7 -66 8q-56 2 -63 2q-37 0 -66 -1h-28q15 9 109 65q73 44 108 66h12h62q8 0 30 -1.5t35 -1.5q43 -2 71 -6q9 -1 32 -4.5t36 -5.5q33 -5 68 -19 q40 -16 60 -27q25 -12 45 -31q44 20 56 24q34 14 66 24q21 7 63 17q7 2 26.5 6.5t28.5 6.5q17 4 55 8q10 1 25.5 3t20.5 2q16 1 47 3q7 0 17 0.5t15 1t8 0.5h40h34q-38 -22 -108 -66q-25 -15 -50.5 -30.5t-39 -23.5t-18.5 -11q-136 0 -184 -11q-14 -9 -41 -32q8 -22 10 -35 q5 -27 7 -53q1 -12 -1 -60q0 -10 -0.5 -22t-1 -18.5t-0.5 -10.5v-487q0 -72 4 -159q5 -114 10 -178q6 -81 6 -186q0 -119 -5 -193q-7 -100 -24 -190q-19 -99 -50 -186q-29 -81 -85 -173q-51 -84 -126 -157q-69 -67 -175 -132q-101 -62 -233 -106q-35 -12 -69 -21 q-192 -52 -371 -49q-173 2 -311 55q-94 36 -179 95q-77 54 -134 120q-51 60 -96 149q-43 85 -66 164q-25 84 -38 182q-13 100 -18 188q-5 102 -4 195q1 83 5 191q3 82 6 188q3 104 3 175v421v31v33v5.5v10.5v13q0 6 -0.5 13t-1 11t-0.5 7q0 1 -2 10.5t-3 17.5q-3 21 -8 29 q-1 3 -6 11.5t-8 14.5q-10 17 -17 26q-14 18 -32 32q-25 19 -32 23q-17 10 -39 17q-29 9 -38 13q-10 5 -43 8q-11 1 -24.5 3.5t-15.5 2.5q-13 2 -45 3q-23 1 -43 1h-46h-42z" />
<glyph unicode="&#xdb;" horiz-adv-x="2870" d="M19 2339q58 36 109 65q6 4 54 34q40 25 54 32h14q60 0 78 -1q5 0 31.5 -1.5t46.5 -2.5q48 -3 87 -11q30 -6 78 -20q42 -12 77 -35q13 -9 33 -25q20 9 62 25q35 13 66 24t63 18q10 2 28.5 6t26.5 6q23 6 55 9q11 1 26.5 3t19.5 2q15 2 46 3q21 1 40 1h41h34 q-11 -7 -26.5 -16.5t-39.5 -24t-41 -25.5q-32 -19 -68 -40.5t-40 -24.5q-131 0 -185 -12q-25 -16 -45 -34h-3q4 -11 5 -14q2 -8 5 -20.5t3 -13.5q2 -9 4 -38q1 -25 3 -34q1 -9 0 -38q-1 -20 -1 -36v-421q0 -68 -3 -174q-3 -104 -6 -187q-3 -81 -3 -189q0 -117 4 -193 q5 -91 19 -185q16 -105 38 -178q24 -81 63 -161q40 -82 91 -144q53 -64 127 -117q75 -54 168 -89q120 -46 265 -46l-9 -6q116 -3 206 22q65 18 120 62q58 47 94 95q41 55 70 137q32 88 50 155q21 77 34 184q18 150 21 192q7 97 10 208q1 51 2.5 120.5t1.5 81.5q1 47 1 203 v43v488q0 25 1 51q2 40 0 60q-2 32 -6 48q-7 32 -17 48q-19 29 -41 48q-31 27 -47 36q-25 14 -59 23q-35 9 -60 15q-28 7 -66 8q-56 2 -63 2q-37 0 -66 -1h-28q15 9 109 65q73 44 108 66h12h62q8 0 30 -1.5t35 -1.5q43 -2 71 -6q9 -1 32 -4.5t36 -5.5q33 -5 68 -19 q40 -16 60 -27q25 -12 45 -31q44 20 56 24q34 14 66 24q21 7 63 17q7 2 26.5 6.5t28.5 6.5q17 4 55 8q10 1 25.5 3t20.5 2q16 1 47 3q7 0 17 0.5t15 1t8 0.5h40h34q-38 -22 -108 -66q-25 -15 -50.5 -30.5t-39 -23.5t-18.5 -11q-136 0 -184 -11q-14 -9 -41 -32q8 -22 10 -35 q5 -27 7 -53q1 -12 -1 -60q0 -10 -0.5 -22t-1 -18.5t-0.5 -10.5v-487q0 -72 4 -159q5 -114 10 -178q6 -81 6 -186q0 -119 -5 -193q-7 -100 -24 -190q-19 -99 -50 -186q-29 -81 -85 -173q-51 -84 -126 -157q-69 -67 -175 -132q-101 -62 -233 -106q-35 -12 -69 -21 q-192 -52 -371 -49q-173 2 -311 55q-94 36 -179 95q-77 54 -134 120q-51 60 -96 149q-43 85 -66 164q-25 84 -38 182q-13 100 -18 188q-5 102 -4 195q1 83 5 191q3 82 6 188q3 104 3 175v421v31v33v5.5v10.5v13q0 6 -0.5 13t-1 11t-0.5 7q0 1 -2 10.5t-3 17.5q-3 21 -8 29 q-1 3 -6 11.5t-8 14.5q-10 17 -17 26q-14 18 -32 32q-25 19 -32 23q-17 10 -39 17q-29 9 -38 13q-10 5 -43 8q-11 1 -24.5 3.5t-15.5 2.5q-13 2 -45 3q-23 1 -43 1h-46h-42z" />
<glyph unicode="&#xdc;" horiz-adv-x="2870" d="M19 2339q58 36 109 65q6 4 54 34q40 25 54 32h14q60 0 78 -1q5 0 31.5 -1.5t46.5 -2.5q48 -3 87 -11q30 -6 78 -20q42 -12 77 -35q13 -9 33 -25q20 9 62 25q35 13 66 24t63 18q10 2 28.5 6t26.5 6q23 6 55 9q11 1 26.5 3t19.5 2q15 2 46 3q21 1 40 1h41h34 q-11 -7 -26.5 -16.5t-39.5 -24t-41 -25.5q-32 -19 -68 -40.5t-40 -24.5q-131 0 -185 -12q-25 -16 -45 -34h-3q4 -11 5 -14q2 -8 5 -20.5t3 -13.5q2 -9 4 -38q1 -25 3 -34q1 -9 0 -38q-1 -20 -1 -36v-421q0 -68 -3 -174q-3 -104 -6 -187q-3 -81 -3 -189q0 -117 4 -193 q5 -91 19 -185q16 -105 38 -178q24 -81 63 -161q40 -82 91 -144q53 -64 127 -117q75 -54 168 -89q120 -46 265 -46l-9 -6q116 -3 206 22q65 18 120 62q58 47 94 95q41 55 70 137q32 88 50 155q21 77 34 184q18 150 21 192q7 97 10 208q1 51 2.5 120.5t1.5 81.5q1 47 1 203 v43v488q0 25 1 51q2 40 0 60q-2 32 -6 48q-7 32 -17 48q-19 29 -41 48q-31 27 -47 36q-25 14 -59 23q-35 9 -60 15q-28 7 -66 8q-56 2 -63 2q-37 0 -66 -1h-28q15 9 109 65q73 44 108 66h12h62q8 0 30 -1.5t35 -1.5q43 -2 71 -6q9 -1 32 -4.5t36 -5.5q33 -5 68 -19 q40 -16 60 -27q25 -12 45 -31q44 20 56 24q34 14 66 24q21 7 63 17q7 2 26.5 6.5t28.5 6.5q17 4 55 8q10 1 25.5 3t20.5 2q16 1 47 3q7 0 17 0.5t15 1t8 0.5h40h34q-38 -22 -108 -66q-25 -15 -50.5 -30.5t-39 -23.5t-18.5 -11q-136 0 -184 -11q-14 -9 -41 -32q8 -22 10 -35 q5 -27 7 -53q1 -12 -1 -60q0 -10 -0.5 -22t-1 -18.5t-0.5 -10.5v-487q0 -72 4 -159q5 -114 10 -178q6 -81 6 -186q0 -119 -5 -193q-7 -100 -24 -190q-19 -99 -50 -186q-29 -81 -85 -173q-51 -84 -126 -157q-69 -67 -175 -132q-101 -62 -233 -106q-35 -12 -69 -21 q-192 -52 -371 -49q-173 2 -311 55q-94 36 -179 95q-77 54 -134 120q-51 60 -96 149q-43 85 -66 164q-25 84 -38 182q-13 100 -18 188q-5 102 -4 195q1 83 5 191q3 82 6 188q3 104 3 175v421v31v33v5.5v10.5v13q0 6 -0.5 13t-1 11t-0.5 7q0 1 -2 10.5t-3 17.5q-3 21 -8 29 q-1 3 -6 11.5t-8 14.5q-10 17 -17 26q-14 18 -32 32q-25 19 -32 23q-17 10 -39 17q-29 9 -38 13q-10 5 -43 8q-11 1 -24.5 3.5t-15.5 2.5q-13 2 -45 3q-23 1 -43 1h-46h-42z" />
<glyph unicode="&#xe0;" horiz-adv-x="1730" d="M18 340q-2 84 29 164q32 83 94 150q31 34 78 66q48 32 104 59q80 38 90 42q18 8 81 31q10 5 14 6t37 15.5t63 26.5q121 49 134 54q59 23 145 51q96 31 167 47q2 88 2 127q0 63 -15 129q-15 67 -42 116q-35 61 -85 102q-55 45 -106 63q-62 22 -106 27q-51 6 -96 0h-6h-5 h-1q-1 -1 -2 -1t-1.5 -0.5t-1.5 -0.5h-1h-1q-1 -1 -2 -1h-3l-2 -1h-1h-1h-1h-1h-1h-1l-1 -1h-1h-1q0 -1 -1 -1h-2l-2 -1h-2v-1h-1h-2v-1h-2v-1h-1h-2h-1v-1h-1h-1h-1l-1 -2q-1 -1 -2 -1h-2q-1 0 -1 -1l-2 -1l-3 -3h-1h-1h-2v-2q-51 -30 -106 -91q-57 -63 -80 -136 q-6 -2 -29.5 -9t-41.5 -13t-42 -13t-30 -9q-5 -1 -18.5 -5t-28 -8.5t-28.5 -8.5q-51 -16 -70 -21q64 189 291 320q10 6 15 8q3 2 9 5l8 4q10 5 15 8t17 9q15 6 17 7q9 5 18 8l18 8q4 2 12.5 5.5t12.5 5.5q10 5 19 8q12 4 19 7q20 7 21 8q18 6 26 8q9 3 21 6q2 1 9 3.5 t11 3.5t11.5 3t11.5 3l24 6q3 1 8.5 3t8.5 2q18 3 22 4l31 6q3 0 9.5 1t9.5 2q3 0 8 0.5t8 1.5q369 48 516 -212q12 -19 21 -42q11 -29 16 -49q2 -10 6 -25t5 -20q4 -19 6 -51q0 -6 4 -47q2 -22 2 -52v-46v-9v-18.5v-21.5q-1 -25 -1 -45q-1 -2 -1.5 -4.5t-0.5 -4.5 q-3 -73 0 -239q3 -197 3 -240q0 -20 3 -71q1 -20 4 -85q2 -35 -6 -80q-7 -43 -28 -78q-8 -14 -26 -34q-11 -12 -37 -32q-12 -9 -28 -20l141 49q6 -56 20 -90q15 -38 31 -61t48 -36t53 -17q23 -5 62 -3q32 1 61 7q8 2 29.5 5.5t34.5 5.5l-132 -119q-47 -9 -108 -17 q-43 -5 -99 -7q-43 -1 -90 6q-36 6 -76 23q-38 17 -62 42q-25 27 -43 68q-14 31 -19 61q-138 -83 -227 -122q-174 -79 -329 -97q-156 -18 -259 29q-79 34 -136 96q-59 64 -85 139q-28 80 -29 159zM320 439q3 -75 27 -149q24 -73 74 -132q51 -60 121 -90q24 -10 36 -14 q19 -6 31 -9q9 -2 29 -4q5 0 13.5 -0.5t12.5 -1.5q7 -1 22 1l20 4q10 2 16 4q2 1 5 1.5t5 1.5t3 1t5 1.5t6 2.5l7 4q53 25 154 85l64 36q27 15 36 18q7 3 15 10q8 8 17 22q11 20 17 63q5 34 5 73q0 15 -2 85t-2 73q0 7 -2 201q-2 180 -1 225l-1 -1q-31 -1 -80 -9 q-43 -7 -87 -22q-52 -18 -83 -30q-53 -21 -110 -44q-102 -41 -128 -51q-21 -10 -54 -22l-16 -6t-13 -5t-8 -3q-11 -4 -21 -10q-13 -8 -20 -15q-12 -12 -22 -23q-46 -51 -70 -122q-24 -72 -21 -149zM419 2097q7 4 63 32l62 31v2q7 4 63 32q50 25 63 32q18 -4 43.5 -8.5 t65 -12t68.5 -13.5q32 -6 94 -18t84 -16l-65 -32q-16 -8 -36.5 -18.5t-24.5 -12.5q-7 -3 -63 -31q-42 -21 -63 -33q-11 2 -74 13.5t-110 20.5q-31 6 -69.5 13t-62 11.5t-38.5 7.5z" />
<glyph unicode="&#xe1;" horiz-adv-x="1730" d="M18 340q-2 84 29 164q32 83 94 150q31 34 78 66q48 32 104 59q80 38 90 42q18 8 81 31q10 5 14 6t37 15.5t63 26.5q121 49 134 54q59 23 145 51q96 31 167 47q2 88 2 127q0 63 -15 129q-15 67 -42 116q-35 61 -85 102q-55 45 -106 63q-62 22 -106 27q-51 6 -96 0h-6h-5 h-1q-1 -1 -2 -1t-1.5 -0.5t-1.5 -0.5h-1h-1q-1 -1 -2 -1h-3l-2 -1h-1h-1h-1h-1h-1h-1l-1 -1h-1h-1q0 -1 -1 -1h-2l-2 -1h-2v-1h-1h-2v-1h-2v-1h-1h-2h-1v-1h-1h-1h-1l-1 -2q-1 -1 -2 -1h-2q-1 0 -1 -1l-2 -1l-3 -3h-1h-1h-2v-2q-51 -30 -106 -91q-57 -63 -80 -136 q-6 -2 -29.5 -9t-41.5 -13t-42 -13t-30 -9q-5 -1 -18.5 -5t-28 -8.5t-28.5 -8.5q-51 -16 -70 -21q64 189 291 320q10 6 15 8q3 2 9 5l8 4q10 5 15 8t17 9q15 6 17 7q9 5 18 8l18 8q4 2 12.5 5.5t12.5 5.5q10 5 19 8q12 4 19 7q20 7 21 8q18 6 26 8q9 3 21 6q2 1 9 3.5 t11 3.5t11.5 3t11.5 3l24 6q3 1 8.5 3t8.5 2q18 3 22 4l31 6q3 0 9.5 1t9.5 2q3 0 8 0.5t8 1.5q369 48 516 -212q12 -19 21 -42q11 -29 16 -49q2 -10 6 -25t5 -20q4 -19 6 -51q0 -6 4 -47q2 -22 2 -52v-46v-9v-18.5v-21.5q-1 -25 -1 -45q-1 -2 -1.5 -4.5t-0.5 -4.5 q-3 -73 0 -239q3 -197 3 -240q0 -20 3 -71q1 -20 4 -85q2 -35 -6 -80q-7 -43 -28 -78q-8 -14 -26 -34q-11 -12 -37 -32q-12 -9 -28 -20l141 49q6 -56 20 -90q15 -38 31 -61t48 -36t53 -17q23 -5 62 -3q32 1 61 7q8 2 29.5 5.5t34.5 5.5l-132 -119q-47 -9 -108 -17 q-43 -5 -99 -7q-43 -1 -90 6q-36 6 -76 23q-38 17 -62 42q-25 27 -43 68q-14 31 -19 61q-138 -83 -227 -122q-174 -79 -329 -97q-156 -18 -259 29q-79 34 -136 96q-59 64 -85 139q-28 80 -29 159zM320 439q3 -75 27 -149q24 -73 74 -132q51 -60 121 -90q24 -10 36 -14 q19 -6 31 -9q9 -2 29 -4q5 0 13.5 -0.5t12.5 -1.5q7 -1 22 1l20 4q10 2 16 4q2 1 5 1.5t5 1.5t3 1t5 1.5t6 2.5l7 4q53 25 154 85l64 36q27 15 36 18q7 3 15 10q8 8 17 22q11 20 17 63q5 34 5 73q0 15 -2 85t-2 73q0 7 -2 201q-2 180 -1 225l-1 -1q-31 -1 -80 -9 q-43 -7 -87 -22q-52 -18 -83 -30q-53 -21 -110 -44q-102 -41 -128 -51q-21 -10 -54 -22l-16 -6t-13 -5t-8 -3q-11 -4 -21 -10q-13 -8 -20 -15q-12 -12 -22 -23q-46 -51 -70 -122q-24 -72 -21 -149zM481 2016l63 60h1q5 5 21 19q8 7 23 22l19 19l355 67q-29 -29 -64 -61 q-55 -50 -64 -59z" />
<glyph unicode="&#xe2;" horiz-adv-x="1730" d="M18 340q-2 84 29 164q32 83 94 150q31 34 78 66q48 32 104 59q80 38 90 42q18 8 81 31q10 5 14 6t37 15.5t63 26.5q121 49 134 54q59 23 145 51q96 31 167 47q2 88 2 127q0 63 -15 129q-15 67 -42 116q-35 61 -85 102q-55 45 -106 63q-62 22 -106 27q-51 6 -96 0h-6h-5 h-1q-1 -1 -2 -1t-1.5 -0.5t-1.5 -0.5h-1h-1q-1 -1 -2 -1h-3l-2 -1h-1h-1h-1h-1h-1h-1l-1 -1h-1h-1q0 -1 -1 -1h-2l-2 -1h-2v-1h-1h-2v-1h-2v-1h-1h-2h-1v-1h-1h-1h-1l-1 -2q-1 -1 -2 -1h-2q-1 0 -1 -1l-2 -1l-3 -3h-1h-1h-2v-2q-51 -30 -106 -91q-57 -63 -80 -136 q-6 -2 -29.5 -9t-41.5 -13t-42 -13t-30 -9q-5 -1 -18.5 -5t-28 -8.5t-28.5 -8.5q-51 -16 -70 -21q64 189 291 320q10 6 15 8q3 2 9 5l8 4q10 5 15 8t17 9q15 6 17 7q9 5 18 8l18 8q4 2 12.5 5.5t12.5 5.5q10 5 19 8q12 4 19 7q20 7 21 8q18 6 26 8q9 3 21 6q2 1 9 3.5 t11 3.5t11.5 3t11.5 3l24 6q3 1 8.5 3t8.5 2q18 3 22 4l31 6q3 0 9.5 1t9.5 2q3 0 8 0.5t8 1.5q369 48 516 -212q12 -19 21 -42q11 -29 16 -49q2 -10 6 -25t5 -20q4 -19 6 -51q0 -6 4 -47q2 -22 2 -52v-46v-9v-18.5v-21.5q-1 -25 -1 -45q-1 -2 -1.5 -4.5t-0.5 -4.5 q-3 -73 0 -239q3 -197 3 -240q0 -20 3 -71q1 -20 4 -85q2 -35 -6 -80q-7 -43 -28 -78q-8 -14 -26 -34q-11 -12 -37 -32q-12 -9 -28 -20l141 49q6 -56 20 -90q15 -38 31 -61t48 -36t53 -17q23 -5 62 -3q32 1 61 7q8 2 29.5 5.5t34.5 5.5l-132 -119q-47 -9 -108 -17 q-43 -5 -99 -7q-43 -1 -90 6q-36 6 -76 23q-38 17 -62 42q-25 27 -43 68q-14 31 -19 61q-138 -83 -227 -122q-174 -79 -329 -97q-156 -18 -259 29q-79 34 -136 96q-59 64 -85 139q-28 80 -29 159zM280 2042l127 121l354 67q41 9 63 3l357 -76q-24 -12 -67.5 -33.5 t-59.5 -29.5l-127 -64l-335 71zM320 439q3 -75 27 -149q24 -73 74 -132q51 -60 121 -90q24 -10 36 -14q19 -6 31 -9q9 -2 29 -4q5 0 13.5 -0.5t12.5 -1.5q7 -1 22 1l20 4q10 2 16 4q2 1 5 1.5t5 1.5t3 1t5 1.5t6 2.5l7 4q53 25 154 85l64 36q27 15 36 18q7 3 15 10 q8 8 17 22q11 20 17 63q5 34 5 73q0 15 -2 85t-2 73q0 7 -2 201q-2 180 -1 225l-1 -1q-31 -1 -80 -9q-43 -7 -87 -22q-52 -18 -83 -30q-53 -21 -110 -44q-102 -41 -128 -51q-21 -10 -54 -22l-16 -6t-13 -5t-8 -3q-11 -4 -21 -10q-13 -8 -20 -15q-12 -12 -22 -23 q-46 -51 -70 -122q-24 -72 -21 -149z" />
<glyph unicode="&#xe3;" horiz-adv-x="1730" d="M18 340q-2 84 29 164q32 83 94 150q31 34 78 66q48 32 104 59q80 38 90 42q18 8 81 31q10 5 14 6t37 15.5t63 26.5q121 49 134 54q59 23 145 51q96 31 167 47q2 88 2 127q0 63 -15 129q-15 67 -42 116q-35 61 -85 102q-55 45 -106 63q-62 22 -106 27q-51 6 -96 0h-6h-5 h-1q-1 -1 -2 -1t-1.5 -0.5t-1.5 -0.5h-1h-1q-1 -1 -2 -1h-3l-2 -1h-1h-1h-1h-1h-1h-1l-1 -1h-1h-1q0 -1 -1 -1h-2l-2 -1h-2v-1h-1h-2v-1h-2v-1h-1h-2h-1v-1h-1h-1h-1l-1 -2q-1 -1 -2 -1h-2q-1 0 -1 -1l-2 -1l-3 -3h-1h-1h-2v-2q-51 -30 -106 -91q-57 -63 -80 -136 q-6 -2 -29.5 -9t-41.5 -13t-42 -13t-30 -9q-5 -1 -18.5 -5t-28 -8.5t-28.5 -8.5q-51 -16 -70 -21q64 189 291 320q10 6 15 8q3 2 9 5l8 4q10 5 15 8t17 9q15 6 17 7q9 5 18 8l18 8q4 2 12.5 5.5t12.5 5.5q10 5 19 8q12 4 19 7q20 7 21 8q18 6 26 8q9 3 21 6q2 1 9 3.5 t11 3.5t11.5 3t11.5 3l24 6q3 1 8.5 3t8.5 2q18 3 22 4l31 6q3 0 9.5 1t9.5 2q3 0 8 0.5t8 1.5q369 48 516 -212q12 -19 21 -42q11 -29 16 -49q2 -10 6 -25t5 -20q4 -19 6 -51q0 -6 4 -47q2 -22 2 -52v-46v-9v-18.5v-21.5q-1 -25 -1 -45q-1 -2 -1.5 -4.5t-0.5 -4.5 q-3 -73 0 -239q3 -197 3 -240q0 -20 3 -71q1 -20 4 -85q2 -35 -6 -80q-7 -43 -28 -78q-8 -14 -26 -34q-11 -12 -37 -32q-12 -9 -28 -20l141 49q6 -56 20 -90q15 -38 31 -61t48 -36t53 -17q23 -5 62 -3q32 1 61 7q8 2 29.5 5.5t34.5 5.5l-132 -119q-47 -9 -108 -17 q-43 -5 -99 -7q-43 -1 -90 6q-36 6 -76 23q-38 17 -62 42q-25 27 -43 68q-14 31 -19 61q-138 -83 -227 -122q-174 -79 -329 -97q-156 -18 -259 29q-79 34 -136 96q-59 64 -85 139q-28 80 -29 159zM320 439q3 -75 27 -149q24 -73 74 -132q51 -60 121 -90q24 -10 36 -14 q19 -6 31 -9q9 -2 29 -4q5 0 13.5 -0.5t12.5 -1.5q7 -1 22 1l20 4q10 2 16 4q2 1 5 1.5t5 1.5t3 1t5 1.5t6 2.5l7 4q53 25 154 85l64 36q27 15 36 18q7 3 15 10q8 8 17 22q11 20 17 63q5 34 5 73q0 15 -2 85t-2 73q0 7 -2 201q-2 180 -1 225l-1 -1q-31 -1 -80 -9 q-43 -7 -87 -22q-52 -18 -83 -30q-53 -21 -110 -44q-102 -41 -128 -51q-21 -10 -54 -22l-16 -6t-13 -5t-8 -3q-11 -4 -21 -10q-13 -8 -20 -15q-12 -12 -22 -23q-46 -51 -70 -122q-24 -72 -21 -149zM419 2097q7 4 63 32l62 31v2q7 4 63 32q50 25 63 32q18 -4 43.5 -8.5 t65 -12t68.5 -13.5q32 -6 94 -18t84 -16l-65 -32q-16 -8 -36.5 -18.5t-24.5 -12.5q-7 -3 -63 -31q-42 -21 -63 -33q-11 2 -74 13.5t-110 20.5q-31 6 -69.5 13t-62 11.5t-38.5 7.5z" />
<glyph unicode="&#xe4;" horiz-adv-x="1730" d="M18 340q-2 84 29 164q32 83 94 150q31 34 78 66q48 32 104 59q80 38 90 42q18 8 81 31q10 5 14 6t37 15.5t63 26.5q121 49 134 54q59 23 145 51q96 31 167 47q2 88 2 127q0 63 -15 129q-15 67 -42 116q-35 61 -85 102q-55 45 -106 63q-62 22 -106 27q-51 6 -96 0h-6h-5 h-1q-1 -1 -2 -1t-1.5 -0.5t-1.5 -0.5h-1h-1q-1 -1 -2 -1h-3l-2 -1h-1h-1h-1h-1h-1h-1l-1 -1h-1h-1q0 -1 -1 -1h-2l-2 -1h-2v-1h-1h-2v-1h-2v-1h-1h-2h-1v-1h-1h-1h-1l-1 -2q-1 -1 -2 -1h-2q-1 0 -1 -1l-2 -1l-3 -3h-1h-1h-2v-2q-51 -30 -106 -91q-57 -63 -80 -136 q-6 -2 -29.5 -9t-41.5 -13t-42 -13t-30 -9q-5 -1 -18.5 -5t-28 -8.5t-28.5 -8.5q-51 -16 -70 -21q64 189 291 320q10 6 15 8q3 2 9 5l8 4q10 5 15 8t17 9q15 6 17 7q9 5 18 8l18 8q4 2 12.5 5.5t12.5 5.5q10 5 19 8q12 4 19 7q20 7 21 8q18 6 26 8q9 3 21 6q2 1 9 3.5 t11 3.5t11.5 3t11.5 3l24 6q3 1 8.5 3t8.5 2q18 3 22 4l31 6q3 0 9.5 1t9.5 2q3 0 8 0.5t8 1.5q369 48 516 -212q12 -19 21 -42q11 -29 16 -49q2 -10 6 -25t5 -20q4 -19 6 -51q0 -6 4 -47q2 -22 2 -52v-46v-9v-18.5v-21.5q-1 -25 -1 -45q-1 -2 -1.5 -4.5t-0.5 -4.5 q-3 -73 0 -239q3 -197 3 -240q0 -20 3 -71q1 -20 4 -85q2 -35 -6 -80q-7 -43 -28 -78q-8 -14 -26 -34q-11 -12 -37 -32q-12 -9 -28 -20l141 49q6 -56 20 -90q15 -38 31 -61t48 -36t53 -17q23 -5 62 -3q32 1 61 7q8 2 29.5 5.5t34.5 5.5l-132 -119q-47 -9 -108 -17 q-43 -5 -99 -7q-43 -1 -90 6q-36 6 -76 23q-38 17 -62 42q-25 27 -43 68q-14 31 -19 61q-138 -83 -227 -122q-174 -79 -329 -97q-156 -18 -259 29q-79 34 -136 96q-59 64 -85 139q-28 80 -29 159zM320 439q3 -75 27 -149q24 -73 74 -132q51 -60 121 -90q24 -10 36 -14 q19 -6 31 -9q9 -2 29 -4q5 0 13.5 -0.5t12.5 -1.5q7 -1 22 1l20 4q10 2 16 4q2 1 5 1.5t5 1.5t3 1t5 1.5t6 2.5l7 4q53 25 154 85l64 36q27 15 36 18q7 3 15 10q8 8 17 22q11 20 17 63q5 34 5 73q0 15 -2 85t-2 73q0 7 -2 201q-2 180 -1 225l-1 -1q-31 -1 -80 -9 q-43 -7 -87 -22q-52 -18 -83 -30q-53 -21 -110 -44q-102 -41 -128 -51q-21 -10 -54 -22l-16 -6t-13 -5t-8 -3q-11 -4 -21 -10q-13 -8 -20 -15q-12 -12 -22 -23q-46 -51 -70 -122q-24 -72 -21 -149zM465 1931v188l291 96v-86l257 84v-188l-291 -96v87z" />
<glyph unicode="&#xe5;" horiz-adv-x="1730" d="M18 340q-2 84 29 164q32 83 94 150q31 34 78 66q48 32 104 59q80 38 90 42q18 8 81 31q10 5 14 6t37 15.5t63 26.5q121 49 134 54q59 23 145 51q96 31 167 47q2 88 2 127q0 63 -15 129q-15 67 -42 116q-35 61 -85 102q-55 45 -106 63q-62 22 -106 27q-51 6 -96 0h-6h-5 h-1q-1 -1 -2 -1t-1.5 -0.5t-1.5 -0.5h-1h-1q-1 -1 -2 -1h-3l-2 -1h-1h-1h-1h-1h-1h-1l-1 -1h-1h-1q0 -1 -1 -1h-2l-2 -1h-2v-1h-1h-2v-1h-2v-1h-1h-2h-1v-1h-1h-1h-1l-1 -2q-1 -1 -2 -1h-2q-1 0 -1 -1l-2 -1l-3 -3h-1h-1h-2v-2q-51 -30 -106 -91q-57 -63 -80 -136 q-6 -2 -29.5 -9t-41.5 -13t-42 -13t-30 -9q-5 -1 -18.5 -5t-28 -8.5t-28.5 -8.5q-51 -16 -70 -21q64 189 291 320q10 6 15 8q3 2 9 5l8 4q10 5 15 8t17 9q15 6 17 7q9 5 18 8l18 8q4 2 12.5 5.5t12.5 5.5q10 5 19 8q12 4 19 7q20 7 21 8q18 6 26 8q9 3 21 6q2 1 9 3.5 t11 3.5t11.5 3t11.5 3l24 6q3 1 8.5 3t8.5 2q18 3 22 4l31 6q3 0 9.5 1t9.5 2q3 0 8 0.5t8 1.5q369 48 516 -212q12 -19 21 -42q11 -29 16 -49q2 -10 6 -25t5 -20q4 -19 6 -51q0 -6 4 -47q2 -22 2 -52v-46v-9v-18.5v-21.5q-1 -25 -1 -45q-1 -2 -1.5 -4.5t-0.5 -4.5 q-3 -73 0 -239q3 -197 3 -240q0 -20 3 -71q1 -20 4 -85q2 -35 -6 -80q-7 -43 -28 -78q-8 -14 -26 -34q-11 -12 -37 -32q-12 -9 -28 -20l141 49q6 -56 20 -90q15 -38 31 -61t48 -36t53 -17q23 -5 62 -3q32 1 61 7q8 2 29.5 5.5t34.5 5.5l-132 -119q-47 -9 -108 -17 q-43 -5 -99 -7q-43 -1 -90 6q-36 6 -76 23q-38 17 -62 42q-25 27 -43 68q-14 31 -19 61q-138 -83 -227 -122q-174 -79 -329 -97q-156 -18 -259 29q-79 34 -136 96q-59 64 -85 139q-28 80 -29 159zM320 439q3 -75 27 -149q24 -73 74 -132q51 -60 121 -90q24 -10 36 -14 q19 -6 31 -9q9 -2 29 -4q5 0 13.5 -0.5t12.5 -1.5q7 -1 22 1l20 4q10 2 16 4q2 1 5 1.5t5 1.5t3 1t5 1.5t6 2.5l7 4q53 25 154 85l64 36q27 15 36 18q7 3 15 10q8 8 17 22q11 20 17 63q5 34 5 73q0 15 -2 85t-2 73q0 7 -2 201q-2 180 -1 225l-1 -1q-31 -1 -80 -9 q-43 -7 -87 -22q-52 -18 -83 -30q-53 -21 -110 -44q-102 -41 -128 -51q-21 -10 -54 -22l-16 -6t-13 -5t-8 -3q-11 -4 -21 -10q-13 -8 -20 -15q-12 -12 -22 -23q-46 -51 -70 -122q-24 -72 -21 -149z" />
<glyph unicode="&#xe6;" horiz-adv-x="2633" d="M18 339q-2 85 29 165q31 82 94 149q31 35 78 66q48 32 104 59q80 38 90 42q48 20 81 32q6 3 14 5q4 2 37 16t63 26q121 49 134 54q59 23 145 51q96 31 167 47l-10 -3q2 88 2 128q0 62 -15 128q-16 69 -42 117q-35 61 -85 102q-52 43 -106 62q-62 22 -106 27q-51 6 -96 0 h-6h-5h-1q-1 -1 -2 -1t-1.5 -0.5t-1.5 -0.5h-1h-1q-1 -1 -2 -1h-3h-2h-1h-1l-1 -1h-1h-1h-1v-1h-1h-1h-1h-1h-1h-1l-2 -2h-2h-1h-1l-1 -2h-2v-1h-1h-1h-1h-1v-1h-1h-1h-1l-1 -1q-1 -1 -2 -1h-2l-2 -2v-1h-1l-1 -1q-1 -1 -2 -1h-1l-1 -1h-1l-1 -1q-51 -30 -106 -91 q-56 -62 -80 -137q-6 -2 -29.5 -9t-41.5 -13t-42 -12.5t-30 -8.5q-61 -18 -74 -22q-45 -14 -71 -21q63 188 291 319q10 6 15 8q3 2 9 5l8 4q3 1 5.5 2.5t5 3.5t4.5 3q3 2 9 4.5t8 3.5q15 6 17 7q9 5 18 8l18 9q4 2 12.5 5t12.5 5q10 5 19 8q12 4 19 7q12 4 21 9q6 2 26 7 l21 7q6 2 20 6l24 6q4 1 11.5 3.5t11.5 3.5q3 0 9 2t9 2t21 5l31 6q3 1 9.5 1t9.5 1q6 1 16 3q369 48 516 -212q2 -3 5.5 -9.5t5.5 -9.5q9 8 34 29q61 49 122 84q3 1 7.5 3.5t5.5 3.5q3 2 10.5 6t9.5 5q61 31 127 53q4 1 12 3.5t12 4.5q73 24 142 36q130 21 243 7 q112 -14 201 -61q90 -48 153 -120q61 -70 95 -165q33 -94 32 -198q-1 -89 -73 -164q-56 -57 -166 -107q-76 -33 -160 -50q-101 -20 -204 -26q-106 -6 -183 -3q-119 5 -174 8q-83 5 -153 5q-8 0 -38 2q-2 -16 -4 -46q1 -37 1 -96q6 -79 28 -164q16 -66 51 -139 q33 -70 72 -120q43 -56 89 -99q53 -49 99 -78q48 -30 105 -55q52 -23 106 -34q55 -11 101 -11q47 0 89 12q1 0 2.5 0.5t2.5 1.5q42 23 114 106q67 77 122 173l285 79q-5 -8 -14 -24q-26 -49 -31 -58q-14 -22 -38 -58q-29 -43 -47 -62q-32 -34 -58 -59q-36 -34 -75 -60 t-93 -54q-64 -33 -117 -53q-2 -1 -5.5 -2t-5.5 -1q-40 -15 -91 -30q-112 -31 -216 -40q-101 -9 -187 5q-78 13 -156 46q-72 31 -130 78q-57 47 -105 108q-22 29 -45 65q-20 -12 -23 -14q-7 -4 -19.5 -10.5t-16.5 -9.5q-10 -6 -26 -14q-12 -6 -13 -6q-146 -88 -241 -131 q-174 -79 -329 -97q-154 -18 -259 30q-80 35 -136 95q-59 64 -85 139q-28 80 -29 159zM320 438q3 -75 27 -149q24 -73 74 -132q53 -62 121 -91q12 -5 36 -13q19 -6 31 -9q9 -2 29 -4q17 -2 26 -3q3 0 22 2q13 2 20 3q2 0 16 5q2 1 5 1.5t5 1.5t3 1q1 1 5 2t6 2l7 4 q61 29 154 84l64 36q31 17 36 19q7 2 15 10t17 22q11 20 17 62q5 34 5 73q0 16 -2 86t-2 73q0 62 -1 113q-4 40 0 93q-2 175 -1 219l-2 -1q-39 -1 -80 -8q-38 -6 -87 -23q-73 -25 -83 -29t-26 -10.5t-40.5 -16.5t-43.5 -18q-102 -41 -128 -51q-21 -10 -54 -22 q-19 -7 -37 -13q-7 -2 -21 -11q-16 -10 -20 -14q-2 -2 -22 -24q-46 -51 -70 -122q-24 -72 -21 -148zM1333 986l4 2v-2q69 16 123 18q62 2 94 -3q34 -5 41 -5q61 0 149 -3q26 -1 77.5 -3t74.5 -3q86 -2 139 -2q73 0 126 6q40 46 42 114q2 84 -25 161q-26 76 -74 136 q-47 59 -107 104q-63 47 -123 73q-65 28 -126 38q-63 11 -111 3q-2 0 -4.5 -0.5t-4.5 -1.5q-1 0 -2 -1q-2 0 -3 -1t-4 -3q-67 -37 -125 -133q-58 -98 -96 -222q-38 -127 -56 -257l-9 -2v-13z" />
<glyph unicode="&#xe7;" horiz-adv-x="1612" d="M23 802q3 112 28 228q25 117 68 215q46 107 108 186q45 60 92 101q46 41 122 86q61 35 134 63q3 1 12 5t14 6q82 30 150 42q3 1 53 9q395 53 656 -267q-32 -14 -79 -33q-55 -22 -63 -24q-30 -12 -70 -27t-72 -29q-72 87 -174 150q-108 67 -196 89q-94 24 -165 15l-12 -3 h-1h-1l-1 -2h-2q-19 -11 -56 -43q-38 -33 -66 -72q-56 -74 -97 -172q-41 -100 -62 -204q-20 -104 -22 -221q-1 -101 17 -223q16 -109 57 -211t99 -183q56 -78 143 -140q84 -60 188 -84q123 -30 259 5h1q38 20 107 98q69 77 114 176l286 81q-28 -59 -57 -107q-15 -24 -45 -65 q-18 -24 -55 -65q-37 -40 -75 -67q-38 -26 -102 -61q-67 -36 -134 -62q-60 -22 -107 -34q-261 -70 -450 -24q-113 27 -207 89t-156 145q-61 82 -106 188q-45 107 -61 216q-17 115 -14 230zM318 -431l253 127q76 -14 122 -18q22 43 29 106q24 8 75 24.5t69 22.5l1 -3 q54 16 146 47q-1 -8 -5 -32q0 -3 -1.5 -13t-2.5 -17q-4 -23 -7 -30q-1 -3 -5 -12t-6 -14q-8 -18 -16 -27q-1 -1 -9 -10.5t-13 -15.5q-14 -15 -30 -27q-13 -9 -39 -25q-29 -18 -51 -29q-51 -25 -96 -40q-48 -16 -101 -28q-43 -9 -84 -13q-35 -3 -72 0q-40 3 -58 6 q-14 2 -53 11q-42 9 -46 10z" />
<glyph unicode="&#xe8;" horiz-adv-x="1598" d="M24 911q0 4 2.5 20.5t3.5 28.5q3 19 7 53.5t6 47.5q9 55 19 100q14 65 30 105q20 50 44 96q27 53 65 97q37 43 91 87q61 50 123 84q4 2 12.5 6t12.5 6q13 6 16 9q60 29 117 50q18 6 26 9q41 15 87 25q4 1 11.5 2.5t10.5 1.5t10.5 2t11.5 3q165 31 302 1t234 -106 q95 -74 148 -188q52 -110 50 -244q-1 -89 -73 -164q-59 -59 -166 -107q-75 -32 -161 -50q-108 -22 -204 -27t-183 -2q-119 5 -174 8q-82 5 -153 5q-6 0 -36 2q-19 -126 26 -306q18 -74 51 -142q35 -72 74 -122q42 -54 90 -99q52 -48 101 -78q55 -33 107 -54q56 -23 107 -33 q52 -10 100 -9q49 2 86 13q42 23 114 106q67 77 122 173l285 79q-2 -3 -3.5 -6t-4.5 -8.5t-5 -9.5q-20 -39 -32 -58q-14 -22 -38 -58q-29 -43 -47 -62q-41 -43 -58 -60q-36 -34 -75 -60q-31 -20 -93 -53q-60 -32 -116 -53q-2 0 -5.5 -1t-5.5 -2q-133 -47 -242 -64 q-112 -17 -208 -8q-90 9 -173 41q-79 31 -143 78q-60 44 -113 110q-54 66 -86 131q-35 71 -60 146q-10 35 -17 61q-56 224 -15 358q6 18 17 36q11 17 37 36l56 24q16 7 32.5 14t31 14t19.5 9l82 37h-5q69 17 124 18q63 2 94 -3q32 -5 41 -5q60 0 147 -3q25 -1 77 -3t75 -3 q86 -2 139 -2q82 0 126 5q40 46 42 115q2 88 -26 163q-29 80 -75 136q-45 55 -107 103q-58 45 -125 73q-62 26 -126 37q-60 10 -110 1h-3h-2h-2h-1v-2h-1l-6 -3q0 -1 -2 -1t-2 -1q-67 -38 -124 -136t-93 -220q-34 -117 -53 -255zM516 2096q16 7 63 32q39 21 63 32l-1 2 q6 3 14.5 7t23 11.5t24.5 12.5q50 25 65 32q22 -4 84 -16t94 -18q148 -28 175 -34q-51 -26 -65 -33q-42 -22 -60 -30q-16 -8 -62 -32q-43 -23 -64 -32q-45 7 -177 32q-138 26 -177 34z" />
<glyph unicode="&#xe9;" horiz-adv-x="1598" d="M24 911q0 4 2.5 20.5t3.5 28.5q3 19 7 53.5t6 47.5q9 55 19 100q14 65 30 105q20 50 44 96q27 53 65 97q37 43 91 87q61 50 123 84q4 2 12.5 6t12.5 6q13 6 16 9q60 29 117 50q18 6 26 9q41 15 87 25q4 1 11.5 2.5t10.5 1.5t10.5 2t11.5 3q165 31 302 1t234 -106 q95 -74 148 -188q52 -110 50 -244q-1 -89 -73 -164q-59 -59 -166 -107q-75 -32 -161 -50q-108 -22 -204 -27t-183 -2q-119 5 -174 8q-82 5 -153 5q-6 0 -36 2q-19 -126 26 -306q18 -74 51 -142q35 -72 74 -122q42 -54 90 -99q52 -48 101 -78q55 -33 107 -54q56 -23 107 -33 q52 -10 100 -9q49 2 86 13q42 23 114 106q67 77 122 173l285 79q-2 -3 -3.5 -6t-4.5 -8.5t-5 -9.5q-20 -39 -32 -58q-14 -22 -38 -58q-29 -43 -47 -62q-41 -43 -58 -60q-36 -34 -75 -60q-31 -20 -93 -53q-60 -32 -116 -53q-2 0 -5.5 -1t-5.5 -2q-133 -47 -242 -64 q-112 -17 -208 -8q-90 9 -173 41q-79 31 -143 78q-60 44 -113 110q-54 66 -86 131q-35 71 -60 146q-10 35 -17 61q-56 224 -15 358q6 18 17 36q11 17 37 36l56 24q16 7 32.5 14t31 14t19.5 9l82 37h-5q69 17 124 18q63 2 94 -3q32 -5 41 -5q60 0 147 -3q25 -1 77 -3t75 -3 q86 -2 139 -2q82 0 126 5q40 46 42 115q2 88 -26 163q-29 80 -75 136q-45 55 -107 103q-58 45 -125 73q-62 26 -126 37q-60 10 -110 1h-3h-2h-2h-1v-2h-1l-6 -3q0 -1 -2 -1t-2 -1q-67 -38 -124 -136t-93 -220q-34 -117 -53 -255zM537 2016q5 4 13 12t23.5 22.5t27.5 25.5v-1 q53 49 64 61l354 66q-20 -19 -64 -61q-44 -40 -63 -59z" />
<glyph unicode="&#xea;" horiz-adv-x="1598" d="M24 911q0 4 2.5 20.5t3.5 28.5q3 19 7 53.5t6 47.5q9 55 19 100q14 65 30 105q20 50 44 96q27 53 65 97q37 43 91 87q61 50 123 84q4 2 12.5 6t12.5 6q13 6 16 9q60 29 117 50q18 6 26 9q41 15 87 25q4 1 11.5 2.5t10.5 1.5t10.5 2t11.5 3q165 31 302 1t234 -106 q95 -74 148 -188q52 -110 50 -244q-1 -89 -73 -164q-59 -59 -166 -107q-75 -32 -161 -50q-108 -22 -204 -27t-183 -2q-119 5 -174 8q-82 5 -153 5q-6 0 -36 2q-19 -126 26 -306q18 -74 51 -142q35 -72 74 -122q42 -54 90 -99q52 -48 101 -78q55 -33 107 -54q56 -23 107 -33 q52 -10 100 -9q49 2 86 13q42 23 114 106q67 77 122 173l285 79q-2 -3 -3.5 -6t-4.5 -8.5t-5 -9.5q-20 -39 -32 -58q-14 -22 -38 -58q-29 -43 -47 -62q-41 -43 -58 -60q-36 -34 -75 -60q-31 -20 -93 -53q-60 -32 -116 -53q-2 0 -5.5 -1t-5.5 -2q-133 -47 -242 -64 q-112 -17 -208 -8q-90 9 -173 41q-79 31 -143 78q-60 44 -113 110q-54 66 -86 131q-35 71 -60 146q-10 35 -17 61q-56 224 -15 358q6 18 17 36q11 17 37 36l56 24q16 7 32.5 14t31 14t19.5 9l82 37h-5q69 17 124 18q63 2 94 -3q32 -5 41 -5q60 0 147 -3q25 -1 77 -3t75 -3 q86 -2 139 -2q82 0 126 5q40 46 42 115q2 88 -26 163q-29 80 -75 136q-45 55 -107 103q-58 45 -125 73q-62 26 -126 37q-60 10 -110 1h-3h-2h-2h-1v-2h-1l-6 -3q0 -1 -2 -1t-2 -1q-67 -38 -124 -136t-93 -220q-34 -117 -53 -255zM357 2042l127 120l354 67q42 9 64 3l356 -76 q-4 -3 -63 -32q-10 -5 -24.5 -12.5t-24 -12t-15.5 -7.5q-8 -4 -30.5 -15t-34.5 -17q-48 -24 -61 -30l-335 70z" />
<glyph unicode="&#xeb;" horiz-adv-x="1598" d="M24 911q0 4 2.5 20.5t3.5 28.5q3 19 7 53.5t6 47.5q9 55 19 100q14 65 30 105q20 50 44 96q27 53 65 97q37 43 91 87q61 50 123 84q4 2 12.5 6t12.5 6q13 6 16 9q60 29 117 50q18 6 26 9q41 15 87 25q4 1 11.5 2.5t10.5 1.5t10.5 2t11.5 3q165 31 302 1t234 -106 q95 -74 148 -188q52 -110 50 -244q-1 -89 -73 -164q-59 -59 -166 -107q-75 -32 -161 -50q-108 -22 -204 -27t-183 -2q-119 5 -174 8q-82 5 -153 5q-6 0 -36 2q-19 -126 26 -306q18 -74 51 -142q35 -72 74 -122q42 -54 90 -99q52 -48 101 -78q55 -33 107 -54q56 -23 107 -33 q52 -10 100 -9q49 2 86 13q42 23 114 106q67 77 122 173l285 79q-2 -3 -3.5 -6t-4.5 -8.5t-5 -9.5q-20 -39 -32 -58q-14 -22 -38 -58q-29 -43 -47 -62q-41 -43 -58 -60q-36 -34 -75 -60q-31 -20 -93 -53q-60 -32 -116 -53q-2 0 -5.5 -1t-5.5 -2q-133 -47 -242 -64 q-112 -17 -208 -8q-90 9 -173 41q-79 31 -143 78q-60 44 -113 110q-54 66 -86 131q-35 71 -60 146q-10 35 -17 61q-56 224 -15 358q6 18 17 36q11 17 37 36l56 24q16 7 32.5 14t31 14t19.5 9l82 37h-5q69 17 124 18q63 2 94 -3q32 -5 41 -5q60 0 147 -3q25 -1 77 -3t75 -3 q86 -2 139 -2q82 0 126 5q40 46 42 115q2 88 -26 163q-29 80 -75 136q-45 55 -107 103q-58 45 -125 73q-62 26 -126 37q-60 10 -110 1h-3h-2h-2h-1v-2h-1l-6 -3q0 -1 -2 -1t-2 -1q-67 -38 -124 -136t-93 -220q-34 -117 -53 -255zM472 1939v188l291 96v-87l257 85v-189 l-290 -96v87z" />
<glyph unicode="&#xec;" horiz-adv-x="1075" d="M18 -66l216 131q96 0 113 1q2 2 5.5 6t5.5 6q6 9 18 29q8 14 13 37q1 7 2.5 13.5l3 13t2.5 9.5q2 10 4 45q0 8 0.5 17t1 14t0.5 8v46v42v620q0 50 5 124q7 100 8 152q2 63 -9 135t-39 111q-18 25 -34 38q-18 15 -40 24q-19 8 -43 15q-18 5 -48 7q-19 1 -50 1 q-32 0 -55 -1q-46 -2 -55 -2q30 17 109 65l-7 -8q80 48 108 65q23 0 51 1q42 1 61 0t61 -3q37 -1 67 -8q24 -5 59 -17q32 -11 56 -30q28 -23 42 -43q32 -45 44 -119q12 -79 11 -141q-1 -29 -9 -152q-6 -88 -6 -123v-620q0 -1 2 -57q2 -52 1 -65q-2 -36 -5 -57 q-4 -32 -19 -65l-12 -24l29 12q45 -39 89 -66q43 -26 87 -38q56 -15 86 -17q42 -3 105 -3l-216 -131q-146 0 -242 30q-63 20 -121 59q-48 -23 -87 -37q-49 -17 -106 -31q-53 -13 -92 -17q-24 -3 -68 -5q-16 -1 -60 1q-9 0 -19.5 0.5t-15.5 1t-8 0.5zM88 2088q4 3 63 32 q50 25 64 31l-1 3q6 3 14.5 7t23 11.5t24.5 12.5t24.5 12.5t23.5 12t16 7.5q12 -2 176 -34q32 -6 94 -18t84 -16q-16 -7 -63 -32q-39 -21 -63 -32q-6 -3 -14.5 -7t-23 -11.5t-24.5 -12.5q-56 -28 -63 -32q-48 7 -177 32q-32 6 -94 18t-84 16z" />
<glyph unicode="&#xed;" horiz-adv-x="1075" d="M18 -66l216 131q96 0 113 1q2 2 5.5 6t5.5 6q6 9 18 29q8 14 13 37q1 7 2.5 13.5l3 13t2.5 9.5q2 10 4 45q0 8 0.5 17t1 14t0.5 8v46v42v620q0 50 5 124q7 100 8 152q2 63 -9 135t-39 111q-18 25 -34 38q-18 15 -40 24q-19 8 -43 15q-18 5 -48 7q-19 1 -50 1 q-32 0 -55 -1q-46 -2 -55 -2q30 17 109 65l-7 -8q80 48 108 65q23 0 51 1q42 1 61 0t61 -3q37 -1 67 -8q24 -5 59 -17q32 -11 56 -30q28 -23 42 -43q32 -45 44 -119q12 -79 11 -141q-1 -29 -9 -152q-6 -88 -6 -123v-620q0 -1 2 -57q2 -52 1 -65q-2 -36 -5 -57 q-4 -32 -19 -65l-12 -24l29 12q45 -39 89 -66q43 -26 87 -38q56 -15 86 -17q42 -3 105 -3l-216 -131q-146 0 -242 30q-63 20 -121 59q-48 -23 -87 -37q-49 -17 -106 -31q-53 -13 -92 -17q-24 -3 -68 -5q-16 -1 -60 1q-9 0 -19.5 0.5t-15.5 1t-8 0.5zM167 1991q10 9 32 29 q15 13 34 32l-1 -3q12 9 34 31q24 24 31 30q53 8 178 32q29 6 68.5 13.5t65 12t43.5 8.5q-4 -3 -33 -30q-14 -13 -31 -30q-4 -3 -16 -14t-18 -16q-8 -7 -19 -17.5t-14 -12.5q-74 -11 -176 -31q-158 -30 -178 -34z" />
<glyph unicode="&#xee;" horiz-adv-x="1120" d="M18 2035l127 121l355 67q42 9 64 3l355 -76q-71 -35 -127 -63q-58 -29 -127 -64l-334 71zM64 -66l216 131q97 0 114 1q2 2 5.5 6t5.5 6q10 15 17 29q5 9 12 37q7 26 8 36q3 29 4 45q1 20 1 39v46v42v620q0 36 6 124q5 77 7 152q2 71 -9 135q-12 72 -39 111q-20 27 -33 38 q-18 15 -41 24q-22 9 -42 15q-17 5 -49 7q-19 1 -49 1q-32 0 -55 -1q-46 -2 -56 -2q18 12 54 33q48 28 54 32l-3 -6q14 7 54 32q44 28 53 34h51q42 2 62 0l60 -3q37 -1 67 -8q18 -4 59 -17q33 -11 57 -30q28 -22 43 -43q32 -45 44 -119q13 -81 10 -141q-3 -61 -9 -152 q-6 -88 -6 -123v-620q0 -1 2 -57q2 -52 1 -65q-1 -21 -6 -57q-5 -35 -18 -65q-8 -16 -13 -24l30 12q47 -41 88 -67q42 -26 86 -38q50 -13 87 -16q56 -4 105 -4q-7 -5 -27 -17.5t-30 -18.5q-36 -23 -50 -30q-48 -30 -109 -66q-146 0 -242 30q-63 20 -121 59q-51 -25 -86 -37 q-51 -18 -105 -31t-91 -17q-24 -3 -68 -5q-17 -1 -61 1q-9 0 -20 0.5t-16.5 1t-8.5 0.5z" />
<glyph unicode="&#xef;" horiz-adv-x="1075" d="M18 -66l216 131q96 0 113 1q2 2 5.5 6t5.5 6q6 9 18 29q8 14 13 37q1 7 2.5 13.5l3 13t2.5 9.5q2 10 4 45q0 8 0.5 17t1 14t0.5 8v46v42v620q0 50 5 124q7 100 8 152q2 63 -9 135t-39 111q-18 25 -34 38q-18 15 -40 24q-19 8 -43 15q-18 5 -48 7q-19 1 -50 1 q-32 0 -55 -1q-46 -2 -55 -2q30 17 109 65l-7 -8q80 48 108 65q23 0 51 1q42 1 61 0t61 -3q37 -1 67 -8q24 -5 59 -17q32 -11 56 -30q28 -23 42 -43q32 -45 44 -119q12 -79 11 -141q-1 -29 -9 -152q-6 -88 -6 -123v-620q0 -1 2 -57q2 -52 1 -65q-2 -36 -5 -57 q-4 -32 -19 -65l-12 -24l29 12q45 -39 89 -66q43 -26 87 -38q56 -15 86 -17q42 -3 105 -3l-216 -131q-146 0 -242 30q-63 20 -121 59q-48 -23 -87 -37q-49 -17 -106 -31q-53 -13 -92 -17q-24 -3 -68 -5q-16 -1 -60 1q-9 0 -19.5 0.5t-15.5 1t-8 0.5z" />
<glyph unicode="&#xf0;" horiz-adv-x="1689" d="M20 855q6 101 26 205q48 268 203 435q74 80 182 141q5 4 15.5 9t12.5 6q14 8 28 14q4 2 11.5 5.5t11.5 5.5q29 14 68 28q9 3 26.5 9.5t26.5 9.5q18 6 26 9q11 4 22 5q6 2 20 5.5t20 5.5q3 0 9.5 1.5t9.5 2.5l-1 -5q54 10 95 14q46 4 68 6q10 1 68 -1q9 0 17.5 -0.5t14 -1 t9.5 -1t7 -0.5h2h4q127 -9 236 -58q105 -47 178 -122q71 -72 123 -172q50 -95 76 -206t32 -222q6 -121 -5 -224q-13 -116 -38 -210q-51 -177 -148 -311q-30 -42 -57 -72q-21 -23 -74 -71q-42 -38 -112 -76q-64 -35 -151 -66q-60 -22 -107 -34q-16 -4 -24 -5 q-173 -34 -301 -20q-118 13 -223 63q-99 47 -169 119q-68 69 -120 163q-49 88 -77 192q-25 92 -36 210q-11 113 -5 214zM309 946q-4 -94 9 -210q11 -98 40 -204q26 -94 76 -187q47 -86 111 -155q63 -67 153 -113q89 -45 193 -57q75 -9 162 7q72 42 156 167q86 129 124 264 q28 104 36 204q9 108 0 218t-36 216t-75 199q-46 89 -114 165q-66 74 -156 118q-94 46 -199 55q-133 3 -160 -2h-5q-1 0 -3 -2h-4h-1h-2v-2h-2v-1h-2v-1h-1q-3 0 -4 -1v-2q-81 -46 -163 -182q-83 -138 -110 -292q-19 -103 -23 -202z" />
<glyph unicode="&#xf2;" horiz-adv-x="1689" d="M20 855q6 101 26 205q48 268 203 435q74 80 182 141q5 4 15.5 9t12.5 6q14 8 28 14q4 2 11.5 5.5t11.5 5.5q29 14 68 28q9 3 26.5 9.5t26.5 9.5q18 6 26 9q11 4 22 5q6 2 20 5.5t20 5.5q3 0 9.5 1.5t9.5 2.5l-1 -5q54 10 95 14q46 4 68 6q10 1 68 -1q9 0 17.5 -0.5t14 -1 t9.5 -1t7 -0.5h2h4q127 -9 236 -58q105 -47 178 -122q71 -72 123 -172q50 -95 76 -206t32 -222q6 -121 -5 -224q-13 -116 -38 -210q-51 -177 -148 -311q-30 -42 -57 -72q-21 -23 -74 -71q-42 -38 -112 -76q-64 -35 -151 -66q-60 -22 -107 -34q-16 -4 -24 -5 q-173 -34 -301 -20q-118 13 -223 63q-99 47 -169 119q-68 69 -120 163q-49 88 -77 192q-25 92 -36 210q-11 113 -5 214zM309 946q-4 -94 9 -210q11 -98 40 -204q26 -94 76 -187q47 -86 111 -155q63 -67 153 -113q89 -45 193 -57q75 -9 162 7q72 42 156 167q86 129 124 264 q28 104 36 204q9 108 0 218t-36 216t-75 199q-46 89 -114 165q-66 74 -156 118q-94 46 -199 55q-133 3 -160 -2h-5q-1 0 -3 -2h-4h-1h-2v-2h-2v-1h-2v-1h-1q-3 0 -4 -1v-2q-81 -46 -163 -182q-83 -138 -110 -292q-19 -103 -23 -202zM412 2091q14 8 64 33t63 31l-2 1 q14 8 64 33q12 6 34 16.5t29 14.5q26 -5 177 -34q38 -7 97.5 -18t80.5 -15q-7 -3 -27.5 -14t-34.5 -18q-10 -5 -24.5 -12t-24 -11.5t-15.5 -8.5q-16 -8 -62 -32q-47 -25 -64 -32q-11 2 -74 13.5t-110 20.5q-165 31 -171 32z" />
<glyph unicode="&#xf3;" horiz-adv-x="1689" d="M20 855q6 101 26 205q48 268 203 435q74 80 182 141q5 4 15.5 9t12.5 6q14 8 28 14q4 2 11.5 5.5t11.5 5.5q29 14 68 28q9 3 26.5 9.5t26.5 9.5q18 6 26 9q11 4 22 5q6 2 20 5.5t20 5.5q3 0 9.5 1.5t9.5 2.5l-1 -5q54 10 95 14q46 4 68 6q10 1 68 -1q9 0 17.5 -0.5t14 -1 t9.5 -1t7 -0.5h2h4q127 -9 236 -58q105 -47 178 -122q71 -72 123 -172q50 -95 76 -206t32 -222q6 -121 -5 -224q-13 -116 -38 -210q-51 -177 -148 -311q-30 -42 -57 -72q-21 -23 -74 -71q-42 -38 -112 -76q-64 -35 -151 -66q-60 -22 -107 -34q-16 -4 -24 -5 q-173 -34 -301 -20q-118 13 -223 63q-99 47 -169 119q-68 69 -120 163q-49 88 -77 192q-25 92 -36 210q-11 113 -5 214zM309 946q-4 -94 9 -210q11 -98 40 -204q26 -94 76 -187q47 -86 111 -155q63 -67 153 -113q89 -45 193 -57q75 -9 162 7q72 42 156 167q86 129 124 264 q28 104 36 204q9 108 0 218t-36 216t-75 199q-46 89 -114 165q-66 74 -156 118q-94 46 -199 55q-133 3 -160 -2h-5q-1 0 -3 -2h-4h-1h-2v-2h-2v-1h-2v-1h-1q-3 0 -4 -1v-2q-81 -46 -163 -182q-83 -138 -110 -292q-19 -103 -23 -202zM475 2011l64 60q38 35 64 61l355 66 q-42 -39 -65 -61q-55 -53 -63 -60z" />
<glyph unicode="&#xf4;" horiz-adv-x="1689" d="M20 855q6 101 26 205q48 268 203 435q74 80 182 141q5 4 15.5 9t12.5 6q14 8 28 14q4 2 11.5 5.5t11.5 5.5q29 14 68 28q9 3 26.5 9.5t26.5 9.5q18 6 26 9q11 4 22 5q6 2 20 5.5t20 5.5q3 0 9.5 1.5t9.5 2.5l-1 -5q54 10 95 14q46 4 68 6q10 1 68 -1q9 0 17.5 -0.5t14 -1 t9.5 -1t7 -0.5h2h4q127 -9 236 -58q105 -47 178 -122q71 -72 123 -172q50 -95 76 -206t32 -222q6 -121 -5 -224q-13 -116 -38 -210q-51 -177 -148 -311q-30 -42 -57 -72q-21 -23 -74 -71q-42 -38 -112 -76q-64 -35 -151 -66q-60 -22 -107 -34q-16 -4 -24 -5 q-173 -34 -301 -20q-118 13 -223 63q-99 47 -169 119q-68 69 -120 163q-49 88 -77 192q-25 92 -36 210q-11 113 -5 214zM309 946q-4 -94 9 -210q11 -98 40 -204q26 -94 76 -187q47 -86 111 -155q63 -67 153 -113q89 -45 193 -57q75 -9 162 7q72 42 156 167q86 129 124 264 q28 104 36 204q9 108 0 218t-36 216t-75 199q-46 89 -114 165q-66 74 -156 118q-94 46 -199 55q-133 3 -160 -2h-5q-1 0 -3 -2h-4h-1h-2v-2h-2v-1h-2v-1h-1q-3 0 -4 -1v-2q-81 -46 -163 -182q-83 -138 -110 -292q-19 -103 -23 -202zM467 2037l129 120l354 67q41 9 63 3 l356 -76q-26 -15 -63 -32q-52 -24 -64 -31q-9 -4 -59 -29q-17 -8 -40 -19.5l-29 -14.5l-334 70z" />
<glyph unicode="&#xf5;" horiz-adv-x="1689" d="M20 855q6 101 26 205q48 268 203 435q74 80 182 141q5 4 15.5 9t12.5 6q14 8 28 14q4 2 11.5 5.5t11.5 5.5q29 14 68 28q9 3 26.5 9.5t26.5 9.5q18 6 26 9q11 4 22 5q6 2 20 5.5t20 5.5q3 0 9.5 1.5t9.5 2.5l-1 -5q54 10 95 14q46 4 68 6q10 1 68 -1q9 0 17.5 -0.5t14 -1 t9.5 -1t7 -0.5h2h4q127 -9 236 -58q105 -47 178 -122q71 -72 123 -172q50 -95 76 -206t32 -222q6 -121 -5 -224q-13 -116 -38 -210q-51 -177 -148 -311q-30 -42 -57 -72q-21 -23 -74 -71q-42 -38 -112 -76q-64 -35 -151 -66q-60 -22 -107 -34q-16 -4 -24 -5 q-173 -34 -301 -20q-118 13 -223 63q-99 47 -169 119q-68 69 -120 163q-49 88 -77 192q-25 92 -36 210q-11 113 -5 214zM309 946q-4 -94 9 -210q11 -98 40 -204q26 -94 76 -187q47 -86 111 -155q63 -67 153 -113q89 -45 193 -57q75 -9 162 7q72 42 156 167q86 129 124 264 q28 104 36 204q9 108 0 218t-36 216t-75 199q-46 89 -114 165q-66 74 -156 118q-94 46 -199 55q-133 3 -160 -2h-5q-1 0 -3 -2h-4h-1h-2v-2h-2v-1h-2v-1h-1q-3 0 -4 -1v-2q-81 -46 -163 -182q-83 -138 -110 -292q-19 -103 -23 -202z" />
<glyph unicode="&#xf6;" horiz-adv-x="1689" d="M20 855q6 101 26 205q48 268 203 435q74 80 182 141q5 4 15.5 9t12.5 6q14 8 28 14q4 2 11.5 5.5t11.5 5.5q29 14 68 28q9 3 26.5 9.5t26.5 9.5q18 6 26 9q11 4 22 5q6 2 20 5.5t20 5.5q3 0 9.5 1.5t9.5 2.5l-1 -5q54 10 95 14q46 4 68 6q10 1 68 -1q9 0 17.5 -0.5t14 -1 t9.5 -1t7 -0.5h2h4q127 -9 236 -58q105 -47 178 -122q71 -72 123 -172q50 -95 76 -206t32 -222q6 -121 -5 -224q-13 -116 -38 -210q-51 -177 -148 -311q-30 -42 -57 -72q-21 -23 -74 -71q-42 -38 -112 -76q-64 -35 -151 -66q-60 -22 -107 -34q-16 -4 -24 -5 q-173 -34 -301 -20q-118 13 -223 63q-99 47 -169 119q-68 69 -120 163q-49 88 -77 192q-25 92 -36 210q-11 113 -5 214zM309 946q-4 -94 9 -210q11 -98 40 -204q26 -94 76 -187q47 -86 111 -155q63 -67 153 -113q89 -45 193 -57q75 -9 162 7q72 42 156 167q86 129 124 264 q28 104 36 204q9 108 0 218t-36 216t-75 199q-46 89 -114 165q-66 74 -156 118q-94 46 -199 55q-133 3 -160 -2h-5q-1 0 -3 -2h-4h-1h-2v-2h-2v-1h-2v-1h-1q-3 0 -4 -1v-2q-81 -46 -163 -182q-83 -138 -110 -292q-19 -103 -23 -202z" />
<glyph unicode="&#xf7;" d="M20 352l217 131h589l-216 -131h-590zM256 7v74l290 96v-74zM256 658v74l290 96v-73l-145 -49q-49 -16 -145 -48z" />
<glyph unicode="&#xf9;" horiz-adv-x="2250" d="M14 1574q11 7 55 33q48 28 54 32q18 12 54 33t54 33q25 0 55 1t70 1q29 0 68 -4q44 -5 72 -13q33 -10 62 -25q31 -16 54 -41t36 -53q13 -30 18 -67q4 -32 4 -63q0 -13 -2 -69t-2 -61q0 -133 -1 -235v-280q0 -90 2 -236q3 -88 27 -172q23 -79 67 -152q41 -67 110 -114 q63 -43 145 -49q16 -1 43 -1q24 0 34 1q18 2 29 5q20 6 29 9q16 5 30 13q6 3 17.5 9t16.5 9l40 25q23 14 49 29l60 35q48 28 76 42q19 11 53 25q40 18 70 28l1 2q13 26 16 73q4 57 0 113q-4 60 -4 87v665q0 26 1 55q1 43 0 63q-3 37 -5 53q-4 33 -15 57q-10 24 -29 44 q-22 22 -43 34q-25 14 -44 20q-25 8 -50 9q-40 2 -53 2q-34 0 -60 -1q-52 -2 -62 -2l108 65l108 66q25 0 55 1h26.5h26h17.5q29 0 68 -4q46 -5 72 -13q30 -9 61 -25q35 -17 56 -40q21 -22 33 -50t17 -63q3 -20 5 -58q1 -24 0 -65q-1 -28 -1 -56v-665q0 -16 6 -82 q6 -64 1 -117q-4 -49 -23 -89q-26 -51 -127 -104q-37 -19 -92 -40q83 27 90 29l-14 -1q135 45 145 49q1 -48 14 -87q12 -37 30 -64q17 -25 46 -45q28 -20 57 -30q21 -8 68 -15q34 -5 72 -7q22 -1 76 -1l-216 -131q-51 0 -93 3q-37 3 -87 11q-45 8 -81 20q-32 11 -68 34 q-31 20 -55 50q-23 29 -36 70q-14 46 -15 88q-9 -5 -55 -31q-82 -46 -94 -53q-52 -28 -106 -55q-65 -32 -125 -55q-55 -21 -130 -43q-66 -20 -141 -29q-72 -9 -139 -3q-92 6 -161 40q-70 34 -115 84q-44 48 -73 119t-41 135q-14 75 -15 142q-2 74 -2 237q0 76 2 280t2 237 q0 31 1 61q2 60 2 69q0 21 -5 59q-5 39 -15 61q-14 31 -30 47q-21 21 -44 34q-27 15 -43 20q-25 8 -51 9q-40 2 -52 2q-34 0 -60 -1q-52 -2 -62 -2zM762 2095q37 17 63 31q39 21 63 32v-2q13 6 63 31q34 17 64 33q48 -7 176 -32l178 -34q-14 -6 -64 -31t-63 -33 q-7 -4 -63 -32l-62 -31q-22 4 -84 16t-94 18q-29 6 -68.5 13.5t-65 12t-43.5 8.5z" />
<glyph unicode="&#xfa;" horiz-adv-x="2250" d="M14 1574q11 7 55 33q48 28 54 32q18 12 54 33t54 33q25 0 55 1t70 1q29 0 68 -4q44 -5 72 -13q33 -10 62 -25q31 -16 54 -41t36 -53q13 -30 18 -67q4 -32 4 -63q0 -13 -2 -69t-2 -61q0 -133 -1 -235v-280q0 -90 2 -236q3 -88 27 -172q23 -79 67 -152q41 -67 110 -114 q63 -43 145 -49q16 -1 43 -1q24 0 34 1q18 2 29 5q20 6 29 9q16 5 30 13q6 3 17.5 9t16.5 9l40 25q23 14 49 29l60 35q48 28 76 42q19 11 53 25q40 18 70 28l1 2q13 26 16 73q4 57 0 113q-4 60 -4 87v665q0 26 1 55q1 43 0 63q-3 37 -5 53q-4 33 -15 57q-10 24 -29 44 q-22 22 -43 34q-25 14 -44 20q-25 8 -50 9q-40 2 -53 2q-34 0 -60 -1q-52 -2 -62 -2l108 65l108 66q25 0 55 1h26.5h26h17.5q29 0 68 -4q46 -5 72 -13q30 -9 61 -25q35 -17 56 -40q21 -22 33 -50t17 -63q3 -20 5 -58q1 -24 0 -65q-1 -28 -1 -56v-665q0 -16 6 -82 q6 -64 1 -117q-4 -49 -23 -89q-26 -51 -127 -104q-37 -19 -92 -40q83 27 90 29l-14 -1q135 45 145 49q1 -48 14 -87q12 -37 30 -64q17 -25 46 -45q28 -20 57 -30q21 -8 68 -15q34 -5 72 -7q22 -1 76 -1l-216 -131q-51 0 -93 3q-37 3 -87 11q-45 8 -81 20q-32 11 -68 34 q-31 20 -55 50q-23 29 -36 70q-14 46 -15 88q-9 -5 -55 -31q-82 -46 -94 -53q-52 -28 -106 -55q-65 -32 -125 -55q-55 -21 -130 -43q-66 -20 -141 -29q-72 -9 -139 -3q-92 6 -161 40q-70 34 -115 84q-44 48 -73 119t-41 135q-14 75 -15 142q-2 74 -2 237q0 76 2 280t2 237 q0 31 1 61q2 60 2 69q0 21 -5 59q-5 39 -15 61q-14 31 -30 47q-21 21 -44 34q-27 15 -43 20q-25 8 -51 9q-40 2 -52 2q-34 0 -60 -1q-52 -2 -62 -2zM746 2014l128 121l354 66l-128 -121z" />
<glyph unicode="&#xfb;" horiz-adv-x="2250" d="M14 1574q11 7 55 33q48 28 54 32q18 12 54 33t54 33q25 0 55 1t70 1q29 0 68 -4q44 -5 72 -13q33 -10 62 -25q31 -16 54 -41t36 -53q13 -30 18 -67q4 -32 4 -63q0 -13 -2 -69t-2 -61q0 -133 -1 -235v-280q0 -90 2 -236q3 -88 27 -172q23 -79 67 -152q41 -67 110 -114 q63 -43 145 -49q16 -1 43 -1q24 0 34 1q18 2 29 5q20 6 29 9q16 5 30 13q6 3 17.5 9t16.5 9l40 25q23 14 49 29l60 35q48 28 76 42q19 11 53 25q40 18 70 28l1 2q13 26 16 73q4 57 0 113q-4 60 -4 87v665q0 26 1 55q1 43 0 63q-3 37 -5 53q-4 33 -15 57q-10 24 -29 44 q-22 22 -43 34q-25 14 -44 20q-25 8 -50 9q-40 2 -53 2q-34 0 -60 -1q-52 -2 -62 -2l108 65l108 66q25 0 55 1h26.5h26h17.5q29 0 68 -4q46 -5 72 -13q30 -9 61 -25q35 -17 56 -40q21 -22 33 -50t17 -63q3 -20 5 -58q1 -24 0 -65q-1 -28 -1 -56v-665q0 -16 6 -82 q6 -64 1 -117q-4 -49 -23 -89q-26 -51 -127 -104q-37 -19 -92 -40q83 27 90 29l-14 -1q135 45 145 49q1 -48 14 -87q12 -37 30 -64q17 -25 46 -45q28 -20 57 -30q21 -8 68 -15q34 -5 72 -7q22 -1 76 -1l-216 -131q-51 0 -93 3q-37 3 -87 11q-45 8 -81 20q-32 11 -68 34 q-31 20 -55 50q-23 29 -36 70q-14 46 -15 88q-9 -5 -55 -31q-82 -46 -94 -53q-52 -28 -106 -55q-65 -32 -125 -55q-55 -21 -130 -43q-66 -20 -141 -29q-72 -9 -139 -3q-92 6 -161 40q-70 34 -115 84q-44 48 -73 119t-41 135q-14 75 -15 142q-2 74 -2 237q0 76 2 280t2 237 q0 31 1 61q2 60 2 69q0 21 -5 59q-5 39 -15 61q-14 31 -30 47q-21 21 -44 34q-27 15 -43 20q-25 8 -51 9q-40 2 -52 2q-34 0 -60 -1q-52 -2 -62 -2zM517 2040q8 9 64 61h-1q14 14 35 33.5t28 26.5l355 67q41 9 63 3l357 -76q-7 -3 -63 -31q-59 -29 -63 -32q-14 -6 -64 -31 q-42 -21 -63 -33l-335 71z" />
<glyph unicode="&#xfc;" horiz-adv-x="2250" d="M14 1574q11 7 55 33q48 28 54 32q18 12 54 33t54 33q25 0 55 1t70 1q29 0 68 -4q44 -5 72 -13q33 -10 62 -25q31 -16 54 -41t36 -53q13 -30 18 -67q4 -32 4 -63q0 -13 -2 -69t-2 -61q0 -133 -1 -235v-280q0 -90 2 -236q3 -88 27 -172q23 -79 67 -152q41 -67 110 -114 q63 -43 145 -49q16 -1 43 -1q24 0 34 1q18 2 29 5q20 6 29 9q16 5 30 13q6 3 17.5 9t16.5 9l40 25q23 14 49 29l60 35q48 28 76 42q19 11 53 25q40 18 70 28l1 2q13 26 16 73q4 57 0 113q-4 60 -4 87v665q0 26 1 55q1 43 0 63q-3 37 -5 53q-4 33 -15 57q-10 24 -29 44 q-22 22 -43 34q-25 14 -44 20q-25 8 -50 9q-40 2 -53 2q-34 0 -60 -1q-52 -2 -62 -2l108 65l108 66q25 0 55 1h26.5h26h17.5q29 0 68 -4q46 -5 72 -13q30 -9 61 -25q35 -17 56 -40q21 -22 33 -50t17 -63q3 -20 5 -58q1 -24 0 -65q-1 -28 -1 -56v-665q0 -16 6 -82 q6 -64 1 -117q-4 -49 -23 -89q-26 -51 -127 -104q-37 -19 -92 -40q83 27 90 29l-14 -1q135 45 145 49q1 -48 14 -87q12 -37 30 -64q17 -25 46 -45q28 -20 57 -30q21 -8 68 -15q34 -5 72 -7q22 -1 76 -1l-216 -131q-51 0 -93 3q-37 3 -87 11q-45 8 -81 20q-32 11 -68 34 q-31 20 -55 50q-23 29 -36 70q-14 46 -15 88q-9 -5 -55 -31q-82 -46 -94 -53q-52 -28 -106 -55q-65 -32 -125 -55q-55 -21 -130 -43q-66 -20 -141 -29q-72 -9 -139 -3q-92 6 -161 40q-70 34 -115 84q-44 48 -73 119t-41 135q-14 75 -15 142q-2 74 -2 237q0 76 2 280t2 237 q0 31 1 61q2 60 2 69q0 21 -5 59q-5 39 -15 61q-14 31 -30 47q-21 21 -44 34q-27 15 -43 20q-25 8 -51 9q-40 2 -52 2q-34 0 -60 -1q-52 -2 -62 -2z" />
<glyph unicode="&#x2000;" horiz-adv-x="1492" />
<glyph unicode="&#x2001;" horiz-adv-x="2984" />
<glyph unicode="&#x2002;" horiz-adv-x="1492" />
<glyph unicode="&#x2003;" horiz-adv-x="2984" />
<glyph unicode="&#x2004;" horiz-adv-x="994" />
<glyph unicode="&#x2005;" horiz-adv-x="746" />
<glyph unicode="&#x2006;" horiz-adv-x="497" />
<glyph unicode="&#x2007;" horiz-adv-x="497" />
<glyph unicode="&#x2008;" horiz-adv-x="373" />
<glyph unicode="&#x2009;" horiz-adv-x="596" />
<glyph unicode="&#x200a;" horiz-adv-x="165" />
<glyph unicode="&#x2010;" d="M20 352l217 131h589l-216 -131h-590z" />
<glyph unicode="&#x2011;" d="M20 352l217 131h589l-216 -131h-590z" />
<glyph unicode="&#x2012;" d="M20 352l217 131h589l-216 -131h-590z" />
<glyph unicode="&#x2013;" horiz-adv-x="1064" d="M20 352l276 131h748l-274 -131h-750z" />
<glyph unicode="&#x2014;" horiz-adv-x="2088" d="M20 352l551 131h1497l-549 -131h-1499z" />
<glyph unicode="&#x202f;" horiz-adv-x="596" />
<glyph unicode="&#x205f;" horiz-adv-x="746" />
<glyph unicode="&#xe000;" horiz-adv-x="1747" d="M0 0v1748h1748v-1748h-1748z" />
</font>
</defs>
</svg>
