<?xml version="1.0" standalone="no"?>
<!DOCTYPE svg PUBLIC "-//W3C//DTD SVG 1.1//EN" "http://www.w3.org/Graphics/SVG/1.1/DTD/svg11.dtd" >
<svg xmlns="http://www.w3.org/2000/svg">
<metadata></metadata>
<defs>
<font id="crickxsharkcut" horiz-adv-x="1288" >
<font-face units-per-em="2048" ascent="1638" descent="-410" />
<missing-glyph horiz-adv-x="768" />
<glyph horiz-adv-x="2048" />
<glyph horiz-adv-x="2048" />
<glyph unicode="&#xd;" horiz-adv-x="768" />
<glyph unicode=" "  horiz-adv-x="768" />
<glyph unicode="&#x09;" horiz-adv-x="768" />
<glyph unicode="&#xa0;" horiz-adv-x="768" />
<glyph unicode="!" horiz-adv-x="698" d="M96 0l49 274h281l-43 -274h-287zM156 379l159 985h289l-155 -985h-293z" />
<glyph unicode="&#x22;" horiz-adv-x="956" d="M121 1034l26 330h322l-104 -578l-166 -2l39 250h-117zM510 1034l27 330l321 -2l-104 -576l-172 -2l45 250h-117z" />
<glyph unicode="#" horiz-adv-x="1310" d="M115 176l41 240h155l21 143h-158l39 234h156l26 170h252l-26 -170h149l23 170h254l-27 -170h143l-39 -234h-540l-23 -143h146l18 131l254 -2l-23 -129h146l-39 -240h-145l-29 -174h-254l31 174h-148l-26 -174h-254l30 174h-153z" />
<glyph unicode="$" horiz-adv-x="1013" d="M74 164q1 10 8 55q3 18 12 85q5 37 25 140l258 2q-7 -25 -8 -33q-1 -5 -2.5 -13.5t-1.5 -10.5t-1.5 -8.5t-1.5 -9.5q0 -26 15 -53t63 -27q41 0 62 20q22 21 34 49q11 25 14 61t7 54q2 25 -25 52q-33 33 -68 58q-31 22 -92 61q-42 27 -91 63q-39 29 -68 61q-26 29 -20 59 q23 180 43 244q13 41 35 73q22 31 57 60q34 28 69 46q37 19 74 34l25 180h290l-28 -170q64 -23 113 -66q51 -44 67 -110q0 -3 1.5 -21l2.5 -30q2 -38 1 -67q-2 -47 -7 -93l-250 2q6 71 -20 94t-74 23q-37 0 -61 -12q-21 -11 -35 -31q-13 -19 -17 -38t-6 -32q-6 -40 22 -71 q30 -34 71 -59q31 -19 99 -57q57 -32 100 -65q48 -37 77 -85q30 -49 28 -115q-13 -84 -23 -130q-15 -71 -34 -134q-16 -50 -85 -101q-73 -54 -177 -82l-25 -157h-286l24 157q-96 27 -145 73q-49 47 -45 75z" />
<glyph unicode="%" horiz-adv-x="1290" d="M100 96l521 752l-91 211q10 1 19 10q7 7 12 17q6 12 6 28q0 25 -15 40t-38 15t-40 -14t-17 -41q0 -32 21 -46t36 -9l88 -215q-20 -13 -43 -22q-24 -9 -49 -9q-55 0 -106 17q-55 18 -98 54q-45 37 -73 90t-28 128q0 136 87 205t222 69q93 0 149 -34q59 -36 87 -78 q31 -46 41 -88q10 -41 10 -64l182 264l227 -131l-475 -751l103 -228q-6 -2 -7 -6q-4 -7 -4 -18q0 -20 16 -39t42 -19q24 0 41 22q16 20 16 36q0 21 -13 38t-38 17q-11 0 -19 -3t-12 -7q-8 -6 -10 -8l-96 223q12 13 32 20q22 10 47 15q30 6 74 6q66 0 116 -26t84 -67 q31 -38 51 -94q18 -51 18 -100q0 -42 -18 -92q-18 -51 -53 -91q-37 -44 -93 -70q-59 -28 -138 -28q-98 0 -158 42t-92 97t-41 105q-9 52 -5 68l-240 -338z" />
<glyph unicode="&#x26;" horiz-adv-x="1257" d="M72 362q23 125 58 197q38 77 73 115q40 46 90 67q2 -3 31 -52q14 -23 41 -61q29 -41 48 -63q24 -28 50 -51q-29 -33 -39 -92q-2 -9 1 -22t12 -25q10 -14 25 -21q16 -8 40 -8q54 0 78 21q32 28 47 43q-26 12 -49 30q-33 25 -55 43q-26 22 -68 66q-42 40 -77 91 q-48 69 -69 106q-32 56 -49 97q-18 43 -18 62q0 39 17 100q17 60 34 148q11 51 51 90q43 41 93 67q53 27 109 42q53 14 97 14q67 0 126 -18q55 -17 100 -46q41 -26 66 -61q23 -32 23 -63q0 -34 -3 -80q-3 -51 -19 -131q-11 -59 -47 -106q-39 -51 -78 -89q-44 -42 -104 -82 q-28 33 -54 78q-29 50 -45 92q29 12 73 38q43 26 60 81q2 10 2 21q0 12 -5 27q-4 13 -18 24q-13 10 -40 10q-49 0 -81 -19q-29 -17 -44 -88q-4 -22 12 -62q15 -36 41 -82q20 -34 50 -79q16 -23 38 -51q17 -22 41 -39q27 -20 43 -29q15 -10 47 -24l244 182l10 -213l-80 -102 l123 -62l-10 -211q-47 14 -77 25q-61 22 -79 29l-88 34q-101 -120 -155 -165q-52 -43 -122 -75t-153 -32q-78 0 -147 17q-73 18 -129 60q-56 43 -83 112q-27 70 -9 175z" />
<glyph unicode="'" horiz-adv-x="550" d="M121 1034l18 330h330l-104 -578l-177 -2l39 250h-106z" />
<glyph unicode="(" horiz-adv-x="647" d="M49 598q0 94 21 196q22 107 60 200q43 104 97 190q56 89 131 162q71 69 164 119q90 48 197 63l-47 -309q-79 -18 -143 -93q-59 -69 -105 -169q-43 -93 -67 -193q-23 -95 -23 -166q0 -60 7 -117q8 -64 25 -120q18 -60 47 -110q30 -53 74 -85l-45 -289q-106 45 -181 123 q-76 79 -123 175q-46 94 -68 206q-21 108 -21 217z" />
<glyph unicode=")" horiz-adv-x="761" d="M49 -123l49 309q79 18 143 93q60 70 105 168q42 92 67 194q23 95 23 166q0 60 -7 117q-8 63 -25 119q-19 63 -47 110q-31 53 -74 86l45 289q106 -45 181 -123q76 -79 123 -175q46 -94 68 -207q21 -109 21 -216q0 -94 -21 -196q-22 -107 -60 -200q-43 -104 -97 -190 q-57 -90 -132 -162q-73 -70 -165 -119q-90 -48 -197 -63z" />
<glyph unicode="*" horiz-adv-x="1114" d="M162 303q-2 -2 4 34q2 14 14 77l19 110h180l-103 162l205 123l117 -184l143 188l187 -139l-115 -139l184 2l-34 -222h-164l78 -135l-197 -145l-109 188l-133 -186l-192 139l106 127q-82 -1 -135 0q-53 2 -55 0z" />
<glyph unicode="+" horiz-adv-x="954" d="M66 246l38 243h273l41 240h260l-39 -233h252l-41 -246h-254l-45 -252l-260 2l43 246h-268z" />
<glyph unicode="," horiz-adv-x="598" d="M98 0l58 324h305q1 -66 0 -129q-2 -54 -6 -112q-4 -49 -13 -99q-6 -34 -14 -60q-5 -16 -17 -48q-1 -3 -22 -50q-12 -27 -27 -66l-133 -2l50 242h-181z" />
<glyph unicode="-" horiz-adv-x="712" d="M80 221l43 273h502l-43 -273h-502z" />
<glyph unicode="." horiz-adv-x="559" d="M102 0l48 301h325l-49 -301h-324z" />
<glyph unicode="/" horiz-adv-x="1052" d="M102 55l535 1327l291 -100l-527 -1329z" />
<glyph unicode="0" horiz-adv-x="1017" d="M49 264l103 719q40 123 108 198q67 74 144 115q79 42 152 55q72 13 128 13l-59 -377q-7 3 -21 5q-3 0 -9.5 1t-10.5 2l-25 4q-35 0 -66 -31q-32 -32 -38 -71q-16 -89 -42 -266q-8 -51 -15 -99.5t-10 -67.5t-3 -20q-2 -22 14 -47q16 -26 56 -28q19 1 39 8q16 4 28 12 t17 23l161 950q48 0 99 -20q50 -20 87 -55q38 -36 60 -85q23 -50 17 -108q0 -2 -1.5 -10t-3.5 -20.5t-4 -25.5q-6 -47 -57 -350q-51 -307 -63 -362q-2 -13 -15 -60q-7 -27 -20 -51q-24 -47 -80 -86q-58 -41 -118 -68q-65 -29 -122 -45q-58 -16 -96 -16q-49 0 -109 18 q-57 17 -110 53q-52 35 -84 83q-32 49 -31 110z" />
<glyph unicode="1" horiz-adv-x="860" d="M37 803l74 291l354 270h317l-241 -1364l-377 2l180 903z" />
<glyph unicode="2" horiz-adv-x="1038" d="M31 0q45 206 151 373q107 168 254 305q24 24 76 61q55 39 91 70q48 41 77 77q33 40 33 85q0 21 -12 37t-27 26q-18 12 -33 17q-17 6 -27 6q-18 0 -40 -5q-18 -4 -54 -40q0 -3 -22 -32q-24 -32 -47 -95l-238 149q16 53 47 114q29 57 83 106q55 50 130 79q81 31 191 31 q66 0 127 -19q62 -19 114 -62t83 -109q32 -69 32 -162q0 -92 -47 -169q-47 -78 -113 -145q-145 -143 -194 -200q-51 -62 -84 -115q-36 -57 -37 -100l319 2l-53 -285h-780z" />
<glyph unicode="3" horiz-adv-x="1052" d="M74 240q0 15 4 39q5 23 9 61q4 37 15 100l256 11q-10 -55 -3 -82q7 -26 24 -37l63 -10q8 0 22 3q13 3 28 12q13 8 25 23q10 13 15 39l25 121q7 33 12 66q0 12 -3 28q-3 19 -14 32q-13 16 -30 26t-47 10q-21 0 -37 -4q-35 -6 -76 -31l-182 164l320 256l-301 -2l39 299h731 l-43 -299l-160 -156q45 -23 74 -49q26 -23 37 -47q12 -24 12 -49q-6 -58 -26 -201q-18 -129 -48 -282q-29 -148 -138 -214q-111 -67 -323 -67q-101 0 -159 32q-57 32 -84 73q-28 43 -32 81q-5 43 -5 54z" />
<glyph unicode="4" horiz-adv-x="1112" d="M8 272l55 293l596 799h379l-147 -893h115l-33 -205h-121l-49 -264l-365 -2l140 829l-234 -303h168l-43 -254h-461z" />
<glyph unicode="5" horiz-adv-x="1032" d="M57 199q0 53 3 89q2 30 8 61l16 85h281q-1 -6 -2.5 -14t-1.5 -11q-1 -8 -1 -20v-16q-4 -31 19 -47q22 -15 55 -15q13 1 41 11q18 8 32 22q15 15 21 43l33 191q2 10 2 23q0 17 -7 31q-7 13 -24 26q-16 12 -47 12q-15 -1 -39 -11q-12 -5 -33 -23q-16 -13 -32 -44h-270 l118 772h736l-50 -299l-391 -2l-22 -156q27 14 73 22q45 7 72 3h3q3 -1 8 -1.5t11 -0.5q14 -1 48 -10q25 -6 61 -23q36 -16 59 -38q25 -24 40 -59q14 -33 6 -85l-62 -396q-12 -85 -56 -147q-43 -61 -109 -99q-69 -40 -144 -57q-80 -18 -166 -18q-1 0 -49 8q-42 7 -98 31 q-57 25 -98 61q-44 39 -44 101z" />
<glyph unicode="6" horiz-adv-x="1011" d="M57 250q73 477 95 602l38 201q16 94 67 156t115 96q66 35 135 47q71 12 128 12q98 0 162 -25q61 -24 94 -57q33 -32 43 -67q10 -33 10 -52q2 -32 -2 -63q-17 -125 -27 -185h-249q1 6 2.5 14.5t1.5 10.5q2 14 2 16v13q0 8 -3 23t-11 31q-9 17 -21 26q-14 10 -37 10 q-60 0 -81 -32q-20 -31 -25 -58l-33 -181q-12 -64 -31 -181q-13 -80 -31 -201q-4 -29 4 -51q7 -17 24 -31t34 -18q20 -5 31 -5t29 3q17 3 34 17t31 39t20 74q1 21 0 44q-2 25 -19 42q-20 20 -53 27q-36 8 -98 0l27 155q48 19 96 23q44 4 96 4q23 0 57 -11q41 -13 75 -35 q40 -26 64 -61q25 -37 19 -90l-30 -233q-6 -52 -43 -104q-38 -54 -98 -97q-58 -42 -140 -70t-172 -28q-59 0 -117 13q-60 13 -107 43t-78 77q-30 46 -28 117z" />
<glyph unicode="7" horiz-adv-x="1040" d="M-12 0l555 1047h-332l47 317h758l-45 -309l-604 -1055h-379z" />
<glyph unicode="8" horiz-adv-x="1030" d="M29 207q12 101 21 172q2 15 16 106l12 68l117 145l215 84q177 77 186 86q10 7 16 26q8 24 11 36q4 18 6 35q0 3 0.5 7t1 6.5t0.5 5v3.5q0 42 -19 66q-18 22 -65 22q-33 0 -55 -15t-36 -38q-14 -24 -20 -47q-6 -24 -6 -45q0 -32 11 -62q12 -34 22 -49l-275 -106 q-36 33 -50 94q-13 58 -13 123q1 98 34 180q32 81 91 137q62 59 143 88q87 31 189 31q166 0 256 -81t90 -230q0 -52 -6 -112q-6 -61 -24 -116t-48 -99t-80 -62q-5 -3 -39 -15q-2 -1 -29 -10t-43 -15q-61 -23 -87 -31l-111 -39q-66 -24 -68 -26q-31 -15 -42 -38 q-11 -22 -11 -56q0 -43 21 -70q22 -28 69 -28q40 0 64 12q21 10 38 31q16 19 20 39q5 23 5 37q0 2 -8 36q-7 30 -29 66l266 96q47 -45 61 -102q15 -60 15 -115q0 -111 -40 -194q-41 -85 -110 -141t-167 -85q-94 -28 -205 -28q-10 0 -26 1q-26 2 -57 7q-38 7 -74 20 q-39 15 -73 38q-34 24 -58 61q-23 36 -23 90z" />
<glyph unicode="9" horiz-adv-x="1017" d="M39 252q0 11 2 47q7 80 14 127l262 2q-1 -14 -3 -22q-1 -5 -1 -15v-12q0 -23 21 -51q21 -29 61 -29q35 0 56 11t35 28q15 18 19 34q7 27 7 29q0 9 42 264q44 264 44 269q8 53 -19 83t-75 30q-47 0 -83 -31q-33 -29 -44 -96q-6 -39 5 -63q12 -26 30 -41q16 -13 40 -22 q22 -8 35 -8q11 0 27 2q8 1 45 11l-24 -158q-22 -9 -50 -13q-30 -4 -45 -7q-25 -5 -47 -5q-97 0 -155 26q-59 26 -85 58q-29 35 -36 64q-8 32 -8 43q0 6 2 42q1 15 7 60q3 22 11 66q6 33 12 57q18 83 65 147q46 63 109 103q61 39 140 61q77 21 151 21q121 0 186 -37 q67 -38 98 -84q32 -47 38 -95q6 -45 4 -69q-13 -104 -62 -448q-46 -320 -49 -332q-5 -24 -28 -72t-76 -99q-53 -52 -133 -88q-84 -38 -201 -38t-187 32t-104 75q-35 44 -44 84q-9 41 -9 59z" />
<glyph unicode=":" horiz-adv-x="598" d="M84 0l51 303h318l-52 -303h-317zM172 512l51 303h318l-52 -303h-317z" />
<glyph unicode=";" horiz-adv-x="598" d="M61 0h181l-49 -242l133 2q21 56 26 66q21 47 22 50q12 32 17 48q10 33 15 60q8 40 12 99q4 58 6 112q2 63 0 129h-305zM145 512l52 303h317l-51 -303h-318z" />
<glyph unicode="&#x3c;" horiz-adv-x="890" d="M37 555l680 434l-60 -342l-202 -131l166 -192l-54 -324z" />
<glyph unicode="=" horiz-adv-x="794" d="M123 119l43 266h502l-43 -266h-502zM180 467l43 266h502l-43 -266h-502z" />
<glyph unicode="&#x3e;" horiz-adv-x="847" d="M78 0l59 342l203 131l-166 193l53 323l531 -555z" />
<glyph unicode="?" horiz-adv-x="1034" d="M104 1026q7 38 41 96q34 59 90 112q59 56 134 92q79 38 176 38q138 0 217 -47q78 -47 116 -110q39 -65 46 -123q8 -64 8 -87q0 -103 -46 -180q-47 -79 -128 -160q-67 -65 -118 -135q-54 -74 -81 -192h-334q18 97 48 179q31 83 79 134q117 119 156 162q34 38 65 81 q27 38 27 60q0 45 -29 65q-28 19 -53 19q-31 0 -58 -18q-28 -19 -49 -44q-18 -22 -36 -54q-14 -25 -21 -46zM174 0l43 279h334l-51 -279h-326z" />
<glyph unicode="@" horiz-adv-x="1699" d="M123 662q69 357 281 542t591 185q62 0 140 -12q81 -12 155 -41q79 -30 149 -81q71 -51 120 -130q47 -76 69 -190q20 -108 -4 -261q-9 -51 -29 -133q-18 -74 -56 -139q-37 -64 -99 -108t-158 -44q-85 0 -145 24t-95 70q-5 8 -21 44q-8 18 -22 56q-13 37 -24 70q0 6 6 48 q3 19 14 89q7 50 23 123h-94q-43 0 -70 -49q-26 -47 -47 -182q-4 -18 4 -31q7 -12 19 -19q14 -8 25 -11q13 -3 22 -3l51 13l33 12l67 -166q-5 -3 -35 -16q-24 -10 -60 -21q-27 -8 -80 -17q-46 -8 -93 -8q-44 0 -96 19q-51 19 -89 55q-39 37 -58 92q-20 56 -5 127 q27 135 77 216q49 79 109 118t123 48q70 10 119 10h348q-23 -138 -31 -197q-8 -53 -11 -74q-2 -15 -6 -40t-4 -26q-7 -44 -7 -49t-0.5 -10t-0.5 -7l-1 -3q0 -11 8 -32q7 -19 39 -19q14 0 29 27q12 22 26 72q14 52 22 98q11 66 17 108q8 71 -6 123q-15 56 -58 96 q-45 42 -119 64q-73 22 -186 22q-71 0 -159 -12q-86 -12 -172 -64q-85 -51 -153 -154q-67 -101 -101 -284q-23 -129 13 -214q37 -87 95 -135q61 -51 127 -71q64 -20 107 -20q32 0 74 9q56 12 83 19q37 10 95 31l133 -156q-51 -41 -115 -71q-56 -27 -130 -48 q-79 -22 -167 -22q-152 0 -278 62t-207 164t-116 237q-34 131 -5 277z" />
<glyph unicode="A" d="M-72 0l719 1364h395l103 -1364l-344 2l-64 834l-143 -344h154l16 -252h-315l-123 -240h-398z" />
<glyph unicode="B" horiz-adv-x="1204" d="M59 -2l242 1364h346l-174 -1032q27 -3 81 -5h7q36 0 72 9q34 10 60 38t26 77q0 1 -6 19q-6 17 -26 36q-21 19 -55 32q-21 8 -53 8q-20 0 -44 -3l43 278q61 16 97 42q36 25 55 49q21 26 26 41q6 18 6 20q0 27 -11 44q-10 15 -27 27q-16 11 -31 14t-23 3h-49l51 303h239 q44 -10 87 -38q40 -26 75 -70q32 -41 52 -99t20 -125q-4 -53 -29 -112q-24 -54 -68 -110q-45 -58 -133 -120q75 -50 116 -114q40 -63 61 -119q21 -63 26 -136q0 -80 -39 -137t-90 -96q-50 -39 -101 -60q-53 -23 -75 -28h-754z" />
<glyph unicode="C" horiz-adv-x="1013" d="M51 248q0 3 2 31q1 20 6 49q3 22 54 315q47 270 61 332l27 94q24 71 74 126q47 52 115 91q63 37 136 55q76 19 138 19q37 -1 74 -10q27 -6 69 -25q35 -16 70 -47q32 -29 55 -77q21 -44 26 -114l-30 -210l-289 -11q3 25 3 45q0 23 -4 38q-8 30 -21 45q-15 16 -26 20 q-12 4 -18 4q-33 0 -58 -22q-22 -20 -40 -50q-65 -315 -96 -489q0 -42 7 -59t22 -29q16 -13 41 -13q34 0 60 16q22 14 38 39q12 20 21 51q9 32 10 54l2 33q28 0 84 4q63 5 213 12l-6 -42q-4 -28 -7 -40q-16 -81 -47 -171q-29 -83 -84 -156q-54 -72 -135 -114 q-83 -44 -201 -44q-103 0 -172 29q-68 29 -106 68t-53 82q-15 42 -15 71z" />
<glyph unicode="D" horiz-adv-x="1095" d="M41 0l223 1364l303 -2l-147 -1028q28 6 56 16q26 9 56 29q28 19 49 50q20 30 31 81q18 81 25 124q6 35 22 135q12 78 16 123q5 63 5 85q0 25 -13 42q-13 18 -34 28q-22 11 -44 15q-27 5 -44 5l45 297h186q93 -17 142 -72q47 -53 72 -130q24 -75 27 -158q3 -84 3 -158 q-5 -251 -79 -428q-75 -178 -181 -299q-68 -55 -159 -81q-97 -27 -189 -34q-87 -6 -172 -6h-24q-130 2 -175 2z" />
<glyph unicode="E" horiz-adv-x="925" d="M57 0l222 1364l589 -2l-37 -293h-284l-39 -260h283l-43 -262h-291l-43 -248l295 2l-58 -301h-594z" />
<glyph unicode="F" horiz-adv-x="1007" d="M78 -2l104 651q112 703 113 713h633l-39 -309l-307 2l-33 -224h305l-43 -286h-311l-97 -545z" />
<glyph unicode="G" horiz-adv-x="1030" d="M78 301q0 66 4 90q63 446 84 580q29 96 85 169q53 70 119 114q69 46 132 66q68 21 123 21q102 0 160 -29q63 -32 96 -73q35 -45 50 -90q15 -46 21 -80q0 -15 -2 -55q-7 -96 -14 -148h-283q2 16 3 22t1 15v15q0 10 -5 28q-4 16 -15 33q-10 16 -28 28q-17 11 -38 11 q-41 0 -72 -40q-32 -41 -38 -89q-1 -11 -6 -56q-19 -171 -22 -197q-14 -119 -20 -191q-3 -34 -3 -39q0 -28 21 -46t50 -18q43 6 69 23t46 53t20 102h-67l18 158h344l-24 -164q-2 -10 -5 -30.5t-4 -30.5q0 -2 -4.5 -28.5t-6.5 -42.5q-1 -12 -2.5 -22.5t-2.5 -15.5v-4 q-45 -175 -153 -266q-109 -92 -301 -92q-124 0 -191 42q-69 43 -98 97q-32 59 -36 107q-5 58 -5 73z" />
<glyph unicode="H" horiz-adv-x="1150" d="M63 -2l222 1366l305 -2l-86 -565h180l92 567l316 -2l-218 -1362h-307l80 479h-207l-82 -479z" />
<glyph unicode="I" horiz-adv-x="655" d="M74 -2l225 1364l307 2l-229 -1366h-303z" />
<glyph unicode="J" horiz-adv-x="1067" d="M16 227q-3 28 -3 58q0 56 12 118q17 86 41 170l272 62q-20 -80 -25 -108q-7 -42 -12 -66q-6 -27 -4 -43q0 -48 36 -72t68 -24q31 0 60 18q28 18 33 41l133 713l-221 -2l32 272h566l-168 -1020q-7 -53 -35 -118q-25 -59 -77 -114q-50 -52 -126 -87q-78 -35 -182 -35 q-64 0 -131 9q-65 9 -124 35q-56 25 -96 71q-42 48 -49 122z" />
<glyph unicode="K" horiz-adv-x="1171" d="M51 0l244 1364l330 -2l-84 -510l430 444l159 -235l-428 -477l293 -584h-342l-200 379l-74 -379h-328z" />
<glyph unicode="L" horiz-adv-x="866" d="M61 0l228 1364h360l-166 -1034h297l-65 -330h-654z" />
<glyph unicode="M" horiz-adv-x="1345" d="M61 0l228 1364h295l143 -371l201 371h336l-224 -1364h-346l99 639l-195 -186l-98 147l-94 -600h-345z" />
<glyph unicode="N" horiz-adv-x="1136" d="M74 0l227 1364l277 -2l157 -342l64 344h334l-236 -1364h-315l65 414l-121 219l-123 -633h-329z" />
<glyph unicode="O" horiz-adv-x="1040" d="M78 262q0 31 1 43t1 27q0 19 7 79q7 65 21 159q16 112 34 211q15 85 53 237q18 76 57 130q40 55 87 92q50 39 100 62q40 18 97 36q44 14 75 18q28 4 40 4h23q13 0 18 -1t17 -1l-64 -342q-24 0 -48 -7q-23 -7 -48 -20q-24 -13 -41 -30q-20 -20 -25 -39q-3 -9 -16 -63 q-10 -42 -39 -212q-32 -190 -34 -204q-5 -40 -5 -44q0 -27 12 -46t54 -19q29 0 49 5t31 19t19 37q6 18 13 58l162 903q91 -7 142 -43t75 -76q29 -47 35 -107q-3 -13 -13 -78q-10 -67 -66 -385q-25 -144 -60 -352q-5 -35 -28 -93q-21 -55 -66 -104q-47 -51 -117 -85 q-73 -35 -178 -35q-70 0 -136 12q-61 11 -117 43q-51 29 -85 82q-32 50 -37 129z" />
<glyph unicode="P" horiz-adv-x="958" d="M61 0l226 1362l436 4h9q53 0 98 -21q55 -25 94 -70q41 -47 66 -112q26 -67 26 -147q0 -113 -60 -200q-62 -89 -144 -150q-89 -65 -177 -103q-88 -37 -158 -55q1 4 5 32t8 48q3 16 6 35.5t7.5 46.5t7.5 44l7 44q78 35 118 68q46 38 69 67q25 31 32 53q8 24 8 31 q0 50 -24 71q-23 20 -56 28q-20 5 -40 5q-13 0 -25 -2q-36 -5 -47 -6l-186 -1073h-306z" />
<glyph unicode="Q" horiz-adv-x="1075" d="M70 274q0 38 1 58q2 35 7 65q106 633 110 652q10 55 50 113t96 101q58 45 126 71q72 28 138 28q69 0 132 -24q65 -25 109 -66t72 -103q27 -60 27 -131q-1 -60 -10 -192q-4 -49 -24 -228q-15 -132 -42 -307q-89 32 -162 48q-76 17 -98 20l64 514q2 20 2 38q0 22 -8 46 t-25 38q-18 15 -51 15q-32 0 -49 -16q-18 -16 -30 -41q-12 -23 -18 -52q-7 -30 -8 -51q-7 -36 -14 -96l-57 -403q17 -3 51 -5q16 -1 43 -1h41q24 0 80 -9q39 -6 100 -21q56 -14 137 -42l203 -240q-76 -12 -100 -16q-135 -23 -215 -35l-76 123q-40 -49 -91 -75 q-50 -26 -94 -38q-51 -14 -102 -16q-103 0 -167 38q-61 37 -95 87q-32 49 -43 94q-10 43 -10 59z" />
<glyph unicode="R" horiz-adv-x="1230" d="M76 0l223 1364h522q46 0 103 -9q58 -9 108 -46q52 -39 86 -113q35 -78 35 -207q-6 -77 -35 -158q-26 -67 -80 -150q-52 -80 -155 -153l235 -528h-368l-129 451l-95 -17l52 271q70 30 110 75q43 48 63 86l33 101q0 49 -26 68q-28 20 -72 20q-4 0 -14 -2q-18 -4 -21 -4 q-4 0 -9 -1t-13 -3t-13 -3l-190 -1042h-350z" />
<glyph unicode="S" horiz-adv-x="1001" d="M78 164q-1 9 -1 19q0 20 3 42q17 147 33 230l264 2q-7 -24 -8 -34q-1 -5 -2.5 -13.5t-1.5 -10.5t-1.5 -8.5t-1.5 -9.5q0 -24 15 -57t63 -33q44 0 67 23q22 22 35 57q11 30 14 68q3 36 3 59q-10 31 -41 64q-30 32 -71 62q-46 34 -83 57q-45 28 -82 56q-38 29 -63 57 q-24 27 -24 58q0 47 9 119q9 68 32 137q24 71 69 121q46 51 99 80q55 30 112 44q55 13 105 13q47 0 98 -12q48 -11 96 -37q43 -23 78 -63q33 -37 45 -89q0 -3 1.5 -21l2.5 -30q1 -25 1 -45v-20q-2 -48 -7 -93h-250q-2 44 -16 67q-15 23 -32 35l-46 15q-28 0 -48 -14 q-24 -17 -37 -34q-17 -22 -25 -41q-9 -21 -9 -34q0 -43 27 -73q32 -35 66 -58q45 -30 89 -54q51 -28 94 -65t77 -89q34 -51 46 -126q-6 -68 -24 -145q-15 -64 -43 -141q-12 -29 -44 -64q-31 -34 -82 -65q-52 -32 -119 -52q-66 -20 -152 -20q-88 0 -149 19q-62 19 -102 46 q-39 26 -60 55q-19 26 -19 46z" />
<glyph unicode="T" horiz-adv-x="978" d="M98 1040l45 324l828 2l-41 -324h-221l-162 -1042h-359l164 1040h-254z" />
<glyph unicode="U" horiz-adv-x="1110" d="M84 338l162 1026h317l-121 -789q-10 -64 -10 -109.5t10 -72.5q21 -53 80 -53q26 0 41 14q16 15 28 37q9 16 18 48q7 25 12 48l143 877h301l-178 -1079q-7 -49 -40 -100q-32 -50 -86 -92q-51 -39 -127 -68q-72 -27 -165 -27q-144 0 -221 46q-78 46 -115 106 q-37 59 -43 114q-6 56 -6 74z" />
<glyph unicode="V" horiz-adv-x="1130" d="M137 1364h355l20 -789l426 789h358l-694 -1364h-426z" />
<glyph unicode="W" horiz-adv-x="1540" d="M141 1364h348l25 -487l262 487l228 2l12 -461l254 459h346l-670 -1364h-244l-14 352l-207 -352h-258z" />
<glyph unicode="X" horiz-adv-x="1269" d="M-57 0l467 674l-220 690h338l109 -352l260 352h401l-548 -725l178 -639h-340l-84 270l-162 -270h-399z" />
<glyph unicode="Y" horiz-adv-x="1169" d="M92 1364h365l131 -322l190 322h404l-463 -743l-49 -621l-385 -2l104 774z" />
<glyph unicode="Z" horiz-adv-x="1101" d="M63 0l70 420l440 618l-329 -2l47 328l751 -2l-73 -377l-465 -651h334l-56 -334h-719z" />
<glyph unicode="[" horiz-adv-x="749" d="M98 218q-8 56 2 114l76 459l76 460q11 64 35 111q24 46 57 81q30 31 71 56q37 22 74 37q89 33 195 33l-55 -342q-8 0 -28 -2q-14 -1 -30 -14q-15 -12 -26 -36q-14 -30 -21 -73l-116 -705q-7 -51 -4 -74q3 -27 14 -44q11 -18 24 -23q6 -2 16 -5.5t11 -4.5l-53 -355 q-97 33 -176 97q-34 25 -63 58t-50 77q-22 45 -29 95z" />
<glyph unicode="\" horiz-adv-x="1052" d="M113 1282l278 127l537 -1335l-289 -121z" />
<glyph unicode="]" horiz-adv-x="749" d="M63 -109l56 342q5 0 14.5 1.5t12.5 1.5q16 2 30 13q15 12 27 37q13 27 20 72l117 705q6 46 1 75q-4 26 -14 44q-8 16 -23 22q-9 4 -25 10l53 355q100 -34 176 -94q29 -21 62 -59t52 -77q21 -44 30 -95q9 -53 3 -116l-80 -460q-41 -230 -55 -316q-11 -68 -24 -143 q-11 -64 -35 -111q-23 -44 -58 -81q-31 -33 -70 -56q-35 -21 -75 -37q-88 -33 -195 -33z" />
<glyph unicode="^" horiz-adv-x="1232" d="M129 739l586 529l432 -533l-283 -2l-166 189l-276 -183h-293z" />
<glyph unicode="_" horiz-adv-x="1353" d="M106 -332l50 289h1087l-53 -289h-1084z" />
<glyph unicode="`" horiz-adv-x="532" d="M41 1599h319l86 -290h-319z" />
<glyph unicode="a" horiz-adv-x="1275" d="M63 213q0 6 1.5 18.5t1.5 18.5q1 19 8 53l30 170q40 206 43 217q33 73 82 123q49 51 108 84q58 33 122 48q67 16 129 16q25 0 65 -8q42 -8 74 -20q35 -13 69 -32q29 -16 52 -43l16 103h318l-162 -963l-340 2l119 690l-4 23q-6 13 -23 30q-17 14 -37 23q-21 10 -63 10 q-41 0 -71 -18q-29 -17 -49 -42t-30 -46q-10 -22 -12 -31q0 -3 -1.5 -9t-4 -17t-4.5 -21q-2 -11 -8.5 -38.5t-9.5 -44.5q-4 -23 -16 -90q-7 -41 -7 -67q0 -25 16 -38q17 -14 39 -21q26 -9 46 -10q32 -2 38 -2q18 0 37 11q24 14 41 27q25 18 47 39l-43 -233q-51 -38 -84 -59 q-44 -28 -71 -40q-39 -17 -68 -22q-35 -6 -78 -6q-69 0 -125 19q-53 18 -99 51q-44 31 -67 69q-25 41 -25 76z" />
<glyph unicode="b" horiz-adv-x="1263" d="M102 0l224 1364h368l-184 -1110q15 -18 33 -33q16 -11 38 -21q23 -10 50 -10q36 0 67 13q30 13 48 29q20 18 31 35q12 18 18 30q2 4 11 39q1 3 18 89q14 67 14 71q4 16 4 56q0 37 -11 62q-10 27 -34 34q-15 5 -36 5q-13 0 -30 -2q-20 -1 -44 -12q-25 -11 -46 -25 q-37 -25 -49 -36l41 260q42 34 82 55q40 23 92 41q50 17 115 22h9q37 0 81 -15q57 -20 101 -51q47 -34 82 -84q34 -49 34 -114q0 -116 -24 -218q-28 -119 -44 -175q-6 -21 -35 -72q-28 -50 -79 -100q-51 -51 -125 -89t-172 -38q-126 0 -190 27q-66 27 -89 45l-14 -72h-355z " />
<glyph unicode="c" horiz-adv-x="1046" d="M79 245q-1 13 -1 25q0 15 2 27q10 50 18 109l35 206q7 44 34 87q26 42 54 71q36 36 79 68q50 37 100 62q59 29 117 46q66 19 128 19q140 0 209 -39t104 -101q27 -49 27 -94v-12q-5 -53 -33 -74q-23 -16 -43 -16q-14 0 -25 8q-27 18 -44 41q-18 38 -50 71q-34 35 -88 35 q-4 0 -34 -2q-20 -1 -46 -11q-24 -9 -45 -27q-23 -19 -34 -48q-26 -83 -41 -144q-19 -74 -19 -149q0 -10 2 -32q1 -14 12 -30q9 -14 27 -23t49 -9q61 0 107 34q60 45 94 73q29 14 62 11q32 -3 52 -20q22 -19 31 -46q9 -26 -4 -58q-85 -153 -229 -229q-143 -76 -317 -76 q-45 0 -89 15q-42 14 -83 43q-39 27 -68 65q-28 37 -43 80q-4 13 -7 44z" />
<glyph unicode="d" horiz-adv-x="1280" d="M51 322q9 66 24 155q17 104 27 148q18 56 59 111q43 57 98 98q56 41 134 69q75 26 164 31q17 1 33 1q48 0 86 -11q51 -15 119 -50l-37 -219q-10 37 -34 55q-22 17 -54 15q-67 -1 -107 -30q-36 -26 -56 -70q-20 -45 -29 -96q-9 -53 -21 -105q-8 -37 -8 -66q0 -32 10 -53 q10 -22 35 -36q18 -10 45 -10q10 0 20 1q59 4 106 42q45 36 62 91l174 971h346l-239 -1364l-346 -2l14 88q-45 -27 -105 -48q-55 -19 -119 -31q-52 -10 -107 -10h-18q-67 2 -116 17q-86 44 -125 129q-36 77 -36 159q0 10 1 20z" />
<glyph unicode="e" horiz-adv-x="964" d="M51 227l47 326q15 81 59 157q42 73 105 131q59 55 138 89q76 33 161 33q52 0 109 -13q54 -12 97 -39q48 -30 75 -69q31 -45 37 -103q1 -16 1 -32q0 -61 -22 -101q-28 -51 -73 -80q-44 -29 -91 -41q-49 -13 -76 -14q-22 -2 -46 -2q-20 0 -60 2q-24 0 -76 2l31 115 q2 0 12.5 1.5t16.5 2.5q4 0 14 1.5t17 2.5q18 2 36 6q66 6 87 38q22 33 18 54q0 1 -2 11q-1 5 -9 17q-6 9 -17 16t-32 7q-120 0 -159 -159q-2 -10 -7.5 -31.5t-7.5 -32.5q-13 -57 -14 -65q-2 -11 -5.5 -29t-4.5 -25q-4 -20 -4 -30q0 -18 12 -30q10 -10 29 -15q12 -3 34 -5 q11 -1 25 -1l162 81q23 15 50 9q28 -6 49 -26q23 -21 30 -50q3 -12 3 -24q0 -21 -9 -40q-6 -13 -38 -54q-38 -48 -89 -92q-54 -47 -133 -87q-77 -39 -166 -39q-95 0 -156 30q-63 31 -96 68q-35 40 -50 77q-14 34 -12 52z" />
<glyph unicode="f" horiz-adv-x="966" d="M72 690q3 19 16 96q15 86 21 111h208q23 129 42 211q19 86 60 138q41 53 113 75t203 22q23 0 85 -2q46 -1 90 -6q58 -6 86 -10q42 -6 75 -12l-20 -119q-5 2 -22 3q-18 1 -39 3q-28 2 -41 3t-27 1q-96 0 -148 -35q-52 -36 -76 -84l-47 -192h213l-35 -207l-223 -2 l-121 -684l-331 -2l120 690z" />
<glyph unicode="g" horiz-adv-x="1245" d="M51 317l66 357q23 55 74 109q48 51 115 93q62 39 136 62t136 23q53 0 115 -16q57 -15 106 -40l10 56h334l-158 -967q-23 -109 -72 -178q-52 -73 -131 -123q-57 -29 -111 -52q-58 -24 -116 -36q-61 -11 -117 -14q-60 -3 -108 -3q-39 0 -115 2q3 10 5 25q5 28 7 39 q2 8 5.5 25.5t5.5 25.5q67 5 145 19q65 11 115 29q56 20 80 54q22 32 48 85q21 44 33 108q43 248 66 407q25 171 29 211q1 8 1 15q0 43 -20 78q-21 37 -85 37h-3q-79 0 -123 -49q-42 -47 -65 -115l-45 -277q-2 -35 41 -57q44 -23 102 -27q45 0 65 3l36 6q17 3 24 10 l-31 -174q-69 -34 -134 -50q-72 -18 -144 -18q-74 0 -133 20q-64 22 -106 61q-44 41 -66 99q-18 48 -18 106q0 15 1 31z" />
<glyph unicode="h" horiz-adv-x="1286" d="M78 0l219 1364h369l-88 -555q152 84 191 101q51 22 99 35q49 13 105 13q117 0 194 -67q78 -68 80 -191l-114 -700h-383l96 547q2 12 2 23q0 38 -21 67q-25 35 -74 35h-5q-69 -1 -115 -33q-42 -29 -69 -78q-26 -48 -38 -103q-13 -63 -20 -110l-57 -348h-371z" />
<glyph unicode="i" horiz-adv-x="724" d="M121 0l153 913h125l9 48h-125l39 256h335l-36 -256h-125l-7 -50h121l-159 -911h-330z" />
<glyph unicode="j" horiz-adv-x="772" d="M-182 -410l28 144q159 15 227 89t91 226q62 403 82 518q15 100 55 346h139l9 45h-140l43 259h365l-37 -256h-51q-16 0 -44 -2q-9 -1 -38 2l-8 -50h131l-140 -837q-18 -115 -72 -205t-134 -152q-79 -61 -181 -93q-104 -33 -211 -34h-114z" />
<glyph unicode="k" horiz-adv-x="1169" d="M68 0l225 1364h379l-94 -614l59 -60l295 221q150 -203 201 -264q-221 -175 -279 -227l172 -242l127 -178h-240l-383 498l-90 -498h-372z" />
<glyph unicode="l" horiz-adv-x="765" d="M51 362l119 642l68 360h376l-202 -993q-8 -46 -8 -82q0 -66 28 -100q43 -52 170 -52h10q24 0 51 6q45 10 50 11l-19 -107q-74 -22 -115 -33q-55 -14 -122 -16q-50 0 -117 8q-59 7 -122 36q-56 26 -103 82q-46 55 -62 144z" />
<glyph unicode="m" horiz-adv-x="1955" d="M94 0l170 961h367l-19 -109q70 48 149 76q81 28 167 33h21q32 0 68 -2q48 -3 82 -17q39 -16 68 -43q31 -30 52 -74q12 11 54 33t102 45q57 21 136 40q77 18 156 18q45 0 91 -16q44 -15 77 -45t48 -72q10 -27 10 -58q0 -17 -3 -35q0 -3 -1.5 -10t-4 -19t-4.5 -22 q-8 -39 -18 -93l-52 -249l-71 -342h-371l131 623q3 14 3 27q0 35 -20 63q-23 33 -71 33q-7 0 -14 -1q-67 -1 -120 -36q-52 -34 -69 -103l-125 -606h-364l37 178l57 277q7 46 16 88q9 40 9 75q0 9 -1 18q-3 44 -26 75q-23 30 -82 30q-96 0 -139 -56q-45 -58 -62 -150 l-100 -535h-334z" />
<glyph unicode="n" horiz-adv-x="1316" d="M96 0l174 961h361l-21 -119q28 26 83 49q47 20 113 40q52 16 118 26q63 10 96 10q52 0 106 -13q46 -11 83 -40q35 -27 51 -70q11 -28 11 -65q0 -19 -3 -40l-107 -739h-407l118 662q3 16 3 29q0 35 -19 53q-28 26 -76 26q-86 0 -141 -40q-56 -41 -66 -85l-7 -35 t-13.5 -68.5t-16.5 -86.5q-31 -160 -38 -205q-19 -103 -43 -250h-359z" />
<glyph unicode="o" horiz-adv-x="1024" d="M55 233l29 222q9 56 31 168q28 72 85 132q54 57 119 97q68 42 138 68q67 25 135 38l-45 -258q-13 -9 -19 -18q-10 -14 -16 -27q-18 -32 -29 -73q-13 -46 -21 -86q-14 -68 -16 -80q-7 -44 -8 -58q-2 -10 -1 -18q1 -10 9 -19q7 -9 27 -17q17 -7 53 -7q88 0 131 33t54 57 q3 8 13 48q8 31 27 116q5 22 10 44.5t7.5 34.5t3.5 17q2 9 2 18q0 25 -13 47q-18 31 -71 31q-34 0 -57 -6q-21 -6 -37 -12q-13 -6 -27 -16l43 252l56 6q16 0 74 -10q56 -10 107 -35q54 -27 95 -71q42 -45 43 -112q0 -26 -7 -69q-2 -12 -7.5 -47t-8.5 -55q-7 -41 -20 -105 q-3 -13 -6.5 -30t-5.5 -28.5t-4 -19.5q-15 -59 -57 -127q-43 -69 -113 -126q-72 -58 -174 -96q-103 -38 -238 -38q-98 0 -157 27t-87 64t-37 78q-10 45 -10 66z" />
<glyph unicode="p" horiz-adv-x="1292" d="M23 -410l235 1371h350l-18 -107q7 3 61 29q42 20 79 36q28 12 86 30q45 14 85 14q56 0 112 -17q54 -17 97 -46q44 -30 71 -71q28 -41 29 -90v-10q0 -22 -3 -64q-2 -29 -13 -111q-3 -23 -9 -64.5t-7 -46.5q-4 -31 -13 -74q-18 -81 -62 -151q-41 -66 -108 -118 q-59 -47 -143 -75q-79 -27 -166 -27q-37 0 -70 4q-41 5 -69 10q-15 2 -42.5 8t-31.5 7l27 166q8 -7 20 -11q10 -4 27 -6t39 0q27 1 64 19q35 17 65 48q31 32 54 76q24 45 36 105q14 74 17 91q7 47 8 55q4 34 4 36q-1 22 -29 43q-24 18 -57 18q-6 0 -13 -1q-83 -5 -134 -41 q-51 -37 -62 -88q-4 -18 -10 -50q-17 -99 -34 -194q-27 -151 -42 -240l-80 -463h-350z" />
<glyph unicode="q" horiz-adv-x="1251" d="M63 213q0 9 5 39q1 5 4.5 26.5t5.5 34.5l31 162l45 215q25 66 69 114q46 50 100 85q56 36 113 53q63 19 115 19q51 0 91 -8q46 -9 67 -17q30 -11 52 -22q7 -4 15 -7.5t18 -7.5l15 -6l14 68l351 -3l-213 -1368l-353 -2l84 549q55 351 79 509q7 46 7 54q-1 13 -33 37 q-31 23 -73 23q-38 0 -66 -12q-25 -11 -49 -31q-21 -18 -33 -41q-13 -24 -14 -43l-23 -119q-7 -31 -17 -93q-5 -33 -5 -56v-13q0 -24 12 -41q11 -15 28 -25q16 -10 33 -14q16 -4 29 -4q21 0 45 11q27 13 43 24q25 18 45 37l-36 -238q-78 -56 -120 -78q-34 -18 -75 -30 q-42 -13 -96 -14h-12q-47 0 -93 14q-53 16 -100 47q-43 29 -75 75q-30 44 -30 97z" />
<glyph unicode="r" horiz-adv-x="1130" d="M63 0l158 961h375l-16 -103q38 17 65 32q35 19 67 33q31 14 70 26q38 12 80 12q46 0 78 -8t53 -22l82 -87q22 -34 29 -66q9 -39 10 -69l-268 -236q12 28 24 76q12 51 12 92v6q-2 50 -22 85q-21 36 -76 36q-75 0 -124 -34t-83 -86t-54 -116q-18 -59 -31 -124l-74 -408 h-355z" />
<glyph unicode="s" horiz-adv-x="1001" d="M80 231q-1 9 -1 17q0 75 40 126q42 55 129 66q17 2 33 2q43 0 74 -16q48 -25 82 -52q30 -24 77 -53q34 -21 79 -21q7 0 15 1q31 5 50 30q20 27 26 52q2 10 2 19q0 31 -25 53q-19 13 -69 21q-49 7 -107 12q-42 3 -110 13q-56 8 -82 19q-20 9 -45 26q-23 15 -41 35 q-19 21 -29 43q-10 24 -6 50q11 63 59 114q53 56 122 92q73 38 161 59q93 22 176 22q39 0 82 -8t78 -22q36 -14 64 -41q28 -26 44 -63q13 -30 17 -60q1 -10 1 -19q0 -19 -5 -38q-7 -25 -31 -44q-24 -20 -61 -21q-34 -2 -53 19q-16 17 -35 45q-14 21 -35 45q-17 20 -51 18 q-35 -2 -71 -24q-35 -22 -46 -58q-2 -22 10 -36q11 -14 27 -25q148 -51 198 -85q47 -32 76 -79q23 -37 22 -88q0 -14 -1 -29q-34 -186 -176 -267q-141 -81 -351 -81q-59 0 -109 11q-56 13 -99 39q-42 26 -72 72q-29 44 -33 109z" />
<glyph unicode="t" horiz-adv-x="960" d="M68 655l38 228h240q10 17 16 45q6 25 29 41q100 61 168 139q72 83 123 172q24 33 61 39l-69 -404l303 3l-33 -222h-295l-106 -696h-336l110 653z" />
<glyph unicode="u" horiz-adv-x="1245" d="M91 184q-2 25 -2 48q0 28 3 55q4 22 7 42l53 312l51 320h172h205q-118 -622 -119 -629q-1 -10 -1 -19q0 -44 28 -58q34 -17 87 -17q18 0 41 10q34 15 50 26q26 18 43 39q18 23 24 45q1 14 9 49l55 283q20 113 53 271h342l-154 -961h-360l16 96q-115 -51 -146 -62 q-46 -16 -91 -26q-47 -10 -109 -10q-89 0 -143 26q-55 27 -81 67q-29 45 -33 93z" />
<glyph unicode="v" horiz-adv-x="1060" d="M57 961h322q19 -150 29 -242q19 -174 21 -189q1 -11 15 -133l236 297l205 267h295l-688 -961h-351z" />
<glyph unicode="w" horiz-adv-x="1853" d="M63 961h365l37 -553l438 553h223q1 -85 7 -234q1 -41 3 -98q2 -68 3 -99q1 -17 2.5 -46.5t1.5 -42.5q1 -16 2.5 -41.5t1.5 -30.5l254 311l219 281h315l-729 -961h-372l-39 330l-303 -330h-396z" />
<glyph unicode="x" horiz-adv-x="1128" d="M-139 0l489 479l-227 482h381l117 -228l235 228h311l-446 -433l240 -528h-383l-121 268l-283 -268h-313z" />
<glyph unicode="y" horiz-adv-x="1333" d="M72 217l118 744h365l-45 -242l-66 -385q-4 -26 8 -47t29 -35t42 -22q22 -7 46 -7q86 0 148 56q61 55 76 145l86 537h381l-183 -1067q-12 -69 -54 -126q-41 -56 -102 -97q-58 -39 -133 -61t-145 -22q-136 0 -271 38q-132 37 -255 104q-2 26 4 49q7 27 8 51 q204 -48 291 -48q10 0 18 1q96 6 154 22q59 16 95 51t51 88q16 59 22 136q-71 -45 -153 -86q-74 -37 -167 -43q-18 -1 -35 -1q-50 0 -96 10q-65 14 -114 47q-51 35 -85 86q-33 51 -38 124z" />
<glyph unicode="z" horiz-adv-x="1230" d="M63 0l29 160l490 563h-396l35 238h912l-31 -211l-451 -529h340l-41 -221h-887z" />
<glyph unicode="{" horiz-adv-x="800" d="M53 766q42 32 66 53q42 35 77 72q39 40 66 79q30 43 37 74l29 181q11 65 34 110q24 46 58 82t72 59t79 40q86 35 205 40l-53 -296q-29 -8 -69 -42t-58 -100l-4 -33q-2 -13 -3.5 -25t-3 -20t-1.5 -10q-6 -32 -27 -68q-23 -40 -49 -71q-27 -32 -64 -68q-33 -32 -71 -59 q68 -125 86 -166q15 -35 28 -76q11 -36 7 -55q-2 -9 -5.5 -23t-4.5 -19q-1 -4 -2 -10.5t-2.5 -16t-2.5 -15.5l-8 -51q-8 -60 19 -100q26 -39 61 -58l-43 -313q-99 33 -174 92q-67 52 -116 136q-50 87 -40 212q6 40 10 59q11 69 17 89q5 31 -10 73q-16 46 -37 87 q-18 34 -51 86q-25 39 -52 71z" />
<glyph unicode="|" horiz-adv-x="698" d="M80 0l227 1364h287l-223 -1364h-291z" />
<glyph unicode="}" horiz-adv-x="800" d="M55 -139l51 297q30 8 70 42q43 36 60 101q0 5 1.5 15t2.5 16q0 5 1 14t2 14q2 19 5 27q6 35 26 69q19 32 50 70q28 34 63 69q29 29 72 60q-25 43 -45 82q-29 56 -41 83q-21 46 -29 74q-10 34 -6 56q1 6 2.5 15.5t2.5 16t2 10.5q4 20 6 29q4 18 5 27q1 12 6 37 q8 61 -20 100t-59 58l43 313q99 -33 174 -92q31 -23 62 -58q30 -35 52 -77t34 -96q12 -51 7 -117q-6 -40 -10 -59q-12 -76 -16 -88q-5 -31 10 -74q16 -46 37 -87q22 -42 50 -86q25 -39 52 -71q-29 -23 -65 -53q-42 -35 -77 -72q-43 -44 -67 -79q-30 -43 -37 -74l-28 -180 q-10 -63 -35 -112q-25 -50 -58 -83q-37 -37 -73 -59q-39 -24 -78 -39q-95 -38 -205 -39z" />
<glyph unicode="~" horiz-adv-x="913" d="M111 274l43 256q20 14 50 22q32 9 63 15q43 8 59 10q27 3 34 3q33 0 83 -9q40 -7 85 -18t88 -18q54 -9 93 -9q40 0 66 17q21 14 48 28l-45 -270l-51 -18q-65 -17 -78 -17q-37 0 -78 9q-27 6 -85 22q-44 12 -90 21q-52 10 -89 10q-36 0 -79 -9q-34 -7 -62 -18 q-33 -13 -55 -27z" />
<glyph unicode="&#xa1;" horiz-adv-x="698" d="M96 0l156 985h293l-160 -985h-289zM274 1090l43 274h287l-49 -274h-281z" />
<glyph unicode="&#xa2;" horiz-adv-x="1046" d="M79 245q-3 31 1 52q10 53 18 108l35 207q7 44 34 87q26 42 54 71q52 52 130 102q82 53 175 76l101 242l291 -100l-64 -164q35 -17 62 -44q24 -24 42 -57q31 -55 27 -107q-5 -55 -33 -73q-40 -27 -68 -8q-27 18 -44 41q-18 38 -50 71q-34 35 -88 35q-4 0 -34 -2 q-20 -1 -46 -11q-24 -9 -45 -27q-23 -19 -34 -48q-26 -83 -41 -144q-19 -74 -19 -149q0 -10 2 -32q1 -14 12 -30q9 -14 27 -23t49 -9q61 0 107 34q60 45 94 73q29 14 62 11q32 -3 52 -20q22 -19 31 -46q9 -26 -4 -58q-73 -131 -185 -203q-113 -73 -251 -94l-69 -182 l-299 102l61 150q-64 54 -86 125q-4 13 -7 44z" />
<glyph unicode="&#xa3;" horiz-adv-x="1138" d="M43 340l33 215h114l7 35h-111l35 215h110l33 192q7 53 40 120q31 64 89 120q55 54 144 91q85 36 204 36q33 0 85 -9q51 -9 105 -35q51 -25 95 -72q42 -45 59 -120q15 -63 6 -123q-9 -61 -24 -110l-279 -43l17 86q8 44 -22 69q-29 25 -81 25q-31 0 -61 -24t-35 -47 l-28 -156h114l-35 -215h-118l-9 -35h119l-35 -215h-122l-15 -78l633 -2l-45 -260h-967l58 340h-113z" />
<glyph unicode="&#xa4;" horiz-adv-x="1110" d="M135 520l23 150h112l15 73h-121q0 3 2.5 15.5l4.5 22.5l9 57q1 6 6 32t7 41h106q7 27 11 54q4 22 17 83q13 60 17 70q29 69 82 124q49 50 114 86q61 33 131 50q71 17 134 17q26 0 59 -4q39 -5 80 -16q43 -12 86 -34q45 -23 78 -59l-145 -250q-74 41 -91 47q-15 6 -36 7 q-14 1 -54 1q-76 0 -117 -29q-43 -30 -47 -63l-12 -71h113q-1 -6 -3.5 -31t-4.5 -37q-6 -41 -8 -54q-1 -8 -2.5 -21.5t-2.5 -18.5h-120l-13 -78h121q-18 -138 -24 -166l-123 4l-17 -80q-2 -22 -2 -39q0 -23 9 -44q8 -19 32 -35q23 -15 66 -15q91 0 161 17q71 17 86 26 l109 -239q-119 -57 -174 -75q-48 -16 -122 -29q-61 -11 -146 -11q-105 0 -174 27q-72 28 -110 65t-54 81q-15 41 -13 73l43 276h-98z" />
<glyph unicode="&#xa5;" horiz-adv-x="1251" d="M59 399l41 246h306l6 51h-299l41 246h184l-213 422h364l132 -322l190 322h403l-262 -422h191l-45 -246h-297l-33 -51h322l-46 -246h-309l-33 -399l-385 -2l54 401h-312z" />
<glyph unicode="&#xa6;" horiz-adv-x="698" d="M80 0l106 623h287l-102 -623h-291zM205 741l106 623h287l-102 -623h-291z" />
<glyph unicode="&#xa7;" horiz-adv-x="1001" d="M37 41q-2 22 4 57q6 44 12 86q6 40 25 140l256 2q-5 -22 -6 -34q-1 -5 -2.5 -13.5t-1.5 -10.5q-2 -14 -2 -20q0 -27 14 -52q16 -28 63 -28q44 0 67 19q22 18 35 49q11 27 13 60q2 42 2 56q-10 32 -42 67q-28 30 -119 98q-83 61 -124 96q-34 29 -59 65q-22 32 -16 65 q5 31 9 64l6 40l19 93q6 28 20 50q15 23 30 34q-12 12 -16 30q-5 22 -5 33q4 31 6 52q1 14 5 35q0 2 8 35t14 53q18 62 69 110q53 50 109 78q60 30 117 45q53 14 92 14q45 0 96 -12q48 -11 96 -37q43 -23 79 -62q34 -37 46 -89q0 -5 2 -23t3 -29q1 -27 0 -64q-1 -19 -9 -91 h-252q0 44 -14 66q-15 24 -31 34l-45 15q-52 0 -87 -32q-34 -31 -34 -59q0 -31 34 -56q31 -23 140 -82q108 -59 151 -96q47 -41 73 -92q26 -50 18 -124q-27 -198 -49 -234q-8 -14 -12 -24q-5 -13 -13 -19l-239 238q6 14 7 16t4 11q2 5 3 14q8 36 -2 64q-11 33 -31 55l-96 77 q-24 -19 -35 -41q-12 -24 -12 -40l150 -172l239 -238q4 -9 7 -35q3 -25 -1 -35l-63 -237q-7 -28 -40 -64q-31 -34 -82 -65q-48 -29 -120 -51q-69 -21 -155 -21q-85 0 -148 20q-61 19 -101 46t-60 54q-19 26 -19 46z" />
<glyph unicode="&#xa8;" horiz-adv-x="1071" d="M102 1272l54 327h311l-51 -327h-314zM590 1270l53 329h320l-52 -329h-321z" />
<glyph unicode="&#xa9;" horiz-adv-x="1411" d="M111 786q12 125 55 228q42 102 116 182q71 77 175 123q102 45 233 51q139 6 243 -28q109 -36 179 -96q76 -65 115 -146q42 -87 49 -178l-287 -2q1 22 6 43q5 17 6 32q1 6 2 13.5t1 9.5q0 10 -7 49q-6 34 -27 65t-64 56q-42 24 -111 24q-73 0 -123 -19q-53 -20 -86 -49 q-36 -31 -56 -66q-20 -34 -26 -68q-27 -142 -42 -228q-13 -77 -20 -134q-8 -69 -8 -99q0 -33 8 -70q7 -34 32 -62q24 -27 65 -45t106 -18t115 26q48 25 83 58q32 31 53 66q23 38 26 45q3 8 20 65q13 45 19 76q4 21 4 43h-203q-1 -31 -10 -59q-7 -20 -24 -41q-16 -19 -44 -19 q-15 0 -24 9q-7 7 -10 19q-3 13 -2 24q1 8 3 22q1 12 9 48q3 14 17 75l25 117q4 19 20 40q15 19 40 19q18 0 25 -13q8 -14 8 -30q0 -21 -4 -41l483 2q2 -38 1 -59q-2 -41 -5 -60q-17 -115 -60 -223q-41 -103 -109 -180q-70 -79 -170 -126q-103 -49 -241 -56 q-158 -11 -272 36q-118 48 -188 128q-72 83 -102 191q-29 107 -17 230z" />
<glyph unicode="&#xaa;" horiz-adv-x="958" d="M88 1227q23 100 40 159q20 72 55 117q37 48 98 72q62 24 163 24q35 0 83 -12q49 -12 79 -39l12 51l265 -2l-135 -589h-263l41 190q26 125 28 135q4 29 9 48q4 17 4 24q6 29 -19 41q-26 12 -54 12q-24 0 -40 -11q-17 -11 -29 -25q-11 -12 -17 -26q-2 -5 -5.5 -11t-3.5 -7 q-30 -106 -30 -147q0 -27 22 -34q20 -7 47 -5q23 1 48 26q24 24 40 46l-45 -195q-27 -20 -55 -36q-22 -12 -45 -19q-19 -5 -40 -7q-13 -1 -44 -1q-47 0 -88 18t-72 49q-30 30 -45 71q-15 39 -4 83z" />
<glyph unicode="&#xab;" horiz-adv-x="1200" d="M121 406l194 413h301l-170 -375h84l203 375h287l-201 -411l68 -406h-264l-103 367h-86l51 -369h-286z" />
<glyph unicode="&#xac;" horiz-adv-x="1306" d="M117 424l39 268h1034l-82 -495h-283l39 227h-747z" />
<glyph unicode="&#xad;" horiz-adv-x="712" d="M80 221l43 273h502l-43 -273h-502z" />
<glyph unicode="&#xae;" horiz-adv-x="1411" d="M117 799q15 125 69 227q55 103 141 179t197 117q112 42 244 42q136 0 241 -50q101 -48 169 -133q64 -80 92 -188q27 -105 12 -213q-21 -141 -67 -247q-47 -109 -128 -181q-82 -73 -204 -112q-123 -39 -297 -39q-83 0 -148 29q-66 29 -139 81l276 2l113 703q43 6 76 0 q28 -4 50 -20q22 -15 17 -50q-17 -45 -31 -63q-20 -25 -50 -48q-37 -29 -86 -51q1 10 1 11l-1 -7q-1 -9 -14 -88q-11 -66 -13 -90q10 4 13 3q3 -2 16 3l24 -151q9 -46 18 -105q8 -47 9 -47h244l-111 389q33 20 68 48q29 23 50 50q21 28 36 64q14 36 22 86q8 62 -8 111 q-16 50 -48 88q-30 36 -74 58t-83 22h-319l-146 -905h-61q-107 83 -147 206q-40 122 -23 269z" />
<glyph unicode="&#xaf;" horiz-adv-x="770" d="M121 1337l41 262h512l-41 -262h-512z" />
<glyph unicode="&#xb0;" horiz-adv-x="624" d="M104 1153q0 56 23 99q24 45 56 70q36 28 74 41q39 13 77 13q45 0 85 -13q41 -13 75 -41q30 -25 53 -72q20 -41 20 -103q0 -45 -11 -73q-11 -27 -24 -50q-16 -22 -34 -37l-113 135q2 5 6 11l1 4q2 4 3 7q2 10 2 13q0 11 -15 32t-38 21t-40 -17t-17 -42q0 -26 22 -41 q21 -14 35 -14q8 0 21 8q8 6 10 8l114 -135q-17 -19 -36 -29q-15 -9 -46 -19q-27 -9 -67 -9q-64 0 -109 21q-46 21 -72 55q-28 36 -41 76q-14 44 -14 81z" />
<glyph unicode="&#xb1;" horiz-adv-x="989" d="M49 123l39 244h784l-38 -244h-785zM127 696l39 244h272l41 240h260l-41 -238h252l-41 -246h-254l-43 -247l-260 2l43 245h-268z" />
<glyph unicode="&#xb2;" horiz-adv-x="860" d="M66 651q38 171 121 304q88 142 212 231q3 2 33 24q25 18 39 32q20 20 32 36q13 17 13 35q0 6 -12 15t-21 9q-18 0 -36 -12q-12 -8 -31 -29q-12 -14 -26 -34q-9 -14 -15 -33l-189 110q17 53 37 94q21 44 62 83q37 36 95 60q55 23 136 23q49 0 92 -14q49 -16 85 -46 q38 -32 62 -82q23 -47 23 -120q0 -72 -37 -128q-36 -54 -137 -154q-100 -99 -127 -158h205l-45 -246h-571z" />
<glyph unicode="&#xb3;" horiz-adv-x="806" d="M70 838q0 2 2 30q1 29 20 129l230 11q-1 -8 -8 -32q-5 -17 -5 -28q0 -12 6 -20t25 -8q2 0 14 5q10 5 15 21l22 119q0 11 -7 19q-8 10 -24 10q-11 0 -20 -4q-26 -6 -55 -27l-164 147l168 133h-144l35 256h537l-35 -241l-82 -80q45 -33 53 -65q7 -31 6 -39q-8 -84 -15 -132 q-14 -98 -32 -184q-23 -112 -104 -159q-82 -48 -225 -48q-76 0 -121 25q-43 24 -64 57q-19 30 -24 63q-4 27 -4 42z" />
<glyph unicode="&#xb4;" horiz-adv-x="581" d="M119 1270l55 329h311l-53 -329h-313z" />
<glyph unicode="&#xb6;" horiz-adv-x="1308" d="M66 961q18 106 65 176q47 69 110 110q66 42 134 58q70 16 141 16h768l-225 -1321h-303l174 1012h-53l-179 -1012h-323l180 1018q-83 0 -123 -8q-34 -7 -68 -28q-33 -20 -40 -60q-5 -13 -5 -39q0 -27 15 -60q15 -34 47 -64q36 -34 94 -57l-45 -249q-67 23 -132 56 q-74 37 -131 94q-58 58 -90 146t-11 212z" />
<glyph unicode="&#xb7;" horiz-adv-x="577" d="M133 522q16 84 58 121q41 37 120 37q28 0 55 -12q25 -11 48 -34q18 -18 30 -50q11 -30 5 -62q-16 -81 -66 -119q-48 -36 -123 -36q-23 0 -47 12q-25 12 -44 33q-19 20 -31 49q-11 27 -5 61z" />
<glyph unicode="&#xb8;" horiz-adv-x="2048" d="M209 -262l84 278l262 -6l-149 -272h-197z" />
<glyph unicode="&#xb9;" horiz-adv-x="774" d="M119 1157l63 252l248 190h254l-168 -948h-309l115 574z" />
<glyph unicode="&#xba;" horiz-adv-x="1024" d="M213 1122q0 12 5 59q3 25 13 85q4 28 21 106q18 69 64 110q44 39 98 65q51 24 96 33q55 11 63 13l-30 -174q-16 -11 -23 -30q-20 -38 -31 -94q-6 -30 -14 -78q-4 -16 5 -34t50 -18q57 0 82 22t29 42q0 2 1.5 5.5t3.5 10.5t3 12q9 31 17 66q11 46 12 55q5 19 -10 42 q-15 24 -47 24q-14 0 -26 -3q-14 -4 -20 -7l-16 -9l29 170l26 7q25 0 65 -8q43 -9 71 -24q31 -17 56 -48q23 -29 23 -76q0 -20 -17 -113q-5 -26 -10 -55t-7.5 -42.5t-3.5 -18.5q-10 -38 -38 -83q-27 -43 -75 -82q-49 -40 -115 -63q-67 -24 -155 -24q-66 0 -105 18 q-37 17 -58 43q-20 25 -26 51q-6 27 -6 45z" />
<glyph unicode="&#xbb;" horiz-adv-x="1091" d="M111 0l200 412l-67 405h264l102 -373h107l-53 375h286l78 -405l-194 -414h-302l168 369h-104l-199 -369h-286z" />
<glyph unicode="&#xbc;" horiz-adv-x="1773" d="M119 1157l63 252l248 190h254l-168 -948h-309l115 574zM420 147l534 1328l291 -101l-526 -1329zM928 176l45 234l401 538h297l-96 -581l76 2l-33 -197h-78l-33 -172h-299l76 453l-39 -50l-49 -227h-268z" />
<glyph unicode="&#xbd;" horiz-adv-x="1773" d="M119 1157l63 252l248 190h254l-168 -948h-309l115 574zM420 147l534 1328l291 -101l-526 -1329zM952 0q34 163 121 304t213 231q3 2 33 24q25 17 39 32q20 20 32 36q13 17 13 35q0 6 -12 15t-21 9q-18 0 -36 -12q-14 -10 -32 -29q-16 -17 -26 -35q-10 -17 -16 -32 l-187 110q16 50 37 93q22 46 61 83q38 37 96 61q55 23 136 23q48 0 91 -14q47 -15 84 -46q36 -30 61 -82q24 -50 24 -120q0 -72 -37 -128t-136 -155q-101 -101 -126 -157h205l-45 -246h-572z" />
<glyph unicode="&#xbe;" horiz-adv-x="1773" d="M70 838q0 2 2 30q1 29 20 129l230 11q-1 -8 -8 -32q-5 -17 -5 -28q0 -12 6 -20t25 -8q2 0 14 5q10 5 15 21l22 119q0 11 -7 19q-8 10 -24 10q-11 0 -20 -4q-26 -6 -55 -27l-164 147l168 133h-144l35 256h537l-35 -241l-82 -80q45 -33 53 -65q7 -31 6 -39q-8 -84 -15 -132 q-14 -98 -32 -184q-23 -112 -104 -159q-82 -48 -225 -48q-76 0 -121 25q-43 24 -64 57q-19 30 -24 63q-4 27 -4 42zM420 147l534 1328l291 -101l-526 -1329zM928 176l45 234l401 538h297l-96 -581l76 2l-33 -197h-78l-33 -172h-299l76 453l-39 -50l-49 -227h-268z" />
<glyph unicode="&#xbf;" horiz-adv-x="1034" d="M104 367q0 -15 9 -87q7 -58 46 -123q38 -64 115 -110q79 -47 218 -47q97 0 176 38q75 36 134 92q54 51 89 112q34 58 41 96l-250 158q-8 -25 -20 -46q-18 -32 -36 -54q-21 -25 -49 -44q-27 -18 -59 -18q-25 0 -53 19q-29 20 -29 65q0 22 27 60q31 43 65 81q39 43 82 85 q44 42 74 77q48 51 79 134q30 82 48 179h-334q-27 -118 -81 -192t-117 -135q-85 -83 -129 -160q-46 -80 -46 -180zM485 1085l52 279h325l-43 -279h-334z" />
<glyph unicode="&#xc0;" d="M-41 0l352 662q94 180 194 371t135 257.5t36 69.5l-90 239h293l73 -233l121 -2l98 -1364h-340l-63 836l-143 -344l153 -3l17 -249h-316l-123 -240h-397z" />
<glyph unicode="&#xc1;" d="M-47 0l579 1087q95 181 140 277h110l90 235h265l-68 -235l98 -1364h-340l-65 836l-144 -344l154 -3l16 -249h-315l-123 -240h-397z" />
<glyph unicode="&#xc2;" d="M-70 0l713 1362l78 2l16 119l279 145l246 -104l-88 -164l-193 76l-119 -74l178 2l105 -1364h-342l-66 836l-145 -344l156 -3l14 -249h-316l-122 -240h-394z" />
<glyph unicode="&#xc3;" d="M-33 0l340 627q380 706 393 737q-30 6 -63 3q-31 -3 -62 -11q-31 -7 -63 -23l20 230q23 12 91 33q57 18 110 18q35 0 85 -8q37 -6 95 -20q44 -11 99 -19q53 -8 96 -8q14 0 31 7q27 11 37 17q25 12 45 25l-21 -252q-17 -10 -51 -17q-40 -8 -66 -2l93 -1337h-340l-68 836 l-143 -344l153 -3l17 -249h-316l-123 -240h-389z" />
<glyph unicode="&#xc4;" d="M-35 0l668 1296h-221l55 303h342l-41 -235l188 -2l41 237l326 -2l-45 -297l-193 -2l86 -1298h-340l-63 836l-143 -344h151l17 -252h-314l-123 -240h-391z" />
<glyph unicode="&#xc5;" d="M-68 0l717 1329l-8 17q-6 15 -6 38q0 42 11 78q13 42 38 70q28 31 71 49q44 18 109 18q80 0 123 -23q47 -25 69 -57q23 -33 29 -72q7 -44 7 -67q0 -30 -12 -60q-13 -33 -21 -42l-137 88q4 10 -6 39q-9 27 -42 27q-34 0 -49 -20q-14 -18 -14 -34q0 -22 15 -40 q14 -17 38 -17q25 0 39 14q6 5 12 15l138 -86l90 -1264h-342l-64 836l-145 -344l156 -3l12 -249h-314l-122 -240h-392z" />
<glyph unicode="&#xc6;" horiz-adv-x="1697" d="M76 0l784 1364h760l-35 -283h-276l-39 -260h264l-37 -270h-272l-35 -248l270 2l-47 -305h-602l156 958l-283 -477l186 2l-39 -243h-235l-123 -240h-397z" />
<glyph unicode="&#xc7;" horiz-adv-x="1054" d="M100 360q0 5 4 28.5t7 42.5q5 38 53 326q13 78 25 148.5t17 100t5 32.5q6 45 42 102q35 56 96 106q59 49 140 84q78 34 177 34q75 0 132 -27q58 -28 95 -63q38 -36 61 -75t29 -60q4 -19 4 -56q0 -35 -4 -79q-6 -66 -14 -121h-254q3 12 5 32q1 13 3 25q1 4 2.5 12t1.5 11 q2 15 1 32q-2 23 -9 45q-7 21 -27 39q-19 17 -49 17q-29 0 -50 -23q-23 -25 -37 -55q-17 -38 -25 -70q-10 -40 -15 -67q-81 -390 -86 -426q-12 -88 5 -131q18 -45 71 -45q25 0 45 16q21 17 36 39q14 21 25 46q12 27 13 38q0 1 1.5 10t2.5 16q0 4 1.5 15t2.5 18q2 19 6 47 h252q-6 -38 -27 -145q-7 -27 -8 -41q-28 -79 -68 -137q-39 -57 -86 -98q-45 -39 -99 -64q-57 -26 -105 -37q4 -19 2 -45q-2 -30 -2 -45q-4 -25 -17 -49q-11 -22 -34 -42q-24 -21 -64 -36q-6 45 -19 68t-27 34q-15 12 -24 13q-4 1 -9 2h-3h-16q-12 0 -20 -1q-4 0 -7.5 -0.5 t-7.5 -1.5t-6 -1q-2 10 -3 42q-2 32 19 97q-71 21 -105 73t-46 107z" />
<glyph unicode="&#xc8;" horiz-adv-x="925" d="M63 2l115 709l107 655h137l-64 233h318l69 -235h123l-37 -295h-286l-37 -260h283l-43 -262h-291l-41 -248l293 2l-58 -297q-204 -2 -278 -2h-310z" />
<glyph unicode="&#xc9;" horiz-adv-x="978" d="M76 0l219 1364h147l45 233l312 2l-45 -235h174l-47 -317h-285l-37 -240h293l-41 -297h-301l-35 -221h313l-38 -291z" />
<glyph unicode="&#xca;" horiz-adv-x="925" d="M63 2l111 684l102 629h56l22 162l275 149l245 -106l-83 -172l-201 90l-174 -121h274h176l-43 -268h-278l-37 -250h280l-40 -262h-291l-39 -248l291 2l-52 -287q-204 -2 -280 -2h-314z" />
<glyph unicode="&#xcb;" horiz-adv-x="925" d="M63 2l113 684l103 633h-123l41 280h282l-39 -235h187l37 235h294l-38 -278h-56l-33 -252h-286l-37 -260h283l-43 -262h-291l-41 -248l293 2l-58 -297q-204 -2 -278 -2h-310z" />
<glyph unicode="&#xcc;" horiz-adv-x="655" d="M76 0l217 1364h76l-162 235h248l67 -235h80l-223 -1364h-303z" />
<glyph unicode="&#xcd;" horiz-adv-x="665" d="M74 -2l225 1366l115 2l39 233h243l-151 -235h63l-231 -1366h-303z" />
<glyph unicode="&#xce;" horiz-adv-x="681" d="M76 0l211 1274q-11 54 -24 89q-11 31 -23 85l307 178l221 -104l-98 -189q-102 34 -144 47l-69 -49q-23 -17 -51 -33l194 2l-221 -1300h-303z" />
<glyph unicode="&#xcf;" horiz-adv-x="688" d="M82 1323l43 276h285l-39 -237h194l43 237h285l-57 -278h-213l-230 -1323h-303l221 1325h-229z" />
<glyph unicode="&#xd0;" horiz-adv-x="1095" d="M33 541l43 272h98l90 551l303 -2l-80 -549h91l-43 -272h-86l-29 -207q28 6 56 16q26 9 56 29q28 19 49 50q20 30 31 81q18 81 25 124q6 35 22 135q12 78 16 123q5 63 5 85q0 25 -13 42q-13 18 -34 28q-22 11 -44 15q-27 5 -44 5l45 297h186q93 -17 142 -72 q47 -53 72 -130q24 -75 27 -158q3 -84 3 -158q-5 -251 -79 -428q-75 -178 -181 -299q-68 -55 -159 -81q-97 -27 -189 -34q-99 -7 -196 -6q-130 2 -175 2l88 541h-96z" />
<glyph unicode="&#xd1;" horiz-adv-x="1189" d="M76 0l221 1343h90l29 201q24 12 61 25q22 9 55 19q38 12 54 16q22 6 56 4q21 -1 65 -5q5 0 62 -9q33 -5 52 -5q25 -2 49 1q34 4 50 7l55 9l129 24l-31 -194l-51 -17q-30 -8 -46 -11q-27 -5 -40 -5q-70 0 -158 5t-102 4q-22 -2 -51 -9q-59 -17 -80 -31q-27 -18 -35 -26h92 l146 -353l55 355h315l-219 -1348h-330q16 107 35 211q8 52 13 77l24 134q-4 6 -11 18.5t-9 16.5q-32 51 -43 73l-64 109l-113 -639h-325z" />
<glyph unicode="&#xd2;" horiz-adv-x="1040" d="M78 229q0 24 19 163q23 166 34 236q24 146 29 176q4 20 24 148q9 55 17 92q8 38 28 83q22 50 60 97q40 49 98 87t143 53l-170 235h304l61 -235q47 -6 98 -22q46 -15 82 -43q37 -29 57 -70q20 -42 25 -105q1 -26 0 -41q-2 -20 -2 -22q0 -20 -7 -84q-6 -56 -23 -171 q-13 -86 -38 -223q-23 -126 -51 -241q-18 -75 -57 -131q-39 -55 -87 -93q-50 -39 -100 -62q-52 -24 -98 -36q-40 -11 -77 -16q-28 -4 -39 -4h-58l64 342q20 1 47 9q22 6 50 20q25 13 42 28q19 18 25 39q4 12 16 65q4 18 11.5 57.5t9.5 48.5q9 45 31 182q24 148 25 159 q5 43 5 47q0 27 -12 45q-13 19 -54 19q-29 0 -47 -6q-16 -5 -29 -20q-11 -13 -19 -37q-8 -27 -15 -56l-170 -938q-93 8 -143 44t-74 77q-29 47 -35 104z" />
<glyph unicode="&#xd3;" horiz-adv-x="1040" d="M72 256q0 14 8 78q6 46 62 374q16 92 30 174t21 121.5t8 45.5q6 39 30 93q22 50 72 103q46 49 122 84t183 35q15 0 25 -2l24 237h261l-119 -264q79 -24 128 -81q50 -57 54 -156q5 -82 -7 -180q-14 -119 -29 -204q-18 -104 -39 -201q-14 -64 -40 -171q-30 -127 -96 -196 q-64 -67 -138 -101q-72 -33 -136 -39q-63 -6 -88 -6h-21q-27 0 -37 2l64 342q47 0 79 8q29 7 46 23t24 32q2 5 7.5 16t7.5 17q50 268 77 427q15 87 15 96q0 26 -12 46q-12 19 -52 19q-49 0 -76 -24q-25 -22 -36 -95l-164 -903q-94 6 -143 46t-76 85q-32 56 -39 119z" />
<glyph unicode="&#xd4;" horiz-adv-x="1040" d="M80 248q0 18 8 82q5 38 35 228q30 186 52 311q27 149 30 169q6 33 24 78q16 41 54 90q32 42 88 82q51 37 129 55l16 130l287 149l237 -109l-86 -170l-200 87l-103 -74q63 -4 123 -18q58 -13 106 -44q44 -29 74 -80q29 -50 33 -122q1 -27 0 -45q-2 -24 -2 -27 q0 -19 -7 -78q-9 -79 -22 -157q-22 -137 -35 -208q-17 -94 -51 -235q-18 -76 -57 -130q-40 -55 -87 -92q-50 -39 -100 -62q-48 -22 -98 -37q-39 -12 -76 -17q-28 -4 -40 -4h-58l64 344q24 0 50 6q22 5 48 19t41 29q19 19 25 42q92 490 92 500q4 31 -8 56q-12 24 -54 24 q-53 0 -78 -28q-23 -26 -34 -89l-166 -899q-92 8 -143 46q-50 38 -74 83q-30 53 -37 115z" />
<glyph unicode="&#xd5;" horiz-adv-x="1040" d="M78 229q-4 24 4 92q7 63 21 148q11 69 47 260q39 209 46 241q9 43 17 91q6 30 19 68q13 40 40 80q26 39 67 77q42 39 97 62q-8 0 -19 4t-24 4q-20 0 -39 -4q-21 -4 -39 -9q-15 -4 -43 -10l33 236q18 9 55 22q27 11 63 18q34 7 77 7q41 0 95 -9q52 -9 151 -30 q97 -21 118 -21q15 0 43 6q17 4 39 11l41 16l-24 -250q-7 -4 -23 -12q-3 -1 -7 -2.5t-9 -3t-8 -2.5q-12 -4 -29 -4q44 -28 70 -82t26 -119q0 -86 -11 -181q-14 -122 -29 -211q-22 -129 -38 -208q-21 -100 -39 -174q-30 -125 -97 -196q-64 -67 -138 -101q-72 -33 -135 -39 t-88 -6h-21q-27 0 -37 2l64 342q27 0 50 4q29 5 48 14q23 11 41 30q19 21 25 48q21 103 31 167q9 57 30 168q22 117 26 148q3 24 7 44q4 27 -9 52t-55 25q-60 0 -81 -30q-20 -29 -31 -88l-166 -920q-94 6 -143 42q-50 36 -74 77q-29 48 -35 106z" />
<glyph unicode="&#xd6;" horiz-adv-x="1040" d="M78 266q0 31 1 44t1 26l115 686q8 55 31 100q25 49 54 85q36 45 63 66q37 29 63 44h-175l39 282h303l-34 -241q45 8 70 7q20 -1 36 -1q23 0 39 -2q14 -2 25 -6l-64 -336q-17 6 -41 4q-23 -2 -46 -13q-23 -12 -43 -33q-20 -22 -32 -54q-3 -9 -16 -63q-10 -42 -39 -212 q-32 -190 -34 -204q-5 -40 -5 -44q0 -27 12 -46t54 -19q60 0 81 30q21 29 31 89l205 1142l301 2l-49 -282h-147q34 -25 57 -57q19 -27 31 -60q11 -31 16 -67q-3 -11 -13 -79q-10 -67 -66 -385q-25 -144 -60 -352q-5 -35 -28 -93q-21 -55 -66 -104q-47 -51 -117 -85 q-73 -35 -178 -35q-70 0 -136 12q-61 11 -117 43q-51 29 -85 82q-32 50 -37 129z" />
<glyph unicode="&#xd7;" horiz-adv-x="1114" d="M111 197l235 225l-149 182l206 195l164 -195l232 205l178 -205l-227 -196l186 -211l-225 -197l-183 219l-217 -219z" />
<glyph unicode="&#xd8;" horiz-adv-x="1239" d="M31 78l151 244v10q0 19 7 79q7 65 21 159q12 86 35 211q18 100 52 237q18 76 57 130q40 55 87 92q49 38 101 62q42 19 96 36q43 13 76 18q28 4 40 4h22q14 0 19 -1t16 -1l-63 -342q-25 0 -49 -7q-23 -7 -48 -20q-24 -13 -41 -30q-19 -19 -24 -39q-6 -20 -17 -63 q-10 -42 -39 -212q-28 -168 -33 -204q-5 -40 -5 -44q0 -27 12 -46t53 -19q59 0 80 24t33 95l161 903l119 194l256 -145l-131 -234q4 -9 4 -18q0 -6 2 -12q0 -9 2 -11q-3 -13 -13 -78q-16 -105 -65 -385q-44 -252 -61 -352q-5 -35 -28 -93q-21 -55 -66 -104q-47 -51 -117 -85 q-73 -35 -178 -35q-49 0 -105 8q-49 7 -100 25l-88 -117z" />
<glyph unicode="&#xd9;" horiz-adv-x="1124" d="M98 340l76 498q78 518 78 526h321l-116 -786q-18 -131 7 -183q26 -53 83 -53q26 0 40 14q15 15 24 37q12 29 15 48q4 25 9 48l131 791h-80l-102 319h227l51 -235h209l-170 -1077q-7 -49 -40 -100q-31 -49 -85 -92q-49 -39 -127 -68q-73 -27 -166 -27q-144 0 -221 46 q-78 46 -115 106q-37 59 -43 114q-6 56 -6 74z" />
<glyph unicode="&#xda;" horiz-adv-x="1124" d="M98 344l158 1020h225l92 235h258l-219 -301h-41l-114 -716q-21 -128 -6 -182t73 -54q32 0 50 14q21 16 32 37q14 26 19 48q1 6 10 49q0 2 4 24t12 68.5t17 100.5q42 254 43 263l67 414h299l-176 -1073q-7 -48 -40 -101q-31 -50 -86 -93q-53 -41 -127 -69 q-75 -28 -165 -28q-94 0 -161 23t-109 56q-43 34 -67 75q-21 36 -33 78t-13 69q-2 40 -2 43z" />
<glyph unicode="&#xdb;" horiz-adv-x="1124" d="M98 295q-2 30 0 45l156 995h43l-4 144l278 145l240 -108l-80 -162l-201 78l-120 -97h155l-108 -757q-19 -133 -7 -183q12 -53 68 -53q33 0 53 14q21 15 34 37q14 24 20 48q3 11 10 48l115 846h317l-166 -1048q-7 -49 -40 -100q-31 -49 -85 -92q-49 -39 -127 -68 q-73 -27 -166 -27q-92 0 -161 22q-67 21 -110 54q-46 35 -68 72q-21 36 -33 78t-13 69z" />
<glyph unicode="&#xdc;" horiz-adv-x="1189" d="M98 332l105 694l51 315h139l4 33h-112l34 225h330l-37 -225h-129l-2 -31l105 -2l-129 -772q-21 -126 -7 -181q14 -54 70 -54q26 0 44 14q19 15 34 37q15 23 24 48q8 22 13 48l137 860l139 2l2 31h-114l39 225h319l-35 -225h-112l-2 -33l77 -2l-69 -440l-105 -620 q-11 -51 -43 -99t-88 -89q-53 -39 -130 -65q-76 -26 -167 -26q-143 0 -222 45q-78 44 -116 102q-37 56 -43 112q-6 52 -4 73z" />
<glyph unicode="&#xdd;" horiz-adv-x="1169" d="M92 1364h203l102 233l332 2l-237 -321l96 -236l180 322h414l-463 -743l-88 -621h-369l127 772z" />
<glyph unicode="&#xde;" horiz-adv-x="1222" d="M74 -2l225 1364l307 2l-153 -907q1 -4 11 -15q7 -8 24 -20q15 -11 37 -20q21 -9 48 -9q39 0 70 13q30 13 48 29q21 19 30 35q7 12 16 30q8 13 13 39q2 9 7.5 38.5t9.5 50.5q11 53 13 70q3 13 5 57q1 37 -11 62q-10 26 -35 34q-24 8 -65 3q-20 -1 -44 -12q-25 -11 -46 -25 q-31 -22 -49 -37l40 260q47 37 84 56q40 23 92 41q51 17 113 22q41 2 90 -15q59 -20 102 -51q47 -34 82 -84q33 -47 33 -114q0 -120 -23 -218q-28 -119 -44 -175q-6 -21 -35 -72q-27 -47 -80 -100q-51 -52 -125 -89q-74 -38 -172 -38q-119 0 -179 23q-62 24 -91 42l-45 -270 h-303z" />
<glyph unicode="&#xdf;" horiz-adv-x="1204" d="M119 0l227 1348h399q37 0 97 -18t112 -61t87 -119t20 -189q-5 -25 -21 -54q-16 -30 -42 -60q-27 -32 -59 -54q-38 -26 -73 -33q35 -11 80 -39q40 -25 80 -71q37 -43 58 -108q21 -66 14 -153q-7 -58 -38 -127q-30 -68 -81 -126q-50 -57 -125 -97q-74 -39 -172 -39 q8 0 15 -0.5t11 -1t5 -0.5h1h-1h-1h-1h-1h-1h-1h-10q-5 0 -16 0.5t-31 1t-37 0.5l43 274q14 0 37 10q21 9 39 24q16 14 33 37q13 18 18 44q12 60 4 115q-7 51 -32 93q-23 38 -62 62q-38 23 -82 23l35 197q51 0 85 8q30 7 49 20q18 12 24 27q7 17 8 27q5 24 -7 40 q-12 17 -31 27q-17 9 -42 14t-41 5h-57l-184 -1047h-332z" />
<glyph unicode="&#xe0;" horiz-adv-x="1275" d="M63 213q0 6 1.5 18.5t1.5 18.5q1 19 8 53l30 170q40 206 43 217q52 113 146 178q93 64 194 82l-157 267h307l68 -277q40 -11 81 -33t62 -49l16 103h318l-162 -963l-340 2l119 690l-4 23q-6 13 -23 30q-17 14 -37 23q-21 10 -63 10q-41 0 -71 -18q-29 -17 -49 -42t-30 -46 q-10 -22 -12 -31q0 -3 -1.5 -9t-4 -17t-4.5 -21q-2 -11 -8.5 -38.5t-9.5 -44.5q-4 -23 -16 -90q-7 -41 -7 -67q0 -25 16 -38q17 -14 39 -21q26 -9 46 -10q32 -2 38 -2q18 0 37 11q24 14 41 27q25 18 47 39l-43 -233q-51 -38 -84 -59q-44 -28 -71 -40q-39 -17 -68 -22 q-35 -6 -78 -6q-69 0 -125 19q-53 18 -99 51q-44 31 -67 69q-25 41 -25 76z" />
<glyph unicode="&#xe1;" horiz-adv-x="1275" d="M63 213q0 6 1.5 18.5t1.5 18.5q1 19 8 53l30 170q40 206 43 217q52 113 143 176q88 61 191 84l45 267h289l-115 -275q49 -17 84 -35q43 -22 64 -49l16 103h318l-162 -963l-340 2l119 690l-4 23q-6 13 -23 30q-17 14 -37 23q-21 10 -63 10q-41 0 -71 -18q-29 -17 -49 -42 t-30 -46q-10 -22 -12 -31q0 -3 -1.5 -9t-4 -17t-4.5 -21q-2 -11 -8.5 -38.5t-9.5 -44.5q-4 -23 -16 -90q-7 -41 -7 -67q0 -25 16 -38q17 -14 39 -21q26 -9 46 -10q32 -2 38 -2q18 0 37 11q24 14 41 27q25 18 47 39l-43 -233q-51 -38 -84 -59q-44 -28 -71 -40 q-39 -17 -68 -22q-35 -6 -78 -6q-69 0 -125 19q-53 18 -99 51q-44 31 -67 69q-25 41 -25 76z" />
<glyph unicode="&#xe2;" horiz-adv-x="1275" d="M63 213q0 6 1.5 18.5t1.5 18.5q1 19 8 53l30 170q40 206 43 217q39 80 96 134q58 55 124 87l28 240l88 39q33 16 71 30q28 10 54 17q38 3 62 4q13 0 43.5 1.5t47.5 2.5q48 1 90 3q45 2 56 5l137 41q36 11 70 27l-33 -236q-26 -11 -59 -22q-34 -12 -64 -19q-36 -8 -71 -12 q-11 -2 -51 -3q-34 -1 -88 -3q-35 -1 -93 -5q-47 -3 -65 -7q-28 -6 -66 -27q-36 -20 -71 -43q74 17 135 17q25 0 65 -8q42 -8 74 -20q35 -13 69 -32q29 -16 52 -43l16 103h318l-162 -963l-340 2l119 690l-4 23q-6 13 -23 30q-17 14 -37 23q-21 10 -63 10q-41 0 -71 -18 q-29 -17 -49 -42t-30 -46q-10 -22 -12 -31q0 -3 -1.5 -9t-4 -17t-4.5 -21q-2 -11 -8.5 -38.5t-9.5 -44.5q-4 -23 -16 -90q-7 -41 -7 -67q0 -25 16 -38q17 -14 39 -21q26 -9 46 -10q32 -2 38 -2q18 0 37 11q24 14 41 27q25 18 47 39l-43 -233q-51 -38 -84 -59 q-44 -28 -71 -40q-39 -17 -68 -22q-35 -6 -78 -6q-69 0 -125 19q-53 18 -99 51q-44 31 -67 69q-25 41 -25 76z" />
<glyph unicode="&#xe3;" horiz-adv-x="1275" d="M63 213q0 6 1.5 18.5t1.5 18.5q1 19 8 53l30 170q40 206 43 217q38 80 95 134q56 53 125 87l28 240q41 21 84 39q31 15 78 31q39 13 82 20q55 8 128 5q77 -3 138 7q70 11 125 34q53 22 86 42l-35 -244q-31 -20 -88 -35q-53 -14 -114 -18q-81 -6 -141 -5q-58 1 -117 -7 q-33 -5 -70 -25q-41 -22 -72 -49q34 10 55 12q39 3 54 3q25 0 65 -8q42 -8 74 -20q35 -13 69 -32q29 -16 52 -43l16 103h318l-162 -963l-340 2l119 690l-4 23q-6 13 -23 30q-17 14 -37 23q-21 10 -63 10q-41 0 -71 -18q-29 -17 -49 -42t-30 -46q-10 -22 -12 -31 q0 -3 -1.5 -9t-4 -17t-4.5 -21q-2 -11 -8.5 -38.5t-9.5 -44.5q-4 -23 -16 -90q-7 -41 -7 -67q0 -25 16 -38q17 -14 39 -21q26 -9 46 -10q32 -2 38 -2q18 0 37 11q24 14 41 27q25 18 47 39l-43 -233q-51 -38 -84 -59q-44 -28 -71 -40q-39 -17 -68 -22q-35 -6 -78 -6 q-69 0 -125 19q-53 18 -99 51q-44 31 -67 69q-25 41 -25 76z" />
<glyph unicode="&#xe4;" horiz-adv-x="1275" d="M63 213q0 6 1.5 18.5t1.5 18.5q1 19 8 53l30 170q40 206 43 217q45 95 120 158q70 58 159 88l6 45h-113l43 236h285l-47 -236h-92l-4 -27q51 7 84 7q42 0 104 -17l10 41h-67l47 232h274l-49 -234h-119l-16 -70q49 -22 76 -55l16 103h318l-162 -963l-340 2l119 690l-4 23 q-6 13 -23 30q-17 14 -37 23q-21 10 -63 10q-41 0 -71 -18q-29 -17 -49 -42t-30 -46q-10 -22 -12 -31q0 -3 -1.5 -9t-4 -17t-4.5 -21q-2 -11 -8.5 -38.5t-9.5 -44.5q-4 -23 -16 -90q-7 -41 -7 -67q0 -25 16 -38q17 -14 39 -21q26 -9 46 -10q32 -2 38 -2q18 0 37 11 q24 14 41 27q25 18 47 39l-43 -233q-51 -38 -84 -59q-44 -28 -71 -40q-39 -17 -68 -22q-35 -6 -78 -6q-69 0 -125 19q-53 18 -99 51q-44 31 -67 69q-25 41 -25 76z" />
<glyph unicode="&#xe5;" horiz-adv-x="1265" d="M63 213q0 6 1.5 18.5t1.5 18.5q1 19 8 53l30 170q40 206 43 217q45 94 117 156q73 62 158 86q-45 30 -68 82q-22 50 -22 98q0 58 22 99q23 44 57 70q36 28 74 41q39 13 78 13q45 0 84 -13q40 -13 74 -41q31 -25 53 -71q21 -44 21 -104q0 -43 -12 -73q-13 -33 -23 -50 q-14 -21 -33 -37l-115 135q2 5 6 11q0 1 2 4.5t3 6.5q2 10 2 13q0 11 -15 32t-39 21q-23 0 -39 -16t-16 -43q0 -26 23 -41q21 -14 32 -14q10 0 23 8q8 6 10 8l113 -135q38 -12 74 -32q35 -20 57 -46l16 103h318l-162 -963l-340 2l119 690l-4 23q-6 13 -23 30q-17 14 -37 23 q-21 10 -63 10q-41 0 -71 -18q-29 -17 -49 -42t-30 -46q-10 -22 -12 -31q0 -3 -1.5 -9t-4 -17t-4.5 -21q-2 -11 -8.5 -38.5t-9.5 -44.5q-4 -23 -16 -90q-7 -41 -7 -67q0 -25 16 -38q17 -14 39 -21q26 -9 46 -10q32 -2 38 -2q18 0 37 11q24 14 41 27q25 18 47 39l-43 -233 q-51 -38 -84 -59q-44 -28 -71 -40q-39 -17 -68 -22q-35 -6 -78 -6q-69 0 -125 19q-53 18 -99 51q-44 31 -67 69q-25 41 -25 76z" />
<glyph unicode="&#xe6;" horiz-adv-x="1648" d="M111 209q-4 36 4 74q5 23 18 88q15 84 68 145q51 58 123 94q71 35 147 50q83 16 145 16q52 0 99 -18t90 -42l6 27q1 12 3 39q1 27 -9 52q-10 24 -38 46q-27 21 -83 21q-41 0 -70 -13q-28 -13 -43 -26q-18 -18 -24 -39l-174 100q31 40 76 70q39 27 96 48q60 22 139 22 q116 0 190 -31q70 -29 117 -78q17 17 41 33q28 19 65 35q33 14 91 26q50 10 121 10q41 0 89 -15q45 -14 88 -46q38 -28 64 -78q25 -48 19 -110q-7 -81 -46 -135q-36 -50 -89 -80q-49 -27 -109 -40q-57 -12 -106 -12h-62q-9 0 -29 2l21 123h35q30 0 71 6q32 1 54 14 q20 11 31 24q11 12 16 29q4 13 4 26q1 18 -23 33q-26 16 -65 16q-22 0 -48 -13q-23 -11 -43 -30q-19 -17 -33 -41q-14 -23 -18 -45l-28 -221q-5 -29 23 -54q27 -24 75 -24q40 0 84 31q53 37 92 61q16 8 37 -3q24 -13 42 -32q20 -22 30 -43q10 -22 0 -37q-6 -11 -43 -52 q-39 -44 -99 -89q-66 -50 -146 -85q-87 -38 -185 -38q-86 0 -139 14q-56 15 -91 39q-34 23 -48 57q-13 31 -7 66l43 264q-4 3 -11 9.5t-9 8.5q-9 8 -27 16q-13 6 -42 11q-23 4 -67 4q-24 0 -50 -9t-47 -24q-20 -14 -36 -35q-14 -19 -16 -40q-6 -31 2 -53q7 -20 25 -31 q14 -9 37 -14q18 -4 44 -2q23 2 50 15q21 11 53 30q14 9 61 43l-37 -228q-29 -29 -69 -65q-27 -24 -65 -44q-34 -18 -77 -25q-41 -7 -110 -7q-70 0 -117 17q-49 18 -82 48t-50 66t-19 78z" />
<glyph unicode="&#xe7;" horiz-adv-x="1046" d="M79 245q-3 31 1 52q10 50 18 109l35 206q7 44 34 87q26 42 54 71q36 36 79 68q50 37 100 62q59 29 117 46q66 19 128 19q140 0 209 -39t104 -101q31 -55 27 -107q-5 -55 -33 -73q-40 -27 -68 -8q-27 18 -44 41q-18 38 -50 71q-34 35 -88 35q-4 0 -34 -2q-20 -1 -46 -11 q-24 -9 -45 -27q-23 -19 -34 -48q-26 -83 -41 -144q-19 -74 -19 -149q0 -10 2 -32q1 -14 12 -30q9 -14 27 -23t49 -9q61 0 107 34q60 45 94 73q29 14 62 11q32 -3 52 -20q22 -19 31 -46q9 -26 -4 -58q-69 -125 -178 -199q-108 -74 -241 -96q6 -29 9 -76q3 -45 -9 -79 q-10 -28 -28 -43q-17 -14 -34 -25q-18 -9 -41 -14q-2 6 -14 32q-21 46 -29 58q-7 10 -23 15q-17 5 -32 5q-11 0 -39 -2q-6 47 0 75q8 35 16 62q-63 22 -114 72q-51 49 -72 113q-4 13 -7 44z" />
<glyph unicode="&#xe8;" horiz-adv-x="964" d="M51 227l47 326q11 74 45 140t88 121q51 52 119 91q65 37 137 49l-157 263h311l66 -279q67 -22 114 -72q48 -51 58 -127q7 -82 -21 -133t-73 -80q-44 -29 -91 -41q-49 -13 -75 -14q-22 -2 -47 -2q-20 0 -60 2q-24 0 -76 2l31 115q2 0 12.5 1.5t16.5 2.5q4 0 14 1.5t17 2.5 q18 2 36 6q66 6 87 38q22 33 18 54q0 1 -2 11q-1 5 -9 17q-6 9 -17 16t-32 7q-120 0 -159 -159q-2 -10 -7.5 -31.5t-7.5 -32.5q-13 -57 -14 -65q-2 -11 -5.5 -29t-4.5 -25q-4 -20 -4 -30q0 -18 12 -30q10 -10 29 -15q12 -3 34 -5q11 -1 25 -1l162 81q23 15 50 9 q28 -6 49 -26q23 -21 30 -50q8 -33 -6 -64q-6 -13 -38 -54q-38 -48 -89 -92q-54 -47 -133 -87q-77 -39 -166 -39q-95 0 -156 30q-62 30 -97 68q-37 40 -50 77q-13 35 -11 52z" />
<glyph unicode="&#xe9;" horiz-adv-x="964" d="M51 227l47 326q11 74 45 140q36 69 87 120q53 53 118 90q62 35 137 51l47 263h279l-113 -275q71 -23 120 -72q51 -51 61 -131q7 -82 -21 -133t-73 -80q-44 -29 -91 -41q-49 -13 -76 -14q-22 -2 -46 -2q-20 0 -60 2q-24 0 -76 2l31 115q2 0 12.5 1.5t16.5 2.5q4 0 14 1.5 t17 2.5q18 2 36 6q66 6 87 38q22 33 18 54q0 1 -2 11q-1 5 -9 17q-6 9 -17 16t-32 7q-120 0 -159 -159q-2 -10 -7.5 -31.5t-7.5 -32.5q-13 -57 -14 -65q-2 -11 -5.5 -29t-4.5 -25q-4 -20 -4 -30q0 -18 12 -30q10 -10 29 -15q12 -3 34 -5q11 -1 25 -1l162 81q23 15 50 9 q28 -6 49 -26q23 -21 30 -50q8 -33 -6 -64q-6 -13 -38 -54q-38 -48 -89 -92q-54 -47 -133 -87q-77 -39 -166 -39q-95 0 -156 30q-62 30 -97 68q-37 40 -50 77q-13 35 -11 52z" />
<glyph unicode="&#xea;" horiz-adv-x="964" d="M51 227l47 326q7 63 39 130q29 62 77 114q49 54 104 89q60 38 122 56l25 168l256 166l231 -84l-35 -199l-233 66l-121 -96q54 0 110 -14q55 -14 97 -40q44 -27 73 -68q30 -42 36 -102q7 -82 -21 -133t-73 -80q-44 -29 -91 -41q-49 -13 -76 -14q-22 -2 -46 -2q-20 0 -60 2 q-24 0 -76 2l31 115q2 0 12.5 1.5t16.5 2.5q4 0 14 1.5t17 2.5q18 2 36 6q66 6 87 38q22 33 18 54q0 1 -2 11q-1 5 -9 17q-6 9 -17 16t-32 7q-120 0 -159 -159q-2 -10 -7.5 -31.5t-7.5 -32.5q-13 -57 -14 -65q-2 -11 -5.5 -29t-4.5 -25q-4 -20 -4 -30q0 -18 12 -30 q10 -10 29 -15q12 -3 34 -5q11 -1 25 -1l162 81q23 15 50 9q28 -6 49 -26q23 -21 30 -50q8 -33 -6 -64q-6 -13 -38 -54q-38 -48 -89 -92q-54 -47 -133 -87q-77 -39 -166 -39q-95 0 -156 30q-62 30 -97 68q-37 40 -50 77q-13 35 -11 52z" />
<glyph unicode="&#xeb;" horiz-adv-x="964" d="M51 227l47 326q7 61 35 119t67 105q41 49 91 87q55 42 106 64l9 51h-115l35 238h280l-37 -238h-92l-4 -27q49 11 88 11q33 0 78 -7q43 -7 74 -20l6 43h-115l35 238h281l-37 -238h-92l-13 -76q43 -29 68 -66q27 -40 33 -98q7 -82 -21 -133t-73 -80q-44 -29 -91 -41 q-49 -13 -76 -14q-22 -2 -46 -2q-20 0 -60 2q-24 0 -76 2l31 115q2 0 12.5 1.5t16.5 2.5q4 0 14 1.5t17 2.5q18 2 36 6q66 6 87 38q22 33 18 54q0 1 -2 11q-1 5 -9 17q-6 9 -17 16t-32 7q-120 0 -159 -159q-2 -10 -7.5 -31.5t-7.5 -32.5q-13 -57 -14 -65q-2 -11 -5.5 -29 t-4.5 -25q-4 -20 -4 -30q0 -18 12 -30q10 -10 29 -15q12 -3 34 -5q11 -1 25 -1l162 81q23 15 50 9q28 -6 49 -26q23 -21 30 -50q8 -33 -6 -64q-6 -13 -38 -54q-38 -48 -89 -92q-54 -47 -133 -87q-77 -39 -166 -39q-95 0 -156 30q-62 30 -97 68q-37 40 -50 77q-13 35 -11 52z " />
<glyph unicode="&#xec;" horiz-adv-x="724" d="M121 0l153 913h74l-100 304h299l-21 -306h84l-159 -911h-330z" />
<glyph unicode="&#xed;" horiz-adv-x="724" d="M121 0l153 913h78l4 304h301l-122 -306h75l-159 -911h-330z" />
<glyph unicode="&#xee;" horiz-adv-x="880" d="M121 0l153 913h52l24 162l230 195l249 -96l-26 -183l-254 68l-158 -146q142 0 156 -1t63 -1l-159 -911h-330z" />
<glyph unicode="&#xef;" horiz-adv-x="837" d="M121 0l153 913h25l8 48h-125l39 256h256l-39 -256l-59 -3l-4 -47h141l6 50h-53l41 256h244l-37 -256h-123l-8 -50h24l-159 -911h-330z" />
<glyph unicode="&#xf0;" horiz-adv-x="1425" d="M86 231l29 213q13 78 30 160q16 73 70 131t123 99q66 39 146 67q75 26 141 39l-45 -260q-25 -22 -39 -44q-16 -26 -24 -47t-13 -43q-4 -19 -6 -32t-7.5 -40t-7.5 -40q-3 -16 -10 -59q-5 -33 -6 -37q0 -1 2 -17q1 -11 11 -21q7 -7 28 -16q19 -8 53 -8q26 0 59 11t60 28 q28 17 50 43q23 26 30 54q4 14 22 90q13 56 19 90q5 27 6 39q1 16 0 34q-1 14 -10 30q-8 14 -27 22t-51 8q-26 -1 -53 -7q-16 -3 -35 -13q-15 -7 -27 -19l47 256l45 6q28 2 83 -11q59 -13 114 -42l39 158l-182 -11l43 181l180 12q1 34 8 72q6 35 -10 61t-70 43 q-51 16 -166 16q-13 0 -50 -4q-42 -5 -60 -6q-15 -1 -23 -4l33 117q68 16 147 28q70 11 154 11q142 0 205 -27q64 -27 80 -72q17 -45 3 -102q-15 -64 -26 -121l150 8l-21 -188l-176 -8l-176 -709q-16 -58 -65 -121q-47 -60 -125 -112q-77 -51 -180 -84t-228 -33 q-100 0 -158 26t-87 62q-31 38 -38 76q-8 42 -8 67z" />
<glyph unicode="&#xf1;" horiz-adv-x="1316" d="M96 0l174 961h99l24 190q8 3 84 36q61 27 96 39q28 10 68 17q22 2 87 2q84 0 109 1q45 2 64 5q25 4 66 17q25 8 69 24q38 15 78 33l-37 -240q-33 -13 -63 -20q-94 -25 -119 -29q-16 -3 -61 -5q-43 -2 -82 -3q-27 -1 -86 -5q-40 -3 -76 -11q-26 -6 -49 -21 q-32 -21 -43 -30h133l-21 -119q28 26 83 49q47 20 113 40q52 16 118 26q63 10 96 10q52 0 106 -13q46 -11 83 -40q35 -27 51 -70q16 -42 8 -105l-107 -739h-407l118 662q10 57 -16 82q-28 26 -76 26q-86 0 -141 -40q-56 -41 -66 -85l-7 -35t-13.5 -68.5t-16.5 -86.5 q-31 -160 -38 -205q-19 -103 -43 -250h-359z" />
<glyph unicode="&#xf2;" horiz-adv-x="1024" d="M55 233l29 222q9 56 31 168q28 72 85 135q52 58 119 102q68 45 138 68q72 24 137 30l-45 -258q-12 -8 -20 -18q-10 -12 -17 -27q-18 -32 -29 -73q-13 -46 -21 -86q-14 -68 -16 -80q-7 -44 -8 -58q-2 -10 -1 -18q1 -10 9 -19q7 -9 27 -17q17 -7 53 -7q88 0 131 33t54 57 q3 8 13 48q8 31 27 116q5 22 10 44.5t7.5 34.5t3.5 17q6 35 -11 65q-18 31 -71 31q-25 0 -48 -5q-19 -4 -38 -11q-6 -3 -33 -16l84 506h226l-111 -267q44 -12 75 -26q37 -16 69 -42t53 -62q20 -34 20 -81q0 -26 -7 -69q-2 -12 -7.5 -47t-8.5 -55q-7 -41 -20 -105 q-3 -13 -6.5 -30t-5.5 -28.5t-4 -19.5q-15 -59 -57 -127q-43 -69 -113 -126q-72 -58 -174 -96q-103 -38 -238 -38q-98 0 -157 27t-87 64t-37 78q-10 45 -10 66z" />
<glyph unicode="&#xf3;" horiz-adv-x="1024" d="M55 233l29 222q9 56 31 168q28 71 84 132q52 57 118 97q67 41 137 68q65 25 134 38l-39 -258q-12 -8 -20 -18q-10 -12 -17 -27q-18 -32 -29 -73q-13 -46 -21 -86q-14 -68 -16 -80q-7 -44 -8 -58q-2 -10 -1 -18q1 -10 9 -19q7 -9 27 -17q17 -7 53 -7q88 0 131 33t54 57 q3 8 13 48q8 31 27 116q5 22 10 44.5t7.5 34.5t3.5 17q6 35 -11 65q-18 31 -71 31q-25 0 -48 -5q-19 -4 -38 -11l-33 -14l37 248l-147 256h276l72 -279q62 -23 121 -72q55 -46 57 -127q0 -26 -7 -69q-2 -12 -7.5 -47t-8.5 -55q-7 -41 -20 -105q-3 -13 -6.5 -30t-5.5 -28.5 t-4 -19.5q-15 -59 -57 -127q-43 -69 -113 -126q-72 -58 -174 -96q-103 -38 -238 -38q-98 0 -157 27t-87 64t-37 78q-10 45 -10 66z" />
<glyph unicode="&#xf4;" horiz-adv-x="1024" d="M55 233l29 222q9 56 31 168q44 110 127 178q86 71 182 110l22 156l285 209l217 -94l-22 -195l-221 72l-111 -101l-43 -256q-12 -8 -21 -19q-11 -13 -18 -28q-18 -32 -29 -73q-13 -46 -21 -86q-14 -68 -16 -80q-7 -44 -8 -58q-2 -10 -1 -18q1 -10 9 -19q7 -9 27 -17 q17 -7 53 -7q88 0 131 33t54 57q3 8 13 48q8 31 27 116q5 22 10 44.5t7.5 34.5t3.5 17q6 35 -11 65q-18 31 -71 31q-24 0 -47 -5q-16 -4 -37 -11q-6 -3 -33 -16l41 247l54 9q20 1 74 -8q56 -10 107 -35q55 -27 95 -72q42 -46 43 -113q0 -26 -7 -69q-2 -12 -7.5 -47t-8.5 -55 q-7 -41 -20 -105q-3 -13 -6.5 -30t-5.5 -28.5t-4 -19.5q-15 -59 -57 -127q-43 -69 -113 -126q-72 -58 -174 -96q-103 -38 -238 -38q-98 0 -157 27t-87 64t-37 78q-10 45 -10 66z" />
<glyph unicode="&#xf5;" horiz-adv-x="1032" d="M55 233l29 222q9 56 31 168q40 103 125 173q83 68 178 109l33 234q45 27 107 55q63 28 116 39q47 9 110 11q60 2 97 13l84 37q25 12 45 25l-39 -244q-17 -13 -35 -20q-54 -26 -78 -31q-23 -6 -88 -12q-80 -7 -93 -8q-15 -1 -36 -5l-39 -24q-2 -2 -14 -17l-43 -258 q-11 -8 -18 -18t-15 -27q-18 -32 -29 -73q-13 -46 -21 -86q-14 -68 -16 -80q-7 -44 -8 -58q-2 -10 -1 -18q1 -10 9 -19q7 -9 27 -17q17 -7 53 -7q88 0 131 33t54 57q3 8 13 48q8 31 27 116q5 22 10 44.5t7.5 34.5t3.5 17q6 35 -11 65q-18 31 -71 31q-31 0 -58 -5 q-20 -4 -38 -11q-19 -8 -27 -16l41 250l60 6q22 1 74 -9q57 -11 107 -35q54 -26 95 -71q42 -46 43 -113q0 -26 -7 -69q-2 -12 -7.5 -47t-8.5 -55q-7 -41 -20 -105q-3 -13 -6.5 -30t-5.5 -28.5t-4 -19.5q-15 -59 -57 -127q-43 -69 -113 -126q-72 -58 -174 -96 q-103 -38 -238 -38q-98 0 -157 27t-87 64t-37 78q-10 45 -10 66z" />
<glyph unicode="&#xf6;" horiz-adv-x="1024" d="M55 233l29 222q9 56 31 168q24 62 64 109q42 50 89 87q53 42 106 67q67 32 111 46l7 61l-127 2l30 222h277l-33 -222h-45l-6 -34h2l-41 -261q-8 -6 -22 -18q-10 -9 -15 -27q-18 -32 -29 -73q-13 -46 -21 -86q-14 -68 -16 -80q-7 -44 -8 -58q-2 -10 -1 -18q1 -10 9 -19 q7 -9 27 -17q17 -7 53 -7q88 0 131 33t54 57q3 8 13 48q8 31 27 116q5 22 10 44.5t7.5 34.5t3.5 17q6 35 -11 65q-18 31 -71 31q-28 0 -53 -5q-19 -4 -37 -11q-16 -7 -29 -16l39 252l58 4q19 2 46 -1q24 -2 70 -16l9 43l-119 2l31 222h274l-33 -222h-51l-16 -88 q40 -28 73 -70q34 -43 35 -98q0 -26 -7 -69q-2 -12 -7.5 -47t-8.5 -55q-7 -41 -20 -105q-3 -13 -6.5 -30t-5.5 -28.5t-4 -19.5q-15 -59 -57 -127q-43 -69 -113 -126q-72 -58 -174 -96q-103 -38 -238 -38q-98 0 -157 27t-87 64t-37 78q-10 45 -10 66z" />
<glyph unicode="&#xf7;" horiz-adv-x="948" d="M84 332l45 266h735l-55 -266h-725zM246 0l45 272h301l-45 -272h-301zM342 659l45 275h291l-35 -275h-301z" />
<glyph unicode="&#xf8;" horiz-adv-x="1198" d="M59 39l54 82q-17 30 -21 60q-5 30 -6 52l29 222q12 78 30 168q34 72 88 131q53 57 116 98q66 42 130 68q62 25 131 38l-24 -258q-26 -23 -37 -43q-14 -26 -19 -45l-14 -71q-14 -42 -22 -84q-12 -37 -17 -63q-4 -20 -8 -36q0 -4 -2 -18q-2 -12 5 -21q7 -10 27 -16 q19 -6 60 -6q43 0 71 11q31 12 50 26l53 53q9 12 20 46q1 4 22 79q14 51 20 83q7 37 12 56q8 34 -7 64t-79 28q-26 -1 -53 -7q-16 -3 -35 -11q-18 -8 -25 -18l25 254l65 6q17 2 47 -3q25 -4 66 -18l96 162l236 -64l-137 -241q12 -28 12 -64q0 -16 -19 -124 q-20 -115 -29 -152q-9 -39 -20 -78q-16 -58 -60 -125q-42 -63 -116 -122q-71 -56 -171 -94q-102 -39 -226 -40q-14 -2 -21 -1t-20 1l-55 -74l-27 -34z" />
<glyph unicode="&#xf9;" horiz-adv-x="1245" d="M89 184q-5 52 3 103q4 22 7 42l51 312q18 116 53 320h268l-131 256h299l63 -334h-137q-12 -60 -57 -297q-46 -242 -47 -254q-5 -29 3 -47q8 -20 23 -29q14 -9 40 -14q21 -4 48 -4q18 0 41 10q34 15 50 26q26 18 43 39q18 23 24 45q1 14 9 49l55 283q20 113 53 271h342 l-154 -961h-360l16 96q-115 -51 -146 -62q-46 -16 -91 -26q-47 -10 -109 -10q-89 0 -144 26q-56 26 -82 67q-29 45 -33 93z" />
<glyph unicode="&#xfa;" horiz-adv-x="1245" d="M89 184q-5 52 3 103q4 22 7 42l51 312q18 116 53 320h280l49 256h275l-148 -363h-100q-97 -516 -98 -522q-5 -29 3 -47q8 -20 23 -29q14 -9 40 -14q21 -4 48 -4q18 0 41 10q34 15 50 26q26 18 43 39q18 23 24 45q1 14 9 49l55 283q20 113 53 271h342l-154 -961h-360 l16 96q-115 -51 -146 -62q-46 -16 -91 -26q-47 -10 -109 -10q-89 0 -144 26q-56 26 -82 67q-29 45 -33 93z" />
<glyph unicode="&#xfb;" horiz-adv-x="1245" d="M89 184q-5 52 3 103q4 22 7 42l51 312q18 116 53 320h192l15 110l245 197l254 -101l-26 -161l-244 57l-139 -102h80q-118 -622 -119 -629q-5 -29 3 -47q8 -20 23 -29q14 -9 40 -14q21 -4 48 -4q18 0 41 10q34 15 50 26q26 18 43 39q18 23 24 45q1 14 9 49l55 283 q20 113 53 271h342l-154 -961h-360l16 96q-115 -51 -146 -62q-46 -16 -91 -26q-47 -10 -109 -10q-89 0 -144 26q-56 26 -82 67q-29 45 -33 93z" />
<glyph unicode="&#xfc;" horiz-adv-x="1245" d="M98 184q-4 47 4 103q4 23 7 40q16 110 19 132q12 84 26 157l47 297h159l9 48h-129l41 256h378l-38 -254l-134 -2l-10 -48h90q-89 -471 -96 -519q-2 -13 -4.5 -27t-4 -22.5t-1.5 -12.5q-5 -29 3 -47q8 -20 23 -29q14 -9 40 -14q21 -4 48 -4q18 0 41 10q34 15 50 26 q26 18 43 39q18 23 24 45q1 14 9 46q7 30 15 74l36 188l47 245h139l10 50h-117l41 256h353l-39 -254l-119 -2l-12 -50h86l-144 -911h-360l16 96q-115 -51 -146 -62q-46 -16 -91 -26q-47 -10 -109 -10q-88 0 -142 26q-53 26 -78 67q-26 42 -30 93z" />
<glyph unicode="&#xfd;" horiz-adv-x="1333" d="M72 217l118 744h207l39 256h289l-150 -388h-45q-33 -179 -57 -317q-24 -139 -29 -178q-4 -26 8 -47t29 -35t42 -22q22 -7 46 -7q86 0 148 56q61 55 76 145l86 537h381l-183 -1067q-12 -69 -54 -126q-41 -56 -102 -97q-58 -39 -133 -61t-145 -22q-136 0 -271 38 q-132 37 -255 104q-2 26 4 49q7 27 8 51q227 -53 309 -47q96 6 154 22q59 16 95 51t51 88q16 59 22 136q-71 -45 -153 -86q-74 -37 -167 -43q-68 -5 -131 9q-65 14 -114 47q-51 35 -85 86q-33 51 -38 124z" />
<glyph unicode="&#xfe;" horiz-adv-x="1222" d="M74 -211l225 1364l307 2l-153 -907q1 -4 11 -15q7 -8 24 -20q12 -8 37 -19q23 -10 48 -10q39 0 70 13q30 13 48 29q21 19 30 35q7 12 16 30q8 13 13 39q2 9 7.5 38.5t9.5 50.5q11 52 13 70q3 13 5 57q1 37 -11 62q-10 26 -35 34q-24 8 -65 3q-20 -1 -44 -12 q-25 -11 -46 -25q-31 -22 -49 -37l40 260q47 37 84 56q40 23 92 41q51 17 113 22q41 2 90 -15q59 -20 102 -51q47 -34 82 -84q33 -47 33 -114q0 -120 -23 -218q-28 -119 -44 -175q-6 -21 -35 -72q-27 -47 -80 -100q-51 -51 -125 -89t-172 -38q-119 0 -179 23q-62 24 -91 42 l-45 -270h-303z" />
<glyph unicode="&#xff;" horiz-adv-x="1333" d="M72 217l110 694h166l8 50h-125l37 256h365l-41 -256h-135l-6 -50h96l-41 -217q-55 -313 -62 -360q-4 -26 8 -47t29 -35t42 -22q22 -7 46 -7q86 0 148 56q61 55 76 145l77 487h174l9 50h-125l37 256h364l-41 -256h-135l-6 -50h104l-174 -1017q-12 -69 -54 -126 q-41 -56 -102 -97q-58 -39 -133 -61t-145 -22q-136 0 -271 38q-132 37 -255 104q-2 26 4 49q7 27 8 51q227 -53 309 -47q96 6 154 22q59 16 95 51t51 88q16 59 22 136q-71 -45 -153 -86q-74 -37 -167 -43q-68 -5 -131 9q-65 14 -114 47q-51 35 -85 86q-33 51 -38 124z" />
<glyph unicode="&#x152;" horiz-adv-x="1376" d="M78 293q0 36 10 115q6 46 26 187q19 133 35 221q26 145 41 214q21 100 77 163q57 65 123 102q70 40 133 54q66 15 112 15h690l-43 -287h-684q-34 0 -54 -16q-21 -17 -36 -43q-16 -28 -23 -62q-10 -46 -14 -71l-41 -244q-37 -222 -38 -230q-3 -24 -3 -26q0 -9 1 -16 q2 -11 6 -21q4 -8 19 -17q13 -7 38 -7q39 0 58 11q23 13 33 27q10 13 15 36q5 20 6 36l115 627h311l-37 -240h287l-45 -274l-276 -2l-39 -242h274l-57 -303h-703q-114 0 -176 34q-65 36 -95 80q-32 46 -39 96q-7 46 -7 83z" />
<glyph unicode="&#x153;" horiz-adv-x="1550" d="M39 233l29 222q12 78 30 168q29 73 83 132q51 56 117 97q67 42 135 68q65 25 134 38l-37 -258q-10 -8 -18 -18q-10 -14 -16 -27q-18 -32 -29 -73q-17 -61 -22 -86q-10 -47 -15 -80q-7 -44 -8 -58q-2 -10 -1 -18q1 -10 9 -19q7 -9 27 -17q17 -7 53 -7q83 0 133 29 q48 28 59 55l54 266q6 33 -12 65q-18 31 -72 31q-27 0 -48 -6q-23 -7 -38 -12q-10 -4 -35 -16l39 252l59 6q17 1 48 -3q29 -4 69 -17t75 -31q40 -21 68 -46q55 42 122 67q70 26 149 26q50 0 109 -13q56 -13 99 -39q44 -28 73 -69q30 -44 36 -103q8 -83 -19 -133t-72 -80 q-44 -29 -91 -41q-49 -13 -76 -14q-22 -2 -48 -2q-22 0 -60 2q-24 0 -74 2l28 115q5 0 15 1.5t16 2.5q5 0 15 1.5t16 2.5q16 1 37 6q66 6 87 38t17 54q0 1 -2 11q-1 7 -8 17q-6 9 -17 16t-32 7q-121 0 -160 -159q-2 -11 -7 -34t-7 -30q-2 -10 -7.5 -32t-7.5 -33t-5.5 -29 t-4.5 -25q-4 -20 -4 -30q0 -18 12 -30q10 -10 29 -15q11 -3 33 -5q11 -1 24 -1l164 81q23 15 50 9q29 -6 50 -26t29 -50q8 -33 -6 -64q-6 -13 -38 -54q-38 -48 -89 -92q-56 -48 -132 -87t-167 -39q-106 0 -170 35t-98 78q-73 -52 -168 -83q-98 -32 -219 -32q-98 0 -157 27 q-58 27 -88 64q-31 38 -38 78q-8 43 -8 66z" />
<glyph unicode="&#x178;" horiz-adv-x="1169" d="M92 1364h58q29 0 43 -1q17 -1 26 1q4 20 8 45q8 48 11 80l12 110h287l-45 -321l96 -236l119 203l7 14l-1 -2l43 342h284q-13 -84 -20 -143l-12 -92h174l-463 -743l-88 -621h-369l127 772z" />
<glyph unicode="&#x2c6;" horiz-adv-x="784" d="M133 1204l49 172l264 148l166 -138l-39 -182l-170 125z" />
<glyph unicode="&#x2dc;" horiz-adv-x="1044" d="M164 1333l20 230q25 12 90 33q57 18 111 18q35 0 85 -8q37 -6 95 -20q44 -11 99 -19q53 -8 96 -8q14 0 31 7q24 10 36 17q25 12 45 25l-20 -252q-14 -8 -51 -20q-36 -11 -66 -11q-36 0 -88 7q-69 9 -163 25q-102 17 -132 17q-32 0 -64 -6q-28 -5 -61 -14q-24 -6 -63 -21z " />
<glyph unicode="&#x2000;" horiz-adv-x="815" />
<glyph unicode="&#x2001;" horiz-adv-x="1630" />
<glyph unicode="&#x2002;" horiz-adv-x="815" />
<glyph unicode="&#x2003;" horiz-adv-x="1630" />
<glyph unicode="&#x2004;" horiz-adv-x="543" />
<glyph unicode="&#x2005;" horiz-adv-x="407" />
<glyph unicode="&#x2006;" horiz-adv-x="271" />
<glyph unicode="&#x2007;" horiz-adv-x="271" />
<glyph unicode="&#x2008;" horiz-adv-x="203" />
<glyph unicode="&#x2009;" horiz-adv-x="326" />
<glyph unicode="&#x200a;" horiz-adv-x="90" />
<glyph unicode="&#x2010;" horiz-adv-x="712" d="M80 221l43 273h502l-43 -273h-502z" />
<glyph unicode="&#x2011;" horiz-adv-x="712" d="M80 221l43 273h502l-43 -273h-502z" />
<glyph unicode="&#x2012;" horiz-adv-x="712" d="M80 221l43 273h502l-43 -273h-502z" />
<glyph unicode="&#x2013;" horiz-adv-x="770" d="M102 215l41 262h512l-41 -262h-512z" />
<glyph unicode="&#x2014;" horiz-adv-x="1669" d="M123 221l41 266h1380l-41 -266h-1380z" />
<glyph unicode="&#x2018;" horiz-adv-x="579" d="M86 786l90 578h316l-101 -326h-110l-39 -252h-156z" />
<glyph unicode="&#x2019;" horiz-adv-x="550" d="M135 1038l23 326h315l-94 -578h-172l39 252h-111z" />
<glyph unicode="&#x201a;" horiz-adv-x="598" d="M102 0l21 324h328l4 -131q1 -35 3 -109q1 -43 -1 -84q-5 -53 -16 -94q-15 -53 -23 -76q-16 -40 -31 -70l-158 -2l47 242h-174z" />
<glyph unicode="&#x201c;" horiz-adv-x="999" d="M86 786l90 578h316l-101 -326h-110l-39 -252h-156zM496 786l90 578h315l-100 -326h-111l-39 -252h-155z" />
<glyph unicode="&#x201d;" horiz-adv-x="999" d="M135 1038l23 326h315l-94 -578h-172l39 252h-111zM545 1038l22 326h316l-95 -578h-172l39 252h-110z" />
<glyph unicode="&#x201e;" horiz-adv-x="1069" d="M102 0l21 324h328l4 -131q1 -35 3 -109q1 -43 -1 -84q-5 -53 -16 -94q-15 -53 -23 -76q-16 -40 -31 -70l-158 -2l47 242h-174zM614 0l21 324h328l4 -131q1 -35 3 -109q1 -43 -1 -84q-5 -53 -16 -94q-15 -53 -23 -76q-16 -40 -31 -70l-158 -2l47 242h-174z" />
<glyph unicode="&#x2022;" horiz-adv-x="679" d="M127 535q0 44 16 80q17 39 45 67t67 45q36 16 81 16t81 -16q37 -17 66 -45q28 -28 45 -67t17 -80q0 -42 -17 -81t-45 -67q-29 -29 -66 -45q-36 -16 -81 -16t-81 16q-39 17 -67 45t-45 67q-16 36 -16 81z" />
<glyph unicode="&#x2026;" horiz-adv-x="1464" d="M90 0l49 301h318l-49 -301h-318zM545 0l47 301h326l-50 -301h-323zM989 0l47 301h326l-47 -301h-326z" />
<glyph unicode="&#x202f;" horiz-adv-x="326" />
<glyph unicode="&#x2039;" horiz-adv-x="696" d="M100 416l273 420h270l-233 -420l149 -416h-289z" />
<glyph unicode="&#x203a;" horiz-adv-x="722" d="M70 -6l229 414l-98 430h309l86 -430l-219 -414h-307z" />
<glyph unicode="&#x205f;" horiz-adv-x="407" />
<glyph unicode="&#x2122;" horiz-adv-x="1529" d="M84 1067l33 240h608l-29 -238h-164l-118 -766h-264l120 764h-186zM598 305l168 1002h217l104 -273l148 271h248l-164 -1000h-256l74 467l-144 -135l-71 108l-70 -440h-254z" />
<glyph unicode="&#xe000;" horiz-adv-x="1372" d="M0 0v1372h1372v-1372h-1372z" />
</font>
</defs>
</svg>
