<?xml version="1.0" standalone="no"?>
<!DOCTYPE svg PUBLIC "-//W3C//DTD SVG 1.1//EN" "http://www.w3.org/Graphics/SVG/1.1/DTD/svg11.dtd" >
<svg xmlns="http://www.w3.org/2000/svg">
<metadata></metadata>
<defs>
<font id="univers_elselight_" horiz-adv-x="432" >
<font-face units-per-em="2048" ascent="1638" descent="-410" />
<missing-glyph horiz-adv-x="569" />
<glyph horiz-adv-x="2048" />
<glyph horiz-adv-x="2048" />
<glyph unicode="&#xd;" horiz-adv-x="681" />
<glyph unicode=" "  horiz-adv-x="569" />
<glyph unicode="&#x09;" horiz-adv-x="569" />
<glyph unicode="&#xa0;" horiz-adv-x="569" />
<glyph unicode="!" horiz-adv-x="972" d="M475 184q6 8 12 9h7q8 -2 41 -7q27 -2 37 -14t8 -24.5t2 -24.5q8 -14 8 -41q0 -10 -6 -23q-6 -12 -6 -18l-13 -16q-10 -10 -18 -11l-21 -2h-37q-57 0 -65 2q-14 2 -21 15q-6 8 -6 22q0 12 4 21q2 4 -4 28q-6 16 -6 21q0 4 4 12q2 2 5 11.5t3 11.5q4 10 10.5 10t14.5 4 q6 6 25 6q16 0 22 8zM524 1497q2 0 8 1l5 1q6 0 18 -4q14 -2 27 -18q10 -10 10 -33q0 -10 -2 -43q0 -16 -1 -32.5t-1 -28.5v-11v-11q0 -11 1 -28.5t1 -34.5q0 -63 -4 -79l-8 -25q-4 -16 -5 -23q0 -12 11 -22q8 -10 8 -25q0 -6 -2 -28q-2 -41 -8 -49q-6 -6 -7 -177 q0 -168 -6 -176q-8 -20 -8 -26q-2 -14 6 -27q6 -8 6 -29q0 -16 -6 -28q-8 -10 -8 -63.5t-6 -61.5q-8 -8 -8 -22.5t-4 -18.5t-13 -4q-6 0 -12 -6q-4 -2 -6 -2.5t-10 4.5q-6 6 -27 4q-16 -2 -31 12q-10 8 -12 19.5t-2 68.5q0 78 -8 92t-4 25q2 6 2 12q-4 4 -4 84q0 78 -6 90 q-6 8 -7 29v31q0 12 -4 12q-4 4 0 24q0 25 11 41q6 16 6 105q-2 49 -2 96v47q0 45 -6 49q-6 8 -6.5 98.5t-8.5 100.5q-6 6 -6 14q0 4 2 15q4 20 8 22q8 4 19 15q12 8 28 12h43q25 0 29 4q6 6 10 8z" />
<glyph unicode="&#x22;" horiz-adv-x="1343" d="M317 1468h39q29 0 41 -6q10 -6 21 -6q4 0 28 -24q23 -27 31 -27q10 -4 20.5 -10t14.5 -19q6 -8 6 -47t6 -49q8 -10 8 -35q0 -33 -2 -49q-4 -31 -6 -35t-6 -33v-22.5v-34.5v-39q0 -53 -2 -63.5t-12 -20.5q-14 -16 -15 -30q2 -14 -8 -23q-6 -6 -14 -6q-6 0 -16 2 q-14 0 -39 6q-4 2 -12.5 6t-10.5 4q-6 4 -10 11l-14 14q-8 4 -17 22q-6 16 -6 24.5t-10 14.5q-8 12 -8 15q0 6 -5 14q-6 8 -8 61q-2 29 -2 74q2 14 2 43q0 18 -10 45q-10 25 -6 39q4 18 2 29q0 14 -4 35q-6 20 -8 22q-4 6 -4 33q4 27 8 33q6 6 6 14t6 10zM891 1481 q0 4 14.5 4t22.5 -8q10 -10 24 -9q10 2 21 -4q8 -8 16 -8q6 0 24.5 -18.5t22.5 -26.5q2 -4 17 -25q12 -20 12 -24q0 -8 -8 -29q-8 -25 -8 -43q0 -29 2 -43q0 -33 -2 -45q-2 -25 4 -35q8 -14 8 -34q0 -10 -6 -29q-6 -8 -8 -80q0 -68 -9 -84q-8 -14 -4 -18q0 -10 -4 -13 q-2 -4 -29 -8h-12q-12 0 -18 2q-4 2 -19 2q-18 6 -20 8q-8 6 -14 7q-4 0 -9 10q-4 8 -12 18q-8 12 -8 19q0 8 -8 24q-6 12 -6.5 30.5t-8.5 27.5q-6 10 -8 69.5t-8 69.5q-6 16 -6 65.5t-8 71.5q-8 14 -7 47q2 29 -6 39q-6 10 -6 21q0 14 8 24q8 16 13 17q8 0 14 -3 q14 -4 25 3q8 2 14 8z" />
<glyph unicode="#" horiz-adv-x="1155" d="M565 858q-16 4 -33 4q-23 0 -24 -6q-4 -8 -21 -8q-16 -4 -18 -8q-6 -4 -6 -25q-6 -27 -6 -29q-8 -8 -4 -47q0 -41 -7 -45q-6 -6 -6 -18q0 -10 -4 -23q-4 -12 -8 -22q-2 -4 -6 -53q0 -33 13.5 -38t94.5 -5q106 0 119 -5q6 -2 8 -2q4 0 5 4l20 29q16 18 19.5 26.5t5.5 43.5 q0 45 4 49q0 6 -2 10q-4 6 4 15q10 6 10 12q0 8 6 16q6 10 6 60q0 45 -6 53q-10 10 -27 10q-29 4 -32 6q-16 0 -27 -6q-16 -6 -41 -4zM518 1386q2 6 12 7q2 0 19 -11q12 -10 14 -28t-4 -25q-4 -8 -4 -24.5t-4 -40.5q0 -14 -10 -35q-6 -14 -4 -39q2 -23 -2 -35q-2 -2 -9 -22 q0 -10 -10 -25q-8 -10 -6 -51q0 -41 -6 -49q-4 -8 -4 -19q0 -8 4 -20q2 -10 12 -15q6 -4 21 4q10 6 102 7q94 0 98 2q4 0 16.5 16t12.5 25q0 10 8 22q10 12 6 29q-4 16 -4 24q0 6 8 19q6 8 7 26q0 20 -3 25q-2 6 8.5 12t8.5 23q0 12 6 29q6 8 12 59q4 53 4 61q4 16 4 25 l9 16q4 4 32 4q31 0 39.5 -8t20.5 -6q14 0 16 -2q2 -4 6 -41q2 -35 -6 -43q-8 -10 -8 -37t-10 -37q-6 -10 -4 -28q4 -20 2 -35q0 -16 -8 -29q-6 -6 -11 -33q0 -23 -8 -34q-6 -10 -4 -19q0 -6 4 -22q4 -14 17 -31q8 -10 14 -12t39 0q23 2 51 2q10 0 22 8q12 6 20.5 4 t16.5 -18t6 -33q-2 -20 5 -33q4 -10 4 -14t-4 -15q-6 -14 -17 -20q-6 -4 -24 -2q-4 2 -13.5 6t-11.5 4q-6 6 -65 6q-31 2 -39 2q-20 0 -35 -10q-14 -8 -16.5 -13t-2.5 -28q0 -29 -6 -37q-2 -2 -8 -14q-4 -8 -10 -15q-6 -4 -6 -40q0 -37 -6.5 -46.5t-6.5 -25.5t-4 -29 q-4 -12 2 -29q4 -14 7.5 -17t19.5 -11q25 -12 33 -12q6 2 22 2q2 0 22.5 -1t35.5 -1q45 -2 51 -9q8 -8 8 -12q4 -8 -4 -22q-8 -20 -8 -43q-2 -8 -3 -19l-1 -12q-4 -4 -9 4q0 2 -3 5t-3 5t-16 -2q-14 -4 -23 -10q-6 -6 -20 -6q-10 0 -21 6q-8 8 -47 8h-24q-16 0 -37 -14 q-18 -12 -21.5 -17.5t-1.5 -19.5q4 -20 0 -43q-4 -29 -6 -33q0 -10 -4 -14q-6 -6 -2 -19q0 -16 -8 -28q-10 -12 -8 -33q4 -20 4 -37q2 -16 -6 -25q-10 -6 -11 -18q-6 -18 -8 -21q-6 -12 -6 -26q0 -16 -4 -33q-8 -16 -14 -16q-4 -4 -41 -4q-43 0 -54 2q-18 2 -22 12 q-8 10 4 16q8 6 9 14.5t1 47.5q2 55 10 63q6 8 7 17q0 2 8 22q8 16 6 45q0 31 8 35q6 6 6 53q-2 49 -12 62q-6 8 -16 14h-50q-35 0 -49 -8q-12 -8 -20 -8q-6 0 -23 4q-12 8 -16 4q-8 0 -12 4q-6 4 -21 2l-10 -5l-6 -3q-6 0 -13 -14q-2 -4 -6 -14.5t-6 -14.5q-8 -14 -8 -47 t-10 -45q-8 -12 -9 -41q0 -37 -2 -49q-2 -27 -12 -33q-10 -10 -12 -27q0 -4 -1 -21.5t-1 -25.5q0 -27 -4 -43q-2 -4 -4 -9t-4 -5q0 -4 -41 -4t-56 8q-16 8 -22 8q-4 0 -8 4q-2 2 -7 19q-2 14 9 30q14 23 16 33q10 20 14 27q8 10 0 22q-10 14 -4 23q4 4 8 39q0 31 7 36 q8 8 8 31q4 27 10 29q4 6 4 39t-4 37q0 6 -12 6q-10 0 -15 4q-4 4 -18 8q-16 0 -25 -6q-8 -8 -22 -8q-14 -4 -17 -2q-16 2 -32 2q-12 0 -29 2h-4q-6 6 -12 18q-10 18 -11 47q0 29 9 39q8 8 18 13q10 4 20 2q12 -4 64 -5q55 0 63 -6t21 -2q10 0 22 6q10 6 11 11v4q2 14 2 22 q0 18 8 35q8 10 8 29q-4 14 4 22q6 6 6 39q4 31 11 41q4 8 4 17q0 29 2 57q0 49 -2 51q-8 4 -56 4q-53 -4 -67 -8q-4 0 -14.5 -3t-12.5 -3q-10 0 -16 6q-6 12 -14 20q-8 16 -7 39q0 27 2 33q0 10 5 15q4 4 51 4h53q98 0 106 4q10 2 11 22q4 25 8 31q4 10 8 27q4 18 0 28 q-2 6 6 19q10 10 10 18q4 8 0 29q-4 23 -2 24q0 6 11 13q8 8 6 59q-2 29 -2 35q0 18 8 33q6 14 6 28q0 8 8 17q8 8 11.5 17t7.5 11t26 2q31 0 35 4z" />
<glyph unicode="$" horiz-adv-x="1206" d="M711 635q-4 4 -25 4q-23 0 -35 -6q-14 -6 -18 -21q-8 -20 -8 -45q-2 -14 -2 -82v-67v-60v-69v-16.5v-25v-22.5q-2 -25 -2 -30q0 -12 10 -23q2 -2 4 -6q6 -10 8 -12q0 -6 21 -15q16 -10 32 -10q6 0 25 2q39 4 47 8l18 13q4 2 17.5 8t17.5 8q27 14 37 27q18 14 19 24 q0 12 8 21l14 22q0 2 6 11.5t8 11.5q8 10 9 82q0 74 -7 88q-8 20 -8 28q0 14 -6 26.5t-22 29.5l-23 22q-2 6 -22 19q-12 6 -19 12l-14 14q-16 8 -26.5 8t-22.5 9q-8 6 -25 6q-14 0 -16 6zM502 1341q-6 6 -23 7q-18 0 -28 -9q-12 -6 -21 -14q-2 -8 -14 -8t-25 -6 q-8 -4 -20 -17q-6 -6 -15 -6q-6 0 -14 -12q-14 -20 -14 -23q-2 -2 -5.5 -8t-5.5 -8q0 -2 -6 -10t-10 -15q-10 -18 -10 -47v-47q0 -76 4 -82q8 -12 14 -18q8 -14 15 -27q2 -4 14 -24q8 -8 8 -17q0 -6 4 -10q6 -6 12 -6q10 0 17 -6q12 -8 18 -8l11 -6q12 -5 20 -9 q23 -12 23 -14q0 -6 8 -10q4 -2 43 -2q37 2 45 10t8 14q0 8 6 15q4 8 2 32q-2 14 -2 49q4 20 8 35q8 14 6 51q-2 41 -8 50q-6 10 -8 49v84q0 33 -1 39t-9 14t-25 12q-18 4 -22 8zM584 1649q12 12 16 12q6 0 14 -6t9.5 -11.5t-0.5 -25.5q-4 -29 -5 -47q-2 -18 6.5 -34.5 t22.5 -23.5q4 -2 23 -10q4 -4 24 -4q18 0 27 -6q10 -8 22 -10q10 0 23 -8q12 -4 47 -5q37 -2 45 -8q12 -6 19 -6q8 0 24 -8q25 -18 37 -31q23 -18 45 -45q25 -25 29 -26q8 -4 8 -10.5t16 -16.5q16 -16 25 -33q8 -18 6 -37q-2 -16 6 -24q10 -8 10 -45q-2 -37 -12 -47.5 t-22 -10.5q-31 0 -56 -2q-35 0 -43 1t-22 12q-14 8 -27 20q-8 10 -8 31q0 18 -8 35q-10 14 -6 18q0 6 -7 12q-4 4 -10 17q0 2 -10 18q-8 8 -21 14q-12 8 -20 21q-8 16 -12 16q-4 2 -17 2q-6 0 -18 6q-10 6 -35 7h-31q-57 0 -59 -2q-4 -4 -4 -19q0 -12 -8 -41q-6 -20 -4 -41 v-30v-93v-114v-21v-28.5v-26.5q-4 -47 0 -55q0 -8 18 -27q23 -18 31 -18q12 -2 20 -17q6 -12 16.5 -12t22.5 -6q16 -8 31 -8q18 0 26 -7q12 -8 13 -10q0 -4 12 -12q16 -10 35 -12q23 0 31 -9q12 -6 14 -6q8 0 16.5 -8t12.5 -8q6 0 14 -6q8 -8 14 -8q2 0 23 -13 q18 -12 20 -26q6 -16 13 -19q16 -8 26 -14q20 -16 29 -25l8 -16q0 -2 12 -19q10 -14 15 -28q2 -4 5 -15.5t3 -15.5q6 -12 6 -41q0 -25 4 -37q4 -10 4 -13t-4 -9t-2 -49t-6 -50q-8 -8 -8 -20q0 -14 -8 -25q-8 -16 -9 -24q0 -10 -12 -27q-10 -16 -10 -20q-4 -8 -10 -17 q-4 -4 -12.5 -18t-8.5 -17q-4 -8 -18 -30q-12 -8 -16.5 -8t-12.5 -9q-10 -10 -25 -16l-20 -8q-4 0 -14 -10q-20 -10 -29 -13q-16 0 -25 -8q-6 -6 -18 -6q-10 0 -16 -6q-6 -8 -23 -6q-16 2 -49 -15q-35 -16 -57 -14q-23 2 -41 -8l-21 -21q-6 -8 -8 -78t-8 -71q-4 -4 -11 -4 q-4 0 -20 8q-12 6 -14 12t-4 41q-4 47 -7 53q0 4 -6 23q-2 12 -20 22q-16 10 -23 11q-8 0 -14 6q-12 8 -16 4q-8 -4 -29 0q-25 4 -31 10q-10 8 -30.5 8t-28.5 6q-8 8 -19 9q-8 0 -20 8q-10 6 -17 4q-10 0 -26 6q-4 2 -14.5 5t-12.5 5q-10 10 -12 15q-6 8 -12 12l-6 1 q-5 1 -9 1q-10 0 -20 10q-12 12 -12 18.5t-25 35.5q-27 27 -27 34q0 10 -6 17q-8 12 -14 24l-12 31q-2 4 -6.5 14.5t-6.5 14.5q-6 12 -10 45q0 27 -4 30q-4 4 -4 11q0 2 2 8q0 4 10 31q6 14 16 18q4 4 60 4q29 2 39 2q18 0 24 -6q12 -6 31 -43t19 -59q0 -20 6 -33 q4 -12 4 -21l6 -18q6 -10 14 -29q6 -12 21 -26q12 -8 16 -9q6 0 18.5 -12t32.5 -20q14 -6 25 -6q4 0 12 -13q6 -10 15 -10q12 0 30.5 -6t36.5 -6q16 0 35 18q20 20 22 33q2 8 2 158q-2 78 -2 151v12q0 12 2 70v39q0 31 -2 37q-8 8 -14 24q-10 18 -20 25q-10 2 -19 12 q-8 4 -16 4q-6 0 -19 9q-6 6 -22 10q-18 4 -21 6q-2 4 -14 4q-10 0 -27 10q-16 8 -26 9q-12 0 -15 6q-8 4 -16 4t-14 12q-8 10 -11 8q-6 0 -22 10q-6 2 -15 6l-8 5q-6 0 -18 16q-20 16 -23 16q-6 0 -14 5l-7 8t-11 12q-12 16 -13 23q0 6 -14 16q-8 6 -29 27q-14 12 -14 22 q0 8 -8 29q-6 10 -17 45q-6 31 -6 92q0 66 6 72q6 8 7 14q0 6 8 18q2 4 7 16.5t9 18.5q8 25 8 27q0 6 11 20q6 8 16 29q8 16 25 33q14 18 28 22q6 0 19 6q6 6 6 11q0 4 12 14l25 16q33 16 32 17q14 8 46 8q29 0 36 8q6 6 21 6q8 0 37 9q18 6 41 6q16 0 35 12q25 18 28 23 q12 12 12 32v33q-2 29 -2 37q1 19 11 31z" />
<glyph unicode="%" horiz-adv-x="1980" d="M1491 637q-8 4 -31 4h-12q-10 0 -27 -6q-16 -10 -24 -10q-4 0 -13 -9q-6 -8 -22 -12q-10 0 -23 -6q-6 -6 -6 -10q0 -6 -22 -29q-20 -25 -21 -41q0 -14 -10 -31q-8 -10 -8 -22v-66v-80q0 -23 8 -40q2 -4 7 -16.5t7 -16.5q6 -12 6 -29q0 -14 17 -33q18 -20 31 -24 q10 -8 28 -15l25 -12q10 -8 22 -10q18 -6 27 -6q8 -2 10 -2q8 0 19 10q12 12 20 12q14 0 25 8q18 10 22 23q8 14 19 20q16 6 20 13q10 6 10 12q0 8 11 14q12 12 10 33q0 25 8 33q8 12 8 20.5t-8 32.5q-8 23 -2 37q6 10 6 35q0 18 -8 31q-8 8 -6 38q0 33 -8 43 q-2 4 -5.5 10.5t-3.5 10.5q0 6 -12 14q-10 6 -14 17q0 12 -8 16q-4 4 -19 4q-8 -2 -16 12.5t-19 16.5q-2 0 -9 2t-9 4zM1430 719q8 2 40 2q27 0 33 -6q2 -4 21 -8q4 0 14 -3.5t14 -5.5q16 -8 21 -8q8 0 16 4t13 -4q2 -2 9 -10t11 -12q12 -12 25 -19q12 -4 30 -22 q20 -20 29 -35q12 -18 10 -33v-27q2 -12 15 -18q6 -2 14 -10q4 -8 4 -123q-2 -119 -8 -129q-2 -4 -6 -11.5t-6 -11.5q-6 -6 -11 -22q-4 -14 -16 -31q-12 -16 -23 -22q-6 -2 -10 -17q0 -2 -1 -9t-3 -9q0 -4 -16 -8q-14 -2 -15 -11q0 -6 -8 -18q-10 -10 -16 -10t-14.5 -4.5 t-8.5 -10.5q0 -4 -4 -12q-12 -4 -70 -4q-18 0 -53 -1t-43 -1h-45q-12 0 -16 6q-8 8 -15 12q-20 10 -30 11q-20 2 -29 14q-6 10 -14 10q-4 0 -12.5 8.5t-14.5 8.5q-10 4 -12 10l-3 8t-5 10q-4 12 -15 19q-10 4 -24 30q-14 25 -15 43q0 16 -12 43q-12 18 -12 31q0 8 6 19 q8 14 6 28q-4 18 -8 23q-4 8 -4 28q0 29 6 50q8 29 8 34q0 8 4 17q6 6 6 14q0 2 3.5 8t3.5 8q8 8 8 13q4 8 8 14q10 10 8 23q-2 8 8 24q12 16 17 19q12 12 24 22q18 18 24.5 18.5t12.5 6.5q6 10 14 6q8 -2 16.5 2t12.5 14q4 8 8 9.5t25 1.5q31 0 43 6q9 2 27 8zM596 1352 q-14 14 -23 14q-10 0 -18 -8q-14 -8 -35 -6q-27 0 -35 -9q-14 -10 -26 -10q-10 0 -13.5 -2t-7.5 -12q-8 -16 -16 -19q-10 -10 -12 -14q-12 -25 -17 -31q-14 -23 -12 -45q0 -6 -1 -24.5t-1 -28.5q0 -27 -6 -37q-8 -8 -8 -26q0 -10 2 -41q0 -45 2 -55.5t12 -32.5 q12 -23 18 -39q0 -8 11 -19q2 -6 18 -16q10 -2 23 -14q8 -10 28 -15q35 -10 39 -12q16 -4 35 -2q4 2 12 4t10.5 4t10.5 6q6 4 10 6q20 8 29 9q10 0 22 8q10 8 19 22q8 12 16 13q8 0 10 6q4 4 4 10q0 8 9 16q6 6 4 47t6 54q8 16 8 34q2 25 -4 35q-8 12 -2 29q6 14 6 18.5 t-6 14.5q-6 8 -6 28q0 18 -6 25q-8 10 -11 23q-6 18 -12 28q-8 16 -18 21q-10 2 -23 14q-12 12 -23 12q-16 9 -22 17zM528 1446q10 4 19 4h4t13 -2t20 -4q25 -8 43 -4h22q6 0 17 -15q14 -10 24 -14q4 0 23 -6q8 -6 22 -10q12 -4 29 -27q18 -27 18 -31t9 -12q6 -12 6 -16 q0 -8 8 -17q4 -4 12 -24q4 -18 8 -23q6 -6 6 -24q0 -20 6.5 -26.5t6.5 -10.5q4 -4 0 -23q-4 -16 4 -31q8 -16 8 -51q-4 -41 -6 -45q-6 -8 -6 -22t-8 -21q-6 -4 -11 -18q-6 -25 -6 -31q-2 -18 -12 -24q-12 -12 -21 -29q-12 -25 -16 -25q-4 -2 -12 -14q-2 -4 -17 -25 q-12 -12 -16 -12q-6 0 -16 -6q-12 -4 -14.5 -4t-14.5 -12q-10 -10 -27 -15q-12 -4 -45 0q-33 2 -43 -6q-12 -6 -45 -6t-45 4q-10 2 -12 -6q0 -6 -4 -6t-4 6t-15 16q-8 8 -18 8q-4 -2 -19 2q-14 10 -16 19q-6 10 -25 10q-12 0 -24 6q-6 6 -6 8q0 6 -15 25q-6 6 -13 16l-7 11 l-5 4q-5 4 -7 6q-10 10 -11 22q0 16 -4 21q-6 10 -6 45q0 37 -8 45q-10 10 -10 21q0 14 -6 24q-6 14 -7 39q0 20 9 41q8 16 8 24.5t8 20.5q6 12 6 23q-2 6 2 24q6 10 10 31q2 18 15 24q8 4 20 29q14 25 23 25q4 0 20 12q10 10 11 18q0 6 10 11q6 2 31 18q16 12 34 12 q12 0 25 9q10 6 29 6q18 0 34 8zM1364 1485q12 8 14 8q8 0 29 -6q27 -4 31 -8q2 -2 2 -5.5t-2 -5.5q-4 -8 -4 -16q0 -12 -11 -18q-2 -2 -8 -7.5t-8 -7.5q-6 -12 -6 -18q0 -12 -6 -25q-8 -16 -15 -22q-8 -8 -8 -15q0 -12 -6 -20q-2 -4 -7 -12.5t-7 -12.5q-12 -12 -17 -24 q-6 -10 -6 -21q0 -6 -10 -16q-10 -8 -12 -25q-4 -23 -9 -28q-2 -6 -16 -17q-6 -2 -16 -12q-4 -12 -4 -23q0 -10 -17 -32q-16 -20 -20 -21q-4 0 -4 -8q0 -12 -11 -18l-18 -19q-6 -6 -10 -20q-4 -18 -13 -29q-4 -8 -14 -31q-8 -25 -16 -32q-10 -10 -11 -23q0 -10 -16 -25 q-14 -14 -14 -22l-2 -10q0 -4 -11 -9q-12 -8 -10 -22q0 -18 -12 -33q-6 -8 -25 -26q-12 -8 -18 -27q-4 -16 -10 -23q-8 -6 -9 -20q0 -18 -4 -23q0 -2 -14 -12q-8 -2 -12 -10q0 -2 -6 -15q-6 -10 -7 -24q0 -16 -8 -23q-6 -10 -18 -14q-6 -6 -23 -31q-12 -27 -10 -41 q2 -18 -8 -28q-10 -8 -19 -23q-4 -4 -10 -14t-8 -12q-8 -14 -14 -19q-6 -4 -6 -13t-11 -16q-12 -8 -14 -24q-6 -16 -12 -19q-4 0 -19 -14q-10 -12 -10 -29q0 -14 -14 -26t-14.5 -21.5t-6.5 -11.5q-4 -4 -4 -10q0 -4 -12 -25q-10 -10 -17 -28q0 -12 -12 -25q-10 -16 -22 -37 q-2 -4 -8.5 -21.5t-8.5 -21.5q-2 -8 -2 -20q4 -4 -8 -13q-12 -12 -14 -16q-2 -8 -19 -12q-6 -2 -43 -2q-29 0 -37 4q-2 0 -2 10q0 12 8 27q6 12 23 32q10 8 27 35q10 16 10 27q0 6 6 12q4 8 4 14.5t19 24.5q20 16 22 20q6 2 6 17q0 14 4 26l15 29q2 2 6 8q10 14 12 17 q6 6 10 26q2 16 16.5 30.5t16.5 21.5q4 6 10 24q2 12 15 25q10 6 10 16t14 25q16 20 17 30q4 14 14 29q12 12 12 21q0 4 15 18q10 12 10 22q-4 6 6 17q10 6 10 12q0 2 8 14q8 8 17 29q4 14 7 17.5t13 5.5q14 4 17 10v4q2 16 2 27q0 25 8 30q6 6 18 7q8 0 12.5 4t4.5 12t6 14 q6 10 8 23q0 12 16 33q12 16 13 22q0 8 14 27q12 25 12 26q0 8 6 15q10 14 13 22q6 12 18 19q14 10 17 16q4 8 4 12t6 15q6 6 10 30q2 20 12 31q10 6 11 16q0 6 16 23q14 14 18 29l3 8q2 8 4 10q6 4 10 19q6 12 6 22q0 8 8 16q8 4 14 19q2 2 7.5 12t9.5 14q10 20 14 25 q8 12 8 14q0 4 14.5 18.5t14.5 20.5q0 8 8 17q6 8 6 14q0 2 17 23q16 16 16 32q0 18 6 31l11 21q10 8 18 12z" />
<glyph unicode="&#x26;" horiz-adv-x="1531" d="M594 721q-10 8 -16.5 10t-32.5 2q-10 0 -25 -1l-14 -1q-4 -6 -14 -8q-8 -8 -15 -8q-8 0 -45 -37q-35 -35 -39 -49t-18 -25q-18 -14 -29 -31q-12 -20 -10 -32q2 -16 -4 -23q-8 -12 -8 -24q0 -49 -2 -88q0 -74 6 -82q6 -6 6 -15q0 -6 10 -26q10 -23 18 -27q6 -6 13 -18 q6 -14 16 -19q12 -4 19 -14q8 -16 8 -27q2 -14 18 -22q14 -10 39 -11q23 0 39 -8q10 -6 43 -6q16 2 37 2l14 -1q13 -1 21 -1q27 -4 35 -8t43 -4q35 2 53 12q6 4 17 9t14 5q10 0 18 9q10 8 12 6q8 0 20.5 6t22.5 6t23 16q12 16 24 17q14 0 17 6q2 6 12 10q8 0 8 8q0 2 8 15 q6 6 7 14q0 2 6 14q6 6 10 21v9v13v17q-2 16 -3 21t-5 8.5t-17 9.5q-23 10 -24 18q-4 10 -15 25q-4 4 -12 16t-12 16q-12 20 -31 31q-6 2 -16 8l-8 7q-8 8 -17 10q-8 0 -16 12q-2 2 -9.5 11.5t-11.5 13.5q-10 14 -16 14q-2 0 -16 18l-13 21q0 4 -26 26q-16 12 -39 35 q-6 8 -25 21q-12 6 -26 20zM739 1401l-41 8l-20 2q-18 -2 -41 -2q-39 0 -49 -6q-6 -6 -19 -10l-24 -7q-16 -10 -37 -28q-20 -20 -32.5 -36.5t-16.5 -19t-8 -18.5q-4 -14 -11 -22q-6 -10 -6 -35q0 -29 10 -53q6 -16 17 -37q6 -8 4 -17q-2 -6 4 -22q6 -12 18.5 -20.5 t18.5 -14.5q6 -10 14 -10q6 -2 31 -23q16 -16 24.5 -18t47.5 -4q37 0 45 1t20 11q20 12 23 12q6 0 12 10q10 10 16 11l29 24q23 23 23 31t10 18q4 2 22 31q12 29 13 39q4 16 6 21q2 2 8 28q0 29 -4 43q-2 14 -12 29q0 2 -6.5 10t-8.5 12q-8 14 -20 25q-12 8 -17 16 q-8 12 -12 13q-11 6 -31 8zM557 1540q6 4 21 4q2 -2 104 -2q100 -2 109 -8q12 -6 14 -6q6 0 18 -8q8 -8 17 -9q2 0 18 -8q12 -6 20.5 -6t18.5 -10q6 -4 35 -17q23 -8 31 -16t8 -16q0 -6 2 -8q4 0 12 -21q4 -6 10 -19.5t9 -17.5q6 -16 6 -37q0 -16 8 -30q8 -10 10 -43v-39 q0 -16 -2 -23q-4 -16 -6 -18l-5 -14q-5 -13 -9 -23l-15 -35q0 -2 -10 -16q-4 -4 -20 -37q-10 -25 -41 -45q-23 -12 -41 -31q-8 -12 -8.5 -18.5t-12.5 -18.5q-14 -14 -31 -22q-12 -4 -28 -13q-12 -8 -15 -16q-4 -14 -8 -16q-4 -10 -2 -23q0 -8 6 -27q6 -12 23 -32 q16 -16 37 -45l51 -58q33 -33 41 -53q4 -6 10 -18.5t8 -16.5q8 -14 21 -12q10 2 22 -6q10 -6 19 -6q4 0 24 -25q25 -25 31 -29q18 -6 49 -6q41 -4 45 0q8 0 13 15q4 6 8 26q0 8 8 21q6 8 6 41q0 35 10 49q8 16 6 18q0 6 5 19q8 14 8 77q0 66 4 72q4 8 8 35q4 33 10 45l13 16 q2 0 26 9q29 10 33 12q6 6 18 6q14 -4 25 2q14 4 27 0q10 0 26 -12q12 -12 12 -41v-49q0 -78 -8 -103q-6 -18 -4 -49q2 -25 -8 -39q-8 -12 -8 -16t-8 -21q-10 -18 -13 -20q-4 -4 -4 -19q0 -2 -1 -13t-1 -15q-2 -10 -12 -35q-8 -20 -12 -21q-2 -2 -2 -14q0 -10 -15 -31 q-6 -8 -28 -47q-12 -20 -14.5 -29.5t-4.5 -48.5v-28q0 -23 19 -39q20 -14 20 -21q0 -6 10 -12l9 -6q8 -6 10 -10q10 -10 10 -16.5t8 -6.5q4 -2 51 -45q47 -47 62 -55q23 -14 24 -17q6 -6 13 -24q6 -12 6 -21q0 -2 -2 -6q-18 -18 -19 -18q-12 -10 -35 -10h-36q-31 0 -52 2 q-35 0 -47 6q-8 6 -18 6q-2 0 -23 10q-14 12 -14 21q0 12 -10 22q-8 12 -12.5 12t-16.5 12.5t-18 12.5q-4 0 -37 29q-29 27 -43 26h-13q-25 -4 -32 -8q-8 -8 -17 -8q-10 0 -18 -12q-14 -18 -25 -27q-8 -8 -28 -18q-20 -8 -27 -19q-10 -10 -25 -14q-8 -4 -26 -10 q-8 -2 -23 -13q-12 -8 -20 -12q-2 0 -15.5 -6t-23.5 -10q-27 -12 -47 -13q-14 0 -35 -8q-14 -6 -33 -6q-10 0 -24 -10q-10 -6 -19 -6h-6q-2 0 -13 1t-16 1q-2 0 -20.5 -1t-30.5 -1q-18 -2 -24 -2q-12 0 -23 8q-18 10 -65 10q-39 0 -48.5 2t-31.5 12q-25 12 -45 13 q-16 -2 -29 12q-10 14 -21 14q-8 -2 -14 6q0 2 -22 19q-20 8 -37 24q-6 6 -16.5 14.5t-12.5 10.5q-2 0 -22 14q-10 6 -15 17q-6 18 -10 28q-8 14 -18 39q-2 4 -8.5 13.5t-8.5 11.5q-6 6 -6 16q0 4 -6 23q-6 10 -8 57v51q0 18 2 35q0 14 2 31v4q2 0 -2 8q-2 8 6 21 q10 14 10 20t4 14q6 6 6 22.5t7 22.5q8 8 8 19q2 6 18 27q14 18 14 26t11 23q8 12 16 12q4 -2 29 18q12 10 43 41q20 20 20 25q6 6 17 12q31 18 30 19q8 8 23 8q10 0 10 4q4 4 8 31q4 29 4 51q0 27 -12 45q-16 25 -24 27q-6 4 -23 24q-6 14 -16 31q-8 6 -13 22q0 8 -6 15 q-8 6 -10 16q-6 8 -6 19q0 12 -6 24q-2 14 -11 23q-2 2 -8 14q0 4 -4 12v7q0 8 -1 19t-1 21q-2 23 -2 58q0 10 4 35l6 30q0 10 13 19q8 4 12 14q6 6 2 16q0 10 6 13q12 8 25 20q16 16 22 29q8 18 14 20q10 6 15 6q4 0 24 21q14 14 21.5 17t42.5 5q45 0 61 11q25 14 31 16z " />
<glyph unicode="'" horiz-adv-x="2234" d="M1184 1479q6 8 26 8q10 0 45 -2q66 -4 68 -6q4 -4 4 -29q-2 -27 -14 -45q-12 -25 -13 -27q0 -4 -59 -63l-70 -68q-4 -4 -10 -16q-4 -12 -24 -33q-20 -25 -29 -29q-8 -2 -12 -14q0 -10 -9 -18q0 -2 -6 -12.5t-8 -16.5q-12 -18 -18 -23q-10 -4 -16.5 -14t-16.5 -10 q-4 0 -16 -4q-4 -4 -23 -8h-8q-8 0 -25 6q-12 6 -30 18q-12 10 -13 29q0 20 8 26q8 8 10.5 8.5t14.5 26.5q16 33 29 45q4 4 11 14.5t9 12.5q6 10 8 22q0 14 11 21q4 2 10 8l2 4v6q0 10 6 12.5t6 12.5q0 6 4 14q0 6 13 15q12 12 22 30q8 12 16 29q0 8 4.5 8t10.5 6q8 12 8 21 q0 12 8 18q4 2 33 6q25 3 33 11z" />
<glyph unicode="(" horiz-adv-x="655" d="M494 1653h26q18 -2 27 -11q4 -8 4 -14q0 -20 -10 -43q-8 -18 -19 -37q-14 -29 -16 -39q-6 -31 -8 -45q-4 -29 -10.5 -41t-6.5 -22q0 -12 -8 -21q-8 -12 -8 -26q-4 -16 -10 -23q-6 -4 -6 -35q0 -29 -7 -34q-4 -4 -8 -35q0 -29 -8 -45.5t-6 -48.5q2 -35 -6 -43.5t-6 -24.5 q2 -12 -15 -25q-14 -12 -14 -26q0 -8 6 -21q6 -6 0 -20q-6 -10 -6 -123q0 -115 4 -121q6 -18 6 -29q4 -18 -4 -26q-8 -10 -8 -66q2 -57 10 -73q8 -25 8 -37q0 -16 8 -29q6 -12 5 -31q-2 -23 8 -41q12 -18 6 -22q0 -2 -1 -12.5t-1 -16.5q0 -20 6 -33q10 -12 12 -47 q2 -6 5 -24.5t6 -22.5q6 -8 6 -24q0 -12 8 -25q6 -8 6 -16.5t6 -14.5q6 -12 6 -18q0 -12 6 -25q8 -16 9 -26q0 -2 2 -12.5t4 -14.5q6 -16 4 -39q-4 -25 4 -33q10 -10 10 -20q-2 -6 4 -19q8 -8 8 -20q4 -16 11 -29q6 -10 6 -33q0 -27 -2 -30q-4 -6 -10 -10q-4 -2 -39 -3 q-33 2 -37 11q-12 6 -15 6q-8 0 -12 4q-2 2 -4 12q-6 12 -8 19l-12 37l-13 18q-6 6 -6 16q0 6 -8 23q0 2 -7 18.5t-11 24.5q-6 16 -15 41q-4 12 -14 33q-4 6 -11.5 20t-9.5 19q-10 16 -10 28l-2 10q-4 12 -6 17q-8 20 -8 29q0 14 -8 24q-8 16 -9 27l-6 30q-2 4 -6 17.5 t-6 17.5q-8 16 -8 31q-4 18 -8 22q-6 6 -6.5 33t-6.5 41q-8 14 -6 41q0 27 -8 35q-8 10 -8 45q-2 39 -8 49q-6 8 -9 62q0 53 -4 61q-4 12 -2 21q0 8 10 18q10 6 11 18q0 31 2 58v92q0 43 12 70q2 6 6 16t4 12q0 8 11 25q8 18 10 45q0 20 6 33q4 4 8 22q2 10 8 23q4 4 4 18 q0 20 11 35q12 20 8 27q0 12 4 16q0 4 3 8t3 6q0 6 8 27q10 20 6 29q0 10 4 14l7 10q6 10 8 17q10 20 10 34t6 25q8 8 8 24.5t4 20.5q6 4 15 23q4 6 8 18t6 14q4 16 8 21q6 4 7 12q0 10 24 35q33 29 41 31q21 4 23 6z" />
<glyph unicode=")" horiz-adv-x="614" d="M133 1663q12 0 14 2q8 0 29 -10q18 -8 33 -23l8 -12l8 -16q8 -8 8 -17q-2 -2 7 -16q8 -8 8 -27q0 -16 8 -28q6 -12 6 -22.5t10 -25.5q4 -10 11 -28q0 -12 12 -29q10 -16 10 -29q0 -10 8 -22q8 -16 9 -25q0 -10 4 -18q6 -2 6 -14q0 -8 6 -15q6 -4 10 -26q6 -20 2 -29 q0 -8 8 -19q8 -8 9 -22q-4 -12 2 -18.5t6 -16.5t10 -27q10 -14 8 -34q-2 -14 4 -25q4 -4 9 -29q0 -18 8 -30q6 -6 6 -19q0 -10 8 -22q6 -12 4 -49q0 -41 8 -54q6 -14 2 -20q-4 -8 -4 -29q-2 -14 2 -28q6 -8 6 -37v-43q0 -18 -6 -27q-8 -10 -8 -27v-45q0 -31 -6 -59 q-8 -29 -8 -47.5t-6 -24.5t-6 -35q-4 -31 -7 -38q-6 -12 -6 -23q0 -8 -8 -25q-6 -16 -2 -22q0 -10 -2 -14q0 -2 -1 -8.5t-1 -8.5q0 -8 -8.5 -36.5t-18.5 -39.5q-10 -16 -8 -26q2 -14 -8 -27q-10 -10 -14 -22q-6 -8 -3 -31q2 -20 -6 -31q-8 -12 -8 -18q0 -8 -6 -21 q-8 -12 -8 -22q0 -12 -6 -13q-8 -4 -11 -14q0 -8 -6 -14q-6 -4 -6 -12.5t-8 -16.5q-8 -6 -8 -22q0 -14 -6 -25q-6 -12 -7 -18q-4 -10 -12 -15q-14 -10 -31 -28q-20 -25 -38 -25q-16 0 -33 20q-18 18 -18.5 26.5t8.5 17.5q6 6 6 18q0 14 8 22q4 6 12 23l12 25q8 16 9 28 q0 16 4 29l14 29q2 6 7 18t5 14q0 23 -2 35q-4 25 4 31q10 8 11 27q4 29 8 34q6 12 6 27q0 10 8 31q8 18 6 32q0 16 4 21q4 8 9 20q2 8 2 39q0 25 8 39q8 18 8 107q0 90 8 108q6 18 4 58v53q0 16 2 26q2 18 -6 31q-10 12 -8 47q0 41 -2 45q-2 6 2 29q2 18 -6 35 q-10 14 -10 49q0 33 -6 45q-8 12 -9 47q-2 10 -8 68q-8 41 -12 47q-6 25 -6 29q-4 16 -8 20q-6 8 -9 31q0 27 -8 49q-10 25 -10 31t-6 12t-4 27q2 23 -6 30q-12 6 -13 23q-2 4 -4 16t-2 17q-4 23 -12 32q-6 12 -6 29q0 10 -9 18q-6 6 -6 20.5t4 22.5q8 14 15 17z" />
<glyph unicode="*" horiz-adv-x="1200" d="M729 1477q8 4 14 4q10 0 17 -6q12 -8 20 -9q10 0 14.5 -4t4.5 -10q4 -6 14 -14q14 -8 16 -15q6 -10 2 -22q0 -14 -14 -33q-10 -18 -24 -29q-12 -8 -17 -22q-4 -8 -22 -27q-14 -12 -31 -35q-14 -27 -18 -43q-2 -10 -3 -26q4 -10 11 -15q8 -4 49 -4q43 0 51 -4q10 -2 21 8 q12 8 63 10.5t61 -5.5q10 -6 15 -17q4 -12 4 -45q0 -35 -10 -47q-10 -14 -21 -14q-12 -4 -20 -4q-10 -2 -35 6q-27 10 -37 6q-14 -4 -16 -2t-2 8q0 2 -7 8q-4 2 -51 2q-53 -4 -57 -4q-14 -2 -16 -14q-4 -12 0 -27q0 -14 8 -26q4 -6 10 -21q4 -10 20 -20q14 -12 15 -27 q0 -16 4 -20q6 -6 18 -13q16 -8 20.5 -18t14.5 -25q12 -16 12 -18q0 -6 -6 -13q-4 -10 -2 -12q0 -6 -2 -10q-4 -8 -14 -12q-8 -4 -21 -4q-10 0 -18 -4.5t-16 -4.5q-10 0 -21 17l-10 16q0 2 -10 17q-8 12 -9 18q0 8 -6 18l-10 31q-12 25 -16 29q-10 12 -9 22v15q-6 10 -18 20 q-16 12 -35 14q-18 4 -26 -2q-8 -8 -19 -28q-8 -23 -18 -41q-8 -20 -9 -25q0 -2 -8 -18q-12 -25 -16 -37q-8 -27 -16 -37q-10 -14 -25 -25q-12 -12 -16 -12q-2 0 -11 8q-2 6 -16 7q-10 0 -23 12q-8 6 -18 16q-6 12 -6 14.5t-1 8.5t-3 8q-4 4 26 37q29 35 31 45q4 12 19 20 q16 14 20 27q2 16 8 20q2 2 7 5.5t8 5.5q6 2 6 30.5t-2 30.5q-4 4 -31 12q-25 6 -35 2t-47 -8q-39 0 -51 -4q-12 0 -20.5 -4t-23 -4t-26.5 4t-18 23q-6 16 -15 24q-4 8 -4 21v14q4 29 8 33q6 6 19 10l22 2h41q45 0 64 -6q14 -8 55 -6q43 4 45 8q2 2 2 20q0 20 -6 37 q-8 20 -14 29q-2 2 -6 8t-6 8q0 2 -4.5 10.5t-6.5 12.5q-2 2 -8 11t-8 11q-8 16 -10 23q-4 10 -11 20q-6 6 -18 23q-12 12 -12 16q0 2 16 18.5t35 22.5q20 4 33 4q14 0 16 -8q6 -12 12 -20q10 -10 11 -17q0 -2 12 -18.5t12 -24.5t8 -16q10 -14 13 -27q8 -20 12 -24t12 -21 q8 -14 15 -18q8 -6 32 -6q25 2 27 10q0 8 14 22q12 12 17 25q0 14 8 18q6 12 6 21q0 4 2 10v8q0 2 8 15q10 10 10 22.5t5 20.5q6 6 6 12t4 14q2 9 12 13z" />
<glyph unicode="+" horiz-adv-x="1413" d="M698 1167h27h10q12 0 19 -8q8 -4 16 -18q8 -8 12 -29q2 -14 0 -22q-4 -8 -4 -18.5t4 -22.5q2 -8 -6 -25q-8 -16 -10 -63q0 -35 1 -42.5t7 -11.5q10 -10 4 -24l-8 -41q-2 -27 2 -35q6 -6 6 -14.5t-6 -14.5q-6 -8 -4 -22q2 -10 0 -23q-4 -10 2 -26q10 -25 10 -29 q6 -12 15 -12q14 -4 22 -11q8 -8 12 -8l13 6q10 8 43 9q33 0 41 4q8 6 28 0q14 -2 29 -11q8 -4 43 -8q33 0 37 8q4 6 14 7.5t66 1.5q76 -4 82 -7q10 -4 14 -14q4 -4 4 -18q0 -8 -2 -23q-4 -37 -4 -41q-4 -6 -10 -10q-12 -4 -15 -4q-4 0 -16 -8.5t-100 -8.5q-82 0 -103 -4 q-12 -4 -26 0q-20 4 -90 4q-78 0 -86 -4q-8 -2 -9 -16q0 -12 -4 -21q-4 -8 0 -18q2 -2 2 -26.5t-2 -57.5v-88q2 -4 2 -74q-4 -66 -6 -67q-4 -8 -4 -15q0 -2 -4 -18q0 -16 2 -23v-26q0 -16 -10 -19q-10 -4 -21 -10q-12 -4 -41 -4h-16q-12 0 -23 6q-10 14 -12 25q-2 8 -8 26 q-4 12 -4 43q-2 16 -2 39v22q0 23 1 60t1 72v78q0 66 -4 78q-2 10 -14.5 22t-20.5 14l-12 6l-7 5q-10 6 -57 6q-16 0 -45 -1t-37 -1h-67q-29 2 -35 1t-15 -9q-12 -10 -32 -7q-23 4 -31 13q-14 6 -29 4q-16 -2 -32 14t-21 35q-2 12 -2 14q0 6 6 10q4 4 10 17q2 10 23 12 q20 4 33 8q12 6 73 9q55 0 64 4q6 0 18.5 -6.5t32.5 -10.5q25 0 29 2q8 6 18 -2q6 -4 58 -4q47 2 57 10q8 8 12 8.5t17 8.5q12 10 12 18t6 15q8 8 8 170v176l-2 16v29q-2 31 2 45q6 12 23 16l15 5t11 3z" />
<glyph unicode="," horiz-adv-x="643" d="M336 236q12 4 14 4q8 -2 19 -4q12 -4 26 -13q12 -8 18.5 -8t6.5 -4q0 -2 4 -27v-12q0 -8 -12 -20q-14 -14 -17 -31q-2 -12 -10 -25q-10 -6 -10 -12q0 -4 4 -12t-2 -15q-8 -12 -19 -39q-10 -23 -14 -41q-8 -16 -14 -18q-8 -8 -8 -25q0 -16 -9 -22q-6 -6 -6 -21 q0 -4 -6 -22q-6 -6 -10 -14q0 -4 -12 -37q-10 -31 -29 -45q-4 -4 -14.5 -13.5t-12.5 -11.5q-8 -8 -14 -8q-4 0 -14 2q-16 0 -37 10q-20 10 -21 27q0 14 4 31q6 37 6 47q4 25 9 28q6 12 6 25q0 18 8 27q4 12 12 16q8 6 8 72q0 68 7 75q6 6 6 23q0 10 12 29q6 8 18 26 q8 12 21 25q18 12 37 14q25 4 26 8q13 7 19 11z" />
<glyph unicode="-" d="M346 629h6q10 0 17 -6q12 -8 16 -9q8 0 16 -18q10 -16 10.5 -40t-8.5 -42q-6 -16 -22 -25q-14 -10 -31 -10h-8q-8 0 -14 2q-6 4 -45 0q-16 -2 -52 -2q-37 0 -71 2h-43h-24.5h-19.5h-10q-6 -2 -10 -2q-6 0 -12 4q-10 6 -14 17q-6 16 -6.5 53t4.5 45q6 8 22 12q12 2 78 2 h59q123 0 135 9q17 8 27 8z" />
<glyph unicode="." horiz-adv-x="819" d="M399 274h29q14 0 23 -8q6 -6 26 -6q6 0 17 -1l10 -1q2 -2 14 -27q10 -20 10 -89.5t-6 -80.5q-6 -12 -16 -16q-2 0 -14.5 -5t-18.5 -7q-14 -6 -22 -6q-4 0 -19 2q-29 4 -41 2q-23 0 -31 4q-2 2 -10 4t-10 2q-12 4 -21 12q-10 14 -12 25q-4 14 -10 20q-4 6 -4 11q0 2 2 8 q2 12 0 51q-2 20 -2 31q0 12 8 26q6 14 18 27q10 10 29 10t27 4t24 8z" />
<glyph unicode="/" horiz-adv-x="561" d="M563 1612q4 6 6 6t15 -4q8 -4 16 -12q8 -6 8 -31q0 -23 -6 -29q-6 -4 -10 -24q-2 -18 -8 -29q-6 -8 -6 -21q0 -8 -15 -22q-12 -16 -12 -19q0 -8 -6 -18q-8 -16 -8 -27q0 -14 8 -22q6 -10 0 -17q-2 -2 -13 -28q-4 -12 -4 -27q4 -2 -10 -16t-14 -19q0 -2 -8 -18 q-8 -14 -7 -21q4 -8 5 -12q0 -2 -9 -18q-10 -10 -10 -35q0 -29 -6 -37q-8 -14 -6 -30.5t-4 -26.5q-8 -12 -8 -15q0 -4 -9 -12q-10 -6 -10 -16q0 -6 -6 -19q-6 -18 -6 -24q0 -16 -8 -25q-6 -8 -6 -26q2 -18 -3 -23q-6 -2 -6 -8q0 -2 -8 -15q-8 -8 -12 -24q-2 -14 -8 -25 q-8 -10 -15 -28q-6 -18 -6 -31q2 -12 -10 -31l-12 -20q-4 -8 -11 -15q-8 -16 -8 -39q0 -27 -6 -32q0 -2 -4 -11.5t-6 -13.5q-4 -16 -10 -29q-2 -8 -13 -22q-8 -12 -8 -16q0 -6 -8 -23q-6 -16 -4 -27q0 -14 -6 -20t-6 -23q0 -14 -11 -22q-8 -8 -8 -23q0 -12 -4 -16 q-4 -2 -8 -21q-4 -20 -10 -30q-10 -10 -11 -17q0 -8 -6 -18q-6 -12 -12 -19q-6 -2 -6 -12l-6 -18q-8 -10 -9 -35q0 -23 -6 -35q-6 -8 -10 -22q0 -6 -14 -39q-12 -25 -13 -41q2 -10 -4 -25q-8 -12 -8 -22q0 -14 -6 -21q-8 -8 -8 -14t-15 -25q-12 -12 -16 -28q0 -12 -8 -29 q-6 -12 -19 -25q-4 -2 -13 -7t-13 -7q-8 -4 -10 -4q-4 0 -15 8q-12 6 -14 27q0 27 2 41q2 25 14 39q10 14 15 24q4 16 4 25q0 12 6 24q8 14 6 27q-2 14 6 31q10 16 10 28.5t15 44.5q16 33 24 41q10 10 15 27q2 8 2 31q-2 18 4 24t10 25q6 25 6 26q2 8 14 21q10 6 9 27 q-2 18 6 38q6 12 6 23q0 2 6 14q6 2 10 17q4 12 15 32q12 20 14 50q4 33 10 41q2 4 7.5 10t5.5 8q8 2 8 24.5t6 34.5q8 16 8 27q0 4 6 23q8 8 8 26q0 16 5 21q4 0 12 20q8 25 6 29q-2 8 4 18q2 2 7 12.5t9 14.5q6 10 11 39q2 20 16 35q12 14 14 34v27q-2 4 7 31q8 25 18 35 q8 8 14 20q2 6 2 25q0 14 9 22q6 10 10 25q2 8 8 26q2 4 10 23q8 8 8 14q0 4 11 19q10 12 8 28q-2 18 8 31q10 14 14 29q4 16 4 26q0 14 9 23q6 6 6 20q0 6 6 24.5t8 27.5q0 12 8 24q6 12 6 39q0 29 7 35q4 6 10 6t20.5 14.5t22.5 14.5q6 0 14 4z" />
<glyph unicode="0" horiz-adv-x="1259" d="M629 1407q-8 -4 -37 -2t-43 -2q-31 -6 -37 -6q-20 -4 -25 -8q-8 -8 -12 -9q-6 0 -14 -4q-6 -2 -17 -16q-6 -8 -22 -25q-12 -6 -19 -18q-2 -10 -18 -25q-14 -10 -23 -26q-2 -2 -7 -9.5t-7 -9.5q-6 -4 -4 -22.5t-6 -34.5q-6 -18 -6 -43q-2 -27 -10.5 -37t-6.5 -49 q2 -41 -6 -51q-6 -10 -6 -25q0 -16 -8 -24q-8 -6 -10 -60q0 -53 6 -70q8 -16 8 -59q0 -33 4 -49q6 -12 4 -21q-4 -8 -4 -34q4 -25 -2 -35q-4 -8 -4 -23q0 -20 6 -45q4 -31 10 -37q8 -14 13 -26q6 -16 4 -39q-2 -25 4 -37q0 -2 4 -12.5t6 -14.5q2 -10 2 -24q-2 -6 10 -41 q16 -37 23 -43l8 -17q2 -8 16 -22q8 -10 31 -29q16 -16 17 -24q0 -6 12 -17q10 -8 26 -8q14 2 21 -6q8 -8 53 -8q41 0 58 4q14 2 22 -2t23 -4h18q33 2 43 8t33 10q23 2 35 17l28 28q16 12 17 21q6 12 24 30q23 33 27 41q10 18 12 31q6 31 6 33q2 16 12.5 26.5t10.5 29 t6 28.5t6 49v51q-4 8 0 23q0 16 8 28q8 18 9 80v76q0 25 -3 43q0 20 -6 45q-4 10 -8 82q0 25 -2 53v29q0 16 -6 24q-8 14 -6 56q0 47 -8 67q-10 20 -19 29q-6 6 -4 16q0 10 -18 48q-27 45 -39 59q-16 20 -39 31q-16 10 -45 12q-27 0 -35 8t-16 8q-12 0 -31 13q-18 14 -29 18 q-14 0 -18 -2zM645 1540q10 4 29 4q4 -2 17.5 -3t19.5 -1q25 0 32 -8q10 -6 19 -4q10 0 26 -17q14 -12 20.5 -14t27.5 0q31 2 36 -4q8 -8 21 -12q12 -2 20 -15q4 -6 33 -30q27 -23 31 -23t16 -12q10 -14 15 -25q4 -12 10 -12q6 -4 10 -25q8 -25 12 -28q6 -6 7 -35 q0 -20 3 -26.5t23 -24.5q25 -18 33 -37q2 -14 0 -37q-4 -29 -2 -41q0 -16 4 -29q2 -4 2 -16q-4 -10 4 -14q4 -8 4 -21q0 -16 10 -33q8 -14 9 -36v-29v-29q0 -20 8 -31q6 -6 6 -14q0 -6 -2 -16v-17.5v-27.5v-33v-109q0 -47 -8 -63q-8 -14 -6 -31q2 -8 2 -31q0 -25 -2 -36 q0 -18 -9 -31q-8 -6 -8 -27q0 -18 -4 -35q0 -4 -2 -15t-4 -15q0 -10 -10 -25q-8 -12 -8 -18q0 -8 -3 -11q-4 0 -4 -12l-6 -24q-12 -18 -18 -25q-14 -14 -21 -18q-10 -6 -14 -21q-4 -10 -14 -29q-4 -8 -35 -43q-20 -20 -20.5 -26t-18.5 -17l-31 -24q-12 -12 -16 -8 q-2 2 -15 -7q-8 -6 -30 -10q-16 0 -37 -12q-18 -10 -29 -14q-8 -4 -18 -2q-14 4 -25 2q-6 0 -26 -11q-8 -8 -17 -8q-2 0 -8 2q-20 6 -49 2q-39 0 -51 6q-14 8 -54 9q-37 0 -51 8q-8 8 -20 8q-10 0 -23 12q-14 14 -22 15q-2 0 -21 6q-8 2 -20 8q-2 0 -10.5 4t-12.5 6 q-2 0 -11 6t-11 9q-6 6 -14.5 6t-18.5 10q-12 8 -16 22q-8 16 -19 27q-12 12 -20 12q-6 2 -7 9q0 8 3 10q2 4 -5 14l-16 17q-12 16 -14 32q-8 23 -19 41q-14 25 -14 35q-6 18 -8 21q0 2 -6 22l-7 31q0 4 -2 14t-4 14q-4 8 -4 31v29v39q0 20 -8 33q-6 8 -6 92q0 78 -4 102 q-4 29 -6 33q-4 12 -4 59q0 16 1 40t1 26q0 4 4 13t4 13q4 12 -2 27q-8 18 0 35q10 20 8 43q0 27 8 41q8 20 8 35q0 18 4 26q6 6 7 29q0 25 8 35q10 10 10 16t6 21q8 16 12 20q4 2 13 25q6 18 16 28q10 6 10 12.5t11 16.5q10 14 10 16q0 6 22 25l43 41q23 18 29 18 q8 0 14 11q8 8 13 8q8 0 14 10q6 8 18 8q10 0 15 4q8 4 20 4q16 0 31 9q14 10 18 6q6 0 21 6q16 8 31 8h55q35 -4 53 0z" />
<glyph unicode="1" horiz-adv-x="1206" d="M645 1483q12 8 17 8h4q12 -6 18 -8q10 -4 10 -10q6 -12 13 -17q8 -10 10 -86q0 -25 1 -63.5t1 -42.5q-2 -29 4 -39q6 -8 8 -62q0 -55 -8 -69.5t-6 -24.5q6 -20 8 -22q6 -14 6 -54v-20q0 -27 -2 -55q-4 -41 -10 -48q-4 -12 -4 -18t8 -14q8 -6 6 -47q0 -43 -8 -60 q-6 -23 -6 -78v-65v-51q2 -47 8 -53.5t6 -20.5v-215v-117q0 -61 -3 -76.5t-13 -25.5q-14 -12 -25 -13h-12q-14 0 -39 4q-37 6 -43 7q-25 4 -27 6q-4 4 -4 16t-4 21q-4 12 -4 67q-2 33 -2 78q0 20 -6 26.5t-6 28.5q-2 12 -2 33v232q2 219 8 227q6 6 8 57q0 49 -6 62 q-8 12 -8 149l-4 146q-2 6 2 24q2 16 -2 31q-2 10 -13 20q-6 2 -32 2q-23 -2 -31 -10q-12 -12 -19 -16q-12 -8 -16 -8q-2 0 -23 -17q-18 -18 -28 -22q-12 -4 -23 -15q-4 -2 -12 -8t-10 -8q-20 -10 -31 -14q-4 0 -14.5 -3.5t-12.5 -3.5q-8 0 -14 8.5t-6 53.5q2 35 5 43t22 24 q20 20 32 25q10 0 14.5 10.5t12.5 14.5q8 2 16 14q6 12 29 22q25 10 37 27q14 14 20 14q2 0 15 9q4 4 24 8q12 0 21 14l16 25q10 10 33 12q27 4 35 12q10 6 28 6q21 1 33 13z" />
<glyph unicode="2" horiz-adv-x="1210" d="M588 1528q8 2 28 2q12 -4 29 -4q18 -4 33 -10q16 -4 29 -5q18 0 26 7q12 8 19 8q10 0 32 -15q33 -12 39 -10q12 0 18.5 -6t10.5 -6q10 -8 22 -21q16 -16 37 -24q18 -8 27 -19q2 -2 6 -8q4 -4 4 -6t13 -14q14 -10 20 -21q6 -18 8 -26q8 -16 12 -19q2 -2 17 -24 q8 -20 8 -24.5t8 -12.5q6 -6 6 -13v-30q0 -27 9 -37q8 -6 8 -57q0 -49 -8 -64l-9 -25q0 -12 -4 -20q-4 -4 -8 -31q-6 -29 -8 -33t-8 -18t-8 -18q-10 -20 -19 -33q-4 -4 -14 -25q-6 -16 -10 -20q-6 -6 -7 -12q0 -10 -10 -21q-12 -16 -18 -29q-8 -14 -12.5 -14t-14.5 -14 q-12 -12 -20 -29q-16 -27 -33 -41q-25 -29 -33 -37q-12 -12 -12 -18l-29 -33q-25 -27 -35 -27q-12 0 -14 -6q-8 -4 -8 -16q-2 -8 -15 -21q-12 -16 -34 -39q-18 -20 -39 -36q-14 -10 -21 -11q-4 0 -12 -12q-12 -12 -22.5 -16t-20.5 -21q-10 -18 -19 -31q-12 -16 -26 -20 q-16 -8 -17 -12q0 -2 -8 -2t-30 -23q-25 -20 -31 -20q-4 0 -29 -25q-6 -8 -17.5 -22.5t-13.5 -16.5q-10 -16 -8 -24q0 -12 8 -21q6 -8 19 -12l31 -12q20 -4 30 -5q4 2 17.5 4.5t15.5 2.5q16 2 45 12q18 6 92 6h80q37 0 76 2t98 2q31 0 45 -8q8 -6 23 -6q8 0 20 8q10 8 21 2 q2 0 9 -2t11 -4q18 -6 25 -6q14 -4 20 -18.5t-2 -29t-8 -39t-6 -26.5q-4 -4 -12.5 -4t-12.5 -8q-8 -8 -61 -8q-31 -2 -64 -2h-114h-113h-127h-162q-10 0 -45 1t-51 1q-51 0 -67 6l-25 12q-10 4 -23 27q-10 23 -4 30q6 10 4 23q-4 16 -8 20.5t-4 35t8 38.5q6 6 19 10 q8 0 18 11q2 4 10.5 12t10.5 12q16 16 24 16.5t8 6.5t4.5 10t10.5 4q4 0 18 10q4 2 17 15q0 6 41 47q41 43 53 43q12 2 20 20q6 14 17 19q12 6 20 14q14 14 19 25q4 8 16 16q4 2 27 18l26 27q6 14 20.5 20.5t14.5 10.5q0 6 20 26q10 12 27 29q2 6 16 14q10 10 17 23 q12 20 39 47q29 29 28.5 37t8.5 12q6 6 16 6q6 0 10 6q0 2 15 27q12 20 12 23q0 10 16 22q16 16 17 23q0 8 4 12q6 6 6 14q0 2 6 15q6 4 10 20q0 4 4 13.5t4 13.5q8 18 7 32q-2 16 6 29q8 16 8 55q-2 23 -2 64q-4 25 -6 29q-6 8 -2 16q6 12 8 20.5t2 22.5q-4 8 -22.5 22.5 t-18.5 18.5q0 2 -12 18q-10 10 -23 27q-2 2 -18 27q-4 14 -10 14q-4 2 -13 2q-6 0 -18 8q-16 8 -35 15q-23 6 -39 4q-14 -2 -29 6q-14 10 -28 12q-18 2 -29 -8q-12 -10 -25 -6q-10 2 -24 0q-6 -4 -21 -4q-8 0 -20 -9q-12 -6 -21 -6q-6 0 -18 -12q-14 -10 -18 -10t-19 -15 q-4 -4 -17.5 -18t-19.5 -20q-20 -29 -22 -39q-8 -23 -10 -27q-4 -6 -11 -25q-2 -6 -2 -26q2 -14 -14 -27q-12 -12 -29 -20q-4 0 -14 -4.5t-14 -4.5q-18 -6 -27 -6q-14 -2 -49 9q-37 12 -43 24q-10 10 -10 17q0 4 4 8t4 30q0 29 12 54q12 29 12 30q0 6 11 11q12 8 12 12 q0 8 10 24.5t16 32.5q6 12 19 19q16 8 22 18q8 10 27 23q20 16 27 22q8 8 18 8q8 0 19 11q8 8 16 8t12 8q2 6 19 6q12 0 24 8q8 6 49 4t49.5 6.5t43.5 8.5q43 0 53 2z" />
<glyph unicode="3" horiz-adv-x="1200" d="M481 1550q14 6 43 6q33 -2 47 -10q16 -6 39 -6h27q51 0 59 -6t35 -6t35 -6q6 -6 27 -11q18 -2 28 -14q12 -12 17 -12q2 0 26 -12q20 -12 37 -25q10 -8 35 -23q10 -4 20 -14q0 -6 8.5 -14t8.5 -14.5t4 -14.5q6 -6 6 -14t8 -17q10 -6 10 -14t7 -10q8 -8 8 -16.5t4 -16.5 q4 -2 8 -33t6 -35q6 -6 6 -32q0 -23 -8 -31q-6 -6 -6 -16t6 -21q6 -10 0 -25q-6 -10 -6 -20t-10 -27q-8 -20 -12 -26q0 -2 -2.5 -8.5t-2.5 -10.5q-4 -14 -14 -24q-16 -10 -18 -10q-6 -4 -11 -15q-4 -12 -24 -24q-8 -4 -33 -21q-14 -14 -39 -24q-33 -18 -37 -25 q-10 -10 -12 -33q0 -27 2 -31q4 -8 10 -8q4 0 17 -8q6 -10 14 -10q10 0 14 -6q8 -4 15 -4q10 0 16 -7q12 -4 12 -10q4 -8 29 -20q27 -12 51 -37q25 -25 25 -31q0 -8 12 -24t12 -21q0 -2 8.5 -14.5t8.5 -30.5q4 -27 6 -29q4 -2 8 -30q0 -8 1 -21.5t1 -15.5q0 -8 -4 -58 q0 -41 -6 -53q-4 -8 -4 -14q0 -8 -8 -17q-6 -8 -7 -20q0 -12 -8 -25q-8 -16 -14 -34q-12 -20 -25 -33q-14 -14 -14 -23q0 -2 -1 -7t-1 -7q-8 -8 -16 -12q-14 -6 -15 -13l-16 -20q-16 -16 -23 -16q-2 0 -41 -27q-27 -18 -47 -29q-12 -6 -16 -10q-14 -10 -31 -12 q-18 -6 -35 -6q-14 0 -20 -7q-12 -6 -45 -6h-19q-20 0 -32 2q-49 0 -93 -2q-53 -2 -59 -2q-18 0 -29 8q-12 10 -30 9q-18 0 -27 -4q-8 -2 -14 4q-10 10 -21 12q-18 4 -26 2q-12 -2 -21 6q-10 10 -14 10q-6 0 -23 9q-20 12 -22 16q-2 0 -9.5 6t-13.5 10l-20 11q-6 0 -10.5 8 t-4.5 14l-12 12q-10 14 -16 23q-29 29 -29 35t-10 16q-14 14 -21 31q-10 16 -10 22t-10 17q-10 16 -10 37v12q0 12 12 29q8 10 20 28q4 10 21 10q14 0 27 7q10 6 22 2q12 -6 25 -6q16 0 20 -3q12 -12 21 -22q16 -18 12 -23q0 -6 8 -12t8 -20q0 -12 21 -41q4 -4 32 -43 q16 -20 21 -23q8 -4 20.5 -16.5t20.5 -12.5q6 0 18 -8q18 -8 23 -6q12 0 29 -14q16 -12 32 -17q12 -2 27 7q16 8 61 8q25 2 68 2q18 0 23 4q8 4 16 6q14 4 14 10t4 11q2 2 24.5 6t29.5 10l24 8q12 4 37 25q25 29 25 30q0 8 6 15q8 12 8 14q0 8 6 14q8 12 8 29q4 25 4 33 q6 18 9 20q4 8 4 31q0 25 -9 35q-6 10 -10 20q-2 6 2 21q6 10 -4 24q-6 6 -16 31q-10 27 -13 33q-2 12 -18 29q-10 6 -22 24q-8 14 -18.5 18.5t-18.5 12.5q-2 4 -19 10q-6 0 -30 10q-16 8 -25 6q-12 0 -18 5l-21 14q-8 8 -23 12q-12 4 -36 0q-25 -2 -33 4q-12 8 -21 8 q-14 6 -24 21q-14 18 -15 41q0 25 11 37q8 12 8 20q0 10 6 17q6 4 21 10q20 4 47 2q33 0 41 6q18 6 20 6t14.5 1t18.5 1q25 0 33 8q12 8 16 9l14 10q4 4 23 16q4 2 24 17q2 2 27 32q12 20 12 23q0 4 8.5 16.5t6.5 32.5q-4 20 -4 45v39v41q0 29 -7 41q-6 18 -8 27q0 4 -3 15 t-5 15q-2 10 -16 33q-14 18 -23 21q-8 4 -14 4q-4 0 -25 12q-18 14 -28 14q-8 0 -17 4q-8 8 -28 9q-25 4 -27 6q-10 6 -27 8q-20 6 -71 6q-61 -4 -68 -6q-18 -6 -35 -10q-10 0 -22.5 -8.5t-18.5 -8.5q-10 -4 -35 -30q-27 -27 -32 -43q-2 -4 -7.5 -12.5t-5.5 -10.5 q-6 -6 -6 -16q0 -14 2 -21q6 -10 2 -16q0 -4 -8 -8q-6 0 -18 -13q-10 -10 -10.5 -16t-12.5 -10l-18 -13q-6 -6 -27 -6q-6 0 -18.5 1t-14.5 1h-22q-12 0 -29 4q-18 6 -22 19q-6 12 -7 41q0 27 9 37q6 12 6 26q0 18 6 21q6 6 6 10q0 6 14 20q14 18 19 31q2 16 18 23 q14 8 25 26q8 23 18 29q20 14 25 16q2 2 13 7.5t16 9.5q16 10 24 10q6 0 14 8q10 8 23 10q4 0 22 7q6 4 37 8q27 0 33 6q4 4 21 8q12 0 28 8z" />
<glyph unicode="4" horiz-adv-x="1157" d="M688 1204q-4 4 -20 4q-14 0 -26.5 -4t-25.5 -20q-14 -18 -16 -27q-2 -4 -9 -17.5t-11 -19.5l-17 -24q0 -2 -10 -17q-10 -10 -10 -18t-6 -10q-6 -6 -9 -11q-4 -8 -4 -14q0 -10 -20 -22q-23 -16 -33 -37q-14 -25 -14 -33q0 -10 -8 -14q-4 -4 -17 -25l-10 -27q-2 -6 -12 -16 q-12 -6 -13 -16q0 -10 -20 -33q-6 -6 -15.5 -16.5t-11.5 -12.5q0 -2 -6 -11t-8 -13l-12 -31q0 -12 -13 -25q-10 -10 -10 -18q0 -4 -16 -21q-16 -14 -17 -22q0 -8 -20 -31q-23 -23 -23 -27q0 -6 -8 -14q-10 -6 -10 -14q0 -10 -6 -21q-6 -10 -6 -16q0 -2 2 -6q4 -8 10 -17 q6 -8 26 -12q10 -4 21 -4q8 0 14 2q8 2 62 2h43h147q57 0 64 4q12 6 18 8q10 0 27 5q2 0 13 1t17 1q16 2 27 10q8 10 8 164q0 156 8 163q6 6 7 64q0 10 1 38t3 32q2 6 2 8q0 8 -10 18q-12 14 -11 27q4 18 8 22q6 6 5 27q-4 25 -7 27q-4 4 -4 55q-4 51 -8 55zM760 1464 q2 2 10 2q12 0 14 -6q8 -8 37 -6t33 -2q2 -2 2 -47t8 -53q6 -12 8 -97v-44.5v-34.5v-19v-33v-37v-40q0 -23 -8 -29q-4 -8 -4 -10l-4 -23q-10 -27 -10 -39q-2 -16 6 -35q6 -16 4 -53q-2 -33 6 -57q8 -18 8 -121q-2 -55 -2 -111q4 -10 0 -28q0 -6 1 -15.5t1 -11.5 q4 -10 25 -16q20 -10 37 -15q10 -2 22 2q10 6 41 7q31 0 41 -9q8 -8 19 -8q10 0 12 -6q2 -2 2 -10q-2 -6 8 -25l13 -20q0 -4 -9 -8q-6 -6 -6 -16.5t-12 -20.5t-23 -9q-12 6 -20 15q-14 10 -16 10q-8 0 -21 -12q-18 -12 -25 -15q-12 -6 -34 -6q-20 0 -37 -16 q-10 -12 -12.5 -18.5t-2.5 -28.5q-2 -31 5 -47q6 -12 10 -39v-29q0 -16 -2 -35v-33q0 -14 2 -24v-51q-4 -31 -17 -45q-14 -16 -34 -17q-8 -2 -13 -2q-10 0 -20 8q-10 10 -29 11q-18 0 -29 6q-12 8 -20 8q-10 0 -18 8q-10 10 -11 31q-4 25 -4 102v90q0 2 1 12.5t1 16.5 q2 20 -8 43t-20 29q-4 2 -13 6q-2 2 -4 2q-4 4 -39 4q-23 0 -94 -2h-149q-6 0 -30 1t-36 1q-37 0 -78 -4q-39 0 -39 2q-2 2 -18 2q-16 -4 -45 -4q-33 0 -39 8q-8 8 -8 12q0 6 -11 21q-10 16 -10 27q4 12 4 26q2 14 -4 29q-8 14 -8 47t12 47q10 14 23 18q14 8 18 17q8 8 8 16 q0 4 9 13q6 6 6 10q0 6 8 10q6 6 6 21q0 6 10 32q14 29 29 43q16 20 16 24.5t23 31.5q23 23 23 26q0 2 4 8.5t6 10.5q10 14 20 26q10 6 10 17q0 6 9 18q8 8 8 16q0 2 10 17q8 8 21 16q8 2 12 15q2 2 5 9t3 11q8 8 8 12t6.5 16.5t10.5 24.5q2 8 18 15q12 2 21 20q4 4 11 20.5 t11 22.5q18 33 21 35q10 14 12 22q4 16 14 27q8 16 17 19q6 6 14 22t14 23q6 4 19 22q6 16 16 27q8 4 25 35q14 31 12 34q0 6 35 41q27 27 33 30t14 1l14 -10q4 -4 17 -4q10 0 20 10q6 6 18.5 10t14.5 6z" />
<glyph unicode="5" horiz-adv-x="1208" d="M514 1507q18 8 23 9h4q8 -4 43 -5q10 0 25.5 -1t17.5 -1q16 0 22 2q14 0 19 -4q6 -6 16 -6q8 0 33 -4q18 -2 35 4q10 6 22 2q12 -6 76 -6q35 -2 47 -2q25 0 39 8q10 4 31 10q16 2 26 -4q12 -8 13 -12q4 -8 8 -12q2 -2 6 -27q2 -25 -8 -33q-12 -12 -13 -22q0 -14 -8 -21 q-8 -4 -14 -4t-23 -8q-10 -6 -22 -6t-21 6q-10 6 -41 10q-29 0 -36 -6q-8 -8 -13 -8q-4 4 -8 6q-8 6 -80 8q-74 0 -100 -8q-37 -8 -51 -8q-16 0 -41 10q-23 10 -35 6q-2 0 -23.5 -1t-36.5 -1h-26q-20 0 -39 -14q-12 -8 -29 -25q-6 -8 -10 -22q-2 -6 -2 -39q2 -27 -6 -39 q-8 -16 -8 -55q0 -37 6 -47t6 -31q0 -20 -8 -35q-6 -12 -6 -37q0 -14 2 -65q0 -88 4 -92q4 -8 10 -9q4 -2 14 -2q6 4 15 19q8 16 18 20q2 0 8 1t11 1q4 2 24 17q14 14 23 14q6 0 16 6t39 6q33 0 41 6q16 8 39 9q25 2 35 10q10 6 79 6q72 -2 89 -10q20 -8 24 -10q4 -4 8 -5 q8 0 27 -14q23 -14 31 -14q12 0 20 -6q2 -2 12.5 -7.5t14.5 -9.5q14 -8 18 -18q20 -20 35 -37q27 -27 35 -39q4 -8 10 -16q6 -4 6 -15q0 -12 12.5 -24.5t12.5 -26.5q0 -8 6 -27q6 -14 10 -30q4 -14 10 -25q6 -8 6.5 -28.5t8.5 -28.5q6 -8 6 -23v-16q-2 -27 -10 -45 q-8 -14 -7 -33q2 -23 -2 -29q-6 -6 -10 -32q-2 -14 -2 -41q2 -18 -4 -27q-8 -10 -8 -29q0 -20 -10 -34q-10 -16 -10.5 -20.5t-8.5 -20.5q-8 -12 -16 -21q-12 -4 -12 -8q-4 -4 -5 -10q0 -8 -10 -23q-10 -16 -16 -16q-8 0 -29 -25q-23 -23 -26 -22q-2 0 -23 -17l-25 -24 q-6 -10 -16 -11q-6 0 -14 -4q-4 -2 -9.5 -6t-7.5 -4q-4 -6 -18 -14q-12 -6 -25 -6q-8 0 -24 -9q-16 -10 -55 -8t-56 -8q-20 -12 -22 -12l-17 10q-10 10 -35 10q-27 -4 -32 -6q-10 -6 -20.5 -6t-18.5 6q-8 8 -24.5 8t-24.5 4q-4 6 -21 7q-14 0 -22 8q-4 6 -27 4q-20 -2 -27 6 l-16 16q-8 8 -14 9q-4 0 -23 18q-27 23 -33 25q-12 6 -24 10q-8 2 -13 14q-2 12 -16 21q-16 8 -18 10v8q-2 8 -2 12q0 18 -9 29q-10 10 -10 16q0 8 -6 15q-4 8 -4 12q0 6 -10 16q-8 8 -8.5 14.5t-6.5 10.5q-6 6 -6 31q0 23 4 26q2 2 45 6q41 4 60 0q10 -2 39 -2q16 4 20 1 t16 -17q18 -18 18.5 -34.5t4.5 -24.5q2 -2 7 -10.5t7 -12.5q10 -20 21 -29q20 -20 31 -32q16 -16 32.5 -24.5t18.5 -10.5q4 -4 20 -4q18 0 32.5 -8.5t66.5 -8.5q49 0 59 7q8 4 27 22q16 16 46.5 14t43.5 7q10 10 14 10t25 20q23 18 24 19q4 6 8 14q8 16 13 16q8 4 14 17 q8 14 16 18q8 2 15 8q2 2 2 14.5t6 16.5q6 6 6 45q0 37 8 45q6 8 6 74t-6 76t-6 33q-4 31 -10 41l-15 28q-8 16 -8 33q0 18 -12 25q-14 4 -18 16q-4 6 -25 22q-14 10 -20 15q-8 8 -11 12q-6 6 -18 6q-12 -2 -31 6q-18 10 -33 6q-4 0 -14 -1t-12 -1q-8 0 -37 5q-27 4 -35 8 q-10 6 -39 4q-20 -2 -31 -8q-4 -4 -22 -4q-25 -6 -33 -11q-12 -6 -22 -6q-8 0 -15 -6q-2 -4 -12 -14q-2 -2 -8 -7.5t-10 -9.5q-12 -6 -12.5 -16t-18.5 -29q-20 -20 -20.5 -28.5t-8.5 -16.5q-10 -8 -10 -20q0 -14 -2 -17q0 -6 -10 -6q-6 0 -19 -8q-12 -6 -59 -8q-47 0 -60 14 q-16 16 -18 31q-6 16 -6 67q0 49 6 62q0 2 3 13t5 18q2 12 -6 26q-10 10 -10 30.5t8 29.5q10 6 8 22q0 12 -8 24.5t-8 18.5q0 8 8 21q10 10 10 71q-2 63 -10 70q-8 12 -8 33q-2 16 2 39l10 20q4 8 4 64v30q0 25 6 35q8 12 9 27q2 18 -5 24q-8 8 -4 19q4 4 9 24q2 10 16 31 q12 12 19.5 14t39.5 2q45 0 54 -6q10 -6 26 -6q20 0 27 6q2 0 8 3t8 3q4 0 25 -12q14 -14 30 -14q16 -4 29 4q16 8 19 8q6 0 20 10z" />
<glyph unicode="6" horiz-adv-x="1175" d="M594 850q-6 4 -31 8h-12q-10 0 -27 -6q-12 -6 -45 -18q-27 -10 -39 -11q-10 0 -28 -20l-21 -25q0 -6 -12 -12l-12 -12l-9 -13q-8 -8 -16 -20q-2 -6 -12 -16q-8 -8 -11 -35q-4 -23 -10 -37q-6 -6 -6 -17q0 -6 -8 -14q-6 -6 -6 -12t6 -19q4 -6 10 -24q4 -14 0 -32.5 t0 -33.5q0 -12 8 -20q6 -10 4 -43q-2 -35 7 -45q8 -8 8 -17q0 -10 6 -18q8 -14 12 -33q4 -20 8 -28.5t17 -20.5q10 -8 16 -25q8 -12 12.5 -14t20.5 -14.5t22 -12.5q8 0 23 -14q10 -10 14 -12t19 0q14 2 30 -8q8 -8 18.5 -9.5t61.5 -3.5q70 0 74 2q4 0 23 15q16 12 24 12 q6 0 15 8q2 0 10 6.5t12 8.5q12 4 29 24q14 18 18 19q2 0 14 8q12 12 21 28q12 20 12 27q0 10 6 21q6 12 7 43q-2 29 8 38q8 12 6 52q-2 41 6 49q8 6 8 12q0 12 -10 29q-6 12 -4 30q0 20 -8 29q-6 6 -6 39q0 29 -11 45l-14 29q0 2 -3 11t-3 11q-6 8 -17 9q-12 0 -18 6 q-8 2 -8 8t-27 33q-25 29 -41 36q-20 10 -22 13q-8 4 -60 4q-45 -2 -59 2zM532.5 1534q6.5 6 69.5 6q59 0 84 -4q20 -4 33 -8q12 -4 24 2q12 8 21 2q6 -2 14 -2q6 4 10 -8q6 -10 13 -13q2 -2 16 2q10 2 25 -10q12 -12 28 -12q14 0 19 -6q4 -4 8 -17q4 -10 8 -10q8 0 15 -6 q4 -8 18 -12q10 -4 14 -11q0 -6 17 -22q14 -14 14 -23q0 -12 14 -26q14 -16 15 -29q0 -14 4 -18q6 -4 6 -17q0 -12 8 -32q10 -14 10 -31q0 -12 -16 -29q-14 -14 -29 -18q-6 0 -43 -4q-33 0 -43 8q-14 8 -26 6q-14 0 -27 14q-10 14 -10 20.5t-6 10.5q-4 4 -4 10q0 4 -9 17 q-8 12 -14 34.5t-14 34.5q-8 10 -27 23q-20 12 -27 18q-8 8 -20 15q-8 6 -18 6q-6 0 -15 8q-8 6 -28 6q-23 0 -27 -2q-10 -4 -37 0q-29 2 -59 -4q-8 -2 -24.5 -8t-20.5 -6q-6 -4 -27 -15q-12 -4 -23 -8q-14 -10 -26 -25l-17 -20q0 -4 -10 -8q-8 -4 -22 -35q-14 -29 -29 -43 l-18 -18q-6 -4 -7 -15q0 -8 -8 -20q-8 -14 -6 -31q2 -18 -4 -31q-6 -10 -10 -28q0 -16 -8 -29q-2 -8 -7 -43q0 -37 -6 -51q-6 -12 -8 -84q0 -66 4 -70q6 -6 26.5 -6t37.5 8q16 10 16 17q6 12 12 16q6 10 19 14q8 2 16 15q12 14 29 22q16 8 39 31q4 4 12 10q8 8 10 8 q6 0 13 6q10 6 24 11h43q25 0 35 6q18 6 20 6q6 0 31 8q20 10 27 6q6 -6 18 -10q12 -6 43 -4q31 4 41 -6q8 -8 25 -8q14 0 18 -4q6 -6 8 -13q6 -8 21 -12q14 -4 20 -10q8 -4 13 -2h12q12 -4 22 -15q8 -6 21 -24q6 -14 12 -15q6 0 15 -8q10 -10 20 -31q14 -18 14 -26 q0 -6 11 -17q12 -12 12 -22l8 -16q8 -8 8 -21q2 -10 17 -33q10 -16 12 -23t2 -36q-2 -39 6 -53q8 -12 8 -82q-2 -72 -10 -84q-6 -10 -6 -41q2 -29 -4 -33q-8 -4 -8 -16q-4 -18 -9 -23q-4 -12 -4 -22q0 -14 -8 -23q-2 -6 -8 -18q-4 -10 -12 -15q-10 -10 -13 -20 q-2 -6 -20 -29q-16 -16 -21 -28q0 -8 -10 -13q-8 -4 -45 -41q-35 -35 -55 -45q-20 -8 -25 -8q-8 0 -18 -10q-8 -8 -14 -6q-12 0 -23 -4q-4 -2 -16.5 -6.5t-18.5 -4.5q-8 -2 -31 -2q-10 2 -51 2q-35 0 -43 -8q-10 -6 -31.5 -6t-31.5 8q-12 8 -31 8q-31 6 -35 9q-20 8 -22 12 q-12 6 -21 6q-12 0 -28 8q-12 8 -20.5 8t-14.5 6q-8 4 -15 5q-10 0 -14 8q-4 4 -25 16q-4 2 -15 7t-15 7q-14 8 -19 19q-2 4 -12 20q-10 10 -16 29q-8 20 -21 27q-8 2 -22 16q-12 12 -13 25q0 8 -8 32q-8 20 -18 27q-8 12 -8 18q0 10 -7 15q-4 4 -12 20q-6 14 -4 27 q4 8 0 31q-2 14 -8 24q-2 4 -6 41q-4 33 -4 43q4 14 0 62q0 51 -7 59q-4 8 -6 82q0 72 8.5 80t8.5 16t-11 29q-10 16 -10 26q0 4 2 15q2 20 13 31q6 6 4 20q-4 14 0 64q0 41 8 61q6 12 6 39q0 25 6 31q2 2 12 22l5 15l2 8q0 6 8 14q10 10 10 20q4 14 10 25q6 8 6 16 q0 2 9 15q6 8 6 28q0 16 10 25q8 2 22 31q8 16 12.5 20t14.5 6q14 4 23 11q10 6 14 18t16 25q6 8 25 26q4 2 14 11.5t15 13.5q14 12 34 12t35 6q12 6 29 6q14 4 31 11q20 8 24 8q6 0 12.5 6z" />
<glyph unicode="7" horiz-adv-x="1112" d="M170 1511h14h23h29q51 0 65 -10q16 -8 18.5 -8t10.5 4q4 4 30 4q18 0 68 -2q90 -2 104 -8q16 -6 68 -6h31q23 0 33 4q12 8 26.5 8t39 -8t52.5 -6q33 4 39 4t27 -4q12 -2 26 2q12 4 19 -4q6 -10 14 -11q8 0 15 -6q12 -8 14 -8q6 0 18 -12q6 -8 19 -21q8 -8 8 -26 q4 -16 -2 -33q-4 -14 2 -25q2 -12 2 -24v-10q0 -16 -6 -23q-4 -4 -8 -20q-2 -14 -8 -25q-6 -4 -7 -14q0 -8 -8 -17q-8 -12 -8 -30q-4 -27 -8 -33q-4 -8 -8 -31l-7 -31q0 -6 -10 -16q-8 -12 -8 -14q0 -4 -8 -17q-8 -18 -10 -22q-4 -16 -15 -27q-2 -4 -9 -12t-7 -10 q-8 -14 -12 -33q-4 -16 -9 -27q-2 -4 -2 -14q0 -8 -10 -15q-8 -10 -6 -20q0 -12 -6 -18q-8 -8 -12 -23l-5.5 -11t-3.5 -9q0 -6 -10 -17q-8 -8 -8 -20.5t-14 -40.5q-2 -6 -10.5 -22.5t-10.5 -22.5q-4 -6 -9 -18.5t-7 -16.5q-6 -8 -6 -19q0 -2 -9 -14q-6 -6 -6 -20 q0 -16 -6 -25q-6 -12 -6 -22q-4 -16 -10 -23q-6 -8 -6 -20q0 -6 -13 -35q-4 -16 -18 -37q-10 -6 -10 -17q0 -8 -5 -12q-6 -2 -20 -33q-16 -31 -18 -32q-4 -4 -5 -11q0 -10 -4 -14q-6 -6 -6 -16q0 -8 -8 -17q-8 -10 -8 -35q0 -23 -4 -30q0 -2 -6 -23q0 -10 -7 -22 q-6 -10 -10 -35q-2 -12 -10 -37q-8 -16 -8 -18q0 -6 -8 -19q-10 -10 -47 -10h-50h-43q-29 0 -37 4q-8 8 -12 16q-8 10 -6 35q0 8 6 39q10 20 17 25q8 12 8 18t6 12q4 8 4 23q0 16 14 29q14 14 14.5 28.5t6.5 18.5q6 6 4 14q0 8 8 16q10 6 10 17q0 8 9 20q6 6 10 21l8 24 q6 18 10 25q6 12 6 18l17 37q16 29 20 51q4 25 6 27q0 8 11 18q8 8 8 15l6 18q8 12 8 25l10 31q10 27 19 36q12 20 12 23q0 10 12 31q10 20 17 28q4 4 4 19q0 12 4 20q6 6 6 14.5t6 14.5q8 8 8 16q2 2 5.5 15.5t5.5 17.5q2 6 7 18.5t5 14.5q6 12 6 18q8 23 12 31q2 6 17 35 q10 14 14 28q4 16 10 23q4 6 13 27q10 20 16 26q12 10 12 21q0 12 6 24q2 2 8.5 15.5t10.5 19.5q10 16 10 33q0 10 8 16q10 4 11 25q0 18 -7 31q-4 12 -10 12q-8 0 -24 10q-20 10 -24.5 10t-16.5 -8q-14 -8 -27 -6q-14 0 -35 8q-16 6 -39 6q-20 0 -49 9q-23 6 -37 6 q-10 0 -18 -9q-8 -10 -21 -8q-2 2 -10 5t-12 3q-12 6 -82 7l-78 4q-16 0 -35 -2q-33 -2 -47 4q-16 8 -31 8q-10 0 -26 4q-10 6 -19 6q-6 0 -14 8q-2 8 -14 13q-4 0 -11 6q0 4 -4 24v29q4 12 17 25q4 4 13 12t11 10q15 6 27 10z" />
<glyph unicode="8" horiz-adv-x="1185" d="M586 731q-6 6 -19 6h-8q-8 0 -14 -2l-45 -4h-45l-9 -4q-8 -4 -12 -8q-12 -12 -35 -19q-18 -2 -32 -16q-20 -14 -25 -16q-6 -4 -14 -13v-12q-2 -6 -9 -10q-8 -12 -14 -19q-4 -12 -4 -20q0 -10 -14 -35q-16 -25 -17 -45q-4 -23 -10 -27q-6 -8 -6 -30q0 -25 8 -39 q10 -16 12 -39q0 -23 9 -35q4 -16 2 -27q0 -18 6 -28t6 -25q0 -12 14.5 -26.5t30.5 -20.5q12 -6 35 -22q16 -16 33 -23q14 -10 22 -10q6 0 17 -10q16 -8 24 -9q12 0 21 -4q12 -6 79 -6q29 -2 60 -2t43 2q33 0 41 8q12 6 14 6q8 0 14 7q12 8 15 8q6 0 14 8l23 14q12 4 34 31 q25 23 35 41q12 20 19 33q4 10 10 30q2 4 4 18.5t2 18.5q0 20 8 33q4 12 4 29v20q0 37 -4 54q-2 6 -8 30q0 16 -8 33q-6 12 -10 25q-4 4 -11 16l-8 16l-12 25q-10 18 -16 20q-12 0 -17 -2q-8 0 -12 7l-16 16q-16 8 -24.5 8t-16.5 8q-6 8 -31 11q-31 0 -41 8q-12 6 -22.5 6 t-22.5 6q-8 4 -27 4q-10 -2 -20 2zM608 1434q-12 4 -16 4q-6 0 -8 -2q-8 -2 -17 -2q-4 -2 -17 -4.5t-15 -2.5q-4 0 -48 -6q-25 0 -49 -10t-41 -20l-37 -31q-23 -27 -24 -35q-8 -12 -12 -16q-8 -4 -11 -13q-2 -4 -14 -32q-10 -27 -14 -45.5t-11 -28.5q-6 -8 -4 -29 q4 -18 9 -22q8 -8 6 -22.5t8 -35.5q6 -16 14 -24q4 -4 4 -17q0 -8 11 -22q4 -2 11 -10.5t9 -12.5q12 -18 14 -26q4 -16 6 -19q4 -4 19 -8q16 -4 22.5 -10t10.5 -14q2 -8 26 -15q29 -8 31 -8q8 0 23 -6q12 -4 63 -12q49 -4 72 -5q27 -4 35 5q29 10 41 12q33 10 40 18 q10 10 19 23q4 12 16 20q18 18 25 27q10 14 20 33q2 8 21 30q12 12 12 23q0 8 8 20q6 8 6 78q-2 68 -10 78t-4 14q0 4 -18 45q-27 49 -35 60q-18 18 -25 22q-8 4 -20 17q-8 12 -19 12q-4 0 -16 8t-29 6h-47q-29 5 -41 11zM664 1559q2 2 5 2t7 -2q10 0 31 -5q20 -4 34 -10 q12 -4 29 -4q8 0 45 -16q29 -12 39 -27q8 -12 18 -12t17 -6q8 -8 14 -8.5t20.5 -14.5t26.5 -20q12 -4 28.5 -20.5t16.5 -20.5q0 -8 6 -15q8 -8 13 -28q6 -16 6 -33q0 -14 8 -25q10 -6 10 -16q0 -4 13 -33q12 -27 10 -49q0 -8 -2 -20v-5q2 -2 2 -22q2 -16 -4 -27 q-8 -8 -8 -24t-8.5 -26.5t-8.5 -22.5q0 -2 -3 -11.5t-3 -11.5q-8 -16 -41 -49l-47 -47q-20 -20 -31 -29q-16 -12 -20 -12q-6 0 -31 -29q-27 -27 -27 -39q0 -8 9 -24q10 -16 20 -19q12 -4 18.5 -10t10.5 -6q2 0 14 -12q6 -12 16.5 -12.5t20.5 -10.5q12 -8 20 -8q6 0 10.5 -4 t4.5 -8q0 -2 24 -31q25 -25 29 -39q4 -12 4 -19l2 -4q10 -12 17 -18q18 -20 22 -35q2 -10 14 -29q10 -10 11 -16q0 -4 -2 -12t-2 -58q-2 -18 -1 -28t2 -18l1 -9q0 -4 -4 -14q-6 -10 -13 -47q-4 -39 -8 -43q-6 -4 -6 -14.5t-6 -16.5q-8 -4 -8 -12q0 -10 -13 -29 q-8 -18 -20 -31q-6 -6 -6 -14t-11 -14q-10 -8 -18 -19q-4 -12 -27 -26q-18 -14 -24 -15q-4 0 -20.5 -16.5t-20.5 -16.5q-8 0 -29 -10q-25 -10 -37 -10q-14 0 -22 -10q-8 -8 -31 -8q-20 0 -39 -7q-14 -8 -49 -8q-31 2 -39 -6q-6 -6 -78 -6q-74 0 -82 8t-30 8q-20 0 -29 4 q-10 6 -34.5 6.5t-33.5 8.5q-6 6 -14 6q-10 0 -20 10q-12 8 -19 8q-4 0 -29 9q-20 12 -26 18q-8 12 -8 16q0 10 -13 19q-10 10 -26 22q-14 10 -19 19q-2 2 -4 8t-2 8q0 12 -8 12q-10 4 -18 25q-2 4 -8.5 17.5t-8.5 17.5q-6 8 -14 31q-8 16 -8 32q0 12 -9 33q-6 16 -6 41 t-4 33q-2 4 -2 10t2 16q4 23 10 33q6 16 7 39q-2 20 2 37q4 12 18 22q16 12 25 35q12 25 12 35l6 25q4 14 8 14q8 4 15 10q10 10 16 11q2 0 25 18q8 10 32 27q12 6 35 28q20 25 21 31q0 2 -1 10t-1 10q0 8 -15 27l-35 35q-16 16 -36.5 26.5t-36.5 32.5q-20 25 -21 27 q0 6 -14 20q-14 18 -14 22.5t-9 16.5q-10 10 -6 24.5t-4 41.5q-10 29 -8 49q0 6 1 15.5t1 11.5q0 20 -2 39q0 27 4 34q0 2 2 9.5t4 11.5q0 16 12 41q12 29 13 33q0 10 10 26q12 20 41 49q35 35 41 39q12 10 28.5 10t20.5 7q6 8 12 8q8 0 21 12q23 16 43 25q18 10 43 16 q8 2 47 2q29 -2 45 6q14 8 84 8z" />
<glyph unicode="9" horiz-adv-x="1191" d="M643 1389q-12 6 -80 6q-53 0 -66.5 -2t-39.5 -17q-33 -14 -45 -26q-14 -12 -23 -17q-6 -4 -24 -26l-17 -25q0 -4 -8 -12q-10 -10 -10 -19q0 -10 -6 -16q-8 -6 -9 -21q0 -14 -6 -26q-8 -8 -8 -25q0 -16 -10 -28q-8 -14 -8 -23v-10q4 -25 4 -33q4 -12 0 -35q0 -25 2 -28 l2 -11v-14q0 -18 6 -29q6 -8 4 -22q-4 -10 2 -21q2 -2 8 -11t8 -11q10 -16 11 -37q2 -23 30 -51q29 -25 35 -37q6 -8 17 -14q8 -4 16 -16.5t21 -18.5q12 -4 32.5 -4t30.5 -11q10 -8 25 -6q12 2 28 -4q14 -8 45 -8h17q16 0 30 6q20 8 25 8q10 0 23 6q18 4 24 15q16 10 21 12 q12 6 30 25q16 16 25 20q6 4 22 31q14 25 15 39q0 12 6 18q4 4 10 17q0 8 8 16q6 10 6 125q0 117 -6 127t-6 18q0 6 -8 18.5t-8 30.5q-4 23 -10 29q-6 8 -7 19q0 8 -10 22q-14 20 -29 31q-20 20 -26 28q-10 10 -21 11q-8 0 -26 14q-16 14 -41 14q-23 1 -31 9zM449 1532 q18 10 38 10q8 0 37 -2q45 0 70 -6q12 -6 22 -6q8 0 17 8q8 6 18 6q8 0 21 -8q16 -8 22 -8q12 0 29 -10q18 -6 33 -21q10 -14 16 -14q10 0 29 -6q25 -6 47 -19l24 -10q2 0 29 -23q29 -25 33 -26q8 0 29 -29q23 -31 24 -31q6 -2 6 -16q0 -16 11 -33l16 -33q2 -4 6 -10t4 -8 q4 -4 8 -20q2 -18 -2 -35q-4 -20 -4 -25q0 -10 12 -27q2 -4 8.5 -15t8.5 -15q8 -8 8 -19q0 -14 2 -14q4 -4 4 -20q0 -18 8 -27q8 -14 11 -53v-62q-4 -18 2 -26q2 -6 2 -10.5t-2 -8.5q-4 -12 -4 -98q0 -16 -1 -59.5t-4 -49.5q0 -18 -4 -30q-4 -16 -4 -28.5t4 -33.5 q2 -18 -2 -29q-6 -8 -6 -24q0 -14 -10 -31q-8 -20 -6 -37q2 -14 -4 -26t-6 -23q0 -14 -9 -18q-8 -8 -8 -15q0 -4 -8 -16q-6 -6 -6 -20q0 -8 -14 -37q-14 -20 -15 -31q0 -4 -4 -8q-6 -6 -12 -21l-10 -30q-2 -10 -25 -29q-12 -8 -39 -35q-8 -10 -31 -33q-16 -16 -28 -16 q-14 0 -25 -10q-2 0 -37 -27q-27 -16 -41 -16t-22 -11q-6 -8 -12.5 -10t-34.5 0q-43 2 -50 -2q-6 -6 -16 -6q-14 0 -29 6q-25 8 -43 6q-20 -2 -32 6q-10 8 -52 9q-45 4 -49 8q-8 4 -14 4q-8 0 -23 10q-2 2 -11 8t-11 9q-6 4 -39 8q-23 2 -30 5t-21 17q-18 16 -31 39 q-8 20 -8 27q0 4 -8 12q-6 6 -6 14q0 4 -13 21q-12 12 -16 29q0 6 -6 18q-6 4 -6 12q0 6 -9 23q-8 10 -8 41q2 27 10 39q6 12 15 16q6 0 35 4q25 4 34 0q6 -2 21 -2q8 0 20.5 -6t18.5 -6q12 -2 24 -17q10 -12 15 -26l6 -19q6 -8 6 -14q0 -2 8 -14q10 -10 10 -19q2 -6 13 -26 q2 -2 15 -17.5t22 -23.5q29 -29 37 -29t20 -6q14 -6 117 -6q78 0 93 2t30.5 11t29.5 22q10 10 23 10q12 2 14 16q6 18 31 39q27 27 26 31q0 6 15 26q2 6 8 15.5t6 11.5q0 6 4 14q6 6 6 21q0 14 7 22q8 10 10 37q0 25 8 33q6 8 4 47v43q0 29 2 60q2 51 -2 59q-4 4 -25 8 q-12 2 -18 -2t-27 -27q-27 -31 -38 -32q-10 0 -23 -13q-14 -10 -25 -14q-4 0 -13 -2t-13 -4q-14 -4 -23 -10q-12 -8 -18 -9q-8 0 -24.5 -8t-41.5 -8t-35 -8q-12 -8 -26 -6q-25 6 -29 8q-18 4 -53 8q-39 2 -47 8q-10 6 -17 6q-10 0 -30 11q-25 10 -25 14q0 2 -8 10t-12 8h-15 q-8 0 -20 13q-12 10 -27 14q-14 0 -18 8q-6 6 -10 19q0 14 -17 24q-16 12 -20 25l-19 37l-20 30q-10 10 -10 17l-7 12q-6 6 -6 22.5t-6 28.5q-8 16 -8 21q0 8 -8 16q-8 10 -8 33q0 35 -3 49q-4 27 -6 29q-4 4 -4 26v39q0 23 6 29q6 18 7 35q4 31 8 35q0 2 2 6q6 16 8 24 q2 4 8 31q0 16 6 25q6 8 15 39q10 29 16 32q4 2 18 21q10 16 11 22q0 6 14 25q8 10 23 25q6 10 16 10l25 8q14 8 18 16q2 8 25 21q14 8 38 18q25 8 37 8q16 0 25 5q2 2 12.5 8t14.5 8z" />
<glyph unicode=":" horiz-adv-x="770" d="M348 266q6 6 30.5 6t33.5 -4q2 0 10 -2t14 -2q25 -4 29 -8q10 -6 14 -23q6 -20 10.5 -28t4.5 -47q0 -31 -5 -43q-2 -2 -6 -7.5t-6 -7.5q-4 -4 -12 -20q-8 -14 -14 -19q-12 -6 -60 -6q-55 0 -67 6q-10 2 -27 19q-12 16 -10 22q0 6 4 39q2 29 -2 43q-2 6 -2 25q4 14 18 29 q18 16 27 20q8 0 16 8zM371 1051q14 0 29.5 1t25.5 1h10q6 0 23 -13q20 -14 20 -30q2 -16 10 -31q6 -8 7 -12q0 -4 -2 -13q-4 -14 -9 -18q-6 -6 -4 -29q0 -23 -10 -39q-10 -14 -25 -16q-10 -4 -61 -4q-45 2 -53 10q-10 10 -23 10q-12 4 -16 9q-4 8 -4 30q0 25 -6 37 q-8 12 -9 25q0 14 8.5 22t8.5 17q0 12 2 16q0 8 8 16q11 11 70 11z" />
<glyph unicode=";" horiz-adv-x="706" d="M414 240q18 6 45 6q31 0 35 -4q4 0 4 -14.5t-9 -30.5q-8 -33 -8 -37q-2 -20 -14 -35l-12 -16q0 -6 -15 -21q-14 -16 -14 -43t-14.5 -41t-14.5 -26.5t-6 -18.5q-6 -12 -6 -16q0 -12 -6 -19q-8 -8 -8 -14q0 -4 -9 -12q-10 -10 -10 -20.5t-4 -31.5q-6 -16 -20 -26 q-14 -14 -15 -21q0 -8 -6 -14q-10 -10 -14 -12q-8 -4 -27 -4q-20 0 -26 6q-12 6 -15 6q-8 0 -18 10q-8 12 -8 16q0 8 6 17q4 8 4 18.5t6 18.5q4 12 4 20q0 6 8 35q10 43 13 53q6 20 10 56q4 31 18.5 45t12.5 28q-2 16 6 35q8 14 8 33q0 16 8 22q6 4 6 15q0 12 8 20 q6 8 43.5 8.5t53.5 8.5zM453 1065q8 14 18 14q8 0 18.5 -10t10.5 -18q0 -2 6 -15q8 -18 8 -28q0 -8 -8 -23q-8 -14 -6 -35q0 -14 8 -26q4 -10 0 -27q-2 -4 -6 -14.5t-4 -12.5q-6 -10 -29 -24t-35 -15q-16 0 -33 7q-16 6 -47 10q-23 2 -26.5 4t-12.5 14q-10 14 -10 31 q0 6 2 29q2 18 2 38.5t-2 30.5q0 29 2 33q6 8 16.5 6t24.5 6q12 10 33 11h39q21 0 31 14z" />
<glyph unicode="&#x3c;" horiz-adv-x="1544" d="M1233 1143q23 6 37 6h12q16 0 23 -6q2 -2 1 -7.5t-3 -9.5q-4 -12 -5 -22q0 -8 -6 -14q-6 -4 -10 -19q-12 -18 -20 -24q-12 -12 -29 -17q-4 0 -12.5 -1t-10.5 -1q-14 0 -30 -10t-33 -27q-2 -2 -8 -9t-6 -9t-3.5 -5t-3.5 -5q-6 -6 -22.5 -6.5t-26.5 -10.5q-8 -12 -22 -10 q-16 4 -25 4q-12 0 -12 -6l-4 -5t-6 -7q-8 -8 -25 -9q-14 0 -27 -14q-10 -14 -18 -14t-18 -6q-18 -6 -23 -7q-4 -2 -29 -18q-20 -16 -22 -16q-6 0 -17 -11q-14 -10 -20 -10q-12 0 -29 -10q-20 -8 -30 -8t-23 -15q-14 -14 -29 -14q-4 0 -12 -1l-8 -1q-4 -2 -12 -14 q-4 -10 -19 -15q-12 -8 -14 -12q0 -6 -17 -14q-16 -12 -45 -13q-31 0 -41 -10q-2 -2 -11 -8t-11 -8q-8 -2 -35 -21q-23 -16 -31 -16q-2 0 -12 -10q-12 -14 -22.5 -17.5t-14.5 -7.5l-1 -4q-1 -4 -1 -8q0 -6 12 -23q10 -16 15 -16q2 0 9 -6t9 -8q14 -14 29 -15q12 0 22 -10 q8 -8 20.5 -8t20.5 -8q6 -6 17 -7q4 0 15 -3t13 -3q16 -6 23 -12q4 -8 27 -22q20 -16 36 -21q12 0 17 -10q8 -8 20.5 -8t22.5 -11q6 -10 14 -10t15 -10q8 -8 20 -6q10 2 23 -6q12 -8 14 -8.5t6 -4.5t16 -12q8 -6 29 -16q4 -2 11 -4l7 -3q2 0 19 -12q12 -12 25 -12 q10 0 26 -4q18 -10 21 -12q0 -4 16 -9q16 -6 33 -18q4 -2 15 -11.5t13 -11.5q6 -8 31 -20q20 -12 25 -12q8 0 20 -13q16 -12 35 -14q18 0 29 -6q2 -2 6 -4q12 -10 18 -12.5t21 -8.5q6 -2 10 -4q14 -4 25 -10q6 -6 22 -10q12 -2 16.5 -6.5t14.5 -22.5q18 -29 28 -43t15 -25 q0 -14 -2 -22q-4 -16 -15 -23q-10 -8 -24 -8h-17q-33 4 -36 6q-6 6 -12.5 20.5t-14.5 14.5q-4 0 -16 12q-4 4 -23 17q-12 4 -22.5 4t-36.5 16q-4 4 -15.5 12.5t-13.5 10.5q-4 4 -22.5 4t-26.5 8q-4 2 -11.5 5t-9.5 3q-12 4 -22 17q-4 6 -29 30q-25 20 -33 21q-8 2 -24 2 q-12 0 -27 10q-4 4 -12 10l-6 5q-6 4 -15 14q-4 12 -22 22q-18 12 -35 13q-20 0 -35 14q-16 14 -30 12q-18 -2 -27 4q-12 8 -18.5 8.5t-24.5 14.5q-18 18 -31 24q-10 6 -18 7q-4 -2 -10 4q-6 10 -17 14q-12 6 -24 23q-8 12 -12.5 14t-22.5 0q-25 0 -29 6q-2 6 -16 14 q-14 4 -29 15q-20 8 -31 8q-16 0 -39 25q-27 23 -28 22q-4 0 -23 18q-14 14 -26 21q-8 0 -17 4q-16 8 -26 14q-14 10 -23 11q-4 0 -20 16q-14 16 -24.5 16t-16.5 7q-8 8 -9 16q-2 8 2 20q2 2 6.5 7.5t6.5 7.5q6 6 28 14q18 4 43 27q16 20 25 20q4 0 12 4q4 2 27 8 q18 4 29 11l10 4l18 6q16 8 29 8q16 6 25 14q12 12 28 21q12 8 25 8q12 4 14 6q0 2 19 13q16 10 24 10q6 0 29 22q25 23 39 23q10 0 35 8l32 16q14 10 15 17q2 4 8 10q4 4 28 12q8 2 21.5 5.5t15.5 3.5q16 4 29 10q10 4 23 10q2 2 9 5t13 7l21 9q2 0 22 12q8 6 19 16l12 8 q10 10 35 21q29 12 36 12q12 4 19 10q2 2 22 13q20 4 39 8q20 0 31 14q4 10 25 25q18 14 20 22q4 10 10.5 14.5t22.5 0.5q20 -2 43 6z" />
<glyph unicode="=" horiz-adv-x="1642" d="M469 457q2 2 8 2q4 0 17 -8q8 -8 24 -13q23 0 39 8q18 8 51 9q37 -4 43 -9q12 -6 39 -6t33 6.5t192 8.5h73t62.5 1t42 1h19.5q53 0 107 -2q25 0 50 1t41.5 1h18.5q12 4 23 -2q8 -4 18 -4q8 2 14 -5q4 -4 15 -4q8 0 24 -8q18 -12 19 -12q2 -2 2 -4q0 -4 -4 -8 q-2 -2 -8 -13q-2 -4 -5 -6q-4 -8 -16 -22q-10 -16 -10 -27q0 -14 -12 -25q-12 -10 -46 -10h-96h-82q-31 0 -43 2h-92q-74 -4 -76 -4q-4 -2 -6 -2q-4 0 -10 6q-10 6 -23 8q-12 2 -22 -4q-8 -6 -76 -6q-37 2 -74 2h-4q-16 -2 -24 -2q-27 -2 -33 4t-29 11q-16 2 -32 -7 q-16 -8 -70 -8q-14 0 -28.5 1t-22.5 1h-8q0 4 -48 0q-43 -6 -55 0q-16 4 -45 -2q-18 -4 -31 -4q-6 0 -10 2q-8 4 -30.5 4t-36.5 6q-16 8 -27 19q-10 10 -10 16q0 2 2 8q4 16 4 35q0 20 10 33q6 8 25 18q31 6 34 7q16 2 27 -2q12 -6 31 -7q23 -4 28 2q8 8 58 9zM299 901 q12 2 31 2q4 -2 23.5 -3t27.5 -1h49h68q33 -2 71 -2l26 1t68 1h80q88 2 168 2h246q180 -2 211 -3t39 -9q10 -10 10 -21q0 -8 6 -14q4 -8 4 -14q0 -10 -4 -15q-6 -6 -6 -14q0 -10 -10 -27q-10 -18 -23 -18l-12 -6q-2 -2 -4 -2q-4 -4 -12 -4q-2 2 -8.5 4t-8.5 2q-6 6 -18 6 q-10 0 -31 -4q-23 -4 -41 2q-20 6 -32 0q-10 -6 -21 -2q-6 4 -37 4q-25 0 -41 -4q-20 -4 -24 0l-8 1q-9 1 -23 2t-25 1h-65h-80q-35 2 -76 2q-4 2 -51 2t-111 -2q-152 0 -161 -6q-12 -8 -20.5 -8t-12.5 4t-19 8q-16 6 -22 2q-4 -2 -12 -2q-4 2 -23 -6q-16 -8 -29 -8 q-14 0 -22 6q-10 8 -29 8q-20 0 -26 -6q-10 -6 -31 0q-20 8 -25 8q-6 4 -6 12q0 10 -6 17q-8 25 -8 24q-2 8 -2 10q0 6 10 17q12 12 10 22q-4 10 8 21q10 12 27 10h43z" />
<glyph unicode="&#x3e;" horiz-adv-x="1527" d="M219 1169q8 4 37 5q29 -4 33 -9q8 -4 14 -4q2 0 14 -12q6 -10 25 -14q4 -2 13.5 -6.5t11.5 -4.5q12 -4 24 -12q8 -6 35 -14q16 -4 47 -29q27 -25 41 -27q10 0 22.5 -6t22.5 -6q23 -4 33 -12q14 -6 18 -17q2 -4 8 -10q2 -2 19 -6q12 -2 31 -24q14 -18 22 -19q4 0 17 -8 q10 -8 36.5 -6t47.5 -17q16 -18 43 -30l40 -25q20 -12 29 -12q12 0 33 -19q20 -20 25 -20q2 0 22 -8q20 -12 23 -15q2 -6 24 -14q16 -10 25 -10q4 0 12 -8q6 -10 12 -10.5t13 -6.5q12 -8 16 -8q10 0 14 -4q6 -6 23 -6q14 0 20 -10.5t20.5 -8.5t26.5 -8q16 -16 25 -20 q6 -6 25 -13q10 -2 18 -14q4 -10 27 -12q20 0 20 -4q0 -2 8 -19q8 -10 8 -18q0 -2 -20 -10q-18 -8 -25 -19q-8 -12 -10 -14l-16 -6q-14 -4 -19 -11q-2 -4 -22.5 -20t-26.5 -16q-12 -4 -22 -15q-14 -14 -31 -20q-14 -6 -33 -11q-18 0 -28 -10q-2 -2 -13.5 -8t-17.5 -8 q-16 -10 -23 -10q-2 0 -22.5 -16.5t-26.5 -16.5t-35 -12q-25 -12 -37 -16.5t-16 -10.5q-4 -8 -8 -12q-4 -6 -21 -4q-14 2 -26 -13q-10 -12 -37 -24q-27 -8 -33 -15q-4 -4 -16 -10q-12 -4 -21 -18q-14 -16 -24 -17q-16 -4 -25 -4q-10 0 -16 -8q-8 -8 -15 -8q-8 0 -18 -15 q-12 -14 -21 -14q-6 0 -22 -12q-12 -12 -37 -14q-27 -2 -31 -13l-8 -12q-2 -2 -26 -6q-14 0 -33 -6l-10 -9q-8 -8 -13 -12q-16 -14 -28 -14q-16 0 -19 -6q-4 -2 -24 -11q-20 -4 -25 -12q-4 -4 -16 -8q-14 -4 -21 -12q-12 -8 -18 -9q-8 2 -21 -6l-24 -18q-14 -10 -23 -10h-4 q-14 0 -20 16q-4 8 -11 35q0 16 11 26q8 8 12 21q2 10 10 16q6 6 21 6q14 4 16 9l6 12q4 8 12 8q10 0 19 8q12 8 22 9h11l6 2q4 0 20 12q10 12 25 12q10 0 22 8q8 8 25 17q14 6 31 10q16 2 34 20q20 18 33 19q16 0 27 8q2 2 37 23q33 12 37 12q10 0 26.5 12t20.5 12t18 15 q16 12 35 18q14 2 35 17q14 14 41 20q25 8 34 19q6 6 25 18q12 6 28.5 18.5t20.5 12.5t15 6q8 8 14 8q10 0 22 6q12 8 20.5 8t12.5 4q6 6 12.5 6.5t20.5 10.5q8 2 31 20q16 12 20 13q2 0 8 3t9 3q6 6 24 10q14 2 25 18q10 14 10 21q-2 6 -21 16q-8 6 -24 15q-4 0 -17 6 q-10 4 -22 8q-16 4 -27 14q-12 12 -20 12.5t-14 6.5q-6 4 -13 14q-4 6 -14 12q-10 0 -16 7q-4 4 -35 12q-27 8 -43 20q-18 14 -25 15q-12 6 -20 14q-4 2 -11.5 8t-9.5 8q-8 4 -14 9q-2 0 -10.5 4t-12.5 6q-27 10 -33 12t-16 6l-10 2q-8 0 -19 10q-6 10 -14 11q-2 0 -8 -1 t-8 -1q-12 -2 -19 6q-6 6 -10 20q-2 10 -3 12.5t-11.5 2.5t-26.5 8q-14 10 -24 10q-8 0 -29 8t-27 18.5t-18 10.5q-14 4 -17 8q-4 4 -10 4t-18 13q-14 10 -19 10q-8 0 -28 20q-23 20 -41 21q-6 0 -17.5 1t-13.5 1q-8 0 -27 18q-18 20 -28 23q-4 0 -15 4l-8 4q-8 8 -16 8 q-6 0 -19 4q-8 2 -10 17q-6 20 -12 32q-8 18 -2 29q10 14 16 16z" />
<glyph unicode="?" horiz-adv-x="1130" d="M442 242q16 6 41 6q23 0 47 -12q31 -25 35 -29q14 -14 13 -21q0 -6 4 -14q4 -4 8 -31v-12q0 -14 -4 -29q-10 -20 -21 -30q-16 -16 -20 -16.5t-13 -4.5q-8 -6 -55 -6q-25 -2 -31 -2q-16 0 -24 8q-12 8 -21 8q-8 0 -18 6q-6 4 -10 19q0 8 -6.5 20.5t-6.5 20.5q-2 6 -2 10 q0 8 7 14q8 12 6 29t14 35q16 16 31 20q18 7 26 11zM494 1563l8 4l4 2q4 0 12 -8q10 -6 37 -7q27 2 33 -6q6 -6 35 -6q25 2 41 -6t36 -8q23 0 31 -6q12 -8 14 -9q4 0 21 -12q8 -4 37 -16q14 -2 35 -23q23 -23 24 -28q6 -12 19 -21q16 -10 26 -33q14 -23 15 -37q0 -10 8 -18 q6 -6 6 -14q-4 -6 4 -19q6 -6 10 -28q0 -20 6.5 -26.5t6.5 -29t-9 -30.5q-6 -4 -6 -29q0 -20 4 -36.5t-12 -41.5q-8 -14 -20 -39q-4 -14 -13 -18q-2 -2 -10 -9.5t-14 -13.5q-12 -12 -21 -33q-4 -16 -12 -20q-10 -6 -16 -16q-14 -14 -19 -17q-8 -4 -12 -12q-2 -4 -15 -16 q-10 -8 -26 -31q-12 -20 -23 -31q-6 -6 -18 -12q-6 0 -31 -21q-16 -16 -28 -32q-10 -14 -19 -15l-18 -6q-8 -4 -9 -6q0 -6 -10 -16l-24 -31q-14 -16 -19 -27q-2 -4 -2 -94q0 -88 -6 -98q-6 -6 -6 -21q0 -10 -6 -16q-2 -2 -19 -10q-14 -8 -49 -9q-37 0 -57 13q-20 12 -21 26 q0 55 2 107q0 92 9 108q10 18 12 19q4 4 10 20q2 4 7 13.5t7 11.5q6 2 6.5 12t10.5 17q8 4 16 18l15 14q4 2 12 11q0 6 24.5 26.5t30.5 20.5q10 0 27 20q20 16 20 23q0 4 10 10q8 2 21 22q27 35 39 50q18 25 33 45q4 14 10 16q4 4 8 18q6 18 8 21q4 4 8 29q4 27 11 30 q6 8 6 19q0 8 -4 12q-2 6 0 18q4 16 4 25q0 10 -4 23q0 4 -3 10t-3 8q-4 4 -5 18q-4 20 -14 33q-2 4 -6 10.5t-4 8.5q-12 14 -27 28q-27 27 -30 35q-8 8 -17 8q-12 0 -20 8q-6 10 -23 11q-6 0 -18 6q-6 6 -74 6q-68 -2 -76 -8q-8 -8 -51 -6q-25 2 -76 2q-31 -2 -39 6 q-10 8 -14 24l-12 25q-8 8 -8 14q0 4 10 19q10 10 10 16t14 17q10 10 16.5 10t10.5 8q6 6 20 6q16 0 22.5 6t25.5 2q25 -6 36 -6q16 -2 29 6q12 6 33 6q19 1 31 7z" />
<glyph unicode="@" horiz-adv-x="2021" d="M1180 518q-12 6 -22.5 6t-18.5 -4q-6 -2 -72 -6q-63 0 -70 -8q-8 -6 -30 -6q-23 2 -29 -4q-4 -8 -33 -17q-29 -10 -31 -18q-6 -12 -12 -19q-4 -4 -22 -16q-10 -4 -11 -6l-12 -17q-10 -14 -10 -20q0 -4 -8 -12q-6 -6 -6 -21q0 -10 2 -43v-31q0 -27 -4 -36l-5 -15 q0 -4 11 -8q10 -6 10 -14t12 -25q14 -18 19 -18q2 0 12 -6q10 -10 14 -13q10 -4 15 -14q8 -12 16 -14q8 0 14 -7q4 -4 74 -4h78q14 0 16 11q4 8 17 14q14 6 18 16q4 8 29 19q23 10 24 18q0 6 9 23q6 16 14 24q8 12 12 31q2 6 7 20.5t7 18.5q8 23 9 94q0 76 -11 84 q-10 10 -10 12t-4 15q-8 12 -18 16zM1081 1368q12 4 15 4l12 -8q10 -10 51 -12q47 0 53 -6q12 -6 22.5 -6.5t27.5 -4.5q16 -8 26 -8q8 -2 45 -18q31 -14 47 -19q16 -4 33 -12q20 -12 23 -14q4 -4 20 -13q10 -2 45 -28q33 -25 33 -29q6 -8 22 -16q14 -12 29 -17q10 -4 10 -10 q0 -4 27 -27q31 -27 35 -32q6 -10 14 -11q8 0 15 -6q12 -12 14 -24q8 -14 14 -19q4 0 19 -14q18 -25 24 -37q14 -23 15 -33q0 -8 8 -20q10 -14 10 -19q0 -10 12 -24l15 -25q0 -6 6 -12q6 -4 6 -14t8 -27q10 -18 8 -27q0 -12 6 -18q4 -4 12.5 -20.5t8.5 -34.5q4 -20 8 -29 q4 -6 12 -27q6 -31 11 -49q2 -27 2 -45v-14v-103q-2 -74 -9 -84q-4 -12 -8 -20q-2 -6 2 -25q2 -14 -8 -28q-10 -16 -10 -29q0 -12 -6 -25q-8 -25 -11 -41q-8 -33 -14 -38q-8 -10 -8 -19q2 -4 -2 -18q-2 -14 -14 -21q-12 -8 -13 -20q0 -8 -8 -17q-6 -2 -10 -18q0 -18 -17 -41 q-2 -4 -8 -12q-10 -16 -12 -19l-39 -39q-8 -10 -24.5 -25.5t-18.5 -19.5q-16 -12 -20 -12q-8 0 -19 -10q-12 -10 -26 -17q-12 -4 -41 -2q-31 4 -41 0q-8 -2 -52 -2q-37 0 -53 8l-15 7.5t-16 7.5q-12 4 -26 4q-12 0 -26.5 14.5t-22.5 14.5q-4 0 -19 10q-8 8 -24 20 q-12 12 -13 17q0 2 -8 14q-6 6 -6 20q0 10 -8 23q-2 2 -8 13.5t-9 17.5q-6 12 -6 30q2 14 -14 29q-14 14 -20 14q-8 0 -25 -20q-20 -20 -37 -27q-25 -18 -27 -20q-6 -8 -24 -23q-10 -8 -33 -12q-20 -4 -33 -12q-12 -12 -16 -8h-7t-17.5 1t-26 1h-29.5l-82 4q-4 4 -18 8 q-14 2 -21 16q-8 12 -26 15q-20 2 -33 16q-14 18 -14 27q-6 14 -7 16l-4 12q0 8 -12 17q-4 2 -18 16q-2 2 -5.5 12.5t-5.5 14.5q-10 25 -12 26q-10 18 -12 23q-8 16 -8 37q0 23 4 34q6 12 6 43t8 39q0 2 3 8.5t3 8.5q0 6 6 18q10 20 17 29q10 10 10 20q0 6 10 17q8 8 12 16 q8 8 15 12q8 2 35 21q23 18 24 22q2 8 14 9q8 0 29 8q2 2 10.5 6t10.5 6q0 4 16 4t31 8q12 10 35 9q25 -2 41 4q16 8 22 8q10 0 31 10q20 10 45 6q29 -4 51 -2q25 0 37 6q2 0 22 6q10 0 27 11q12 8 16 16q8 10 11 66q4 47 -2 63q-2 8 0 27q4 18 -4 30q-2 6 -13 19q-2 4 -4 6 q-10 8 -8 23q0 10 -10 16q-10 4 -19 16q-4 6 -20 19q-12 4 -26.5 4t-22.5 -4q-6 -4 -19 8q-8 14 -16 14t-19 -10q-10 -8 -18 -9t-43 -1q-51 0 -57 -2q-10 0 -15 -10q-4 -14 -20 -33q-16 -23 -25 -27q-4 0 -4 -8t-8 -16t-12 -23q-4 -12 -13 -18q-12 -4 -28 -4q-20 0 -33 -11 q-10 -8 -31 -6q-25 2 -31 12q-10 8 -12 35q-2 23 4 33q2 6 8 18q0 2 3.5 7.5t3.5 7.5q2 4 14 8q8 0 12 10q0 6 17 27q14 18 28 20q14 4 19 13q4 10 16 10q16 6 53 2q45 0 58 6q14 10 30 16q14 6 45 11q25 4 35 0q8 -4 18.5 -4t26.5 8q12 8 27 2q14 -8 49 -8q33 -2 41 -11 q6 -6 20.5 -6t34.5 -8t27 -20q0 -2 3 -8.5t3 -8.5q0 -6 17 -22q18 -14 22 -15q6 0 10 -4q4 -8 4 -18t9 -31q10 -14 10 -25q0 -8 -6 -14q-4 -8 -4 -12q0 -6 10 -12t10 -19v-10q0 -12 2 -55q0 -45 6 -64q2 -10 -2 -22q-4 -10 -4 -62q2 -51 8 -57q8 -8 8 -10q0 -4 -8 -9 q-8 -8 -8 -30q-2 -23 4 -37q8 -16 8 -23q0 -12 -6 -26q-6 -18 -6 -47v-35q2 -35 2 -74v-61q-2 -27 -2 -35q0 -18 8 -29q8 -16 8 -31q0 -16 9 -30q4 -8 8 -33q0 -16 2 -20.5t12 -10.5l21 -20q10 -10 20 -11q12 -4 33 -4q18 0 33 9q12 8 20 8q12 0 19 6q12 8 28 24 q18 18 19 25q0 4 12 12q10 4 29 37q14 33 14 37q-4 4 8 12t13 23q0 16 12 39l20 43q8 18 6 24q-2 4 -2 25q0 16 4 20q6 6 17 27q10 25 10 33q0 23 2 35q0 4 -1 25.5t-1 33.5q0 10 1 41t1 43q2 43 -4 51q-4 8 -8 41q0 27 -6 39q-6 6 -11 35q-4 27 -10 37q-6 12 -6 26.5 t-4 22.5q-6 8 -6 14q0 2 -8 15q-6 4 -17 28q-8 25 -8 29t-12 16q-14 8 -17 27q-6 18 -18 24q-16 16 -21 25q-6 12 -16 23q-12 10 -14 20q-8 16 -23 27q-14 10 -18 10q-6 0 -25 27q-25 29 -37 32q-16 8 -26 19q-12 8 -19 8q-2 0 -22 12q-16 8 -17 17q-4 8 -8 10l-9 2t-15 4 q-16 6 -25 14q-4 6 -18 15q-20 10 -29 12q-10 6 -49 18q-35 10 -45 11q-4 -2 -21 4q-16 8 -18 8q-4 0 -17 8q-10 8 -69 10h-68q-18 0 -28 -2q-16 -4 -25 -8q-12 -6 -72 -6q-63 0 -71 -6q-12 -8 -25 -8q-16 -4 -29 -17q-14 -10 -20 -10t-19 -8l-20 -10q-10 -6 -16 -15 q-2 -8 -25 -20q-14 -8 -39 -19q-25 -10 -24 -10q-4 -4 -19 -8q-4 0 -22 -6q-6 -4 -19 -21q-8 -14 -10 -14q-6 0 -27 -21q-8 -8 -18 -17l-10 -9q-8 -2 -29 -31q-20 -33 -21 -35q0 -10 -16 -20q-18 -12 -22 -19q-6 -12 -7 -24q-2 -20 -12 -25q-12 -6 -14 -10q-6 -10 -6 -14 t-13 -21q-10 -16 -10 -33q0 -18 -8 -24q-8 -8 -4 -15q2 -6 -12 -26q-12 -16 -17 -37q-2 -8 -8 -27q-6 -12 -6 -57q-4 -47 -6 -55q-6 -2 -11 -25q-2 -20 2 -31q8 -25 13 -38q8 -23 4 -31t-4 -72q0 -47 1 -56t9 -18q8 -12 8 -20t12 -29q12 -25 13 -28q0 -6 10 -21 q12 -16 12 -18q0 -10 13 -31l12 -29q0 -2 4 -6q2 0 16 -20q2 -6 10.5 -20.5t10.5 -18.5q6 -16 18 -29q8 -12 8 -14q0 -4 15 -19q8 -6 43 -45q29 -31 47 -39q20 -10 20 -16q2 -6 7 -6l20 -17q6 -4 17.5 -12t13.5 -10q12 -8 16 -12q2 -6 16 -11q2 0 12.5 -2t14.5 -4 q10 0 35 -16q31 -16 35 -17q4 -2 17 -4t18 -2q20 0 30 -8q14 -10 23 -10q8 -4 10 -6q0 -2 8 -2q4 0 13 -9q12 -8 16 -8h18q14 0 21 2h22h39q23 -2 37 4q14 10 17 17q10 10 20 12q16 4 23 10q6 10 16 11q6 0 18 8q10 8 31 8q23 -2 35 -10q12 -10 12 -19.5t6 -11.5l13 -18 q8 -16 8 -25q0 -10 -10 -20q-8 -12 -9 -17q0 -6 -6 -14q-2 -2 -24 -17l-27 -16q-6 -6 -10 -6q-2 0 -19 -8q-12 -8 -55 -11h-47h-92q-84 2 -88 7l-21 10q-14 6 -20 12q0 4 -15 4q-16 0 -24 6q-10 6 -37 15q-4 2 -16.5 7t-14.5 7q-8 4 -14 4q-4 0 -16 8q-10 10 -17 11 q-8 0 -16 6q-8 8 -17 8q-14 0 -24 8q-4 2 -14.5 8t-14.5 8q-12 8 -12 17q0 2 -12 14l-17 8l-6 4q-6 5 -10 7q-8 8 -21 14q-12 0 -12 8q-4 8 -8 8t-27 23q-12 14 -35 37q-8 6 -24 22l-17 25q-4 16 -20 31q-16 10 -21 24q-6 14 -18 29q-16 16 -14 22t-6 15q-10 6 -11 18 q0 10 -14 23q-14 14 -14 22q0 6 -13 31q-12 29 -12 31q0 4 -8 16q-6 12 -6 31q0 16 -8 30q-8 8 -15 43q-10 41 -16 54q-8 25 -8 67q0 47 2 49t-6 17q-8 14 -9 47q2 33 6 43q4 8 9 51q4 45 8 51q4 12 4 19q0 10 8 18q8 12 8 31q4 25 9 29q4 8 4 18q0 14 8 23q10 6 10 14 q0 4 8 16.5t4 12.5l4 12l27 53q18 37 23 41q2 0 2 8q0 6 18 25q16 16 21 28q2 10 28 39q33 29 47 43q20 16 25 31q8 12 20 19q18 12 41 34q25 29 35 29q6 0 15 8q0 2 3 5t3 5q0 4 26 13q29 12 33 12q10 4 10 10q4 8 17 15q10 2 22 14q8 8 12 8q2 0 31 12q25 10 35 11 q12 0 21 8q10 10 22 10t18 6q6 4 33 4q20 0 45 6q25 8 43 9q23 4 29 8q8 8 33 8q12 0 51 -2q18 0 37.5 -1t31.5 -1h13q2 2 9 3t11 1z" />
<glyph unicode="A" horiz-adv-x="1476" d="M752 1298q-12 8 -23 9q-6 2 -8 2q-6 0 -14 -9q-6 -10 -13 -10q-4 0 -12 -8q-10 -12 -18 -33q-6 -18 -7 -28v-17q-4 -12 -18 -30.5t-14 -24.5t-9 -19q-6 -8 -6 -28q0 -14 -8 -35q-10 -20 -14 -27q-2 -8 -13 -18q-2 -4 -14 -41q-8 -33 -14 -39q-4 -4 -12 -27 q-10 -31 -17 -38q-8 -16 -4 -29q4 -10 -6 -19q-10 -10 -10 -20q0 -14 -6 -27q-4 -6 -13 -18q-2 -4 -4 -6q-6 -8 -14 -29q-8 -23 -15 -31q-6 -12 -6 -18q0 -12 -6 -25q-8 -10 -8 -37q0 -25 10 -34q6 -10 23 -15q20 -4 22 -4q8 0 25 -4q23 -6 24 -8q4 -2 23 -2l25 8q10 8 45 6 q2 0 68.5 -1t115.5 -1q152 0 160 6q10 4 22 9q12 0 19 10q4 8 4 14q0 4 -1 10t-1 15v22q4 16 -4 39q-6 18 -7 35q0 12 -10 20q-8 4 -12 19q-4 16 -8 16q-2 2 -2 10q0 6 -8.5 14.5t-8.5 25t-10 26.5q-12 12 -18 35q-10 20 -19 33q-8 8 -8 20l-6 19q-6 12 -6 18 q0 12 -8.5 24.5t-6.5 30.5q0 18 -8 27q-12 18 -14 22q-4 14 -15 27q-12 14 -12 27q0 2 -3 12t-3 14q-8 20 -18 41q-6 14 -19 39q-6 20 -10 31q-2 18 -14 24zM729 1503q18 6 45 6q31 0 35 -4q6 -6 16.5 -6t20.5 -12q8 -16 8 -23q0 -10 16.5 -26.5t16.5 -24.5t6 -16 q8 -16 10 -27l8 -33q6 -18 11 -24q8 -12 8 -19q0 -4 8 -20q2 -4 14 -23q6 -6 6 -22t7 -25q4 -8 4 -18q0 -12 10 -23q8 -16 8 -18t8 -19q6 -10 6 -20q0 -4 9 -25q12 -16 22 -41q20 -31 23 -32q8 -8 8 -15q-2 -6 2 -14q6 -12 6 -14q0 -8 6 -17q8 -8 8 -24q2 -18 15 -33 q14 -10 14 -19q0 -6 21 -47q27 -49 28 -51q8 -8 8 -26.5t7 -24.5q12 -20 22 -41q4 -8 10.5 -22.5t6.5 -16.5q0 -6 10 -20q6 -14 4 -31q-2 -18 8 -27q10 -6 14 -22q8 -20 15 -27q8 -12 8 -18t8 -27q10 -14 10 -29q0 -12 4 -20q4 -12 13 -16q8 -8 8 -15q0 -8 6 -14 q8 -8 8 -24.5t6 -28.5q8 -12 9 -23q0 -10 8 -12q10 -6 10 -13q0 -10 6 -16q6 -10 6 -16q-2 -8 4 -19q2 -2 21 -35q12 -29 12 -32.5t8 -12.5q6 -6 7 -18q0 -6 8 -27q10 -20 14 -24q4 -6 8 -33q0 -16 -1 -20.5t-9 -6.5q-12 -4 -18 -10q-4 -4 -70 -6q-47 0 -55.5 2t-16.5 12 q-6 8 -22 25q-14 6 -19 24q-6 12 -6 21q0 6 -8 18q-6 8 -6 23q0 16 -15 39q-14 27 -16 39q-4 18 -10 26l-8 25q0 8 -9 25q-6 8 -14 34q-4 25 -10 31q-4 4 -4 12q0 6 -13 31q-16 23 -22 25q-6 0 -23 10q-14 10 -41 8q-27 -4 -45 0q-10 4 -36 4q-16 0 -43 -2q-37 -2 -48 -2 q-14 0 -18 6q-8 8 -41 8t-41 -8q-8 -6 -197 -6q-190 0 -204 -6q-8 -6 -19 -6q-6 0 -12 -6q-4 -4 -4 -11q0 -12 -6 -14q-6 -6 -15 -22q-6 -14 -4 -29q0 -14 -6 -21q-16 -23 -20 -34q-12 -20 -17 -50q-4 -23 -16 -45q-12 -29 -12 -30q0 -4 -9 -13q-6 -10 -6 -14q0 -2 -8 -14.5 t-8 -26.5q-4 -16 -10 -22l-5 -8q-4 -7 -6 -11q-8 -16 -12 -20l-7 -5q-7 -4 -11 -6q-2 0 -9.5 -4t-11.5 -6q-8 -6 -41 -6q-35 4 -51 12q-23 8 -22 15q-2 4 -3 16q0 10 7 27q2 6 8 20t8 21q2 4 6 17t6 17q4 12 23.5 51.5t21.5 39.5l1 3q1 3 1 5q0 6 11 16q8 12 6 16q0 6 -4 15 q-4 6 8 12q6 2 18 31q8 29 9 31q0 4 14 26.5t14 32.5q0 8 8 29q4 8 13 30q4 18 12 27q12 18 14 29q6 12 11 39q2 16 8 32q6 12 8 15q8 16 12 28q2 6 10 37q4 16 13 33q10 20 14 25q6 6 6 16q0 8 6 14q4 8 4 13q0 2 2 4q4 8 7 12q6 6 10 24q0 14 6 20.5t6 8.5q0 8 6 14t11 29 q4 25 14 31q8 12 8 16q0 2 8 15q8 6 13 28q2 20 14 35q12 14 12 33q4 20 10 26q6 8 7 21q-2 10 0 12q6 6 14 21q6 14 10 33q2 12 10 22q0 2 3.5 5t3.5 5q0 4 16 25q16 23 16 37q0 16 14.5 44.5t14.5 37.5q0 12 6 26q2 4 7 15.5t7 15.5q4 12 15 18q8 8 8 17q0 12 10 20 q12 8 17 8q2 0 16 11q6 8 29 16q16 6 30 2q13 -4 31 4z" />
<glyph unicode="B" horiz-adv-x="1443" d="M588 723q-8 6 -58 8q-35 0 -44 -2t-27 -10q-12 -4 -35 -21q-10 -10 -10 -16q0 -10 -6 -23q-6 -10 -7 -49q0 -8 1 -30.5t4 -30.5q0 -25 4 -37q6 -8 0 -20q-6 -10 -7 -29q0 -23 7 -31q6 -16 6 -82q0 -70 -6 -84t-4 -30q0 -18 4 -23q2 -2 4 -12.5t4 -16.5q4 -16 7 -20 t17 -12q20 -10 27 -11q2 0 14 9q6 6 23 6q12 0 20 -4q8 -6 80 -9h35q39 0 47 2q4 2 35 -2q27 -2 43 9q20 8 29 6q6 -2 39 -2q10 0 22 1l12 1q6 6 11 12q2 8 20 6q16 -2 41 8q27 12 31 23q6 12 16 12q12 4 33 25q18 16 31 41q2 6 16 34q8 16 6 29q-2 12 6 25q10 12 11 51v22 q0 18 -9 37q-8 16 -8 35q0 12 -6 24.5t-6 14.5q0 8 -6 14.5t-11 16.5q0 10 -10 14q-12 8 -20 23q-14 18 -35 30q-23 8 -33 21q-8 8 -12 8t-19 10q-10 8 -28 8q-16 0 -29 7q-8 6 -35 6q-23 0 -32 8q-12 6 -43 6q-18 -2 -48 -2q-6 0 -24 -6q-6 -6 -45 -6q-37 0 -43 8z M530 1368q-29 8 -53 8h-14q-12 0 -25 -6q-6 -8 -12 -8t-6 -8q-4 -12 -12 -21q-6 -14 -7 -28v-19q0 -35 7 -47q6 -12 8 -119q0 -109 -6 -121q-6 -16 -7 -43q0 -27 4.5 -35t8.5 -32q2 -23 12 -33q8 -6 51 -8q23 -2 47 -2h14q13 0 29.5 1t42 1h50.5q123 0 135 6q6 6 43 6 q27 0 34 3t25 26q29 27 45 31q20 6 25 20q4 16 18 35l21 20l10 11q4 4 4 18q0 10 4 23q4 8 4 63q2 29 2 37q0 18 -8 29q-10 10 -10 22q0 14 -6 25q-6 12 -19 24q-10 10 -10 15q0 6 -14.5 20t-18.5 14q-2 0 -6 9q-4 10 -14 10t-15 4q-6 6 -26 16q-20 12 -56 15q-33 2 -43 8 q-8 6 -49 6q-37 0 -55 8q-10 6 -25 6q-8 0 -26 -2q-31 0 -43 -6q-18 -6 -23 -6q-12 -4 -35 4zM586 1499h32q49 -6 50 -6q23 -6 28 -2q12 4 37 4q55 0 88 -2q61 -2 70 -8q6 -4 18 -4q10 4 33 0q23 -6 31 -17q8 -12 16 -12q8 4 15 -6q10 -10 22 -10t21 -4q4 -6 12 -7 q6 0 47 -36q29 -29 37 -38.5t16 -31.5q12 -31 21 -37l10 -6q2 0 2 -14q0 -16 6 -29q8 -12 10 -39q0 -23 9 -33q6 -10 4 -20q0 -10 -9 -23q-6 -8 -6 -45q0 -33 -8 -41t-8 -20l-8 -25q-4 -8 -4 -14q0 -8 -9 -12q-6 -6 -6 -11q0 -4 -14 -22q-10 -20 -29 -27q-18 -10 -30 -24 q-16 -16 -23 -17q-8 0 -18 -6q-12 -8 -17 -8q-8 0 -14 -10q-8 -12 -19 -23q-10 -6 -10 -16q0 -6 8 -23q12 -16 15 -18q6 -6 20 -6q10 0 31 -9q14 -10 22.5 -10t32.5 -20q14 -12 39 -31q18 -10 25 -27q8 -18 18 -22q8 -6 8 -13q-4 -10 15 -22q14 -12 14 -21q0 -8 6 -14 q6 -12 6 -20q0 -16 6 -25q8 -12 9 -20q0 -12 6 -25q8 -16 8 -29q0 -14 -4 -26q-4 -14 -8 -49q-2 -41 -13 -58q-8 -16 -8 -28.5t-4 -24.5q-10 -16 -12 -16q-6 -12 -6 -13q0 -8 -11 -28q-12 -20 -18 -27q-2 0 -9 -7l-19.5 -19.5t-22.5 -20.5q-29 -31 -37 -36t-19 -5 q-16 0 -24 -8q-16 -10 -21 -13q-8 0 -20 -8q-8 -8 -16.5 -8t-20.5 -4q-12 -6 -41 -4q-31 2 -45 -6q-18 -10 -39 -8q-20 0 -24 4q-10 0 -17 -2q-8 -4 -18 -13q-4 -8 -10 -8h-3q-4 4 -63 4q-31 2 -70 2q-12 0 -37 4q-25 2 -38 0q-16 -4 -31 2q-25 6 -41 7q-27 2 -35 -7 q-8 -6 -92 -8q-86 0 -98 6q-14 6 -31 21q-10 8 -12 13t0 22q0 25 -8.5 37t-8.5 16q0 6 10 16q8 12 9 54v45q0 8 -6 12q-2 0 -6.5 3t-6.5 5q-6 4 -6 10q0 2 2 11q6 25 6 79q0 14 1 48t3 41q0 25 7 36q8 12 6 41q0 8 -1 34t-1 36v70v36q0 2 -1 9.5t-1 11.5v68q2 33 2 98 q-2 25 -2 61q0 6 -1 18.5t-1 14.5q-4 14 0 55q6 74 6 80v49q0 43 -2 88v39t-1 34t-1 15q0 29 2 52q0 43 8 61q2 2 6 10.5t6 10.5t8 3t8 1q16 0 29 6q16 8 148 8q129 0 133 4z" />
<glyph unicode="C" horiz-adv-x="1433" d="M750 1534q6 2 20 2q12 0 31 -6q20 -8 28 -2q8 4 17 -2q10 -2 31 2q18 6 41 0q20 -8 28 -12q4 -4 29 -9q20 0 29 -4q18 -6 22 -6q10 0 21 -6q4 -6 22 -10q16 0 27 -13q10 -10 14 -10q2 0 14 -8q10 -10 18.5 -10t14.5 -6q4 -2 19 -21q8 -16 22 -27q4 -4 21 -12q4 0 14 -20 q10 -23 20 -29q14 -8 17 -14q4 -4 4 -13q0 -10 10 -20q8 -8 8 -14.5t6 -12.5q8 -12 9 -22q0 -12 6 -23q8 -8 8 -22q-4 -12 4 -21q8 -6 -2 -26q-12 -23 -20 -29q-12 -6 -15 -6q-8 0 -10 -6q-4 -4 -8 -4q-6 0 -12.5 6t-45.5 6h-41l-18 22q-12 20 -12 23q0 6 -6 12q-8 12 -9 23 q0 14 -12 28q-10 18 -14 35t-10 27q-8 8 -17 24q-4 14 -14 25q-8 8 -14.5 8t-20.5 15q-16 12 -23 12q-4 0 -16 8q-6 6 -27 10q-23 4 -30 10q-12 6 -121 7q-80 -2 -95.5 -3t-21.5 -8q-10 -6 -22 -6q-10 0 -39 -14q-29 -12 -33 -12t-21 -9q-10 -10 -18 -10t-20 -6 q-20 -12 -33 -29q-20 -20 -21 -26q-10 -12 -20 -23q-23 -18 -19 -24q6 -6 -10 -19q-14 -18 -16 -26t-12.5 -29t-14.5 -27q-6 -12 -6 -22q0 -8 -8 -29q-10 -16 -8 -29q2 -14 -9 -30q-8 -16 -6 -37q2 -18 -2 -31q-4 -4 -8 -29q-4 -29 -4 -147q0 -121 8 -135q6 -10 8 -45 q0 -33 9 -43q6 -8 2 -23q-2 -14 0 -22q4 -12 4 -16.5t8 -20.5q6 -12 6 -23q0 -2 10 -32q8 -20 15 -27q4 -4 4 -12.5t4 -16.5t18 -22t19 -29q4 -8 24 -25q16 -10 21 -18q0 -8 18 -22q14 -14 19 -15q2 0 6 -8q0 -2 18 -25q18 -18 23 -18q2 0 30 -12q18 -10 30.5 -12.5 t72.5 -2.5h43q35 0 41 -6q8 -8 18 -8q10 -2 33 8q23 8 37 6q16 -2 29 9l16 8q4 0 14 6q16 4 23 4q8 -2 16 10q10 14 29 25q16 10 51 41l31 35q0 2 3 8t3 10l16 33q10 16 10 30q0 16 9 27q10 14 8 22.5t2 18.5q4 8 18 12q10 6 52 7q12 0 31.5 -1.5t23.5 -1.5q25 -6 37 -18 q18 -14 18 -20q4 -4 4 -41q0 -35 -6 -39q-6 -2 -6 -17q0 -14 -14 -28q-14 -18 -15 -25q0 -6 -8 -14q-6 -6 -10 -21q-6 -14 -23 -28q-16 -14 -22 -25q-6 -10 -12 -10q-2 2 -6.5 -2t-6.5 -11q-8 -12 -22 -26q-10 -8 -35 -23q-14 -6 -27 -18q-6 -8 -24 -19q-4 0 -13.5 -3 t-11.5 -3q-8 0 -14 -10q-8 -12 -13 -12q-10 0 -12 -6q-8 -8 -24 -9q-14 0 -23 -4q-2 -6 -20 -4q-20 0 -31 -6q-10 -8 -78 -8q-35 2 -45 2q-23 0 -47 -10q-20 -10 -33 -11q-6 0 -18 3q-31 4 -35 8q-6 6 -41 6q-31 0 -41 6q-8 4 -12 4q-2 0 -17 10q-16 12 -24 21 q-10 10 -25 14q-12 6 -22 6q-8 0 -15 6q-8 4 -12 5q-6 0 -14 8q-4 6 -31 20q-29 16 -45 39q-12 14 -25 27q-2 0 -14 12q-14 14 -21 16q-10 10 -10 17q0 12 -4 16l-6 5t-10 10q-14 6 -21 24l-12 25q-6 6 -6 14q0 6 -8 14q-8 4 -9 17q0 8 -12 16t-12 12q0 8 6 11q4 4 4 10 t-6 12t-6 10q0 2 -12 27q-14 25 -15 35q0 2 -6 26q-8 16 -8 20.5t-8 20.5q-8 18 -8 58q0 31 -1.5 38t-9.5 15t-8 12q0 2 2 6q6 6 0 17q-2 4 -2 6q0 4 8 18q10 14 11 119q0 102 6 115q6 6 6 47t8 59q10 16 10 24.5t8 16.5q6 8 7 23q0 10 12 35q12 20 12 30q0 8 10 19 q8 16 9 22q0 10 12 21q8 6 16 22q4 12 19 27q16 16 22 33q10 14 10 22t9 13q6 6 12 6t33 26q8 8 24.5 22.5t20.5 18.5q6 6 16 13.5t12 9.5q2 0 23 14q14 10 25 10q12 0 20 7q8 4 20 4q10 0 23 8q10 8 39 10q27 0 35 8t22 6q16 -2 28.5 4.5t35.5 10.5q6 2 35 8z" />
<glyph unicode="D" horiz-adv-x="1562" d="M547 1343q-16 6 -49 7q-35 0 -41 -7q-12 -6 -21 -6q-14 0 -26 -6q-18 -10 -25 -20q-10 -10 -11 -21.5t-1 -62.5q0 -72 8 -84q10 -16 6 -35q0 -23 -4 -23q-2 0 -6 -8t-4 -43t8 -45q6 -8 6 -96q0 -66 -1 -78t-7 -22q-8 -12 -8 -27q0 -8 2 -49q2 -33 2 -101q0 -41 8 -53 q6 -10 8 -49v-63v-62v-47q0 -2 -1 -17.5t-1 -38v-42.5q-2 -45 -2 -58q0 -29 10 -39t16.5 -10t14.5 -12q8 -8 16 -8h11q10 2 37 2q10 -2 28 -2q6 2 27 2q8 -2 28 -2q16 0 25 8q8 8 31 8q10 0 47 -2q84 0 102 2q31 4 35 0t21 -4q14 0 26 10q10 10 25 15q10 6 47 6t39 6 q4 2 33 31q27 27 47 39q18 8 34 32q12 20 27 29q6 2 21 20q10 14 10 27q0 10 4 14q4 0 12 21q8 23 21 37q10 16 10 34.5t8 28.5q6 12 4 37q-2 23 6 31q6 8 8.5 53t8.5 53.5t6 83.5q0 74 -6 88q-8 12 -8 66q0 49 -15 80q-16 33 -16 35t-8 34q-4 18 -15 39q-6 6 -6 15 q0 6 -6 12q-8 8 -8 12t-21 33q-23 27 -37 37q-16 12 -16 20l-4 9q-4 0 -23 14q-20 16 -24 16q-2 0 -21 15q-8 8 -36 22q-25 8 -41 8q-10 0 -27 8q-8 8 -26.5 8.5t-47.5 14.5q-31 14 -145 14q-117 0 -129 6zM350 1473q0 2 5 2t10 -2q2 0 17 -1.5t46 -2.5t51 -1q104 0 113 -6 q10 -4 26 -8q6 0 16.5 -1t12.5 -1h94h127q41 -4 54 -6q12 -6 30 -6q16 0 32.5 -8.5t25.5 -16.5q8 -6 20 -2t19 -4q6 -6 26 -14q20 -6 33 -19q10 -10 16 -10q8 0 19 -10l11 -8q11 -9 15 -11q12 -8 35 -30q6 -6 15.5 -16.5t11.5 -12.5l6 -5q6 -5 8 -7q10 -10 19 -15 q8 -4 12 -14l10 -20q2 -4 8 -17q2 -6 4 -8q8 -16 15 -23q6 -2 16 -16q6 -8 6 -20q0 -8 15 -33q8 -14 16 -39q4 -16 10 -23q6 -8 6 -18q0 -6 7 -12q6 -2 6 -25q0 -20 8 -49q4 -27 12 -45t8 -115q2 -53 2 -69q0 -33 -8 -54q-8 -16 -8 -51q0 -33 -8 -41q-8 -10 -6 -37 q0 -27 -6 -39q-6 -6 -7 -24q0 -16 -8 -31q-8 -12 -12 -25q0 -4 -14 -32q-12 -25 -12.5 -29t-4.5 -12q-2 -2 -8 -13q0 -2 -1 -6l-1 -4q0 -6 -12 -18q-10 -12 -15 -31q-6 -14 -39 -49q-43 -43 -55 -53q-20 -25 -37 -31q-12 -6 -28 -19q-6 -8 -23 -16q-12 -4 -18 -4 q-4 0 -25 -8q-8 -6 -45 -25q-31 -14 -49 -12q-20 0 -39 -12q-20 -14 -33 -15q-10 0 -22 -4q-10 -4 -33 0q-25 4 -33 -4t-90 -8q-45 -2 -92 -2q-31 0 -55 2q-14 0 -39 1t-29 1q-12 -2 -68 -2q-43 0 -67 4q-16 2 -33 -8q-20 -10 -25 -10h-8q-6 0 -14 4q-6 6 -33 10 q-25 4 -26 6q-8 8 -15 25q-8 16 -9 29.5t-1 78.5q2 86 10 96q8 14 8 37q-2 27 -8 37q-8 16 -10 53q-2 20 -2 41t2 33q4 31 0 41t0 17q4 8 4 47q0 10 -1 37.5t-3 35.5q0 31 -8 39q-6 4 -6 72q2 68 8 80q8 10 8 67v43l2 23q2 8 -4 22q-8 12 -2 39q4 16 4 54q0 25 -2 90 q0 39 -1 90t-1 53q0 31 2 33q6 10 2 59q0 47 4 60q2 4 12 14q6 6 13 6l5 3q5 3 9 3q8 6 49 6q41 1 45 5z" />
<glyph unicode="E" horiz-adv-x="1378" d="M299 1503h76q51 0 61 -8t29 -8q10 0 37 2q57 2 61 6q8 8 25 8q14 2 24 -2q6 -6 27 -4q18 0 43 4q23 2 35 -4q16 -6 53 -8q45 -2 53 6t37 10h17q12 0 24 -6q10 -10 35 -10q27 0 33 6t19 7t87 1q100 0 105 -4q6 -4 18 -31q12 -29 12 -32q0 -8 -4 -25q-2 -6 -5 -16.5 t-3 -12.5q-2 -8 -18 -16t-41 -8q-43 0 -66 -2h-20.5t-17.5 -1l-7 -1q-4 2 -55 2l-53 4q-31 0 -60 -2q-53 0 -65 -4q-10 -2 -23 2q-10 8 -24 2q-2 0 -22.5 -1t-33.5 -1q-43 2 -53 -4q-10 -8 -45 -9q-35 -2 -47 7q-10 8 -41 8q-33 0 -45 -8q-14 -8 -27 -25q-8 -10 -9 -26.5 t-1 -100.5q0 -27 -1 -55.5t-1 -46.5v-19v-13t1 -34.5t1 -42.5q4 -82 8 -86q2 -2 14.5 -22.5t12.5 -24.5q8 -8 24 -16q16 -10 27.5 -11.5t60.5 -1.5q63 0 72 4q14 14 14 15q6 6 15 10q4 4 16 -4q14 -10 62 -10q35 0 42 2t15 10q10 10 18 6q4 -4 21 -12q10 -4 49 -4q33 4 41 8 q8 6 29 0q18 -6 26 -10q4 -4 17 -9q18 -6 30 -6q10 0 29 6q12 6 18.5 6.5t26.5 -8.5q16 -6 31 -4q8 4 24 0q8 -4 9.5 -5t-0.5 -9q0 -8 -5 -53q-2 -39 -10 -45q-4 -2 -16 -11q-8 -6 -41 -6q-29 0 -45 -8q-14 -6 -76 -8q-55 0 -86 8q-20 8 -66 8q-47 0 -55 -2q-12 -2 -22 -8 q-8 -6 -23 -4q-6 2 -22 2q-8 -4 -25 4q-18 6 -121 6q-80 0 -94 -1t-23 -11q-2 -2 -8 -10t-8 -13q-6 -12 -6 -57v-59v-72q2 -33 2 -70v-59q-2 -27 -2 -90q0 -41 6 -53q2 -4 6 -13.5t4 -11.5q4 -12 17 -18q14 -6 61 2q45 10 64 10q16 0 41 -8q18 -10 51 -10q14 0 63 2 q94 0 105 8l12 6q2 -2 20 2q16 2 39 0q18 -4 29 -8q2 0 12.5 -3t14.5 -3q18 -6 43 -2q12 2 30 2q6 -2 43 -2h31h43q25 0 37 -13q2 -4 11.5 -14t13.5 -14q12 -16 12 -20.5t-8 -12.5q-10 -6 -14.5 -20.5t-16.5 -26.5q-14 -12 -63.5 -12.5t-55.5 -4.5t-33 -8q-25 0 -28 -4 q-4 -2 -6 -2q-4 0 -11 8q-8 8 -28 8q-23 0 -35 -6q-12 -4 -33 -4q-23 0 -22 4q-2 2 -11 6q-8 2 -26 -4q-23 -8 -99 -8q-45 -2 -90 -2q-29 0 -55.5 2t-54.5 2q-2 0 -16.5 -1t-38 -1h-46h-45h-37.5l-12 -2q-14 0 -26 4q-25 4 -35 10q-16 8 -22.5 8.5t-10.5 4.5q-6 12 -6 32 q0 8 -1 22.5t-1 16.5v123q2 59 2 76q0 35 -8 49q-8 20 -7 33q2 8 3 22q0 41 -3 80v92v37v29v18q0 18 -1 48t-1 57v121q0 2 1 14t1 31.5v38.5q0 72 9 84q8 10 4 18q-2 2 -2 21q0 14 -4 22q-6 12 -7 27l-2 18q-2 2 2 12q4 6 5 13q-4 0 -5 104v109v39q4 39 9 43l8 6q2 0 14 8 q10 6 35 10z" />
<glyph unicode="F" horiz-adv-x="1284" d="M291 1499q6 2 10 2h6l144 -4q137 0 147 -6q10 -4 45 -4q31 0 43 6q8 6 21 6q6 0 26 -8q10 -8 29 -8q14 0 31 6q14 8 96 10h90h80q53 -2 63.5 -4t20.5 -12l14 -25q0 -4 4 -37v-20q0 -12 -10 -23q-16 -12 -27 -12q-14 -4 -20 -12q-8 -8 -25 -6q-18 2 -28 10q-10 10 -35 6 q-23 -6 -41 0q-16 4 -19.5 3t-11.5 -9q-10 -8 -26 -8q-8 2 -78 2h-140h-43h-43.5h-31.5q-18 2 -41 2t-37 -2q-35 -2 -47 -13q-16 -12 -28.5 -24t-14.5 -19.5t-2 -35.5q-2 -20 -2 -43v-17q0 -18 1 -47t1 -55q0 -111 -6 -121q-6 -4 -7 -41q0 -33 7 -43q6 -12 6 -16 q0 -10 2 -15q4 -8 16 -8q8 -2 21 -8q6 -6 30 -10q25 -4 37 0q6 4 19 4l69 -4q68 0 80 4q4 2 16 5l11 3q18 0 26 -6q10 -6 56 -4q41 0 49 8q8 4 53 4h61q25 0 51.5 -1t43.5 -1h14q4 -4 8 -19q6 -16 23 -28q18 -14 20 -33q2 -8 3 -17.5t-1 -11.5q0 -10 -8 -18q-10 -10 -18 -10 q-12 -4 -21 -9q-4 -4 -14 -4q-4 4 -113 4q-109 2 -117 9q-12 6 -34 6q-25 4 -37 -6q-8 -10 -47 -11q-10 0 -44 1t-49 1q-16 0 -48.5 -1t-41.5 -1q-41 -4 -43 -6q-4 -4 -16 -4q-10 0 -27 -8q-12 -10 -20 -25q-8 -16 -8 -30v-35q2 -35 2 -62q0 -92 -2 -108v-94v-117 q0 -61 2 -74q0 -35 -2 -41v-28q-2 -10 -2 -25q0 -6 -11 -16q-8 -8 -40.5 -8.5t-47.5 -8.5q-12 -6 -20 -6t-12 4q-2 6 -11 6q-6 0 -14 4q-10 4 -14 13q-6 6 -6 47v69v33v29v104q2 47 2 95v63q-4 61 -4.5 81.5t-6.5 33.5q-6 6 -6 55q0 25 2 102v168q0 2 -1 38t-1 60.5t1 61.5 t1 41q0 61 -2 107v42.5v36.5l-2 15v20v37v41q2 18 10 29q8 6 9 18q0 10 6 16.5t10 6.5t14 10q12 12 13 6q6 0 10 2z" />
<glyph unicode="G" horiz-adv-x="1626" d="M850 1530q0 4 8 4t14 -8q8 -6 70 -8q57 0 69.5 -6.5t43.5 -6.5q39 -4 45 -8q6 -2 14 -10q4 -4 27 -8q27 -6 28 -9q6 -6 19 -10q10 0 16 -6q4 -6 10.5 -6t20.5 -10q12 -8 20 -17q10 -8 15 -20q6 -14 18 -19q16 -8 17 -12q6 -12 8 -18q6 -12 26 -33q18 -20 21 -37 q6 -23 8 -27q10 -31 10 -30q8 -18 4 -29q-8 -12 -22 -16q-18 -4 -62 -9q-20 -2 -26 -2q-18 0 -51 29q-37 37 -45 53q-8 14 -27 37q-25 25 -37 33q-8 8 -39 27q-16 8 -29 8q-10 0 -18 4q-2 0 -14.5 6t-20.5 10q-23 10 -84 10q-33 2 -86 3q-20 0 -37 -5q-10 -6 -39 -2 q-25 2 -34 -4q-20 -8 -27 -8q-20 -8 -29 -16q-14 -10 -24 -11q-12 0 -21 -8q-10 -10 -10 -6q-4 0 -14 -6q-12 -8 -17 -8q-8 0 -12 -4q-4 -2 -12 -15q-6 -10 -19 -12q-14 -4 -18 -12t-14 -12q-10 -10 -11 -15q-2 -6 -8 -18q-2 -2 -9 -12.5t-11 -14.5q-12 -25 -13 -26 q0 -6 -8 -15q-12 -25 -14 -31q-8 -25 -17 -30q-8 -4 -8 -13q0 -2 -6 -20q-8 -16 -14 -35q-6 -31 -6 -41q0 -8 1 -18l1 -10q2 -6 -6 -19q-8 -10 -11 -63q0 -51 -10 -70q-8 -16 -2 -45q6 -33 2 -47q-4 -10 -4 -39q0 -16 8 -37q8 -18 6 -57q-2 -41 6 -52q6 -18 7 -24 q0 -16 6 -23q6 -8 10 -30q0 -16 10 -41q10 -20 29 -39q23 -23 24 -31q6 -10 7 -18q0 -12 12 -21q16 -12 22 -12t21 -10q12 -12 24 -19q14 -8 15 -12q0 -4 18 -27q14 -18 41 -35q16 -8 33 -24q6 -10 13 -11t46 -1q37 0 44.5 -1t11.5 -8q4 -8 10 -9t33 1q37 2 55 -8 q18 -8 31 -4q12 2 18 0q4 -2 68 -2q59 0 71 6q2 0 7 2l18 6l25 6q2 2 22 9l16 8q6 10 15 6q8 -2 41 14q23 10 26.5 14.5t6.5 20.5q2 6 4 26.5t2 24.5q4 37 4 187q0 115 -1 135t-7 28q-10 10 -11 15q-2 2 -22 12q-16 10 -47 10q-14 0 -60 -2q-66 0 -78 -1t-22 -7 q-8 -8 -11 -8t-14 6q-2 0 -11 5t-13 7q-12 8 -12 13q0 4 -11 20q-6 14 -6 19.5t6 21.5q4 12 13 29q6 6 22 10t88 4q76 0 80 -2q14 0 20 2q10 4 15 12q8 8 12 9q6 0 19 -13q10 -10 34 -8q25 4 35 10q16 6 68 6q59 -2 63 -6q6 -6 19 -30q8 -29 8 -41v-27q-2 -6 2 -55 q2 -12 3 -29l1 -18q0 -23 -2 -48q-2 -20 -2 -28q0 -18 10 -39q8 -27 6 -37q0 -4 -10 -25q-8 -14 -6 -61q0 -10 1 -22.5t2 -20.5t1 -10q4 -4 4 -13q0 -6 -4 -10q-2 -2 -6 -35v-79q0 -39 -1 -47.5t-11 -18.5q-12 -12 -17 -12q-6 0 -26 -21q-14 -16 -24.5 -18t-53.5 -2 q-57 0 -74 -8q-12 -8 -51 -11q-29 0 -41 -4q-8 -4 -24.5 -4t-24.5 -8q-6 -6 -22.5 -6t-41.5 -8q-8 -2 -25 -6l-18 -5q-10 -2 -22 -2q-6 2 -6 5.5t-7 7.5q-12 6 -32 6q-20 2 -39 -2q-12 -4 -23 0q-16 6 -39 4q-29 -4 -63 -4q-37 0 -49 8q-10 10 -17 10q-8 0 -24 10 q-20 10 -24.5 14.5t-16.5 4.5q-10 0 -22.5 4t-20.5 4q-10 4 -21 10q-18 12 -30 15q-20 6 -31 18q-8 12 -27 20q-20 8 -24 17q-12 12 -31 24q-18 10 -43 35q-16 20 -16.5 24.5t-8.5 16.5q-12 18 -18 29q-10 25 -10 27q0 8 -11 22q-2 4 -11 14.5t-13 14.5q-10 12 -10 26 q0 12 -9 21q-6 8 -6 14q0 2 -8 19l-16 24q-6 6 -6 15q0 2 -1.5 9t-3.5 11q-2 8 -8 20q-6 18 -6 23q0 20 2 29q0 16 -6 22q-6 12 -6 60q0 49 -8 59q-6 10 -6 59q0 55 -3 62q-2 8 -2 12t5 8q4 4 10 17q4 4 4 55v61l10 31q4 8 10 27q6 10 6 18q0 6 9 31l12 20q6 0 6 15 q6 18 8 26.5t8 26.5q4 8 14.5 18.5t10.5 14.5q0 6 10 12q12 8 13 18q0 12 12 25q10 14 14 25q0 8 12 20q10 6 11 12q0 2 12 19q10 10 18 22q2 6 31 27q27 16 47 37q20 18 31 18q6 0 16 11q4 10 27 16q25 8 27 12q4 4 12 4q10 0 14 6q8 4 15 5q8 0 18 10q8 8 18 8q6 0 19 8 q10 6 27 6q14 0 30 8q14 6 47 9q29 0 58 -4q27 -2 39 2q10 4 14 10z" />
<glyph unicode="H" horiz-adv-x="1619" d="M1282 1509q29 4 31 4q6 -4 10 -8q8 -8 20 -8q8 0 21 -4q8 -2 8 -12q0 -2 6 -15q6 -6 6 -26q0 -6 2.5 -22.5t4.5 -22.5q4 -25 0 -35q-2 -2 -7 -29q0 -6 -1 -18.5t-1 -16.5q0 -14 9 -26q6 -12 6 -107q2 -53 2 -106l-1 -15q-1 -14 -1 -36.5v-42.5t-1 -65.5t-3 -55.5 q0 -33 -4 -41l-7 -25q-2 -14 7 -33q6 -14 8 -155q2 -78 2 -160q-2 -10 -2 -45v-51v-21v-34.5v-38.5q-2 -39 -2 -86q0 -29 2 -50q2 -35 -6 -43q-8 -6 -9 -20q0 -10 -12 -19q-14 -6 -39 -6h-31q-43 0 -52 1t-19 12q-18 18 -19 20q-8 10 -4 21q0 16 -2 24q-6 16 2 35q6 18 2 31 q0 2 -1 11t-1 13q0 18 -10 33q-8 18 -4 47q0 29 6 35q4 4 4 27q4 23 -2 34q-8 16 -8 41q-2 23 4 35q4 8 0 29q-4 20 -4 108q-2 88 -8 97l-15 14q-8 6 -211 8h-219q-76 0 -151 -2h-137q-6 -4 -13 -12q-6 -12 -14 -21q-6 -12 -6 -221v-119q0 -92 6 -108q6 -8 6 -23 q0 -20 2 -32q0 -27 -6 -37t-2 -23q4 -10 0 -33q0 -18 -6 -30q-2 -4 -10 -13q-4 -2 -25 -2q-20 0 -29 -6q-6 -6 -18 -10h-8q-8 0 -23 2q-18 2 -41 25q-16 16 -19 35.5t-3 115.5q0 43 -1 100.5t-1 59.5q0 31 -9 39q-8 10 -8 16q0 2 1 7t2 18.5t1 34.5q0 41 6 53q4 8 9 35 q2 23 -6 34q-6 8 -7 35q0 25 -4 45q-4 8 -4 15.5t4 17.5q4 16 4 37q0 2 -1 33.5t-1 54.5q-2 37 -2 76q0 16 2 28q6 20 2 64q-4 23 -4 51q0 94 2 195q0 186 6 207q6 25 21 38q12 14 18 13q12 0 19 4q18 6 28 8q16 4 25 -2q10 -6 29 -10q16 0 24 -4q8 0 15 -11q6 -12 6 -34 q2 -14 2 -64q0 -10 -1 -41t-1 -45q-2 -27 -2 -59v-178q0 -125 2 -149t12 -42q12 -27 19 -29q6 -6 20 -4q18 4 20 8q8 4 31 5q23 2 31 -7q10 -10 35 -10q29 0 37 6q12 4 26 4q10 0 68 5q41 2 55 2h14q18 -4 29 2q10 4 19 -2q12 -4 14 -5q2 2 141 3q137 2 162 12q25 14 31 22 q8 12 8 21q0 12 8 20q8 10 8 166q0 154 -6 166q-4 10 -8 23q-4 16 -4 26q0 8 4 53v31l2 19q0 10 4 18q6 6 4 21q-2 12 6 32q6 10 13 29q0 10 16 12q4 0 20.5 2t24.5 2z" />
<glyph unicode="I" horiz-adv-x="903" d="M397 1485q16 8 23 8q2 0 10 -4q2 -4 31 -4q25 2 37 -8q14 -10 20 -11q10 0 17 -6q8 -8 8 -28q2 -20 8 -31q6 -6 6 -33q2 -27 -8 -33q-8 -6 -6 -43q4 -37 4 -47q0 -4 -4 -53q0 -14 -2 -33v-18q0 -61 2 -131q0 -125 8 -133.5t8 -26.5q0 -16 -8 -41q-8 -33 -8 -59v-62v-67 q0 -45 -8.5 -57.5t-8.5 -24.5q0 -14 6 -29l9 -25q4 -8 4 -18t-4 -18q-2 -8 2 -21q4 -14 0 -41q-4 -29 -2 -35q2 -4 2 -96q0 -23 -1 -45.5t-1 -36.5v-14q-4 -10 2 -17q4 -8 2 -16q-2 -4 -2 -33q0 -25 -4 -33q-2 -4 -17 -18q-10 -10 -12 -25q0 -12 -6 -18h-8q-8 0 -21.5 -1 t-28.5 -1q-59 4 -63 6q-12 4 -12 10q-2 6 -2 49q0 37 -4 46q-4 4 -9 24q-4 16 -4 41q0 27 6 31q8 6 9 47q2 37 -11 61q-8 16 -8 23q0 4 2 12q4 16 4 20.5t8 32.5q6 23 -2 35q-6 12 -8 80q0 20 1 62.5t1 54.5q2 51 0 59q-6 8 0 15q4 4 8 20q4 10 5 150v53t-1 43.5t-1 30.5v12 v12q0 14 1 31.5t1 46.5v55q0 143 -2 148q-2 2 -3 16q4 12 5 68l4 61q6 6 6 14q2 9 20 17z" />
<glyph unicode="J" horiz-adv-x="1021" d="M780 1503q10 6 17 6h2q4 0 14 -12q12 -8 12 -18l-1 -15q-1 -16 -1 -41.5v-50.5q0 -76 1 -89t7 -23q8 -12 9 -15q0 -2 -3 -5t-3 -5q-6 -2 -11 -21q-2 -14 8 -38q12 -25 13 -29q0 -6 -8 -10q-10 -4 -11 -9q-2 0 -2 -294q0 -293 6 -304q6 -8 7 -26q0 -18 -5 -27 q-4 -4 -8 -45q0 -10 -1 -31.5t-1 -27.5q0 -45 2 -68q2 -41 -4 -47q-10 -10 -16 -33q-8 -29 -15 -41q-10 -20 -16 -26q-8 -12 -8 -17q0 -8 -33 -41q-29 -31 -51 -45q-20 -10 -27 -20q-14 -10 -18 -10q-6 0 -19 -9q-6 -6 -26 -16q-20 -4 -23 -2q-18 0 -30 -2q-27 -4 -35 2 q-12 2 -27 -4q-25 -12 -24 -12h-5.5h-5.5h-6q-8 4 -18 4q-14 0 -21 6q-12 6 -63 6q-49 0 -60 6q-2 6 -14 6q-8 0 -12 6q-4 4 -19 9q-16 4 -22 10t-19 4q-12 0 -32 24q-23 33 -23 35q-10 16 -22 25q-18 18 -23 27q-12 18 -18 22q-8 8 -11 37q0 29 -8 49q-2 18 -14 33 q-8 12 -8 16t16 21q14 12 20.5 14t32.5 4q39 4 43 6q10 6 25 8q18 0 29 -4q14 -8 22 -22q6 -25 6 -29q0 -12 4 -20q4 -2 8 -19q0 -4 9 -20q6 -6 10 -20.5t8 -16.5q6 0 10 -14q4 -12 15 -19q6 -6 26 -10q16 0 27 -12q8 -8 13 -9.5t26 0.5q31 2 39 -6t14 -9t37 -1q43 0 53 8 q16 10 19 10q14 6 28 25q23 23 35 27q10 4 16 16q0 10 7 16q2 2 6 27q4 23 12 39q6 12 6 39q0 16 -2 67q-2 49 -2 113v47v62q0 10 1 39.5t1 42.5q0 10 1 50t1 60v51v76v80q0 109 -1 127t-11 27q-10 10 -6 24q2 8 2 70v59q0 117 8 133q10 16 23 19q10 0 22 8q8 6 47 6 q41 4 47 6z" />
<glyph unicode="K" horiz-adv-x="1505" d="M362 1495q4 2 9.5 2t7.5 -2q4 -2 10 -8t14 -6q10 0 19 -13q10 -10 10 -18l6 -12q6 -12 6 -145.5t7 -145.5q4 -8 2 -14q-4 -4 -4 -43t-5 -43q-4 -8 0 -37t0 -43q-2 -10 9 -21q10 -6 6 -16l-1 -14q-1 -13 -1 -21q2 -29 8 -31q4 -6 16 -6q10 0 21 10q2 2 6 8.5t6 8.5 q6 6 14 6q10 0 24.5 14.5t20.5 14.5q4 0 21 12l24 24q2 2 10.5 7.5t10.5 7.5q12 6 20.5 14t24.5 12q12 4 23 21q12 18 28 26q20 10 33 23q18 25 23 31q8 18 16 20q8 4 14 4q10 0 17 13q14 20 26 24q14 10 15 15q4 6 10 10q10 10 14 10q6 0 18.5 12.5t16.5 12.5q2 0 10 16 l13 25q4 2 20 14q16 8 29 20q23 23 37 35q27 23 32 23q4 2 21 12q10 14 10 18q0 6 8 19q12 12 25 18q16 6 18 21q2 14 19 24q18 14 22 15q6 0 15 6q8 6 22 10q18 0 31 -8q14 -8 19 -8t20 4q8 2 21 6t16 4q14 2 26 0q12 -8 14 -12q2 -6 0 -19q-4 -12 -4 -22q0 -12 -10 -23 q-10 -8 -20 -22q-14 -14 -29 -21l-18 -10q0 -2 -13 -18q-10 -16 -18 -25q-4 -10 -19 -14q-10 -4 -45 -27l-39 -31q-6 -12 -10 -18q-8 -12 -22 -14q-23 -8 -29 -13q-12 -8 -23 -24q-6 -16 -14 -25q-16 -16 -29 -25q-20 -16 -24 -26q-8 -10 -14 -14q-8 -4 -14.5 -4.5 t-18.5 -8.5q-2 -2 -12.5 -9l-16.5 -11q-16 -10 -24 -29q-8 -14 -21 -24q-10 -2 -59 -52q-41 -41 -54 -47q-18 -6 -24 -6q-14 -2 -21 -16q-8 -14 -8 -60q0 -31 2 -39t19 -22q18 -23 22 -23q10 -6 19 -16q20 -20 22 -29q4 -12 17 -20q8 -10 24 -15q12 0 23 -10q12 -12 14 -22 q6 -16 20 -25q14 -8 19 -14q2 -8 16 -13q16 -10 19 -14q8 -8 8 -14q0 -8 6 -17q8 -8 8 -16q0 -6 4 -10q2 0 9.5 -5t11.5 -7q20 -12 37 -21q14 -10 32 -27q14 -14 22.5 -14t12.5 -4t4 -12q0 -10 9 -11q10 -4 36 -28q10 -8 37 -35q6 -12 29 -29q25 -20 25 -24t26 -31 q29 -29 37 -29q12 -2 14 -14q2 -10 21 -27q18 -14 20 -14q6 0 23 -16q6 -4 21.5 -17.5t19.5 -17.5q25 -25 31 -37q10 -14 10 -21q0 -4 6 -10t6 -14q0 -10 -16 -21q-12 -10 -35 -10q-10 -2 -35 -2q-35 0 -59 2q-39 0 -47 -4q-8 0 -19 10q-20 16 -33 21q-20 12 -26 26 q-2 4 -8.5 16.5t-10.5 16.5q-8 12 -10 12t-18 13q-18 14 -19 22q0 6 -10 6q-6 0 -12 9q-8 12 -17 14q-8 2 -16 20q-6 14 -21 21l-14 10q0 4 -22 27q-27 27 -37 28q-12 6 -23 7q-12 0 -14 6q-4 4 -4 12q-4 12 -14.5 22.5t-10.5 18.5q0 2 -16 23q-10 10 -29 22q-18 8 -45 37 q-27 31 -27 33q0 6 -4 12q-4 8 -16 12q-6 2 -25 15q-10 8 -22 28q-4 14 -21 27q-16 12 -22 24q-8 16 -17 25q-10 10 -12 10q-6 0 -22 21q-20 16 -21 24q0 10 -20 27q-23 18 -25 18q-4 0 -12 13q-10 12 -17.5 12t-25.5 23q-14 18 -19.5 21t-23.5 3q-23 0 -33 -6 q-6 -6 -10 -25q-4 -10 -4 -32q0 -10 4 -35q4 -20 -2 -29q-6 -10 -11 -37q-2 -23 5 -35q6 -8 10 -26q4 -20 4 -21l-8 -12q-10 -10 -11 -25q-2 -16 5 -32q8 -16 10 -142v-137v-47v-59q0 -29 -2 -35q-6 -12 -21 -21q-12 -8 -65 -8q-51 0 -60 4q-10 4 -16 15q-8 6 -14 41 q-4 33 0 43q4 6 0 57q0 14 -1 44t-1 36q2 16 2 57q0 29 -9 37q-8 10 -6 29q2 18 -2 28t2 23q6 14 4 16l-4 92v177v96q-2 6 -2 26q0 2 1 27t1 41q2 51 -4 59q-2 4 -2 7.5t2 9.5q6 6 6 43q0 18 -2 71q0 25 -1 52.5t-1 45v19.5q0 33 2 60q0 47 4 51q6 12 9 26q4 29 2 43 q0 23 -9 31q-6 10 -6 17q0 8 6 14q8 12 8.5 16t12.5 21q12 12 35 10q28 0 32 2z" />
<glyph unicode="L" horiz-adv-x="1304" d="M260 1491q2 6 8 6q2 0 11 -2q10 -2 30 -2q23 0 33 2h12q10 0 23 -10q10 -10 10 -25q0 -12 8 -28.5t14.5 -22.5t6.5 -29q0 -20 8 -30q8 -14 8 -35q0 -25 -6 -33q-6 -12 -6 -22.5t4 -26.5q4 -20 6 -23q2 -6 -12 -16q-12 -8 -19 -27q-2 -4 -5 -14t-3 -12q-2 -10 4 -23 q6 -12 6 -28q0 -18 13 -29q10 -10 8 -21q0 -14 4 -18q6 -18 6 -66q2 -37 2 -45q0 -12 -6 -20q-8 -6 -9 -17.5t-1 -68.5q0 -80 6 -86t8 -68q0 -61 -8 -73q-8 -14 -6 -25q4 -16 4 -23q0 -8 8 -20q6 -14 2 -35q-4 -27 -2 -29v-4q2 -14 2 -22q2 -12 2 -43v-119v-61q0 -35 10 -45 q8 -8 15.5 -9.5t36.5 -1.5q39 0 55 9q12 6 164 8q111 0 130 1t29 7q10 8 23 6q16 -4 21 -6q4 -4 43 -8q33 -2 45 -8q8 -8 18 -9q6 0 18 9q12 6 31 6q20 0 31 10q8 8 12 8q6 0 21 -10q18 -8 33.5 -6t29.5 -4q12 -4 12 -8.5t13 -16.5q10 -10 12 -15t2 -28v-16q0 -14 -4 -25 q-4 -12 -8 -12t-6 -6q-4 -6 -19 -15q-16 -8 -24 -8t-15 -8q-4 -4 -6 -4t-6 2t-16 2q-8 -2 -19 4q-12 6 -43 6q-29 2 -39 -4q-8 -8 -12 -8h-4q-6 0 -19 2q-4 0 -15 4t-15 6q-14 6 -47 6h-39h-17q-16 0 -38.5 -1t-57.5 -1h-68q-94 -2 -188 -2h-72h-77q-16 0 -37 10 q-20 8 -25 7q-12 0 -18 4q-10 4 -21 16q-10 12 -8 43t-4 47q-6 12 -2 23q4 12 4 18q0 2 10 27q8 14 8 18t-6 15q-8 12 -8 49v59q-4 29 -6 33q0 2 -6 22q-2 12 4 27q6 14 8 74q0 63 -6 75q-8 12 -8 23q0 8 8 20q6 12 6 39v35q4 8 -8 29q-10 16 -10 24q0 6 8 19q6 10 10 33 q0 23 -6 30q-8 10 -8 84t-6 86q-2 6 -2 11q0 4 4 12q4 12 2 22q0 12 6 19q6 4 6 30.5t-8 45.5q-8 20 -4 34q4 20 10 31q6 14 4 21l-8 16q-8 6 -8 25q0 20 6 32q0 4 2 15.5t4 15.5v62q4 49 4 69q4 25 4 33z" />
<glyph unicode="M" horiz-adv-x="1806" d="M1430 1477q6 6 12 6h4q6 0 18 -8q8 -6 66 -7q55 2 59 -4l1 -5t1 -7q0 -6 4 -18q6 -10 11 -29q2 -16 -7 -27q-8 -8 -10 -37q-2 -25 4 -51q4 -14 9 -88q4 -74 4 -88q-2 -12 4 -31q6 -12 0 -22q-4 -10 -6 -55v-56v-37q0 -31 -5 -43q-2 -12 11 -24q12 -10 12 -17q0 -2 -8 -18 q-8 -10 -9 -32.5t-1 -149.5q0 -129 1 -152.5t7 -32.5q8 -12 4 -53q-4 -39 0 -46t0 -32q-4 -29 -6 -30q-4 -8 -4 -58q-2 -27 -2 -55l1 -12q1 -13 1 -21q4 -29 8 -33q0 -2 3 -8t3 -8q0 -10 -10 -20q-8 -12 -8 -16.5t-13 -16.5q-6 -14 -28 -23q-18 -10 -29 -14q-8 -4 -16 -4h-7 q-14 4 -22 10q-10 10 -17 6q-10 0 -12 6q-4 8 -4 25q0 20 -6 27q-6 8 -6 116q0 111 6 121q6 8 6 31q0 18 -8 24q-6 6 -6 60q2 51 8 57t6 33t4 39q2 8 0 14q-6 4 0 10t6 9q0 4 -6 14q-8 10 -6 25q2 12 -2 24q-6 10 0 23q4 12 4 24q0 18 -8 29q-6 8 -6 22q0 16 6 41q4 33 0 45 q-4 20 -4 146v51.5t1 43.5t1 30v14q-2 6 -2 90q0 82 -4 86t-23 2q-18 0 -31 -4q-6 -4 -4 -16q0 -14 -12 -23q-12 -10 -10 -20q2 -8 -6 -27q-10 -16 -11 -31q0 -6 -6 -24q-8 -16 -8 -25q0 -12 -4 -20q-6 -18 -6 -25q-6 -16 -10 -20q-8 -8 -7 -25q2 -20 -4 -28q-4 -4 -10 -17 q-2 -2 -12 -22q-12 -18 -12 -19q-6 -6 -5 -31q2 -29 -4 -36q-4 -6 -14 -27q-8 -16 -6 -27q2 -12 -6 -18q-10 -4 -13 -29q-4 -27 -10 -33q-2 -4 -4 -9l-2 -5q0 -10 -6 -18q-4 -8 -8 -29q-2 -8 -5 -22.5t-3 -16.5q-4 -10 -13 -27q-4 -12 -4 -30q0 -20 -8 -29q-8 -12 -8 -22 q0 -16 -15 -37q-12 -23 -12 -35t-12 -37q-10 -31 -8 -38t-13 -38q-14 -33 -14 -39t-8 -14q-6 -6 -4 -29q0 -25 -2 -30q-2 -4 -17 -25q-12 -16 -12 -25q0 -10 -8 -22q-6 -10 -6 -23q0 -10 -8 -22q-6 -10 -7 -27q0 -14 -8 -30q0 -2 -4 -13.5t-4 -15.5q-4 -14 -27 -25 q-25 -12 -65 -14q-43 0 -45 2q-6 6 -23 12q-14 8 -18 13.5t-10 19.5q-2 6 -7.5 18.5t-5.5 14.5q-6 12 -4 28q2 12 -3 22.5t-7 29.5q-2 18 -12 28q-8 6 -9 21q0 12 -6 18q-4 8 -4 23q0 16 -12 33q-10 16 -14 36q-10 29 -13 33q-6 10 -2 29q0 23 -6 33l-24 51q-23 45 -25 61 q0 2 -4 15.5t-6 15.5q-6 12 -6 25q-4 20 -5 32q0 16 -6 21q-2 2 -6 20q0 8 -10 25q-6 12 -4 27q2 18 -12 30q-14 14 -17 31q-4 20 -8 25q-2 4 -6 28q0 23 -8.5 31t-8.5 20q0 14 -6 19q-4 12 -4 31q0 20 -6 26q-4 4 -22 41q-18 39 -17 53q2 14 -4 25q-6 4 -10 20 q-2 14 -10 19q-6 6 -7 20q0 14 -6 25q-4 2 -10 18q-6 12 -10 25q-6 14 -10 20q-6 8 -7 23q0 10 -8 27q-6 18 -6 20q0 6 -8 14.5t-23 8.5q-12 0 -18 -6.5t-4 -55.5q2 -29 2 -55q0 -23 -2 -45q0 -31 -6 -56q-8 -14 2 -51q8 -39 4 -49q0 -16 2 -22q6 -10 2 -19q-2 -2 -2 -24 q2 -18 -8 -35q-10 -12 -11 -29q0 -10 9 -22q6 -8 8 -52q2 -43 -4 -51q-6 -6 -10 -20q0 -12 6 -25q8 -14 8 -92q0 -18 -1 -38.5t-1 -34v-15.5q0 -57 2 -117q0 -106 6 -117q8 -10 8 -32q0 -20 -6 -26.5t-6 -27.5q-4 -23 4 -36q6 -14 8 -62q2 -51 -4 -59q-8 -12 -18 -17 q-12 -4 -21 -12q-6 -6 -20 -4q-18 0 -25 -2q-6 -2 -10 -2q-6 0 -12 4q-18 12 -19 12q-8 4 -16 19q-6 12 -4 28q4 20 4 127q-2 111 -8 117q-6 8 -7 33v65v47v50q2 41 9 47q6 14 4 24q0 4 -6 29q-6 10 -7 115v53q0 45 7 55q6 18 6 25q0 14 -6 18l-7 12q0 8 7 15q6 12 6 20 q0 18 2 25q6 10 0 39q-10 33 -10 35q-4 4 -5 14q0 2 7 14q6 6 6 19q0 6 -6 24q-6 10 -7 127v66q0 47 5 69q8 20 8 26.5t-8 10.5l-9 8q-2 6 2 15q8 12 35 39q20 20 27.5 23t28.5 5h51q14 2 82 2q29 2 37 3q20 0 32 -11q4 -4 11.5 -10t9.5 -8q10 -6 10 -16.5t6 -18.5 q8 -8 8 -16.5t4 -20.5q6 -12 7 -26q0 -10 10 -27q12 -16 8 -31q-4 -16 2 -22q6 -2 10 -21q0 -14 8 -22q8 -12 9 -23q0 -12 8 -20q2 -2 6 -10.5t6 -10.5q4 -16 4 -26q0 -12 13 -31q10 -14 6 -37q-2 -20 4 -31q6 -6 6 -12q0 -4 10 -14q8 -10 6 -29q-2 -12 6 -27q6 -10 7 -22 q0 -14 8 -23q8 -12 10 -30q0 -18 6 -31q4 -10 2 -12q0 -6 10 -23q10 -25 11 -35q0 -16 12 -26q8 -4 14 -19l6 -24q6 -25 9 -37l12 -37q4 -6 10 -25q6 -25 6 -26q4 -12 15 -39q12 -18 12 -27q0 -2 8 -26.5t8 -61.5q-2 -35 6 -49q8 -16 9 -35q4 -23 10 -29q4 -6 4 -34 q0 -27 14 -39q16 -12 19 -13q4 0 20 13q14 10 13 26q-2 12 4 23q2 2 12 16q4 8 4 19q0 14 12 28q12 20 13 43q0 20 8 31q10 6 10 18q0 10 6 17q8 6 6 18q-2 14 6 23q6 18 7 22l6 25q6 10 10 43q4 37 8 41q4 8 4 22.5t6 18.5q0 2 2 6q10 14 15 25l12 26q-4 4 4 14.5t8 32.5 q0 20 4 25q6 6 11 35q4 31 12 43q8 10 8 22q0 6 8 15q8 6 11 16q6 6 2 27q-2 18 6 28q8 12 8 27q4 14 10 20q6 2 6 12.5t7 16.5q4 4 4 12q0 4 8 13q6 6 8 38q4 29 8 44q8 12 8 28q6 31 9 45q4 25 12 33q4 12 4 20q0 12 10 23q10 8 8 24.5t5 22.5q6 2 10 21q0 10 8 22 q6 6 6 10q-2 2 2 13q6 10 12 12q8 4 25 4q27 6 43 12q29 6 41.5 4.5t22.5 8.5z" />
<glyph unicode="N" horiz-adv-x="1595" d="M262 1497h62q37 0 47 -8q8 -6 32 -6q23 0 39 -8q16 -6 23 -7q4 2 12 0q10 0 21 -18q12 -12 12 -27q0 -10 22 -51q20 -37 21 -47q0 -6 12 -18q8 -8 17 -25q2 -4 7 -11t5 -9q6 -4 6 -9.5t10 -11.5l6 -8q7 -8 9 -12q12 -18 12 -19q6 -6 6 -20q-2 -8 0 -13.5t19 -21.5 q23 -25 22 -35q0 -10 8 -22.5t8 -16.5q0 -2 14.5 -16.5t14.5 -20.5t8 -14q6 -8 6 -29q0 -14 2.5 -19t16.5 -18q18 -18 20 -28q0 -14 17 -27q14 -16 14 -27q0 -16 6 -22l4 -4q8 -8 11 -10q8 -8 8 -13q0 -6 16 -26q18 -29 31 -49q14 -27 14 -39q-2 -4 0 -15v-4q4 -8 15 -14 q12 -4 22 -33q8 -25 23 -39q16 -12 28 -35q12 -25 13 -28q0 -8 6 -11q4 -4 4 -14q0 -8 10 -14q8 -6 8 -15q0 -10 6 -16q6 -4 15 -27q8 -25 14 -30q8 -12 8 -15q0 -4 8 -12q8 -10 4 -14q0 -8 3 -13q4 -4 12 -8q10 -4 12 -16q10 -20 12 -23q6 -6 7 -10q0 -2 12 -26 q16 -25 20 -25q8 -4 25 -4q8 0 27 6q10 8 12 35q4 25 0 47q-2 10 -2 27v110q2 57 2 74q0 33 -6 39q-6 8 0 24t4 31q-2 12 0 21q4 6 4 30q-2 12 -2 129v42t1 35t1 24v10v4q-2 16 -2 27q0 29 -6 38t-6 31q0 20 8 37q6 16 -2 29q-6 14 -2 28q6 16 2 23q-6 8 -9 59q-2 49 -10 58 q-8 6 -6 28q0 2 1 39t1 62q-2 41 -2 53q0 25 10 31q12 6 21 6q12 0 20 4q12 6 33 6q12 2 18 2q8 0 21 -8q4 -2 10 -6t8 -4q6 0 25 -19q16 -14 17 -19t-1 -24q-4 -29 -4 -192v-84q0 -86 2 -94l6 -11q4 0 4.5 -20.5t4.5 -24.5q2 -2 2 -7t-2 -13q0 -14 -9 -23q-8 -6 -8 -69 q0 -61 6 -74q6 -8 7 -19q0 -8 -9 -16q-6 -8 -6 -41q0 -35 6 -41q8 -8 9 -24q0 -12 -9 -19q-6 -4 -6 -18q0 -18 6 -31q8 -16 11 -82q2 -35 2 -45q0 -25 -11 -41q-8 -18 -6 -61v-50v-104q0 -96 -6 -106q-6 -18 -6 -37q-4 -27 -8 -31q-8 -8 -8 -21q-4 -12 -9 -16q-4 -6 -84 -6 q-45 2 -96 2q-12 2 -20 12q-2 4 -27 33q-18 20 -18 33q0 8 -10.5 18t-20.5 35q-8 25 -6 27q0 4 -23 26q-25 25 -24 29q0 6 -11 20q-14 14 -14 29q-6 14 -10 21q-8 8 -18.5 28.5t-14.5 24.5q-2 2 0 8q0 4 -14 27q-12 20 -17 28q0 2 -10 27q-14 25 -22 29q-12 12 -13 20 q0 10 -2 12t-10 7q-6 0 -12 10q-4 8 -4 22q0 16 -11 29q-10 14 -10 18.5t-12 16.5q-10 10 -10 18q0 10 -4 27q-6 18 -25 33q-20 16 -24.5 24t-4.5 22.5t-10 22.5q-12 6 -22 33q-4 6 -10.5 17.5t-6.5 13.5q-6 6 -16 30q-6 16 -21 37q-14 14 -14 25q0 6 -14 20 q-14 10 -18.5 24.5t-10.5 23.5q-4 4 -14 28q-10 23 -23 33q-16 16 -18 25q0 2 -2 10t-2 12q-4 12 -17 25q-10 10 -18 22q-4 12 -4 21q0 14 -13 34q-10 25 -32 43q-18 23 -18.5 25t-6.5 8q-4 4 -4 21q2 16 -8.5 26.5t-24.5 10.5q-16 0 -16 -2q-4 -4 -4 -25q-4 -20 -11 -31 q-6 -8 -6 -53v-131q2 -35 2 -71t-2 -50q0 -10 1 -32.5t1 -28.5q4 -27 8 -35q6 -4 7 -221q0 -215 4 -232q2 -10 -4 -41q-6 -29 -2 -43q6 -12 4 -35q-2 -12 -2 -127q0 -109 -4.5 -116.5t-16.5 -22.5q-10 -10 -31 -12q-6 0 -19 -1t-17 -1h-9q-6 0 -14 4q-2 2 -20 18 q-6 14 -17 19q-6 0 -10 12q-4 8 -4 100q0 27 1 71t1 48q-2 16 -2 275q-2 135 -2 260q0 25 2 37q0 2 1 44t1 70v46.5v37.5l-2 15q-2 4 6 24q10 16 10 29q0 8 -10 18q-8 8 -8 35v133q2 57 2 123q0 6 -1 15.5t-1 11.5q-4 10 14 32.5t43 24.5z" />
<glyph unicode="O" horiz-adv-x="1622" d="M760 1401q-6 -2 -23 -2q-4 0 -12 1t-12 1q-12 4 -13 0q-6 -6 -18 -2q-18 2 -31 -13q-14 -14 -20 -14q-2 0 -8.5 -3t-8.5 -3q-10 -6 -22 -8q-14 -6 -21 -15q-4 -8 -12 -12q-12 -4 -18 -4q-10 0 -14.5 -12t-18.5 -12t-25 -13q-6 -8 -20 -18q-10 -6 -19 -23q-6 -16 -14 -24 t-22 -41q-14 -35 -23 -37q-12 -8 -12 -14q-2 -4 -2 -17q0 -10 -6 -14q-6 -6 -7 -21q0 -16 -6 -24q-8 -10 -10 -37q0 -25 -6 -35q-6 -4 -6 -41q-4 -41 -8 -47l-5 -14l-2 -6q0 -6 -1 -16.5t-1 -20.5q0 -43 2 -52q4 -12 4 -34q0 -31 -2 -45q-4 -25 -6 -27q0 -10 8 -20 q8 -18 9 -50q4 -25 -2 -41q-2 -10 6 -24q10 -16 10 -27q0 -6 8 -31q8 -16 8 -36q0 -14 7 -27q6 -6 6 -14q0 -10 6 -23q2 -4 6 -13t4 -11q2 -4 16 -25q10 -20 11 -23q0 -8 8 -20q10 -14 10 -21q6 -14 14 -18q10 -10 23 -18q10 -10 10 -15q0 -6 19 -20q6 -4 14 -8l6 -7 q10 -6 19 -14l30 -20q14 -4 18.5 -8.5t18.5 -8.5q18 -4 27 -10q18 -6 24 -6q14 0 15 -4q2 -2 16 -2q16 0 16 -4q4 -4 11 -4q2 0 9 -3.5t11 -3.5q16 -8 29 -8q14 0 26 6q10 8 54 11q35 0 51 8q8 6 45 6q31 0 45 8q10 8 29 8q14 0 32 21q18 18 29 18q8 0 12 4q2 4 2 13 q-2 8 19 18q23 10 24 23q4 6 15 16q2 2 26 20q18 18 19 23q0 6 14 20q12 14 13 31q4 18 10 25q6 12 4 20q0 16 2 25q4 10 16.5 22.5t12.5 28.5q4 16 8 31q2 8 12 28q8 16 8 41q0 33 -2 39q-4 14 0 25q2 6 2 55q0 51 2 60v20l-2 16v29q-2 37 -8 45q-6 6 -8 64q0 57 -6 65 q-6 6 -6 31q0 23 -9 41q-10 14 -14 35q-8 23 -14 32q-10 16 -8 29q2 14 -5 16l-4 3q-4 2 -6 4q-6 0 -10 8q0 2 -5 10t-7 12q-8 16 -23 27q-14 14 -12 27q4 12 0 20q0 6 -12 10q-10 6 -15 13q-2 8 -14 12q-10 2 -25 22q-12 20 -16 25q-6 6 -43 8q-33 0 -51 10q-16 10 -23 9 q-10 -4 -20 -2q-12 0 -29 8q-16 6 -29 6h-14q-14 -2 -53 -2h-41zM682 1528q16 4 20 4q4 2 27 -6q20 -6 49 -6q31 0 39 6q12 8 24.5 8t24.5 -8q8 -6 21 -6q12 4 20 0q12 -6 21 0q10 2 33 0q4 -2 45 -9q20 -2 28 -12q6 -8 19 -8q14 0 26 -6q18 -4 27 -12q8 -8 20 -9q8 0 25 -8 q8 -6 31 -14q18 -8 28 -15q8 -8 9 -10q0 -6 34 -37q43 -39 52 -49q12 -12 18 -24q0 -10 14 -21q12 -12 12.5 -20.5t8.5 -20.5l8 -16q0 -4 14 -19q12 -20 19 -32q8 -16 8 -25q0 -6 8 -27q12 -20 17 -28q6 -8 6 -27q0 -16 4 -24q6 -6 14 -29q8 -25 8 -37q0 -2 1 -20.5t1 -30.5 q2 -39 11 -47q6 -8 6 -19q0 -8 -2 -39q0 -12 -1 -48t-1 -50v-59q-4 -8 2 -25q2 -12 2 -16t-4 -15q-6 -14 -11 -47q-4 -41 -4 -49q0 -10 -8 -22q-6 -6 -6 -23q0 -12 -8 -33q-6 -18 -6 -28q2 -4 -15 -25q-14 -16 -14 -29q0 -6 -12 -34q-14 -25 -19 -29q-8 -10 -12 -19 q-12 -18 -14 -20q-8 -4 -9 -14q0 -2 -6 -15q-8 -8 -8 -14q0 -8 -16 -25q-10 -8 -33 -30q-4 -4 -17.5 -18.5t-21.5 -22.5q-25 -25 -33 -25q-6 0 -18 -8q-10 -10 -23 -14q-10 -2 -18 -11q-4 -6 -12 -6q-4 0 -21 -12q-12 -14 -29 -16q-16 -4 -22 -10.5t-21 -4.5q-16 0 -24 -8 q-10 -6 -24.5 -6t-26.5 -8q-12 -6 -23 -6q-16 0 -28.5 -2.5t-28.5 -2.5h-13q-12 0 -31.5 1t-35.5 1q-80 2 -94 9q-16 6 -51 6q-25 -2 -39 2l-9 4q-6 4 -16 9l-18 9q-35 20 -58 21q-27 4 -41 12q-20 8 -22 8t-25 19q-12 12 -33 22q-14 4 -14 11q-4 6 -25 24q-23 18 -24 19 q-4 0 -14 14q-2 4 -8.5 13t-6.5 11q-2 10 -12 19q-8 8 -12 20q-10 16 -15 19q-6 4 -14 18q-2 4 -7 13.5t-7 13.5q-4 12 -21 24q-12 12 -12 24.5t-10 27.5q-8 16 -13 39q-2 18 -12 32q-8 8 -8 13q4 4 -4 16q-4 14 0 27q4 16 4 24q0 10 -10 21q-2 2 -9 8l-4 6q-2 8 4 18 q6 12 7 25q0 16 -7 25q-8 14 -8 41v159q2 131 6 138q8 12 9 38q4 33 6 35q6 2 6 19q0 14 8 24q2 2 14 21q6 12 6.5 18t8.5 19q10 12 8 30q-2 14 4 25q4 8 4 14q0 8 8 17l11 10q0 8 16 24q14 23 18 37q0 2 7.5 13.5t11.5 15.5l12 12l6 8l29 29q27 27 33 27q10 0 30 20 q16 20 35 25l29 14q12 8 20.5 8t36.5 9q29 6 37 16q10 10 16 14q12 4 29 4q18 0 29 11q12 10 22 6q11 0 27 4z" />
<glyph unicode="P" horiz-adv-x="1204" d="M551 1376q-8 4 -31 4q-18 0 -31 -6q-10 -8 -51 -8t-45 -4q-6 -6 -6 -19q0 -10 -10 -20q-10 -12 -10 -33q2 -12 2 -45q0 -51 -2 -84t-2 -41q0 -20 10 -26q8 -8 8 -29q0 -35 -2 -47q-4 -27 -10 -33q-6 -12 -6 -18q0 -8 4 -25q6 -18 10 -24q4 -18 2 -31v-51q2 -31 14 -43 q10 -12 23 -13q10 0 31 -8q16 -10 32 -10q14 0 25 10q10 8 39 8h45h41q25 0 33 6q18 6 38 7q29 0 39 8q8 8 12.5 8t16.5 8l25 6q12 0 26 15q4 4 14.5 11t12.5 9q18 12 24 19q14 14 14.5 18t10.5 10q10 4 10 23q0 16 8 28q4 6 9 31q0 16 4 21q6 6 6 14q0 10 6 16q8 12 8 18.5 t-8 18.5q-8 10 -4 17q4 8 4 49q-2 41 -8 51q0 4 -3 10t-3 8q0 4 -8 17q-10 14 -13 22q-4 16 -16 27q-10 14 -31 27l-22 12q-6 6 -19 12q-10 6 -22 6q-2 0 -9.5 3t-11.5 5q-4 4 -22 17q-10 6 -86 8q-84 0 -93 2q-12 4 -22 8zM258 1485q8 8 18.5 10t49.5 2h86q135 0 153 -6 q16 -6 45 -6q33 0 41 6q18 6 41 6h17q14 0 28 -4q18 -10 31 -12q12 -6 45 -11q16 -2 57 -2q29 4 39 -2q10 -2 11 -12q0 -10 4 -14q6 0 10 -13q4 -10 12 -12q12 -4 17 -4q4 -4 8 -12q2 -2 9 -11.5t11 -13.5q10 -14 25 -20q12 -4 24 -17q12 -10 23 -24q6 -12 6 -19 q0 -8 10 -14q8 -4 8 -10q0 -2 7 -15q6 -6 6 -22q4 -16 10 -23q6 -6 4 -20q-2 -12 8 -23q8 -10 8 -53q0 -45 5 -49q2 -4 2 -6q0 -6 -4 -12q-6 -14 -5 -46q0 -35 -6 -55q-4 -14 -12 -31q-8 -8 -8 -12q0 -6 -12 -18q-12 -16 -12.5 -22.5t-8.5 -14.5q-6 -10 -14 -10 q-6 0 -15 -13q-10 -10 -10 -18q0 -10 -10 -16q-4 -4 -21 -17q-14 -4 -14 -10l-18 -19q-16 -12 -23 -12q-4 0 -24 -12q-16 -12 -23 -12q-6 0 -10 -11q-4 -12 -15 -18q-8 -8 -26 -8q-23 0 -31 -10q-10 -10 -24 -7q-8 4 -66 4q-31 -2 -66 -2q-20 0 -36 2q-29 2 -48 -6 q-16 -10 -26 -10q-8 0 -12 8q-6 6 -23 6q-18 0 -29 -6q-18 -6 -39 -6q-31 0 -32 -2q-4 -4 -8 -12q-8 -12 -9 -21q0 -6 -8 -18q-6 -8 -4 -35q0 -8 1 -26.5t1 -24.5q0 -25 -4 -37t4 -29q10 -16 10 -32q0 -39 -2 -72q0 -57 -4 -62q-2 -4 -6 -30q-2 -27 2 -31q6 -10 8 -35 q2 -16 2 -39q0 -20 -2 -35q0 -23 -6 -34q-6 -6 -6 -15q0 -2 -4 -14q-4 -8 -19 -18q-14 -10 -53 -11q-27 0 -35 3t-26 24q-18 18 -21.5 25.5t-5.5 33.5q0 33 -6 41l-12 19q-4 4 -4 8q0 2 2 6q4 8 4 27q0 25 6 39q6 20 2 43q-6 37 -6 49q-4 27 0 37q4 8 2 53q-4 20 -4 51 q0 18 2 37q2 25 2 59q-4 12 -4 39v109v92l2 12v30.5v35.5q2 39 2 78q0 27 -2 49v55v115v114v17v26.5v32.5q0 61 6 68q6 12 10 18q4 12 12 12q11 1 25 15z" />
<glyph unicode="Q" horiz-adv-x="1677" d="M932 1360q-14 10 -21 10l-45 -4q-25 -2 -57 -2h-49q-37 0 -62 -6q-27 -8 -37 -14.5t-22 -6.5t-47 -18q-33 -18 -41 -31q-6 -12 -19 -16q-10 0 -28 -23q-18 -18 -27 -18q-6 0 -14 -12q-6 -10 -10 -25q-6 -23 -9 -23q-2 -4 -8 -14l-6 -6q-12 -6 -8 -16q2 -8 -10 -31 q-14 -23 -15 -27q0 -2 -8 -14q-8 -10 -8 -33q0 -20 -8 -29q-8 -6 -15 -16q-4 -8 -4 -16q0 -14 6 -17q4 -4 5 -10q0 -8 -7 -20q-8 -16 -8 -33q0 -18 -8 -32.5t-6 -22.5v-15q0 -14 1 -36.5t1 -43.5q2 -86 8 -92t6 -53q0 -45 6 -57q6 -8 7 -27q0 -14 10 -31q8 -14 8 -34.5 t14 -36.5q16 -18 15 -33q-4 -14 2 -21q4 -8 24 -28q27 -27 33 -31q8 -6 12 -19q0 -10 13 -18q10 -6 10 -12q0 -4 8 -13q2 -2 9 -8t12 -8q12 -12 16 -12q2 0 18 -12l29 -23q16 -12 29 -18q16 -8 30 -9q18 0 35 -6q10 -4 119 -6q100 0 109 8q10 8 38.5 6t45.5 15q14 16 28 16 q16 0 25 6q8 8 14 6q8 0 10 2q6 0 17 15q8 14 14 14q8 0 14 10q10 10 23 15q20 10 29 18q14 10 18 23q2 2 6 10t6 10q6 10 6 27q0 14 5 18q2 2 2 10q0 2 10 13q12 8 18 24q8 20 8 29q0 12 6.5 22.5t0.5 24.5q-6 12 8 29q14 14 14 47q0 35 6 41q6 8 6 35q0 10 1 26.5t1 18.5 q0 53 -2 94q0 76 -8 84t-6 55q0 45 -10 58q-10 10 -4 22q8 12 2 23q-2 6 -2 20q4 8 -6 21q-10 10 -11 22q0 8 -12 16q-10 8 -20 33q-14 33 -17 35q-8 10 -12 18l-14 29q-10 16 -11 25q0 6 -16 12q-16 8 -29 20q-8 8 -20 25q-8 10 -25 14q-8 2 -28 13q-16 12 -27 12 q-8 4 -21 16q-10 14 -32 15q-21 -2 -37 8zM731 1491q20 8 80 8q57 0 72 -8q10 -6 65 -6q53 -2 64 -10q12 -8 24.5 -8.5t22.5 -6.5q4 -8 12 -8q6 0 16.5 -6t34.5 -6q29 0 33 -6q12 -6 16 -7q6 0 25 -14q14 -16 21 -31q4 -10 16 -18t33 -18q18 -12 57 -48q37 -37 37 -43 q4 -8 12 -20q8 -8 21 -29l8 -24q0 -4 8 -17q6 -10 10 -24q0 -16 8 -21q6 -6 7 -14q0 -10 4 -10q4 -4 18 -33q10 -27 17 -33q2 0 2 -51v-27q0 -25 6 -39q6 -10 8 -84q2 -37 2 -71q0 -18 -2 -35q0 -16 -6 -53q-4 -8 -8 -66q-2 -43 -9 -49q-8 -6 -8 -29q0 -25 -12 -53 q-18 -37 -23 -47q-6 -18 -18 -25q-10 -6 -10 -12q0 -4 -9 -16q-4 -4 -8 -13l-4 -6q0 -6 -4 -22q-6 -16 -12 -19q-10 -2 -12 -18q0 -12 -11 -19q-4 -2 -30 -28q-25 -29 -33 -31q-10 -6 -10 -12q0 -8 -9 -17q-10 -10 -14 -34q-6 -20 -6 -28.5t8 -8.5q8 -4 39 4q23 6 74 10 q47 0 59 4q20 4 31 10q16 4 31 2q12 -4 24 -4q8 0 33 -8q20 -8 26.5 -12t6.5 -10q0 -2 1 -9.5t1 -11.5q0 -14 12 -18t12 -8q0 -6 -6 -13q-4 -8 -8 -12h-39q-33 2 -47 -6q-12 -10 -66 -10h-61h-59h-101h-80q-27 0 -32 -7q-10 -8 -39 -6q-39 4 -45 8q-20 4 -27 3q-12 0 -20 -9 q-12 -8 -21 -8q-6 0 -14 -4q-4 -6 -29 -6q-29 0 -31 -2q-4 0 -10 8q-10 10 -14 10q-8 2 -23 -6q-12 -8 -37 -6h-59q-39 -2 -57 4q-20 8 -41 8q-25 0 -31 6q-10 6 -31 9q-23 4 -24 14q0 8 -9 12q-2 2 -14 2t-18 6q-10 6 -23 7q-14 0 -20 6t-6 10q0 8 -19 18q-12 8 -24 21 q-10 10 -27 16q-23 12 -37 35q-12 25 -27 27q-12 4 -20 14q-4 12 -4 14q2 0 -2 9q-2 6 -8 6q-4 0 -13 8q-12 8 -14 22q-2 8 -8 21q-8 8 -10 16q-6 12 -11 29q0 2 -2 12t-4 15q0 6 -10 22q-8 8 -6 17q0 8 -6 24q-8 20 -15 27q-4 12 -4 28q0 18 -8 32.5t-8 62.5q2 45 -4 49 q-4 4 -4 12t4 12q4 8 4 37q0 33 -8.5 41t-8.5 14q-2 4 9 19q10 12 10 96q0 88 6 101q4 16 4 32q0 18 10 29q8 8 9 22q0 10 8 23q6 6 6 14q0 6 8 19q10 14 10 20q0 4 4 21q2 10 13 24q2 2 9 12.5l11 16.5q14 25 14 29q6 12 17 22q14 14 18 26.5t13 12.5q8 4 16 19 q8 16 20.5 24t12.5 10q0 6 10 17q10 12 27 16q12 2 34 16q20 12 26.5 12.5t6.5 10.5q4 10 19 18q14 10 24 11q8 0 19 10q10 8 36.5 8t34.5 8q10 6 27 6q16 -2 33 9q14 10 26 6q10 -4 35 6z" />
<glyph unicode="R" horiz-adv-x="1445" d="M813 1350q-37 4 -47 4q-16 0 -18 -2q-6 0 -15 -9q-16 -6 -41 -8q-33 -4 -39 4.5t-10 3.5q-2 -2 -16 3q-14 6 -70 6q-57 0 -68 -9q-6 -6 -26 -6q-16 0 -37 -16q-23 -23 -25 -29q-4 -12 0 -26v-23v-123q-2 -117 -8 -127q-6 -16 -8 -35v-14q0 -12 6 -26q8 -16 8 -46 q0 -33 2 -34q0 -6 21 -4q16 0 24 8q6 6 21 6q16 0 24.5 -6t57.5 -6q27 -2 59 -2l23 2h36.5h37.5l18 2q43 0 88 -2q82 0 92 -9q12 -8 23 -8q8 0 24 8q12 8 21 17q8 6 16 6q6 -2 27 20q20 25 32.5 31t18.5 19q4 10 20 16q12 4 17 10q0 16 -2 27q0 23 6 31q6 6 10 26q2 10 2 39 q0 16 -4 57q-2 33 -14 58q-8 12 -21 37q-8 16 -8 18q0 6 -24 27q-27 23 -29 22q-4 0 -8 8q-2 4 -13 15l-30 10l-25 10q-4 4 -39 2t-45 6.5t-45 10.5zM344 1481q12 4 137 4q123 0 131 -6q8 -8 25 -9h43q31 0 39 -8q6 -10 16 -10q8 0 17 8q14 4 34 8q29 6 33 9q10 6 29 0 q25 -10 27 -12.5t18 -8.5h35q27 0 33 6q8 4 18 4t20 -6q12 -8 22.5 -8t16.5 -6q6 -10 13 -14q6 -6 10 -7q2 2 18 -6q16 -10 25 -10q8 0 16 -4q2 -6 13 -6q8 0 30 -23q23 -16 29 -28q12 -12 22 -21q18 -16 19 -27q0 -6 10 -20q10 -6 23 -35q14 -20 18 -45q4 -10 8 -65 q4 -45 8 -50q4 -8 5 -16q0 -6 -13 -35q-12 -25 -12 -30q0 -4 -10 -15q-8 -6 -6 -20q0 -12 -7 -19q-6 -2 -10 -20q-4 -12 -12 -27q-12 -12 -25 -18q-14 -8 -16 -23q-4 -16 -14 -22q-6 -8 -13 -9q-4 0 -20 -8q-16 -6 -27 -6q-8 0 -33 -24q-20 -18 -23 -24.5t-3 -27.5 q0 -25 4 -28.5t14 -3.5t21 -7q8 -4 18 -14q8 -8 12 -8q6 0 17 -10q12 -12 18 -13q6 -2 11 -12q2 -8 12 -18q6 -6 14 -27q4 -18 10 -25q6 -6 9 -40q0 -37 6 -43q6 -12 6 -23q6 -18 10 -25q8 -8 6 -30q-4 -20 -4 -27q-2 -6 8 -20q10 -10 11 -33q0 -10 -2 -43q0 -47 1 -58.5 t9 -23.5q8 -20 6 -31q0 -14 6 -20q8 -6 10 -33q0 -25 4 -41q2 -6 5 -21q2 -6 2 -10q2 -8 2 -12t-4 -8q-4 -6 -15 -6q-10 4 -45 -4q-31 -4 -45 -9q-12 -4 -33 6q-20 12 -22 19q0 4 -6 16q-6 6 -7 27q0 16 -4 37q0 16 -8 28q-6 12 -4 25q6 12 0 29q-2 10 -2 30q4 14 -2 21 q-4 4 -8 33q-4 18 -8 28q-6 6 -7 41q0 6 -1 23.5t-3 21.5q0 8 -4 16.5t-4 20.5q0 10 -8 23q-8 8 -8 22q0 16 -6 23q-6 10 -6 12t-9 14q-8 8 -12 25q-4 16 -22 35q-18 23 -19 31q0 8 -6 10q-2 0 -8 1t-10 1q-12 0 -25 12q-14 14 -25 14q-14 4 -20 0q-10 0 -12 3q-2 2 -11.5 7 t-13.5 7q-23 10 -41 4q-16 -4 -29 -2q-18 6 -20 6q-8 2 -21 -4q-10 -8 -38 -6q-35 4 -46 8q-16 6 -73 6q-33 2 -86 2q-37 0 -49 -2q-23 0 -31 -6q-6 -8 -6 -47q0 -41 -4 -45q-4 -8 -4 -29v-33q0 -10 4 -22q4 -14 4 -51v-39q0 -72 -6 -84q-4 -14 -9 -35q-4 -29 -8 -35 q-8 -8 -8 -16q0 -6 16 -23q14 -14 15 -33v-28q0 -12 -1 -42t-1 -40q-4 -41 -9 -49q-6 -14 -14 -19q-10 -6 -29 -2q-20 4 -30 -4q-12 -6 -29 -6h-8q-12 0 -21 8q-6 6 -18 12q-10 4 -10 9l-2 6v10q0 2 -1 12.5t-2 26.5t-1 29v29.5v25.5l-2 8q-4 4 0 10q4 8 4 17v67 q-2 33 -2 45q0 20 6 29q6 12 6 22.5t-4 30.5q-6 18 -6 37q0 16 6 23q2 2 6 35q0 31 -8 38q-6 8 -6 97q2 86 8 94q4 8 4 14t-6 17q-8 12 -8 18t8 14q6 10 10 29q2 18 -2 35q-2 4 -6 14t-4 12q-4 6 -4 66q2 33 2 68v47q0 41 -8.5 49t-8.5 125q2 117 8 125q4 8 5 20q0 10 -7 21 q-6 8 -6 12q0 2 4 10q2 8 21 27q16 12 20 12l17 8q12 6 24.5 6t16.5 5q6 6 18 6z" />
<glyph unicode="S" horiz-adv-x="1286" d="M563 1546h17q2 0 43 -4q10 0 24 -2h17h8q6 0 18 1t23 1q25 2 32 2q16 0 33 -8q27 -14 27 -16q6 -2 26 -7q20 0 43 -12q25 -14 58 -16q35 -2 51 -15q18 -18 21 -26q2 -10 18 -21q6 -6 25 -18q10 -12 14 -27q2 -6 6 -17t4 -15q4 -12 12.5 -20.5t8.5 -22.5q0 -12 6 -17 q4 -4 4 -18q0 -4 6 -29q10 -14 12 -22q6 -10 2 -21q-6 -8 -6 -18l-2 -9l-53 -4q-49 0 -62 -4q-14 0 -24 6q-12 6 -18.5 6.5t-12.5 14.5q-2 10 -12 20q-8 10 -10 23q0 4 -2 14t-5 15q-2 14 -18 32q-14 14 -27 35q-12 16 -14 16q-4 0 -12 9q-6 6 -17 4q-8 -4 -20 4 q-18 14 -27 16q-10 6 -24 6q-6 0 -25 7q-10 6 -76 8h-90q-27 0 -45 -8q-14 -8 -24 -9q-8 0 -29 -10q-20 -8 -27 -14q-4 -6 -22 -15q-6 -2 -37 -28q-23 -20 -25 -37q-6 -23 -8 -25q-6 -12 -6 -18q-2 -12 -8 -23q-6 -8 -6 -53q0 -39 6 -55q8 -10 4 -21q-2 -8 8 -24 q12 -20 12 -27q0 -8 9 -33q10 -18 20 -24q12 -4 21 -8q10 -4 14 -15q2 -8 14 -12q10 0 33 -14q29 -12 37 -13q10 0 26 -12q20 -12 23 -12q6 0 27 -10q16 -10 34 -11q14 0 35 -8q16 -8 33 -8q12 0 29 -4q16 -6 26.5 -6t20.5 -6q8 -8 20.5 -8.5t18.5 -8.5l18 -12q4 -2 25 -14 q12 -12 26 -19q16 -8 29 -8q12 4 21 -4l16 -8q8 -8 37 -23q16 -10 37 -20q12 -4 16 -7q6 -6 12 -18q8 -16 13 -16q2 -2 7 -4t7 -2q8 0 12 -11q6 -14 25 -28q20 -20 20 -37q0 -14 6 -21q4 -8 4 -22q0 -12 7 -25q8 -12 14 -31q10 -20 10 -67l4 -58q2 -10 -6 -16 q-10 -8 -12 -32.5t-10 -34.5q-6 -12 -4 -23q2 -16 -7 -25q-8 -12 -8 -28q-4 -18 -8 -23q-6 -6 -10 -6l-21 -16q-16 -20 -22 -33q-8 -16 -23 -31q-12 -16 -22 -16q-8 0 -19 -6q-12 -4 -26 -19q-20 -12 -23 -12q-6 0 -22.5 -10.5t-36.5 -14.5q-18 0 -27 -8q-10 -6 -24 -6 q-16 0 -17 -4q0 -6 -8 -8q-8 -4 -55 -4q-45 0 -56 -6q-8 -4 -34 -9q-6 0 -32 -1t-40 -1q-41 0 -62 4q-4 2 -15 4.5t-15 2.5q-14 4 -21 10q-12 8 -18 8q-8 0 -21 8q-10 6 -45 8t-49 16.5t-20.5 14.5t-12.5 6q-4 4 -12 4q-6 0 -31 21q-6 6 -23.5 21.5t-23.5 21.5 q-27 31 -28 35q-12 16 -17 20q-6 10 -10 25q0 6 -10 30q-8 16 -8 37q0 18 -9 25q-6 6 -4 26q2 18 -8 31q-8 8 -8 10q0 4 12 23q16 25 17 27l4 8q4 4 61 4q45 0 54.5 -2t25.5 -17q23 -18 27 -26q6 -6 6 -27q0 -14 4 -39q2 -10 12 -41q10 -16 10 -24q0 -4 6 -11q8 -8 13 -18 q10 -14 22 -22q18 -10 19 -17q6 -6 8 -10q6 -6 20 -6q16 0 33 -10.5t45.5 -14.5t34.5 -10q12 -4 70 -4q27 -2 49 -2t28 2q14 0 27 4q8 6 27 6q14 0 22 4t8 10q0 8 9 11q10 6 24 8q16 0 33 8q14 8 20 16q4 10 15 15q6 2 24 20q16 16 13 23q0 8 6 16q10 10 14 10q6 4 10 15 q6 12 2 22q0 16 7 23q8 10 8 39q-4 35 -6 45q-6 12 -7 26q0 16 -10 33q-8 25 -8 31q0 10 -18 29q-20 16 -37 32q-16 20 -17 25q0 6 -6 10q-10 0 -16 10q-6 4 -25 11q-10 0 -30 12q-18 14 -19 8q-4 0 -24 10q-25 10 -29 8t-14 -2q-8 0 -23 11q-20 8 -25 8q-8 0 -16 8 q-4 2 -10 4l-4 2q-4 0 -15 6q-4 4 -22 4q-16 -2 -21 7q-2 8 -12 8q-6 0 -18 8q-6 4 -21 10q-10 6 -20 0q-8 -2 -15 2q-2 2 -22 15q-16 8 -25 8q-10 0 -20 10q-12 8 -21 8q-6 0 -22 8q-8 4 -21 15q-12 12 -43 24q-33 16 -63 47q-29 29 -29 33q0 6 -10 31q-10 27 -18.5 39 t-4.5 18q0 10 -8 19q-10 10 -10 39q-2 29 -8 45q-8 16 -8 65t4 53q10 4 16 23q10 18 10 37q0 16 10 37q2 2 9.5 13t11.5 15q10 14 10 17q0 4 12 20q16 16 23 33q4 10 25 31q14 14 22 18q6 0 27 10l24 13q2 6 15 6q4 0 22 6l21 14q10 8 28 9q14 0 31 8q14 8 36.5 6t35.5 6 q10 6 20 10z" />
<glyph unicode="T" horiz-adv-x="1335" d="M1204 1501q6 0 13 -2q10 -4 22 0q12 0 21 -6q2 -2 10 -8t10 -10q8 -8 8 -15q0 -8 8 -20q6 -10 7 -21q0 -8 -5 -16q-6 -10 -6 -23q0 -12 -6 -18q-4 -4 -24 -12q-16 -4 -52 -2q-31 4 -39 0q-8 0 -12 -9q-6 -6 -8 -6t-7 4t-7 6q-12 8 -37 9q-8 0 -26.5 -2t-24.5 -4 q-29 -2 -33 2q-8 4 -80 4q-53 -2 -63.5 -3t-14.5 -8q-6 -8 -33 -6q-27 4 -30 0q-4 0 -13 -18q-8 -14 -12 -14q-6 0 -10 -9q-2 -2 -2 -77.5t2 -79.5q4 -10 0 -31q-4 -18 0 -29q4 -8 0 -33q-4 -29 -4 -32v-121v-121v-26q0 -27 1 -71t1 -87q2 -96 2 -191q0 -18 6 -20 q4 -8 4 -13q0 -10 -6 -18q-6 -14 -6 -76q0 -66 8 -78q8 -16 8 -20q0 -33 -2 -61q0 -59 -6 -68q-2 -6 -25 -29q-16 -14 -26 -14h-10q-35 0 -54 2q-29 0 -35 2t-16 14q-12 12 -14 17.5t-2 21.5q0 23 -6 39q-4 16 0 39q6 23 6 74q0 49 4 51l6 16q4 16 4 29q0 16 -6 27 q-8 10 -10 41q0 10 -1 23l-1 14q0 18 2 32q0 25 -9 47q-8 23 -6 41q4 20 8 29q6 8 7 27q0 10 -2 43q-4 61 -5 65q0 6 5 35q4 33 4 59q0 27 -6 37q-6 12 -7 15q-4 4 7 14q6 10 4 35q0 8 -1 21l-1 12q-2 2 -4.5 7t-2.5 7q-6 8 -6 57q0 53 2 58v38q-4 20 -3 25.5t9 13.5t9 17 q0 33 -2 67v30.5t-1 27.5l-1 12q0 8 -9 20q-12 12 -16 13q-6 0 -27 10q-20 10 -57 12q-43 2 -49 -2q-2 -2 -9 -6t-12 -6q-10 -4 -18 4q-6 10 -41 12q-35 0 -51 -8q-16 -10 -47 -8q-35 4 -39 8q-10 6 -80 6q-51 0 -62.5 3t-19.5 20q-10 18 -10 33q0 8 2 26q2 35 10 51 q8 12 25 13q12 0 24 8q8 8 17 8q2 0 8 -3t8 -3q6 -6 63.5 -6t63.5 4q4 4 29 8q23 2 30 -6q10 -6 33 -6h31h78q23 2 37 -6q12 -6 32 -11q14 -2 26.5 6.5t65.5 8.5q61 4 70 6q23 4 27 0q8 -2 94 -6q45 -2 57 -2q31 0 43 10q10 8 29 8q8 0 37 -2q53 0 63 -8q8 -8 19 -8 q8 0 16 8t72 10z" />
<glyph unicode="U" horiz-adv-x="1646" d="M1327 1511q2 0 7 1l5 1q2 0 19 -4q14 -8 18 -14q4 -10 6 -10q6 0 11 -2q6 0 16 -10q10 -16 12 -21q0 -2 1 -11t1 -14q0 -84 -2 -170q0 -160 -4 -163q-4 -2 4 -39q4 -29 4 -35t-2 -10q-4 -12 -4 -90q0 -57 -1 -67.5t-9 -16.5q-8 -8 -4 -19q4 -8 4 -26q0 -20 6 -31 q4 -14 4 -78v-82q0 -150 -6 -156q-6 -12 -6 -26q-4 -20 -10 -35q-6 -12 -6 -27q0 -10 -9 -26q-4 -14 -22 -29q-6 -4 -13.5 -10t-9.5 -6q-4 -2 -2 -25q4 -16 1 -22.5t-19 -22.5q-25 -20 -25 -29q0 -6 -4 -10l-20 -20l-21 -13q-4 0 -14 -10q-14 -14 -28.5 -20.5t-28.5 -20.5 q-10 -10 -15 -10q-6 0 -20 -6q-4 -2 -10.5 -6t-8.5 -4q0 -4 -20 -13q-14 -8 -39 -12q-23 -4 -27 -8q-12 -4 -16 -4t-16 -9q-10 -10 -31 -10q-20 -2 -25 2q-10 6 -28 2q-27 -4 -31 -2q-12 0 -24.5 -6t-35.5 -6q-16 0 -32 -4q-4 -2 -14.5 -2t-22.5 2q-25 2 -35 10q-12 8 -20 8 q-10 0 -18.5 -8t-22.5 -6q-16 0 -27 6q-12 4 -21 4q-12 0 -22 10q-14 8 -22.5 6.5t-14.5 6.5q-10 10 -12 14q-6 6 -17 6q-8 0 -28 23q-25 20 -29 20q-2 0 -31 17q-27 18 -26 24q0 2 -1 8.5t-1 10.5q-2 12 -13 12q-8 0 -20 8q-6 4 -21 10q-10 8 -22 23q-14 18 -14 20 t-12.5 18.5t-12.5 39t-12 30.5q-12 6 -19 21q-2 16 0 24q4 10 0 17q0 4 -8 8q-8 2 -6 30.5t-4 39.5q-6 14 -10 30q-2 16 2 27q2 8 -2.5 26.5t-1.5 57.5q2 20 2 43q-6 12 -11 16q-6 6 -6 23q0 12 4 16q2 0 11 17q6 16 4 32q-4 20 -4 43t-7 33q-6 6 2 27q6 20 2 32.5t-8 12.5 q-4 4 -2 20q2 4 5 15.5t3 15.5q4 8 9 55q0 43 2 48q0 14 -2 24q-4 16 -11 23q-4 8 2 16q8 10 7 39q-2 16 -2 39q0 53 2 102q0 92 -9 105q-8 10 -4 22q4 10 11 21q8 8 8 12t10 14.5t10 16.5q0 8 8 12q10 6 45 6q39 0 48 -10q14 -14 22 -16q10 -4 11 -13.5t1 -60.5 q0 -68 7 -76q6 -6 4 -12l-9 -17q-4 -14 -2 -51q2 -18 2 -38.5t-2 -30.5v-52q2 -14 2 -43q0 -39 -2 -65q0 -51 2 -56q2 -2 7 -26q0 -20 -5 -25q-4 -8 -4 -41q-2 -35 7 -45q6 -10 6 -131q0 -119 4 -135q2 -8 2 -26.5t-2 -43.5q-2 -33 -2 -43q0 -14 6 -22t6 -22.5t8 -22.5 t8 -14.5t9 -18.5q4 -8 4 -14q0 -4 12 -29q16 -29 49 -61q41 -41 49 -43q10 0 19 -9q10 -10 26 -16q20 -8 29 -8q2 0 13.5 -3t15.5 -3q20 -6 61 -11q47 -4 53 -4q14 0 16.5 -2t22.5 2q18 6 76 6q61 2 74 11q4 2 16 14q4 10 12 10q6 2 35 6q18 0 37 7q10 6 25 10q12 8 14 14 q2 8 10 12q6 0 15 5q8 0 18 18q6 14 18 27q10 10 17 28q4 14 8 31q0 10 8 18q12 10 15 27q6 12 6 22.5t10 20.5q10 18 8 47q0 31 8 57q10 25 11 39v177q0 158 -7 174q-6 10 5 30q8 12 14 33q0 16 -8 25q-8 12 -9 34q0 20 4.5 33t-1.5 23q-4 8 -5 24q-2 8 -2 19q0 2 4 43 q6 47 7 51q0 18 -11 31q-10 10 -10 47v78q2 45 12 49q12 4 15 26q4 20 10 27q4 4 18 4q12 -2 17 2q8 8 12 10z" />
<glyph unicode="V" horiz-adv-x="1357" d="M1214 1464q4 0 10 1l5 1q6 0 12 -6q12 -6 45 -4q33 0 49 -4q10 -2 11 -12q0 -10 -5 -19l-8 -16l-12 -25q-8 -18 -6 -26q0 -14 -6 -23q0 -4 -3 -10t-3 -8q-4 -4 -14.5 -4t-14.5 -4q-4 -10 -2 -41q0 -35 -10 -45q-8 -10 -15 -25q-6 -14 -4 -33q2 -18 -4 -24l-5 -11 q-5 -12 -9 -20q-10 -31 -15 -39q-8 -12 -8 -26.5t-14 -29t-14 -20.5q0 -8 -9 -24q-10 -14 -10 -37q0 -16 -6 -27q-8 -12 -8 -16q0 -6 -15 -21q-12 -12 -18 -28q-2 -10 -2 -29q0 -12 -10.5 -22.5t-10.5 -26.5q2 -16 -8 -27q-8 -12 -8 -16q0 -2 -12.5 -14.5t-18.5 -12.5 q-8 -2 -8 -20q-4 -20 -10 -31q-8 -10 -8 -27.5t-6 -27.5q-4 -8 -5 -19q0 -6 -8 -18q-8 -6 -8 -31q0 -23 -8 -31q-6 -8 -8 -30q0 -20 -6 -27q-4 -4 -5 -12q0 -10 -4 -10q-6 -8 -16 -29q-12 -29 -12 -35q0 -10 -15 -35q-14 -25 -12 -39q2 -12 -8 -26l-19 -37q-2 -6 -7 -19.5 t-5 -15.5q-8 -10 -4 -14q0 -6 -2 -13q-10 -14 -16 -16q-10 -6 -13 -18q0 -14 -8 -23q-8 -12 -8 -23q0 -14 -6 -32q-2 -4 -4 -11q-6 -16 -8 -20q-4 -12 -13 -12q-2 -2 -18 -2q-12 0 -25 -4q-4 -2 -8 -2q-10 0 -35 8q-29 10 -63 10q-29 -2 -41 10q-12 14 -13 31q0 12 -8 41 q-2 4 -10 22.5t-12 26.5q-10 23 -21 27q-8 2 -12 10q-4 12 -4 39q2 20 0 26.5t-19 22.5q-18 18 -22 31q-6 12 -10 16q-8 8 -8 55t-9 52q-4 2 -20 18q-14 18 -14 27q-4 12 -15 34q-12 18 -12 29q0 4 -8 12l-9 25q-4 18 -10 25q-6 8 -6 14q0 8 -6 14q-4 8 -4 15q0 8 -10 14 q-8 8 -9 12q0 6 -8 19q-2 10 -10 18l-4 8t-8 13q-8 20 -8 24q0 2 -4.5 18.5t-6.5 28.5q-12 43 -16 45q-4 4 -4 19q0 16 -12 24q-10 6 -17 25l-18 37q-12 18 -13 32q0 6 -6 18.5t-6 27.5q0 20 -6 28q-8 12 -8 23q0 14 -6 22q-4 4 -11 21q0 8 -8 20q-6 10 -14 29q-6 18 -17 29 q-8 8 -8 14q0 4 -8 24.5t-10 24.5q-2 2 -10 25q-4 12 -11 36q-6 12 0 29q4 12 -4 27q-8 12 -16 28q-6 14 -14 23q-10 4 -11 8q-4 4 4 15q8 8 13 8q6 0 14 8q10 8 59 8q55 -4 59.5 -6t12.5 -6l6 -2q4 0 8 -8q0 -6 8.5 -18.5t8.5 -27.5q4 -10 0 -18t12 -22q14 -14 14 -21 q0 -8 11 -22q4 -10 14 -31q6 -25 6 -27q0 -10 8 -31q10 -18 15 -28q6 -12 6 -19q4 -12 8 -16q6 -8 6 -29q-2 -20 17 -37q18 -18 18 -28t8 -27l12 -24q4 -4 5 -17q-2 -8 4 -20q8 -12 8 -19q0 -10 6 -20l10 -21q0 -8 8 -16q8 -12 9 -16q0 -10 4 -15q6 -6 6 -14q0 -10 16 -31 q16 -23 17 -43q0 -16 6 -26q8 -8 8 -29q2 -16 8 -31q0 -2 4 -11t6 -13q10 -20 13 -29q2 -4 7 -15.5t7 -15.5q10 -16 10 -41q4 -23 11 -33q0 -2 3 -8t3 -8q0 -6 6 -12q8 -8 8 -13q0 -8 6 -14q8 -10 10 -22q4 -4 9 -35q0 -20 8 -29q6 -8 6 -14q0 -2 8 -15q8 -6 12 -22 q6 -18 9 -21q4 -10 2 -14q0 -8 6 -16q8 -8 6 -23q-4 -16 2 -24q6 -18 12 -25q4 -8 17 -20q10 -8 30.5 -8.5t28.5 3.5q10 6 23 33q14 27 14 47.5t8 30.5l8 14q-2 4 4 25q12 27 15 27q4 6 10 6q2 0 4 2q4 4 6 4q4 8 4 18q0 4 1 15.5t1 15.5l4 21q2 2 7 26q2 23 14 37 q10 10 10 18q0 6 8 15q10 10 11 18q0 4 8 17q10 10 10 30.5t-4 32.5t4 23q10 10 10 14q0 2 17 22q16 16 14 29q-2 10 4 17q8 16 10 28q2 6 5.5 17.5t3.5 13.5q6 18 10 29q2 10 10 26q4 12 2 15l12 24q12 25 13 29q0 2 1 10t1 12q0 20 10 37q8 20 12 25l10 20q6 14 11 35 q4 23 8 27q6 12 6 20q4 16 10 29q4 12 13 26q8 8 8 25q0 14 16 39q2 4 10.5 17.5t10.5 17.5q4 8 4 37q2 29 14 41q14 14 20.5 32.5t6.5 32.5q0 8 12 29q12 16 22 22z" />
<glyph unicode="W" horiz-adv-x="1734" d="M92 1489q20 2 43 2q14 -4 25 -12q16 -12 30 -27q14 -12 16.5 -17t0.5 -22q-2 -25 2 -37q6 -12 6 -20q0 -2 1 -10.5t1 -12.5q4 -16 12 -22q8 -8 7 -29q-2 -16 6 -35q8 -14 8 -59t12 -72q14 -25 14 -33q0 -6 9 -22q10 -18 10 -43v-51q0 -25 6 -29q8 -8 8 -14q0 -8 4 -13 q4 -10 9 -32q8 -33 10 -39q6 -14 4 -33q0 -25 6 -31q6 -10 6 -20t6 -19q6 -12 6 -24.5t5 -44.5q2 -29 10 -31q6 -4 4 -39q0 -37 8 -45q8 -10 8 -31q0 -20 6 -26q6 -8 6.5 -36t6.5 -38q4 -6 8 -35q0 -20 6 -33q4 -4 8 -24q4 -18 8 -23q4 -8 12.5 -8t20.5 -4t19 4q6 10 12 10 q4 0 14 10.5t10 34.5q-2 20 3 35q4 6 0 25q-4 16 4 20q8 8 8 15q0 12 8 20q6 8 8 57q2 47 8 58q6 10 7 30q0 20 14 35q10 8 11 13.5t-1 31.5q-2 33 6 45q10 14 10 25q0 8 9 24q8 10 8 21q-4 10 6 27q10 20 10 24q0 18 -2 31q-2 25 4 33q8 8 9 28q0 20 8 31q8 10 8 39 q-2 27 6 55q8 20 8 53t8 46q8 16 9 36q0 18 4 27q6 10 8 23q0 12 8 20t6 35q-2 31 4 39q2 4 8.5 14t8.5 14q10 16 10 33q0 10 4 23q6 6 6 18q0 8 6 15q4 2 25 2q20 -2 31 6q12 8 14 8q6 0 14 -8q10 -6 54 -6h20t18 1l7 1q2 2 12 -4q8 -4 8 -15q0 -2 6 -20q8 -14 6 -39 q-2 -20 0 -25.5t11 -15.5q10 -10 14 -31q2 -20 12 -27q8 -6 8 -32q0 -31 7 -39q4 -16 4 -39q0 -27 8 -33q6 -6 14 -22q8 -14 8 -50q0 -37 9 -47q6 -10 6 -34q2 -25 10 -35q6 -8 6 -17q-4 -4 4 -18q2 -4 8 -29q4 -14 11 -16q6 -6 8 -51q0 -31 6 -62q8 -20 14 -24q6 -6 6 -45 q-2 -29 -1 -34t10 -16q10 -14 6 -28q-4 -12 4 -29q8 -14 8 -55q0 -39 8 -47q6 -18 6 -25q0 -16 7 -29q10 -12 14 -22q8 -8 8 -45q2 -39 8 -47q6 -10 6 -31q0 -20 5 -29q2 -8 22 -8q18 0 23 4q4 6 6 19q6 8 10 26q4 16 10 23q6 2 6 14q0 6 9 19q8 8 8 43t6 43q6 6 10 30v41 q0 23 4 29q6 6 6 14q0 6 9 23q8 14 8 26q-2 6 8 25q8 16 6 61q-2 25 -2 31q0 16 8 41q4 8 9.5 21.5t5.5 15.5q2 2 8 23q2 10 -2 18q-4 4 0 14v25q0 12 6 20q8 8 18 29q8 23 8 47q0 27 6.5 39t6.5 49q0 35 6 43q8 8 14 25q4 12 8 57q4 41 11 51q6 10 4 45q-2 27 -1 32t9 13 q8 12 6 15q0 6 6 18q8 10 8 33q0 14 13 43q12 25 22 31q8 6 45 6q35 0 41 -6q4 -4 23 -8q12 -2 14 -6.5t2 -28.5q0 -33 4 -37q4 -6 -6 -19q-10 -10 -10 -24q0 -8 -8 -25q-8 -20 -8 -35q0 -23 -7 -34q-6 -10 -4 -50q2 -27 1 -33.5t-9 -11.5q-10 -8 -10 -22q0 -12 -4 -25 q-6 -6 -6 -20q0 -10 -9 -23q-10 -10 -10 -30q0 -16 -6 -29q-8 -12 -8 -29q0 -20 -6 -28q-6 -18 -6 -27q0 -10 -9 -31q-8 -18 -6 -47q0 -27 -6 -37q-6 -6 -6 -16q0 -4 -6 -23q-8 -16 -8 -20q0 -8 -9 -33q-8 -27 -8 -49q2 -25 -4 -31q-8 -6 -8 -20t-8 -23q-8 -12 -8 -26 q0 -4 1 -15.5t1 -15.5q2 -14 -8.5 -26.5t-8.5 -28.5q2 -12 -2 -35q0 -4 -3 -18.5t-5 -18.5q-2 -2 -6 -12.5t-6 -14.5q-4 -12 -4 -43q0 -35 -9 -43q-6 -12 -4 -30q2 -16 1 -19.5t-11 -11.5q-14 -10 -14 -19q0 -8 -11 -39q-12 -35 -12 -71q0 -39 -6 -45q-2 -2 -4 -13 q-2 -4 -2 -6q0 -12 -10 -22q-4 -4 -31 -21q-14 -10 -25 -10h-6q-12 0 -20 8q-8 6 -62 6q-57 4 -63 7q-10 4 -15 10q-2 4 -2 14q0 8 -10 19q-8 12 -6 22q0 12 -6 25q-8 16 -8 26q0 14 -6 27q-8 10 -9 31q0 25 -6 32q-8 16 -8 37q-4 31 -10 43q-6 14 -6 35q2 12 -4 29 q-8 14 -15 39q-8 29 -8 37q0 12 -6 24q-8 14 -8 45t-4 43l-9 12l-12 17q-8 18 -6 41q2 25 -4 33q-8 12 -10 59q0 41 -7 59q-4 10 -14 25q-8 14 -8 38.5t-4 37.5q0 2 -10 39q-4 33 -11 43q-4 10 -2 30q2 18 -8 29q-8 10 -8 45q-2 41 -6 43q-6 6 -6 14q0 6 -15 35 q-4 10 -10 25.5t-6 17.5q-2 8 -25 17q-18 8 -24 2q-6 -2 -6 -33t-7 -37q-4 -8 -4 -12t-8 -17q-6 -6 -6 -18q0 -8 -8 -21q-6 -10 -6 -41q0 -27 -4 -51q0 -23 -9 -30q-4 -8 -4 -41q0 -35 -8 -45q-8 -6 -8 -33q0 -25 -6 -31q-6 -18 -6 -39q-4 -41 -8.5 -47t-8.5 -51 q0 -33 -6 -39l-6 -19l-8 -24q-2 -2 -8.5 -13.5t-8.5 -15.5q-8 -23 -6 -55q0 -39 -6 -45q-6 -12 -8 -21q0 -12 -4 -20q-4 -10 -8 -33q-10 -33 -11 -35q-6 -18 -6 -37q0 -31 -8 -45q-6 -14 -6 -34q0 -14 -8 -39q-8 -20 -14.5 -32.5t-6.5 -53.5q0 -39 -6 -45q-8 -8 -10 -8.5 t-14 -8.5q-6 -10 -14.5 -10t-8.5 -10q-4 -8 -10 -15q-10 -4 -33 -2q-18 2 -33 -6q-12 -6 -43 -6q-33 0 -51 12q-20 12 -27 25q-10 10 -10 16q0 4 -6 15q-6 6 -10 24q0 16 -8 25q-6 8 -5 47q0 39 -8 49q-8 16 -6 27q0 14 -8 35q-6 14 -6 32q0 16 -8 27q-8 8 -9 33q0 27 -8 35 l-12 24q-4 6 -8 41q-4 31 -8 35q-6 6 -6.5 36.5t-8.5 35.5q-8 6 -6 24q4 20 -2 23q-4 0 -4 10t-4 10q-2 2 0 19q0 16 -8 28q-8 14 -9 35q-2 25 -10 37t-8 24.5t-10 18.5q-8 8 -4 22q2 16 -4 25q-8 14 -7 41q2 31 -8 43q-10 10 -8 34.5t-6 37t-8 26.5q0 12 -6 23 q-8 10 -8.5 34.5t-8.5 34.5q-6 10 -6 26.5t-8 27.5q-8 6 -8 14q-2 4 2 23q2 12 -11 24q-10 10 -8 14q0 6 4 23q2 14 -6 29q-10 12 -8 49q0 35 -14.5 49t-14.5 23q0 10 15 24q12 16 14 21q0 6 8 10l15 2q14 2 24 2z" />
<glyph unicode="X" horiz-adv-x="1296" d="M168 1456q2 2 4 2q4 0 10 -8q12 -8 17 -8q8 0 20 -4q12 -8 19 -15q8 -6 4 -12t4 -12q8 -4 30.5 -26.5t22.5 -29.5q4 -10 18.5 -28.5t18.5 -28.5q8 -16 16 -29q16 -20 18.5 -22t10.5 -18q10 -16 39 -45t37 -48q14 -20 26 -30q20 -12 29 -13q16 -4 23 -12q8 -10 8 -31 q0 -23 12 -47q10 -25 23 -41q12 -12 12 -18q0 -2 8 -10q8 -4 16 -23q6 -12 12.5 -14t35.5 -2q37 0 43 12q8 12 8 20q0 2 6 21q4 10 18.5 16t12.5 19q-2 14 4 20q4 4 8 4q2 0 12 11q8 8 8 16t9 16q6 2 6 13q0 2 22 28q23 23 23 27q0 8 8 16q10 16 16 31q10 14 21 27 q12 8 12 14q0 4 8 25l25 32q12 14 12 23l6 6q4 6 8 10q12 10 27 41q16 33 37 53l39 39q14 10 14 16.5t10 12.5q12 4 19 4q8 0 16 -8q6 -8 43 -8q12 0 29 -2h14q12 -6 21 -21q8 -12 7 -16t-13 -17q-14 -14 -26.5 -30.5t-12.5 -18.5q0 -4 -13 -16q-6 -6 -30 -25 q-18 -10 -19 -16v-12q0 -14 -4 -27q-2 -20 -20 -37q-18 -18 -19 -31q-4 -12 -8 -22q-4 -4 -20 -12q-12 -4 -21 -13q-4 -6 -10 -20t-14 -21q-12 -4 -15 -20q-2 -14 -20 -33q-20 -16 -21 -26q0 -6 -12 -23q-14 -14 -20.5 -14t-12.5 -13q-8 -14 -16 -26q-12 -12 -10 -25v-39 q0 -23 -5 -35q-4 -14 -20 -26q-18 -18 -21 -31q0 -14 -8 -27q-6 -8 -6 -45q-2 -37 4 -45q2 -6 10 -14q6 -6 7 -12q0 -8 14 -23q10 -10 22 -28q4 -14 37 -43q29 -33 33 -43q0 -10 19 -25q14 -18 14 -22.5t16 -16.5l21 -20q2 -8 26 -33q23 -23 23 -29q0 -4 20 -24 q14 -16 33 -46q16 -25 25 -28q6 -2 18 -23q14 -23 29 -41q20 -25 20 -28q0 -8 13 -19q12 -12 12 -22.5t4 -18.5q4 -10 14 -14q6 -4 19 -23q10 -27 10 -30q0 -8 -12 -21q-10 -8 -47 -8q-35 -4 -54 0q-16 0 -22 6q-8 4 -20.5 4t-16.5 4t-12 21q-6 12 -6 22q0 6 -13 15 q-8 2 -22 16q-12 12 -17 12q-6 6 -8 13l-10 14q-4 4 -14 25q-12 20 -15 20l-16 21q-8 16 -14 30q0 6 -15 25q-12 14 -16 22q-10 16 -15 19q-6 6 -18 10q-12 6 -12 14.5t-13 20.5q-16 14 -18 31q-8 18 -18 36q-12 14 -13 27q0 8 -14 16q-14 10 -16 17l-9 18q0 8 -28 31 q-29 20 -37 37q-6 16 -27 37q-14 16 -51 18q-27 2 -33 0t-14 -16q-20 -27 -23 -29q-8 -8 -8 -12q0 -6 -10 -12.5t-18 -26.5q-14 -27 -23 -33q-6 -6 -25 -31q-10 -12 -14 -30q-8 -16 -12 -19q-8 -4 -29 -24q-18 -18 -16 -25q0 -8 -8 -16q-10 -10 -23 -27q-12 -12 -16 -29 q-4 -12 -4 -22q-4 -10 -17 -21q-10 -10 -22 -30q-10 -14 -11 -27q0 -6 -12 -22q-12 -12 -22 -13q-6 0 -16.5 -14t-10.5 -21q0 -8 -6 -18q-8 -12 -33 -37q-20 -25 -41 -39q-14 -10 -57 -10q-47 4 -51 6q-8 8 -25 8q-16 4 -21 6q-4 4 -4 7l13 16q2 4 6 10t4 8q0 4 8 17 q10 14 16 30q12 20 35 37q25 20 35 39q10 20 37 47q8 8 18 21l13 14q2 6 12 10q6 0 16 19q10 20 11 33q0 16 16 32q14 14 23 15q2 0 14 6q4 8 4 20q0 14 20 33q23 23 25 31q8 12 12 14q8 4 8 10q0 8 11 19q12 12 12 16v10q2 2 2 7q0 2 14 20q12 10 17 27q4 12 8 12 q8 8 14 16q6 14 16.5 18.5t16.5 12.5q4 8 20.5 16.5t18.5 18.5q0 4 1 12t1 10q0 14 6 28.5t4 29.5q-4 16 -6 18q-4 4 -4 10.5t-8 14.5q-8 12 -8 20t-8.5 12.5t-22.5 18.5q-12 16 -16 16q-6 0 -21 23q-16 18 -16 33q0 16 -6 18q-2 6 -14.5 6t-20.5 8q-6 8 -6 23q0 4 -2 10v6 q-4 8 -18.5 18.5t-41.5 41.5q-25 29 -24 35q0 4 -13 16q-2 2 -7 12t-7 13q-4 16 -18 26l-19 25q-2 6 -29 37q-25 25 -24.5 28.5t-11.5 20.5q-12 12 -21 35q-8 20 -22 28q-12 10 -13 19q0 4 -4 16q-6 12 -14 21q-10 12 -10 24q4 10 18 17q20 10 29 10q18 4 22 8q8 4 17 4 q10 0 14 4z" />
<glyph unicode="Y" horiz-adv-x="1378" d="M1231 1493q4 6 26 6q18 -4 37 -10q16 -8 39 -8q20 0 25 -4q4 -8 2 -19q0 -12 -12.5 -28.5t-12.5 -20.5q0 -10 -39 -45q-29 -29 -34 -37t-5 -27q0 -23 -6 -28l-16 -8q-6 0 -21 -11q-12 -12 -12 -16t-4 -12q-6 -6 -6 -16.5t-4 -10.5q-2 0 -21 -18q-16 -14 -20 -31 q0 -10 -6 -16q-4 0 -20.5 -16.5t-26.5 -43.5q-12 -29 -24.5 -39t-16.5 -20q0 -12 -13 -25q-2 -4 -11 -15t-13 -16q-10 -16 -30.5 -36.5t-29.5 -36.5q-8 -20 -8 -23q0 -4 -14 -18q-12 -12 -20.5 -12.5t-16.5 -16.5t-16 -22q-10 -6 -11 -15q-4 -12 -10 -24.5t-18 -28.5 q-12 -8 -13 -20q0 -6 -14 -21q-14 -18 -14 -25q0 -8 -8 -16q-6 -8 -6.5 -26.5t-12.5 -28.5q-10 -10 -8 -23l4 -45q0 -37 8 -45q8 -12 8 -16q0 -8 -10 -15q-8 -8 -8 -47q0 -20 2 -94q0 -129 6 -145q6 -10 6 -37t-8 -37q-6 -6 -6 -16q0 -8 -6 -14.5t-10 -6.5l-13 -12 q-6 -10 -14 -10t-14 -7q-8 -6 -29 -6q-18 0 -37 17q-18 14 -22 14q-6 0 -13 10q-4 12 -4 16.5t-6 16.5q-6 6 -6 66q0 57 4 61t4 10q0 2 -8 10q-6 4 -4 15l4 135q0 121 8 139q8 20 8 35q0 18 -8 27q-8 10 -8 47q0 27 -4 34t-25 27q-27 27 -26.5 47.5t-8.5 28.5q-2 8 -26 25 q-20 12 -27 12q-12 0 -18 6q-8 8 -10 20q-4 16 -13 21q-2 2 -13 10t-15 12q-18 16 -19 31q0 20 -20 41q-23 27 -23 29q0 6 -4 10t-10 4q-4 0 -15 6q-6 6 -10 25q-4 25 -10 33q-8 16 -31 39q-20 23 -28 41q-2 4 -6.5 12t-4.5 10q-4 2 -8 16q-4 12 -16 21q-14 10 -15 14 q0 6 -20 31q-20 27 -29 27q-2 2 -10 4t-10 2q-8 2 -15 20q-6 12 -6 25q0 6 -12 18q-12 16 -12 21q0 6 -8 14q-6 6 -7 14q0 10 -14 13q-14 4 -18 10q-4 4 -9 31q0 25 2 28q2 2 21 2q16 0 29 9q8 4 43 8q33 2 55 -15q16 -12 33 -18q10 0 22 -12q10 -10 10 -23q0 -14 17 -24 q10 -12 18 -13q4 0 8 -14q8 -16 17 -25q2 -2 9 -11t9 -13q10 -10 11 -21q0 -8 12 -32l14 -29q6 -6 6 -14q6 -14 21 -25q12 -16 22 -20q6 0 11 -11q2 -4 16 -14q14 -6 29 -29q12 -20 16 -20t8 -21q10 -27 21 -37q14 -10 18 -26q2 -10 12 -25q8 -8 9 -16q0 -4 14 -10.5 t14 -18.5q2 -12 10 -22q10 -10 11 -19q-2 -8 10 -20q14 -10 25 -15q6 0 16 -10q6 -8 16 -6h17q8 -8 12 -16q6 -14 23 -15q12 0 28 4q14 4 17 13q4 8 30 34q6 8 17.5 22.5t13.5 16.5q0 2 6 12.5t8 16.5q6 10 23 27q14 6 14 12q0 2 12 18q14 10 31 48q20 37 23 38l4 9 q4 6 6 10q6 10 16 16q12 6 15 23q6 18 14 22q12 8 12 15q0 8 6 10q2 4 15 10q6 2 16 12q4 8 12 33q4 14 15 35q8 12 8 25q0 14 12 26q8 8 15 21q0 10 8 14q4 4 14 4t12 6l15 15q8 8 12 22q0 10 10 21q12 18 17 26q10 16 18 21q4 4 14 4q9 0 17 8z" />
<glyph unicode="Z" horiz-adv-x="1351" d="M561 1475q10 6 29 6q18 0 31 -4q12 -4 55 -9q39 0 51 5q12 2 25 -3q12 -6 30 -4q14 2 105 2h76q166 0 176 5q16 4 16 6q2 2 21 2q16 0 26 -8.5t21 -30.5q8 -20 8 -28.5t8 -29t8 -26.5t-12 -31q-10 -20 -21 -31q-6 -12 -8 -20q-4 -16 -14 -31q-10 -16 -18 -20 q-2 0 -15 -17q-8 -16 -22 -20q-8 -4 -25 -21q-12 -20 -20 -37q-4 -10 -15 -26q-4 -4 -4 -6q-8 -8 -16 -8t-17 -9q-4 -4 -10 -16q0 -4 -6 -16q-6 -10 -10 -11q-4 -4 -6 -8t-8.5 -14t-8.5 -15q-6 -10 -20 -24q-6 -6 -6 -14.5t-13 -16.5q-10 -6 -10 -14q0 -2 -12 -10 q-12 -2 -17 -13q-4 -8 -18 -18q-10 -8 -21 -23q-4 -12 -14 -18q-12 -4 -16 -14q-12 -12 -19 -17q-12 -4 -12 -16q0 -10 -16 -25q-12 -8 -27 -26q-8 -12 -18 -17l-25 -12q-12 -12 -14 -29q-2 -16 -31 -45q-27 -31 -39 -35q-12 -6 -18 -18q-12 -16 -13 -29q-4 -14 -6 -16 q-4 -4 -8 -4q-2 0 -37 -35q-31 -31 -35 -43q-4 -14 -8 -16q-4 -8 -16 -9q-10 -2 -17 -18q-6 -12 -18 -25q-12 -8 -34.5 -30.5t-22.5 -30.5t-25 -33q-27 -27 -27 -33q0 -8 -16 -20q-12 -12 -14 -18.5t-2 -32.5q-2 -35 6 -39q8 -6 63 -6h31q25 0 33 -6q8 -8 18 -9q12 0 33 11 q23 10 31 14t26 4q10 2 29 -4q14 -8 47 -8q35 0 47 6q10 4 25 0q16 -6 188 -6t184 -6q6 -6 25 -7q16 0 43 11q35 14 41 16q16 2 27 -4q6 -8 18 -14q10 -8 14 -15q4 -12 5 -28q0 -20 -9 -29q-6 -10 -6 -14t-12 -25q-8 -14 -17.5 -16t-54.5 -2q-55 0 -71 8q-12 8 -78 8h-76 h-35q-23 0 -29 -6q-4 -4 -8 -4t-16 4q-10 6 -31 0q-18 -8 -59 -10q-45 0 -49 2t-23 -2q-16 -6 -29 -2q-12 4 -18 4q-4 0 -12 -9q-6 -6 -22.5 -6t-23 6.5t-36.5 6.5q-29 0 -49 -4q-2 -2 -31 -9q-18 0 -27 6q-16 8 -143 9h-68h-33.5h-27.5h-10q-8 0 -20.5 12t-14.5 39 q-4 33 -8 37q-6 14 -13 33q-6 18 -6 22q0 6 10 16q8 8 20.5 24.5t12.5 18.5q0 6 10 21q8 10 13 24q4 8 18 25q14 14 19 14q4 0 8 15q4 14 24 32q6 6 18.5 17.5t14.5 13.5q10 8 29 31q12 14 22 31q2 8 15 20q10 6 10 14q0 10 10 21q4 8 29 33q31 25 35 28q14 10 28 31 q10 16 27 27q12 2 14 18q4 14 43 53q41 41 41 48q0 10 2 16q4 10 21 16q18 8 22 19q6 10 17 16q6 0 20 27q14 25 25 35q12 8 12 16q6 12 12 14q8 8 8.5 12.5t6.5 10.5q6 0 14 12q6 6 23 27q18 14 18 22t10 15q12 8 12 16q2 4 17 14q14 8 18 15q4 8 19 22q2 4 15 16.5 t17 18.5q23 18 23 27q4 6 14 14q14 6 15 14q4 12 8 17q6 6 10 6q2 0 5 3t5 3q2 4 19 16q14 10 14 15q4 8 12 14q10 6 11 14q0 8 10 23q8 16 8 37q-4 20 -8 22q-2 2 -23 10q-23 6 -67 7q-47 2 -58 -7q-10 -6 -120 -6h-117h-121q-127 0 -145 2q-37 4 -41 9q-8 4 -23 -5 q-14 -8 -37 -6q-27 0 -39 6q-12 8 -32 9l-33 8q-12 8 -23 26q-10 20 -6 31q0 10 8 23q14 12 29 18q16 8 29.5 9t79.5 3h96h92h47q35 1 45 5z" />
<glyph unicode="[" horiz-adv-x="798" d="M436 1649q29 4 70 4q49 -2 57 -8q8 -4 15 -5q8 0 24 -16q12 -14 12 -31q-4 -12 -8 -22q-4 -8 -57 -8q-63 0 -72 -2q-20 -4 -24 -9l-11 -1q-10 -1 -18 -1q-20 0 -26.5 -6t-6.5 -8q0 -4 -6 -14q-6 -6 -6 -33q0 -12 2 -57v-89q0 -14 -2 -24q0 -4 -1 -13l-1 -8q0 -2 1 -10 t1 -12q2 -10 2 -37q0 -12 -4 -61.5t-4 -51.5t1 -18t1 -29q2 -29 2 -102v-62v-135v-80q0 -68 6 -86q6 -10 10 -30q2 -8 2 -23v-145q-2 -139 -8 -150q-8 -10 -4 -20q0 -2 2 -6q6 -14 10 -21q8 -20 4 -31q-2 -6 -6 -75q0 -61 -4 -74q0 -12 8 -31q8 -20 2 -41q-6 -16 -6 -21 t8 -16q8 -10 9 -28q0 -12 8 -19q4 -2 22 -2q12 2 23 -2q12 -6 14 -6q8 0 21 -4q14 -6 20 -4q12 6 17 10q10 10 18 10h25q18 0 38 -18q20 -16 21 -21q2 -2 2 -7t-2 -9q-4 -8 -12 -16t-25 -15q-18 -6 -121 -6q-59 -2 -112 -2h-33q-20 2 -25.5 4t-15.5 12q-16 12 -17 19v9 q0 9 -1 23.5t-1 34v44v49v49v44t-1 34t-1 23.5v9l4 43q0 41 -8 64q-10 27 -8 43q4 18 2 24v41q0 33 8 50q8 18 6 22q0 43 -2 84q0 82 -2 88v25q0 12 4 20q4 10 0 41q-2 31 -12 49q-8 12 -8 15.5t6 11.5q8 12 8 20q0 16 -6 25q-4 12 -4 108.5t-4 104.5q-4 12 0 25 q4 8 4 155.5t-6 155.5q-8 12 -8 39q-2 14 -2 18q0 12 8 21q6 6 6 30q0 23 -6 31q-4 8 -4 21q0 14 6 26q8 16 8 47q0 29 4 33q4 6 27 10q29 4 51 2q39 0 51 2q37 7 41 9z" />
<glyph unicode="\" horiz-adv-x="495" d="M-55 1679q2 2 14 2q16 -6 35 -24q23 -23 22 -27q0 -6 4 -10q6 -6 15 -23q10 -16 10 -32q0 -12 8 -21q6 -4 4 -22.5t9 -38.5q12 -20 16 -25q6 -6 6 -41q0 -39 10 -57q12 -23 17 -41l12 -37q4 -20 2 -29q-2 -12 8 -22t8 -23q-4 -14 2 -22q8 -6 8.5 -16.5t12.5 -16.5 q10 -6 10 -12q0 -4 4 -13q8 -8 4 -18q-2 -12 4 -27q4 -14 3 -16q0 -4 4 -8l12 -25q0 -4 3 -13t3 -13q0 -6 6 -13q6 -12 6 -34q2 -31 12.5 -35t14.5 -13l2 -14q2 -14 2 -25q2 -29 10 -36q6 -4 4 -20.5t13 -43.5q16 -31 16 -49q4 -16 12 -39q16 -27 21 -33q12 -12 12 -24 q0 -8 8 -16.5t6 -33t5 -38.5q6 -6 6 -21q-2 -10 8 -20q8 -10 8 -37t8 -39q10 -20 11 -23q0 -8 4 -20q6 -6 6 -22.5t6 -22.5q8 -12 8 -16.5t8 -12.5q10 -6 11 -14q0 -10 8 -17q8 -8 4 -20t6 -35q10 -25 10 -28q0 -10 15 -25q14 -16 14 -27q0 -14 6 -20q8 -8 8 -17 q0 -10 4 -14t8 -20q0 -18 9 -23q8 -2 8 -18.5t6 -24.5q4 -4 14 -29l9 -18q0 -2 -5 -6l-12 -12q-18 -18 -22 -21q-2 0 -23 -6q-23 0 -35 4q-16 8 -20 12q0 4 -4 17q-4 10 -15 22q-12 14 -12 41q-2 27 -12 37q-8 14 -6 25q0 16 -6 20q-6 8 -9 35q0 29 -8 43q-6 12 -4 31 q4 18 -2 18q-2 0 -10 14q-8 18 -13 19q-2 2 -2 10q0 10 -10 27q-8 18 -6 20q-2 12 -8 23q-8 20 -8 34.5t-17 30.5q-16 18 -14 33q0 20 -6 37q-6 14 -6 39q0 18 -7 31q-10 10 -6 30q0 25 2 29q2 12 -14 29q-18 16 -18 26q0 2 -3.5 12.5t-3.5 14.5q-2 4 -14 35q-8 20 -8 28 q0 10 -4 11q-6 6 -12 22q-10 20 -11 47q-2 27 -14 41q-12 20 -14 43q-8 29 -15 35q-6 8 -6 16.5t-4 12.5q-4 2 -4 16t-8 25l-10 20q-4 8 -9 12q-6 6 -6 17q0 14 -6 26q-6 8 -10 31q0 16 -4 25q-4 4 -4 35q-2 31 -17 45q-12 16 -18 28q-6 25 -8 39q-4 29 -11 41q-8 20 -8 31 q0 18 -8 32.5t-8 24.5q2 8 -4 25q-8 12 -8 18q0 8 -13 17q-10 10 -14 24v31q2 16 -12 47q-14 29 -19 41q-2 6 -2 8q0 6 8 14q6 12 11 25q0 2 2 7t4 7z" />
<glyph unicode="]" horiz-adv-x="792" d="M180 1653q8 12 20.5 14t73.5 2q82 -2 105 -12q25 -12 31 -12q6 -2 22 4q12 8 37 6q20 -4 35 -8q8 -6 16 -25q6 -14 4 -31q-4 -20 -2 -22q2 -4 2 -121q-2 -63 -2 -82q0 -33 6 -45q8 -12 9 -25q0 -8 -9 -24q-6 -16 -4 -25q0 -8 8 -12q8 -2 7 -35q-4 -37 -9 -43 q-2 -6 -4 -20q-2 -6 -2 -11q-2 -16 4 -30q8 -14 11 -47q2 -37 -4 -39q-6 0 -7 -9q-4 -8 -4 -34q-2 -27 6 -37q6 -8 7.5 -20.5t1.5 -75.5q0 -84 -4 -93q-6 -4 -7 -24q0 -20 9 -29q6 -12 6 -20q0 -14 -8 -23q-8 -8 -11 -35q-2 -27 8 -45t7 -39q-4 -20 2 -57q4 -37 -2 -49 q-6 -10 -2 -21q2 -4 2 -59q2 -29 2 -102v-64v-100v-49q0 -39 4 -52q6 -8 6 -20t-6 -25q-4 -16 -4 -41q0 -31 2 -32q4 -4 0 -12.5t-8 -20.5q0 -10 -17 -27q-10 -10 -23.5 -12t-82.5 -4h-109q-35 0 -59 2q-31 2 -38 4t-18 12q-12 16 -12 21q0 12 -2 18q-2 12 8 23q10 10 25 14 q12 6 29 10q12 6 24 6q10 0 24.5 -10t20.5 -10q2 0 35 8q25 10 43 10q12 0 15 3.5t12 19.5q12 27 10 43q-2 10 -2 24v58v59q0 43 2 88q0 25 -1 65t-1 44q-4 27 -8 37q-6 10 -7 51q0 43 9 55q10 16 10 31q0 10 -4 27q-4 12 -8 28q-2 20 4 31q8 16 8 29l-6 43q-2 10 -8 57 q0 33 6 39q6 8 6 119v42.5t-1 37t-1 24.5v10q-4 6 -6 11q-8 8 -6 24q0 6 6 37q6 20 0 33q-6 8 -7.5 33.5t-1.5 158.5v232q-2 51 -10 57q-10 6 -20 10q-18 4 -45 2q-18 -2 -47 -2t-50 2q-37 0 -45 8.5t-12 20.5q-6 18 -10 29q-4 14 -4 16t2 6q6 7 18 23z" />
<glyph unicode="^" horiz-adv-x="993" d="M453 1511h36q33 -4 37 -6q6 -6 17 -6q8 0 20 -8t17 -18q8 -10 4 -25q-2 -12 4 -18q10 -10 16 -14.5t6 -26.5q0 -20 15 -39q16 -16 16 -27l2 -8q4 -8 6 -10l8 -25q4 -14 17 -20q10 -6 12 -10.5t-2 -22.5q-2 -23 8 -41q8 -18 6 -23q0 -10 4 -14l7 -14q0 -6 8 -23 q10 -10 10 -20q0 -4 10 -15q12 -12 19 -33q12 -25 14 -24q4 -4 8 -14q6 -18 6 -31q4 -20 17 -33q12 -18 14 -31q0 -10 6 -22t8 -21q0 -10 7 -16q6 -4 6 -16q0 -8 8 -25q12 -16 12 -23q4 -6 0 -16q-4 -8 8 -29q14 -18 14.5 -26t-5.5 -12q-4 -4 -29 -3q-27 0 -33 -2 q-8 -2 -33 0q-27 8 -26 11q-8 10 -10 12q-6 6 -7 33q0 23 -14 37t-20 28q-10 16 -11 39q0 20 -14 33q-14 14 -14 20q0 8 -9 25q-10 16 -10 32.5t-8 30.5q-10 16 -18 23q-8 4 -13 18q-6 12 -4 27q4 14 -2 27q-8 12 -8 26q0 18 -8 29q-8 12 -13 25q-6 8 -10 26q0 14 -8 23 q-10 10 -16 26q-12 31 -15 35q-4 4 -8 12l-4 7q-12 0 -22 -5q-16 -2 -23 -10q-6 -12 -10 -16q-6 -6 -21 -43q-14 -35 -14 -49q0 -12 -8 -25q0 -2 -3 -11t-3 -11q0 -6 -4 -15q-4 -4 -9 -22q-2 -4 -4 -14.5t-2 -12.5q-2 -8 -20 -35q-16 -25 -14.5 -41t-14.5 -49t-16 -47 q-4 -20 -9 -25q-4 -8 -4 -14q0 -8 -10 -14q-8 -12 -8 -14.5t-6 -8.5t-4 -18t-2 -27q-2 -4 -6.5 -9t-4.5 -7q-6 -4 -6 -14.5t-10 -20.5q-6 -10 -23 -18q-10 -8 -32 -9q-25 0 -33 -4q-6 -6 -18 -6q-6 0 -23 8q-12 10 -16 17q0 6 8 22q6 6 16 31q2 6 10 25q6 12 7 22 q0 14 12 27q14 14 14 28q0 12 12 31q14 16 14.5 30.5t6.5 20.5q4 6 10 18.5t8 18.5q8 8 9 31q4 23 12 37l12 24q4 8 4 27q0 16 10 27q10 12 15 20q2 4 7 14.5t7 12.5q10 14 10 24.5t11 24.5q6 10 10 31q4 12 8 20q4 2 10 18q2 4 8 35q4 27 13 35q10 14 14 29q4 20 12 24 q8 6 7 23q0 16 8 22q2 2 8 7.5t8 7.5q8 8 4 14q0 6 2 8q13 6 15 6z" />
<glyph unicode="_" horiz-adv-x="1206" d="M1057 -18q12 8 47 8q37 -2 45 -8q10 -6 22 -7q14 0 17 -14q4 -12 12 -20q6 -8 6 -15q0 -8 -12 -14q-12 -12 -12 -14q0 -6 -11 -11q-8 -6 -34.5 -6t-34.5 -6q-6 -6 -119 -8h-117q-8 0 -14 2q-10 2 -23 -8q-8 -12 -16 -12.5t-22 10.5q-16 10 -46 10q-8 0 -32.5 -1t-32.5 -1 q-31 -4 -41 2q-10 2 -29 -4q-18 -4 -28 0q-8 4 -76 4q-37 -2 -72 -2q-33 0 -65 2h-29.5h-26.5l-10 2l-20 -2h-35q-25 -2 -68 -2q-23 0 -28 -6q-12 -6 -19 -6q-14 -2 -20.5 6t-38.5 8q-29 0 -41 6l-19 12q-6 4 -10 15q0 10 -4 14q-2 4 8 23q8 12 27 18q14 4 16 10q6 6 39 6 t43 9q8 8 47 6q31 -2 47 -8q4 -4 19 -5q16 0 24 7q14 8 27 6q20 -6 33 -13q16 -8 26 -6q8 4 54 4q49 0 55 4q10 8 51 9h29h36.5h34.5q61 -2 72 -11q10 -4 62 -2q45 2 51 7q2 6 35 6q31 0 38 -6q6 -6 89 -7q80 1 94 9z" />
<glyph unicode="`" horiz-adv-x="696" d="M125 1540q0 4 14 0q4 0 11 -1l8 -1q4 0 28 4q25 0 31 -6q12 -8 16 -8q10 0 27 -17q18 -16 23 -28q8 -16 10 -19q6 -6 6 -12q0 -8 12 -20q12 -14 17 -23q0 -2 16 -23q12 -16 10 -18l8 -20q18 -25 23 -29q12 -16 12 -23q0 -4 6 -16q4 -4 12.5 -20.5t8.5 -22.5q0 -10 10 -25 q6 -8 23 -24q10 -10 10 -19q0 -10 8 -18q4 -6 4 -9t-4 -12q-4 -12 -16 -16q-6 -4 -45 -8q-18 -2 -25 -2q-12 0 -29 10q-16 12 -20 12q-2 0 -14 9q-8 12 -11 16l-10 14q-10 14 -18 25q-4 4 -43 53q-18 23 -21 31q-12 18 -20 26q-18 23 -25 27l-24 25l-27 26q-14 14 -27 35 q-12 23 -18 27q-12 8 -21 22q-10 14 -10 25q0 8 10 18q12 14 35 21q25 10 29 14z" />
<glyph unicode="a" horiz-adv-x="960" d="M633 516q-6 8 -15.5 10t-60.5 2q-68 0 -82 -10q-14 -8 -47 -6q-29 2 -39 -4q-12 -8 -24 -14q-20 -8 -29 -9q-12 0 -21 -4q-4 -2 -18 -16q-6 -14 -20.5 -22.5t-14.5 -14.5q0 -2 -6 -14q-6 -8 -6 -15q2 -2 -6 -16q-10 -10 -11 -16v-21q0 -16 -4 -20q-2 -2 -2 -25 q2 -6 3 -22.5t1 -22.5q0 -20 9 -45q18 -31 28 -41q20 -25 29 -33q10 -12 39 -12t37 -8t14 -8q4 0 10 2q16 4 35 4q16 -4 29 4q12 6 28 6q20 4 31 10l12 4q2 0 10.5 4t8.5 11q0 8 10 14q12 4 21 16q2 2 11 12.5t13 14.5q16 16 15 25q0 10 10 26.5t10 38.5q0 18 8 31q4 8 8 41 q2 16 2 78q0 45 -6 51q-4 4 -8 4q-2 0 -12 10zM455 1036h6h6h6q6 -2 68 -2q63 -2 69 -8q18 -6 21 -6q10 0 16 -6q12 -8 17 -8q10 0 18 -13q6 -10 20 -14q12 -6 17 -10q2 -6 16 -21q12 -8 13 -16q0 -4 14 -18.5t14 -22.5q0 -6 10 -21q8 -12 9 -20q0 -2 6 -21q8 -8 8 -36 q0 -14 -2 -56q0 -82 6 -90q6 -10 6 -16q0 -10 -6 -17q-6 -12 -4 -49v-51q0 -53 -2 -149v-72q0 -63 2 -84q2 -4 8 -27q4 -8 4 -51q0 -10 1 -22.5t2 -19.5t1 -9q0 -16 -2 -29q0 -25 -8 -26q-2 0 -39 -11q-35 -8 -57 -6q-29 2 -35 12q-8 8 -8 29q-6 27 -8 31q-2 8 -15 12 q-2 0 -13 1t-17 1q-16 0 -33 -10q-14 -6 -19 -16q-4 -4 -20 -17q-16 -8 -19 -8q-4 0 -12 -12q-10 -10 -18 -11q-4 0 -8 -4q0 -4 -13 -8q-2 -2 -10 -6t-10 -6q-8 -6 -17 -6q-6 0 -16 2q-20 2 -47 2h-27q-25 -2 -32 -2q-18 0 -31 8q-4 2 -33 8q-20 0 -29 8q-4 4 -24 15 q-8 4 -21 16q-4 8 -20.5 20.5t-20.5 22.5t-22 29q-18 23 -27 37q-8 20 -8 22q0 4 -8 21q-8 14 -8 77q0 61 4 70q4 4 8 23q0 16 8 28q6 10 6 17q0 4 8.5 12t8.5 16q-2 8 6 13q12 8 14 16l23 33q12 18 47 37q37 16 43 16q10 0 22 8q10 10 20.5 10t10.5 3q4 4 18 8q18 4 21 10 q12 6 31 6q25 0 32 6q6 6 31 6q20 0 35 9q14 6 90 8q76 0 88 10q10 10 12 20.5t2 63.5q0 72 -8 88l-10 31q0 4 -6 16q-6 4 -6 12q0 10 4 15q4 6 -2 12t-10 6q-2 0 -17 10q-12 12 -16 13l-21 8q-16 6 -24 14q-6 8 -27 8q-20 2 -35 -6q-20 -8 -53 -8q-20 -2 -41 -2 q-2 0 -12 -10q-8 -8 -25 -6q-14 2 -35 -19q-18 -23 -24 -41q-8 -20 -12 -28q-8 -12 -19 -23q-16 -16 -24 -20q-14 -8 -33 -9q-20 4 -31 -2q-14 0 -20 2q-12 4 -17 13q-8 8 -8 26q-2 18 10 39q12 18 8 23v6q2 2 15 10q10 4 10 12q2 10 6 13q2 2 17 2q10 0 34 8q23 8 29 14 t8 15q6 12 10 16q6 8 13 8l18 6l29 15q23 8 41 8q18 -2 35 4q12 8 24.5 8t20.5 4z" />
<glyph unicode="b" horiz-adv-x="1177" d="M631 922q-6 6 -10 6q-6 0 -11 -2q-10 -6 -28 -2q-20 2 -43 -6q-18 -6 -31 -7q-6 0 -19 -6q-8 -6 -22 -6q-16 0 -25 -10q-6 -10 -14 -10q-2 0 -22.5 -16.5t-24.5 -20.5q-4 -2 -21 -23q-12 -20 -12 -22q-4 -12 -10 -25q-4 -12 -16 -37q-8 -16 -5 -20q0 -8 -6 -15 q-8 -10 -8 -47t-8 -47q-6 -12 -8 -88v-84q0 -20 2 -37q0 -16 6 -41q4 -6 8 -28q0 -14 8 -26.5t8 -18.5q0 -8 6.5 -20.5t6.5 -26.5q-4 -12 2 -23q4 -8 8 -8q6 0 18 -12q2 -2 16.5 -14.5t22.5 -18.5q20 -14 31 -25q4 -6 19 -10q8 0 22 -10q4 -8 18 -17q8 -4 31 -4q20 0 31 -6 q8 -4 57 -4q47 0 51 4q12 6 21 8q8 0 25 10q12 6 22 5q12 -2 21 6q10 10 12 10l20 12q16 12 23 13q10 4 18 22q14 23 17 31q12 18 16 22q0 2 6 11.5t8 11.5q6 18 6 24q-2 8 7 23q4 10 8 45q2 29 8 45q6 10 6 117q0 109 -8 129t-8 29q0 12 -6 36q-8 27 -19 56q-10 16 -16 37 q-6 18 -6 20q-4 10 -17 16q-14 8 -18 15q-8 8 -23 14q-16 12 -18 23q-4 12 -12 16q-4 4 -43 2q-37 -2 -47 6q-12 8 -19 8q-10 5 -12 11zM199 1470q16 8 20 8.5t12 -8.5q2 -8 11 -8q4 2 16 -2q10 -6 10 -10t10.5 -14.5t10.5 -80t8 -83.5q8 -16 0 -33q-8 -18 -8 -59 q-2 -43 8 -62q8 -16 0 -41q-10 -20 -10 -41q0 -8 2 -30q0 -45 6 -58q8 -14 16 -18q12 -8 21 -8q10 0 35 8q29 10 49 24q27 18 28 19q4 0 9 4q6 6 30 16q6 2 20.5 6.5t16.5 4.5q4 0 31 10q20 8 22 8q8 0 21 6q16 4 37 4q16 -2 35 2q12 2 32 -6q16 -8 37 -8q2 0 14.5 -1 t18.5 -1q18 -4 23 -8q4 -6 10 -6q10 0 18 -9q20 -10 31 -14q18 -4 37 -18q20 -16 22 -25q4 -10 15 -10q10 -2 37 -29q25 -25 24 -33q2 -8 18.5 -20t18.5 -26.5t10 -22.5q8 -4 12 -15q4 -8 4.5 -30.5t10.5 -38.5q8 -20 8 -33q0 -16 6 -23q8 -6 8 -45q0 -18 -2 -86 q-2 -125 -12 -143q-8 -18 -4 -35q4 -14 0 -33q0 -14 -8 -34q-2 -8 -13 -29q-8 -12 -8 -18.5t-12 -16.5q-10 -14 -14 -24q-4 -14 -13 -27q-6 -14 -16 -19q-8 -4 -8 -8q0 -2 -27 -33q-31 -27 -35 -26q-6 0 -20 -10q-12 -12 -18.5 -12.5t-18.5 -12.5q-16 -12 -18 -12 q-6 0 -21 -10q-16 -12 -31 -13q-20 -6 -30 -10q-12 -6 -82 -8q-66 0 -74 -4q-6 -2 -8 -2q-6 0 -15 10q-12 12 -30 14q-12 0 -31 6q-12 6 -22.5 6.5t-22.5 12.5q-18 12 -31 18q-18 8 -18 13l-2 4q-2 4 -4 4q-2 2 -15 2q-10 0 -22 14q-12 12 -39 14q-20 2 -24.5 0t-8.5 -12 q-6 -14 -10 -30.5t-17 -28.5q-12 -16 -20 -20.5t-29 -4.5q-29 0 -37 2q-18 4 -28 10q-10 10 -15 19q-6 8 -6 174q-2 92 -2 180v94v95q0 59 2 120q0 35 1 89.5t1 60.5q0 41 -4 49q-2 4 -2 10.5t2 10.5q2 6 2 147q-2 74 -2 145v21q2 20 2 35q0 12 -1 38.5t-1 34.5q0 39 2 56 q0 31 6 41q4 12 9 16q0 4 14.5 4t28.5 10z" />
<glyph unicode="c" horiz-adv-x="995" d="M500 1034q6 0 16 1t12 1q14 0 27 -6q14 -8 76 -8q47 -2 57 -4t27 -12q23 -14 35 -13q12 0 16 -2l8 -8l2 -2q0 -4 19 -18q20 -12 22 -13q4 0 17 -12q10 -10 22 -18t14 -21q0 -10 13 -22q10 -6 16 -27q4 -18 12 -31q6 -10 4 -53q-2 -33 -4 -39t-16 -14q-16 -10 -55 -12.5 t-52 4.5q-6 2 -16 12q-4 12 -4 16q0 6 -14 25q-12 20 -13 26q0 8 -4 21q-6 12 -14 24q-10 14 -10 19q0 8 -17 12q-18 8 -28 23q-12 16 -31 18q-12 2 -23 8q-12 6 -30 6q-25 4 -29 9q-6 6 -27 4q-16 0 -41 -13q-35 -10 -41 -10q-16 0 -30 -8q-4 -4 -23 -12q-10 -4 -12 -15 q-6 -12 -16 -14q-8 0 -25 -16q-14 -18 -14 -25q0 -6 -7 -12q-6 -4 -6 -12q0 -10 -8 -19q-8 -12 -8 -24q0 -16 -6 -23q-6 -8 -8 -35q0 -33 -6.5 -48t-6.5 -58v-56v-79q0 -63 9 -78q6 -10 6 -35q0 -27 8 -35q6 -18 8 -29q0 -2 2 -8q2 -14 4 -16q0 -2 6 -13.5t11 -17.5 q4 -8 22 -39q12 -20 19 -20q4 -2 16 -15q6 -10 25 -22q18 -8 20 -6t14 -6q10 -6 25 -11q12 0 20 -8q6 -6 39 -4q10 0 24 1l15 1h29q27 0 39 6q4 0 22 10q2 2 21 15q14 8 33 33q27 31 28 36q4 4 9.5 11.5t5.5 9.5q8 8 8 14q4 10 14 25q14 18 27 26q16 14 32 15q23 0 43 -6 q8 -2 18.5 -4.5t12.5 -2.5q8 -8 10 -14q4 -10 5 -20l-9 -37q-8 -16 -8 -33q0 -20 -10 -27q-10 -4 -23 -22q-12 -12 -12 -23q0 -6 -16 -14q-25 -18 -27 -20q-10 -10 -16 -11q-4 0 -13 -8q-8 -6 -16 -6q-6 0 -18 -16q-14 -16 -27 -17q-14 0 -27 -6q-14 -6 -39 -10 q-31 -4 -34 -6q-6 -2 -82 -6h-84h-23q-14 0 -30 10q-23 8 -25 14q-4 6 -21 6q-16 -2 -20 2q-8 8 -25 15q-20 6 -26 20q-8 12 -19 16q-6 4 -16 15q-6 10 -25 20q-16 12 -20 17q-6 12 -8 18q-4 12 -19 25q-14 14 -18 22q0 10 -8 19q-8 12 -8.5 16t-8.5 12.5t-8 24.5 q2 12 -4 33q-8 20 -8 26q0 10 -6 23q-8 12 -9 20q0 10 -6 17q-6 12 -6 133q-2 66 -2 84q0 43 10 57q8 12 6 35q0 23 4.5 27t8.5 16q0 10 10 25q8 8 6 26q-2 12 6 19q6 6 13 18q8 18 12 18q10 6 16 15q10 10 10.5 20t10.5 21q12 8 14 8t6 10q0 8 13 17l18 12l16 10 q16 12 29 21q41 29 49 28q16 0 23 2q12 4 12 11q2 4 22.5 4t24.5 6q14 8 29 10q16 4 41 10z" />
<glyph unicode="d" horiz-adv-x="1191" d="M639 926q-8 6 -49 6q-16 2 -33.5 2t-26.5 -2q-25 -4 -28 -8q-6 -6 -21 -6q-12 2 -18 -7q-12 -12 -25 -14q-18 -4 -35 -14q-23 -6 -36 -23q-14 -18 -15 -22q-8 -16 -16 -25q-14 -14 -14 -22q0 -2 -9 -19q-10 -10 -10 -22.5t-6 -18.5q-8 -8 -10 -26q0 -10 -6 -35 q-8 -10 -5 -37q0 -47 -2 -76q0 -49 7 -76q6 -20 2 -30q-4 -8 -4 -33q0 -29 4 -33q2 -8 6 -55q2 -49 8 -56q8 -8 8 -18q0 -4 1 -9l1 -5q0 -8 17 -21q16 -16 22 -33q6 -16 21 -26q16 -8 20 -17q4 -10 31 -24q27 -16 39 -17q10 0 18 -8q8 -4 31 -8q25 -4 37 -10q8 -6 18 -6 q6 0 14 2q18 0 27 8q16 4 35 4q37 0 51 2q25 2 31 8q8 8 14 8q8 0 27 19q12 18 20 18q4 -4 17 4q10 4 22 21q16 20 21 33q8 16 8 18q0 6 6 12q6 8 6 17q6 10 8 12q4 2 9 21q4 20 6 22q4 2 8 31q4 33 2 45v41q0 37 2 57q0 27 -4 51q-4 16 2 35q4 12 4 19q0 6 -2 12 q-4 16 -4 24.5t-6 14.5t-6 18v29q0 12 -7 24q-8 8 -8 21q0 8 -8 25q-10 10 -10 16q0 10 -12 18q-14 20 -17 27q-2 8 -14 16q-4 2 -21 19q-12 16 -20 16q-12 4 -29 21q-18 18 -24 18q-8 0 -19 6q-14 8 -26 13q-15 2 -25 8zM1006 1468l3 1t5 1q6 0 16 -12q10 -10 10 -22v-39 q0 -25 9 -49q4 -16 4 -37v-21q0 -41 -6 -49q-8 -8 -9 -47q0 -18 2 -82v-125v-102q0 -96 7 -105q6 -12 6 -18q0 -2 -6 -14q-6 -6 -7 -101v-110v-218v-116q-2 -59 -2 -76q0 -33 8.5 -43t8.5 -21q0 -4 -2 -14q-2 -20 -11 -29q-10 -6 -24 -10t-19 -8q-8 -4 -28 -4q-25 0 -35 6 q-8 2 -27 21q-10 10 -16 32q-4 20 -12 27q-4 4 -25 14q-10 4 -35 -6q-4 -2 -14 -8t-12 -8q-4 -6 -15 -6q-2 0 -6 -1l-4 -1q-2 0 -6 -9q-4 -10 -10 -10q-12 0 -21 -12q-12 -12 -26 -12q-8 0 -21 -9q-6 -4 -31 -20q-20 -10 -41 -10q-25 0 -39 -11q-16 -8 -20 -8t-16 8 q-10 8 -60 9q-45 -2 -59 6q-12 8 -17 4q-6 0 -14 8q-6 6 -20 10q-2 0 -13.5 3t-15.5 5q-12 2 -21 11q-4 6 -18 10t-25 16q-10 10 -14 23q-8 16 -20 29q-16 20 -27 20q-8 2 -25 31q-14 23 -30 45q-18 18 -19 22q0 6 -6 13q-8 8 -8 26.5t-4 26.5q-6 12 -6 31q-4 20 -11 28 q-8 10 -8 37q0 4 1 45t1 68q2 88 11 102q6 14 4 45q-6 29 0 53q4 18 6 23.5t10 7.5q12 8 12 15q2 6 11 18q6 8 6 27q0 18 8 26q6 12 6 17q0 10 14 20q14 14 15 18q0 6 10 21q12 20 12 23q0 4 15 14q12 6 24 6q6 0 12 10q4 12 21 21q4 2 18.5 9t20.5 11q20 10 24 15 q0 4 18.5 4t25 8t42.5 6q39 0 43 -2q10 0 19 8q10 6 33 10q29 4 30 4q4 0 19 -10q10 -10 35 -10t37 -10q12 -8 20 -8q10 0 23 -7q14 -4 16 -10q6 -6 14 -6q10 0 17 -8l6 -12q0 -10 6 -13q4 -2 12 -18q8 -14 31 -39q18 -18 24.5 -21.5t24.5 -3.5q25 -4 31 2q2 2 6 23 q0 23 -2 29q-4 10 0 17t0 44q-4 35 0 39v57q0 53 -8 76q-8 18 -9 43q8 49 9 49q0 4 3 19.5t3 19.5q2 14 -8 31q-8 16 -7 53q2 27 3.5 33t9.5 10q8 6 8 18.5t18 26.5q16 10 54 10q33 -4 39 2z" />
<glyph unicode="e" horiz-adv-x="980" d="M590 922q-12 6 -101 8q-63 0 -76.5 -2t-23.5 -13q-14 -14 -27 -18q-12 -6 -38 -33q-29 -29 -29 -35q0 -4 -8 -16q-8 -10 -6 -20q2 -12 -7 -21q-10 -8 -10 -33q0 -27 -6 -34q-8 -8 -8 -31t6 -29q4 -8 4 -14t8 -19q6 -8 62 -10q31 -2 73 -2h78q31 2 39 2q23 0 43 -10 q14 -8 23 -8q4 0 6 2q8 4 53 4q47 -4 51 0q6 0 13 10q4 8 12 21q6 16 6 51q0 37 -8 51q-6 14 -10 37q-4 27 -11 39l-6 18q0 4 -4 8l-12 21q-6 10 -12 28q-2 12 -31 27q-8 5 -43 21zM489 1026q16 8 23 8q12 0 14 -6q6 -8 49 -8q41 0 50 -6q12 -8 26 -8q16 0 16.5 -4.5 t6.5 -10.5q2 -6 16 -6q10 0 21 -10q12 -12 16 -12t31 -19q25 -20 24 -26q0 -2 12.5 -14.5t18.5 -25t18 -28.5q12 -14 13 -29q0 -14 6 -22q8 -4 8 -11q0 -10 6 -12q6 -10 6 -35t7 -32q6 -6 10 -25q2 -8 2 -15t-2 -12q-6 -10 -2 -39t0 -57q-2 -27 -15 -41q-14 -14 -26 -20 t-15 -15q0 -8 -14 -6q-12 4 -77.5 4t-75.5 6q-10 8 -50 9q-39 0 -45 -9q-4 -8 -26 -6q-27 4 -31 9q-10 6 -70 6h-30.5t-27.5 1l-11 1h-39q-31 0 -53 -11q-18 -12 -23 -26q-4 -23 -2 -45q4 -27 0 -37q-4 -8 -4 -31q0 -25 10 -37q8 -14 6 -49q-2 -25 -1 -30t9 -9t15 -14 q2 -8 14 -16q8 -4 8 -10.5t11 -16.5q6 -10 14 -10q6 0 10 -11q0 -8 14 -22q10 -10 21 -10q8 0 12 -4q0 -2 16.5 -10.5t18.5 -10.5q4 -4 18 -4q18 0 27 -8q6 -6 21 -6h24h27q18 4 41 14q25 14 31 14t16 15q14 16 29 24q14 6 22 21q4 8 16 20q6 8 6.5 24.5t8.5 26.5l20 15 q8 8 47 10t45 -4q8 -8 11 -16q4 -4 4 -17q-4 -12 -8 -16q-6 -6 -7 -23q-4 -23 -12 -33q-10 -16 -10 -22t-10 -12q-6 -4 -13 -15q-4 -10 -18 -16q-14 -4 -39 -25q-27 -23 -29 -22.5t-18 -12t-23 -12.5q-12 0 -26 -6q-20 -4 -49 -8q-33 -4 -39 -10t-56 -6q-25 -2 -32 -3 q-18 0 -29 9q-2 0 -8 3t-8 3q-6 0 -31 14q-31 12 -51 14q-25 0 -33 11q-8 8 -14 8q-4 0 -15 10q-8 12 -18 17q-14 4 -21 14q-8 12 -8 16q0 6 -14 21q-14 10 -27 33q-2 2 -9 13t-11 15q-8 8 -13 21q0 4 -10 24q-8 10 -12 35q-4 14 -9.5 29.5t-7.5 44.5q-6 33 0 45q2 12 -4 18 q-8 10 -10 62q-2 31 -2 39q0 16 8 22t8 28.5t-8 39.5q-8 12 -8 16t8 12t6 25q-2 6 -2 16l9 33q6 29 16 39q10 14 8 18q-2 8 12 23q16 16 23 35q12 25 25 37q18 18 18 20t10 17q10 16 10 26q0 4 7 23q6 12 14 20q4 0 10 4l4 2q6 0 14.5 8.5t24.5 12.5q12 4 25 12q8 8 24 16 q12 4 21 5q10 0 16 6q4 2 47 6q39 2 51 8z" />
<glyph unicode="f" horiz-adv-x="778" d="M561 1487q2 2 35 2l49 -6q8 -2 27 -8q10 -8 14 -15q4 -8 10 -14q8 -8 9 -12q0 -2 -13 -19q-16 -12 -20 -12q-8 0 -17 -6q-12 -8 -55 -8t-51 -7q-12 -8 -25 -8q-14 -6 -22 -12q-12 -8 -15 -8q-4 0 -12 -13q-12 -18 -18 -26q-10 -10 -11 -21q0 -4 -10 -28q-8 -18 -8 -31 q0 -8 2 -37q6 -45 2 -53t-4 -33q0 -29 6 -43t15 -22q4 -4 32 -17q27 -12 66 -12q35 0 57 -8q16 -8 33 -9q12 0 18.5 6.5t9.5 6.5t15 -6q18 -4 18 -11q4 -4 4 -32q0 -23 -2 -28t-10 -13l-28 -21q-14 -8 -23 -6h-57q-49 4 -56 6q-10 4 -30 0q-18 -4 -33 -12q-12 -8 -17 -17 q-4 -10 -2 -24q4 -16 2 -21q0 -2 -10 -22q-6 -12 -6 -45v-41v-41q4 -39 8 -49q8 -16 8 -27q0 -6 -10 -26q-10 -16 -6 -25q0 -2 1 -11.5t1 -15.5q-2 -18 6 -32q6 -10 6 -37q0 -14 -2 -60q0 -84 -2 -86q-4 -4 4 -18q4 -14 2 -21q-2 -4 -2 -36q0 -8 1 -22l1 -15v-13 q0 -12 -1 -29.5t-1 -33.5q-4 -68 -6 -78l-10 -20q-2 -6 -12 -7q-4 0 -17 -8q-6 -8 -10 -8q-2 0 -6 2q-2 0 -10 1t-13 1q-16 0 -28 12q-14 10 -23 23q-6 6 -10 35q0 4 -1 28.5t-1 36.5v21q0 27 2 49q2 33 -2 41q-4 10 -2 29q4 18 -4 36q-8 16 -8 74q0 55 8 64q6 6 6 34 q0 27 -6 43q-8 16 -8 31q0 8 6 21q4 4 10 43q2 27 1 33t-9 14q-10 10 -10 33q0 12 2 49q0 74 -7 82q-8 12 -8 22q0 12 -8 21q-10 10 -20 14q-8 4 -74 4q-27 -2 -43 -2q-27 0 -33 4q-12 2 -22.5 22.5t-14.5 37.5q-2 8 -2 12q0 8 6 16q8 16 19 21q12 8 33 8q29 0 36 2 q10 0 43 -4q31 -2 50 10q23 12 26 18l12 19q6 8 5 27q-6 18 0 43q2 12 2 34q-2 8 2 35t-2 45q-2 25 2 31q10 18 14 41q10 31 10 41t37 45q39 37 47 41q8 0 23 10q12 6 35 6h30q55 0 64 11q12 12 16 14z" />
<glyph unicode="g" horiz-adv-x="1009" d="M555 856q-6 4 -33 8q-27 0 -30 -2l-19 -6q-25 -8 -41 -10l-51 -10q-18 -4 -41 -27t-21 -31q0 -10 -12 -24q-18 -14 -20 -31q-8 -20 -11 -23q-4 0 -4 -14q0 -16 -8 -24q-8 -10 -8 -64q0 -51 -6 -63q-6 -10 -8 -89q-2 -43 -2 -55q0 -27 8 -45q8 -20 6 -43v-35q0 -10 12 -22 q14 -10 19 -23q10 -10 14 -12q8 -4 12 -8t8 -19q4 -12 16.5 -24.5t20.5 -9.5q6 2 17 -9q8 -8 20 -12q8 0 19 -10q8 -12 22 -13q8 -2 31 -2l33 9q14 8 41 6q29 -2 41 6q14 10 18 10q6 0 16 10q12 8 17 23l26 39q16 20 31 47q12 20 17 37q8 20 8 55q2 39 10 47q6 8 6 82 q0 68 -8 82q-10 10 -4 18q2 6 0 39q-2 18 -2 48q0 14 -8 22q-6 12 -7 16q0 8 -10 25q-10 12 -14 31q-4 14 -12.5 22t-8.5 15q0 2 -10 12q-4 4 -22 16q-14 4 -23 17q-10 12 -25 12q-8 0 -20 6zM379 973q8 10 37 8q25 0 41 -8q10 -6 49 -6q39 2 51 -6q8 -8 18 -9q2 0 15 -8 q2 0 4 -2l24 -12q20 -8 27 -15q2 -2 10.5 -6t10.5 -6q12 -4 32 -2q20 6 23 8q6 4 18 31q10 18 14.5 22.5t18.5 6.5q18 4 29 8q4 2 30 6q23 0 33 -8q6 -8 13 -35q2 -14 8 -51q6 -31 4 -45q-4 -18 0 -37q2 -10 2 -49q0 -33 -4 -39q-6 -6 -6 -20.5t6 -26.5q4 -20 4 -99 q-2 -84 -8 -90t-9 -155v-58.5t-1 -50t-1 -35.5v-14l1 -20q1 -21 1 -51.5v-59.5v-166q-2 -51 -8 -57q-6 -8 -6 -21q0 -8 -8 -24q-6 -8 -6 -27q0 -10 -15 -25q-12 -12 -12 -18q0 -10 -12 -23q-8 -8 -14 -20q-2 -6 -25 -18q-25 -16 -37 -23q-12 -8 -31 -18q-4 0 -12 -4.5 t-10 -4.5q-6 -2 -35 -10q-6 0 -14 -2t-16.5 -5t-10.5 -3q-8 -2 -102 -2q-45 2 -62 2q-31 0 -41 -6q-8 -4 -14 -4q-4 0 -10 2q-18 6 -35 6q-29 4 -37 10q-20 10 -51 29q-35 23 -41 33q-12 12 -19 16q-10 4 -10 14q2 8 -12 17q-10 6 -18 22q-8 12 -9 27q-2 10 -12 20 q-6 6 -6 9.5t6 15.5q6 16 18 20q8 4 52 4q41 0 57 -4q23 -6 29 -14l14 -14q6 -2 6 -15q0 -8 8 -28q12 -20 25 -25q10 -2 16 -8q0 -6 23 -14q16 -8 24 -17q6 -6 11 -6q6 0 16 -10q10 -8 29 -6q27 6 30 8q10 6 39 6t29 2q4 4 12 4q14 0 27 6q16 6 20 6q2 -2 29 21q31 31 33 35 q12 12 16 20q6 6 6 25q4 18 9 22q6 8 8 37q0 23 6 41q4 4 8 37q0 10 1 24l1 13v22q-2 23 -2 41q-2 51 -8 60q-2 2 -8 14q-4 10 -18.5 10t-22.5 -4q-6 -4 -6 -6t-17 -18q-14 -14 -20 -14.5t-13 -6.5q-8 -4 -12 -4q-8 0 -16 -8q-10 -10 -17 -10q-4 0 -12 -4q-4 -4 -22 -9 q-2 -2 -10.5 -5t-12.5 -3q-8 -6 -80 -6h-41q-31 0 -45 4q-8 4 -26 10q-10 0 -19 13q-6 8 -33 14q-25 4 -28 16q-2 6 -21 25q-18 14 -20 20q0 2 -2 9l-2 6q-4 6 -19 14q-16 8 -24 25q-10 20 -19 28q-10 10 -10 22.5t-6 18.5q-8 12 -8 24.5t-7 22.5q-8 8 -8 23q0 18 -6 37 q-8 18 -8 116.5t8 114.5q6 14 4 39q-2 23 6 51q8 31 15 39q8 16 8 21q0 12 6 26q8 20 8 41q2 18 8 29q6 12 7 18q4 12 8 17q6 6 12 6q4 0 12.5 14.5t18.5 18.5q16 12 20 16q10 12 14.5 12t20.5 13q14 14 21 14q4 0 16 8q8 8 18 8q6 -4 21 4q12 8 24 7q11 -2 21 8z" />
<glyph unicode="h" horiz-adv-x="1243" d="M279 1493q12 6 24 6t27 -12q16 -14 20 -27q2 -8 6 -114q2 -55 2 -134v-63q0 -31 -8 -41q-10 -10 -10 -25q0 -10 8 -22q4 -6 8 -31q0 -20 2 -29q2 -6 13 -26q12 -16 22 -19q12 -2 21 0l12 7q0 4 12 4q4 0 23 6q18 12 22 16q10 10 17 6q6 -2 26 6q31 10 33 11q10 4 29 14 q14 12 22 12q6 0 18.5 -8t22.5 -8q12 0 22.5 6t33.5 10q8 0 18 2h10q4 -2 21 -2q8 -2 59 -2q33 0 42 -3t28 -23q29 -27 53 -35q27 -8 29 -14q8 -8 10 -15q8 -12 22 -41q14 -25 21 -45q0 -12 8 -24q6 -10 4 -17q0 -8 6 -18q8 -12 9 -146q2 -131 10 -139q8 -6 8 -8 q0 -4 -4 -172q0 -182 -2 -201q0 -39 -6 -51q0 -4 -2 -24.5t-4 -24.5q-4 -16 -7 -19q0 -2 -14 -6q-4 -2 -16.5 -3t-18.5 -1t-14 -2h-8h-25q-20 0 -33 10q-10 10 -12 154v147v187q0 39 -1 79t-1 66v25l-6 18q-4 4 -4 41q2 35 -6 43q-2 2 -21 35l-22 39q-8 12 -9 14q0 6 -16 23 q-10 14 -25 20q-4 0 -16 8q-6 6 -43 6.5t-41 6.5q-12 6 -14 6t-8.5 -3t-10.5 -3q-12 -6 -55 -6t-57 -9q-8 -8 -15 -8q-2 0 -14 -12q-8 -10 -29 -14q-18 -4 -26 -13q-12 -12 -19 -12q-8 -8 -16 -25q-10 -25 -23 -41q-10 -16 -10 -24q0 -4 -10 -14q-8 -10 -10 -43 q0 -37 -6 -52q-8 -25 -9 -53v-41v-24q0 -14 -8 -35q-6 -18 -4 -35q0 -20 8 -33q4 -10 4 -86v-102q0 -178 -6 -187q-2 -2 -4 -8q-2 -4 -2 -6q0 -6 -16 -23q-20 -18 -35 -20q-10 -4 -15.5 -4t-13.5 4l-24 6q-8 0 -15 12q-4 10 -10 15q-10 4 -12 16q-6 10 -8 162v78v57v27 t-1 27.5t-1 67.5v81v174q2 6 2 94q0 82 -7 92q-8 16 -8 88v144v96q0 33 -2 37l2 20v39q2 47 10 64q6 8 7 26q-4 12 0 17q0 4 30 26q29 18 33 19q3 0 19 8z" />
<glyph unicode="i" horiz-adv-x="663" d="M303 1016q14 12 20.5 12t20.5 -6q16 -8 23 -8q12 0 16 -2q8 -4 12 -15q6 -18 6 -39q2 -27 -4 -36q-2 -2 -8 -19q-2 -12 4 -26q6 -10 10 -46q6 -25 7 -47q4 -18 6 -20t2 -19q-8 -25 -10 -28q-4 -14 -5 -72q0 -16 1.5 -40.5t1.5 -26.5q6 -27 8 -31q0 -2 3 -11.5t3 -11.5 q0 -10 -10 -16q-8 -8 -9 -33q4 -31 9 -35q6 -12 6 -32q0 -23 -6 -33q-6 -12 -7 -70q-2 -18 -2 -39l-2 -22q-2 -2 2 -11q6 -12 11 -14q6 -10 4 -29q0 -23 -6 -30q-6 -4 -7 -70q0 -63 -6 -69.5t-20 -10.5q-20 -4 -33 -4q-18 0 -37 10q-20 10 -31 29q-8 18 -8 51v39q0 18 2 33 q2 25 -4 41q-4 8 -4 12t4 10t4 82q-2 41 -2 86q0 29 2 47q2 37 -4 46q-6 6 -6 10t4 14q4 12 4 84v86v41v47v113q2 90 8 94q2 2 4.5 7t4.5 7q0 7 18 21zM366.5 1485q12.5 4 18.5 4q8 0 14 -6q8 -8 17 -8q8 0 16 -13q4 -12 4 -22v-10q-4 -25 -4 -33q0 -2 1 -12.5t1 -16.5 q0 -14 -8 -25q-10 -10 -10 -18q0 -6 -19 -16q-25 -10 -35 -13q-18 0 -30 9q-16 8 -41 6q-18 -2 -23.5 0t-13.5 12q-14 12 -14 33q0 16 -9 33q-4 12 -4 16q0 2 2 8q8 4 13 23q6 14 32 26q23 10 41.5 10.5t30.5 4.5q8 4 20.5 8z" />
<glyph unicode="j" horiz-adv-x="610" d="M285 1075q8 8 14 8h4l25 -6q16 -4 22 -10q8 -8 8 -16q0 -10 -4 -23q-2 -14 6 -27q8 -14 7 -20q0 -8 -9 -16q-8 -8 -2 -19q4 -10 0 -18q0 -6 4 -19q4 -12 0 -18q-6 -6 -6 -27q0 -20 6 -28q4 -12 5 -17q-4 -4 2 -10q2 -4 2 -94q0 -88 -4 -97q-6 -10 -9 -22q0 -16 6 -27 q6 -12 6.5 -28.5t-3.5 -24.5t-9 -43q0 -39 2 -43q4 -8 0 -29q-2 -23 4 -36q6 -12 7 -33q0 -20 -7 -31q-6 -14 -6 -106q0 -96 9 -109q8 -10 8 -20q0 -4 -2 -13q-4 -23 -9 -24q-4 -6 -4 -52q0 -53 -2 -65q-6 -18 -2 -31q4 -14 2 -28q-4 -23 -8 -27q-4 -8 -4 -12 q0 -6 -16.5 -26.5t-28.5 -27.5q-16 -10 -18 -16l-15 -14q-6 -6 -33 -15q-29 -10 -32 -14q-6 -6 -23 -6q-8 0 -31 2t-73 2q-31 -2 -41 6q-8 12 -8 19q0 2 -7 14q-8 4 -8 10q-2 2 -2 6q0 6 4 10q0 4 4 11.5t4 9.5q2 10 21 20q20 10 43 11q25 0 33 4q10 4 16 10t6 14q0 12 6 19 q4 8 25 16q20 12 20 17q2 2 7 24q2 16 0 30.5t0 33.5q4 18 6 20q6 6 2 37q0 10 -1 27.5t-1 21.5t-1 13.5t-3 13.5q0 14 2 18l-4 45q-4 39 4 60q6 16 6 55q0 33 -6 47q-6 12 -4 27q2 12 0 26q-4 16 2 19q6 8 10 16q6 8 6 31q0 16 -4 32.5t-4 20.5q0 45 2 94v51q0 35 -4 52 q-6 12 -10 28q0 16 4 21q6 2 10 12t2 62q-2 49 -10 71q-8 16 -8 41q-2 25 6 29q10 4 10 14q4 8 4 15l8 32q4 20 8 23.5t23 3.5q23 2 33 12zM250 1516q4 2 8 2t6 -2q2 0 12.5 -2.5t16.5 -4.5q23 -4 37 2q12 4 16 5q4 0 14 -3q20 -8 23 -10q4 -4 4 -18q0 -16 6 -29 q8 -16 8 -20q0 -8 -10 -19q-10 -14 -6 -33q6 -14 6 -24q0 -6 -6 -12q-8 -4 -18 -5q-4 0 -15.5 -3t-13.5 -3q-16 -6 -33 -6q-6 0 -24 6q-12 6 -37 6q-29 4 -31 7q-8 4 -20 16q-10 10 -11.5 18.5t-1.5 47.5q0 41 2 49t15 16q14 14 28 14q17 1 25 5z" />
<glyph unicode="k" horiz-adv-x="1136" d="M301 1501q8 4 14 4q12 0 21 -6q16 -8 22 -18q8 -8 13 -39q4 -29 4 -60v-39v-53v-57v-21v-38.5v-51.5q0 -111 -2 -127v-108q2 -78 8 -82q6 -6 6 -57.5t4 -59.5q0 -6 17 -14q20 -8 28 -8q12 -2 23 6l20 14q4 2 25 16q12 12 28 19q14 8 14.5 14t24.5 25q25 16 29 28 q8 10 23 23q12 12 26 16q8 0 12.5 8.5t8.5 8.5q2 0 22 12q16 12 17 23q0 6 14 20q20 20 29 39q14 25 32 29q20 10 29 18q10 14 25 19q18 12 28 22q20 16 35 23q16 8 29 8q2 0 22.5 -1t32.5 -1q43 -2 47 -13q4 -8 0 -20q-6 -8 -6 -14q0 -2 -49 -52q-47 -47 -51 -47 q-6 -6 -15 -20q-14 -18 -20 -19q-10 -4 -25 -20q-18 -18 -20 -23q-10 -8 -25 -18q-20 -8 -20 -14q-8 -8 -15 -13q-12 -6 -16 -16q-4 -8 -16 -14q-16 -12 -21 -17q-4 -8 -26 -20q-12 -4 -35 -19q-12 -6 -37 -26q-20 -18 -21 -41q0 -18 11 -43q2 -6 7 -18.5t5 -14.5 q6 -14 20 -18q16 -8 19 -21q6 -16 14 -18q12 -8 51 -47q39 -43 43 -43q2 0 25 -23q6 -6 17.5 -18.5t13.5 -14.5q12 -16 20 -18q10 -6 10 -10l7 -13q10 -10 16 -14q8 -2 25 -23l47 -47q31 -33 41 -35q12 -12 16 -18q8 -16 25 -33q20 -20 28 -22q10 0 15 -11q6 -12 10 -16 q8 -6 8 -16q0 -4 -2 -17q-4 -25 -6 -26h-43q-41 0 -58 -11q-12 -10 -15 -10t-7 8q-6 6 -23 11q-20 6 -22 8q-12 4 -17 4q-8 0 -36 29q-29 25 -29 33t-10 14q-2 2 -27 20q-18 25 -22 31q-8 18 -23 29q-29 29 -47 45q-31 27 -31 33t-10 12q-10 10 -10 18q0 6 -18.5 24.5 t-26.5 30.5q-12 16 -15 21q-6 6 -8 6q-4 0 -12 14q-6 12 -6 19q0 4 -9 12q-8 4 -14 4t-34.5 29t-37.5 41q-10 14 -10 16q0 6 -24 13q-20 6 -39 6q-20 -4 -23 -9q-6 -6 -6 -182v-90q0 -88 2 -104q4 -16 -8 -39q-10 -20 -10 -49q2 -29 -4 -35q-2 -6 -11 -6q-6 0 -12 -7 q-4 -6 -20 -6h-17q-33 0 -39 6q-4 6 -14 11q-12 6 -18 18q-8 10 -9.5 19.5t-1.5 50.5q0 51 -8 65q-6 14 -2 19q2 6 0 24q-4 20 -4 193q0 176 -4 184q-6 8 0 14q6 12 6 19q0 14 6 27q8 16 8 28t-10 27q-8 14 -8 31v38q0 6 1 23.5t1 26.5q0 37 -2 49v53q4 29 0 55q0 45 2 72 q0 49 -8 63q-6 12 -6 15.5t6 11.5q8 14 8 35q0 6 -1 26.5t-1 28.5q0 35 -8 45q-4 8 -4 21v12q0 23 8 29q6 6 6 47q0 39 4 55q2 12 18 29q16 14 37 14q27 0 31 2z" />
<glyph unicode="l" horiz-adv-x="622" d="M285 1505q20 4 37 4q23 0 26 -2q2 -2 10.5 -9t12.5 -11q12 -14 8 -31q-2 -18 0 -63q0 -14 1 -37t1 -27q0 -2 -1 -30.5t-1 -49.5q0 -61 6 -73q6 -8 6 -50q2 -35 -6 -45q-8 -8 -8 -24.5t4 -20.5q2 -2 0 -14q-4 -16 -4 -31q0 -20 8 -26q8 -10 6 -29q0 -27 2 -37q4 -10 4 -16 q0 -4 -2 -6t-2 -60v-49q0 -104 -8 -117q-10 -16 -8 -39q4 -31 8 -37q6 -10 6 -143v-209q0 -80 2 -84q0 -18 -2 -33q-4 -29 0 -38q4 -6 -2 -27q-8 -16 -22 -31q-12 -12 -17 -12q-4 0 -14 6q-16 8 -33 8q-23 4 -33 15q-4 2 -20 18q-4 8 -4 47q0 35 -10 47q-6 8 -7 23 q4 10 10.5 20.5t6.5 38.5q0 33 -4 39q-6 8 0 25q4 12 4 26q0 12 -6 17q-4 4 -9 28q-2 20 7 37q10 12 1.5 45t-8.5 45q-2 14 5 29q8 14 8 129q0 113 -6 123q-6 12 -6.5 24.5t8.5 28.5q6 14 4 51q-2 29 -8 56q-2 14 -7 166v71.5v59.5l-2 22q0 4 4 49q0 49 -2 56q-4 10 0 53 q4 51 9 59q2 12 16 27q13 10 31 18z" />
<glyph unicode="m" horiz-adv-x="1796" d="M616 1026h27q8 0 24.5 -1t22.5 -1q20 0 29 -8q6 -6 22 -15q12 -6 31 -6q4 0 14.5 -1t14.5 -1q4 -2 24 -16q10 -10 23 -14q8 -2 31 -23q20 -29 24 -39q4 -16 12 -20q4 -4 35 0q23 2 31 7t37 34q37 37 51 41q16 4 25 14q10 10 24 14q8 2 23 13q10 6 22 6q2 0 27 6 q10 6 100 8q88 0 102.5 -8t32.5 -8q16 0 21 -4q2 -2 14 -7q10 0 21 -10q4 -2 13 -7t13 -7q8 -2 27 -21q14 -14 14 -20q0 -4 13 -12q12 -12 16 -23q4 -16 2 -27q-2 -12 8 -22q8 -8 6 -29q-2 -18 9 -41q4 -16 20 -43q10 -16 14 -37q2 -12 2 -49v-88q-2 -25 -2 -46t2 -26 q0 -35 -2 -61q0 -47 -4 -55t-8 -31q-2 -14 -2 -49q0 -25 8 -41q6 -18 6 -115q-2 -78 -4 -91t-10 -23q-12 -12 -14 -13q-2 0 -13 -6q-6 -6 -39 -6q-29 0 -45 8l-20 12v17q0 12 -8 20q-6 6 -6 31v37v29v24q0 18 -2 28.5t-2 39.5q0 6 1 20.5t1 20.5q2 10 2 65q0 47 4 51 q6 10 6 39q2 31 -6 45q-8 16 -8 60q0 14 1 39.5t1 29.5q0 23 -9 29q-6 8 -6 57.5t-6 59.5q-4 8 -8 24q-2 18 -14 29l-27 27q-12 12 -16 12q-2 0 -19 16q-14 16 -29 17q-16 0 -24 8q-8 10 -82 10t-98 -12q-29 -16 -35 -23q-8 -8 -14.5 -8t-22.5 -10q-16 -6 -31 -21 q-10 -12 -14 -22q-4 -12 -4 -21q0 -12 -6 -20q-6 -6 -11 -18q0 -8 -8 -17q-8 -10 -6 -12q4 -4 -4 -14q-2 -6 -6 -76q-2 -63 -6 -74q-6 -8 -6 -47q0 -41 6 -45q6 -6 6 -148q0 -139 4 -147q0 -12 -2 -18q-4 -12 -4 -41t4 -37q6 -6 0 -25q-4 -20 -10 -22q-6 -6 -11 -7 q-6 0 -10 -12q-8 -10 -47 -8t-55.5 18.5t-18.5 16.5q-4 0 -4 4v16q4 16 4 56v53q0 16 2 26q2 20 -6 33q-6 12 -6 193v202q0 16 -8 37q-6 12 -6 25q0 2 -1 13t-1 18q-4 23 -13 30q-8 16 -8 23q0 8 -8 29q-6 8 -14 24q-6 10 -15 23q-10 14 -12 14t-14 8q-8 8 -21 12l-24 9 q-10 8 -39 8q-39 0 -56 2q-25 2 -45 -8q-20 -8 -28 -8.5t-17 -8.5q-6 -6 -16 -6q-8 0 -20 -8q-10 -8 -25 -8q-8 2 -25 -10q-12 -10 -12 -20.5t-6 -20.5q-4 -12 -12.5 -16.5t-12.5 -19t-10 -24.5q-6 -6 -6 -16q0 -8 -6 -17q-6 -6 -6 -57q0 -45 -9 -61q-6 -10 -6 -60 q0 -45 6 -57q6 -8 9 -158q2 -80 2 -157q0 -27 -2 -48q0 -43 2 -49q2 -16 -4 -22q-8 -8 -9 -19q0 -12 -12 -14l-24 -8q-14 -6 -39 -6q-27 4 -43 10q-18 10 -21 16q0 6 -4 15q-4 4 -8 24q-4 23 -2 33t2 143q0 123 -6 135q-6 10 -10 35q0 35 4 56q8 29 2 39t-6 38q4 25 10 43 q6 16 4 29q-4 14 -8 31q-2 8 -2 51q0 29 8 53q6 16 -2 29q-8 14 -8 92v43q0 33 6 51q10 14 10 21q0 2 12 18q20 14 27 17q10 4 41 2q29 -2 39 -13q10 -8 10 -26.5t8 -32.5q10 -10 10 -14q0 -6 9 -13q8 -10 28 -12q25 0 29 4q6 6 12 21q8 16 23 30q23 23 30 29q16 12 29 12 q16 0 23 6q12 8 24 15q18 8 56 10q16 0 34 2h4z" />
<glyph unicode="n" horiz-adv-x="1220" d="M705 1042q14 4 20 5h4q4 -2 28.5 -6.5t28.5 -6.5q6 -6 23 -14q16 -10 29 -10q6 0 22 -9q16 -10 25 -10q12 -2 20 -14q8 -14 25 -21q16 -10 26 -28q10 -20 22.5 -32.5t12.5 -18.5q0 -2 1 -7l1 -6l4 -16q6 -18 7 -31q2 -8 8 -26q8 -8 12 -23q6 -12 10 -55q0 -41 6 -49 q6 -6 7 -84q0 -76 -7 -91q-8 -16 -8 -124q0 -113 -8 -129q-8 -20 -4 -43t8 -33q2 -2 2 -27q0 -23 -6 -37q-8 -14 -6 -28v-33q-2 -18 -19 -25q-16 -6 -28 -4q-12 4 -23 4q-16 0 -35 6q-20 2 -24 13q-4 6 -4 26q2 12 -4 43q-2 8 -5 18l-4 11q-2 2 -2 59q2 31 2 84q0 29 -4 41 q-2 12 0 25q2 8 2 88v78q0 156 -4 160q0 6 2 12q2 8 -4 18q-6 12 -6 31q0 27 -2 35q-6 20 -8 22q-4 12 -4 21q0 10 -8 18q-10 10 -11 15q0 6 -12 16q-10 10 -14 18q-4 6 -21 6q-14 0 -28 9q-16 10 -33 16q-20 6 -35 4q-12 -2 -27 6q-12 10 -47 11q-39 0 -45 -7 q-10 -4 -10 -8q-8 -4 -16 -6q-12 -4 -31 -12q-18 -10 -23 -17q-8 -8 -12 -8q-8 0 -12 -6q-6 -4 -6 -10q0 -4 -17 -12q-4 -2 -35 -21q-18 -16 -18 -25q0 -8 -4 -16q-2 -6 -10 -6q-6 0 -11 -8q-4 -10 -2 -25q2 -20 -6 -31q-8 -12 -8 -81.5t-8 -82t-4 -38.5q0 -8 4 -25v-4 q4 -4 0 -33q-6 -49 -6 -53q-2 -20 6 -51q8 -27 8 -150q0 -90 -1 -107.5t-9 -31.5q-2 -6 -23 -33q-10 -8 -17 -10t-40 -4q-23 -2 -29 -2q-12 0 -20 8q-10 10 -10 19q0 6 -9 18q-6 8 -4 25q2 8 2 73v43v56v57v121q0 20 -10 41q-6 14 -6 26q0 4 2 37q4 49 4 53q0 2 -1 11.5 t-1 15.5q-2 20 4 35q8 16 8 31q0 12 -8 28q-8 12 -8 133q0 123 6 138l10 20q0 2 27 10q27 4 49 11q25 8 29 8q6 0 10 -8l6 -11q2 -2 14.5 -22.5t12.5 -24.5q0 -6 8 -18q14 -18 18 -21q6 -6 21 -6q16 0 26 8q16 8 17 13l6 8l12 12q10 14 35 27q20 10 49 22q8 4 23 13l16 8 q16 10 31 10q8 0 26 6q8 6 41.5 6t45.5 6z" />
<glyph unicode="o" horiz-adv-x="1181" d="M657 940q-33 8 -39 8q-10 0 -22 -4q-10 -4 -70 -8q-55 -4 -75 -12q-25 -16 -27 -17q-8 -8 -14 -8q-8 0 -9 -4q-12 -12 -24 -23l-29 -24q-6 -4 -6 -12q0 -12 -14 -27q-16 -18 -17 -29q0 -12 -14 -41q-14 -31 -12 -37q0 -8 -9 -16q-8 -10 -8 -76q2 -37 2 -71v-52 q0 -47 6 -55q8 -10 9 -51q0 -43 8 -53q10 -10 10 -22.5t4 -16.5q4 0 4 -19q0 -16 6 -26q8 -8 9 -17q6 -12 20 -20q4 -4 15.5 -14.5t13.5 -12.5q14 -12 22 -16q12 -4 23 -19q10 -12 18 -12q4 0 17 -6q6 -4 34 -8q23 0 48 -10q20 -8 34 -9q18 0 25 9q10 6 24.5 6t34.5 8 q16 8 49 8t46 6q16 8 32 31q23 27 25 31q6 6 10 6q6 0 8 12q2 8 20.5 26.5t18.5 24.5t10 21q12 14 13 26q0 14 6 27q8 14 6 49q-2 37 6 51q6 23 6 56q0 41 2 49q0 2 1 18.5t1 26.5q0 31 -10 41q-8 10 -6 34.5t-6 32.5q-10 8 -10 25q0 14 -4 18q-4 0 -13 21q-6 14 -16 24.5 t-12 18.5q-8 12 -15 24l-14 23q-4 6 -18 20q-10 10 -27 19q-4 2 -12.5 7t-10.5 5q-8 8 -22 13q-12 4 -23 8q-6 2 -39 14zM551 1038q8 10 16 12.5t43 2.5q47 0 58 -9q16 -8 41 -8q37 -4 49 -10q6 -2 14 -5t10 -3q6 -6 15 -8q2 -2 7 -4t7 -2q6 -6 14 -9l7 -4l12 -6q8 -6 14 -6 q4 4 12 -4q12 -8 21 -8q12 0 20 -11q2 -4 11 -15l10 -11q12 -12 14 -12q4 0 21 -21q18 -25 26 -39q12 -20 13 -24q0 -8 6 -11q6 -10 14 -22q8 -20 8 -29q0 -10 6 -18q6 -12 7 -23q-2 -10 4 -22q8 -8 8 -25q0 -14 8 -20q10 -8 14 -43q0 -8 2 -34t4 -36q2 -20 3 -27 q0 -10 -7 -18q-6 -8 -8 -68q0 -57 -6 -71q-6 -8 -6 -19q0 -8 -10 -18q-8 -8 -6 -25q0 -16 -5 -22q-6 -8 -10 -27q-2 -10 -16 -25q-10 -10 -10 -18q0 -6 -13 -23q-14 -10 -14 -16q0 -8 -21 -29q-23 -27 -28 -26q-4 -2 -12 -10q-4 -4 -21 -13q-20 -10 -25 -16q-16 -10 -36 -23 q-29 -14 -35 -14q-4 0 -19 -10q-12 -12 -16 -13q-2 0 -10 -4q-4 -6 -19 -4q-16 0 -35 -8q-23 -8 -65 -8h-57h-43q-31 4 -41 8q-16 8 -33 8t-29 8.5t-20 8.5q-12 0 -19 6q-8 4 -24 4q-18 0 -31 10q-12 8 -18 8q-8 0 -19 11q-14 6 -18 20q-10 10 -17 12q-8 4 -14 17 q-10 14 -14 14q-6 4 -29 29q-29 33 -33 39q-12 16 -12 26q-4 14 -10 17q-6 6 -6 16q0 12 -7 25q0 4 -3 11t-3 9q0 8 -6 21q-8 16 -8 22q0 10 -6 21q-8 16 -8 28q0 20 -9 31q-6 14 -6 90v94q0 16 8 25q6 6 7 39q0 37 8 47q6 8 6 24q0 10 8 19q6 6 6 12l6 12q4 4 4 17 q-2 10 13 22q14 14 14 21q0 2 39 45q41 45 41 47l8 8q4 2 25 19q14 10 24 16h13q2 0 14 4l24 8q4 0 12.5 1t10.5 1q8 0 16 9q6 6 27 14t25 12q8 8 18 -2q8 -8 14 -8q4 2 29 2q23 0 37 14z" />
<glyph unicode="p" horiz-adv-x="1210" d="M713 897q-14 6 -82 8q-68 0 -78 -6q-8 -8 -23 -8q-12 -4 -30 -19q-16 -16 -25 -16q-6 0 -12 -6q-8 -4 -14 -4q-8 0 -15 -12q-8 -12 -16 -15q-10 -4 -23 -28q-14 -23 -18 -37q-2 -10 -15 -23q-10 -6 -14 -18q0 -4 -2 -13.5t-4 -13.5q-4 -16 -14 -22q-10 -12 -11 -33 q0 -25 -6 -33q-8 -8 -8 -74q0 -61 6 -71q6 -18 6 -21q2 -4 3 -13t1 -13q4 -18 9 -23q4 -8 4 -16q0 -10 -6 -17q-8 -12 -8.5 -16t8.5 -17q10 -6 10 -14q0 -10 6 -16q4 -12 4 -15q0 -4 10 -14q12 -12 13 -16q0 -8 6 -19q12 -16 16 -22q10 -6 15 -23q4 -14 22 -18t33 -15 q10 -10 22 -18q4 -4 41 -25q29 -14 66 -14h51q84 2 92 8q12 6 19 6q8 0 22 15q12 12 33 24q23 10 22 17q4 8 19 22l22 23q8 8 9 16q0 10 8 22.5t4 18.5q-4 8 6 14q8 8 8 62q0 51 8 67q6 14 7 86q0 70 -9 84q-8 16 -6 62q0 49 -4 53t-12 26.5t-12 39.5q-2 14 -13 32 q-10 16 -33 29q-25 12 -26 21q-4 8 -4 14q0 10 -10 16q-8 8 -13 8q-8 0 -14 7q-12 8 -23 8q-18 0 -28 8zM641 1022q4 2 25 2q2 0 10 -2l16 -4t15 -4q29 -8 49 -6q23 2 37 -4q18 -8 32 -7q16 2 35 -14q16 -14 27 -18q2 0 26 -15q20 -12 23 -12q4 0 8 -8q2 -2 12 -17 q4 -6 7 -8q14 -14 30 -26q16 -16 17 -23q4 -8 8 -25q6 -12 14 -26q8 -8 8 -17q0 -10 11 -20q12 -14 14 -33q0 -20 8 -28l6 -11l8 -16q8 -10 9 -37q4 -31 8 -39q6 -18 6 -43q2 -16 2 -22q0 -12 -6 -23q-8 -14 -8 -65q0 -59 2 -68q2 -14 -6 -25q-10 -10 -11 -22q0 -6 -8 -27 q-10 -14 -6 -18q4 -8 4 -12q0 -8 -10 -19q-10 -8 -10 -16q2 -2 -6 -25q-12 -20 -17 -22q-8 -4 -12 -19q-8 -14 -21 -24q-10 -8 -16 -21q0 -10 -4 -18q-4 -10 -19 -13q-14 -2 -30 -22q-20 -20 -31 -23q-14 -4 -18 -8q-2 -6 -11 -6q-8 0 -18 -10q-8 -8 -16 -8q-6 0 -29 -15 q-27 -14 -39 -12q-8 2 -25 2l-13 -1t-21 -1q-20 -4 -31 -8q-6 -6 -55 -6h-33q-23 0 -37 12q-10 8 -27 16q-2 0 -10 2t-10 4q-2 0 -6 2q-16 6 -25 9q-20 8 -32.5 14t-22.5 16q-6 12 -21 15q-18 0 -20 -2q-6 -6 -15 -2q-8 0 -16 -4q-6 -6 -10 -25q0 -4 -4 -16.5t-6 -18.5 q-6 -16 -7 -57v-47q2 -51 3 -103v-71q0 -59 -7 -72q-6 -8 -6 -18q-4 -8 -8 -11q-6 -6 -12 -6q-8 0 -15 -6q-8 -6 -28 -6t-29 -4q-12 0 -16 8q-4 12 -15 16q-10 10 -12 21q-4 16 -4 47q2 27 -4 43q-8 14 -8 70q0 53 8 77q8 23 6 39q-4 20 -10 27q-6 12 -2 24v27q-2 6 -2 107 q0 96 -6 104q-6 4 -11 27q0 23 9 30q8 10 8 33q0 10 -2 45q0 74 -2 86q0 6 1 18.5t1 14.5q6 8 0 20q-4 6 2 29q4 18 -2 39l-5.5 16.5t-5.5 12.5q0 8 5 20q6 8 6 29q0 16 -4 24l-7 19q0 76 -2 153q0 145 9 154q6 6 18 10q6 0 18 9q6 6 43 4q35 -2 50 -13q16 -12 16 -14 q2 -2 6 -27q2 -20 8 -30q4 -2 11 -15q4 -10 8 -10t28 8q18 6 27 17q4 10 16 14q8 2 23 12q14 12 29 23q20 12 22 12q4 0 12 12q10 12 43 13q27 -2 48 2q12 2 26 0q12 -6 23 2q12 6 14 8z" />
<glyph unicode="q" horiz-adv-x="1224" d="M604 940q-6 4 -45 8q-35 0 -39 -2q-2 0 -7 -1t-7 -1q-10 -6 -17 -14q-8 -12 -22 -21q-12 -6 -25 -6q-8 0 -12 -4q-4 0 -12 -16.5t-17 -18.5q-12 -6 -14 -14q-2 -2 -8 -9t-8 -12q-10 -8 -11 -22q0 -12 -12 -21q-10 -8 -18 -26q-6 -16 -11 -39q-4 -29 -6 -33q-6 -18 -6 -39 q-2 -16 -2 -125v-112q0 -18 8 -27q6 -6 6 -31q0 -18 11 -43q8 -20 16 -24q8 -6 12 -23q8 -18 15 -20q8 -8 8 -13q0 -2 10 -18q10 -10 19 -23q8 -14 28.5 -20t28.5 -14q10 -10 18 -11l31 -10q18 -6 35 -6q10 0 33 2q25 2 61 2q14 0 27 4q8 6 16 6q6 0 23 9q4 2 10 4l8 2 q8 0 35 20q33 20 33 23q4 4 10 4t10 8q8 14 23 39q18 27 22 45q0 4 2 10l2 8q2 0 15 21q8 16 10 78q0 59 8 69q6 10 6 95q0 82 -8 94q-8 14 -10 26q-4 14 -6 15q0 2 -2 8q-4 6 -5 8q-2 10 3 19q4 12 2 22q0 8 -7 21q-6 6 -6 14t-8 12q-6 4 -20 19q-10 10 -11 16l-12 12 q-18 12 -35 29q-27 20 -32 18q-8 -2 -22.5 10.5t-61.5 12.5q-46 0 -60 6zM532 1077q6 6 27 6q23 0 37 -12q10 -10 20 -10q12 0 25 -6q16 -4 33 -4q12 0 33 -9q18 -14 22 -22q10 -12 29 -23q20 -8 24 -16t23 -16q20 -12 20 -15q4 -8 15 -14q16 -10 24 -10q12 -4 23 0 q8 0 12 12t4 31q-2 12 2 41q4 25 8 28q8 4 25 0q8 -2 29 -2q16 4 22 11q4 4 25 8h33q14 -2 18 -15q4 -14 10 -20t6 -102q0 -92 -8 -109q-6 -10 -6 -53q2 -23 2 -54v-15t-1 -32.5t-1 -38.5q-2 -43 -2 -55q0 -23 6 -29q8 -10 8 -26q0 -18 -6 -29q-4 -16 -6 -74q0 -61 8 -69 q8 -12 8 -19q0 -10 -10 -30q-8 -16 -6 -45q0 -27 -8 -41q-8 -16 -6 -37q0 -23 6 -35q0 -2 8 -31q0 -35 -2 -57q-4 -39 0 -59.5t4 -42.5q4 -31 8 -37q0 -2 3 -8.5t3 -8.5q0 -6 -10 -12q-8 -8 -8 -39q0 -29 4 -41q4 -14 -2 -31q-2 -20 4 -39q6 -20 2 -24t-4 -12q0 -6 -6 -13 q-8 -8 -12 -8q-10 0 -17 -6q-12 -8 -14 -8q-4 0 -16 -4q-4 -2 -29 -8q-10 -2 -12 -3q-6 0 -19 13l-22 22q-8 8 -19 8q-6 0 -10 7v10q0 10 -1 28.5t-1 34.5q0 68 4 80t4 21q0 27 2 49q0 39 4 47q4 4 2 22q-4 23 -2 41q0 27 -2 33q-4 12 0 22.5t0 28.5q-2 18 -16 21 q-16 4 -29 4q-16 2 -20 -8l-17 -17l-22 -14q-12 -8 -30.5 -26.5t-43.5 -18.5t-39 -16q-16 -16 -35 -15q-18 4 -26 -4l-11 -4l-18 -6q-23 -4 -33 -2q-23 4 -39 2q-23 0 -39 8q-18 8 -30 6q-10 -2 -37 11q-20 12 -31 12q-2 0 -18 12q-18 12 -35 21l-37 18q-16 8 -26.5 18.5 t-18.5 10.5q-6 0 -19 12q-8 8 -20 29q-6 16 -12 22t-6 8q0 6 -11 21q-12 20 -12 24q0 8 -2 13l-23 43q-4 12 -12 29.5t-8 19.5q0 8 -8 20q-6 8 -6 47v46q0 25 2 45q0 43 -4 57q-8 16 -9 35v10q0 12 4 22q6 18 7 35q0 29 8 39q8 16 8 25q0 16 6 24q4 14 15 21q8 8 8 28.5 t8 28.5q8 12 6 26.5t6 28.5q6 12 19 41l12 29q6 6 14 6q10 4 25 15q16 10 26 24q23 18 48 31q33 16 40 16q14 0 23 11l29 14q25 6 53 6q10 0 28.5 1t20.5 1q12 4 16 8z" />
<glyph unicode="r" horiz-adv-x="782" d="M635 1079q12 2 45 2q31 -4 37 -8q10 -2 14 -14q2 -6 6 -31q4 -12 4 -17t-4 -14q-4 -8 -4 -24q0 -14 -8 -27q-6 -10 -20.5 -20.5t-18.5 -5.5q-6 0 -12 -7q-8 -8 -58 -8q-45 0 -59 -8q-8 -8 -14 -8q-2 0 -17 -10q-12 -8 -28 -7q-14 2 -25 -4q-12 -6 -18 -6q-8 -2 -19 -16 q-2 -4 -10 -15.5t-10 -15.5q-12 -16 -21 -35q-2 -6 -4 -16t-2 -12q-4 -10 -10 -15q-12 -23 -14 -32q-8 -25 -9 -70q2 -25 2 -55v-41q0 -29 -6 -47q-8 -16 -2 -37q4 -25 4 -56q0 -39 -2 -45q0 -10 -6 -22q-6 -6 -6 -13q0 -4 8 -16q8 -10 8 -104q0 -31 -1 -75t-1 -48 q0 -31 -14 -47q-16 -16 -35 -17q-8 -2 -12 -2q-12 0 -23 8q-16 8 -30 9q-16 0 -25 18q-10 16 -20 21q-12 8 -14.5 10t-2.5 59q0 84 2 115q0 59 6.5 65.5t6.5 31t-7 28.5q-8 4 -8 8q4 6 10 12q8 16 8.5 24.5t-8.5 29.5q-8 14 -8 49q4 27 -2 43q-2 6 -2 11t2 9q4 12 4 84 q0 70 6 82q6 10 7 49q0 31 -9 51q-6 14 -6 123q0 82 2 96.5t13 18.5q12 8 14 10q4 4 20 4q20 0 31 -8q8 -6 33 -4q23 2 35 -10q10 -12 12 -37v-39q0 -12 4 -29q4 -20 14 -26q6 -8 19 -15q10 -8 20 -4q10 0 17 13q16 25 28 38q20 27 50 54q27 27 36 26q6 0 15 9q6 6 12 6 q2 0 8 6q2 6 14.5 6t24.5 6z" />
<glyph unicode="s" horiz-adv-x="811" d="M375 1057l12 8q4 -2 6 -6q6 -6 13 -6q10 0 24 -6q16 -8 74 -9q55 -2 63 -8q4 -4 17 -10q4 -2 14 -12q8 -12 25 -17q14 -8 18 -14q0 -6 12 -19q10 -10 21 -36q8 -29 8 -45q2 -20 -12 -33q-12 -10 -54 -13q-33 0 -40 2.5t-17 10.5q-14 14 -27 18q-6 0 -18 6q-6 12 -6 17 q0 14 -2 18q-4 10 -14 17q-14 10 -23 10q-8 0 -20 8q-10 10 -39 10q-20 0 -54 -8q-27 -10 -37 -20l-24 -25q-4 -6 -21 -31q-8 -23 -8 -67q0 -43 6 -60q6 -8 7 -18q0 -6 6 -12q8 -4 32 -29q33 -33 43 -41q14 -14 23 -14q8 0 10 -7q6 -6 19 -6q16 -4 22 -10t16.5 -6t32.5 -23 q20 -20 27 -20q4 0 25 -12l28 -15q6 -6 17 -6q6 0 22 -8q16 -6 27 -16q14 -14 24 -17q16 -4 23 -12q8 -6 8 -16t10 -21q8 -12 15 -39q4 -29 10 -35q6 -8 6 -26q0 -20 -6 -29q-6 -8 -8 -51q0 -43 -6 -58q-4 -16 -13 -28q-8 -16 -8 -20.5t-37 -45.5q-45 -45 -57 -55 q-12 -14 -17.5 -17.5t-15.5 -0.5q-10 2 -20 -5q-10 -8 -39 -14q-41 -10 -56 -12q-6 0 -69 -6q-45 0 -58 6q-14 8 -28 6q-16 0 -25 8q-12 8 -16 8q-8 0 -19 11q-14 10 -20 10q-4 0 -17 12q-8 10 -30 27q-23 14 -25 26q-2 8 -16 27q-14 18 -15 31q-2 16 -14 28q-14 14 -14 25 q0 6 4 14q10 6 10 21q2 12 19 14q6 2 30 2q39 0 66 -2q45 0 51 -6q8 -8 8 -10t8.5 -14.5t8.5 -30.5q2 -18 10 -27q10 -6 10 -16q0 -8 6 -13q8 -4 12.5 -14t18.5 -10t16 -6q2 -2 6.5 -5.5t6.5 -3.5q8 -4 51 -4q39 0 53 9q12 12 16 14l9 8q8 10 12 14q14 23 14 29t6.5 12.5 t6.5 14.5t6 14q8 6 10 49q2 45 -6 55q-8 12 -8 19q0 2 -9 27q-14 20 -32 36q-25 20 -45 31q-20 12 -29 12q-4 -4 -12 5q-8 6 -23 10q-12 8 -20 16q-10 10 -15 10l-4 2q-6 4 -10 5q-8 8 -16.5 8t-24.5 10q-16 8 -25 16q-4 2 -11 6.5t-11 4.5q-16 4 -29 16q-18 14 -26 16 q-14 4 -26.5 16.5t-12.5 18.5q0 8 -11 19q-12 12 -18 28q-10 18 -6 29q0 10 -8 27q-8 12 -9 75v31q0 31 5 35q0 2 5 10t7 12q6 8 12 27q0 12 14 27q10 14 48 53q33 33 41 33t14 10t14 6q8 0 20.5 6t22.5 17q8 8 21 6q8 0 24 -4q17 0 23 6z" />
<glyph unicode="t" horiz-adv-x="796" d="M406 1303q18 6 20 6q12 -6 14 -11q8 -10 9 -41q0 -27 -5 -55q-4 -23 0 -37q4 -16 5 -53q0 -43 6 -53q10 -14 20 -17q4 -2 35 -6q18 -2 33 6q14 8 73 11q57 0 70 -4q10 -6 12 -21q4 -16 4 -22q0 -2 1.5 -11.5t1.5 -15.5q0 -23 -9 -35q-12 -16 -24 -20q-16 -4 -88 -4 q-43 -2 -95 -2q-20 0 -28 -9q-8 -8 -9 -33.5t-3 -173.5v-206v-64q-2 -55 -9 -63q-6 -12 -6 -35q0 -27 8 -51q10 -31 11 -50q-2 -20 6 -28q8 -12 8 -17q0 -8 8 -22l10 -19q2 -2 107 -2q78 0 93 -1t26 -11q10 -8 14 -20q0 -16 1 -24.5t1 -14.5q0 -8 -10 -31q-16 -25 -23 -27 q-8 -4 -45 -4q-41 -4 -53 -6q-12 -6 -51 -6h-19q-25 0 -41 2q-23 4 -32 14q-16 8 -26.5 8.5t-27.5 10.5q-23 16 -41 33q-27 18 -34 32q-8 8 -17 29q-4 6 -10 19.5t-6 15.5q-4 16 -4 32.5t-8.5 33t2.5 32.5q8 16 8 100t-8.5 96.5t-6.5 35.5q0 20 9 36q6 10 4 27q-2 6 -2 25 q2 4 2 102v47.5v38.5l-2 16l2 19v33q2 45 -13 59q-18 18 -20 23q-8 10 -37 10q-16 2 -51 2h-31q-6 -2 -24 2q-16 0 -29 8q-12 6 -19 21q-8 16 -8 30v27q0 8 10.5 12t18.5 12q8 6 84 7q78 2 86 8q10 4 22 24q14 20 13 60q-2 20 -2 47v31q2 23 10 26q2 2 12 9.5t15 11.5 q16 16 22 14t14.5 6t20.5 8q13 -1 25 7z" />
<glyph unicode="u" horiz-adv-x="1280" d="M236 1063q16 12 24 12q6 0 16 -10q8 -10 39 -8q31 4 41 0q10 0 21 -17q10 -12 10 -30q0 -16 4 -21q4 -6 0 -53q-2 -45 -10 -55q-6 -12 -6 -90t8 -93q6 -10 4 -26q-4 -16 -8 -27q-6 -12 -4 -29q0 -31 -2 -45q-2 -20 -1 -24t9 -12q8 -6 9 -11.5t-1 -27.5q0 -10 -1 -24 l-1 -13v-80q0 -57 1 -68.5t11 -21.5l11 -19q10 -18 14 -28q12 -29 35 -54q20 -20 47 -30q23 -8 74 -8h73q20 0 45 8q14 6 31 6q8 0 29 12q29 14 39 19q12 4 32 20q14 14 15 29q0 18 6 24q4 10 12 11q10 2 10 14q0 2 2.5 7t4.5 7q6 12 8 21q0 14 4 34q4 23 8 27t6 191 q0 182 -4 223q-2 18 -2 37q0 27 4 53q4 35 3 42t-9 17t-6 27q0 12 6 24.5t6 16.5q0 6 4 18q6 10 15 15q6 2 73 6q49 0 59.5 -2t22.5 -13q12 -12 14.5 -21t2.5 -50v-72v-13v-24.5v-25.5q4 -45 -4 -54q-6 -6 -7.5 -21t-1.5 -101q0 -117 6 -123q4 -4 7 -56v-53v-102 q2 -92 8 -105q6 -10 6 -84q0 -78 -2 -82q-6 -12 -25 -24q-25 -16 -32 -15q-8 2 -21 -6q-12 -8 -27 0q-14 8 -32 8q-14 -2 -39 7q-14 6 -18.5 10t-10.5 18q-10 16 -10 25q0 6 -4 6q-4 4 -35 4q-33 0 -41 -6q-8 -4 -23 -16l-12 -13q-6 0 -12 -6q-12 -8 -23 -8q-18 0 -30 -6 q-18 -10 -29 -23q-10 -12 -16 -12q-2 0 -9 2q-6 4 -28 4q-14 0 -43 -2q-35 -2 -43 -2q-18 0 -27 8q-8 10 -29 8q-25 0 -32 2q-12 2 -27 17q-12 12 -16 12t-17 -4q-14 -2 -30 8q-20 16 -23 19q-6 6 -12 6q-8 0 -25 12q-12 12 -18 12q-4 0 -8 9q-4 10 -9 22q-4 14 -16 25 q-14 10 -14 16q0 10 -7 16q-8 10 -6 23q2 10 -4 20q-8 8 -8 29q-4 25 -8 27q-4 8 -4 26q0 4 -1 19.5t-2 42t-1 45.5v48v42v31v65q0 39 -2 47q0 2 1 27t1 43q2 31 2 70v30v21q0 25 -2 45q0 35 -9 55q-6 12 -6 31q6 18 11 27q6 10 6 22q0 10 8 18q7 7 27 19z" />
<glyph unicode="v" horiz-adv-x="880" d="M737 1018q8 6 47 6l41 -4q4 -2 21 -19q10 -14 10 -18q0 -2 -4 -12q-6 -16 -6 -29q2 -12 -15 -39q-16 -29 -16 -37q0 -10 -6 -18q-4 -8 -4 -27q0 -20 -8 -28q-6 -8 -4 -23q2 -12 -9 -20q-10 -10 -12 -27l-6 -31q-4 -16 -12 -22q-10 -10 -10.5 -28.5t-6.5 -23.5 q-2 -2 -6 -40q-2 -37 -8 -52q-8 -10 -8 -22q0 -4 -8 -21q-6 -10 -5 -34q2 -20 -6 -29q-6 -6 -6 -17q0 -12 -8 -16q-8 -8 -8 -12q0 -6 -8 -21q-6 -12 -15 -24q-6 -10 -4 -23q2 -8 -2 -26q-6 -18 -10 -27q-8 -14 -6 -31q2 -12 -4 -28q-8 -16 -9 -23q-2 -2 -4 -10t-2 -10 q-4 -14 -10 -25q-4 -8 -4 -14q0 -8 -6 -15q-4 -8 -4 -22.5t-13 -28.5q-12 -12 -16 -29q-6 -16 -12 -16q-2 -2 -10.5 -3t-10.5 -1q-6 0 -22 -10q-12 -6 -23 -4q-8 2 -26 -2q-8 -2 -11 -2q-6 0 -16 10t-29 10q-20 0 -24 4q-4 6 -14.5 6t-16.5 6q-4 2 -23 25q-12 23 -10 31 q0 12 -4 18q-8 8 -8 33q-4 27 -16 47q-12 29 -13 35q0 12 -6 20l-16 33q-10 20 -10 31q2 6 -5 22q-6 10 -6 20.5t-10 20.5q-8 12 -6 21q2 4 -2 22q-2 8 -12 23q-8 6 -17 37q-8 23 -8 43q0 16 4 20q0 6 -8 12q-10 10 -10 23q-4 12 -4 20q-2 4 -11 17q-8 8 -4 14q0 12 -4 19 q-6 16 -14 24q-8 10 -8 31q0 18 -9 29q-8 6 -6 32q2 23 -12 49q-12 29 -18 35q-6 18 -9 33q-6 20 -12 31q-8 8 -8 31q2 23 -6 36q-6 12 -6 23q4 8 18 18q14 12 51 15q39 0 53 -6q16 -8 29 -21q14 -14 12 -26.5t5 -18.5q2 -2 10 -8l8 -8q12 -8 14 -45q0 -35 6.5 -45.5 t10.5 -30.5q0 -16 6 -29q6 -2 6 -10q0 -4 14 -23q14 -23 15 -34q0 -8 8 -25q8 -10 8 -21q-4 -8 2 -18q4 -10 10 -14q4 0 2 -31q-2 -27 4 -43q6 -8 11 -33q0 -23 8 -31q10 -14 12 -24q6 -12 6 -23q0 -6 8 -22q0 -4 6.5 -19.5t8.5 -23.5q6 -23 6 -37q0 -10 8 -18q6 -8 6 -22.5 t11 -29.5q8 -18 24 -26q14 -6 29 -4q14 4 24 14q10 12 13 29q4 20 8 24l12 25q8 20 4 33q0 16 8 24q8 10 11 43q4 31 10 41q0 2 3 8t3 8.5t4 18.5q6 12 6 31q0 16 8 26q10 10 11 23q0 10 4 18q4 2 8 27q0 16 8 37q8 16 8 28q0 10 4 27q6 25 9 35q0 18 6 31q6 6 6 16t8 22 q6 10 6 31q0 18 6 27q8 4 11 31q4 31 8 36q8 8 8 14.5t10 20.5q10 16 23 19q12 4 18 10z" />
<glyph unicode="w" horiz-adv-x="1560" d="M43 1028q12 12 20 12h9q12 0 49 -4q25 -2 32 -4t17 -12q14 -8 29 -33q12 -20 16 -22q4 -4 4 -31q0 -25 8 -41q12 -18 15 -31q4 -4 8 -35q0 -23 8 -39q6 -31 6 -45q0 -27 8 -34q8 -12 14.5 -24.5t6.5 -43.5t8 -35q8 -8 8 -14t8 -19q0 -2 4.5 -12t6.5 -14q6 -31 6 -39 q2 -20 10 -31q4 -4 10 -16q4 -10 11 -15q6 -4 4 -32.5t10 -51.5q14 -29 14 -38q0 -18 13 -35q14 -27 20 -31q6 -10 25 -12q16 -2 22 4t4 18q-2 14 6 21q10 10 10.5 36.5t4.5 34.5q6 6 6 18.5t8 24.5q10 14 10 23q0 10 6 23q8 14 7 34q-2 23 6 37q6 12 6 31q0 16 10 29 q8 12 8 20q0 10 6 21q4 16 2 26q-2 14 9 43q4 20 18 47q6 14 6 23q-2 4 2 26q4 27 10 41q2 14 13 33q6 12 6 25q0 14 8 20q6 6 4 25q-2 16 8 33q8 16 8.5 20t6.5 10q8 4 8 15q4 12 8 14q2 2 29 10q23 6 45 0q23 -8 61 -8q29 2 35 0t14 -10q8 -12 9 -19q0 -8 8 -16 q6 -4 6 -14q0 -8 10 -15q10 -6 10 -20q-2 -10 7 -23q10 -14 12 -24q2 -6 8 -33q0 -12 6 -24.5t6 -26.5q4 -23 15 -56q14 -37 14 -47q0 -12 6 -24q8 -16 8 -29q0 -14 9 -25q8 -12 8 -14l6 -12q4 -8 8 -35q0 -33 -2 -41q-4 -16 2 -27q6 -12 8 -14q6 -6 6 -22q0 -18 9 -35 q2 -6 5 -16.5t3 -12.5q0 -12 6 -31q8 -20 8 -26q0 -4 4 -12.5t8 -28.5q0 -18 8.5 -30.5t8.5 -24.5q0 -16 2 -21q2 -2 7 -6t7 -6q18 -6 25 -6q10 0 16 6t6 18q0 4 1 12.5t3 10.5q2 8 -2 16q-2 6 7 12q6 6 10 23q0 10 6 22q4 12 4 29q0 20 10 43q8 23 6 43q0 20 4 29 q8 8 13 20l8 33q2 4 6 17.5t6 17.5l7.5 15t7.5 16q8 16 8 40.5t8 32.5q6 8 6 31q0 20 4 21l6 10q4 8 4 37q-2 25 5 28q6 2 6 25q0 18 10 31q8 10 8 26q0 18 8 27q6 8 6 26t7 23q6 10 8 25q4 16 8 20t4 18q0 16 8 25q10 10 19 10q10 4 18 -4q10 -6 25 -10q14 -4 22 4 q10 10 29 12q20 2 33 -8q10 -10 10 -16q0 -10 -6 -19q-8 -12 -8 -30q-4 -23 -17 -41q-14 -20 -12 -47q0 -31 -6 -43q-8 -12 -8 -29t-5 -25q-2 -2 -7 -11t-7 -13l-12 -31q-2 -4 -5 -14.5t-3 -14.5q-4 -6 -11 -18q-6 -6 -6 -29q0 -16 -8 -37q-8 -14 -12 -41q0 -23 -8 -34 q-6 -12 -7 -17q0 -10 -6 -22q-8 -16 -8 -23q0 -10 -6 -16q-8 -8 -8 -17q0 -10 -6 -22q-8 -12 -9 -27q0 -12 -4 -20q-8 -4 -8 -19q0 -8 -8 -28q-8 -16 -8 -29q0 -14 -6 -29q-4 -16 -9 -16q-2 0 -10 -19q-10 -20 -12 -26q-6 -10 -6 -24.5t-10 -39.5q-12 -25 -13 -28 q2 -4 -8 -15q-8 -6 -8 -20t-17 -29q-20 -20 -26 -28q-10 -10 -35 -11h-43q-49 2 -58.5 3t-13.5 8q-10 10 -16 10q-8 0 -10 2t-13 20q-6 14 -6 27q0 8 -6 18q-4 8 -8 35q-4 29 -10 49q-2 6 -7.5 19.5t-5.5 15.5q-8 12 -8 23q4 10 -4 18q-2 4 -6 43q-2 37 -8 43q-8 8 -8 31 q0 20 -9 26q-6 2 -6 22.5t-6 33.5q-6 18 -6 20q0 8 -6 21q-6 8 -10 37q0 27 -9 41q-6 12 -6 24q0 10 -8 19q-6 6 -4 18q4 14 -6 31q-8 16 -8 37q-4 31 -9 34q-6 8 -6 25q0 10 -6 20q-10 6 -10 25q-4 16 0 31q2 12 -2 16t-22.5 4t-22.5 -4q-2 -2 -6 -18q-6 -23 -17 -41 q-14 -25 -14 -39q0 -4 -1 -10l-1 -5q-6 0 -6 -16q-2 -8 -2 -27q0 -14 -8 -22q-6 -8 -11 -27q-6 -25 -8 -35q-6 -16 -6 -34t-6 -27q-8 -14 -4 -25q4 -12 -4 -22l-11 -21q-4 -12 -4 -32q0 -25 -6 -33q-4 -12 -4 -21q2 -8 -8 -22q-10 -16 -10 -23q0 -10 -7 -16q-6 -10 -6 -25 q4 -16 -6 -28q-6 -10 -6 -25q0 -12 -10 -26q-8 -14 -8 -38t-7 -38l-14 -29q-8 -16 -8 -27q0 -8 -4 -24q-2 -4 -4 -12.5t-4 -10.5q-4 -10 -19 -26q-16 -16 -16 -19q0 -2 -25 -6q-23 0 -30 -8q-4 -4 -13.5 -4t-29.5 4q-37 0 -50 8q-14 4 -26.5 16.5t-10.5 18.5q0 6 -6 12 q-2 2 -8 7.5t-8 7.5q-8 8 -8 53q0 41 -6 51q-6 12 -7 21q-4 16 -12 22t-6 19q2 8 -2 18q-2 6 -10 27q-2 10 -2 22q2 2 -4 21l-13 24q-6 10 -10 21q0 4 -6 16q-6 6 -6 23q-4 16 -8 24q-4 10 -9 29q0 20 -14 43q-12 29 -12 35q0 12 -6 24q-2 4 -11 29q-4 20 -8 24l-6 12l-4 7 q-6 6 -10 22q-4 18 -2 25q0 12 -6 18q-8 10 -9 29q0 20 -12 43q-14 27 -14 47q-2 12 -2 29q0 6 -9 14q-6 12 -6 21q0 12 -12 37q-14 27 -14 59v22q0 15 12 27z" />
<glyph unicode="x" horiz-adv-x="1054" d="M856 1061q6 6 23 6q18 0 26 -6q16 -8 30.5 -8t31.5 -13q14 -14 14 -28.5t-8 -20.5q-6 -6 -6 -12t-15 -21q-4 -6 -15 -19t-13 -15q-14 -14 -15 -21q0 -4 -12 -16q-18 -25 -20 -29q-6 -14 -17 -20q-8 -4 -14 -4q-4 0 -10 -7q-4 -4 -9 -18l-18 -27q-14 -10 -14 -18 q0 -6 -11 -21q-6 -12 -30 -36q-12 -10 -27 -25q-6 -2 -20 -29q-14 -23 -14.5 -33t-17 -26t-13.5 -27q2 -2 6 -39q2 -18 6 -25t31 -34q37 -33 43 -39q2 -2 14 -18q4 -14 10 -25q8 -8 8 -14t8 -13q8 -4 13 -18q2 -10 20 -29q4 -4 13.5 -14t11.5 -14q14 -18 20 -21q8 -6 15 -18 q4 -16 22 -35l33 -33q8 -12 14 -22q0 -6 8.5 -10.5t24.5 -20.5q18 -18 27 -35q10 -14 10 -20q0 -2 -8 -27q-8 -18 -21 -18q-10 0 -16 -7q-8 -8 -12 -6q-8 0 -21 -6q-10 -4 -14 -4t-13 4q-10 6 -53 8q-29 2 -38 6.5t-36 28.5l-40 43q-4 4 -5 17q0 8 -10 22q-10 10 -14 25 q-4 12 -19 20q-8 2 -22 12q-10 6 -10 15q0 10 -19 28q-16 18 -16 33q0 12 -19 31q-16 16 -14 31q4 12 -8 22q-12 8 -23 19q-8 8 -37 24q-33 12 -36 12q-8 0 -21 -4q-12 -6 -14 -16q-8 -12 -25 -29q-16 -20 -16 -22q0 -4 -17 -21q-14 -14 -14 -24q4 -6 -4 -15q-8 -10 -12 -18 q-8 -12 -15 -14q-12 -12 -24 -37q-16 -35 -20.5 -35t-14.5 -10l-27 -27q-14 -10 -14 -31q0 -16 -27 -41q-25 -25 -34 -24q-2 -2 -27 -6q-16 -2 -26.5 -12.5t-14.5 -8.5q-8 4 -33 4q-25 2 -43 23q-18 18 -16 24l2 11q2 8 4 14q8 20 16 29q10 10 11 20q0 6 6 19q6 6 10 6 q2 0 18 12q18 14 29 18q14 4 21 15q10 6 14 16q4 8 4 21q0 16 12 30q18 18 23 21q12 12 14 20q8 16 29 37q23 27 26 29q6 4 9 14q6 14 12 23q6 10 14 10t15 14l18 31q8 14 18 23q6 4 7 10q-4 8 10 26q12 23 10 37.5t-14 22.5q-12 10 -12.5 14t-24.5 33q-23 31 -51 55l-21 21 l-10 12q0 6 -10 10q-8 6 -13 19q-8 16 -16 24q-14 10 -16 10q-4 0 -15 19q-12 12 -36 41q-25 25 -25 33q0 10 -8 14q-6 6 -6 16q0 6 -9 15q-6 6 -14 18q-6 6 -6 16q0 6 -12 19q-14 10 -15 24q0 16 17 33q10 10 17 13.5t32 3.5h45q76 0 88 -4q14 -10 31 -29q20 -25 20 -43.5 t8 -32.5q12 -18 47 -53q43 -43 43 -51q6 -14 9 -15l8 -16q0 -8 14 -19q14 -4 19 -16q4 -6 10 -18q2 -2 8 -11.5t8 -11.5q10 -16 27 -22q23 -4 31 -2q16 4 22 12q8 8 16 12q4 2 13 14q4 14 14 29q8 14 23 21q14 8 14 12t18 22q20 14 25 27q4 14 2 18q0 10 14 23l19 25 q4 12 16 24q14 14 15 25q0 8 10 22q18 18 26 29q16 16 29 22l25 9q14 0 18 8z" />
<glyph unicode="y" horiz-adv-x="1040" d="M932 1090q10 10 33 10q20 0 26 -6.5t10 -20.5q4 -12 5 -47v-20q0 -16 -7 -31q-8 -14 -8 -30.5t-14 -29t-14 -20.5q0 -10 -8.5 -30.5t-14.5 -28.5q-6 -6 -6 -20.5t-16 -37.5q-14 -29 -15 -39q0 -12 -4 -16q-6 -12 -12 -31q-12 -35 -25 -55q-16 -37 -16 -49q-4 -16 -6 -23 q-2 -2 -10.5 -26.5t-8.5 -32.5q0 -10 -10 -30.5t-14 -33.5q0 -10 -9 -18q-6 -2 -6 -14q0 -8 -10 -19q-10 -12 -8 -29q0 -14 -8 -28q-10 -10 -11 -21q0 -14 -6 -24q-10 -16 -6 -23q4 -10 -6 -16q-6 -12 -6 -17q0 -6 -6 -12q-6 0 -19 -31q-10 -27 -20 -36q-2 -2 -12 -17 q-4 -16 -5 -26q0 -14 -6 -21q-8 -8 -8 -12q0 -6 -6 -12q-4 -8 -4 -16.5t-10 -14.5q-10 -8 -4 -19q2 -4 2 -16q-4 -10 -13 -12q-8 -4 -6 -13q2 -8 -8 -28q-8 -20 -8 -25q0 -6 -8 -14q-6 -10 -6.5 -20.5t-12.5 -30.5q-12 -18 -12 -26.5t-10 -18.5q-8 -14 -9 -29q0 -12 -4 -21 q-8 -8 -8 -16l-14 -29q-4 -8 -29 -39q-20 -18 -31 -18q-14 0 -20 -2q-2 0 -27 -6q-8 -6 -24 -6q-8 0 -17 8q-8 6 -22.5 6t-26.5 14q-10 16 -4 27q8 16 8 23q0 14 6.5 22t10.5 27q10 20 12 22q6 6 18 23q6 10 13 30q4 23 8 27q8 12 8 25q0 18 6 26q6 12 15 25q8 8 4 12 q0 4 6 12q6 4 10 33q0 6 1 26.5t1 28.5q2 31 -8 43q-10 10 -8 31q2 18 -11 29q-10 4 -16 18q0 10 -8 19q-4 6 -17 30q-8 16 -8 37t-6 23q-4 4 -8 12q0 8 -16 21q-12 16 -13 22q0 10 -10 17q-8 8 -6 20t-4 23q-6 12 -6 14q0 4 -9 16q-8 8 -8 15l-6 12q-6 6 -6 16q0 8 -4 25 l-14 29q-8 12 -21 43q-12 29 -18 34.5t-4 12.5q0 6 -7 14q-8 8 -8 23q-6 18 -10 28q-2 4 -9 18.5t-11 20.5q-12 20 -12.5 28.5t-12.5 16.5q-12 16 -14 21l-9 16q-8 8 -8 28.5t-6 34.5q-6 12 -18 25q-6 6 -7 12q4 4 -8 17q-10 10 -14 18q-4 12 -4 27q0 18 -8 26 q-10 16 -11 25q-2 8 -2 14t2 9q0 4 9 8q2 2 20 6q2 0 41 6q25 4 39 -2q8 -4 49 -45t41 -49t6 -13l10 -10q6 0 11 -18q8 -16 12 -21q6 -4 10 -18q4 -12 4 -27q0 -12 14.5 -34.5t14.5 -32.5q0 -6 10 -23q2 -4 8.5 -11t8.5 -9q6 -4 6 -27q0 -20 8 -31q10 -10 16 -34 q4 -18 11 -33q6 -8 6 -20.5t2 -16.5q4 -4 16 -21q12 -14 10 -30q0 -16 7 -27q10 -20 14 -31q8 -20 8 -26q0 -12 2 -15q6 -6 10 -8q8 -4 23 -35q16 -31 22 -34q6 -6 7 -15q0 -10 6 -16q4 -12 4 -19q0 -8 8 -20t25 -12q16 -2 24 2t12 16q6 18 9 29q10 20 12 22q4 8 4 22.5 t6 24.5q4 12 4 27q0 12 13 27l10 14l2 8q2 6 4 10q8 16 8 21q0 6 6 16q4 8 4 23q0 12 7 24q8 6 8 15q0 2 8 10q6 6 6 18q0 10 12 39q14 25 15 31q0 2 8 14q10 14 10 33q4 23 6 25q4 0 13 20q8 16 8 35q0 10 14 45l16 33q0 6 7 8q8 8 8 20q4 16 8 19q6 6 10 31q8 29 15 34 q10 14 12 25q4 10 14 25q12 8 12 22q0 10 7 14q8 4 24 -2q21 -1 29 7z" />
<glyph unicode="z" horiz-adv-x="970" d="M178 1042q2 2 8.5 2t12.5 -2q10 0 18 -8q6 -4 115 -6q106 0 117 -8q6 -6 18 -4q10 0 27 8q14 6 38.5 6t30.5 -8q4 -8 31 -8q8 0 18 2h11q4 4 22 -2q18 -4 37 4q16 10 51 12q33 2 43 -8q8 -8 35 -6q29 0 35 -4q10 -6 14 -17q6 -10 6 -34q-4 -20 -8 -35q-6 -12 -4 -29 q0 -18 -12.5 -30.5t-26.5 -16.5q-12 -4 -18 -10q-6 -4 -15 -31q0 -4 -3 -14.5t-3 -12.5t-12 -14q-16 -12 -19 -20q-2 -2 -9 -12.5l-11 -16.5q-16 -16 -16 -25q0 -6 -11 -16q-8 -10 -6 -24.5t-4 -18.5l-10 -2h-10q-6 0 -19 -21q-10 -20 -16 -20q-2 0 -15 -23q-2 -4 -8 -15 t-8 -13l-12 -6q-6 0 -10 -9q-2 -4 -2 -16q2 -6 -9 -12q-6 -2 -28 -21q-14 -14 -22.5 -30.5t-10.5 -16.5q-6 0 -12 -10q-6 -4 -13 -21q-8 -16 -24 -32q-23 -27 -23 -31t-18 -23l-25 -30q-12 -12 -16 -13q-12 -6 -25 -26q-18 -27 -18 -33t-8 -23q-10 -14 -9 -28q4 -16 13 -19 q6 -6 30 -14q23 -6 50 -6q29 0 36 10q8 8 37 6q31 -4 35 -8q6 -6 127 -6q119 0 129 6q10 8 47 8q35 -2 47.5 -12t14.5 -39v-18q0 -10 -13 -23q-12 -10 -36 -10q-27 2 -37 -6q-14 -10 -50 -10.5t-51 -8.5q-12 -4 -22 -2q-8 4 -17 4q-6 0 -18 -4q-12 -2 -31 4q-20 6 -63 6h-53 q-72 0 -85.5 -1t-17.5 -7q-4 -8 -8 -8q-2 0 -23 8q-23 10 -79 10h-31h-33h-2h-20q-20 0 -31 -10q-10 -8 -27 -2q-16 6 -29 21q-10 14 -8 40.5t-4 34.5q-6 6 -6 17q0 16 12 24q10 6 11 13q0 4 12 20q10 14 18 19q10 4 11 8q0 2 4 18q4 12 12 25q10 10 14 22q4 8 15 13 q18 12 22 16q16 12 19 14l12 13q6 18 8 26q4 16 16.5 28.5t12.5 22.5q0 8 8 21q2 2 11 12t13 15q16 20 17 24q4 8 22 29l27 35q8 16 33 41q23 23 26 36q8 16 19 25q12 12 12 36.5t4 29.5q6 6 31 6q27 4 29 6q4 4 8 16q4 16 14 19q12 4 19 14q8 8 8 20q4 18 12 29 q14 18 21 23q10 14 10 26q0 14 -4 23q-4 4 -17 8q-12 0 -24 8q-12 6 -29 6q-18 0 -22 -4q-10 -2 -19 0q-8 6 -20 0q-14 -6 -21 -2q-8 4 -24 4h-78q-72 0 -84 -2q-10 -2 -51 -2q-35 -4 -37 -6q-4 -4 -29 -2q-31 4 -41 10q-14 8 -14 33q-2 25 6 37q6 10 6 18q0 6 4 15 q4 10 21 20z" />
<glyph unicode="{" horiz-adv-x="847" d="M686 1460q6 2 14 4l7 2q2 0 26 -4l21 -8q0 -6 -2 -10q-2 -2 -7 -29q-8 -20 -16 -31q-12 -12 -35 -14q-18 -2 -28 -8q-6 -6 -17 -6q-10 0 -12 -6q-4 -4 -19 -9q-10 -2 -18 -14q-14 -20 -35 -39q-27 -27 -26 -31q0 -2 -9 -14q-8 -6 -8 -29q0 -12 -6 -30q-6 -14 -6 -94 q-4 -90 -4 -97q-2 -8 -8 -20q-4 -12 -4 -31q4 -31 6 -33q4 -10 2 -28q-4 -16 -4 -45q0 -31 -8.5 -39.5t-8.5 -22.5q-4 -14 -22 -33q-20 -25 -25 -28q-10 -6 -14 -17l-17 -16q-10 -4 -18 -16q-6 -10 -25 -23q-12 -4 -26 -14q-12 -6 -17 -6q-8 0 -10 -9q-2 -6 2 -20 q4 -10 13 -14q4 -4 22 -5q16 2 23 -4q10 -10 14 -12q8 -2 22 -16l43 -45q23 -23 27 -30t6 -26q4 -25 8 -30q6 -6 7 -31q0 -23 8 -31q8 -10 8 -49v-51v-109q0 -94 6 -100t6 -51q-2 -33 0 -39t15 -15q12 -8 18 -22q4 -16 12 -16q4 -2 13 -11q4 -4 14 -4t18 -8q6 -6 13 -6 q6 -4 10 -8q12 -8 18 -9q8 0 15 -6q8 -8 30 -6q20 2 37 -4q16 -4 19 -6q4 0 4 -4q0 -2 -2 -8q-4 -8 -4 -35q0 -25 -9 -31q-2 -2 -6 -2t-10 4q-4 2 -31 8q-27 4 -32 9q-12 6 -43 6q-35 4 -39 6q-6 6 -15 6q-2 0 -22 8q-14 8 -33 23q-14 14 -23 18q-8 2 -12 14q-2 12 -18 17 q-16 4 -27 20q-8 16 -10 19l-10 18q-6 16 -6 53q-4 35 -6.5 41.5t-8.5 6.5q-2 0 -10 8q-4 6 -4 80q0 70 6 82q4 6 2 20q-4 14 -8 47q-2 18 -2 47v45q0 23 -2 28t-13 19q-14 16 -14 29q0 8 -16 31q-16 16 -16.5 22t-12.5 11q-12 8 -20 16q-4 6 -17 12q-12 0 -31 15 q-25 14 -32 14q-8 2 -29 -2q-14 -4 -22 4q-2 2 -21 14q-12 4 -12 27v10q0 10 10 25l20 20q4 4 25 2q18 -2 29 11q8 10 28 8q18 -2 37 14q20 16 25 16q8 0 24 21q18 18 19 31q0 8 12 28q12 14 16 33q6 25 9 37q2 20 6 156q0 133 6 159q4 25 4 35q0 8 4 29q2 20 17 33 q12 12 12 24t16 27q18 18 20.5 30.5t20.5 30.5q16 16 31 17q10 0 27 12l28 22q12 8 29 7q14 -2 26 10q16 10 33 10q19 0 35 8z" />
<glyph unicode="|" horiz-adv-x="499" d="M219 1409q12 8 17 8q10 0 30 -6q25 -2 31 -12q8 -8 8 -19q0 -49 2 -96v-113q0 -4 -1 -36.5t-1 -53.5q-2 -35 -2 -45q0 -20 8 -26q6 -8 6 -25q0 -14 -4 -31q-6 -8 -6 -26q0 -14 -8 -23q-10 -8 -10 -35q0 -29 10 -47q8 -18 8 -45q0 -14 -2 -61q-2 -84 -6 -105 q-6 -14 -6 -39q0 -20 8 -30q6 -8 4 -29q0 -16 -8 -29q-6 -12 -6 -131q0 -129 2 -135q4 -14 0 -33q-4 -16 0 -39q4 -29 4 -30q0 -23 -2 -39q-4 -39 -6 -43q-2 -6 -19 -19q-2 0 -11 -3t-11 -3q-10 0 -17 10q-12 18 -22 39q-14 31 -10 41q6 10 -4 27q-10 20 -7 35q2 8 2 18 l-4 99q0 23 -1 48t-1 42.5v19.5q0 27 2 37l11 31q6 14 4 55q0 43 -8 49q-8 12 -9 19q0 2 6 20q2 2 9 23q0 18 2 28q0 20 -6 29q-6 4 -7 57v31q0 20 7 35q10 12 6 37q0 20 -6 32q-6 8 -7 89q-2 25 -4 55v31q-2 2 -2 7t2 9q4 14 13 22q10 10 6 41q-2 31 -10 35q-6 6 -7 94 q2 90 9 99q4 4 4 12q-4 4 4 14q8 12 8 16.5t8 12.5z" />
<glyph unicode="}" horiz-adv-x="866" d="M106 1440q8 10 15 10h4q6 0 35 -4q27 -2 39 -14q8 -8 14 -10.5t35 -4.5q37 -2 47 -12q12 -12 29 -19q20 -12 38 -24q18 -10 23 -21q4 -8 23 -16q18 -10 18 -14q4 -8 4 -19q0 -12 12 -20q12 -6 15 -25q0 -4 6 -35q8 -18 2 -24q-4 -8 -4 -21q0 -10 8 -22q6 -6 6 -17 q0 -4 8 -12q6 -6 6 -26q0 -10 -2 -50q0 -68 -4 -84q-2 -6 -5 -17t-3 -13q-4 -12 0 -17v-14q2 -14 2 -25q-2 -31 6 -41q2 -4 4 -10l5 -8q0 -8 4 -16q6 -18 6 -29q0 -18 10 -27q10 -4 18 -16q6 -12 16.5 -12t28.5 -19q14 -20 22.5 -20t37.5 -15q33 -16 53 -16q25 0 39 -8 q14 -6 18.5 -16.5t2.5 -20.5q0 -16 -15 -35q-12 -20 -22 -24q-8 -4 -21 0q-14 0 -39 -13q-39 -23 -41 -24q-16 -8 -30 -6q-16 2 -21 -11q-2 -8 -14 -20l-15 -14q-6 -10 -8 -23q-4 -20 -10 -27q-8 -12 -8 -16q0 -8 -8 -21q-8 -10 -9 -26q0 -12 -6 -23q-4 -6 -4 -47 q0 -10 -1 -30.5t-1 -24.5q-2 -23 6 -31q8 -10 11 -33q0 -33 -3 -45q-4 -20 -10 -26q-4 -4 -4 -31q0 -25 -10 -35q-8 -10 -8 -28q0 -16 -13 -35q-10 -18 -14 -37q-4 -23 -14 -29q-12 -18 -17 -26q-10 -16 -10 -25q0 -2 -12 -14q-12 -8 -16.5 -8.5t-20.5 -16.5 q-16 -18 -33 -16q-14 2 -33 -8q-20 -8 -34 -7q-16 2 -27 -8q-6 -8 -31 -8q-20 0 -30 -10q-8 -8 -15 -8q-8 0 -16 12q-8 16 -10 41q-2 29 6 37q2 2 20 8q4 0 13.5 -1t13.5 -1q12 -2 20.5 6t12.5 8q2 0 8 6q12 6 31 6q25 2 34 11q8 8 9 16q0 10 10 16q4 2 24 29q14 23 15 29 q0 4 8 20q6 12 6 27q0 4 3 17.5t3 19.5q6 16 6 88v78v82q2 74 11 88q6 18 6 26q-4 12 2 23q2 14 14 16q10 4 10 20.5t6 26.5q4 8 25 17q18 8 29 24q14 14 18 16.5t19 2.5q14 -4 18 4q8 6 23 10q16 0 22 12q6 4 12 17q4 10 -2 22q-4 12 -10 12h-14q-10 0 -27 13q-14 8 -35 22 q-20 8 -30 9q-12 0 -21 8q-4 10 -2 14q2 6 -10 12q-14 10 -17 19q0 8 -4 16q-6 12 -14 21q-10 14 -10 20l-4 6q-2 8 -4 13q-8 16 -9 86v88v55q0 39 -8 49q-6 8 -8 64q0 47 -6 57q-6 2 -6 24q2 18 -15 35q-14 14 -16 28.5t-18 33.5q-14 14 -37 20q-18 2 -29 12q-8 10 -43 13 q-35 4 -37 6q-4 0 -22.5 18.5t-16.5 30.5q0 17 12 29z" />
<glyph unicode="~" horiz-adv-x="1345" d="M465 766q4 2 7 2t3 -2h17q10 0 26 -8q2 -2 10.5 -8.5t12.5 -8.5q10 -8 28 -8t27 -4q6 -6 10 -6q6 0 17 -10q10 -8 30 -8t35 -9q14 -4 21 -14q2 -6 14 -6q2 0 13.5 -3t17.5 -3q25 -8 26 -8q4 0 21 -9q4 -2 11 -4l7 -2l7 -2q8 -2 12 -4q16 -6 43 -6h30q57 0 65.5 4t20.5 4 q10 0 23 8q10 8 14 15q0 4 15 14q10 6 14 18q8 16 12 19q10 8 10 16q-2 8 9 19q10 12 28 14h33q12 0 20.5 -4t8.5 -10t-15 -25q-14 -18 -14 -39q0 -23 -8 -33q-4 -8 -17 -26q-10 -14 -18 -13q-10 0 -12 -6q-2 -4 -2 -16q0 -10 -6 -23q-8 -12 -15 -18q-4 -6 -16 -6 q-8 0 -23 -10q-12 -8 -16 -9q-2 0 -10 -8q-10 -10 -17 -10q-6 -2 -22 2q-6 4 -25 4q-4 0 -14 -2t-14 -4q-14 -4 -19 -8q-2 0 -5 -1l-3 -1q-6 0 -14 6q-8 8 -31 8q-20 0 -37 4q-8 6 -37 10q-25 6 -43 19q-16 14 -33 14q-12 -4 -30 0q-16 0 -33 14q-14 14 -35 15q-20 -2 -31 8 q-12 8 -24 14q-4 2 -13.5 6.5t-11.5 6.5q-12 6 -37 6q-14 2 -55 2q-12 -2 -31.5 -2t-34.5 2q-25 0 -31.5 -2t-21.5 -19q-20 -25 -30 -45q-14 -29 -15 -37q-2 -10 -12 -24q-8 -10 -21 -17q-6 -4 -14 -4q-4 0 -10 2q-12 6 -25 0q-8 -2 -11 -2t-7 2q-2 4 4 25q2 4 7 16.5 t7 14.5q4 8 4 32q0 23 6.5 29t6.5 19q2 14 24 39q10 12 29 30q6 6 6 12.5t14 16.5q12 12 19 12q8 0 14 10q8 8 14 9q8 0 17 6q10 4 35 4h30q52 0 64 4z" />
<glyph unicode="&#xa1;" horiz-adv-x="919" d="M416 1092q12 16 28 16h23q14 0 31 -2h16q10 -4 12 -10q6 -10 2 -29q-4 -27 -8 -31l-8 -24q-6 -14 4 -27q10 -6 10 -14q0 -4 -8 -21q-6 -12 -6 -24q0 -10 10 -31q10 -27 8 -45q-4 -25 -10 -31q-8 -12 -8 -14q0 -4 4 -12q4 -4 8 -25q2 -12 -2 -23q-6 -6 2 -22q4 -25 4 -82 q0 -68 6.5 -74t8.5 -100q0 -90 -6 -117q-8 -25 -9 -39q-2 -18 4 -30q8 -10 9 -39v-35v-51q2 -45 10 -53.5t8 -14.5q0 -4 -8 -12q-8 -6 -6 -25q2 -20 -8.5 -24t-53.5 -4q-23 2 -53 2h-31q-20 -2 -28 6q-6 6 -4 24v35q0 10 6 29q6 14 4 24q0 2 -6 39q-2 29 2 37q6 10 6 23 q0 4 -3 18t-3 16l-8 41v11q0 8 10 28q14 23 16 41q4 25 -2 35q-8 8 -8 49q-2 35 2 49q4 8 4 27l-6 18q-4 6 6 13q8 6 8 200q0 205 4 228q4 37 4 45q1 13 13 31zM391 1444q0 6 8 6q2 0 15 -6q10 -6 37 -4q29 0 59 -8q29 -8 31 -17q0 -2 4 -14t6 -19q8 -27 6 -36 q-6 -10 -2 -33q0 -25 -6 -37q-8 -14 -17 -14q-8 -4 -28 0t-33 4q-16 0 -22 6q-8 4 -12.5 4t-25 -8t-22.5 -8q-4 0 -4 4q-4 8 -4 39q0 51 -2 73q-2 23 -2 31q0 14 4 23q8 12 10 14z" />
</font>
</defs>
</svg>
